G04 #@! TF.FileFunction,Copper,L2,Bot,Signal*
%FSLAX46Y46*%
G04 Gerber Fmt 4.6, Leading zero omitted, Abs format (unit mm)*
G04 Created by KiCad (PCBNEW 4.0.4-stable) date 11/14/17 20:36:07*
%MOMM*%
%LPD*%
G01*
G04 APERTURE LIST*
%ADD10C,2.000000*%
%ADD11C,1.879600*%
%ADD12C,0.497840*%
%ADD13C,1.016000*%
%ADD14C,5.000000*%
%ADD15R,3.000000X1.000000*%
%ADD16C,3.000000*%
%ADD17R,1.879600X1.879600*%
%ADD18C,1.800000*%
%ADD19C,3.116000*%
%ADD20C,1.778000*%
%ADD21R,0.650000X1.060000*%
%ADD22R,1.270000X0.889000*%
%ADD23R,1.143000X1.016000*%
%ADD24R,1.016000X1.143000*%
%ADD25R,0.889000X0.889000*%
%ADD26R,1.016000X1.651000*%
%ADD27R,5.298440X6.197600*%
%ADD28C,1.320800*%
%ADD29C,4.114800*%
%ADD30R,0.698500X1.597660*%
%ADD31R,1.399540X1.597660*%
%ADD32R,1.399540X2.199640*%
%ADD33R,1.798320X1.399540*%
%ADD34R,1.270000X0.635000*%
%ADD35R,1.400000X1.300000*%
%ADD36R,1.000000X3.000000*%
%ADD37R,1.767840X1.798320*%
%ADD38R,1.798320X1.767840*%
%ADD39R,1.800000X1.100000*%
%ADD40C,1.270000*%
%ADD41C,1.348740*%
%ADD42R,1.348740X1.348740*%
%ADD43R,3.150000X1.000000*%
%ADD44R,2.247900X1.597660*%
%ADD45R,2.247900X1.498600*%
%ADD46R,0.635000X1.270000*%
%ADD47R,1.651000X3.048000*%
%ADD48C,0.600000*%
%ADD49C,0.203200*%
%ADD50C,0.200000*%
%ADD51C,0.300000*%
%ADD52C,0.254000*%
G04 APERTURE END LIST*
D10*
D11*
X35560000Y-24130000D03*
X33020000Y-24130000D03*
X30480000Y-24130000D03*
X27940000Y-24130000D03*
X25400000Y-24130000D03*
X22860000Y-24130000D03*
D12*
X65532000Y-78023720D03*
X65532000Y-78948280D03*
D13*
X12800000Y-58010000D03*
X14570000Y-55390000D03*
D14*
X2500000Y-52500000D03*
D15*
X2540000Y-78740000D03*
X8080000Y-78740000D03*
X2540000Y-76200000D03*
X8080000Y-76200000D03*
X2540000Y-73660000D03*
X8080000Y-73660000D03*
X2540000Y-71120000D03*
X8080000Y-71120000D03*
X2540000Y-68580000D03*
X8080000Y-68580000D03*
D13*
X35400000Y-66650000D03*
X33050000Y-68750000D03*
D16*
X37500000Y-75000000D03*
D17*
X8000000Y-2500000D03*
D11*
X10540000Y-2500000D03*
X13080000Y-2500000D03*
X15620000Y-2500000D03*
X18160000Y-2500000D03*
X20700000Y-2500000D03*
X23240000Y-2500000D03*
X25780000Y-2500000D03*
X28320000Y-2500000D03*
X30860000Y-2500000D03*
X33400000Y-2500000D03*
X35940000Y-2500000D03*
X38480000Y-2500000D03*
X41020000Y-2500000D03*
X43560000Y-2500000D03*
X46100000Y-2500000D03*
D14*
X2500000Y-2500000D03*
D18*
X89495000Y-15360000D03*
X86995000Y-15360000D03*
X84495000Y-15360000D03*
D19*
X92545000Y-22860000D03*
X81445000Y-22860000D03*
D20*
X84495000Y-29860000D03*
X89495000Y-29860000D03*
D21*
X48550000Y-118900000D03*
X49500000Y-118900000D03*
X50450000Y-118900000D03*
X50450000Y-121100000D03*
X48550000Y-121100000D03*
D12*
X11430000Y-15194280D03*
X11430000Y-14269720D03*
X49000020Y-126000000D03*
X49924580Y-126000000D03*
X50462280Y-47500000D03*
X49537720Y-47500000D03*
X50462280Y-134000000D03*
X49537720Y-134000000D03*
X50462280Y-112500000D03*
X49537720Y-112500000D03*
X52500000Y-92875420D03*
X52500000Y-93799980D03*
X47500000Y-92875420D03*
X47500000Y-93799980D03*
X55000020Y-64500000D03*
X55924580Y-64500000D03*
D22*
X11430000Y-12192000D03*
X11430000Y-10414000D03*
D23*
X36494000Y-103737000D03*
X36494000Y-101959000D03*
X38526000Y-102848000D03*
D24*
X18034000Y-79375000D03*
X16256000Y-79375000D03*
X17145000Y-77343000D03*
D23*
X78968000Y-98919000D03*
X78968000Y-97141000D03*
X81000000Y-98030000D03*
X76032000Y-129771000D03*
X76032000Y-131549000D03*
X74000000Y-130660000D03*
X44532000Y-147961000D03*
X44532000Y-149739000D03*
X42500000Y-148850000D03*
X75532000Y-104651000D03*
X75532000Y-106429000D03*
X73500000Y-105540000D03*
D12*
X6395720Y-12192000D03*
X7320280Y-12192000D03*
D25*
X71628000Y-13970000D03*
X73152000Y-13970000D03*
X81026000Y-15748000D03*
X81026000Y-14224000D03*
X68834000Y-22606000D03*
X68834000Y-24130000D03*
X49530000Y-26797000D03*
X49530000Y-25273000D03*
X44450000Y-10668000D03*
X44450000Y-12192000D03*
X50762000Y-93400000D03*
X49238000Y-93400000D03*
X40908000Y-103554000D03*
X42432000Y-103554000D03*
X34208000Y-103610000D03*
X34208000Y-102086000D03*
X19100000Y-76962000D03*
X19100000Y-75438000D03*
X17907000Y-83185000D03*
X16383000Y-83185000D03*
X80500000Y-104738000D03*
X80500000Y-106262000D03*
X77190000Y-98792000D03*
X77190000Y-97268000D03*
X73262000Y-128755000D03*
X71738000Y-128755000D03*
X77810000Y-129898000D03*
X77810000Y-131422000D03*
X43600000Y-145162000D03*
X43600000Y-143638000D03*
X47038000Y-146200000D03*
X48562000Y-146200000D03*
X72762000Y-103635000D03*
X71238000Y-103635000D03*
X77310000Y-104778000D03*
X77310000Y-106302000D03*
X44450000Y-8262000D03*
X44450000Y-6738000D03*
D26*
X6604000Y-17272000D03*
D27*
X8890000Y-24597360D03*
D26*
X11176000Y-17272000D03*
D28*
X52413000Y-90000000D03*
X47587000Y-90000000D03*
D29*
X91000000Y-11877800D03*
X91025400Y-4557000D03*
X94761600Y-8700000D03*
D30*
X60453600Y-149850000D03*
X61553420Y-149850000D03*
X62653240Y-149850000D03*
X63750520Y-149850000D03*
X64850340Y-149850000D03*
X65950160Y-149850000D03*
X67049980Y-149850000D03*
X68149800Y-149850000D03*
X69249620Y-149850000D03*
D31*
X70550100Y-150449440D03*
D32*
X70550100Y-159949040D03*
X54852900Y-159949040D03*
D33*
X55752060Y-150347840D03*
D34*
X17000000Y-74050000D03*
X17000000Y-74950000D03*
D25*
X60452000Y-19685000D03*
X58928000Y-19685000D03*
D35*
X55364000Y-22386000D03*
X55364000Y-24926000D03*
X55364000Y-27466000D03*
X55364000Y-30006000D03*
X64904000Y-22456000D03*
X64904000Y-24996000D03*
X64904000Y-27536000D03*
X64904000Y-30076000D03*
D13*
X60400000Y-66650000D03*
X58050000Y-68750000D03*
X85400000Y-66650000D03*
X83050000Y-68750000D03*
X10400000Y-91650000D03*
X8050000Y-93750000D03*
X35400000Y-91650000D03*
X33050000Y-93750000D03*
X60400000Y-91650000D03*
X58050000Y-93750000D03*
X85400000Y-91650000D03*
X83050000Y-93750000D03*
X10400000Y-116650000D03*
X8050000Y-118750000D03*
X35377000Y-116650000D03*
X33027000Y-118750000D03*
X60400000Y-116650000D03*
X58050000Y-118750000D03*
X85400000Y-116650000D03*
X83050000Y-118750000D03*
X10400000Y-141650000D03*
X8050000Y-143750000D03*
X35400000Y-141650000D03*
X33050000Y-143750000D03*
X60400000Y-141650000D03*
X58050000Y-143750000D03*
X85400000Y-141650000D03*
X83050000Y-143750000D03*
D36*
X2032000Y-11454000D03*
X2032000Y-16994000D03*
D15*
X47230000Y-45540000D03*
X52770000Y-45540000D03*
X47230000Y-43000000D03*
X52770000Y-43000000D03*
X47230000Y-40460000D03*
X52770000Y-40460000D03*
D36*
X12700000Y-64540000D03*
X12700000Y-70080000D03*
D37*
X98000000Y-13960380D03*
X98000000Y-18039620D03*
X69215000Y-30614620D03*
X69215000Y-26535380D03*
D38*
X18534380Y-52500000D03*
X22613620Y-52500000D03*
X27499980Y-52500000D03*
X31579220Y-52500000D03*
X68420780Y-52500000D03*
X72500020Y-52500000D03*
X81579220Y-52500000D03*
X77499980Y-52500000D03*
X18460380Y-97500000D03*
X22539620Y-97500000D03*
X27937380Y-97500000D03*
X32016620Y-97500000D03*
X68937380Y-97500000D03*
X73016620Y-97500000D03*
X93937380Y-97500000D03*
X98016620Y-97500000D03*
X18280380Y-122500000D03*
X22359620Y-122500000D03*
X27937380Y-122500000D03*
X32016620Y-122500000D03*
X68937380Y-122500000D03*
X73016620Y-122500000D03*
X93937380Y-122500000D03*
X98016620Y-122500000D03*
X6960380Y-147500000D03*
X11039620Y-147500000D03*
X27937380Y-147500000D03*
X32016620Y-147500000D03*
X68937380Y-147500000D03*
X73016620Y-147500000D03*
X89210380Y-147750000D03*
X93289620Y-147750000D03*
D39*
X38810000Y-14660000D03*
X45010000Y-14660000D03*
X45010000Y-18360000D03*
X38810000Y-18360000D03*
D15*
X8080000Y-106680000D03*
X2540000Y-106680000D03*
X8080000Y-109220000D03*
X2540000Y-109220000D03*
X8080000Y-111760000D03*
X2540000Y-111760000D03*
X8080000Y-114300000D03*
X2540000Y-114300000D03*
D25*
X51054000Y-20066000D03*
X49530000Y-20066000D03*
X51054000Y-18034000D03*
X49530000Y-18034000D03*
D15*
X98250000Y-132080000D03*
X92710000Y-132080000D03*
X98250000Y-134620000D03*
X92710000Y-134620000D03*
X98250000Y-137160000D03*
X92710000Y-137160000D03*
X98250000Y-139700000D03*
X92710000Y-139700000D03*
X39730000Y-28810000D03*
X45270000Y-28810000D03*
X39730000Y-26270000D03*
X45270000Y-26270000D03*
X39730000Y-23730000D03*
X45270000Y-23730000D03*
X39730000Y-21190000D03*
X45270000Y-21190000D03*
D12*
X71999980Y-94000000D03*
X71075420Y-94000000D03*
D37*
X31190000Y-89549620D03*
X31190000Y-85470380D03*
D40*
X3500000Y-30000640D03*
X3500000Y-34999360D03*
X96500000Y-34999360D03*
X96500000Y-30000640D03*
D25*
X52070000Y-27813000D03*
X52070000Y-29337000D03*
D41*
X17000000Y-30499980D03*
X22080000Y-30499980D03*
D42*
X19540000Y-32996800D03*
D43*
X2540000Y-139700000D03*
X7590000Y-139700000D03*
X2540000Y-137160000D03*
X7590000Y-137160000D03*
X2540000Y-134620000D03*
X7590000Y-134620000D03*
X2540000Y-132080000D03*
X7590000Y-132080000D03*
X7590000Y-121920000D03*
X2540000Y-121920000D03*
X7590000Y-124460000D03*
X2540000Y-124460000D03*
X7590000Y-127000000D03*
X2540000Y-127000000D03*
X7590000Y-129540000D03*
X2540000Y-129540000D03*
D44*
X84873120Y-2398900D03*
X84873120Y-5599300D03*
X84873120Y-8299320D03*
X78126880Y-8698100D03*
D45*
X78126880Y-1398140D03*
D44*
X78126880Y-3699380D03*
X78126880Y-6399400D03*
X84873120Y-10498960D03*
X75373120Y-2398900D03*
X75373120Y-5599300D03*
X75373120Y-8299320D03*
X68626880Y-8698100D03*
D45*
X68626880Y-1398140D03*
D44*
X68626880Y-3699380D03*
X68626880Y-6399400D03*
X75373120Y-10498960D03*
X56373120Y-2398900D03*
X56373120Y-5599300D03*
X56373120Y-8299320D03*
X49626880Y-8698100D03*
D45*
X49626880Y-1398140D03*
D44*
X49626880Y-3699380D03*
X49626880Y-6399400D03*
X56373120Y-10498960D03*
X65873120Y-2398900D03*
X65873120Y-5599300D03*
X65873120Y-8299320D03*
X59126880Y-8698100D03*
D45*
X59126880Y-1398140D03*
D44*
X59126880Y-3699380D03*
X59126880Y-6399400D03*
X65873120Y-10498960D03*
D25*
X8262000Y-51500000D03*
X6738000Y-51500000D03*
X22500000Y-56524000D03*
X22500000Y-55000000D03*
X15476000Y-91000000D03*
X17000000Y-91000000D03*
X15476000Y-119000000D03*
X17000000Y-119000000D03*
X15476000Y-149000000D03*
X17000000Y-149000000D03*
X15476000Y-152400000D03*
X17000000Y-152400000D03*
D46*
X60140000Y-15500000D03*
X59240000Y-15500000D03*
X52520000Y-15500000D03*
X51620000Y-15500000D03*
X48710000Y-15500000D03*
X47810000Y-15500000D03*
X63950000Y-15500000D03*
X63050000Y-15500000D03*
X67760000Y-15500000D03*
X66860000Y-15500000D03*
X55430000Y-15500000D03*
X56330000Y-15500000D03*
D47*
X17500000Y-12333000D03*
X17500000Y-17667000D03*
D10*
G36*
X51838478Y-64464109D02*
X52050610Y-64676241D01*
X50989950Y-65736901D01*
X50777818Y-65524769D01*
X51838478Y-64464109D01*
X51838478Y-64464109D01*
G37*
G36*
X52192031Y-64817662D02*
X52404163Y-65029794D01*
X51343503Y-66090454D01*
X51131371Y-65878322D01*
X52192031Y-64817662D01*
X52192031Y-64817662D01*
G37*
G36*
X52545584Y-65171216D02*
X52757716Y-65383348D01*
X51697056Y-66444008D01*
X51484924Y-66231876D01*
X52545584Y-65171216D01*
X52545584Y-65171216D01*
G37*
G36*
X52899138Y-65524769D02*
X53111270Y-65736901D01*
X52050610Y-66797561D01*
X51838478Y-66585429D01*
X52899138Y-65524769D01*
X52899138Y-65524769D01*
G37*
G36*
X53252691Y-65878323D02*
X53464823Y-66090455D01*
X52404163Y-67151115D01*
X52192031Y-66938983D01*
X53252691Y-65878323D01*
X53252691Y-65878323D01*
G37*
G36*
X53606245Y-66231876D02*
X53818377Y-66444008D01*
X52757717Y-67504668D01*
X52545585Y-67292536D01*
X53606245Y-66231876D01*
X53606245Y-66231876D01*
G37*
G36*
X53959798Y-66585429D02*
X54171930Y-66797561D01*
X53111270Y-67858221D01*
X52899138Y-67646089D01*
X53959798Y-66585429D01*
X53959798Y-66585429D01*
G37*
G36*
X54313351Y-66938983D02*
X54525483Y-67151115D01*
X53464823Y-68211775D01*
X53252691Y-67999643D01*
X54313351Y-66938983D01*
X54313351Y-66938983D01*
G37*
G36*
X54666905Y-67292536D02*
X54879037Y-67504668D01*
X53818377Y-68565328D01*
X53606245Y-68353196D01*
X54666905Y-67292536D01*
X54666905Y-67292536D01*
G37*
G36*
X55020458Y-67646090D02*
X55232590Y-67858222D01*
X54171930Y-68918882D01*
X53959798Y-68706750D01*
X55020458Y-67646090D01*
X55020458Y-67646090D01*
G37*
G36*
X55374011Y-67999643D02*
X55586143Y-68211775D01*
X54525483Y-69272435D01*
X54313351Y-69060303D01*
X55374011Y-67999643D01*
X55374011Y-67999643D01*
G37*
G36*
X55727565Y-68353196D02*
X55939697Y-68565328D01*
X54879037Y-69625988D01*
X54666905Y-69413856D01*
X55727565Y-68353196D01*
X55727565Y-68353196D01*
G37*
G36*
X56081118Y-68706750D02*
X56293250Y-68918882D01*
X55232590Y-69979542D01*
X55020458Y-69767410D01*
X56081118Y-68706750D01*
X56081118Y-68706750D01*
G37*
G36*
X56434672Y-69060303D02*
X56646804Y-69272435D01*
X55586144Y-70333095D01*
X55374012Y-70120963D01*
X56434672Y-69060303D01*
X56434672Y-69060303D01*
G37*
G36*
X56788225Y-69413857D02*
X57000357Y-69625989D01*
X55939697Y-70686649D01*
X55727565Y-70474517D01*
X56788225Y-69413857D01*
X56788225Y-69413857D01*
G37*
G36*
X57141778Y-69767410D02*
X57353910Y-69979542D01*
X56293250Y-71040202D01*
X56081118Y-70828070D01*
X57141778Y-69767410D01*
X57141778Y-69767410D01*
G37*
G36*
X57495332Y-70120963D02*
X57707464Y-70333095D01*
X56646804Y-71393755D01*
X56434672Y-71181623D01*
X57495332Y-70120963D01*
X57495332Y-70120963D01*
G37*
G36*
X57848885Y-70474517D02*
X58061017Y-70686649D01*
X57000357Y-71747309D01*
X56788225Y-71535177D01*
X57848885Y-70474517D01*
X57848885Y-70474517D01*
G37*
G36*
X58202439Y-70828070D02*
X58414571Y-71040202D01*
X57353911Y-72100862D01*
X57141779Y-71888730D01*
X58202439Y-70828070D01*
X58202439Y-70828070D01*
G37*
G36*
X58555992Y-71181623D02*
X58768124Y-71393755D01*
X57707464Y-72454415D01*
X57495332Y-72242283D01*
X58555992Y-71181623D01*
X58555992Y-71181623D01*
G37*
G36*
X58909545Y-71535177D02*
X59121677Y-71747309D01*
X58061017Y-72807969D01*
X57848885Y-72595837D01*
X58909545Y-71535177D01*
X58909545Y-71535177D01*
G37*
G36*
X59263099Y-71888730D02*
X59475231Y-72100862D01*
X58414571Y-73161522D01*
X58202439Y-72949390D01*
X59263099Y-71888730D01*
X59263099Y-71888730D01*
G37*
G36*
X59616652Y-72242284D02*
X59828784Y-72454416D01*
X58768124Y-73515076D01*
X58555992Y-73302944D01*
X59616652Y-72242284D01*
X59616652Y-72242284D01*
G37*
G36*
X59970206Y-72595837D02*
X60182338Y-72807969D01*
X59121678Y-73868629D01*
X58909546Y-73656497D01*
X59970206Y-72595837D01*
X59970206Y-72595837D01*
G37*
G36*
X60323759Y-72949390D02*
X60535891Y-73161522D01*
X59475231Y-74222182D01*
X59263099Y-74010050D01*
X60323759Y-72949390D01*
X60323759Y-72949390D01*
G37*
G36*
X59475231Y-75777818D02*
X60535891Y-76838478D01*
X60323759Y-77050610D01*
X59263099Y-75989950D01*
X59475231Y-75777818D01*
X59475231Y-75777818D01*
G37*
G36*
X59121678Y-76131371D02*
X60182338Y-77192031D01*
X59970206Y-77404163D01*
X58909546Y-76343503D01*
X59121678Y-76131371D01*
X59121678Y-76131371D01*
G37*
G36*
X58768124Y-76484924D02*
X59828784Y-77545584D01*
X59616652Y-77757716D01*
X58555992Y-76697056D01*
X58768124Y-76484924D01*
X58768124Y-76484924D01*
G37*
G36*
X58414571Y-76838478D02*
X59475231Y-77899138D01*
X59263099Y-78111270D01*
X58202439Y-77050610D01*
X58414571Y-76838478D01*
X58414571Y-76838478D01*
G37*
G36*
X58061017Y-77192031D02*
X59121677Y-78252691D01*
X58909545Y-78464823D01*
X57848885Y-77404163D01*
X58061017Y-77192031D01*
X58061017Y-77192031D01*
G37*
G36*
X57707464Y-77545585D02*
X58768124Y-78606245D01*
X58555992Y-78818377D01*
X57495332Y-77757717D01*
X57707464Y-77545585D01*
X57707464Y-77545585D01*
G37*
G36*
X57353911Y-77899138D02*
X58414571Y-78959798D01*
X58202439Y-79171930D01*
X57141779Y-78111270D01*
X57353911Y-77899138D01*
X57353911Y-77899138D01*
G37*
G36*
X57000357Y-78252691D02*
X58061017Y-79313351D01*
X57848885Y-79525483D01*
X56788225Y-78464823D01*
X57000357Y-78252691D01*
X57000357Y-78252691D01*
G37*
G36*
X56646804Y-78606245D02*
X57707464Y-79666905D01*
X57495332Y-79879037D01*
X56434672Y-78818377D01*
X56646804Y-78606245D01*
X56646804Y-78606245D01*
G37*
G36*
X56293250Y-78959798D02*
X57353910Y-80020458D01*
X57141778Y-80232590D01*
X56081118Y-79171930D01*
X56293250Y-78959798D01*
X56293250Y-78959798D01*
G37*
G36*
X55939697Y-79313351D02*
X57000357Y-80374011D01*
X56788225Y-80586143D01*
X55727565Y-79525483D01*
X55939697Y-79313351D01*
X55939697Y-79313351D01*
G37*
G36*
X55586144Y-79666905D02*
X56646804Y-80727565D01*
X56434672Y-80939697D01*
X55374012Y-79879037D01*
X55586144Y-79666905D01*
X55586144Y-79666905D01*
G37*
G36*
X55232590Y-80020458D02*
X56293250Y-81081118D01*
X56081118Y-81293250D01*
X55020458Y-80232590D01*
X55232590Y-80020458D01*
X55232590Y-80020458D01*
G37*
G36*
X54879037Y-80374012D02*
X55939697Y-81434672D01*
X55727565Y-81646804D01*
X54666905Y-80586144D01*
X54879037Y-80374012D01*
X54879037Y-80374012D01*
G37*
G36*
X54525483Y-80727565D02*
X55586143Y-81788225D01*
X55374011Y-82000357D01*
X54313351Y-80939697D01*
X54525483Y-80727565D01*
X54525483Y-80727565D01*
G37*
G36*
X54171930Y-81081118D02*
X55232590Y-82141778D01*
X55020458Y-82353910D01*
X53959798Y-81293250D01*
X54171930Y-81081118D01*
X54171930Y-81081118D01*
G37*
G36*
X53818377Y-81434672D02*
X54879037Y-82495332D01*
X54666905Y-82707464D01*
X53606245Y-81646804D01*
X53818377Y-81434672D01*
X53818377Y-81434672D01*
G37*
G36*
X53464823Y-81788225D02*
X54525483Y-82848885D01*
X54313351Y-83061017D01*
X53252691Y-82000357D01*
X53464823Y-81788225D01*
X53464823Y-81788225D01*
G37*
G36*
X53111270Y-82141779D02*
X54171930Y-83202439D01*
X53959798Y-83414571D01*
X52899138Y-82353911D01*
X53111270Y-82141779D01*
X53111270Y-82141779D01*
G37*
G36*
X52757717Y-82495332D02*
X53818377Y-83555992D01*
X53606245Y-83768124D01*
X52545585Y-82707464D01*
X52757717Y-82495332D01*
X52757717Y-82495332D01*
G37*
G36*
X52404163Y-82848885D02*
X53464823Y-83909545D01*
X53252691Y-84121677D01*
X52192031Y-83061017D01*
X52404163Y-82848885D01*
X52404163Y-82848885D01*
G37*
G36*
X52050610Y-83202439D02*
X53111270Y-84263099D01*
X52899138Y-84475231D01*
X51838478Y-83414571D01*
X52050610Y-83202439D01*
X52050610Y-83202439D01*
G37*
G36*
X51697056Y-83555992D02*
X52757716Y-84616652D01*
X52545584Y-84828784D01*
X51484924Y-83768124D01*
X51697056Y-83555992D01*
X51697056Y-83555992D01*
G37*
G36*
X51343503Y-83909546D02*
X52404163Y-84970206D01*
X52192031Y-85182338D01*
X51131371Y-84121678D01*
X51343503Y-83909546D01*
X51343503Y-83909546D01*
G37*
G36*
X50989950Y-84263099D02*
X52050610Y-85323759D01*
X51838478Y-85535891D01*
X50777818Y-84475231D01*
X50989950Y-84263099D01*
X50989950Y-84263099D01*
G37*
G36*
X49010050Y-84263099D02*
X49222182Y-84475231D01*
X48161522Y-85535891D01*
X47949390Y-85323759D01*
X49010050Y-84263099D01*
X49010050Y-84263099D01*
G37*
G36*
X48656497Y-83909546D02*
X48868629Y-84121678D01*
X47807969Y-85182338D01*
X47595837Y-84970206D01*
X48656497Y-83909546D01*
X48656497Y-83909546D01*
G37*
G36*
X48302944Y-83555992D02*
X48515076Y-83768124D01*
X47454416Y-84828784D01*
X47242284Y-84616652D01*
X48302944Y-83555992D01*
X48302944Y-83555992D01*
G37*
G36*
X47949390Y-83202439D02*
X48161522Y-83414571D01*
X47100862Y-84475231D01*
X46888730Y-84263099D01*
X47949390Y-83202439D01*
X47949390Y-83202439D01*
G37*
G36*
X47595837Y-82848885D02*
X47807969Y-83061017D01*
X46747309Y-84121677D01*
X46535177Y-83909545D01*
X47595837Y-82848885D01*
X47595837Y-82848885D01*
G37*
G36*
X47242283Y-82495332D02*
X47454415Y-82707464D01*
X46393755Y-83768124D01*
X46181623Y-83555992D01*
X47242283Y-82495332D01*
X47242283Y-82495332D01*
G37*
G36*
X46888730Y-82141779D02*
X47100862Y-82353911D01*
X46040202Y-83414571D01*
X45828070Y-83202439D01*
X46888730Y-82141779D01*
X46888730Y-82141779D01*
G37*
G36*
X46535177Y-81788225D02*
X46747309Y-82000357D01*
X45686649Y-83061017D01*
X45474517Y-82848885D01*
X46535177Y-81788225D01*
X46535177Y-81788225D01*
G37*
G36*
X46181623Y-81434672D02*
X46393755Y-81646804D01*
X45333095Y-82707464D01*
X45120963Y-82495332D01*
X46181623Y-81434672D01*
X46181623Y-81434672D01*
G37*
G36*
X45828070Y-81081118D02*
X46040202Y-81293250D01*
X44979542Y-82353910D01*
X44767410Y-82141778D01*
X45828070Y-81081118D01*
X45828070Y-81081118D01*
G37*
G36*
X45474517Y-80727565D02*
X45686649Y-80939697D01*
X44625989Y-82000357D01*
X44413857Y-81788225D01*
X45474517Y-80727565D01*
X45474517Y-80727565D01*
G37*
G36*
X45120963Y-80374012D02*
X45333095Y-80586144D01*
X44272435Y-81646804D01*
X44060303Y-81434672D01*
X45120963Y-80374012D01*
X45120963Y-80374012D01*
G37*
G36*
X44767410Y-80020458D02*
X44979542Y-80232590D01*
X43918882Y-81293250D01*
X43706750Y-81081118D01*
X44767410Y-80020458D01*
X44767410Y-80020458D01*
G37*
G36*
X44413856Y-79666905D02*
X44625988Y-79879037D01*
X43565328Y-80939697D01*
X43353196Y-80727565D01*
X44413856Y-79666905D01*
X44413856Y-79666905D01*
G37*
G36*
X44060303Y-79313351D02*
X44272435Y-79525483D01*
X43211775Y-80586143D01*
X42999643Y-80374011D01*
X44060303Y-79313351D01*
X44060303Y-79313351D01*
G37*
G36*
X43706750Y-78959798D02*
X43918882Y-79171930D01*
X42858222Y-80232590D01*
X42646090Y-80020458D01*
X43706750Y-78959798D01*
X43706750Y-78959798D01*
G37*
G36*
X43353196Y-78606245D02*
X43565328Y-78818377D01*
X42504668Y-79879037D01*
X42292536Y-79666905D01*
X43353196Y-78606245D01*
X43353196Y-78606245D01*
G37*
G36*
X42999643Y-78252691D02*
X43211775Y-78464823D01*
X42151115Y-79525483D01*
X41938983Y-79313351D01*
X42999643Y-78252691D01*
X42999643Y-78252691D01*
G37*
G36*
X42646089Y-77899138D02*
X42858221Y-78111270D01*
X41797561Y-79171930D01*
X41585429Y-78959798D01*
X42646089Y-77899138D01*
X42646089Y-77899138D01*
G37*
G36*
X42292536Y-77545585D02*
X42504668Y-77757717D01*
X41444008Y-78818377D01*
X41231876Y-78606245D01*
X42292536Y-77545585D01*
X42292536Y-77545585D01*
G37*
G36*
X41938983Y-77192031D02*
X42151115Y-77404163D01*
X41090455Y-78464823D01*
X40878323Y-78252691D01*
X41938983Y-77192031D01*
X41938983Y-77192031D01*
G37*
G36*
X41585429Y-76838478D02*
X41797561Y-77050610D01*
X40736901Y-78111270D01*
X40524769Y-77899138D01*
X41585429Y-76838478D01*
X41585429Y-76838478D01*
G37*
G36*
X41231876Y-76484924D02*
X41444008Y-76697056D01*
X40383348Y-77757716D01*
X40171216Y-77545584D01*
X41231876Y-76484924D01*
X41231876Y-76484924D01*
G37*
G36*
X40878322Y-76131371D02*
X41090454Y-76343503D01*
X40029794Y-77404163D01*
X39817662Y-77192031D01*
X40878322Y-76131371D01*
X40878322Y-76131371D01*
G37*
G36*
X40524769Y-75777818D02*
X40736901Y-75989950D01*
X39676241Y-77050610D01*
X39464109Y-76838478D01*
X40524769Y-75777818D01*
X40524769Y-75777818D01*
G37*
G36*
X39676241Y-72949390D02*
X40736901Y-74010050D01*
X40524769Y-74222182D01*
X39464109Y-73161522D01*
X39676241Y-72949390D01*
X39676241Y-72949390D01*
G37*
G36*
X40029794Y-72595837D02*
X41090454Y-73656497D01*
X40878322Y-73868629D01*
X39817662Y-72807969D01*
X40029794Y-72595837D01*
X40029794Y-72595837D01*
G37*
G36*
X40383348Y-72242284D02*
X41444008Y-73302944D01*
X41231876Y-73515076D01*
X40171216Y-72454416D01*
X40383348Y-72242284D01*
X40383348Y-72242284D01*
G37*
G36*
X40736901Y-71888730D02*
X41797561Y-72949390D01*
X41585429Y-73161522D01*
X40524769Y-72100862D01*
X40736901Y-71888730D01*
X40736901Y-71888730D01*
G37*
G36*
X41090455Y-71535177D02*
X42151115Y-72595837D01*
X41938983Y-72807969D01*
X40878323Y-71747309D01*
X41090455Y-71535177D01*
X41090455Y-71535177D01*
G37*
G36*
X41444008Y-71181623D02*
X42504668Y-72242283D01*
X42292536Y-72454415D01*
X41231876Y-71393755D01*
X41444008Y-71181623D01*
X41444008Y-71181623D01*
G37*
G36*
X41797561Y-70828070D02*
X42858221Y-71888730D01*
X42646089Y-72100862D01*
X41585429Y-71040202D01*
X41797561Y-70828070D01*
X41797561Y-70828070D01*
G37*
G36*
X42151115Y-70474517D02*
X43211775Y-71535177D01*
X42999643Y-71747309D01*
X41938983Y-70686649D01*
X42151115Y-70474517D01*
X42151115Y-70474517D01*
G37*
G36*
X42504668Y-70120963D02*
X43565328Y-71181623D01*
X43353196Y-71393755D01*
X42292536Y-70333095D01*
X42504668Y-70120963D01*
X42504668Y-70120963D01*
G37*
G36*
X42858222Y-69767410D02*
X43918882Y-70828070D01*
X43706750Y-71040202D01*
X42646090Y-69979542D01*
X42858222Y-69767410D01*
X42858222Y-69767410D01*
G37*
G36*
X43211775Y-69413857D02*
X44272435Y-70474517D01*
X44060303Y-70686649D01*
X42999643Y-69625989D01*
X43211775Y-69413857D01*
X43211775Y-69413857D01*
G37*
G36*
X43565328Y-69060303D02*
X44625988Y-70120963D01*
X44413856Y-70333095D01*
X43353196Y-69272435D01*
X43565328Y-69060303D01*
X43565328Y-69060303D01*
G37*
G36*
X43918882Y-68706750D02*
X44979542Y-69767410D01*
X44767410Y-69979542D01*
X43706750Y-68918882D01*
X43918882Y-68706750D01*
X43918882Y-68706750D01*
G37*
G36*
X44272435Y-68353196D02*
X45333095Y-69413856D01*
X45120963Y-69625988D01*
X44060303Y-68565328D01*
X44272435Y-68353196D01*
X44272435Y-68353196D01*
G37*
G36*
X44625989Y-67999643D02*
X45686649Y-69060303D01*
X45474517Y-69272435D01*
X44413857Y-68211775D01*
X44625989Y-67999643D01*
X44625989Y-67999643D01*
G37*
G36*
X44979542Y-67646090D02*
X46040202Y-68706750D01*
X45828070Y-68918882D01*
X44767410Y-67858222D01*
X44979542Y-67646090D01*
X44979542Y-67646090D01*
G37*
G36*
X45333095Y-67292536D02*
X46393755Y-68353196D01*
X46181623Y-68565328D01*
X45120963Y-67504668D01*
X45333095Y-67292536D01*
X45333095Y-67292536D01*
G37*
G36*
X45686649Y-66938983D02*
X46747309Y-67999643D01*
X46535177Y-68211775D01*
X45474517Y-67151115D01*
X45686649Y-66938983D01*
X45686649Y-66938983D01*
G37*
G36*
X46040202Y-66585429D02*
X47100862Y-67646089D01*
X46888730Y-67858221D01*
X45828070Y-66797561D01*
X46040202Y-66585429D01*
X46040202Y-66585429D01*
G37*
G36*
X46393755Y-66231876D02*
X47454415Y-67292536D01*
X47242283Y-67504668D01*
X46181623Y-66444008D01*
X46393755Y-66231876D01*
X46393755Y-66231876D01*
G37*
G36*
X46747309Y-65878323D02*
X47807969Y-66938983D01*
X47595837Y-67151115D01*
X46535177Y-66090455D01*
X46747309Y-65878323D01*
X46747309Y-65878323D01*
G37*
G36*
X47100862Y-65524769D02*
X48161522Y-66585429D01*
X47949390Y-66797561D01*
X46888730Y-65736901D01*
X47100862Y-65524769D01*
X47100862Y-65524769D01*
G37*
G36*
X47454416Y-65171216D02*
X48515076Y-66231876D01*
X48302944Y-66444008D01*
X47242284Y-65383348D01*
X47454416Y-65171216D01*
X47454416Y-65171216D01*
G37*
G36*
X47807969Y-64817662D02*
X48868629Y-65878322D01*
X48656497Y-66090454D01*
X47595837Y-65029794D01*
X47807969Y-64817662D01*
X47807969Y-64817662D01*
G37*
G36*
X48161522Y-64464109D02*
X49222182Y-65524769D01*
X49010050Y-65736901D01*
X47949390Y-64676241D01*
X48161522Y-64464109D01*
X48161522Y-64464109D01*
G37*
D16*
X75000000Y-137500000D03*
X12500000Y-75000000D03*
X87500000Y-75000000D03*
X25000000Y-62500000D03*
X62500000Y-75000000D03*
X25000000Y-87500000D03*
X25000000Y-137500000D03*
X37500000Y-125000000D03*
X75000000Y-62500000D03*
X25000000Y-112500000D03*
X12500000Y-125000000D03*
X75000000Y-87500000D03*
D14*
X47500000Y-52500000D03*
X97500000Y-52500000D03*
X52500000Y-97500000D03*
X47500000Y-102500000D03*
X97500000Y-2500000D03*
X97500000Y-102500000D03*
X2500000Y-97500000D03*
X2500000Y-147500000D03*
X97500000Y-147500000D03*
D16*
X97500000Y-161500000D03*
X87500000Y-125000000D03*
X2500000Y-161500000D03*
X75000000Y-112500000D03*
X62500000Y-125000000D03*
D12*
X32837720Y-26300000D03*
X33762280Y-26300000D03*
D14*
X52500000Y-147500000D03*
D48*
X34290128Y-86994057D03*
X22308933Y-75142873D03*
X51113740Y-75273448D03*
X45048878Y-143497042D03*
X18893732Y-25207400D03*
X19853600Y-146738000D03*
X45330200Y-136655000D03*
X77998200Y-137211000D03*
X71427000Y-153529000D03*
X20589800Y-73719100D03*
X37789800Y-137876000D03*
X7267800Y-10795000D03*
X72903600Y-130476000D03*
X85805100Y-109792000D03*
X89085300Y-154543000D03*
X60805100Y-87725000D03*
X83594900Y-86815300D03*
X12488700Y-139833000D03*
X11798200Y-89105800D03*
X83594900Y-136827000D03*
X52253900Y-12433800D03*
X51377000Y-9175400D03*
X59518000Y-111813000D03*
X86009600Y-60129200D03*
X61230000Y-135721000D03*
X48878200Y-133585000D03*
X77998200Y-152097000D03*
X20302800Y-60563800D03*
X11039200Y-60620900D03*
X70548100Y-54699200D03*
X61563300Y-109313000D03*
X86430900Y-47302300D03*
X49836500Y-65887800D03*
X51343900Y-47405800D03*
X51258100Y-73372000D03*
X11533800Y-110400000D03*
X51112000Y-87681300D03*
X50147300Y-120000000D03*
X50397900Y-71007600D03*
X61144600Y-60109100D03*
X50270700Y-60110000D03*
X47606300Y-46607900D03*
X21765300Y-87541700D03*
X36012900Y-61007900D03*
X48878200Y-120000000D03*
X73118800Y-100522000D03*
X78613100Y-106128000D03*
X73118800Y-94432200D03*
X72949900Y-89115800D03*
X68367100Y-21460500D03*
X35990700Y-110713000D03*
X39450000Y-115027000D03*
X16028800Y-25350700D03*
X50448195Y-152234313D03*
X50122490Y-73531122D03*
X63382100Y-138787000D03*
X38594900Y-137989000D03*
X40878100Y-113177000D03*
X13594900Y-90208200D03*
X12726600Y-110562000D03*
X22320100Y-90525300D03*
X50964900Y-39523800D03*
X13120500Y-141153000D03*
X22246800Y-145222000D03*
X21016700Y-57709000D03*
X88387300Y-138792000D03*
X38096400Y-63236400D03*
X60676400Y-112116000D03*
X19056200Y-118702000D03*
X50340100Y-46596300D03*
X49197300Y-66917500D03*
X62390000Y-83815100D03*
X64429800Y-90500000D03*
X12657000Y-60091900D03*
X37314700Y-87719800D03*
X72881600Y-61033000D03*
X65810700Y-62067200D03*
X85902400Y-89840600D03*
X88721400Y-112099000D03*
X84630400Y-62772600D03*
X49866499Y-143458137D03*
X51148300Y-128847000D03*
X50692600Y-126140000D03*
X40434700Y-14467500D03*
X49470200Y-28873600D03*
X56257200Y-78258300D03*
X54711100Y-83994900D03*
X53928500Y-88086200D03*
X62700000Y-148300000D03*
X70155400Y-109426000D03*
X63427347Y-146927347D03*
X49662336Y-145211885D03*
X67058700Y-151162000D03*
X74076600Y-132900000D03*
X45201900Y-45409800D03*
X37871200Y-40731800D03*
X55000000Y-42234900D03*
X5176600Y-39518100D03*
X78582300Y-40834300D03*
X7124900Y-50072500D03*
X52961800Y-68754000D03*
X30276600Y-82955300D03*
X43430700Y-68421800D03*
X30000000Y-50057600D03*
X65381100Y-49900700D03*
X78518400Y-48302100D03*
X34826600Y-54042700D03*
X46501300Y-56515200D03*
X95851400Y-44662300D03*
X38273500Y-96132000D03*
X47276900Y-87581700D03*
X47465000Y-71640000D03*
X30598600Y-122543000D03*
X26111800Y-117857000D03*
X28383900Y-73954000D03*
X32797300Y-127690000D03*
X47063714Y-142761266D03*
X48403100Y-72413600D03*
X52585700Y-153726000D03*
X27564700Y-153795000D03*
X5512700Y-153179000D03*
X48222500Y-73217200D03*
X43660800Y-73182600D03*
X43234200Y-75201000D03*
X42102300Y-75800300D03*
X53650800Y-78688300D03*
X57286800Y-80864800D03*
X54052500Y-63632700D03*
X43932200Y-34114400D03*
X51781500Y-78077500D03*
X53719500Y-65388100D03*
X54194700Y-59660900D03*
X48322103Y-139572055D03*
X49234400Y-72477800D03*
X49354500Y-55715500D03*
X68013655Y-73421960D03*
X77819000Y-46083800D03*
X77232700Y-92982100D03*
X67290800Y-45439600D03*
X74213300Y-128843000D03*
X60070500Y-74582700D03*
X63598200Y-77740200D03*
X74836400Y-122187000D03*
X86461000Y-128984000D03*
X64780100Y-77702600D03*
X57154700Y-24359700D03*
X55761500Y-82383600D03*
X62022700Y-16513400D03*
X53034100Y-81200800D03*
X53690700Y-20181400D03*
X73943800Y-66819500D03*
X76990900Y-33193100D03*
X50446000Y-85267500D03*
X68868600Y-126819000D03*
X51500800Y-102474000D03*
X66134800Y-125583000D03*
X70338000Y-74421900D03*
X72911300Y-102294000D03*
X53300200Y-16404500D03*
X42509300Y-81145900D03*
X32099200Y-96087600D03*
X32099200Y-100264000D03*
X50055975Y-81635752D03*
X66717400Y-125005000D03*
X24657200Y-83506900D03*
X23183800Y-101001000D03*
X20638500Y-79991300D03*
X9824300Y-102246000D03*
X21269000Y-78854400D03*
X9331300Y-103468000D03*
X27135000Y-74983000D03*
X26308100Y-104710000D03*
X47467400Y-68217800D03*
X47467400Y-63755800D03*
X40025100Y-33225600D03*
X40025100Y-24752500D03*
X43081800Y-27011000D03*
X41126300Y-33717300D03*
X55248800Y-73288200D03*
X54089500Y-58402600D03*
X46099600Y-78831800D03*
X51750600Y-17129100D03*
X22389000Y-124411000D03*
X23858700Y-120980000D03*
X30536500Y-128256000D03*
X28146800Y-77829900D03*
X31631200Y-103614000D03*
X29015300Y-71957212D03*
X32643700Y-102701000D03*
X66041400Y-151176000D03*
X71167200Y-111584000D03*
X52413600Y-80672200D03*
X53085600Y-29734200D03*
X78788100Y-65007500D03*
X92611400Y-144626000D03*
X87323900Y-121268000D03*
X4590900Y-117766000D03*
X8619800Y-53829800D03*
X10611000Y-95513800D03*
X6066900Y-154816000D03*
X44390600Y-55161000D03*
X38866600Y-51816900D03*
X29823700Y-71957212D03*
X33267100Y-120612000D03*
X31590400Y-56456800D03*
X48320800Y-71607700D03*
X30565900Y-92958600D03*
X30298400Y-143848000D03*
X54024300Y-138183000D03*
X54024300Y-120028000D03*
X69987500Y-65007500D03*
X68952500Y-93687000D03*
X37002500Y-37781200D03*
X18723000Y-39594400D03*
X72560500Y-38123600D03*
X45690000Y-41526100D03*
X98919000Y-39404500D03*
X69657100Y-39592900D03*
X24845900Y-43226800D03*
X39307700Y-36233900D03*
X49118700Y-36186600D03*
X93723000Y-39264800D03*
X49424300Y-42333800D03*
X44823500Y-42347400D03*
X39288100Y-39408300D03*
X19853600Y-46591300D03*
X73040000Y-45431700D03*
X46352900Y-48087500D03*
X98919000Y-43382500D03*
X68723000Y-46585500D03*
X89539900Y-47118200D03*
X45648900Y-56510100D03*
X32195500Y-55692200D03*
X14338700Y-59534000D03*
X34894200Y-65135500D03*
X12573800Y-61700900D03*
X63372900Y-60578000D03*
X46786000Y-59966600D03*
X42164700Y-68984100D03*
X35805100Y-63075100D03*
X86612000Y-62059500D03*
X61024800Y-64219700D03*
X15756300Y-87011800D03*
X37724600Y-79332500D03*
X47200000Y-61065500D03*
X83594900Y-62700800D03*
X38377600Y-86166300D03*
X12160200Y-89886100D03*
X63395400Y-86121700D03*
X46870200Y-86780700D03*
X36734500Y-95642700D03*
X36878600Y-91289300D03*
X84762600Y-87968500D03*
X61444400Y-89639300D03*
X47925145Y-91559846D03*
X14996200Y-111813000D03*
X35797100Y-98639900D03*
X83488400Y-88171600D03*
X34918500Y-109695000D03*
X31069900Y-105919000D03*
X28250000Y-102788000D03*
X13646300Y-115428000D03*
X64038100Y-111814000D03*
X39024300Y-115760000D03*
X88214100Y-111181000D03*
X62811200Y-114114000D03*
X15150800Y-137909000D03*
X85805100Y-115011000D03*
X36180500Y-134772000D03*
X11094200Y-139463000D03*
X60659900Y-136922000D03*
X37574500Y-139578000D03*
X86945600Y-136454000D03*
X63886300Y-137521000D03*
X85280900Y-134760000D03*
X29027500Y-142808000D03*
X67065523Y-73223714D03*
X49160600Y-34984800D03*
X39206800Y-34984800D03*
X45191200Y-96203200D03*
X43602500Y-106219000D03*
X25259000Y-117954000D03*
X31499800Y-127695000D03*
X45268100Y-79024800D03*
X48115500Y-56787000D03*
X69996200Y-45305500D03*
X66035400Y-15658600D03*
X42743400Y-32623100D03*
X41851600Y-29126500D03*
X66496641Y-72422110D03*
X71146700Y-68545700D03*
X47506700Y-33776900D03*
X50281800Y-12721800D03*
X35521900Y-70692800D03*
X47558100Y-2777500D03*
X34167500Y-76283600D03*
X71753500Y-67068300D03*
X71941900Y-12048000D03*
X65746753Y-72801364D03*
X65238500Y-13966300D03*
X64996868Y-72258342D03*
X70214500Y-33186600D03*
X46705000Y-75558900D03*
X41496600Y-74552900D03*
X42720900Y-93567100D03*
X46705000Y-69483800D03*
X50132800Y-75800707D03*
X41409600Y-75356500D03*
X49660900Y-68127800D03*
X32259600Y-71513400D03*
X59675100Y-43769100D03*
X64344000Y-43553600D03*
X21851200Y-48808400D03*
X26728300Y-86131300D03*
X53203100Y-84902600D03*
X70562100Y-145883000D03*
D49*
X27124900Y-85526200D02*
X28592757Y-86994057D01*
X23780800Y-85526200D02*
X27124900Y-85526200D01*
X33865864Y-86994057D02*
X34290128Y-86994057D01*
X28592757Y-86994057D02*
X33865864Y-86994057D01*
X21765300Y-87541700D02*
X23780800Y-85526200D01*
X17000000Y-74950000D02*
X18612000Y-74950000D01*
X18612000Y-74950000D02*
X19100000Y-75438000D01*
X19100000Y-75438000D02*
X19100000Y-74790300D01*
X19100000Y-74790300D02*
X20171200Y-73719100D01*
X20171200Y-73719100D02*
X20589800Y-73719100D01*
X22608932Y-74842874D02*
X22308933Y-75142873D01*
X23344106Y-74107700D02*
X22608932Y-74842874D01*
X27521700Y-74107700D02*
X23344106Y-74107700D01*
D50*
X20570900Y-73738000D02*
X20589800Y-73719100D01*
D49*
X31361100Y-74566400D02*
X34558200Y-71369300D01*
X43130800Y-73787700D02*
X46025600Y-73787700D01*
X50030094Y-74468934D02*
X50534609Y-74973449D01*
X50813741Y-74973449D02*
X51113740Y-75273448D01*
X27521700Y-74107700D02*
X27980400Y-74566400D01*
X46025600Y-73787700D02*
X46706834Y-74468934D01*
X50534609Y-74973449D02*
X50813741Y-74973449D01*
X34558200Y-71369300D02*
X40712400Y-71369300D01*
X46706834Y-74468934D02*
X50030094Y-74468934D01*
X27980400Y-74566400D02*
X31361100Y-74566400D01*
X40712400Y-71369300D02*
X43130800Y-73787700D01*
D50*
X43600000Y-143638000D02*
X44907920Y-143638000D01*
X44907920Y-143638000D02*
X45048878Y-143497042D01*
D49*
X21648832Y-22452300D02*
X18893732Y-25207400D01*
X28802300Y-22452300D02*
X21648832Y-22452300D01*
X30480000Y-24130000D02*
X28802300Y-22452300D01*
X16853000Y-30353000D02*
X17000000Y-30500000D01*
X13321700Y-30353000D02*
X16853000Y-30353000D01*
X44450000Y-9918400D02*
X44450000Y-10668000D01*
X45653000Y-8715400D02*
X44450000Y-9918400D01*
X45670300Y-8698100D02*
X45653000Y-8715400D01*
X49626900Y-8698100D02*
X45670300Y-8698100D01*
X45199600Y-8262000D02*
X44450000Y-8262000D01*
X45653000Y-8715400D02*
X45199600Y-8262000D01*
X6395700Y-11667100D02*
X7267800Y-10795000D01*
X6395700Y-12192000D02*
X6395700Y-11667100D01*
X71932500Y-129505000D02*
X72903600Y-130476000D01*
X71738000Y-129505000D02*
X71932500Y-129505000D01*
X71738000Y-128755000D02*
X71738000Y-129505000D01*
X12948400Y-139833000D02*
X12488700Y-139833000D01*
X19853600Y-146738000D02*
X12948400Y-139833000D01*
X51054000Y-17284400D02*
X50996200Y-17284400D01*
X51054000Y-18034000D02*
X51054000Y-17284400D01*
X49951100Y-18963100D02*
X51054000Y-20066000D01*
X49071100Y-18963100D02*
X49951100Y-18963100D01*
X48760800Y-18652800D02*
X49071100Y-18963100D01*
X48760800Y-17436800D02*
X48760800Y-18652800D01*
X48913200Y-17284400D02*
X48760800Y-17436800D01*
X50996200Y-17284400D02*
X48913200Y-17284400D01*
X83211100Y-137211000D02*
X83594900Y-136827000D01*
X77998200Y-137211000D02*
X83211100Y-137211000D01*
X51055900Y-8854300D02*
X51377000Y-9175400D01*
X51055900Y-8698100D02*
X51055900Y-8854300D01*
X49626900Y-8698100D02*
X51055900Y-8698100D01*
X59126900Y-10171100D02*
X59126900Y-8698100D01*
X56513100Y-12784900D02*
X59126900Y-10171100D01*
X52605000Y-12784900D02*
X56513100Y-12784900D01*
X50996200Y-14393700D02*
X52605000Y-12784900D01*
X50996200Y-17284400D02*
X50996200Y-14393700D01*
X51149300Y-111813000D02*
X50462300Y-112500000D01*
X59518000Y-111813000D02*
X51149300Y-111813000D01*
X64820000Y-139311000D02*
X61230000Y-135721000D01*
X75898500Y-139311000D02*
X64820000Y-139311000D01*
X77998200Y-137211000D02*
X75898500Y-139311000D01*
X59509400Y-134000000D02*
X61230000Y-135721000D01*
X50462300Y-134000000D02*
X59509400Y-134000000D01*
X39010600Y-136655000D02*
X45330200Y-136655000D01*
X37789800Y-137876000D02*
X39010600Y-136655000D01*
X48400100Y-133585000D02*
X48878200Y-133585000D01*
X45330200Y-136655000D02*
X48400100Y-133585000D01*
X49049000Y-133414000D02*
X48878200Y-133585000D01*
X49876400Y-133414000D02*
X49049000Y-133414000D01*
X50462300Y-134000000D02*
X49876400Y-133414000D01*
X76566400Y-153529000D02*
X77998200Y-152097000D01*
X71427000Y-153529000D02*
X76566400Y-153529000D01*
X86639200Y-152097000D02*
X89085300Y-154543000D01*
X77998200Y-152097000D02*
X86639200Y-152097000D01*
X52605000Y-12784900D02*
X52253900Y-12433800D01*
X49373100Y-65887800D02*
X49836500Y-65887800D01*
X48585800Y-65100500D02*
X49373100Y-65887800D01*
X50950200Y-47012100D02*
X50462300Y-47500000D01*
X54123600Y-22386000D02*
X55364000Y-22386000D01*
X51803600Y-20066000D02*
X54123600Y-22386000D01*
X51054000Y-20066000D02*
X51803600Y-20066000D01*
X56976600Y-22386000D02*
X55364000Y-22386000D01*
X58928000Y-20434600D02*
X56976600Y-22386000D01*
X58928000Y-19685000D02*
X58928000Y-20434600D01*
X70703300Y-54544000D02*
X70548100Y-54699200D01*
X80327400Y-54544000D02*
X70703300Y-54544000D01*
X80424400Y-54544000D02*
X80327400Y-54544000D01*
X86009600Y-60129200D02*
X80424400Y-54544000D01*
X84478300Y-47302300D02*
X86430900Y-47302300D01*
X80327400Y-51453200D02*
X84478300Y-47302300D01*
X80327400Y-54544000D02*
X80327400Y-51453200D01*
X11684400Y-110250000D02*
X11533800Y-110400000D01*
X11684400Y-98534400D02*
X11684400Y-110250000D01*
X7218700Y-94068700D02*
X11684400Y-98534400D01*
X7218700Y-93401200D02*
X7218700Y-94068700D01*
X11514100Y-89105800D02*
X7218700Y-93401200D01*
X11798200Y-89105800D02*
X11514100Y-89105800D01*
X20169600Y-60697000D02*
X20302800Y-60563800D01*
X11115300Y-60697000D02*
X20169600Y-60697000D01*
X11039200Y-60620900D02*
X11115300Y-60697000D01*
X22169700Y-144422000D02*
X19853600Y-146738000D01*
X28293400Y-144422000D02*
X22169700Y-144422000D01*
X34839800Y-137876000D02*
X28293400Y-144422000D01*
X37789800Y-137876000D02*
X34839800Y-137876000D01*
X50450000Y-118065000D02*
X50450000Y-118900000D01*
X50462300Y-118053000D02*
X50450000Y-118065000D01*
X50462300Y-112500000D02*
X50462300Y-118053000D01*
X50412200Y-119735000D02*
X50147300Y-120000000D01*
X50450000Y-119735000D02*
X50412200Y-119735000D01*
X50450000Y-118900000D02*
X50450000Y-119735000D01*
X53321700Y-73372000D02*
X51258100Y-73372000D01*
X58131700Y-78182000D02*
X53321700Y-73372000D01*
X51871100Y-71007600D02*
X50397900Y-71007600D01*
X54596200Y-68282500D02*
X51871100Y-71007600D01*
X50950200Y-47012100D02*
X51343900Y-47405800D01*
X67123500Y-54699200D02*
X70548100Y-54699200D01*
X61713600Y-60109100D02*
X67123500Y-54699200D01*
X61144600Y-60109100D02*
X61713600Y-60109100D01*
X60967000Y-60286700D02*
X61144600Y-60109100D01*
X50447400Y-60286700D02*
X60967000Y-60286700D01*
X50270700Y-60110000D02*
X50447400Y-60286700D01*
X50950200Y-45926200D02*
X50950200Y-47012100D01*
X50964900Y-45911500D02*
X50950200Y-45926200D01*
X50964900Y-45540000D02*
X50964900Y-45911500D01*
X52770000Y-45540000D02*
X50964900Y-45540000D01*
X48720900Y-46607900D02*
X47606300Y-46607900D01*
X49402600Y-45926200D02*
X48720900Y-46607900D01*
X50950200Y-45926200D02*
X49402600Y-45926200D01*
X64810700Y-109313000D02*
X61563300Y-109313000D01*
X70488400Y-103635000D02*
X64810700Y-109313000D01*
X71238000Y-103635000D02*
X70488400Y-103635000D01*
X20201200Y-89105800D02*
X11798200Y-89105800D01*
X21765300Y-87541700D02*
X20201200Y-89105800D01*
X48613300Y-119735000D02*
X48878200Y-120000000D01*
X48550000Y-119735000D02*
X48613300Y-119735000D01*
X48550000Y-119318000D02*
X48550000Y-119735000D01*
X71238000Y-102403000D02*
X73118800Y-100522000D01*
X71238000Y-103635000D02*
X71238000Y-102403000D01*
X79615900Y-106128000D02*
X78613100Y-106128000D01*
X79750400Y-106262000D02*
X79615900Y-106128000D01*
X80500000Y-106262000D02*
X79750400Y-106262000D01*
X72432200Y-94432200D02*
X73118800Y-94432200D01*
X72000000Y-94000000D02*
X72432200Y-94432200D01*
X73149300Y-89315200D02*
X72949900Y-89115800D01*
X81095000Y-89315200D02*
X73149300Y-89315200D01*
X83594900Y-86815300D02*
X81095000Y-89315200D01*
X71559100Y-87725000D02*
X60805100Y-87725000D01*
X72949900Y-89115800D02*
X71559100Y-87725000D01*
X51312200Y-87481100D02*
X51112000Y-87681300D01*
X60561200Y-87481100D02*
X51312200Y-87481100D01*
X60805100Y-87725000D02*
X60561200Y-87481100D01*
X2032000Y-20879800D02*
X2032000Y-16994000D01*
X3398800Y-15188900D02*
X6395700Y-12192000D01*
X2032000Y-15188900D02*
X3398800Y-15188900D01*
X2032000Y-16994000D02*
X2032000Y-15188900D01*
X70878400Y-13970000D02*
X65913000Y-18935400D01*
X71628000Y-13970000D02*
X70878400Y-13970000D01*
X59677600Y-19685000D02*
X58928000Y-19685000D01*
X59677600Y-19122800D02*
X59677600Y-19685000D01*
X59865000Y-18935400D02*
X59677600Y-19122800D01*
X65913000Y-18935400D02*
X59865000Y-18935400D01*
X82274900Y-106262000D02*
X85805100Y-109792000D01*
X80500000Y-106262000D02*
X82274900Y-106262000D01*
X27521700Y-73960400D02*
X27521700Y-74107700D01*
X28362000Y-73120100D02*
X27521700Y-73960400D01*
X31515200Y-73120100D02*
X28362000Y-73120100D01*
X36272000Y-68363300D02*
X31515200Y-73120100D01*
X36272000Y-64626600D02*
X36272000Y-68363300D01*
X35185800Y-63540400D02*
X36272000Y-64626600D01*
X35185800Y-61835000D02*
X35185800Y-63540400D01*
X36012900Y-61007900D02*
X35185800Y-61835000D01*
X65913000Y-19006400D02*
X68367100Y-21460500D01*
X65913000Y-18935400D02*
X65913000Y-19006400D01*
X42400200Y-104304000D02*
X35990700Y-110713000D01*
X42432000Y-104304000D02*
X42400200Y-104304000D01*
X42432000Y-103554000D02*
X42432000Y-104304000D01*
X43740300Y-119318000D02*
X39450000Y-115027000D01*
X48550000Y-119318000D02*
X43740300Y-119318000D01*
X48550000Y-118900000D02*
X48550000Y-119318000D01*
X15102500Y-26277000D02*
X16028800Y-25350700D01*
D50*
X57778175Y-78535534D02*
X58524341Y-79281700D01*
X58524341Y-79281700D02*
X58524400Y-79281700D01*
X53290400Y-74047700D02*
X53290400Y-74047759D01*
X53290400Y-74047759D02*
X57778175Y-78535534D01*
D49*
X52334508Y-150348000D02*
X50448195Y-152234313D01*
X55751900Y-150348000D02*
X52334508Y-150348000D01*
X50639068Y-74047700D02*
X50122490Y-73531122D01*
X62957500Y-80115700D02*
X62123500Y-79281700D01*
X62123500Y-79281700D02*
X58524400Y-79281700D01*
X42614500Y-72564200D02*
X46383100Y-72564200D01*
X49420836Y-73808512D02*
X49698226Y-73531122D01*
X49698226Y-73531122D02*
X50122490Y-73531122D01*
X46383100Y-72564200D02*
X47627412Y-73808512D01*
X53290400Y-74047700D02*
X50639068Y-74047700D01*
X41868300Y-71818000D02*
X42614500Y-72564200D01*
X47627412Y-73808512D02*
X49420836Y-73808512D01*
X17342890Y-148657110D02*
X17000000Y-149000000D01*
X18811690Y-148657110D02*
X17342890Y-148657110D01*
X22246800Y-145222000D02*
X18811690Y-148657110D01*
X15576311Y-150328611D02*
X11639811Y-150328611D01*
X9835200Y-146449000D02*
X12219600Y-144065000D01*
X17000000Y-151752300D02*
X15576311Y-150328611D01*
X9835200Y-148524000D02*
X9835200Y-146449000D01*
X12219600Y-144065000D02*
X12814400Y-144065000D01*
X11639811Y-150328611D02*
X9835200Y-148524000D01*
X17000000Y-152400000D02*
X17000000Y-151752300D01*
D50*
X52500000Y-93799980D02*
X54146680Y-93799980D01*
X54146680Y-93799980D02*
X55319500Y-94972800D01*
D49*
X6604000Y-17272000D02*
X8427700Y-17272000D01*
X8427700Y-17272000D02*
X8639900Y-17059800D01*
X36693800Y-15114300D02*
X39264300Y-15114300D01*
X35560000Y-16248100D02*
X36693800Y-15114300D01*
X35560000Y-24130000D02*
X35560000Y-16248100D01*
X52020000Y-94280000D02*
X52500000Y-93800000D01*
X47980000Y-94280000D02*
X52020000Y-94280000D01*
X47500000Y-93800000D02*
X47980000Y-94280000D01*
X67302100Y-2398900D02*
X66587600Y-2398900D01*
X67355800Y-2452600D02*
X67302100Y-2398900D01*
X71352000Y-2452600D02*
X67355800Y-2452600D01*
X73461000Y-343600D02*
X71352000Y-2452600D01*
X86812000Y-343600D02*
X73461000Y-343600D01*
X91025400Y-4557000D02*
X86812000Y-343600D01*
X50964900Y-40460000D02*
X50964900Y-39523800D01*
X52770000Y-40460000D02*
X50964900Y-40460000D01*
X13934600Y-90208200D02*
X13594900Y-90208200D01*
X14726400Y-91000000D02*
X13934600Y-90208200D01*
X15476000Y-91000000D02*
X14726400Y-91000000D01*
X45548900Y-137989000D02*
X49537700Y-134000000D01*
X38594900Y-137989000D02*
X45548900Y-137989000D01*
X66533900Y-2452600D02*
X66587600Y-2398900D01*
X57855800Y-2452600D02*
X66533900Y-2452600D01*
X57802100Y-2398900D02*
X57855800Y-2452600D01*
X56373100Y-2398900D02*
X57802100Y-2398900D01*
X85783800Y-14148800D02*
X86995000Y-15360000D01*
X81850800Y-14148800D02*
X85783800Y-14148800D01*
X81775600Y-14224000D02*
X81850800Y-14148800D01*
X81026000Y-14224000D02*
X81775600Y-14224000D01*
X11430000Y-14269700D02*
X8639900Y-17059800D01*
X18160000Y-9843900D02*
X18160000Y-2500000D01*
X17500000Y-10503900D02*
X18160000Y-9843900D01*
X17500000Y-12333000D02*
X17500000Y-10503900D01*
X17000000Y-148250000D02*
X17000000Y-149000000D01*
X12814400Y-144065000D02*
X17000000Y-148250000D01*
X13120500Y-143759000D02*
X13120500Y-141153000D01*
X12814400Y-144065000D02*
X13120500Y-143759000D01*
X19712500Y-103576000D02*
X12726600Y-110562000D01*
X19712500Y-95986100D02*
X19712500Y-103576000D01*
X15476000Y-91749600D02*
X19712500Y-95986100D01*
X15476000Y-91000000D02*
X15476000Y-91749600D01*
X51642300Y-136105000D02*
X49537700Y-134000000D01*
X60699500Y-136105000D02*
X51642300Y-136105000D01*
X63382100Y-138787000D02*
X60699500Y-136105000D01*
X55364000Y-30483500D02*
X55364000Y-30006000D01*
X54898000Y-30949500D02*
X55364000Y-30483500D01*
X50338400Y-30949500D02*
X54898000Y-30949500D01*
X55092600Y-106945000D02*
X55319500Y-106945000D01*
X49537700Y-112500000D02*
X55092600Y-106945000D01*
X49500000Y-125575000D02*
X49924600Y-126000000D01*
X49500000Y-118900000D02*
X49500000Y-125575000D01*
X49500000Y-113816000D02*
X48860700Y-113177000D01*
X49500000Y-118900000D02*
X49500000Y-113816000D01*
X55505900Y-106945000D02*
X55319500Y-106945000D01*
X60676400Y-112116000D02*
X55505900Y-106945000D01*
X8000000Y-9648900D02*
X8000000Y-2500000D01*
X9724800Y-9648900D02*
X8000000Y-9648900D01*
X10489900Y-10414000D02*
X9724800Y-9648900D01*
X11430000Y-10414000D02*
X10489900Y-10414000D01*
X2032000Y-9648900D02*
X2032000Y-11454000D01*
X8000000Y-9648900D02*
X2032000Y-9648900D01*
X17500000Y-12333000D02*
X12415900Y-12333000D01*
X12415900Y-13283800D02*
X11430000Y-14269700D01*
X12415900Y-12333000D02*
X12415900Y-13283800D01*
X12415900Y-11587300D02*
X12415900Y-12333000D01*
X11992200Y-11163600D02*
X12415900Y-11587300D01*
X11430000Y-11163600D02*
X11992200Y-11163600D01*
X11430000Y-10414000D02*
X11430000Y-11163600D01*
X18048100Y-118702000D02*
X19056200Y-118702000D01*
X17749600Y-119000000D02*
X18048100Y-118702000D01*
X17000000Y-119000000D02*
X17749600Y-119000000D01*
X48838100Y-29449200D02*
X50338400Y-30949500D01*
X48838100Y-28238500D02*
X48838100Y-29449200D01*
X49530000Y-27546600D02*
X48838100Y-28238500D01*
X49530000Y-26797000D02*
X49530000Y-27546600D01*
X45071700Y-11430000D02*
X43891500Y-11430000D01*
X46868700Y-13227000D02*
X45071700Y-11430000D01*
X46868700Y-18486300D02*
X46868700Y-13227000D01*
X47988200Y-19605800D02*
X46868700Y-18486300D01*
X47988200Y-25067800D02*
X47988200Y-19605800D01*
X48967800Y-26047400D02*
X47988200Y-25067800D01*
X49530000Y-26047400D02*
X48967800Y-26047400D01*
X49530000Y-26797000D02*
X49530000Y-26047400D01*
X49537700Y-47398700D02*
X49537700Y-47500000D01*
X50340100Y-46596300D02*
X49537700Y-47398700D01*
X43804900Y-14660000D02*
X45010000Y-14660000D01*
X43698400Y-14553500D02*
X43804900Y-14660000D01*
X43698400Y-11623100D02*
X43698400Y-14553500D01*
X43891500Y-11430000D02*
X43698400Y-11623100D01*
X43137600Y-15114300D02*
X39264300Y-15114300D01*
X43698400Y-14553500D02*
X43137600Y-15114300D01*
X39264300Y-15114300D02*
X38810000Y-14660000D01*
X64364600Y-80115700D02*
X62957500Y-80115700D01*
X65532000Y-78948300D02*
X64364600Y-80115700D01*
X5208400Y-69646500D02*
X4345100Y-69646500D01*
X6274900Y-68580000D02*
X5208400Y-69646500D01*
X8080000Y-68580000D02*
X6274900Y-68580000D01*
X4345100Y-73660000D02*
X2540000Y-73660000D01*
X4345100Y-69646500D02*
X4345100Y-73660000D01*
X21750400Y-56975300D02*
X21016700Y-57709000D01*
X21750400Y-56524000D02*
X21750400Y-56975300D01*
X22500000Y-56524000D02*
X21750400Y-56524000D01*
X20939000Y-57786700D02*
X21016700Y-57709000D01*
X14548700Y-57786700D02*
X20939000Y-57786700D01*
X9011600Y-52249600D02*
X14548700Y-57786700D01*
X9011600Y-51500000D02*
X9011600Y-52249600D01*
X8262000Y-51500000D02*
X9011600Y-51500000D01*
X55629500Y-64795100D02*
X55629500Y-65096200D01*
X55924600Y-64500000D02*
X55629500Y-64795100D01*
X55695900Y-67889800D02*
X54949700Y-68636000D01*
X55629500Y-67823400D02*
X55695900Y-67889800D01*
X55629500Y-65096200D02*
X55629500Y-67823400D01*
X50338400Y-32376200D02*
X50338400Y-30949500D01*
X48510600Y-34204000D02*
X50338400Y-32376200D01*
X48510600Y-37069500D02*
X48510600Y-34204000D01*
X50964900Y-39523800D02*
X48510600Y-37069500D01*
X12568600Y-60003500D02*
X12657000Y-60091900D01*
X8680800Y-60003500D02*
X12568600Y-60003500D01*
X734800Y-67949500D02*
X8680800Y-60003500D01*
X734800Y-69219600D02*
X734800Y-67949500D01*
X1161700Y-69646500D02*
X734800Y-69219600D01*
X4345100Y-69646500D02*
X1161700Y-69646500D01*
X14548700Y-58023400D02*
X14548700Y-57786700D01*
X12568600Y-60003500D02*
X14548700Y-58023400D01*
X28068700Y-145222000D02*
X22246800Y-145222000D01*
X34317500Y-138973000D02*
X28068700Y-145222000D01*
X37610600Y-138973000D02*
X34317500Y-138973000D01*
X38594900Y-137989000D02*
X37610600Y-138973000D01*
X46100000Y-6444800D02*
X46100000Y-2500000D01*
X45032500Y-7512300D02*
X46100000Y-6444800D01*
X43862300Y-7512300D02*
X45032500Y-7512300D01*
X43684600Y-7690000D02*
X43862300Y-7512300D01*
X43684600Y-11223100D02*
X43684600Y-7690000D01*
X43891500Y-11430000D02*
X43684600Y-11223100D01*
X46446800Y-2153200D02*
X46100000Y-2500000D01*
X47863900Y-2153200D02*
X46446800Y-2153200D01*
X48163300Y-2452600D02*
X47863900Y-2153200D01*
X54890300Y-2452600D02*
X48163300Y-2452600D01*
X54944000Y-2398900D02*
X54890300Y-2452600D01*
X56373100Y-2398900D02*
X54944000Y-2398900D01*
X49410800Y-66704000D02*
X49197300Y-66917500D01*
X48978400Y-66271600D02*
X49410800Y-66704000D01*
X48978400Y-66200300D02*
X48978400Y-66271600D01*
X48232200Y-65454100D02*
X48978400Y-66200300D01*
X54283400Y-65096200D02*
X55629500Y-65096200D01*
X53970200Y-64783000D02*
X54283400Y-65096200D01*
X53272300Y-64783000D02*
X53970200Y-64783000D01*
X52595200Y-64105900D02*
X53272300Y-64783000D01*
X51699700Y-64105900D02*
X52595200Y-64105900D01*
X50446500Y-65359100D02*
X51699700Y-64105900D01*
X50446500Y-66143200D02*
X50446500Y-65359100D01*
X49885700Y-66704000D02*
X50446500Y-66143200D01*
X49410800Y-66704000D02*
X49885700Y-66704000D01*
X22045200Y-90250400D02*
X22320100Y-90525300D01*
X16413000Y-90250400D02*
X22045200Y-90250400D01*
X16225600Y-90437800D02*
X16413000Y-90250400D01*
X16225600Y-91000000D02*
X16225600Y-90437800D01*
X15476000Y-91000000D02*
X16225600Y-91000000D01*
X38096400Y-60718400D02*
X38096400Y-63236400D01*
X31706100Y-54328100D02*
X38096400Y-60718400D01*
X31183400Y-54328100D02*
X31706100Y-54328100D01*
X29899000Y-53043700D02*
X31183400Y-54328100D01*
X29899000Y-52041700D02*
X29899000Y-53043700D01*
X28749000Y-50891700D02*
X29899000Y-52041700D01*
X26287100Y-50891700D02*
X28749000Y-50891700D01*
X25643200Y-51535600D02*
X26287100Y-50891700D01*
X25643200Y-53193400D02*
X25643200Y-51535600D01*
X23062200Y-55774400D02*
X25643200Y-53193400D01*
X22500000Y-55774400D02*
X23062200Y-55774400D01*
X22500000Y-56524000D02*
X22500000Y-55774400D01*
X55319500Y-94972800D02*
X55319500Y-106945000D01*
X62957500Y-83247600D02*
X62390000Y-83815100D01*
X62957500Y-80115700D02*
X62957500Y-83247600D01*
X65950200Y-148746000D02*
X65950200Y-149850000D01*
X69921400Y-148746000D02*
X65950200Y-148746000D01*
X70151700Y-148516000D02*
X69921400Y-148746000D01*
X70151700Y-146458000D02*
X70151700Y-148516000D01*
X69915500Y-146222000D02*
X70151700Y-146458000D01*
X69915500Y-145242000D02*
X69915500Y-146222000D01*
X70659700Y-145242000D02*
X69915500Y-145242000D01*
X77109200Y-138792000D02*
X70659700Y-145242000D01*
X88387300Y-138792000D02*
X77109200Y-138792000D01*
X69836800Y-145242000D02*
X63382100Y-138787000D01*
X69915500Y-145242000D02*
X69836800Y-145242000D01*
X71075400Y-94000000D02*
X71075400Y-91080000D01*
X84736600Y-89840600D02*
X85902400Y-89840600D01*
X83497200Y-91080000D02*
X84736600Y-89840600D01*
X71075400Y-91080000D02*
X83497200Y-91080000D01*
X71075400Y-97785500D02*
X71075400Y-94000000D01*
X71979000Y-98689100D02*
X71075400Y-97785500D01*
X74096300Y-98689100D02*
X71979000Y-98689100D01*
X76474500Y-96310900D02*
X74096300Y-98689100D01*
X79651500Y-96310900D02*
X76474500Y-96310900D01*
X79868300Y-96527700D02*
X79651500Y-96310900D01*
X79868300Y-99590900D02*
X79868300Y-96527700D01*
X79698300Y-99760900D02*
X79868300Y-99590900D01*
X79698300Y-105259000D02*
X79698300Y-99760900D01*
X79951300Y-105512000D02*
X79698300Y-105259000D01*
X83426600Y-105512000D02*
X79951300Y-105512000D01*
X88821900Y-110908000D02*
X83426600Y-105512000D01*
X88821900Y-111998000D02*
X88821900Y-110908000D01*
X88721400Y-112099000D02*
X88821900Y-111998000D01*
X71847400Y-62067200D02*
X72881600Y-61033000D01*
X65810700Y-62067200D02*
X71847400Y-62067200D01*
X84097000Y-63306000D02*
X84630400Y-62772600D01*
X81620100Y-63306000D02*
X84097000Y-63306000D01*
X78968500Y-60654400D02*
X81620100Y-63306000D01*
X73260200Y-60654400D02*
X78968500Y-60654400D01*
X72881600Y-61033000D02*
X73260200Y-60654400D01*
X33873800Y-91160700D02*
X37314700Y-87719800D01*
X22955500Y-91160700D02*
X33873800Y-91160700D01*
X22320100Y-90525300D02*
X22955500Y-91160700D01*
X59792300Y-90500000D02*
X64429800Y-90500000D01*
X55319500Y-94972800D02*
X59792300Y-90500000D01*
X65009800Y-91080000D02*
X71075400Y-91080000D01*
X64429800Y-90500000D02*
X65009800Y-91080000D01*
X65873100Y-2398900D02*
X66587600Y-2398900D01*
X49537700Y-112500000D02*
X48860700Y-113177000D01*
X48860700Y-113177000D02*
X40878100Y-113177000D01*
D51*
X55751900Y-150348000D02*
X55752100Y-150347800D01*
D49*
X8639900Y-17059800D02*
X16859100Y-25279000D01*
X16859100Y-25279000D02*
X22080000Y-30500000D01*
X33020000Y-24130000D02*
X35560000Y-24130000D01*
D50*
X20078100Y-22060000D02*
X16859100Y-25279000D01*
X30950000Y-22060000D02*
X20078100Y-22060000D01*
X33020000Y-24130000D02*
X30950000Y-22060000D01*
D49*
X63750500Y-149850000D02*
X63750500Y-148568170D01*
X63750500Y-148568170D02*
X62742437Y-147560107D01*
X62742437Y-147560107D02*
X58338304Y-147560107D01*
X58338304Y-147560107D02*
X54236334Y-143458137D01*
X54236334Y-143458137D02*
X49866499Y-143458137D01*
D50*
X49866499Y-143458137D02*
X49158002Y-143458137D01*
X49158002Y-143458137D02*
X47038000Y-145578139D01*
X47038000Y-145578139D02*
X47038000Y-146200000D01*
X44532000Y-147961000D02*
X44595500Y-147961000D01*
X44595500Y-147961000D02*
X46356500Y-146200000D01*
X46356500Y-146200000D02*
X47038000Y-146200000D01*
D49*
X77035600Y-129898000D02*
X77810000Y-129898000D01*
X76908600Y-129771000D02*
X77035600Y-129898000D01*
X76032000Y-129771000D02*
X76908600Y-129771000D01*
X48550000Y-125550000D02*
X48550000Y-121100000D01*
X49000000Y-126000000D02*
X48550000Y-125550000D01*
X50272400Y-126560000D02*
X50692600Y-126140000D01*
X49560100Y-126560000D02*
X50272400Y-126560000D01*
X49000000Y-126000000D02*
X49560100Y-126560000D01*
X50692600Y-124263000D02*
X50692600Y-126140000D01*
X57478500Y-117478000D02*
X50692600Y-124263000D01*
X60769500Y-117478000D02*
X57478500Y-117478000D01*
X61770000Y-116477000D02*
X60769500Y-117478000D01*
X61770000Y-113210000D02*
X61770000Y-116477000D01*
X64617900Y-110362000D02*
X61770000Y-113210000D01*
X70226900Y-110362000D02*
X64617900Y-110362000D01*
X74655300Y-105934000D02*
X70226900Y-110362000D01*
X74655300Y-105731000D02*
X74655300Y-105934000D01*
X74921800Y-105464000D02*
X74655300Y-105731000D01*
X75532000Y-105464000D02*
X74921800Y-105464000D01*
X75532000Y-104651000D02*
X75532000Y-105464000D01*
X77190000Y-99541600D02*
X77190000Y-99166800D01*
X76808200Y-99923400D02*
X77190000Y-99541600D01*
X76808200Y-104651000D02*
X76808200Y-99923400D01*
X77843600Y-99166800D02*
X77190000Y-99166800D01*
X78091400Y-98919000D02*
X77843600Y-99166800D01*
X78968000Y-98919000D02*
X78091400Y-98919000D01*
X76032000Y-128958000D02*
X76032000Y-129771000D01*
X75056500Y-127982000D02*
X76032000Y-128958000D01*
X63922500Y-127982000D02*
X75056500Y-127982000D01*
X63058100Y-128847000D02*
X63922500Y-127982000D01*
X51148300Y-128847000D02*
X63058100Y-128847000D01*
X77190000Y-98792000D02*
X77190000Y-99166800D01*
X76935200Y-104778000D02*
X76808200Y-104651000D01*
X77310000Y-104778000D02*
X76935200Y-104778000D01*
X76808200Y-104651000D02*
X75532000Y-104651000D01*
X22492800Y-13804800D02*
X39893600Y-13804800D01*
X17500000Y-17667000D02*
X18630600Y-17667000D01*
X18630600Y-17667000D02*
X22492800Y-13804800D01*
X39893600Y-13804800D02*
X40434700Y-14345900D01*
X40434700Y-14345900D02*
X40434700Y-14467500D01*
X11430000Y-17119400D02*
X11430000Y-15194300D01*
X11582600Y-17272000D02*
X11430000Y-17119400D01*
X50936000Y-30339400D02*
X49470200Y-28873600D01*
X53377600Y-30339400D02*
X50936000Y-30339400D01*
X53907200Y-29809800D02*
X53377600Y-30339400D01*
X53907200Y-29619900D02*
X53907200Y-29809800D01*
X54476300Y-29050800D02*
X53907200Y-29619900D01*
X58627000Y-29050800D02*
X54476300Y-29050800D01*
X63378800Y-33802600D02*
X58627000Y-29050800D01*
X77913900Y-33802600D02*
X63378800Y-33802600D01*
X93676900Y-18039600D02*
X77913900Y-33802600D01*
X98000000Y-18039600D02*
X93676900Y-18039600D01*
X11176000Y-17272000D02*
X11582600Y-17272000D01*
X12384100Y-17667000D02*
X17500000Y-17667000D01*
X11989100Y-17272000D02*
X12384100Y-17667000D01*
X11582600Y-17272000D02*
X11989100Y-17272000D01*
D50*
X52500000Y-90087000D02*
X52500000Y-92875420D01*
X52124580Y-92875420D02*
X51600000Y-93400000D01*
X51600000Y-93400000D02*
X50762000Y-93400000D01*
X52500000Y-92875420D02*
X52124580Y-92875420D01*
D49*
X52413000Y-90000000D02*
X52500000Y-90087000D01*
X56563000Y-78258300D02*
X56257200Y-78258300D01*
X56678400Y-78142900D02*
X56563000Y-78258300D01*
X57424600Y-78889100D02*
X56678400Y-78142900D01*
D50*
X47500000Y-92875420D02*
X47251081Y-92626501D01*
X47251081Y-90335919D02*
X47587000Y-90000000D01*
X47251081Y-92626501D02*
X47251081Y-90335919D01*
X49238000Y-93400000D02*
X48593500Y-93400000D01*
X48593500Y-93400000D02*
X48068920Y-92875420D01*
X48068920Y-92875420D02*
X47500000Y-92875420D01*
D49*
X47587000Y-90000000D02*
X47426400Y-90160600D01*
X55082000Y-83994900D02*
X54711100Y-83994900D01*
X57902100Y-81174800D02*
X55082000Y-83994900D01*
X57902100Y-80073600D02*
X57902100Y-81174800D01*
X57071100Y-79242600D02*
X57902100Y-80073600D01*
X49212100Y-88374900D02*
X47587000Y-90000000D01*
X53639800Y-88374900D02*
X49212100Y-88374900D01*
X53928500Y-88086200D02*
X53639800Y-88374900D01*
X47132600Y-65061500D02*
X47878700Y-65807600D01*
X48495300Y-63698800D02*
X47132600Y-65061500D01*
X52763300Y-63698800D02*
X48495300Y-63698800D01*
X53440800Y-64376300D02*
X52763300Y-63698800D01*
X54876300Y-64376300D02*
X53440800Y-64376300D01*
X55000000Y-64500000D02*
X54876300Y-64376300D01*
D50*
X62700000Y-148300000D02*
X62700000Y-149803240D01*
X62700000Y-149803240D02*
X62653240Y-149850000D01*
D49*
X77964400Y-97268000D02*
X77190000Y-97268000D01*
X78091400Y-97141000D02*
X77964400Y-97268000D01*
X78968000Y-97141000D02*
X78091400Y-97141000D01*
X71987600Y-107594000D02*
X70155400Y-109426000D01*
X71987600Y-102348000D02*
X71987600Y-107594000D01*
X72920600Y-101415000D02*
X71987600Y-102348000D01*
X73081700Y-101415000D02*
X72920600Y-101415000D01*
X76440400Y-98056600D02*
X73081700Y-101415000D01*
X76440400Y-97268000D02*
X76440400Y-98056600D01*
X77190000Y-97268000D02*
X76440400Y-97268000D01*
D50*
X64850340Y-148350340D02*
X63427347Y-146927347D01*
X64850340Y-149850000D02*
X64850340Y-148350340D01*
X49662336Y-146897266D02*
X49662336Y-146200000D01*
X49662336Y-146200000D02*
X49662336Y-145211885D01*
X48562000Y-146200000D02*
X49662336Y-146200000D01*
X44532000Y-149739000D02*
X46820602Y-149739000D01*
X46820602Y-149739000D02*
X49662336Y-146897266D01*
D49*
X67058700Y-150963000D02*
X67058700Y-151162000D01*
X67050000Y-149850000D02*
X67050000Y-150954000D01*
X67050000Y-150954000D02*
X67058700Y-150963000D01*
X77035600Y-131422000D02*
X77810000Y-131422000D01*
X76908600Y-131549000D02*
X77035600Y-131422000D01*
X76032000Y-131549000D02*
X76908600Y-131549000D01*
X75494400Y-132900000D02*
X74076600Y-132900000D01*
X76032000Y-132362000D02*
X75494400Y-132900000D01*
X76032000Y-131549000D02*
X76032000Y-132362000D01*
X37871200Y-47196300D02*
X37829200Y-47238300D01*
X37871200Y-40731800D02*
X37871200Y-47196300D01*
X12896800Y-47238300D02*
X5176600Y-39518100D01*
X37829200Y-47238300D02*
X12896800Y-47238300D01*
X77222000Y-42194600D02*
X78582300Y-40834300D01*
X55000000Y-42194600D02*
X77222000Y-42194600D01*
X55000000Y-42234900D02*
X55000000Y-42194600D01*
X45201900Y-45073700D02*
X45201900Y-45409800D01*
X46360700Y-43914900D02*
X45201900Y-45073700D01*
X49202600Y-43914900D02*
X46360700Y-43914900D01*
X50922900Y-42194600D02*
X49202600Y-43914900D01*
X55000000Y-42194600D02*
X50922900Y-42194600D01*
X44035900Y-68328800D02*
X44696700Y-68989600D01*
X44035900Y-67486000D02*
X44035900Y-68328800D01*
X39515000Y-62965100D02*
X44035900Y-67486000D01*
X39515000Y-48924100D02*
X39515000Y-62965100D01*
X37829200Y-47238300D02*
X39515000Y-48924100D01*
X7124900Y-50363500D02*
X7124900Y-50072500D01*
X6738000Y-50750400D02*
X7124900Y-50363500D01*
X6738000Y-51500000D02*
X6738000Y-50750400D01*
X30276600Y-83352700D02*
X30276600Y-82955300D01*
X31190000Y-84266100D02*
X30276600Y-83352700D01*
X31190000Y-85470400D02*
X31190000Y-84266100D01*
X7139800Y-50057600D02*
X7124900Y-50072500D01*
X30000000Y-50057600D02*
X7139800Y-50057600D01*
X43430700Y-68430700D02*
X43430700Y-68421800D01*
X44343100Y-69343100D02*
X43430700Y-68430700D01*
X51626600Y-70089200D02*
X52961800Y-68754000D01*
X45089200Y-70089200D02*
X51626600Y-70089200D01*
X44343100Y-69343100D02*
X45089200Y-70089200D01*
X39108300Y-64099400D02*
X43430700Y-68421800D01*
X39108300Y-57468600D02*
X39108300Y-64099400D01*
X31697300Y-50057600D02*
X39108300Y-57468600D01*
X30000000Y-50057600D02*
X31697300Y-50057600D01*
X66979700Y-48302100D02*
X78518400Y-48302100D01*
X65381100Y-49900700D02*
X66979700Y-48302100D01*
X22500000Y-53802600D02*
X22500000Y-55000000D01*
X22613600Y-53689000D02*
X22500000Y-53802600D01*
X22613600Y-52500000D02*
X22613600Y-53689000D01*
X30374900Y-52500000D02*
X31579200Y-52500000D01*
X30374900Y-51877400D02*
X30374900Y-52500000D01*
X28982400Y-50484900D02*
X30374900Y-51877400D01*
X23439700Y-50484900D02*
X28982400Y-50484900D01*
X22613600Y-51311000D02*
X23439700Y-50484900D01*
X22613600Y-52500000D02*
X22613600Y-51311000D01*
X72500000Y-51311000D02*
X72500000Y-51905500D01*
X72079700Y-50890700D02*
X72500000Y-51311000D01*
X55821700Y-50890700D02*
X72079700Y-50890700D01*
X49320300Y-57392100D02*
X55821700Y-50890700D01*
X47378200Y-57392100D02*
X49320300Y-57392100D01*
X46501300Y-56515200D02*
X47378200Y-57392100D01*
X34472900Y-53689000D02*
X34826600Y-54042700D01*
X31579200Y-53689000D02*
X34472900Y-53689000D01*
X31579200Y-52500000D02*
X31579200Y-53689000D01*
X43319800Y-69026900D02*
X43989600Y-69696700D01*
X43180100Y-69026900D02*
X43319800Y-69026900D01*
X38701600Y-64548400D02*
X43180100Y-69026900D01*
X38701600Y-57917700D02*
X38701600Y-64548400D01*
X34826600Y-54042700D02*
X38701600Y-57917700D01*
X85392700Y-44662300D02*
X95851400Y-44662300D01*
X78704300Y-51350700D02*
X85392700Y-44662300D01*
X78704300Y-52500000D02*
X78704300Y-51350700D01*
X77500000Y-52500000D02*
X78704300Y-52500000D01*
X75701200Y-51905500D02*
X72500000Y-51905500D01*
X76295700Y-52500000D02*
X75701200Y-51905500D01*
X77500000Y-52500000D02*
X76295700Y-52500000D01*
X72500000Y-52500000D02*
X72500000Y-51905500D01*
X22539600Y-95790000D02*
X22539600Y-97500000D01*
X17749600Y-91000000D02*
X22539600Y-95790000D01*
X17000000Y-91000000D02*
X17749600Y-91000000D01*
X88817700Y-96311000D02*
X84170000Y-91663200D01*
X98016600Y-96311000D02*
X88817700Y-96311000D01*
X98016600Y-97500000D02*
X98016600Y-96311000D01*
X46621300Y-70796300D02*
X47465000Y-71640000D01*
X44382100Y-70796300D02*
X46621300Y-70796300D01*
X43636000Y-70050300D02*
X44382100Y-70796300D01*
X22539600Y-98689000D02*
X22539600Y-97500000D01*
X32016600Y-98689000D02*
X22539600Y-98689000D01*
X32016600Y-97500000D02*
X32016600Y-98689000D01*
X73016600Y-96311000D02*
X73016600Y-97500000D01*
X77369100Y-91958500D02*
X73016600Y-96311000D01*
X83874700Y-91958500D02*
X77369100Y-91958500D01*
X84170000Y-91663200D02*
X83874700Y-91958500D01*
X47792000Y-87581700D02*
X47276900Y-87581700D01*
X48253900Y-87119800D02*
X47792000Y-87581700D01*
X50117600Y-87119800D02*
X48253900Y-87119800D01*
X50163000Y-87074400D02*
X50117600Y-87119800D01*
X72867400Y-87074400D02*
X50163000Y-87074400D01*
X74274400Y-85667400D02*
X72867400Y-87074400D01*
X81451000Y-85667400D02*
X74274400Y-85667400D01*
X81857600Y-86074000D02*
X81451000Y-85667400D01*
X83735000Y-86074000D02*
X81857600Y-86074000D01*
X86122500Y-88461500D02*
X83735000Y-86074000D01*
X86122500Y-89205000D02*
X86122500Y-88461500D01*
X86507500Y-89590000D02*
X86122500Y-89205000D01*
X86507500Y-90091300D02*
X86507500Y-89590000D01*
X86153100Y-90445700D02*
X86507500Y-90091300D01*
X85997200Y-90445700D02*
X86153100Y-90445700D01*
X85682200Y-90760700D02*
X85997200Y-90445700D01*
X85072500Y-90760700D02*
X85682200Y-90760700D01*
X84170000Y-91663200D02*
X85072500Y-90760700D01*
X36905500Y-97500000D02*
X38273500Y-96132000D01*
X32016600Y-97500000D02*
X36905500Y-97500000D01*
X30641400Y-122500000D02*
X30598600Y-122543000D01*
X32016600Y-122500000D02*
X30641400Y-122500000D01*
X74220900Y-122500000D02*
X73016600Y-122500000D01*
X74220900Y-121946000D02*
X74220900Y-122500000D01*
X74585800Y-121582000D02*
X74220900Y-121946000D01*
X75087100Y-121582000D02*
X74585800Y-121582000D01*
X76412500Y-122907000D02*
X75087100Y-121582000D01*
X91554500Y-122907000D02*
X76412500Y-122907000D01*
X92336600Y-123689000D02*
X91554500Y-122907000D01*
X98016600Y-123689000D02*
X92336600Y-123689000D01*
X98016600Y-122500000D02*
X98016600Y-123689000D01*
X22359600Y-122500000D02*
X22359600Y-120787000D01*
X16225600Y-119000000D02*
X15476000Y-119000000D01*
X16225600Y-119562000D02*
X16225600Y-119000000D01*
X17450400Y-120787000D02*
X16225600Y-119562000D01*
X22359600Y-120787000D02*
X17450400Y-120787000D01*
X26111700Y-117857000D02*
X26111800Y-117857000D01*
X26111700Y-118039000D02*
X26111700Y-117857000D01*
X24983700Y-119167000D02*
X26111700Y-118039000D01*
X23979200Y-119167000D02*
X24983700Y-119167000D01*
X22359600Y-120787000D02*
X23979200Y-119167000D01*
X31371700Y-73954000D02*
X28383900Y-73954000D01*
X35668000Y-69657700D02*
X31371700Y-73954000D01*
X42536400Y-69657700D02*
X35668000Y-69657700D01*
X43282500Y-70403800D02*
X42536400Y-69657700D01*
X73016600Y-123689000D02*
X73016600Y-122500000D01*
X72339800Y-124366000D02*
X73016600Y-123689000D01*
X66459200Y-124366000D02*
X72339800Y-124366000D01*
X62990000Y-127835000D02*
X66459200Y-124366000D01*
X32942300Y-127835000D02*
X62990000Y-127835000D01*
X32797300Y-127690000D02*
X32942300Y-127835000D01*
D50*
X72406742Y-150500000D02*
X73016620Y-149890122D01*
X73016620Y-149890122D02*
X73016620Y-147500000D01*
X32016620Y-147500000D02*
X33115780Y-147500000D01*
X33115780Y-147500000D02*
X38377095Y-152761315D01*
X38377095Y-152761315D02*
X50836724Y-152761315D01*
X50836724Y-152761315D02*
X51104625Y-152493414D01*
X51104625Y-152493414D02*
X70413328Y-152493414D01*
X70413328Y-152493414D02*
X72406742Y-150500000D01*
X88801620Y-151138840D02*
X73045582Y-151138840D01*
X88801620Y-151138840D02*
X92190460Y-147750000D01*
X92190460Y-147750000D02*
X93289620Y-147750000D01*
X73045582Y-151138840D02*
X72406742Y-150500000D01*
X41988734Y-142761266D02*
X47063714Y-142761266D01*
X37250000Y-147500000D02*
X41988734Y-142761266D01*
X32016620Y-147500000D02*
X37250000Y-147500000D01*
X32016620Y-147500000D02*
X32001380Y-147500000D01*
X32001380Y-147500000D02*
X29829879Y-149671501D01*
X29829879Y-149671501D02*
X15503001Y-149671501D01*
X15503001Y-149671501D02*
X15476000Y-149644500D01*
X15476000Y-149644500D02*
X15476000Y-149000000D01*
D49*
X14726400Y-149000000D02*
X15476000Y-149000000D01*
X13226400Y-147500000D02*
X14726400Y-149000000D01*
X11039600Y-147500000D02*
X13226400Y-147500000D01*
X47382900Y-72413600D02*
X48403100Y-72413600D01*
X46635800Y-71666500D02*
X47382900Y-72413600D01*
X43838000Y-71666500D02*
X46635800Y-71666500D01*
X42928900Y-70757400D02*
X43838000Y-71666500D01*
X27898310Y-154128610D02*
X52183090Y-154128610D01*
X52183090Y-154128610D02*
X52585700Y-153726000D01*
X27564700Y-153795000D02*
X27898310Y-154128610D01*
X17065300Y-153795000D02*
X27564700Y-153795000D01*
X15907600Y-152637000D02*
X17065300Y-153795000D01*
X15907600Y-152400000D02*
X15907600Y-152637000D01*
X15691800Y-152400000D02*
X15907600Y-152400000D01*
X14912600Y-153179000D02*
X5512700Y-153179000D01*
X15691800Y-152400000D02*
X14912600Y-153179000D01*
X47611300Y-73217200D02*
X48222500Y-73217200D01*
X46467300Y-72073200D02*
X47611300Y-73217200D01*
X43537700Y-72073200D02*
X46467300Y-72073200D01*
X42575400Y-71110900D02*
X43537700Y-72073200D01*
X15476000Y-152400000D02*
X15691800Y-152400000D01*
X46426300Y-73182600D02*
X43660800Y-73182600D01*
X56717500Y-79596200D02*
X51610023Y-74488723D01*
X50166871Y-74138723D02*
X47382423Y-74138723D01*
X47382423Y-74138723D02*
X46426300Y-73182600D01*
X50516871Y-74488723D02*
X50166871Y-74138723D01*
X51610023Y-74488723D02*
X50516871Y-74488723D01*
X49073217Y-74799145D02*
X47679362Y-76193000D01*
X50968932Y-76187400D02*
X50661401Y-75879869D01*
X47679362Y-76193000D02*
X44656700Y-76193000D01*
X52601700Y-76187400D02*
X50968932Y-76187400D01*
X44656700Y-76193000D02*
X43664700Y-75201000D01*
X43664700Y-75201000D02*
X43234200Y-75201000D01*
X56364000Y-79949700D02*
X52601700Y-76187400D01*
X50661401Y-75879869D02*
X50661401Y-75567229D01*
X50661401Y-75567229D02*
X49893317Y-74799145D01*
X49893317Y-74799145D02*
X49073217Y-74799145D01*
X42515000Y-76213000D02*
X42102300Y-75800300D01*
X43430900Y-76213000D02*
X42515000Y-76213000D01*
X44572000Y-77354100D02*
X43430900Y-76213000D01*
X53172400Y-77354100D02*
X44572000Y-77354100D01*
X54484600Y-78666300D02*
X53172400Y-77354100D01*
X54484600Y-78777500D02*
X54484600Y-78666300D01*
X56010400Y-80303300D02*
X54484600Y-78777500D01*
X53688300Y-78688300D02*
X53650800Y-78688300D01*
X55656900Y-80656900D02*
X53688300Y-78688300D01*
X56941100Y-80864800D02*
X57286800Y-80864800D01*
X56049400Y-81756500D02*
X56941100Y-80864800D01*
X55303300Y-81010400D02*
X56049400Y-81756500D01*
X43370600Y-34676000D02*
X43932200Y-34114400D01*
X43370600Y-59817400D02*
X43370600Y-34676000D01*
X46666300Y-63113100D02*
X43370600Y-59817400D01*
X53532900Y-63113100D02*
X46666300Y-63113100D01*
X54052500Y-63632700D02*
X53532900Y-63113100D01*
X51781500Y-78195800D02*
X54949700Y-81364000D01*
X51781500Y-78077500D02*
X51781500Y-78195800D01*
X43560000Y-5098400D02*
X43560000Y-2500000D01*
X44450000Y-5988400D02*
X43560000Y-5098400D01*
X44450000Y-6738000D02*
X44450000Y-5988400D01*
X53194100Y-65388100D02*
X53719500Y-65388100D01*
X52318600Y-64512600D02*
X53194100Y-65388100D01*
X52002100Y-64512600D02*
X52318600Y-64512600D01*
X51414200Y-65100500D02*
X52002100Y-64512600D01*
X54393100Y-59462500D02*
X54194700Y-59660900D01*
X61784900Y-59462500D02*
X54393100Y-59462500D01*
X67173700Y-54073700D02*
X61784900Y-59462500D01*
X70919400Y-54073700D02*
X67173700Y-54073700D01*
X70979800Y-54134100D02*
X70919400Y-54073700D01*
X78722500Y-54134100D02*
X70979800Y-54134100D01*
X79705100Y-53151500D02*
X78722500Y-54134100D01*
X79705100Y-51500200D02*
X79705100Y-53151500D01*
X84508100Y-46697200D02*
X79705100Y-51500200D01*
X86765600Y-46697200D02*
X84508100Y-46697200D01*
X99633300Y-59564900D02*
X86765600Y-46697200D01*
X99633300Y-98801600D02*
X99633300Y-59564900D01*
X98900100Y-99534800D02*
X99633300Y-98801600D01*
X96490400Y-99534800D02*
X98900100Y-99534800D01*
X94644900Y-101380000D02*
X96490400Y-99534800D01*
X94644900Y-114908000D02*
X94644900Y-101380000D01*
X99221000Y-119484000D02*
X94644900Y-114908000D01*
X99221000Y-131109000D02*
X99221000Y-119484000D01*
X98250000Y-132080000D02*
X99221000Y-131109000D01*
D50*
X43600000Y-145162000D02*
X45818342Y-145162000D01*
X48322103Y-142658239D02*
X48322103Y-139572055D01*
X45818342Y-145162000D02*
X48322103Y-142658239D01*
X42500000Y-148850000D02*
X42500000Y-145617500D01*
X42500000Y-145617500D02*
X42955500Y-145162000D01*
X42955500Y-145162000D02*
X43600000Y-145162000D01*
D49*
X49320800Y-72564200D02*
X49234400Y-72477800D01*
X57385500Y-72564200D02*
X49320800Y-72564200D01*
X58131700Y-71818000D02*
X57385500Y-72564200D01*
X50340200Y-54729800D02*
X49354500Y-55715500D01*
X50340200Y-51327100D02*
X50340200Y-54729800D01*
X48120800Y-49107700D02*
X50340200Y-51327100D01*
X46517400Y-49107700D02*
X48120800Y-49107700D01*
X44596700Y-47187000D02*
X46517400Y-49107700D01*
X44596700Y-43828200D02*
X44596700Y-47187000D01*
X45424900Y-43000000D02*
X44596700Y-43828200D01*
X47230000Y-43000000D02*
X45424900Y-43000000D01*
X68013655Y-72997696D02*
X68013655Y-73421960D01*
X66228159Y-71212200D02*
X68013655Y-72997696D01*
X59444700Y-71212200D02*
X66228159Y-71212200D01*
X58485300Y-72171600D02*
X59444700Y-71212200D01*
X81000000Y-98843100D02*
X81000000Y-98030000D01*
X80500000Y-99343100D02*
X81000000Y-98843100D01*
X80500000Y-104738000D02*
X80500000Y-99343100D01*
X81000000Y-96749400D02*
X77232700Y-92982100D01*
X81000000Y-98030000D02*
X81000000Y-96749400D01*
X74645700Y-42910500D02*
X77819000Y-46083800D01*
X54664600Y-42910500D02*
X74645700Y-42910500D01*
X54575100Y-43000000D02*
X54664600Y-42910500D01*
X52770000Y-43000000D02*
X54575100Y-43000000D01*
X74000000Y-129847000D02*
X74000000Y-130660000D01*
X73776000Y-129847000D02*
X74000000Y-129847000D01*
X73262000Y-129333000D02*
X73776000Y-129847000D01*
X73262000Y-128755000D02*
X73262000Y-129333000D01*
X74099400Y-128843000D02*
X74213300Y-128843000D01*
X74011600Y-128755000D02*
X74099400Y-128843000D01*
X73262000Y-128755000D02*
X74011600Y-128755000D01*
X66533500Y-44682300D02*
X67290800Y-45439600D01*
X49892800Y-44682300D02*
X66533500Y-44682300D01*
X49035100Y-45540000D02*
X49892800Y-44682300D01*
X47230000Y-45540000D02*
X49035100Y-45540000D01*
X59404000Y-74582700D02*
X60070500Y-74582700D01*
X58092600Y-73271300D02*
X59404000Y-74582700D01*
X58838800Y-72525100D02*
X58092600Y-73271300D01*
X76602500Y-123953000D02*
X74836400Y-122187000D01*
X83032100Y-123953000D02*
X76602500Y-123953000D01*
X89524200Y-130445000D02*
X83032100Y-123953000D01*
X93574800Y-130445000D02*
X89524200Y-130445000D01*
X96444900Y-133315000D02*
X93574800Y-130445000D01*
X96444900Y-134620000D02*
X96444900Y-133315000D01*
X98250000Y-134620000D02*
X96444900Y-134620000D01*
X60065700Y-77740200D02*
X63598200Y-77740200D01*
X59938500Y-77867400D02*
X60065700Y-77740200D01*
X59192400Y-77121300D02*
X59938500Y-77867400D01*
X89557000Y-132080000D02*
X86461000Y-128984000D01*
X92710000Y-132080000D02*
X89557000Y-132080000D01*
X64137400Y-78345300D02*
X64780100Y-77702600D01*
X59709200Y-78345300D02*
X64137400Y-78345300D01*
X58838800Y-77474900D02*
X59709200Y-78345300D01*
X49530000Y-19422000D02*
X49530000Y-20066000D01*
X48954800Y-19422000D02*
X49530000Y-19422000D01*
X48354100Y-18821300D02*
X48954800Y-19422000D01*
X48354100Y-17268300D02*
X48354100Y-18821300D01*
X48710000Y-16912400D02*
X48354100Y-17268300D01*
X48710000Y-15500000D02*
X48710000Y-16912400D01*
X50279600Y-20066000D02*
X49530000Y-20066000D01*
X50279600Y-20628200D02*
X50279600Y-20066000D01*
X53215500Y-23564100D02*
X50279600Y-20628200D01*
X56359100Y-23564100D02*
X53215500Y-23564100D01*
X57154700Y-24359700D02*
X56359100Y-23564100D01*
X55422300Y-82383600D02*
X55761500Y-82383600D01*
X54635200Y-83170700D02*
X55422300Y-82383600D01*
X53889100Y-82424600D02*
X54635200Y-83170700D01*
X62096000Y-16440100D02*
X62022700Y-16513400D01*
X63950000Y-16440100D02*
X62096000Y-16440100D01*
X63950000Y-15500000D02*
X63950000Y-16440100D01*
X52938200Y-81296700D02*
X53034100Y-81200800D01*
X52938200Y-82180900D02*
X52938200Y-81296700D01*
X53535500Y-82778200D02*
X52938200Y-82180900D01*
X52520000Y-18149700D02*
X52520000Y-15500000D01*
X52089500Y-18580200D02*
X52520000Y-18149700D01*
X51886000Y-18783700D02*
X52089500Y-18580200D01*
X50465800Y-18783700D02*
X51886000Y-18783700D01*
X50279600Y-18597500D02*
X50465800Y-18783700D01*
X50279600Y-18034000D02*
X50279600Y-18597500D01*
X49530000Y-18034000D02*
X50279600Y-18034000D01*
X52089500Y-18580200D02*
X53690700Y-20181400D01*
X52160300Y-85645600D02*
X51414200Y-84899500D01*
X62054300Y-85645600D02*
X52160300Y-85645600D01*
X73943800Y-73756100D02*
X62054300Y-85645600D01*
X73943800Y-66819500D02*
X73943800Y-73756100D01*
X88244900Y-21939100D02*
X76990900Y-33193100D01*
X88244900Y-11241000D02*
X88244900Y-21939100D01*
X90785900Y-8700000D02*
X88244900Y-11241000D01*
X94761600Y-8700000D02*
X90785900Y-8700000D01*
X90754200Y-137160000D02*
X92710000Y-137160000D01*
X80413100Y-126819000D02*
X90754200Y-137160000D01*
X68868600Y-126819000D02*
X80413100Y-126819000D01*
X49331900Y-84153400D02*
X50446000Y-85267500D01*
X48585800Y-84899500D02*
X49331900Y-84153400D01*
X51500800Y-100963000D02*
X51500800Y-102474000D01*
X46805800Y-96268000D02*
X51500800Y-100963000D01*
X46805800Y-94334500D02*
X46805800Y-96268000D01*
X46265100Y-93793800D02*
X46805800Y-94334500D01*
X46265100Y-86513000D02*
X46265100Y-93793800D01*
X48232200Y-84545900D02*
X46265100Y-86513000D01*
X66730600Y-126179000D02*
X66134800Y-125583000D01*
X80591700Y-126179000D02*
X66730600Y-126179000D01*
X90192600Y-135780000D02*
X80591700Y-126179000D01*
X95064600Y-135780000D02*
X90192600Y-135780000D01*
X96444900Y-137160000D02*
X95064600Y-135780000D01*
X98250000Y-137160000D02*
X96444900Y-137160000D01*
X66634400Y-70718300D02*
X70338000Y-74421900D01*
X58524400Y-70718300D02*
X66634400Y-70718300D01*
X57778200Y-71464500D02*
X58524400Y-70718300D01*
X72762000Y-104283000D02*
X72762000Y-103635000D01*
X73206000Y-104727000D02*
X72762000Y-104283000D01*
X73500000Y-104727000D02*
X73206000Y-104727000D01*
X73500000Y-105540000D02*
X73500000Y-104727000D01*
X72911300Y-102736000D02*
X72911300Y-102294000D01*
X72762000Y-102885000D02*
X72911300Y-102736000D01*
X72762000Y-103635000D02*
X72762000Y-102885000D01*
X42509300Y-81076400D02*
X43636000Y-79949700D01*
X42509300Y-81145900D02*
X42509300Y-81076400D01*
X53335800Y-16440100D02*
X53300200Y-16404500D01*
X56330000Y-16440100D02*
X53335800Y-16440100D01*
X56330000Y-15500000D02*
X56330000Y-16440100D01*
X40660900Y-82994300D02*
X42509300Y-81145900D01*
X40660900Y-95782300D02*
X40660900Y-82994300D01*
X36113400Y-100330000D02*
X40660900Y-95782300D01*
X33464200Y-100330000D02*
X36113400Y-100330000D01*
X32518300Y-101276000D02*
X33464200Y-100330000D01*
X31963100Y-101276000D02*
X32518300Y-101276000D01*
X27110600Y-106128000D02*
X31963100Y-101276000D01*
X26387900Y-106128000D02*
X27110600Y-106128000D01*
X14037600Y-118478000D02*
X26387900Y-106128000D01*
X14037600Y-119342000D02*
X14037600Y-118478000D01*
X10283500Y-123096000D02*
X14037600Y-119342000D01*
X10283500Y-126813000D02*
X10283500Y-123096000D01*
X9283600Y-127813000D02*
X10283500Y-126813000D01*
X6749300Y-127813000D02*
X9283600Y-127813000D01*
X5709900Y-128853000D02*
X6749300Y-127813000D01*
X5709900Y-130189000D02*
X5709900Y-128853000D01*
X5913300Y-130392000D02*
X5709900Y-130189000D01*
X9665600Y-130392000D02*
X5913300Y-130392000D01*
X15734000Y-124324000D02*
X9665600Y-130392000D01*
X15734000Y-122828000D02*
X15734000Y-124324000D01*
X17251000Y-121311000D02*
X15734000Y-122828000D01*
X19314400Y-121311000D02*
X17251000Y-121311000D01*
X19534900Y-121532000D02*
X19314400Y-121311000D01*
X19534900Y-123480000D02*
X19534900Y-121532000D01*
X11808600Y-131206000D02*
X19534900Y-123480000D01*
X5576300Y-131206000D02*
X11808600Y-131206000D01*
X4420100Y-130050000D02*
X5576300Y-131206000D01*
X4420100Y-127000000D02*
X4420100Y-130050000D01*
X2540000Y-127000000D02*
X4420100Y-127000000D01*
X32226800Y-96087600D02*
X32099200Y-96087600D01*
X36269800Y-92044600D02*
X32226800Y-96087600D01*
X36269800Y-89638300D02*
X36269800Y-92044600D01*
X39034000Y-86874100D02*
X36269800Y-89638300D01*
X39034000Y-82430500D02*
X39034000Y-86874100D01*
X42575400Y-78889100D02*
X39034000Y-82430500D01*
X9901800Y-122148000D02*
X7590000Y-124460000D01*
X9901800Y-121464000D02*
X9901800Y-122148000D01*
X26050700Y-105315000D02*
X9901800Y-121464000D01*
X26773700Y-105315000D02*
X26050700Y-105315000D01*
X31824600Y-100264000D02*
X26773700Y-105315000D01*
X32099200Y-100264000D02*
X31824600Y-100264000D01*
X2540000Y-117396000D02*
X2540000Y-121920000D01*
X6549700Y-113387000D02*
X2540000Y-117396000D01*
X10051200Y-113387000D02*
X6549700Y-113387000D01*
X10928700Y-112509000D02*
X10051200Y-113387000D01*
X10928700Y-110150000D02*
X10928700Y-112509000D01*
X11277600Y-109801000D02*
X10928700Y-110150000D01*
X11277600Y-98706700D02*
X11277600Y-109801000D01*
X6811900Y-94241000D02*
X11277600Y-98706700D01*
X6811900Y-93232700D02*
X6811900Y-94241000D01*
X11614300Y-88430300D02*
X6811900Y-93232700D01*
X20021000Y-88430300D02*
X11614300Y-88430300D01*
X23379500Y-85071800D02*
X20021000Y-88430300D01*
X24523200Y-85071800D02*
X23379500Y-85071800D01*
X27261600Y-82333400D02*
X24523200Y-85071800D01*
X38423900Y-82333400D02*
X27261600Y-82333400D01*
X42221800Y-78535500D02*
X38423900Y-82333400D01*
X42614500Y-77435800D02*
X43405400Y-78226700D01*
X46358700Y-78226700D02*
X49767752Y-81635752D01*
X41868300Y-78182000D02*
X42614500Y-77435800D01*
X49767752Y-81635752D02*
X50055975Y-81635752D01*
X43405400Y-78226700D02*
X46358700Y-78226700D01*
X79993200Y-125005000D02*
X66717400Y-125005000D01*
X89608200Y-134620000D02*
X79993200Y-125005000D01*
X92710000Y-134620000D02*
X89608200Y-134620000D01*
X37594300Y-81748800D02*
X41514700Y-77828400D01*
X27271000Y-81748800D02*
X37594300Y-81748800D01*
X24907800Y-84112000D02*
X27271000Y-81748800D01*
X23572800Y-84112000D02*
X24907800Y-84112000D01*
X19661200Y-88023600D02*
X23572800Y-84112000D01*
X11445800Y-88023600D02*
X19661200Y-88023600D01*
X6405200Y-93064200D02*
X11445800Y-88023600D01*
X6405200Y-94409500D02*
X6405200Y-93064200D01*
X10836200Y-98840500D02*
X6405200Y-94409500D01*
X10836200Y-109667000D02*
X10836200Y-98840500D01*
X10467100Y-110036000D02*
X10836200Y-109667000D01*
X10467100Y-112396000D02*
X10467100Y-110036000D01*
X9882700Y-112980000D02*
X10467100Y-112396000D01*
X5665200Y-112980000D02*
X9882700Y-112980000D01*
X4345100Y-114300000D02*
X5665200Y-112980000D01*
X2540000Y-114300000D02*
X4345100Y-114300000D01*
X37586300Y-81049800D02*
X41161200Y-77474900D01*
X27114300Y-81049800D02*
X37586300Y-81049800D01*
X24657200Y-83506900D02*
X27114300Y-81049800D01*
X9885100Y-114300000D02*
X23183800Y-101001000D01*
X8080000Y-114300000D02*
X9885100Y-114300000D01*
X37611200Y-80317700D02*
X40807600Y-77121300D01*
X37611200Y-80317800D02*
X37611200Y-80317700D01*
X26791800Y-80317800D02*
X37611200Y-80317800D01*
X19492700Y-87616900D02*
X26791800Y-80317800D01*
X11277300Y-87616900D02*
X19492700Y-87616900D01*
X5998500Y-92895700D02*
X11277300Y-87616900D01*
X5998500Y-94578000D02*
X5998500Y-92895700D01*
X10429500Y-99009000D02*
X5998500Y-94578000D01*
X10429500Y-109498000D02*
X10429500Y-99009000D01*
X10060400Y-109867000D02*
X10429500Y-109498000D01*
X10060400Y-112227000D02*
X10060400Y-109867000D01*
X9722200Y-112565000D02*
X10060400Y-112227000D01*
X5150300Y-112565000D02*
X9722200Y-112565000D01*
X4345100Y-111760000D02*
X5150300Y-112565000D01*
X2540000Y-111760000D02*
X4345100Y-111760000D01*
X38721500Y-78500400D02*
X40454100Y-76767800D01*
X29482500Y-78500400D02*
X38721500Y-78500400D01*
X28734500Y-79248400D02*
X29482500Y-78500400D01*
X26404700Y-79248400D02*
X28734500Y-79248400D01*
X19384400Y-86268700D02*
X26404700Y-79248400D01*
X12050300Y-86268700D02*
X19384400Y-86268700D01*
X5591800Y-92727200D02*
X12050300Y-86268700D01*
X5591800Y-95244800D02*
X5591800Y-92727200D01*
X6274900Y-95927900D02*
X5591800Y-95244800D01*
X6274900Y-111760000D02*
X6274900Y-95927900D01*
X8080000Y-111760000D02*
X6274900Y-111760000D01*
X38421100Y-78093600D02*
X40100500Y-76414200D01*
X29314000Y-78093600D02*
X38421100Y-78093600D01*
X28565900Y-78841700D02*
X29314000Y-78093600D01*
X26076900Y-78841700D02*
X28565900Y-78841700D01*
X19056600Y-85862000D02*
X26076900Y-78841700D01*
X11881800Y-85862000D02*
X19056600Y-85862000D01*
X5185100Y-92558700D02*
X11881800Y-85862000D01*
X5185100Y-95616400D02*
X5185100Y-92558700D01*
X5762500Y-96193800D02*
X5185100Y-95616400D01*
X5762500Y-107803000D02*
X5762500Y-96193800D01*
X4345100Y-109220000D02*
X5762500Y-107803000D01*
X2540000Y-109220000D02*
X4345100Y-109220000D01*
X9885100Y-109220000D02*
X8080000Y-109220000D01*
X9953900Y-109151000D02*
X9885100Y-109220000D01*
X9953900Y-102375000D02*
X9953900Y-109151000D01*
X9824300Y-102246000D02*
X9953900Y-102375000D01*
X21083400Y-79991300D02*
X20638500Y-79991300D01*
X24706600Y-76368100D02*
X21083400Y-79991300D01*
X32606200Y-76368100D02*
X24706600Y-76368100D01*
X36238000Y-72736300D02*
X32606200Y-76368100D01*
X39251000Y-72736300D02*
X36238000Y-72736300D01*
X40100500Y-73585800D02*
X39251000Y-72736300D01*
X41200300Y-73978400D02*
X40454100Y-73232200D01*
X40645900Y-74532800D02*
X41200300Y-73978400D01*
X40125300Y-74532800D02*
X40645900Y-74532800D01*
X38737300Y-73144800D02*
X40125300Y-74532800D01*
X36404900Y-73144800D02*
X38737300Y-73144800D01*
X31888300Y-77661400D02*
X36404900Y-73144800D01*
X29171000Y-77661400D02*
X31888300Y-77661400D01*
X28397400Y-78435000D02*
X29171000Y-77661400D01*
X25908400Y-78435000D02*
X28397400Y-78435000D01*
X19344800Y-84998600D02*
X25908400Y-78435000D01*
X12170000Y-84998600D02*
X19344800Y-84998600D01*
X4778400Y-92390200D02*
X12170000Y-84998600D01*
X4778400Y-95785000D02*
X4778400Y-92390200D01*
X5337600Y-96344200D02*
X4778400Y-95785000D01*
X5337600Y-105688000D02*
X5337600Y-96344200D01*
X4345100Y-106680000D02*
X5337600Y-105688000D01*
X2540000Y-106680000D02*
X4345100Y-106680000D01*
X8080000Y-104719000D02*
X8080000Y-106680000D01*
X9331300Y-103468000D02*
X8080000Y-104719000D01*
X40201200Y-72272300D02*
X40807600Y-72878700D01*
X36126700Y-72272300D02*
X40201200Y-72272300D01*
X32810900Y-75588100D02*
X36126700Y-72272300D01*
X24535300Y-75588100D02*
X32810900Y-75588100D01*
X21269000Y-78854400D02*
X24535300Y-75588100D01*
X26064600Y-104710000D02*
X26308100Y-104710000D01*
X9470100Y-121304000D02*
X26064600Y-104710000D01*
X9470100Y-121920000D02*
X9470100Y-121304000D01*
X7590000Y-121920000D02*
X9470100Y-121920000D01*
X32840700Y-74983000D02*
X27135000Y-74983000D01*
X36047600Y-71776100D02*
X32840700Y-74983000D01*
X40412200Y-71776100D02*
X36047600Y-71776100D01*
X41161200Y-72525100D02*
X40412200Y-71776100D01*
X45796400Y-69382000D02*
X45050300Y-68636000D01*
X45915700Y-69262700D02*
X45796400Y-69382000D01*
X45953300Y-69262700D02*
X45915700Y-69262700D01*
X46491700Y-68724300D02*
X45953300Y-69262700D01*
X46782400Y-68724300D02*
X46491700Y-68724300D01*
X46807500Y-68699200D02*
X46782400Y-68724300D01*
X46986000Y-68699200D02*
X46807500Y-68699200D01*
X47467400Y-68217800D02*
X46986000Y-68699200D01*
X43464900Y-21190000D02*
X45270000Y-21190000D01*
X43464900Y-24369700D02*
X43464900Y-21190000D01*
X44560000Y-25464800D02*
X43464900Y-24369700D01*
X46896300Y-25464800D02*
X44560000Y-25464800D01*
X47075200Y-25643700D02*
X46896300Y-25464800D01*
X47075200Y-29897300D02*
X47075200Y-25643700D01*
X42957800Y-34014700D02*
X47075200Y-29897300D01*
X42957800Y-59979800D02*
X42957800Y-34014700D01*
X46733800Y-63755800D02*
X42957800Y-59979800D01*
X47467400Y-63755800D02*
X46733800Y-63755800D01*
X39730000Y-21190000D02*
X39347500Y-21190000D01*
X39347500Y-21190000D02*
X37541443Y-22996057D01*
X37541443Y-22996057D02*
X37541443Y-32460543D01*
X44657700Y-67536400D02*
X45403800Y-68282500D01*
X37541443Y-32460543D02*
X39921700Y-34840800D01*
X39921700Y-62796600D02*
X44657700Y-67532600D01*
X39921700Y-34840800D02*
X39921700Y-62796600D01*
X44657700Y-67532600D02*
X44657700Y-67536400D01*
X47075100Y-23730000D02*
X45270000Y-23730000D01*
X47075100Y-20560500D02*
X47075100Y-23730000D01*
X46899400Y-20384800D02*
X47075100Y-20560500D01*
X43643700Y-20384800D02*
X46899400Y-20384800D01*
X42131600Y-21896900D02*
X43643700Y-20384800D01*
X42131600Y-23793300D02*
X42131600Y-21896900D01*
X40548200Y-25376700D02*
X42131600Y-23793300D01*
X38155100Y-25376700D02*
X40548200Y-25376700D01*
X37924900Y-25606900D02*
X38155100Y-25376700D01*
X37924900Y-31981300D02*
X37924900Y-25606900D01*
X40497000Y-34553400D02*
X37924900Y-31981300D01*
X40497000Y-62668500D02*
X40497000Y-34553400D01*
X45757400Y-67928900D02*
X40497000Y-62668500D01*
X39730000Y-24457400D02*
X40025100Y-24752500D01*
X39730000Y-23730000D02*
X39730000Y-24457400D01*
X40025100Y-33506200D02*
X40025100Y-33225600D01*
X40915500Y-34396600D02*
X40025100Y-33506200D01*
X40915500Y-62380000D02*
X40915500Y-34396600D01*
X46110900Y-67575400D02*
X40915500Y-62380000D01*
X43464900Y-26627900D02*
X43081800Y-27011000D01*
X43464900Y-26270000D02*
X43464900Y-26627900D01*
X45270000Y-26270000D02*
X43464900Y-26270000D01*
X41324700Y-33915700D02*
X41126300Y-33717300D01*
X41324700Y-62082000D02*
X41324700Y-33915700D01*
X46464500Y-67221800D02*
X41324700Y-62082000D01*
X41535100Y-26270000D02*
X39730000Y-26270000D01*
X42464400Y-27199300D02*
X41535100Y-26270000D01*
X42464400Y-29418400D02*
X42464400Y-27199300D01*
X41731400Y-30151400D02*
X42464400Y-29418400D01*
X41731400Y-61781700D02*
X41731400Y-30151400D01*
X46818000Y-66868300D02*
X41731400Y-61781700D01*
X42138200Y-61481300D02*
X47171600Y-66514700D01*
X42138200Y-31941800D02*
X42138200Y-61481300D01*
X43464900Y-30615100D02*
X42138200Y-31941800D01*
X43464900Y-28810000D02*
X43464900Y-30615100D01*
X45270000Y-28810000D02*
X43464900Y-28810000D01*
X4345100Y-76200000D02*
X2540000Y-76200000D01*
X5150200Y-77005100D02*
X4345100Y-76200000D01*
X13104800Y-77005100D02*
X5150200Y-77005100D01*
X16059900Y-74050000D02*
X13104800Y-77005100D01*
X17000000Y-74050000D02*
X16059900Y-74050000D01*
X5150200Y-77934900D02*
X5150200Y-77005100D01*
X4345100Y-78740000D02*
X5150200Y-77934900D01*
X2540000Y-78740000D02*
X4345100Y-78740000D01*
D50*
X33762300Y-26300000D02*
X35811156Y-26300000D01*
X35811156Y-26300000D02*
X37174500Y-24936656D01*
X37174500Y-24936656D02*
X37174500Y-20745500D01*
X37174500Y-20745500D02*
X38810000Y-19110000D01*
X38810000Y-19110000D02*
X38810000Y-18360000D01*
D49*
X45010000Y-18360000D02*
X46215100Y-18360000D01*
X46215100Y-13957100D02*
X46215100Y-18360000D01*
X45199600Y-12941600D02*
X46215100Y-13957100D01*
X44450000Y-12941600D02*
X45199600Y-12941600D01*
X44450000Y-12192000D02*
X44450000Y-12941600D01*
X57739100Y-77082200D02*
X58485300Y-77828400D01*
X57739100Y-75778500D02*
X57739100Y-77082200D01*
X55248800Y-73288200D02*
X57739100Y-75778500D01*
X46215100Y-19069600D02*
X46215100Y-18360000D01*
X47581400Y-20435900D02*
X46215100Y-19069600D01*
X47581400Y-25574600D02*
X47581400Y-20435900D01*
X48111800Y-26105000D02*
X47581400Y-25574600D01*
X48111800Y-34027600D02*
X48111800Y-26105000D01*
X46804000Y-35335400D02*
X48111800Y-34027600D01*
X46804000Y-40460000D02*
X46804000Y-35335400D01*
X64803700Y-78752000D02*
X65532000Y-78023700D01*
X59408900Y-78752000D02*
X64803700Y-78752000D01*
X58485300Y-77828400D02*
X59408900Y-78752000D01*
X38810000Y-18360000D02*
X45010000Y-18360000D01*
X47230000Y-40460000D02*
X46804000Y-40460000D01*
X46679700Y-58402600D02*
X54089500Y-58402600D01*
X45023000Y-56745900D02*
X46679700Y-58402600D01*
X45023000Y-54439200D02*
X45023000Y-56745900D01*
X44190000Y-53606200D02*
X45023000Y-54439200D01*
X44190000Y-41694900D02*
X44190000Y-53606200D01*
X45424900Y-40460000D02*
X44190000Y-41694900D01*
X46804000Y-40460000D02*
X45424900Y-40460000D01*
X51620000Y-16998500D02*
X51620000Y-15500000D01*
X51750600Y-17129100D02*
X51620000Y-16998500D01*
X60556000Y-13281300D02*
X59708700Y-14128600D01*
X60556000Y-5416600D02*
X60556000Y-13281300D01*
X60434800Y-5295400D02*
X60556000Y-5416600D01*
X56677000Y-5295400D02*
X60434800Y-5295400D01*
X56373100Y-5599300D02*
X56677000Y-5295400D01*
X52051300Y-14128600D02*
X59708700Y-14128600D01*
X51620000Y-14559900D02*
X52051300Y-14128600D01*
X51620000Y-15500000D02*
X51620000Y-14559900D01*
X60140000Y-14559900D02*
X60140000Y-15500000D01*
X59708700Y-14128600D02*
X60140000Y-14559900D01*
X34810700Y-132531000D02*
X30536500Y-128256000D01*
X71988900Y-132531000D02*
X34810700Y-132531000D01*
X73370000Y-133912000D02*
X71988900Y-132531000D01*
X85297300Y-133912000D02*
X73370000Y-133912000D01*
X90904900Y-139519000D02*
X85297300Y-133912000D01*
X90904900Y-139700000D02*
X90904900Y-139519000D01*
X92710000Y-139700000D02*
X90904900Y-139700000D01*
X5885200Y-132885000D02*
X2540000Y-129540000D01*
X13915100Y-132885000D02*
X5885200Y-132885000D01*
X22389000Y-124411000D02*
X13915100Y-132885000D01*
X43597000Y-81403000D02*
X44343100Y-80656900D01*
X43597000Y-82256200D02*
X43597000Y-81403000D01*
X41474300Y-84378900D02*
X43597000Y-82256200D01*
X41474300Y-96119300D02*
X41474300Y-84378900D01*
X36450400Y-101143000D02*
X41474300Y-96119300D01*
X33801200Y-101143000D02*
X36450400Y-101143000D01*
X32855300Y-102089000D02*
X33801200Y-101143000D01*
X32300100Y-102089000D02*
X32855300Y-102089000D01*
X30464700Y-103924000D02*
X32300100Y-102089000D01*
X30464700Y-114374000D02*
X30464700Y-103924000D01*
X23858700Y-120980000D02*
X30464700Y-114374000D01*
X46099500Y-78831800D02*
X46099600Y-78831800D01*
X46099500Y-79085700D02*
X46099500Y-78831800D01*
X45274400Y-79910800D02*
X46099500Y-79085700D01*
X45089200Y-79910800D02*
X45274400Y-79910800D01*
X44343100Y-80656900D02*
X45089200Y-79910800D01*
X12700000Y-66345100D02*
X12700000Y-64540000D01*
X9885100Y-69160000D02*
X12700000Y-66345100D01*
X9885100Y-73660000D02*
X9885100Y-69160000D01*
X8080000Y-73660000D02*
X9885100Y-73660000D01*
X12700000Y-71885100D02*
X12700000Y-70080000D01*
X9885100Y-74700000D02*
X12700000Y-71885100D01*
X9885100Y-76200000D02*
X9885100Y-74700000D01*
X8080000Y-76200000D02*
X9885100Y-76200000D01*
X35617400Y-103737000D02*
X36494000Y-103737000D01*
X35490400Y-103610000D02*
X35617400Y-103737000D01*
X34208000Y-103610000D02*
X35490400Y-103610000D01*
X17220900Y-79375000D02*
X18034000Y-79375000D01*
X17220900Y-78765200D02*
X17220900Y-79375000D01*
X16954000Y-78498300D02*
X17220900Y-78765200D01*
X10126800Y-78498300D02*
X16954000Y-78498300D01*
X9885100Y-78740000D02*
X10126800Y-78498300D01*
X8080000Y-78740000D02*
X9885100Y-78740000D01*
X33454700Y-103614000D02*
X31631200Y-103614000D01*
X33458400Y-103610000D02*
X33454700Y-103614000D01*
X34208000Y-103610000D02*
X33458400Y-103610000D01*
X25692600Y-77829900D02*
X28146800Y-77829900D01*
X22885300Y-80637200D02*
X25692600Y-77829900D01*
X18034000Y-80637200D02*
X22885300Y-80637200D01*
X18034000Y-82308400D02*
X18034000Y-80637200D01*
X17907000Y-82435400D02*
X18034000Y-82308400D01*
X17907000Y-83185000D02*
X17907000Y-82435400D01*
X18034000Y-80637200D02*
X18034000Y-79375000D01*
X16256000Y-82308400D02*
X16256000Y-79813300D01*
X16383000Y-82435400D02*
X16256000Y-82308400D01*
X16383000Y-83185000D02*
X16383000Y-82435400D01*
X1104300Y-79813300D02*
X16256000Y-79813300D01*
X734900Y-79443900D02*
X1104300Y-79813300D01*
X734900Y-71120000D02*
X734900Y-79443900D01*
X2540000Y-71120000D02*
X734900Y-71120000D01*
X16256000Y-79375000D02*
X16256000Y-79813300D01*
X10235300Y-62689800D02*
X18950600Y-62689800D01*
X28591036Y-71957212D02*
X29015300Y-71957212D01*
X18950600Y-62689800D02*
X28218012Y-71957212D01*
X4345100Y-68580000D02*
X10235300Y-62689800D01*
X2540000Y-68580000D02*
X4345100Y-68580000D01*
X28218012Y-71957212D02*
X28591036Y-71957212D01*
X35490400Y-102086000D02*
X34208000Y-102086000D01*
X35617400Y-101959000D02*
X35490400Y-102086000D01*
X36494000Y-101959000D02*
X35617400Y-101959000D01*
X32843300Y-102701000D02*
X32643700Y-102701000D01*
X33458400Y-102086000D02*
X32843300Y-102701000D01*
X34208000Y-102086000D02*
X33458400Y-102086000D01*
X66021737Y-151195663D02*
X66041400Y-151176000D01*
X61553400Y-149850000D02*
X61553400Y-151195663D01*
X61553400Y-151195663D02*
X66021737Y-151195663D01*
X76535600Y-106302000D02*
X77310000Y-106302000D01*
X76408600Y-106429000D02*
X76535600Y-106302000D01*
X75532000Y-106429000D02*
X76408600Y-106429000D01*
X71190400Y-111584000D02*
X71167200Y-111584000D01*
X75532000Y-107242000D02*
X71190400Y-111584000D01*
X75532000Y-106429000D02*
X75532000Y-107242000D01*
X54011900Y-25273000D02*
X49530000Y-25273000D01*
X54358900Y-24926000D02*
X54011900Y-25273000D01*
X55364000Y-24926000D02*
X54358900Y-24926000D01*
X52413600Y-82363300D02*
X52413600Y-80672200D01*
X53182000Y-83131700D02*
X52413600Y-82363300D01*
X52819600Y-29468200D02*
X53085600Y-29734200D01*
X52819600Y-29337000D02*
X52819600Y-29468200D01*
X52070000Y-29337000D02*
X52819600Y-29337000D01*
X85400000Y-66650000D02*
X82229700Y-66650000D01*
X80430600Y-66650000D02*
X78788100Y-65007500D01*
X82229700Y-66650000D02*
X80430600Y-66650000D01*
X62321100Y-66214400D02*
X57424600Y-71110900D01*
X77581200Y-66214400D02*
X62321100Y-66214400D01*
X78788100Y-65007500D02*
X77581200Y-66214400D01*
X85524000Y-91650000D02*
X87263100Y-89910900D01*
X85400000Y-91650000D02*
X85524000Y-91650000D01*
X82229700Y-81086200D02*
X82229700Y-66650000D01*
X87263100Y-86119600D02*
X82229700Y-81086200D01*
X87263100Y-89910900D02*
X87263100Y-86119600D01*
X89635800Y-141650000D02*
X92611400Y-144626000D01*
X85400000Y-141650000D02*
X89635800Y-141650000D01*
X87323900Y-116650000D02*
X85400000Y-116650000D01*
X89326500Y-114647000D02*
X87323900Y-116650000D01*
X89326500Y-106052000D02*
X89326500Y-114647000D01*
X96274700Y-99103400D02*
X89326500Y-106052000D01*
X98707400Y-99103400D02*
X96274700Y-99103400D01*
X99221000Y-98589800D02*
X98707400Y-99103400D01*
X99221000Y-96410300D02*
X99221000Y-98589800D01*
X92721600Y-89910900D02*
X99221000Y-96410300D01*
X87263100Y-89910900D02*
X92721600Y-89910900D01*
X87323900Y-116650000D02*
X87323900Y-121268000D01*
X5707300Y-116650000D02*
X4590900Y-117766000D01*
X10400000Y-116650000D02*
X5707300Y-116650000D01*
X10611000Y-91861000D02*
X10611000Y-95513800D01*
X10400000Y-91650000D02*
X10611000Y-91861000D01*
X4905200Y-153654000D02*
X6066900Y-154816000D01*
X4905200Y-152587000D02*
X4905200Y-153654000D01*
X5315600Y-152176000D02*
X4905200Y-152587000D01*
X5315600Y-141650000D02*
X5315600Y-152176000D01*
X1983400Y-141650000D02*
X5315600Y-141650000D01*
X659800Y-140326000D02*
X1983400Y-141650000D01*
X659800Y-123820000D02*
X659800Y-140326000D01*
X1754100Y-122725000D02*
X659800Y-123820000D01*
X4263000Y-122725000D02*
X1754100Y-122725000D01*
X4489600Y-122499000D02*
X4263000Y-122725000D01*
X4489600Y-117868000D02*
X4489600Y-122499000D01*
X4590900Y-117766000D02*
X4489600Y-117868000D01*
X5315600Y-141650000D02*
X10400000Y-141650000D01*
X12800000Y-58010000D02*
X8619800Y-53829800D01*
X57110200Y-69304100D02*
X56364000Y-70050300D01*
X57110200Y-64280300D02*
X57110200Y-69304100D01*
X55129500Y-62299600D02*
X57110200Y-64280300D01*
X47003200Y-62299600D02*
X55129500Y-62299600D01*
X44390600Y-59687000D02*
X47003200Y-62299600D01*
X44390600Y-55161000D02*
X44390600Y-59687000D01*
X36486200Y-49436500D02*
X38866600Y-51816900D01*
X6825600Y-49436500D02*
X36486200Y-49436500D01*
X5941800Y-50320300D02*
X6825600Y-49436500D01*
X5941800Y-52089900D02*
X5941800Y-50320300D01*
X7681700Y-53829800D02*
X5941800Y-52089900D01*
X8619800Y-53829800D02*
X7681700Y-53829800D01*
X32884200Y-70687100D02*
X31093812Y-70687100D01*
X35400000Y-68171300D02*
X32884200Y-70687100D01*
X35400000Y-66650000D02*
X35400000Y-68171300D01*
X31093812Y-70687100D02*
X30123699Y-71657213D01*
X30123699Y-71657213D02*
X29823700Y-71957212D01*
X35377000Y-118502000D02*
X33267100Y-120612000D01*
X35377000Y-116650000D02*
X35377000Y-118502000D01*
X31874500Y-91650000D02*
X35400000Y-91650000D01*
X30565900Y-92958600D02*
X31874500Y-91650000D01*
X32496200Y-141650000D02*
X35400000Y-141650000D01*
X30298400Y-143848000D02*
X32496200Y-141650000D01*
X48325800Y-71612700D02*
X48320800Y-71607700D01*
X55508600Y-71612700D02*
X48325800Y-71612700D01*
X56717500Y-70403800D02*
X55508600Y-71612700D01*
X35499500Y-66550500D02*
X35400000Y-66650000D01*
X35499500Y-64632400D02*
X35499500Y-66550500D01*
X31590400Y-60723300D02*
X35499500Y-64632400D01*
X31590400Y-56456800D02*
X31590400Y-60723300D01*
X54024300Y-138183000D02*
X57490900Y-141650000D01*
X57490900Y-141650000D02*
X60400000Y-141650000D01*
X57817300Y-70011200D02*
X57071100Y-70757400D01*
X57938900Y-70011200D02*
X57817300Y-70011200D01*
X60400000Y-67550100D02*
X57938900Y-70011200D01*
X60400000Y-66650000D02*
X60400000Y-67550100D01*
X62042500Y-65007500D02*
X69987500Y-65007500D01*
X60400000Y-66650000D02*
X62042500Y-65007500D01*
X62437000Y-93687000D02*
X68952500Y-93687000D01*
X60400000Y-91650000D02*
X62437000Y-93687000D01*
X61308500Y-115742000D02*
X60400000Y-116650000D01*
X61308500Y-109945000D02*
X61308500Y-115742000D01*
X60925500Y-109562000D02*
X61308500Y-109945000D01*
X60925500Y-107787000D02*
X60925500Y-109562000D01*
X70141800Y-98570300D02*
X60925500Y-107787000D01*
X70141800Y-94876300D02*
X70141800Y-98570300D01*
X68952500Y-93687000D02*
X70141800Y-94876300D01*
X57402300Y-116650000D02*
X54024300Y-120028000D01*
X60400000Y-116650000D02*
X57402300Y-116650000D01*
X20536200Y-37781200D02*
X37002500Y-37781200D01*
X18723000Y-39594400D02*
X20536200Y-37781200D01*
X66196700Y-41526100D02*
X45690000Y-41526100D01*
X69599200Y-38123600D02*
X66196700Y-41526100D01*
X72560500Y-38123600D02*
X69599200Y-38123600D01*
X69936700Y-39872500D02*
X69657100Y-39592900D01*
X98451000Y-39872500D02*
X69936700Y-39872500D01*
X98919000Y-39404500D02*
X98451000Y-39872500D01*
X90644800Y-36186600D02*
X49118700Y-36186600D01*
X93723000Y-39264800D02*
X90644800Y-36186600D01*
X39307700Y-36345000D02*
X39307700Y-36233900D01*
X32425900Y-43226800D02*
X39307700Y-36345000D01*
X24845900Y-43226800D02*
X32425900Y-43226800D01*
X44976100Y-42194800D02*
X44823500Y-42347400D01*
X49285300Y-42194800D02*
X44976100Y-42194800D01*
X49424300Y-42333800D02*
X49285300Y-42194800D01*
X38062800Y-39408300D02*
X39288100Y-39408300D01*
X30879800Y-46591300D02*
X38062800Y-39408300D01*
X19853600Y-46591300D02*
X30879800Y-46591300D01*
X72306400Y-44698100D02*
X73040000Y-45431700D01*
X68919000Y-44698100D02*
X72306400Y-44698100D01*
X65529600Y-48087500D02*
X68919000Y-44698100D01*
X46352900Y-48087500D02*
X65529600Y-48087500D01*
X86097200Y-43382500D02*
X98919000Y-43382500D01*
X82790800Y-46688900D02*
X86097200Y-43382500D01*
X68826400Y-46688900D02*
X82790800Y-46688900D01*
X68723000Y-46585500D02*
X68826400Y-46688900D01*
X31972100Y-55692200D02*
X32195500Y-55692200D01*
X28728600Y-52448700D02*
X31972100Y-55692200D01*
X28728600Y-51462200D02*
X28728600Y-52448700D01*
X28577400Y-51311000D02*
X28728600Y-51462200D01*
X26444900Y-51311000D02*
X28577400Y-51311000D01*
X26050000Y-51705900D02*
X26444900Y-51311000D01*
X26050000Y-54337300D02*
X26050000Y-51705900D01*
X20853300Y-59534000D02*
X26050000Y-54337300D01*
X14338700Y-59534000D02*
X20853300Y-59534000D01*
X45648900Y-56593100D02*
X45648900Y-56510100D01*
X46854600Y-57798800D02*
X45648900Y-56593100D01*
X53837600Y-57798800D02*
X46854600Y-57798800D01*
X60325400Y-51311000D02*
X53837600Y-57798800D01*
X69486100Y-51311000D02*
X60325400Y-51311000D01*
X70460400Y-52285300D02*
X69486100Y-51311000D01*
X70460400Y-52705200D02*
X70460400Y-52285300D01*
X71444400Y-53689200D02*
X70460400Y-52705200D01*
X78592100Y-53689200D02*
X71444400Y-53689200D01*
X79154800Y-53126500D02*
X78592100Y-53689200D01*
X79154800Y-51475300D02*
X79154800Y-53126500D01*
X84339600Y-46290500D02*
X79154800Y-51475300D01*
X88712200Y-46290500D02*
X84339600Y-46290500D01*
X89539900Y-47118200D02*
X88712200Y-46290500D01*
X19069100Y-61700900D02*
X12573800Y-61700900D01*
X26978400Y-69610200D02*
X19069100Y-61700900D01*
X33366400Y-69610200D02*
X26978400Y-69610200D01*
X34318500Y-68658100D02*
X33366400Y-69610200D01*
X34318500Y-65711200D02*
X34318500Y-68658100D01*
X34894200Y-65135500D02*
X34318500Y-65711200D01*
X63235800Y-60715100D02*
X63372900Y-60578000D01*
X50020100Y-60715100D02*
X63235800Y-60715100D01*
X49271600Y-59966600D02*
X50020100Y-60715100D01*
X46786000Y-59966600D02*
X49271600Y-59966600D01*
X36255700Y-63075100D02*
X35805100Y-63075100D01*
X42164700Y-68984100D02*
X36255700Y-63075100D01*
X84336600Y-64334900D02*
X86612000Y-62059500D01*
X61140000Y-64334900D02*
X84336600Y-64334900D01*
X61024800Y-64219700D02*
X61140000Y-64334900D01*
X47363000Y-61228500D02*
X47200000Y-61065500D01*
X70640700Y-61228500D02*
X47363000Y-61228500D01*
X71621600Y-60247600D02*
X70640700Y-61228500D01*
X81141700Y-60247600D02*
X71621600Y-60247600D01*
X83594900Y-62700800D02*
X81141700Y-60247600D01*
X37402000Y-79655100D02*
X37724600Y-79332500D01*
X26573300Y-79655100D02*
X37402000Y-79655100D01*
X19216600Y-87011800D02*
X26573300Y-79655100D01*
X15756300Y-87011800D02*
X19216600Y-87011800D01*
X12443300Y-89603000D02*
X12160200Y-89886100D01*
X29028900Y-89603000D02*
X12443300Y-89603000D01*
X30179800Y-90753900D02*
X29028900Y-89603000D01*
X32313800Y-90753900D02*
X30179800Y-90753900D01*
X36901400Y-86166300D02*
X32313800Y-90753900D01*
X38377600Y-86166300D02*
X36901400Y-86166300D01*
X36878600Y-95498600D02*
X36878600Y-91289300D01*
X36734500Y-95642700D02*
X36878600Y-95498600D01*
X47529200Y-86121700D02*
X63395400Y-86121700D01*
X46870200Y-86780700D02*
X47529200Y-86121700D01*
X82578100Y-90153000D02*
X84762600Y-87968500D01*
X68293000Y-90153000D02*
X82578100Y-90153000D01*
X67779300Y-89639300D02*
X68293000Y-90153000D01*
X61444400Y-89639300D02*
X67779300Y-89639300D01*
X81913800Y-89746200D02*
X69036700Y-89746200D01*
X68311600Y-89021100D02*
X50463891Y-89021100D01*
X50463891Y-89021100D02*
X47925145Y-91559846D01*
X83488400Y-88171600D02*
X81913800Y-89746200D01*
X69036700Y-89746200D02*
X68311600Y-89021100D01*
X27699200Y-99109700D02*
X14996200Y-111813000D01*
X35327300Y-99109700D02*
X27699200Y-99109700D01*
X35797100Y-98639900D02*
X35327300Y-99109700D01*
X34845400Y-109695000D02*
X34918500Y-109695000D01*
X31069900Y-105919000D02*
X34845400Y-109695000D01*
X26285800Y-102788000D02*
X28250000Y-102788000D01*
X13646300Y-115428000D02*
X26285800Y-102788000D01*
X62206100Y-113646000D02*
X64038100Y-111814000D01*
X62206100Y-116630000D02*
X62206100Y-113646000D01*
X60951700Y-117884000D02*
X62206100Y-116630000D01*
X57730600Y-117884000D02*
X60951700Y-117884000D01*
X51631100Y-123984000D02*
X57730600Y-117884000D01*
X51631100Y-126082000D02*
X51631100Y-123984000D01*
X50692200Y-127021000D02*
X51631100Y-126082000D01*
X49238000Y-127021000D02*
X50692200Y-127021000D01*
X39024300Y-116808000D02*
X49238000Y-127021000D01*
X39024300Y-115760000D02*
X39024300Y-116808000D01*
X63004400Y-114307000D02*
X62811200Y-114114000D01*
X85087900Y-114307000D02*
X63004400Y-114307000D01*
X88214100Y-111181000D02*
X85087900Y-114307000D01*
X78222300Y-115011000D02*
X85805100Y-115011000D01*
X71394600Y-121838000D02*
X78222300Y-115011000D01*
X71394600Y-122321000D02*
X71394600Y-121838000D01*
X69823100Y-123892000D02*
X71394600Y-122321000D01*
X66357300Y-123892000D02*
X69823100Y-123892000D01*
X62821500Y-127428000D02*
X66357300Y-123892000D01*
X48817400Y-127428000D02*
X62821500Y-127428000D01*
X48469400Y-127080000D02*
X48817400Y-127428000D01*
X30815400Y-127080000D02*
X48469400Y-127080000D01*
X19986400Y-137909000D02*
X30815400Y-127080000D01*
X15150800Y-137909000D02*
X19986400Y-137909000D01*
X24727300Y-134772000D02*
X36180500Y-134772000D01*
X20398700Y-139101000D02*
X24727300Y-134772000D01*
X11455800Y-139101000D02*
X20398700Y-139101000D01*
X11094200Y-139463000D02*
X11455800Y-139101000D01*
X45109600Y-139578000D02*
X47766100Y-136922000D01*
X37574500Y-139578000D02*
X45109600Y-139578000D01*
X47766100Y-136922000D02*
X60659900Y-136922000D01*
X65712100Y-135695000D02*
X63886300Y-137521000D01*
X86185900Y-135695000D02*
X65712100Y-135695000D01*
X86945600Y-136454000D02*
X86185900Y-135695000D01*
X70987700Y-134760000D02*
X85280900Y-134760000D01*
X69181400Y-132954000D02*
X70987700Y-134760000D01*
X38882500Y-132954000D02*
X69181400Y-132954000D01*
X29027500Y-142808000D02*
X38882500Y-132954000D01*
X65367120Y-73662445D02*
X66626792Y-73662445D01*
X66626792Y-73662445D02*
X67065523Y-73223714D01*
X64898375Y-73193700D02*
X65367120Y-73662445D01*
X60686500Y-74906200D02*
X60686500Y-74206900D01*
X60686500Y-74206900D02*
X61699700Y-73193700D01*
X60232200Y-75360500D02*
X60686500Y-74906200D01*
X59460800Y-75360500D02*
X60232200Y-75360500D01*
X58799700Y-76021600D02*
X59460800Y-75360500D01*
X59545900Y-76767800D02*
X58799700Y-76021600D01*
X61699700Y-73193700D02*
X64898375Y-73193700D01*
X3514600Y-34984800D02*
X39206800Y-34984800D01*
X3500000Y-34999400D02*
X3514600Y-34984800D01*
X84370200Y-34984800D02*
X49160600Y-34984800D01*
X89495000Y-29860000D02*
X84370200Y-34984800D01*
X45451700Y-85912200D02*
X47525100Y-83838800D01*
X45451700Y-94130800D02*
X45451700Y-85912200D01*
X45992400Y-94671500D02*
X45451700Y-94130800D01*
X45992400Y-96703100D02*
X45992400Y-94671500D01*
X50317300Y-101028000D02*
X45992400Y-96703100D01*
X50317300Y-103662000D02*
X50317300Y-101028000D01*
X43123700Y-110856000D02*
X50317300Y-103662000D01*
X41700200Y-110856000D02*
X43123700Y-110856000D01*
X37925200Y-114631000D02*
X41700200Y-110856000D01*
X37925200Y-118820000D02*
X37925200Y-114631000D01*
X19983600Y-136762000D02*
X37925200Y-118820000D01*
X12240000Y-136762000D02*
X19983600Y-136762000D01*
X9301600Y-139700000D02*
X12240000Y-136762000D01*
X7590000Y-139700000D02*
X9301600Y-139700000D01*
X28517000Y-121304000D02*
X43602500Y-106219000D01*
X26873200Y-121304000D02*
X28517000Y-121304000D01*
X26729300Y-121448000D02*
X26873200Y-121304000D01*
X26729300Y-122678000D02*
X26729300Y-121448000D01*
X13575900Y-135832000D02*
X26729300Y-122678000D01*
X5748200Y-135832000D02*
X13575900Y-135832000D01*
X4420100Y-137160000D02*
X5748200Y-135832000D01*
X2540000Y-137160000D02*
X4420100Y-137160000D01*
X45045000Y-85611900D02*
X47171600Y-83485300D01*
X45045000Y-96057000D02*
X45045000Y-85611900D01*
X45191200Y-96203200D02*
X45045000Y-96057000D01*
X44586100Y-85363600D02*
X46818000Y-83131700D01*
X44586100Y-106257000D02*
X44586100Y-85363600D01*
X34549100Y-116294000D02*
X44586100Y-106257000D01*
X34549100Y-118399000D02*
X34549100Y-116294000D01*
X31755500Y-121192000D02*
X34549100Y-118399000D01*
X31087700Y-121192000D02*
X31755500Y-121192000D01*
X29779100Y-122501000D02*
X31087700Y-121192000D01*
X29779100Y-122947000D02*
X29779100Y-122501000D01*
X16370800Y-136355000D02*
X29779100Y-122947000D01*
X10275200Y-136355000D02*
X16370800Y-136355000D01*
X9470100Y-137160000D02*
X10275200Y-136355000D01*
X7590000Y-137160000D02*
X9470100Y-137160000D01*
X44152800Y-85089900D02*
X46464500Y-82778200D01*
X44152800Y-104596000D02*
X44152800Y-85089900D01*
X27900600Y-120848000D02*
X44152800Y-104596000D01*
X26753900Y-120848000D02*
X27900600Y-120848000D01*
X26236300Y-121366000D02*
X26753900Y-120848000D01*
X26236300Y-122596000D02*
X26236300Y-121366000D01*
X13407400Y-135425000D02*
X26236300Y-122596000D01*
X5225200Y-135425000D02*
X13407400Y-135425000D01*
X4420100Y-134620000D02*
X5225200Y-135425000D01*
X2540000Y-134620000D02*
X4420100Y-134620000D01*
X43746000Y-84789500D02*
X46110900Y-82424600D01*
X43746000Y-104428000D02*
X43746000Y-84789500D01*
X28989400Y-119184000D02*
X43746000Y-104428000D01*
X27842700Y-119184000D02*
X28989400Y-119184000D01*
X25772000Y-121255000D02*
X27842700Y-119184000D01*
X25772000Y-122485000D02*
X25772000Y-121255000D01*
X13637300Y-134620000D02*
X25772000Y-122485000D01*
X7590000Y-134620000D02*
X13637300Y-134620000D01*
X43339200Y-84489300D02*
X45757400Y-82071100D01*
X43339200Y-104240000D02*
X43339200Y-84489300D01*
X29978500Y-117601000D02*
X43339200Y-104240000D01*
X28837000Y-117601000D02*
X29978500Y-117601000D01*
X25365200Y-121072000D02*
X28837000Y-117601000D01*
X25365200Y-122317000D02*
X25365200Y-121072000D01*
X14389000Y-133293000D02*
X25365200Y-122317000D01*
X5633100Y-133293000D02*
X14389000Y-133293000D01*
X4420100Y-132080000D02*
X5633100Y-133293000D01*
X2540000Y-132080000D02*
X4420100Y-132080000D01*
X13500800Y-132080000D02*
X7590000Y-132080000D01*
X21891700Y-123689000D02*
X13500800Y-132080000D01*
X23393600Y-123689000D02*
X21891700Y-123689000D01*
X24463900Y-122619000D02*
X23393600Y-123689000D01*
X24463900Y-121013000D02*
X24463900Y-122619000D01*
X37649400Y-107827000D02*
X24463900Y-121013000D01*
X37649400Y-101069000D02*
X37649400Y-107827000D01*
X41881000Y-96837700D02*
X37649400Y-101069000D01*
X41881000Y-85240300D02*
X41881000Y-96837700D01*
X45403800Y-81717500D02*
X41881000Y-85240300D01*
X43989600Y-80303300D02*
X45268100Y-79024800D01*
X66078800Y-15658600D02*
X66035400Y-15658600D01*
X66237400Y-15500000D02*
X66078800Y-15658600D01*
X66860000Y-15500000D02*
X66237400Y-15500000D01*
X68996100Y-45305500D02*
X69996200Y-45305500D01*
X65252700Y-49048900D02*
X68996100Y-45305500D01*
X56876900Y-49048900D02*
X65252700Y-49048900D01*
X49138800Y-56787000D02*
X56876900Y-49048900D01*
X48115500Y-56787000D02*
X49138800Y-56787000D01*
X15173400Y-117954000D02*
X25259000Y-117954000D01*
X14444300Y-118683000D02*
X15173400Y-117954000D01*
X14444300Y-120194000D02*
X14444300Y-118683000D01*
X10690200Y-123948000D02*
X14444300Y-120194000D01*
X10690200Y-128320000D02*
X10690200Y-123948000D01*
X9470100Y-129540000D02*
X10690200Y-128320000D01*
X7590000Y-129540000D02*
X9470100Y-129540000D01*
X96444900Y-139700000D02*
X98250000Y-139700000D01*
X95639800Y-138895000D02*
X96444900Y-139700000D01*
X91913700Y-138895000D02*
X95639800Y-138895000D01*
X86523800Y-133505000D02*
X91913700Y-138895000D01*
X73826000Y-133505000D02*
X86523800Y-133505000D01*
X69772900Y-129452000D02*
X73826000Y-133505000D01*
X33256900Y-129452000D02*
X69772900Y-129452000D01*
X31499800Y-127695000D02*
X33256900Y-129452000D01*
X43114400Y-81178500D02*
X43989600Y-80303300D01*
X43114400Y-82163500D02*
X43114400Y-81178500D01*
X41067600Y-84210300D02*
X43114400Y-82163500D01*
X41067600Y-95950800D02*
X41067600Y-84210300D01*
X36281900Y-100736000D02*
X41067600Y-95950800D01*
X33632700Y-100736000D02*
X36281900Y-100736000D01*
X32686800Y-101682000D02*
X33632700Y-100736000D01*
X32131600Y-101682000D02*
X32686800Y-101682000D01*
X29643500Y-104170000D02*
X32131600Y-101682000D01*
X29643500Y-113371000D02*
X29643500Y-104170000D01*
X25259100Y-117756000D02*
X29643500Y-113371000D01*
X25259100Y-117954000D02*
X25259100Y-117756000D01*
X25259000Y-117954000D02*
X25259100Y-117954000D01*
X41535100Y-28810000D02*
X41851600Y-29126500D01*
X39730000Y-28810000D02*
X41535100Y-28810000D01*
X42551100Y-32815400D02*
X42743400Y-32623100D01*
X42551100Y-61187200D02*
X42551100Y-32815400D01*
X47525100Y-66161200D02*
X42551100Y-61187200D01*
X93082600Y-13960400D02*
X91000000Y-11877800D01*
X98000000Y-13960400D02*
X93082600Y-13960400D01*
X11430000Y-12192000D02*
X7320300Y-12192000D01*
X68026000Y-30614600D02*
X69215000Y-30614600D01*
X65902500Y-28491100D02*
X68026000Y-30614600D01*
X64904000Y-28491100D02*
X65902500Y-28491100D01*
X64904000Y-27536000D02*
X64904000Y-28491100D01*
X83444000Y-8299300D02*
X84873100Y-8299300D01*
X70404000Y-21339300D02*
X83444000Y-8299300D01*
X70404000Y-30614600D02*
X70404000Y-21339300D01*
X69215000Y-30614600D02*
X70404000Y-30614600D01*
X68834000Y-24996000D02*
X64904000Y-24996000D01*
X68879900Y-24996000D02*
X68834000Y-24996000D01*
X69215000Y-25331100D02*
X68879900Y-24996000D01*
X69215000Y-26535400D02*
X69215000Y-25331100D01*
X68834000Y-24996000D02*
X68834000Y-24130000D01*
X66196642Y-72122111D02*
X66496641Y-72422110D01*
X65761174Y-71686643D02*
X66196642Y-72122111D01*
X60384457Y-71686643D02*
X65761174Y-71686643D01*
X59192400Y-72878700D02*
X60384457Y-71686643D01*
X71146700Y-74495700D02*
X71146700Y-68545700D01*
X68748400Y-76894000D02*
X71146700Y-74495700D01*
X60911900Y-76894000D02*
X68748400Y-76894000D01*
X60645600Y-77160300D02*
X60911900Y-76894000D01*
X59899500Y-76414200D02*
X60645600Y-77160300D01*
X55872800Y-3699400D02*
X59126900Y-3699400D01*
X52987600Y-6584600D02*
X55872800Y-3699400D01*
X52987600Y-10016000D02*
X52987600Y-6584600D01*
X50281800Y-12721800D02*
X52987600Y-10016000D01*
X43777300Y-37506300D02*
X47506700Y-33776900D01*
X43777300Y-59648900D02*
X43777300Y-37506300D01*
X46834700Y-62706300D02*
X43777300Y-59648900D01*
X54960900Y-62706300D02*
X46834700Y-62706300D01*
X56622700Y-64368100D02*
X54960900Y-62706300D01*
X56622700Y-69084400D02*
X56622700Y-64368100D01*
X56010400Y-69696700D02*
X56622700Y-69084400D01*
X48197800Y-3417200D02*
X47558100Y-2777500D01*
X48197800Y-3699400D02*
X48197800Y-3417200D01*
X49626900Y-3699400D02*
X48197800Y-3699400D01*
X41450100Y-70692800D02*
X35521900Y-70692800D01*
X42221800Y-71464500D02*
X41450100Y-70692800D01*
X58617400Y-15500000D02*
X59240000Y-15500000D01*
X57677300Y-14559900D02*
X58617400Y-15500000D01*
X55430000Y-14559900D02*
X57677300Y-14559900D01*
X55430000Y-15500000D02*
X55430000Y-14559900D01*
X61006200Y-10742200D02*
X61006200Y-16364400D01*
X65045200Y-6703200D02*
X61006200Y-10742200D01*
X65873100Y-6703200D02*
X65045200Y-6703200D01*
X65873100Y-5599300D02*
X65873100Y-6703200D01*
X59240000Y-16440100D02*
X59240000Y-15500000D01*
X60930500Y-16440100D02*
X59240000Y-16440100D01*
X61006200Y-16364400D02*
X60930500Y-16440100D01*
X61765400Y-17123600D02*
X61006200Y-16364400D01*
X67076500Y-17123600D02*
X61765400Y-17123600D01*
X67760000Y-16440100D02*
X67076500Y-17123600D01*
X67760000Y-15500000D02*
X67760000Y-16440100D01*
X34752500Y-76868600D02*
X34167500Y-76283600D01*
X38392700Y-76868600D02*
X34752500Y-76868600D01*
X39823000Y-75438300D02*
X38392700Y-76868600D01*
X40626400Y-75438300D02*
X39823000Y-75438300D01*
X42011000Y-76822900D02*
X40626400Y-75438300D01*
X43059200Y-76822900D02*
X42011000Y-76822900D01*
X44056200Y-77819900D02*
X43059200Y-76822900D01*
X50650900Y-77819900D02*
X44056200Y-77819900D01*
X53802300Y-80971300D02*
X50650900Y-77819900D01*
X53850000Y-80971300D02*
X53802300Y-80971300D01*
X54596200Y-81717500D02*
X53850000Y-80971300D01*
X73944000Y-10045900D02*
X71941900Y-12048000D01*
X73944000Y-8299300D02*
X73944000Y-10045900D01*
X75373100Y-8299300D02*
X73944000Y-8299300D01*
X53943100Y-84600000D02*
X52828400Y-83485300D01*
X62461100Y-84600000D02*
X53943100Y-84600000D01*
X71753500Y-75307600D02*
X62461100Y-84600000D01*
X71753500Y-67068300D02*
X71753500Y-75307600D01*
X65322489Y-72801364D02*
X65746753Y-72801364D01*
X60683936Y-72801364D02*
X65322489Y-72801364D01*
X59899500Y-73585800D02*
X60683936Y-72801364D01*
X64644900Y-14559900D02*
X65238500Y-13966300D01*
X63050000Y-14559900D02*
X64644900Y-14559900D01*
X63050000Y-15500000D02*
X63050000Y-14559900D01*
X64444000Y-13171800D02*
X65238500Y-13966300D01*
X64444000Y-8299300D02*
X64444000Y-13171800D01*
X65873100Y-8299300D02*
X64444000Y-8299300D01*
X64572604Y-72258342D02*
X64996868Y-72258342D01*
X59545900Y-73232200D02*
X60519758Y-72258342D01*
X60519758Y-72258342D02*
X64572604Y-72258342D01*
X47810000Y-14559900D02*
X47810000Y-15500000D01*
X49299500Y-14559900D02*
X47810000Y-14559900D01*
X50886900Y-12972500D02*
X49299500Y-14559900D01*
X50886900Y-12915400D02*
X50886900Y-12972500D01*
X54944000Y-8858300D02*
X50886900Y-12915400D01*
X54944000Y-8299300D02*
X54944000Y-8858300D01*
X56373100Y-8299300D02*
X54944000Y-8299300D01*
X64479800Y-33186600D02*
X70214500Y-33186600D01*
X59855900Y-28562700D02*
X64479800Y-33186600D01*
X51481200Y-28562700D02*
X59855900Y-28562700D01*
X51313200Y-28394700D02*
X51481200Y-28562700D01*
X51313200Y-27208200D02*
X51313200Y-28394700D01*
X52640200Y-25881200D02*
X51313200Y-27208200D01*
X56232500Y-25881200D02*
X52640200Y-25881200D01*
X56370000Y-25743700D02*
X56232500Y-25881200D01*
X56370000Y-24150500D02*
X56370000Y-25743700D01*
X56190400Y-23970900D02*
X56370000Y-24150500D01*
X52068100Y-23970900D02*
X56190400Y-23970900D01*
X48777800Y-20680600D02*
X52068100Y-23970900D01*
X48777800Y-19820200D02*
X48777800Y-20680600D01*
X47810000Y-18852400D02*
X48777800Y-19820200D01*
X47810000Y-15500000D02*
X47810000Y-18852400D01*
X53166600Y-27466000D02*
X55364000Y-27466000D01*
X52819600Y-27813000D02*
X53166600Y-27466000D01*
X52070000Y-27813000D02*
X52819600Y-27813000D01*
X60452000Y-22258600D02*
X60452000Y-19685000D01*
X56199700Y-26510900D02*
X60452000Y-22258600D01*
X55364000Y-26510900D02*
X56199700Y-26510900D01*
X55364000Y-27466000D02*
X55364000Y-26510900D01*
X4420100Y-139700000D02*
X2540000Y-139700000D01*
X5225300Y-140505000D02*
X4420100Y-139700000D01*
X9298600Y-140505000D02*
X5225300Y-140505000D01*
X10130700Y-139673000D02*
X9298600Y-140505000D01*
X10130700Y-139529000D02*
X10130700Y-139673000D01*
X12442900Y-137217000D02*
X10130700Y-139529000D01*
X20103400Y-137217000D02*
X12442900Y-137217000D01*
X38419200Y-118901000D02*
X20103400Y-137217000D01*
X38419200Y-114751000D02*
X38419200Y-118901000D01*
X40823700Y-112347000D02*
X38419200Y-114751000D01*
X42214700Y-112347000D02*
X40823700Y-112347000D01*
X50725400Y-103836000D02*
X42214700Y-112347000D01*
X50725400Y-100861000D02*
X50725400Y-103836000D01*
X46399100Y-96534600D02*
X50725400Y-100861000D01*
X46399100Y-94503000D02*
X46399100Y-96534600D01*
X45858400Y-93962300D02*
X46399100Y-94503000D01*
X45858400Y-86212700D02*
X45858400Y-93962300D01*
X47878700Y-84192400D02*
X45858400Y-86212700D01*
X42720900Y-97840000D02*
X42720900Y-93567100D01*
X38526000Y-102035000D02*
X42720900Y-97840000D01*
X38526000Y-102848000D02*
X38526000Y-102035000D01*
X40108600Y-103554000D02*
X40908000Y-103554000D01*
X39402600Y-102848000D02*
X40108600Y-103554000D01*
X38526000Y-102848000D02*
X39402600Y-102848000D01*
X47449300Y-69483800D02*
X46705000Y-69483800D01*
X49410400Y-67522700D02*
X47449300Y-69483800D01*
X49699200Y-67522700D02*
X49410400Y-67522700D01*
X51767800Y-65454100D02*
X49699200Y-67522700D01*
X45699000Y-74552900D02*
X46705000Y-75558900D01*
X41496600Y-74552900D02*
X45699000Y-74552900D01*
D50*
X17958100Y-77343000D02*
X18339100Y-76962000D01*
X18339100Y-76962000D02*
X19100000Y-76962000D01*
X24106500Y-72600000D02*
X31173000Y-72600000D01*
X31173000Y-72600000D02*
X32259600Y-71513400D01*
X19744500Y-76962000D02*
X24106500Y-72600000D01*
X19100000Y-76962000D02*
X19744500Y-76962000D01*
D49*
X44466400Y-76673300D02*
X49260207Y-76673300D01*
X41409600Y-75356500D02*
X41709599Y-75056501D01*
X41709599Y-75056501D02*
X42214301Y-75056501D01*
X42964000Y-75806200D02*
X43599300Y-75806200D01*
X42214301Y-75056501D02*
X42964000Y-75806200D01*
X49260207Y-76673300D02*
X50132800Y-75800707D01*
X43599300Y-75806200D02*
X44466400Y-76673300D01*
X17958100Y-77343000D02*
X17145000Y-77343000D01*
X49801100Y-68127800D02*
X49660900Y-68127800D01*
X52121300Y-65807600D02*
X49801100Y-68127800D01*
X42536400Y-80342300D02*
X43282500Y-79596200D01*
X42404500Y-80342300D02*
X42536400Y-80342300D01*
X39847500Y-82899300D02*
X42404500Y-80342300D01*
X39847500Y-96020500D02*
X39847500Y-82899300D01*
X35944900Y-99923100D02*
X39847500Y-96020500D01*
X33295700Y-99923100D02*
X35944900Y-99923100D01*
X32349800Y-100869000D02*
X33295700Y-99923100D01*
X31794700Y-100869000D02*
X32349800Y-100869000D01*
X26942200Y-105722000D02*
X31794700Y-100869000D01*
X26219200Y-105722000D02*
X26942200Y-105722000D01*
X11571500Y-120369000D02*
X26219200Y-105722000D01*
X11571500Y-121232000D02*
X11571500Y-120369000D01*
X9470100Y-123334000D02*
X11571500Y-121232000D01*
X9470100Y-127000000D02*
X9470100Y-123334000D01*
X7590000Y-127000000D02*
X9470100Y-127000000D01*
X39440700Y-82730800D02*
X42928900Y-79242600D01*
X39440700Y-95852100D02*
X39440700Y-82730800D01*
X35776400Y-99516400D02*
X39440700Y-95852100D01*
X28683800Y-99516400D02*
X35776400Y-99516400D01*
X10720400Y-117480000D02*
X28683800Y-99516400D01*
X8127800Y-117480000D02*
X10720400Y-117480000D01*
X4896400Y-120711000D02*
X8127800Y-117480000D01*
X4896400Y-123984000D02*
X4896400Y-120711000D01*
X4420100Y-124460000D02*
X4896400Y-123984000D01*
X2540000Y-124460000D02*
X4420100Y-124460000D01*
X78126900Y-12563500D02*
X78126900Y-8698100D01*
X68834000Y-21856400D02*
X78126900Y-12563500D01*
X68834000Y-22606000D02*
X68834000Y-21856400D01*
X81026000Y-14998400D02*
X81026000Y-15748000D01*
X80463800Y-14998400D02*
X81026000Y-14998400D01*
X80276400Y-14811000D02*
X80463800Y-14998400D01*
X80276400Y-13633100D02*
X80276400Y-14811000D01*
X81344300Y-12565200D02*
X80276400Y-13633100D01*
X85179300Y-12565200D02*
X81344300Y-12565200D01*
X86302200Y-11442300D02*
X85179300Y-12565200D01*
X86302200Y-7363700D02*
X86302200Y-11442300D01*
X85641800Y-6703300D02*
X86302200Y-7363700D01*
X81209900Y-6703300D02*
X85641800Y-6703300D01*
X79762200Y-5255600D02*
X81209900Y-6703300D01*
X75373100Y-5255600D02*
X79762200Y-5255600D01*
X75373100Y-5599300D02*
X75373100Y-5255600D01*
X75373100Y-5255600D02*
X75373100Y-2398900D01*
X59890600Y-43553600D02*
X59675100Y-43769100D01*
X64344000Y-43553600D02*
X59890600Y-43553600D01*
X17330100Y-52629900D02*
X14570000Y-55390000D01*
X17330100Y-52500000D02*
X17330100Y-52629900D01*
X18534400Y-52500000D02*
X17330100Y-52500000D01*
X27500000Y-63200000D02*
X27500000Y-52500000D01*
X33050000Y-68750000D02*
X27500000Y-63200000D01*
X58050000Y-64594900D02*
X58050000Y-68750000D01*
X55154600Y-61699500D02*
X58050000Y-64594900D01*
X46978300Y-61699500D02*
X55154600Y-61699500D01*
X46163700Y-60884900D02*
X46978300Y-61699500D01*
X46163700Y-59685600D02*
X46163700Y-60884900D01*
X46838100Y-59011200D02*
X46163700Y-59685600D01*
X56285900Y-59011200D02*
X46838100Y-59011200D01*
X62797100Y-52500000D02*
X56285900Y-59011200D01*
X68420800Y-52500000D02*
X62797100Y-52500000D01*
X84469800Y-68750000D02*
X83050000Y-68750000D01*
X87217200Y-66002600D02*
X84469800Y-68750000D01*
X87217200Y-59327000D02*
X87217200Y-66002600D01*
X81579200Y-53689000D02*
X87217200Y-59327000D01*
X81579200Y-52500000D02*
X81579200Y-53689000D01*
X8050000Y-93833200D02*
X8050000Y-93750000D01*
X11716800Y-97500000D02*
X8050000Y-93833200D01*
X18460400Y-97500000D02*
X11716800Y-97500000D01*
X27937400Y-96311000D02*
X27937400Y-97500000D01*
X30498400Y-93750000D02*
X27937400Y-96311000D01*
X33050000Y-93750000D02*
X30498400Y-93750000D01*
X61800000Y-97500000D02*
X58050000Y-93750000D01*
X68937400Y-97500000D02*
X61800000Y-97500000D01*
X86800000Y-97500000D02*
X83050000Y-93750000D01*
X93937400Y-97500000D02*
X86800000Y-97500000D01*
X5303200Y-121497000D02*
X8050000Y-118750000D01*
X5303200Y-130358000D02*
X5303200Y-121497000D01*
X5744800Y-130799000D02*
X5303200Y-130358000D01*
X9834100Y-130799000D02*
X5744800Y-130799000D01*
X17076100Y-123557000D02*
X9834100Y-130799000D01*
X17076100Y-122500000D02*
X17076100Y-123557000D01*
X18280400Y-122500000D02*
X17076100Y-122500000D01*
X32891700Y-118750000D02*
X33027000Y-118750000D01*
X29141700Y-122500000D02*
X32891700Y-118750000D01*
X27937400Y-122500000D02*
X29141700Y-122500000D01*
X61800000Y-122500000D02*
X58050000Y-118750000D01*
X68937400Y-122500000D02*
X61800000Y-122500000D01*
X86800000Y-122500000D02*
X83050000Y-118750000D01*
X93937400Y-122500000D02*
X86800000Y-122500000D01*
X8050000Y-145221000D02*
X8050000Y-143750000D01*
X6960400Y-146311000D02*
X8050000Y-145221000D01*
X6960400Y-147500000D02*
X6960400Y-146311000D01*
X29300000Y-147500000D02*
X33050000Y-143750000D01*
X27937400Y-147500000D02*
X29300000Y-147500000D01*
X66376400Y-143750000D02*
X58050000Y-143750000D01*
X68937400Y-146311000D02*
X66376400Y-143750000D01*
X68937400Y-147500000D02*
X68937400Y-146311000D01*
X87050000Y-147750000D02*
X83050000Y-143750000D01*
X89210400Y-147750000D02*
X87050000Y-147750000D01*
X13582000Y-48808400D02*
X21851200Y-48808400D01*
X2525400Y-37751800D02*
X13582000Y-48808400D01*
X2525400Y-30975200D02*
X2525400Y-37751800D01*
X3500000Y-30000600D02*
X2525400Y-30975200D01*
X30001000Y-89404000D02*
X26728300Y-86131300D01*
X30001000Y-89549600D02*
X30001000Y-89404000D01*
X31190000Y-89549600D02*
X30001000Y-89549600D01*
X68626900Y-9802000D02*
X68626900Y-8698100D01*
X68805400Y-9802000D02*
X68626900Y-9802000D01*
X72402400Y-13399000D02*
X68805400Y-9802000D01*
X72402400Y-13970000D02*
X72402400Y-13399000D01*
X73152000Y-13970000D02*
X72402400Y-13970000D01*
X53203100Y-84603000D02*
X53203100Y-84902600D01*
X53221100Y-84585000D02*
X53203100Y-84603000D01*
X52474900Y-83838800D02*
X53221100Y-84585000D01*
X70562100Y-148719000D02*
X70562100Y-145883000D01*
X70127800Y-149153000D02*
X70562100Y-148719000D01*
X69846300Y-149153000D02*
X70127800Y-149153000D01*
X69249600Y-149750000D02*
X69846300Y-149153000D01*
X69249600Y-149850000D02*
X69249600Y-149750000D01*
D50*
X25030000Y-26300000D02*
X32837700Y-26300000D01*
X22860000Y-24130000D02*
X25030000Y-26300000D01*
D49*
X22860000Y-24896400D02*
X22860000Y-24130000D01*
D52*
G36*
X15372741Y-24834351D02*
X15367098Y-32131000D01*
X6732914Y-32131000D01*
X6787986Y-28449900D01*
X6778720Y-28400346D01*
X6750905Y-28358300D01*
X6708924Y-28330389D01*
X6661000Y-28321000D01*
X825092Y-28321000D01*
X710000Y-28205908D01*
X710000Y-19430468D01*
X9965511Y-19427121D01*
X15372741Y-24834351D01*
X15372741Y-24834351D01*
G37*
X15372741Y-24834351D02*
X15367098Y-32131000D01*
X6732914Y-32131000D01*
X6787986Y-28449900D01*
X6778720Y-28400346D01*
X6750905Y-28358300D01*
X6708924Y-28330389D01*
X6661000Y-28321000D01*
X825092Y-28321000D01*
X710000Y-28205908D01*
X710000Y-19430468D01*
X9965511Y-19427121D01*
X15372741Y-24834351D01*
M02*
