M48
;DRILL file {KiCad 4.0.4-stable} date 11/21/17 10:24:53
;FORMAT={2:4/ absolute / inch / suppress leading zeros}
FMAT,2
INCH,TZ
T1C0.016
T2C0.020
T3C0.030
T4C0.031
T5C0.032
T6C0.040
T7C0.043
T8C0.083
T9C0.118
T10C0.118
T11C0.126
%
G90
G05
M72
T1
X1726Y-33528
X1939Y-28462
X1969Y-19452
X2224Y-15577
X2620Y-47171
X2929Y-19719
X3083Y-5352
X3158Y-31407
X4318Y-33714
X4374Y-35008
X4545Y-24055
X4623Y-25236
X4724Y-28423
X4768Y-54230
X5090Y-54206
X5106Y-44848
X5182Y-61668
X5229Y-58873
X5353Y-35416
X5353Y-55192
X5368Y-33432
X5372Y-23584
X5383Y-25608
X5564Y-47988
X5572Y-44382
X5598Y-45421
X5829Y-53018
X5996Y-38216
X6228Y-43979
X6373Y-27437
X6398Y-39464
X6873Y-37852
X7144Y-29785
X7303Y-22494
X7436Y-32613
X7720Y-15393
X7755Y-61186
X7815Y-56412
X7884Y-18838
X8045Y-31282
X8178Y-38652
X8615Y-44122
X8663Y-23619
X8663Y-27918
X8737Y-39127
X8841Y-32098
X8877Y-28946
X8878Y-39470
X8882Y-29375
X8921Y-30017
X8971Y-11648
X9090Y-28156
X9090Y-40141
X9244Y-21199
X9613Y-40120
X9614Y-32098
X9787Y-29307
X10084Y-16134
X10111Y-39202
X10283Y-31129
X10558Y-31883
X10707Y-28912
X10795Y-31666
X11241Y-32100
X11293Y-34886
X11436Y-31339
X11504Y-45867
X11640Y-23355
X11771Y-32686
X11827Y-19488
X11853Y-36161
X11855Y-32019
X11876Y-42505
X12024Y-49116
X12224Y-60983
X12249Y-16694
X12448Y-56905
X12507Y-27274
X13139Y-54156
X13157Y-24205
X13158Y-34108
X13381Y-24403
X13396Y-34345
X13416Y-19389
X13500Y-6263
X13632Y-47748
X13754Y-19352
X13877Y-14846
X14086Y-43238
X14155Y-54636
X14244Y-45439
X14289Y-38160
X14290Y-35496
X14659Y-54438
X14801Y-43640
X15125Y-53465
X15140Y-18403
X15141Y-21041
X15144Y-25523
X15236Y-23298
X15355Y-18666
X15379Y-35744
X15450Y-25830
X15684Y-23537
X15937Y-44282
X16064Y-54197
X16096Y-44590
X16447Y-27568
X16563Y-37452
X16604Y-41752
X16682Y-41125
X16691Y-27389
X16848Y-37781
X17039Y-15285
X17039Y-14846
X17129Y-28354
X17221Y-5370
X17333Y-47778
X17409Y-28215
X17437Y-42687
X17474Y-45909
X17599Y-17868
X17607Y-18361
X17615Y-43104
X17658Y-57265
X17726Y-54952
X17767Y-32822
X17791Y-45708
X17865Y-38369
X17879Y-61823
X17943Y-29343
X18023Y-13740
X18052Y-18355
X18055Y-55565
X18112Y-36712
X18211Y-23670
X18211Y-28986
X18229Y-13516
X18257Y-37605
X18378Y-54830
X18435Y-28782
X18491Y-29761
X18633Y-29069
X18654Y-3180
X18894Y-29447
X18986Y-28756
X19081Y-31186
X19104Y-29656
X19267Y-26449
X19268Y-15061
X19286Y-18358
X19292Y-22600
X19293Y-27007
X19374Y-16719
X19408Y-44604
X19408Y-47216
X19421Y-27899
X19439Y-33730
X19632Y-28167
X19657Y-28948
X19680Y-7500
X19724Y-5605
X19729Y-31994
X19733Y-31698
X19763Y-22901
X19831Y-27078
X19858Y-31239
X19904Y-52464
X19941Y-24115
X19941Y-25301
X19941Y-26120
X19961Y-26653
X19996Y-16777
X20178Y-46507
X20186Y-44324
X20215Y-32776
X20223Y-32365
X20234Y-27552
X20269Y-18565
X20277Y-31611
X20300Y-31119
X20357Y-54949
X20358Y-54267
X20369Y-31916
X20387Y-52190
X20437Y-45558
X20466Y-7089
X20503Y-7829
X20659Y-45863
X21030Y-45549
X21087Y-46727
X21098Y-8265
X21137Y-22242
X21249Y-55970
X21377Y-59249
X21390Y-28198
X21554Y-15520
X21598Y-29146
X21654Y-19586
X21694Y-36154
X21728Y-55956
X21786Y-60840
X21800Y-26513
X21890Y-37281
X22191Y-15694
X22239Y-25635
X22262Y-8979
X22262Y-10813
X22288Y-6694
X22384Y-19467
X22484Y-6194
X22495Y-30347
X22961Y-3945
X23014Y-24211
X23110Y-27819
X23360Y-31390
X23377Y-29505
X23443Y-1988
X23782Y-29445
X23938Y-43969
X23938Y-53088
X24000Y-44944
X24004Y-33696
X24007Y-54627
X24063Y-35596
X24263Y-6890
X24312Y-25185
X24353Y-59492
X24485Y-53845
X24790Y-6585
X24797Y-34256
X24891Y-44561
X24939Y-8116
X24968Y-54795
X24968Y-23937
X24972Y-35077
X24977Y-43713
X25094Y-8965
X25106Y-28388
X25317Y-59496
X25484Y-28386
X26993Y-40290
X27004Y-17886
X27056Y-36427
X27056Y-15505
X27310Y-55860
X27340Y-28032
X27491Y-18198
X27510Y-46074
X27512Y-37688
X27800Y-49522
X27934Y-40276
X27940Y-48449
X27978Y-36695
X28108Y-18997
X28140Y-39665
X28190Y-10846
X28221Y-43707
X28230Y-28024
X28234Y-37285
X28284Y-60841
X28388Y-17915
X28396Y-27553
X28422Y-39106
X28565Y-28057
X28569Y-14724
X28670Y-19209
X28675Y-53086
X28804Y-32903
X29198Y-50740
X29548Y-50391
X30036Y-38352
X30566Y-60573
X30708Y-59317
X30793Y-41313
X30938Y-15994
X30963Y-19008
X31207Y-26096
X31284Y-37859
X31284Y-41663
X31425Y-48573
X31848Y-18110
X31909Y-21461
X32189Y-51653
X32385Y-47126
X32851Y-34766
X32917Y-24846
X32941Y-54232
X33089Y-44241
X33122Y-18244
X33294Y-53097
X33451Y-54305
X33501Y-35572
X33752Y-45247
X33781Y-23231
X33834Y-24821
X33840Y-53643
X33854Y-43695
X34034Y-33690
X34040Y-35345
X34881Y-44546
X35257Y-14892
X35749Y-24285
X36509Y-61465
X36733Y-18110
X36733Y-60391
X36888Y-22660
X37586Y-17474
X38362Y-17104
X38841Y-15108
T2
X3169Y-36909
X3169Y-46752
X3169Y-56594
X4094Y-36083
X4094Y-45925
X4094Y-55768
X5039Y-22839
X5736Y-21807
X13003Y-46752
X13012Y-27067
X13012Y-36909
X13012Y-56594
X13928Y-45925
X13937Y-26240
X13937Y-36083
X13937Y-55768
X22854Y-27067
X22854Y-36909
X22854Y-46752
X22854Y-56594
X23780Y-26240
X23780Y-36083
X23780Y-45925
X23780Y-55768
X32697Y-27067
X32697Y-36909
X32697Y-46752
X32697Y-56594
X33622Y-26240
X33622Y-36083
X33622Y-45925
X33622Y-55768
T3
X27500Y-6000
X27500Y-7000
X28500Y-6000
X28500Y-7000
X29500Y-6000
X29500Y-7000
X30500Y-6000
X30500Y-7000
T4
X1378Y-11811
X1378Y-13779
X6693Y-12008
X7693Y-12991
X8693Y-12008
X37992Y-11811
X37992Y-13779
T5
X18735Y-35433
X20635Y-35433
T6
X3150Y-984
X4150Y-984
X5150Y-984
X6150Y-984
X7150Y-984
X8150Y-984
X9000Y-8378
X9000Y-9500
X9150Y-984
X10000Y-9500
X10150Y-984
X11000Y-9500
X11150Y-984
X12000Y-9500
X12150Y-984
X12520Y-11457
X13000Y-9500
X13150Y-984
X13520Y-11457
X14000Y-9500
X14150Y-984
X15150Y-984
X16150Y-984
X17150Y-984
X18150Y-984
T7
X33266Y-6047
X33266Y-11756
X34250Y-6047
X35234Y-6047
X35234Y-11756
T8
X32065Y-9000
X36435Y-9000
T9
X35837Y-1794
X37308Y-3425
T10
X984Y-20669
X984Y-38386
X984Y-58071
X984Y-63583
X4921Y-29528
X4921Y-49213
X9843Y-24606
X9843Y-34449
X9843Y-44291
X9843Y-54134
X14764Y-29528
X14764Y-49213
X18701Y-20669
X18701Y-40354
X20669Y-38386
X20669Y-58071
X24606Y-29528
X24606Y-49213
X29528Y-24606
X29528Y-34449
X29528Y-44291
X29528Y-54134
X34449Y-29528
X34449Y-49213
X38386Y-984
X38386Y-20669
X38386Y-40354
X38386Y-58071
X38386Y-63583
T11
X35827Y-4676
T0
M30
