G04 #@! TF.FileFunction,Copper,L2,Bot,Signal*
%FSLAX46Y46*%
G04 Gerber Fmt 4.6, Leading zero omitted, Abs format (unit mm)*
G04 Created by KiCad (PCBNEW 4.0.4-stable) date 11/21/17 10:24:49*
%MOMM*%
%LPD*%
G01*
G04 APERTURE LIST*
%ADD10C,2.000000*%
%ADD11C,1.879600*%
%ADD12R,1.767840X1.798320*%
%ADD13C,0.497840*%
%ADD14C,1.016000*%
%ADD15C,5.000000*%
%ADD16R,3.000000X1.000000*%
%ADD17C,3.000000*%
%ADD18R,1.879600X1.879600*%
%ADD19C,1.800000*%
%ADD20C,3.116000*%
%ADD21C,1.778000*%
%ADD22R,0.650000X1.060000*%
%ADD23R,1.270000X0.889000*%
%ADD24R,1.143000X1.016000*%
%ADD25R,1.016000X1.143000*%
%ADD26R,0.889000X0.889000*%
%ADD27R,1.016000X1.651000*%
%ADD28R,5.298440X6.197600*%
%ADD29C,1.320800*%
%ADD30C,4.114800*%
%ADD31R,0.698500X1.597660*%
%ADD32R,1.399540X1.597660*%
%ADD33R,1.399540X2.199640*%
%ADD34R,1.798320X1.399540*%
%ADD35R,1.270000X0.635000*%
%ADD36R,1.400000X1.300000*%
%ADD37R,1.000000X3.000000*%
%ADD38R,1.798320X1.767840*%
%ADD39R,1.800000X1.100000*%
%ADD40C,1.270000*%
%ADD41C,1.348740*%
%ADD42R,1.348740X1.348740*%
%ADD43R,3.150000X1.000000*%
%ADD44R,2.247900X1.597660*%
%ADD45R,2.247900X1.498600*%
%ADD46R,0.635000X1.270000*%
%ADD47R,1.651000X3.048000*%
%ADD48C,1.524000*%
%ADD49C,0.600000*%
%ADD50C,0.300000*%
%ADD51C,0.152400*%
%ADD52C,0.254000*%
G04 APERTURE END LIST*
D10*
D11*
X22860000Y-21280000D03*
D12*
X69215000Y-30614620D03*
X69215000Y-26535380D03*
D11*
X35560000Y-24130000D03*
X33020000Y-24130000D03*
X30480000Y-24130000D03*
X27940000Y-24130000D03*
X25400000Y-24130000D03*
X22860000Y-24130000D03*
D13*
X65532000Y-78023720D03*
X65532000Y-78948280D03*
D14*
X12800000Y-58010000D03*
X14570000Y-55390000D03*
D15*
X2500000Y-52500000D03*
D16*
X2540000Y-78740000D03*
X8080000Y-78740000D03*
X2540000Y-76200000D03*
X8080000Y-76200000D03*
X2540000Y-73660000D03*
X8080000Y-73660000D03*
X2540000Y-71120000D03*
X8080000Y-71120000D03*
X2540000Y-68580000D03*
X8080000Y-68580000D03*
D14*
X35400000Y-66650000D03*
X33050000Y-68750000D03*
D17*
X37500000Y-75000000D03*
D18*
X8000000Y-2500000D03*
D11*
X10540000Y-2500000D03*
X13080000Y-2500000D03*
X15620000Y-2500000D03*
X18160000Y-2500000D03*
X20700000Y-2500000D03*
X23240000Y-2500000D03*
X25780000Y-2500000D03*
X28320000Y-2500000D03*
X30860000Y-2500000D03*
X33400000Y-2500000D03*
X35940000Y-2500000D03*
X38480000Y-2500000D03*
X41020000Y-2500000D03*
X43560000Y-2500000D03*
X46100000Y-2500000D03*
D15*
X2500000Y-2500000D03*
D19*
X89495000Y-15360000D03*
X86995000Y-15360000D03*
X84495000Y-15360000D03*
D20*
X92545000Y-22860000D03*
X81445000Y-22860000D03*
D21*
X84495000Y-29860000D03*
X89495000Y-29860000D03*
D22*
X48550000Y-118900000D03*
X49500000Y-118900000D03*
X50450000Y-118900000D03*
X50450000Y-121100000D03*
X48550000Y-121100000D03*
D13*
X11430000Y-15194280D03*
X11430000Y-14269720D03*
X49000020Y-126000000D03*
X49924580Y-126000000D03*
X50462280Y-47500000D03*
X49537720Y-47500000D03*
X50462280Y-134000000D03*
X49537720Y-134000000D03*
X50462280Y-112500000D03*
X49537720Y-112500000D03*
X52500000Y-92875420D03*
X52500000Y-93799980D03*
X47500000Y-92875420D03*
X47500000Y-93799980D03*
X55000020Y-64500000D03*
X55924580Y-64500000D03*
D23*
X11430000Y-12192000D03*
X11430000Y-10414000D03*
D24*
X36494000Y-103737000D03*
X36494000Y-101959000D03*
X38526000Y-102848000D03*
D25*
X18034000Y-79375000D03*
X16256000Y-79375000D03*
X17145000Y-77343000D03*
D24*
X78968000Y-98919000D03*
X78968000Y-97141000D03*
X81000000Y-98030000D03*
X76032000Y-129771000D03*
X76032000Y-131549000D03*
X74000000Y-130660000D03*
X44532000Y-147961000D03*
X44532000Y-149739000D03*
X42500000Y-148850000D03*
X75532000Y-104651000D03*
X75532000Y-106429000D03*
X73500000Y-105540000D03*
D13*
X6395720Y-12192000D03*
X7320280Y-12192000D03*
D26*
X62738000Y-19050000D03*
X64262000Y-19050000D03*
X81026000Y-15748000D03*
X81026000Y-14224000D03*
X68834000Y-22606000D03*
X68834000Y-24130000D03*
X49530000Y-26797000D03*
X49530000Y-25273000D03*
X44450000Y-10668000D03*
X44450000Y-12192000D03*
X50762000Y-93400000D03*
X49238000Y-93400000D03*
X40908000Y-103554000D03*
X42432000Y-103554000D03*
X34208000Y-103610000D03*
X34208000Y-102086000D03*
X19100000Y-76962000D03*
X19100000Y-75438000D03*
X17907000Y-83185000D03*
X16383000Y-83185000D03*
X80500000Y-104738000D03*
X80500000Y-106262000D03*
X77190000Y-98792000D03*
X77190000Y-97268000D03*
X73262000Y-128755000D03*
X71738000Y-128755000D03*
X77810000Y-129898000D03*
X77810000Y-131422000D03*
X45558000Y-142110000D03*
X47082000Y-142110000D03*
X47038000Y-146200000D03*
X48562000Y-146200000D03*
X72762000Y-103635000D03*
X71238000Y-103635000D03*
X77310000Y-104778000D03*
X77310000Y-106302000D03*
X44450000Y-8262000D03*
X44450000Y-6738000D03*
D27*
X6604000Y-17272000D03*
D28*
X8890000Y-24597360D03*
D27*
X11176000Y-17272000D03*
D29*
X52413000Y-90000000D03*
X47587000Y-90000000D03*
D30*
X91000000Y-11877800D03*
X91025400Y-4557000D03*
X94761600Y-8700000D03*
D31*
X60453600Y-149850000D03*
X61553420Y-149850000D03*
X62653240Y-149850000D03*
X63750520Y-149850000D03*
X64850340Y-149850000D03*
X65950160Y-149850000D03*
X67049980Y-149850000D03*
X68149800Y-149850000D03*
X69249620Y-149850000D03*
D32*
X70550100Y-150449440D03*
D33*
X70550100Y-159949040D03*
X54852900Y-159949040D03*
D34*
X55752060Y-150347840D03*
D35*
X17000000Y-74050000D03*
X17000000Y-74950000D03*
D26*
X59182000Y-19050000D03*
X57658000Y-19050000D03*
D36*
X55364000Y-22386000D03*
X55364000Y-24926000D03*
X55364000Y-27466000D03*
X55364000Y-30006000D03*
X64904000Y-22456000D03*
X64904000Y-24996000D03*
X64904000Y-27536000D03*
X64904000Y-30076000D03*
D14*
X60400000Y-66650000D03*
X58050000Y-68750000D03*
X85400000Y-66650000D03*
X83050000Y-68750000D03*
X10400000Y-91650000D03*
X8050000Y-93750000D03*
X35400000Y-91650000D03*
X33050000Y-93750000D03*
X60400000Y-91650000D03*
X58050000Y-93750000D03*
X85400000Y-91650000D03*
X83050000Y-93750000D03*
X10400000Y-116650000D03*
X8050000Y-118750000D03*
X35377000Y-116650000D03*
X33027000Y-118750000D03*
X60400000Y-116650000D03*
X58050000Y-118750000D03*
X85400000Y-116650000D03*
X83050000Y-118750000D03*
X10400000Y-141650000D03*
X8050000Y-143750000D03*
X35400000Y-141650000D03*
X33050000Y-143750000D03*
X60400000Y-141650000D03*
X58050000Y-143750000D03*
X85400000Y-141650000D03*
X83050000Y-143750000D03*
D37*
X2032000Y-11454000D03*
X2032000Y-16994000D03*
D16*
X47230000Y-45540000D03*
X52770000Y-45540000D03*
X47230000Y-43000000D03*
X52770000Y-43000000D03*
X47230000Y-40460000D03*
X52770000Y-40460000D03*
D37*
X12700000Y-64540000D03*
X12700000Y-70080000D03*
D12*
X98000000Y-13960380D03*
X98000000Y-18039620D03*
D38*
X18534380Y-52500000D03*
X22613620Y-52500000D03*
X27499980Y-52500000D03*
X31579220Y-52500000D03*
X68420780Y-52500000D03*
X72500020Y-52500000D03*
X81579220Y-52500000D03*
X77499980Y-52500000D03*
X18460380Y-97500000D03*
X22539620Y-97500000D03*
X27937380Y-97500000D03*
X32016620Y-97500000D03*
X68937380Y-97500000D03*
X73016620Y-97500000D03*
X93937380Y-97500000D03*
X98016620Y-97500000D03*
X18280380Y-122500000D03*
X22359620Y-122500000D03*
X27937380Y-122500000D03*
X32016620Y-122500000D03*
X68937380Y-122500000D03*
X73016620Y-122500000D03*
X93937380Y-122500000D03*
X98016620Y-122500000D03*
X6960380Y-147500000D03*
X11039620Y-147500000D03*
X27937380Y-147500000D03*
X32016620Y-147500000D03*
X68937380Y-147500000D03*
X73016620Y-147500000D03*
X89210380Y-147750000D03*
X93289620Y-147750000D03*
D39*
X38810000Y-14660000D03*
X45010000Y-14660000D03*
X45010000Y-18360000D03*
X38810000Y-18360000D03*
D16*
X8080000Y-106680000D03*
X2540000Y-106680000D03*
X8080000Y-109220000D03*
X2540000Y-109220000D03*
X8080000Y-111760000D03*
X2540000Y-111760000D03*
X8080000Y-114300000D03*
X2540000Y-114300000D03*
D26*
X51054000Y-20066000D03*
X49530000Y-20066000D03*
X51054000Y-18034000D03*
X49530000Y-18034000D03*
D16*
X98250000Y-132080000D03*
X92710000Y-132080000D03*
X98250000Y-134620000D03*
X92710000Y-134620000D03*
X98250000Y-137160000D03*
X92710000Y-137160000D03*
X98250000Y-139700000D03*
X92710000Y-139700000D03*
X39730000Y-28810000D03*
X45270000Y-28810000D03*
X39730000Y-26270000D03*
X45270000Y-26270000D03*
X39730000Y-23730000D03*
X45270000Y-23730000D03*
X39730000Y-21190000D03*
X45270000Y-21190000D03*
D13*
X71999980Y-94000000D03*
X71075420Y-94000000D03*
D12*
X31190000Y-89549620D03*
X31190000Y-85470380D03*
D40*
X3500000Y-30000640D03*
X3500000Y-34999360D03*
X96500000Y-34999360D03*
X96500000Y-30000640D03*
D26*
X52070000Y-27813000D03*
X52070000Y-29337000D03*
D41*
X17000000Y-30499980D03*
X22080000Y-30499980D03*
D42*
X19540000Y-32996800D03*
D43*
X2540000Y-139700000D03*
X7590000Y-139700000D03*
X2540000Y-137160000D03*
X7590000Y-137160000D03*
X2540000Y-134620000D03*
X7590000Y-134620000D03*
X2540000Y-132080000D03*
X7590000Y-132080000D03*
X7590000Y-121920000D03*
X2540000Y-121920000D03*
X7590000Y-124460000D03*
X2540000Y-124460000D03*
X7590000Y-127000000D03*
X2540000Y-127000000D03*
X7590000Y-129540000D03*
X2540000Y-129540000D03*
D44*
X84873120Y-2398900D03*
X84873120Y-5599300D03*
X84873120Y-8299320D03*
X78126880Y-8698100D03*
D45*
X78126880Y-1398140D03*
D44*
X78126880Y-3699380D03*
X78126880Y-6399400D03*
X84873120Y-10498960D03*
X75373120Y-2398900D03*
X75373120Y-5599300D03*
X75373120Y-8299320D03*
X68626880Y-8698100D03*
D45*
X68626880Y-1398140D03*
D44*
X68626880Y-3699380D03*
X68626880Y-6399400D03*
X75373120Y-10498960D03*
X56373120Y-2398900D03*
X56373120Y-5599300D03*
X56373120Y-8299320D03*
X49626880Y-8698100D03*
D45*
X49626880Y-1398140D03*
D44*
X49626880Y-3699380D03*
X49626880Y-6399400D03*
X56373120Y-10498960D03*
X65873120Y-2398900D03*
X65873120Y-5599300D03*
X65873120Y-8299320D03*
X59126880Y-8698100D03*
D45*
X59126880Y-1398140D03*
D44*
X59126880Y-3699380D03*
X59126880Y-6399400D03*
X65873120Y-10498960D03*
D26*
X8262000Y-51500000D03*
X6738000Y-51500000D03*
X22500000Y-56524000D03*
X22500000Y-55000000D03*
X15476000Y-91000000D03*
X17000000Y-91000000D03*
X15476000Y-119000000D03*
X17000000Y-119000000D03*
X15476000Y-149000000D03*
X17000000Y-149000000D03*
X15476000Y-152400000D03*
X17000000Y-152400000D03*
D46*
X60140000Y-15500000D03*
X59240000Y-15500000D03*
X52520000Y-15500000D03*
X51620000Y-15500000D03*
D35*
X54040000Y-18440000D03*
X54040000Y-17540000D03*
D46*
X63950000Y-15500000D03*
X63050000Y-15500000D03*
X67760000Y-15500000D03*
X66860000Y-15500000D03*
X55430000Y-15500000D03*
X56330000Y-15500000D03*
D47*
X17500000Y-12333000D03*
X17500000Y-17667000D03*
D10*
G36*
X51838478Y-64464109D02*
X52050610Y-64676241D01*
X50989950Y-65736901D01*
X50777818Y-65524769D01*
X51838478Y-64464109D01*
X51838478Y-64464109D01*
G37*
G36*
X52192031Y-64817662D02*
X52404163Y-65029794D01*
X51343503Y-66090454D01*
X51131371Y-65878322D01*
X52192031Y-64817662D01*
X52192031Y-64817662D01*
G37*
G36*
X52545584Y-65171216D02*
X52757716Y-65383348D01*
X51697056Y-66444008D01*
X51484924Y-66231876D01*
X52545584Y-65171216D01*
X52545584Y-65171216D01*
G37*
G36*
X52899138Y-65524769D02*
X53111270Y-65736901D01*
X52050610Y-66797561D01*
X51838478Y-66585429D01*
X52899138Y-65524769D01*
X52899138Y-65524769D01*
G37*
G36*
X53252691Y-65878323D02*
X53464823Y-66090455D01*
X52404163Y-67151115D01*
X52192031Y-66938983D01*
X53252691Y-65878323D01*
X53252691Y-65878323D01*
G37*
G36*
X53606245Y-66231876D02*
X53818377Y-66444008D01*
X52757717Y-67504668D01*
X52545585Y-67292536D01*
X53606245Y-66231876D01*
X53606245Y-66231876D01*
G37*
G36*
X53959798Y-66585429D02*
X54171930Y-66797561D01*
X53111270Y-67858221D01*
X52899138Y-67646089D01*
X53959798Y-66585429D01*
X53959798Y-66585429D01*
G37*
G36*
X54313351Y-66938983D02*
X54525483Y-67151115D01*
X53464823Y-68211775D01*
X53252691Y-67999643D01*
X54313351Y-66938983D01*
X54313351Y-66938983D01*
G37*
G36*
X54666905Y-67292536D02*
X54879037Y-67504668D01*
X53818377Y-68565328D01*
X53606245Y-68353196D01*
X54666905Y-67292536D01*
X54666905Y-67292536D01*
G37*
G36*
X55020458Y-67646090D02*
X55232590Y-67858222D01*
X54171930Y-68918882D01*
X53959798Y-68706750D01*
X55020458Y-67646090D01*
X55020458Y-67646090D01*
G37*
G36*
X55374011Y-67999643D02*
X55586143Y-68211775D01*
X54525483Y-69272435D01*
X54313351Y-69060303D01*
X55374011Y-67999643D01*
X55374011Y-67999643D01*
G37*
G36*
X55727565Y-68353196D02*
X55939697Y-68565328D01*
X54879037Y-69625988D01*
X54666905Y-69413856D01*
X55727565Y-68353196D01*
X55727565Y-68353196D01*
G37*
G36*
X56081118Y-68706750D02*
X56293250Y-68918882D01*
X55232590Y-69979542D01*
X55020458Y-69767410D01*
X56081118Y-68706750D01*
X56081118Y-68706750D01*
G37*
G36*
X56434672Y-69060303D02*
X56646804Y-69272435D01*
X55586144Y-70333095D01*
X55374012Y-70120963D01*
X56434672Y-69060303D01*
X56434672Y-69060303D01*
G37*
G36*
X56788225Y-69413857D02*
X57000357Y-69625989D01*
X55939697Y-70686649D01*
X55727565Y-70474517D01*
X56788225Y-69413857D01*
X56788225Y-69413857D01*
G37*
G36*
X57141778Y-69767410D02*
X57353910Y-69979542D01*
X56293250Y-71040202D01*
X56081118Y-70828070D01*
X57141778Y-69767410D01*
X57141778Y-69767410D01*
G37*
G36*
X57495332Y-70120963D02*
X57707464Y-70333095D01*
X56646804Y-71393755D01*
X56434672Y-71181623D01*
X57495332Y-70120963D01*
X57495332Y-70120963D01*
G37*
G36*
X57848885Y-70474517D02*
X58061017Y-70686649D01*
X57000357Y-71747309D01*
X56788225Y-71535177D01*
X57848885Y-70474517D01*
X57848885Y-70474517D01*
G37*
G36*
X58202439Y-70828070D02*
X58414571Y-71040202D01*
X57353911Y-72100862D01*
X57141779Y-71888730D01*
X58202439Y-70828070D01*
X58202439Y-70828070D01*
G37*
G36*
X58555992Y-71181623D02*
X58768124Y-71393755D01*
X57707464Y-72454415D01*
X57495332Y-72242283D01*
X58555992Y-71181623D01*
X58555992Y-71181623D01*
G37*
G36*
X58909545Y-71535177D02*
X59121677Y-71747309D01*
X58061017Y-72807969D01*
X57848885Y-72595837D01*
X58909545Y-71535177D01*
X58909545Y-71535177D01*
G37*
G36*
X59263099Y-71888730D02*
X59475231Y-72100862D01*
X58414571Y-73161522D01*
X58202439Y-72949390D01*
X59263099Y-71888730D01*
X59263099Y-71888730D01*
G37*
G36*
X59616652Y-72242284D02*
X59828784Y-72454416D01*
X58768124Y-73515076D01*
X58555992Y-73302944D01*
X59616652Y-72242284D01*
X59616652Y-72242284D01*
G37*
G36*
X59970206Y-72595837D02*
X60182338Y-72807969D01*
X59121678Y-73868629D01*
X58909546Y-73656497D01*
X59970206Y-72595837D01*
X59970206Y-72595837D01*
G37*
G36*
X60323759Y-72949390D02*
X60535891Y-73161522D01*
X59475231Y-74222182D01*
X59263099Y-74010050D01*
X60323759Y-72949390D01*
X60323759Y-72949390D01*
G37*
G36*
X59475231Y-75777818D02*
X60535891Y-76838478D01*
X60323759Y-77050610D01*
X59263099Y-75989950D01*
X59475231Y-75777818D01*
X59475231Y-75777818D01*
G37*
G36*
X59121678Y-76131371D02*
X60182338Y-77192031D01*
X59970206Y-77404163D01*
X58909546Y-76343503D01*
X59121678Y-76131371D01*
X59121678Y-76131371D01*
G37*
G36*
X58768124Y-76484924D02*
X59828784Y-77545584D01*
X59616652Y-77757716D01*
X58555992Y-76697056D01*
X58768124Y-76484924D01*
X58768124Y-76484924D01*
G37*
G36*
X58414571Y-76838478D02*
X59475231Y-77899138D01*
X59263099Y-78111270D01*
X58202439Y-77050610D01*
X58414571Y-76838478D01*
X58414571Y-76838478D01*
G37*
G36*
X58061017Y-77192031D02*
X59121677Y-78252691D01*
X58909545Y-78464823D01*
X57848885Y-77404163D01*
X58061017Y-77192031D01*
X58061017Y-77192031D01*
G37*
G36*
X57707464Y-77545585D02*
X58768124Y-78606245D01*
X58555992Y-78818377D01*
X57495332Y-77757717D01*
X57707464Y-77545585D01*
X57707464Y-77545585D01*
G37*
G36*
X57353911Y-77899138D02*
X58414571Y-78959798D01*
X58202439Y-79171930D01*
X57141779Y-78111270D01*
X57353911Y-77899138D01*
X57353911Y-77899138D01*
G37*
G36*
X57000357Y-78252691D02*
X58061017Y-79313351D01*
X57848885Y-79525483D01*
X56788225Y-78464823D01*
X57000357Y-78252691D01*
X57000357Y-78252691D01*
G37*
G36*
X56646804Y-78606245D02*
X57707464Y-79666905D01*
X57495332Y-79879037D01*
X56434672Y-78818377D01*
X56646804Y-78606245D01*
X56646804Y-78606245D01*
G37*
G36*
X56293250Y-78959798D02*
X57353910Y-80020458D01*
X57141778Y-80232590D01*
X56081118Y-79171930D01*
X56293250Y-78959798D01*
X56293250Y-78959798D01*
G37*
G36*
X55939697Y-79313351D02*
X57000357Y-80374011D01*
X56788225Y-80586143D01*
X55727565Y-79525483D01*
X55939697Y-79313351D01*
X55939697Y-79313351D01*
G37*
G36*
X55586144Y-79666905D02*
X56646804Y-80727565D01*
X56434672Y-80939697D01*
X55374012Y-79879037D01*
X55586144Y-79666905D01*
X55586144Y-79666905D01*
G37*
G36*
X55232590Y-80020458D02*
X56293250Y-81081118D01*
X56081118Y-81293250D01*
X55020458Y-80232590D01*
X55232590Y-80020458D01*
X55232590Y-80020458D01*
G37*
G36*
X54879037Y-80374012D02*
X55939697Y-81434672D01*
X55727565Y-81646804D01*
X54666905Y-80586144D01*
X54879037Y-80374012D01*
X54879037Y-80374012D01*
G37*
G36*
X54525483Y-80727565D02*
X55586143Y-81788225D01*
X55374011Y-82000357D01*
X54313351Y-80939697D01*
X54525483Y-80727565D01*
X54525483Y-80727565D01*
G37*
G36*
X54171930Y-81081118D02*
X55232590Y-82141778D01*
X55020458Y-82353910D01*
X53959798Y-81293250D01*
X54171930Y-81081118D01*
X54171930Y-81081118D01*
G37*
G36*
X53818377Y-81434672D02*
X54879037Y-82495332D01*
X54666905Y-82707464D01*
X53606245Y-81646804D01*
X53818377Y-81434672D01*
X53818377Y-81434672D01*
G37*
G36*
X53464823Y-81788225D02*
X54525483Y-82848885D01*
X54313351Y-83061017D01*
X53252691Y-82000357D01*
X53464823Y-81788225D01*
X53464823Y-81788225D01*
G37*
G36*
X53111270Y-82141779D02*
X54171930Y-83202439D01*
X53959798Y-83414571D01*
X52899138Y-82353911D01*
X53111270Y-82141779D01*
X53111270Y-82141779D01*
G37*
G36*
X52757717Y-82495332D02*
X53818377Y-83555992D01*
X53606245Y-83768124D01*
X52545585Y-82707464D01*
X52757717Y-82495332D01*
X52757717Y-82495332D01*
G37*
G36*
X52404163Y-82848885D02*
X53464823Y-83909545D01*
X53252691Y-84121677D01*
X52192031Y-83061017D01*
X52404163Y-82848885D01*
X52404163Y-82848885D01*
G37*
G36*
X52050610Y-83202439D02*
X53111270Y-84263099D01*
X52899138Y-84475231D01*
X51838478Y-83414571D01*
X52050610Y-83202439D01*
X52050610Y-83202439D01*
G37*
G36*
X51697056Y-83555992D02*
X52757716Y-84616652D01*
X52545584Y-84828784D01*
X51484924Y-83768124D01*
X51697056Y-83555992D01*
X51697056Y-83555992D01*
G37*
G36*
X51343503Y-83909546D02*
X52404163Y-84970206D01*
X52192031Y-85182338D01*
X51131371Y-84121678D01*
X51343503Y-83909546D01*
X51343503Y-83909546D01*
G37*
G36*
X50989950Y-84263099D02*
X52050610Y-85323759D01*
X51838478Y-85535891D01*
X50777818Y-84475231D01*
X50989950Y-84263099D01*
X50989950Y-84263099D01*
G37*
G36*
X49010050Y-84263099D02*
X49222182Y-84475231D01*
X48161522Y-85535891D01*
X47949390Y-85323759D01*
X49010050Y-84263099D01*
X49010050Y-84263099D01*
G37*
G36*
X48656497Y-83909546D02*
X48868629Y-84121678D01*
X47807969Y-85182338D01*
X47595837Y-84970206D01*
X48656497Y-83909546D01*
X48656497Y-83909546D01*
G37*
G36*
X48302944Y-83555992D02*
X48515076Y-83768124D01*
X47454416Y-84828784D01*
X47242284Y-84616652D01*
X48302944Y-83555992D01*
X48302944Y-83555992D01*
G37*
G36*
X47949390Y-83202439D02*
X48161522Y-83414571D01*
X47100862Y-84475231D01*
X46888730Y-84263099D01*
X47949390Y-83202439D01*
X47949390Y-83202439D01*
G37*
G36*
X47595837Y-82848885D02*
X47807969Y-83061017D01*
X46747309Y-84121677D01*
X46535177Y-83909545D01*
X47595837Y-82848885D01*
X47595837Y-82848885D01*
G37*
G36*
X47242283Y-82495332D02*
X47454415Y-82707464D01*
X46393755Y-83768124D01*
X46181623Y-83555992D01*
X47242283Y-82495332D01*
X47242283Y-82495332D01*
G37*
G36*
X46888730Y-82141779D02*
X47100862Y-82353911D01*
X46040202Y-83414571D01*
X45828070Y-83202439D01*
X46888730Y-82141779D01*
X46888730Y-82141779D01*
G37*
G36*
X46535177Y-81788225D02*
X46747309Y-82000357D01*
X45686649Y-83061017D01*
X45474517Y-82848885D01*
X46535177Y-81788225D01*
X46535177Y-81788225D01*
G37*
G36*
X46181623Y-81434672D02*
X46393755Y-81646804D01*
X45333095Y-82707464D01*
X45120963Y-82495332D01*
X46181623Y-81434672D01*
X46181623Y-81434672D01*
G37*
G36*
X45828070Y-81081118D02*
X46040202Y-81293250D01*
X44979542Y-82353910D01*
X44767410Y-82141778D01*
X45828070Y-81081118D01*
X45828070Y-81081118D01*
G37*
G36*
X45474517Y-80727565D02*
X45686649Y-80939697D01*
X44625989Y-82000357D01*
X44413857Y-81788225D01*
X45474517Y-80727565D01*
X45474517Y-80727565D01*
G37*
G36*
X45120963Y-80374012D02*
X45333095Y-80586144D01*
X44272435Y-81646804D01*
X44060303Y-81434672D01*
X45120963Y-80374012D01*
X45120963Y-80374012D01*
G37*
G36*
X44767410Y-80020458D02*
X44979542Y-80232590D01*
X43918882Y-81293250D01*
X43706750Y-81081118D01*
X44767410Y-80020458D01*
X44767410Y-80020458D01*
G37*
G36*
X44413856Y-79666905D02*
X44625988Y-79879037D01*
X43565328Y-80939697D01*
X43353196Y-80727565D01*
X44413856Y-79666905D01*
X44413856Y-79666905D01*
G37*
G36*
X44060303Y-79313351D02*
X44272435Y-79525483D01*
X43211775Y-80586143D01*
X42999643Y-80374011D01*
X44060303Y-79313351D01*
X44060303Y-79313351D01*
G37*
G36*
X43706750Y-78959798D02*
X43918882Y-79171930D01*
X42858222Y-80232590D01*
X42646090Y-80020458D01*
X43706750Y-78959798D01*
X43706750Y-78959798D01*
G37*
G36*
X43353196Y-78606245D02*
X43565328Y-78818377D01*
X42504668Y-79879037D01*
X42292536Y-79666905D01*
X43353196Y-78606245D01*
X43353196Y-78606245D01*
G37*
G36*
X42999643Y-78252691D02*
X43211775Y-78464823D01*
X42151115Y-79525483D01*
X41938983Y-79313351D01*
X42999643Y-78252691D01*
X42999643Y-78252691D01*
G37*
G36*
X42646089Y-77899138D02*
X42858221Y-78111270D01*
X41797561Y-79171930D01*
X41585429Y-78959798D01*
X42646089Y-77899138D01*
X42646089Y-77899138D01*
G37*
G36*
X42292536Y-77545585D02*
X42504668Y-77757717D01*
X41444008Y-78818377D01*
X41231876Y-78606245D01*
X42292536Y-77545585D01*
X42292536Y-77545585D01*
G37*
G36*
X41938983Y-77192031D02*
X42151115Y-77404163D01*
X41090455Y-78464823D01*
X40878323Y-78252691D01*
X41938983Y-77192031D01*
X41938983Y-77192031D01*
G37*
G36*
X41585429Y-76838478D02*
X41797561Y-77050610D01*
X40736901Y-78111270D01*
X40524769Y-77899138D01*
X41585429Y-76838478D01*
X41585429Y-76838478D01*
G37*
G36*
X41231876Y-76484924D02*
X41444008Y-76697056D01*
X40383348Y-77757716D01*
X40171216Y-77545584D01*
X41231876Y-76484924D01*
X41231876Y-76484924D01*
G37*
G36*
X40878322Y-76131371D02*
X41090454Y-76343503D01*
X40029794Y-77404163D01*
X39817662Y-77192031D01*
X40878322Y-76131371D01*
X40878322Y-76131371D01*
G37*
G36*
X40524769Y-75777818D02*
X40736901Y-75989950D01*
X39676241Y-77050610D01*
X39464109Y-76838478D01*
X40524769Y-75777818D01*
X40524769Y-75777818D01*
G37*
G36*
X39676241Y-72949390D02*
X40736901Y-74010050D01*
X40524769Y-74222182D01*
X39464109Y-73161522D01*
X39676241Y-72949390D01*
X39676241Y-72949390D01*
G37*
G36*
X40029794Y-72595837D02*
X41090454Y-73656497D01*
X40878322Y-73868629D01*
X39817662Y-72807969D01*
X40029794Y-72595837D01*
X40029794Y-72595837D01*
G37*
G36*
X40383348Y-72242284D02*
X41444008Y-73302944D01*
X41231876Y-73515076D01*
X40171216Y-72454416D01*
X40383348Y-72242284D01*
X40383348Y-72242284D01*
G37*
G36*
X40736901Y-71888730D02*
X41797561Y-72949390D01*
X41585429Y-73161522D01*
X40524769Y-72100862D01*
X40736901Y-71888730D01*
X40736901Y-71888730D01*
G37*
G36*
X41090455Y-71535177D02*
X42151115Y-72595837D01*
X41938983Y-72807969D01*
X40878323Y-71747309D01*
X41090455Y-71535177D01*
X41090455Y-71535177D01*
G37*
G36*
X41444008Y-71181623D02*
X42504668Y-72242283D01*
X42292536Y-72454415D01*
X41231876Y-71393755D01*
X41444008Y-71181623D01*
X41444008Y-71181623D01*
G37*
G36*
X41797561Y-70828070D02*
X42858221Y-71888730D01*
X42646089Y-72100862D01*
X41585429Y-71040202D01*
X41797561Y-70828070D01*
X41797561Y-70828070D01*
G37*
G36*
X42151115Y-70474517D02*
X43211775Y-71535177D01*
X42999643Y-71747309D01*
X41938983Y-70686649D01*
X42151115Y-70474517D01*
X42151115Y-70474517D01*
G37*
G36*
X42504668Y-70120963D02*
X43565328Y-71181623D01*
X43353196Y-71393755D01*
X42292536Y-70333095D01*
X42504668Y-70120963D01*
X42504668Y-70120963D01*
G37*
G36*
X42858222Y-69767410D02*
X43918882Y-70828070D01*
X43706750Y-71040202D01*
X42646090Y-69979542D01*
X42858222Y-69767410D01*
X42858222Y-69767410D01*
G37*
G36*
X43211775Y-69413857D02*
X44272435Y-70474517D01*
X44060303Y-70686649D01*
X42999643Y-69625989D01*
X43211775Y-69413857D01*
X43211775Y-69413857D01*
G37*
G36*
X43565328Y-69060303D02*
X44625988Y-70120963D01*
X44413856Y-70333095D01*
X43353196Y-69272435D01*
X43565328Y-69060303D01*
X43565328Y-69060303D01*
G37*
G36*
X43918882Y-68706750D02*
X44979542Y-69767410D01*
X44767410Y-69979542D01*
X43706750Y-68918882D01*
X43918882Y-68706750D01*
X43918882Y-68706750D01*
G37*
G36*
X44272435Y-68353196D02*
X45333095Y-69413856D01*
X45120963Y-69625988D01*
X44060303Y-68565328D01*
X44272435Y-68353196D01*
X44272435Y-68353196D01*
G37*
G36*
X44625989Y-67999643D02*
X45686649Y-69060303D01*
X45474517Y-69272435D01*
X44413857Y-68211775D01*
X44625989Y-67999643D01*
X44625989Y-67999643D01*
G37*
G36*
X44979542Y-67646090D02*
X46040202Y-68706750D01*
X45828070Y-68918882D01*
X44767410Y-67858222D01*
X44979542Y-67646090D01*
X44979542Y-67646090D01*
G37*
G36*
X45333095Y-67292536D02*
X46393755Y-68353196D01*
X46181623Y-68565328D01*
X45120963Y-67504668D01*
X45333095Y-67292536D01*
X45333095Y-67292536D01*
G37*
G36*
X45686649Y-66938983D02*
X46747309Y-67999643D01*
X46535177Y-68211775D01*
X45474517Y-67151115D01*
X45686649Y-66938983D01*
X45686649Y-66938983D01*
G37*
G36*
X46040202Y-66585429D02*
X47100862Y-67646089D01*
X46888730Y-67858221D01*
X45828070Y-66797561D01*
X46040202Y-66585429D01*
X46040202Y-66585429D01*
G37*
G36*
X46393755Y-66231876D02*
X47454415Y-67292536D01*
X47242283Y-67504668D01*
X46181623Y-66444008D01*
X46393755Y-66231876D01*
X46393755Y-66231876D01*
G37*
G36*
X46747309Y-65878323D02*
X47807969Y-66938983D01*
X47595837Y-67151115D01*
X46535177Y-66090455D01*
X46747309Y-65878323D01*
X46747309Y-65878323D01*
G37*
G36*
X47100862Y-65524769D02*
X48161522Y-66585429D01*
X47949390Y-66797561D01*
X46888730Y-65736901D01*
X47100862Y-65524769D01*
X47100862Y-65524769D01*
G37*
G36*
X47454416Y-65171216D02*
X48515076Y-66231876D01*
X48302944Y-66444008D01*
X47242284Y-65383348D01*
X47454416Y-65171216D01*
X47454416Y-65171216D01*
G37*
G36*
X47807969Y-64817662D02*
X48868629Y-65878322D01*
X48656497Y-66090454D01*
X47595837Y-65029794D01*
X47807969Y-64817662D01*
X47807969Y-64817662D01*
G37*
G36*
X48161522Y-64464109D02*
X49222182Y-65524769D01*
X49010050Y-65736901D01*
X47949390Y-64676241D01*
X48161522Y-64464109D01*
X48161522Y-64464109D01*
G37*
D17*
X75000000Y-137500000D03*
X12500000Y-75000000D03*
X87500000Y-75000000D03*
X25000000Y-62500000D03*
X62500000Y-75000000D03*
X25000000Y-87500000D03*
X25000000Y-137500000D03*
X37500000Y-125000000D03*
X75000000Y-62500000D03*
X25000000Y-112500000D03*
X12500000Y-125000000D03*
X75000000Y-87500000D03*
D15*
X47500000Y-52500000D03*
X97500000Y-52500000D03*
X52500000Y-97500000D03*
X47500000Y-102500000D03*
X97500000Y-2500000D03*
X97500000Y-102500000D03*
X2500000Y-97500000D03*
X2500000Y-147500000D03*
X97500000Y-147500000D03*
D17*
X97500000Y-161500000D03*
X87500000Y-125000000D03*
X2500000Y-161500000D03*
X75000000Y-112500000D03*
X62500000Y-125000000D03*
D13*
X32837720Y-26300000D03*
X33762280Y-26300000D03*
D15*
X52500000Y-147500000D03*
D11*
X34340000Y-29100000D03*
X31800000Y-29100000D03*
D48*
X69850000Y-15240000D03*
X69850000Y-17780000D03*
X72390000Y-15240000D03*
X72390000Y-17780000D03*
X74930000Y-15240000D03*
X74930000Y-17780000D03*
X77470000Y-15240000D03*
X77470000Y-17780000D03*
D49*
X7831482Y-13594255D03*
X84565634Y-134867266D03*
X33422566Y-86633934D03*
X50100158Y-14235658D03*
X71713700Y-94704200D03*
X42372900Y-104458100D03*
X93302400Y-46000000D03*
X85802700Y-59007600D03*
X33419500Y-61480500D03*
X22003300Y-59991600D03*
X44743100Y-109483400D03*
X60971300Y-85588500D03*
X19851200Y-143286700D03*
X51251300Y-118128500D03*
X51984800Y-18006400D03*
X68590000Y-45430800D03*
X12927500Y-137682500D03*
X50557000Y-133257800D03*
X51272300Y-112582100D03*
X50650800Y-61252100D03*
X58454800Y-61497200D03*
X72834900Y-134839000D03*
X85988800Y-110986100D03*
X79460800Y-96162100D03*
X79460800Y-105823400D03*
X33373000Y-137555900D03*
X85093000Y-90353600D03*
X35779700Y-109825100D03*
X14152700Y-112730800D03*
X50650800Y-64265500D03*
X18145300Y-75653200D03*
X18886900Y-82835900D03*
X71064400Y-93206100D03*
X10968600Y-85634100D03*
X77998200Y-150665200D03*
X93302400Y-153394000D03*
X63738900Y-22770800D03*
X57138100Y-77082200D03*
X44851200Y-145453800D03*
X60802700Y-134843600D03*
X55372900Y-67342100D03*
X70951300Y-102301900D03*
X60802700Y-111680300D03*
X52077900Y-19886400D03*
X59334800Y-79730200D03*
X51781900Y-132563500D03*
X51482000Y-47155400D03*
X22003300Y-70911400D03*
X45851200Y-46621900D03*
X37233400Y-138273500D03*
X11543600Y-61100200D03*
X58322100Y-10020000D03*
X80894200Y-46000000D03*
X84129400Y-46339000D03*
X56488219Y-65113567D03*
X34290000Y-15907590D03*
X13597300Y-140186500D03*
X13597300Y-89957500D03*
X36296900Y-90158600D03*
X50790400Y-42614700D03*
X86461900Y-89777000D03*
X88597300Y-113146200D03*
X11742600Y-64099200D03*
X36179700Y-115416100D03*
X14220100Y-115369800D03*
X19697400Y-155413700D03*
X40802700Y-137659200D03*
X63223900Y-113184900D03*
X40884900Y-113258100D03*
X7439400Y-50087000D03*
X54297700Y-150493400D03*
X39243800Y-65607100D03*
X23478900Y-53846000D03*
X93695400Y-57555300D03*
X90802700Y-61683500D03*
X49296600Y-113294300D03*
X49296600Y-119928100D03*
X63429300Y-89095300D03*
X63418100Y-139179200D03*
X84965900Y-137934600D03*
X53972700Y-142163200D03*
X78215300Y-104936100D03*
X75051100Y-127992400D03*
X64305100Y-151120900D03*
X76291800Y-97413300D03*
X56365700Y-39862400D03*
X78582100Y-40624500D03*
X43278800Y-38824300D03*
X54746800Y-39421900D03*
X31112800Y-42402200D03*
X5648000Y-39565800D03*
X39002300Y-47411000D03*
X55000000Y-49747400D03*
X5000000Y-49406900D03*
X78645400Y-48281400D03*
X30039900Y-49500600D03*
X29898100Y-83022700D03*
X95469200Y-44384400D03*
X48938000Y-67180000D03*
X49002500Y-57404500D03*
X41776000Y-70022600D03*
X46004700Y-93248800D03*
X71476200Y-100749300D03*
X72192400Y-99329200D03*
X36293000Y-96926200D03*
X42396000Y-69567800D03*
X45189000Y-116098600D03*
X34626100Y-121279500D03*
X44219900Y-71667100D03*
X45024300Y-139578400D03*
X55337500Y-154533400D03*
X13280500Y-149537900D03*
X77637300Y-153854500D03*
X43506600Y-72018500D03*
X27196000Y-73437200D03*
X48224000Y-73041500D03*
X46825000Y-73106900D03*
X47327100Y-73835800D03*
X47990400Y-74795400D03*
X48525200Y-75325300D03*
X50702061Y-67698461D03*
X53416200Y-115694800D03*
X49865500Y-71543500D03*
X48987200Y-46630400D03*
X45859800Y-141134800D03*
X72105900Y-45504400D03*
X72126300Y-69984600D03*
X69444800Y-71201500D03*
X71394000Y-48252200D03*
X74163800Y-128880100D03*
X73161400Y-83574200D03*
X79820200Y-123375600D03*
X70967400Y-123061100D03*
X59376600Y-74942300D03*
X51563133Y-79041167D03*
X53588600Y-20992200D03*
X50122400Y-80512000D03*
X49987600Y-19050000D03*
X51736400Y-81065700D03*
X53688800Y-56493900D03*
X55601300Y-94692500D03*
X70613100Y-125785700D03*
X49374000Y-85675100D03*
X52473500Y-116491900D03*
X58699000Y-70660300D03*
X69879800Y-95727300D03*
X50440300Y-79346400D03*
X57110100Y-15733700D03*
X26818200Y-80982800D03*
X21883200Y-112069300D03*
X27418200Y-80430900D03*
X24417900Y-101905300D03*
X48466370Y-79212013D03*
X51909800Y-115717000D03*
X29047100Y-79601100D03*
X25682200Y-99572400D03*
X24419800Y-81529700D03*
X23087500Y-101959000D03*
X22455800Y-81528000D03*
X22191500Y-99381600D03*
X26119200Y-79067900D03*
X22549500Y-100254700D03*
X20435100Y-79455400D03*
X15231000Y-97067900D03*
X24857800Y-74439000D03*
X20771400Y-98177300D03*
X22658100Y-76242800D03*
X17457400Y-96143200D03*
X22559800Y-74612100D03*
X16250400Y-100238500D03*
X22546900Y-73522600D03*
X6656000Y-119814800D03*
X43741500Y-13639900D03*
X56855400Y-49446500D03*
X54859400Y-74031500D03*
X56611600Y-17002500D03*
X50111900Y-81264800D03*
X53560600Y-118686100D03*
X16188300Y-69689600D03*
X11998800Y-72195400D03*
X8020500Y-79772600D03*
X4925800Y-72294000D03*
X61857700Y-151110000D03*
X71681100Y-111016800D03*
X46301300Y-34331500D03*
X46965900Y-75593200D03*
X81759350Y-131198850D03*
X79266700Y-66284300D03*
X82258400Y-119699000D03*
X92733700Y-156121700D03*
X18549500Y-57134100D03*
X13162000Y-156636200D03*
X4385300Y-85160100D03*
X38698400Y-59177600D03*
X33988400Y-61982400D03*
X29221000Y-116501200D03*
X30107400Y-91849000D03*
X49330200Y-70862300D03*
X31049600Y-154895700D03*
X31616900Y-144538500D03*
X31767900Y-69275400D03*
X54330400Y-71622200D03*
X69366400Y-141884800D03*
X69875000Y-117027600D03*
X55103500Y-91831900D03*
X48941200Y-38254500D03*
X43279900Y-37709900D03*
X35247100Y-37709900D03*
X19609100Y-39099300D03*
X72566400Y-37400000D03*
X45777400Y-34899800D03*
X98656000Y-38373400D03*
X68723000Y-39383400D03*
X22786000Y-29586800D03*
X89551900Y-37826800D03*
X49209500Y-42465000D03*
X44700400Y-45384100D03*
X34076100Y-49247100D03*
X20024800Y-47847400D03*
X72822600Y-48790900D03*
X44723000Y-46638000D03*
X97440100Y-43444500D03*
X69826600Y-46222600D03*
X13645600Y-59903900D03*
X29565100Y-59322400D03*
X38457900Y-53444800D03*
X81049600Y-54511300D03*
X38465000Y-64827700D03*
X13673400Y-65043400D03*
X63418200Y-60800000D03*
X39836100Y-59784400D03*
X85938900Y-63046500D03*
X61752800Y-63969200D03*
X13634600Y-84916100D03*
X46255500Y-73624500D03*
X46255500Y-60121000D03*
X83608800Y-63108800D03*
X34024916Y-87236284D03*
X11110600Y-88921500D03*
X61119800Y-90413800D03*
X46373400Y-95517900D03*
X42070900Y-95128700D03*
X39062800Y-90789700D03*
X86446000Y-85572900D03*
X62984000Y-87010500D03*
X15818100Y-111705500D03*
X42173700Y-106049500D03*
X44290100Y-108425500D03*
X68561400Y-102335800D03*
X68722500Y-92524500D03*
X83441200Y-88306800D03*
X37594700Y-110844500D03*
X12969100Y-113914300D03*
X63440900Y-111030200D03*
X40480500Y-112476300D03*
X84045500Y-112370900D03*
X60959000Y-114157500D03*
X14806700Y-134666700D03*
X85728900Y-114927700D03*
X38418600Y-135800000D03*
X12109500Y-137745300D03*
X46679400Y-139267300D03*
X62191100Y-136765200D03*
X51709900Y-137839200D03*
X35954500Y-138774400D03*
X85952403Y-136254035D03*
X60976700Y-138752200D03*
X83671100Y-137749200D03*
X51706500Y-139570900D03*
X71841000Y-154537100D03*
X45413200Y-157029800D03*
X72555800Y-71264800D03*
X45376265Y-97456300D03*
X44024862Y-121356945D03*
X45127566Y-83367566D03*
X30163900Y-107962400D03*
X51503300Y-80292800D03*
X63344000Y-20613400D03*
X30540200Y-124755400D03*
X44384500Y-116610000D03*
X42794700Y-95965000D03*
X71703600Y-71181300D03*
X60405500Y-74791400D03*
X51394200Y-69982710D03*
X59546400Y-5049400D03*
X49004400Y-68598400D03*
X47382300Y-8078200D03*
X45575800Y-74531400D03*
X34934800Y-49154400D03*
X25614100Y-40980200D03*
X51366200Y-82206200D03*
X64729400Y-72100400D03*
X62966100Y-16724700D03*
X63769400Y-72104500D03*
X61627800Y-17500600D03*
X56544900Y-27466000D03*
X56544900Y-22806100D03*
X38455200Y-46742800D03*
X50198100Y-58168400D03*
X50650800Y-66344700D03*
X30112300Y-81327100D03*
X50370200Y-68777890D03*
X23087400Y-71517300D03*
X49928000Y-73526900D03*
X28551300Y-81534200D03*
X14133500Y-121890500D03*
X28684500Y-88610200D03*
X51347100Y-83251400D03*
X55189100Y-142129500D03*
X71602700Y-27547700D03*
D50*
X6395720Y-12192000D02*
X6429227Y-12192000D01*
X6429227Y-12192000D02*
X7831482Y-13594255D01*
X7531483Y-13894254D02*
X7831482Y-13594255D01*
X4431737Y-16994000D02*
X7531483Y-13894254D01*
X2032000Y-16994000D02*
X4431737Y-16994000D01*
X47291700Y-138967600D02*
X46597600Y-138273500D01*
X47082000Y-141362800D02*
X47291700Y-141153100D01*
X47082000Y-142110000D02*
X47082000Y-141362800D01*
X47291700Y-141153100D02*
X47291700Y-138967600D01*
X84537368Y-134839000D02*
X84565634Y-134867266D01*
X72834900Y-134839000D02*
X84537368Y-134839000D01*
X28485700Y-86673800D02*
X32958436Y-86673800D01*
X32958436Y-86673800D02*
X32998302Y-86633934D01*
X18886900Y-84540600D02*
X26352500Y-84540600D01*
X32998302Y-86633934D02*
X33422566Y-86633934D01*
X26352500Y-84540600D02*
X28485700Y-86673800D01*
X45633300Y-9768800D02*
X47644155Y-11779655D01*
X47644155Y-11779655D02*
X50100158Y-14235658D01*
X49626880Y-8698100D02*
X49626880Y-9796930D01*
X49626880Y-9796930D02*
X47644155Y-11779655D01*
X59126880Y-8698100D02*
X59126880Y-9215220D01*
X59126880Y-9215220D02*
X58322100Y-10020000D01*
X30480000Y-24130000D02*
X28569799Y-22219799D01*
X28569799Y-22219799D02*
X23799799Y-22219799D01*
X23799799Y-22219799D02*
X22860000Y-21280000D01*
X45633300Y-8698100D02*
X45633300Y-9768800D01*
X44450000Y-10668000D02*
X45197200Y-10668000D01*
X42432000Y-103554000D02*
X42432000Y-104399000D01*
X55364000Y-22386000D02*
X55364000Y-21433300D01*
X57658000Y-19050000D02*
X57658000Y-19797200D01*
X44450000Y-8262000D02*
X45197200Y-8262000D01*
X45633300Y-10231900D02*
X45633300Y-8698100D01*
X45197200Y-10668000D02*
X45633300Y-10231900D01*
X45633300Y-8698100D02*
X45197200Y-8262000D01*
X16862300Y-30637700D02*
X17000000Y-30500000D01*
X13599700Y-30637700D02*
X16862300Y-30637700D01*
X50450000Y-118900000D02*
X50450000Y-118067300D01*
X50450000Y-118067300D02*
X48550000Y-118067300D01*
X48550000Y-118900000D02*
X48550000Y-118067300D01*
X51054000Y-20066000D02*
X51898300Y-20066000D01*
X57000100Y-19797200D02*
X55364000Y-21433300D01*
X57658000Y-19797200D02*
X57000100Y-19797200D01*
X51054000Y-18034000D02*
X51957200Y-18034000D01*
X51957200Y-18034000D02*
X51984800Y-18006400D01*
X52770000Y-45540000D02*
X50967300Y-45540000D01*
X57658000Y-19050000D02*
X58405200Y-19050000D01*
X62738000Y-19050000D02*
X61744700Y-19050000D01*
X71738000Y-128755000D02*
X70990800Y-128755000D01*
X50544400Y-112582100D02*
X50462300Y-112500000D01*
X51272300Y-112582100D02*
X50544400Y-112582100D01*
X72000000Y-94000000D02*
X72000000Y-94417900D01*
X72000000Y-94417900D02*
X71713700Y-94704200D01*
X81264700Y-106262000D02*
X85988800Y-110986100D01*
X80500000Y-106262000D02*
X81264700Y-106262000D01*
X79752800Y-106115400D02*
X79460800Y-105823400D01*
X79752800Y-106262000D02*
X79752800Y-106115400D01*
X80500000Y-106262000D02*
X79752800Y-106262000D01*
X28018600Y-142910300D02*
X19851200Y-142910300D01*
X33373000Y-137555900D02*
X28018600Y-142910300D01*
X19851200Y-143286700D02*
X19851200Y-142910300D01*
X2032000Y-20865400D02*
X2032000Y-16994000D01*
X51190100Y-118067300D02*
X51251300Y-118128500D01*
X50450000Y-118067300D02*
X51190100Y-118067300D01*
X84789200Y-90353600D02*
X85093000Y-90353600D01*
X79220800Y-95922000D02*
X84789200Y-90353600D01*
X77716600Y-94417900D02*
X79220800Y-95922000D01*
X72000000Y-94417900D02*
X77716600Y-94417900D01*
X79220800Y-95922000D02*
X79460800Y-96162100D01*
X14623400Y-137682500D02*
X12927500Y-137682500D01*
X19851200Y-142910300D02*
X14623400Y-137682500D01*
X42432000Y-104399000D02*
X42372900Y-104458100D01*
X37005900Y-109825100D02*
X35779700Y-109825100D01*
X42372900Y-104458100D02*
X37005900Y-109825100D01*
X48585800Y-65100500D02*
X49330200Y-65844900D01*
X19100000Y-75438000D02*
X18352800Y-75438000D01*
X17000000Y-74950000D02*
X17937700Y-74950000D01*
X18352800Y-75445700D02*
X18352800Y-75438000D01*
X18145300Y-75653200D02*
X18352800Y-75445700D01*
X18886900Y-82835900D02*
X18886900Y-84540600D01*
X90573600Y-150665200D02*
X93302400Y-153394000D01*
X77998200Y-150665200D02*
X90573600Y-150665200D01*
X17793400Y-85634100D02*
X10968600Y-85634100D01*
X18886900Y-84540600D02*
X17793400Y-85634100D01*
X60997500Y-18302800D02*
X61744700Y-19050000D01*
X58592000Y-18302800D02*
X60997500Y-18302800D01*
X58405200Y-18489600D02*
X58592000Y-18302800D01*
X58405200Y-19050000D02*
X58405200Y-18489600D01*
X62738000Y-21769900D02*
X63738900Y-22770800D01*
X62738000Y-19050000D02*
X62738000Y-21769900D01*
X47445700Y-109483400D02*
X44743100Y-109483400D01*
X50462300Y-112500000D02*
X47445700Y-109483400D01*
X16846000Y-109825100D02*
X35779700Y-109825100D01*
X14152700Y-112518400D02*
X16846000Y-109825100D01*
X14152700Y-112730800D02*
X14152700Y-112518400D01*
X57138100Y-77188400D02*
X58131700Y-78182000D01*
X57138100Y-77082200D02*
X57138100Y-77188400D01*
X58209700Y-61252100D02*
X50650800Y-61252100D01*
X58454800Y-61497200D02*
X58209700Y-61252100D01*
X70990800Y-128755000D02*
X70990800Y-134822800D01*
X71007000Y-134839000D02*
X72834900Y-134839000D01*
X70990800Y-134822800D02*
X71007000Y-134839000D01*
X60823500Y-134822800D02*
X60802700Y-134843600D01*
X70990800Y-134822800D02*
X60823500Y-134822800D01*
X54596200Y-68282500D02*
X55372900Y-67505800D01*
X55372900Y-67505800D02*
X55372900Y-67342100D01*
X50650800Y-64524300D02*
X50650800Y-64265500D01*
X49330200Y-65844900D02*
X50650800Y-64524300D01*
X52131900Y-64101100D02*
X55372900Y-67342100D01*
X50815200Y-64101100D02*
X52131900Y-64101100D01*
X50650800Y-64265500D02*
X50815200Y-64101100D01*
X52174100Y-111680300D02*
X60802700Y-111680300D01*
X51272300Y-112582100D02*
X52174100Y-111680300D01*
X71238000Y-103261400D02*
X71238000Y-102588600D01*
X71238000Y-103261400D02*
X71238000Y-103635000D01*
X63939900Y-111680300D02*
X60802700Y-111680300D01*
X71238000Y-104382200D02*
X63939900Y-111680300D01*
X71238000Y-103635000D02*
X71238000Y-104382200D01*
X51898300Y-20066000D02*
X52077900Y-19886400D01*
X71238000Y-102588600D02*
X70951300Y-102301900D01*
X58522600Y-132563500D02*
X51781900Y-132563500D01*
X60802700Y-134843600D02*
X58522600Y-132563500D01*
X60971300Y-81366700D02*
X60971300Y-85588500D01*
X59334800Y-79730200D02*
X60971300Y-81366700D01*
X51321600Y-46995000D02*
X51482000Y-47155400D01*
X50967300Y-46995000D02*
X51321600Y-46995000D01*
X50967300Y-45540000D02*
X50967300Y-46995000D01*
X50967300Y-46995000D02*
X50462300Y-47500000D01*
X53999900Y-21433300D02*
X55364000Y-21433300D01*
X53838300Y-21594900D02*
X53999900Y-21433300D01*
X53339000Y-21594900D02*
X53838300Y-21594900D01*
X52077900Y-20333800D02*
X53339000Y-21594900D01*
X52077900Y-19886400D02*
X52077900Y-20333800D01*
X17937700Y-75022900D02*
X17937700Y-74950000D01*
X18352800Y-75438000D02*
X17937700Y-75022900D01*
X21976300Y-70911400D02*
X22003300Y-70911400D01*
X17937700Y-74950000D02*
X21976300Y-70911400D01*
X40254500Y-70911400D02*
X41514700Y-72171600D01*
X22003300Y-70911400D02*
X40254500Y-70911400D01*
X47318000Y-48088700D02*
X45851200Y-46621900D01*
X49873600Y-48088700D02*
X47318000Y-48088700D01*
X50462300Y-47500000D02*
X49873600Y-48088700D01*
X47082000Y-143223000D02*
X47082000Y-142110000D01*
X44851200Y-145453800D02*
X47082000Y-143223000D01*
X50557000Y-133905300D02*
X50462300Y-134000000D01*
X50557000Y-133257800D02*
X50557000Y-133905300D01*
X46597600Y-137864700D02*
X46597600Y-138273500D01*
X50462300Y-134000000D02*
X46597600Y-137864700D01*
X46597600Y-138273500D02*
X37233400Y-138273500D01*
X68551600Y-93206100D02*
X71064400Y-93206100D01*
X62958700Y-87613200D02*
X68551600Y-93206100D01*
X62734400Y-87613200D02*
X62958700Y-87613200D01*
X60971300Y-85850100D02*
X62734400Y-87613200D01*
X60971300Y-85588500D02*
X60971300Y-85850100D01*
X31930600Y-59991600D02*
X33419500Y-61480500D01*
X22003300Y-59991600D02*
X31930600Y-59991600D01*
X20894700Y-61100200D02*
X11543600Y-61100200D01*
X22003300Y-59991600D02*
X20894700Y-61100200D01*
X84129400Y-46339000D02*
X88546400Y-50756000D01*
X93302400Y-46000000D02*
X88546400Y-50756000D01*
X85802700Y-53499700D02*
X85802700Y-59007600D01*
X88546400Y-50756000D02*
X85802700Y-53499700D01*
X52770000Y-45540000D02*
X68480800Y-45540000D01*
X68480800Y-45540000D02*
X68590000Y-45430800D01*
X80056000Y-46838200D02*
X80894200Y-46000000D01*
X69585900Y-46838200D02*
X80056000Y-46838200D01*
X68480800Y-45733100D02*
X69585900Y-46838200D01*
X68480800Y-45540000D02*
X68480800Y-45733100D01*
X56538700Y-67047000D02*
X54205400Y-69380300D01*
X49644758Y-69681789D02*
X49644758Y-69500000D01*
X49644758Y-69500000D02*
X49644758Y-66866658D01*
X56538700Y-65114100D02*
X56538700Y-67047000D01*
X54205400Y-69380300D02*
X49764458Y-69380300D01*
X49764458Y-69380300D02*
X49644758Y-69500000D01*
X48727500Y-71720700D02*
X48727500Y-70599047D01*
X48727500Y-70599047D02*
X49644758Y-69681789D01*
X49644758Y-66866658D02*
X48232200Y-65454100D01*
X56538700Y-65114100D02*
X56488752Y-65114100D01*
X56488752Y-65114100D02*
X56488219Y-65113567D01*
X11430000Y-9666800D02*
X11138500Y-9666800D01*
X11430000Y-10414000D02*
X11430000Y-9666800D01*
X11138500Y-9666800D02*
X6607100Y-5135400D01*
X35537590Y-14660000D02*
X34290000Y-15907590D01*
X38810000Y-14660000D02*
X35537590Y-14660000D01*
X29802010Y-11419600D02*
X34290000Y-15907590D01*
X17500000Y-11419600D02*
X29802010Y-11419600D01*
X26650000Y-30500000D02*
X33020000Y-24130000D01*
X22080000Y-30500000D02*
X26650000Y-30500000D01*
X52770000Y-40460000D02*
X50967300Y-40460000D01*
X15476000Y-91000000D02*
X14728800Y-91000000D01*
X52770000Y-40460000D02*
X54572700Y-40460000D01*
X67351000Y-2450200D02*
X67299700Y-2398900D01*
X72000000Y-2450200D02*
X67351000Y-2450200D01*
X74104200Y-346000D02*
X72000000Y-2450200D01*
X86814400Y-346000D02*
X74104200Y-346000D01*
X91025400Y-4557000D02*
X86814400Y-346000D01*
X15476000Y-91000000D02*
X16223200Y-91000000D01*
X50790400Y-40636900D02*
X50790400Y-42614700D01*
X50967300Y-40460000D02*
X50790400Y-40636900D01*
X57778200Y-78535500D02*
X58522700Y-79280000D01*
X11248800Y-53739600D02*
X11248800Y-56524000D01*
X9009200Y-51500000D02*
X11248800Y-53739600D01*
X17500000Y-12333000D02*
X12410300Y-12333000D01*
X17000000Y-119000000D02*
X17373600Y-119000000D01*
X17373600Y-119000000D02*
X17747200Y-119000000D01*
X17000000Y-149000000D02*
X17000000Y-152400000D01*
X19697400Y-155097400D02*
X19697400Y-155413700D01*
X17000000Y-152400000D02*
X19697400Y-155097400D01*
X17000000Y-143589200D02*
X17000000Y-143909000D01*
X13597300Y-140186500D02*
X17000000Y-143589200D01*
X17000000Y-143909000D02*
X17000000Y-149000000D01*
X45010000Y-14660000D02*
X43807300Y-14660000D01*
X38810000Y-14660000D02*
X43807300Y-14660000D01*
X56538700Y-65114100D02*
X55924600Y-64500000D01*
X85677600Y-113146200D02*
X88597300Y-113146200D01*
X78086100Y-105554700D02*
X85677600Y-113146200D01*
X74882300Y-105554700D02*
X78086100Y-105554700D01*
X8262000Y-51500000D02*
X8635600Y-51500000D01*
X8635600Y-51500000D02*
X9009200Y-51500000D01*
X18160000Y-9846300D02*
X17500000Y-10506300D01*
X18160000Y-2500000D02*
X18160000Y-9846300D01*
X8080000Y-68580000D02*
X6277300Y-68580000D01*
X2540000Y-73660000D02*
X4412200Y-73660000D01*
X13686300Y-89957500D02*
X13597300Y-89957500D01*
X14728800Y-91000000D02*
X13686300Y-89957500D01*
X737300Y-79434100D02*
X737300Y-73660000D01*
X11260700Y-89957500D02*
X737300Y-79434100D01*
X13597300Y-89957500D02*
X11260700Y-89957500D01*
X2540000Y-73660000D02*
X737300Y-73660000D01*
X8080000Y-68580000D02*
X9882700Y-68580000D01*
X6277300Y-71794900D02*
X6277300Y-68580000D01*
X4412200Y-73660000D02*
X6277300Y-71794900D01*
X6604000Y-17272000D02*
X7414700Y-17272000D01*
X10417000Y-14269700D02*
X7414700Y-17272000D01*
X11430000Y-14269700D02*
X10417000Y-14269700D01*
X8000000Y-2500000D02*
X8000000Y-3742500D01*
X2032000Y-11454000D02*
X2032000Y-9651300D01*
X2091200Y-9651300D02*
X6607100Y-5135400D01*
X2032000Y-9651300D02*
X2091200Y-9651300D01*
X6607100Y-5135400D02*
X8000000Y-3742500D01*
X11990400Y-11161200D02*
X11430000Y-11161200D01*
X12410300Y-11581100D02*
X11990400Y-11161200D01*
X12410300Y-12333000D02*
X12410300Y-11581100D01*
X12410300Y-13289400D02*
X11430000Y-14269700D01*
X12410300Y-12333000D02*
X12410300Y-13289400D01*
X11430000Y-10414000D02*
X11430000Y-11161200D01*
X54443300Y-150347800D02*
X54297700Y-150493400D01*
X55752100Y-150347800D02*
X54443300Y-150347800D01*
X41868300Y-71818000D02*
X43000100Y-72949800D01*
X11846400Y-66616300D02*
X9882700Y-68580000D01*
X11846400Y-64203000D02*
X11846400Y-66616300D01*
X11742600Y-64099200D02*
X11846400Y-64203000D01*
X17373600Y-118523300D02*
X14220100Y-115369800D01*
X17373600Y-119000000D02*
X17373600Y-118523300D01*
X86435800Y-89750900D02*
X86461900Y-89777000D01*
X75398100Y-89750900D02*
X86435800Y-89750900D01*
X71149000Y-94000000D02*
X75398100Y-89750900D01*
X71075400Y-94000000D02*
X71149000Y-94000000D01*
X39162100Y-65688800D02*
X39243800Y-65607100D01*
X39162100Y-69111800D02*
X39162100Y-65688800D01*
X37969100Y-70304800D02*
X39162100Y-69111800D01*
X15534900Y-70304800D02*
X37969100Y-70304800D01*
X11846400Y-66616300D02*
X15534900Y-70304800D01*
X39162100Y-69111800D02*
X41868300Y-71818000D01*
X11248800Y-56524000D02*
X22500000Y-56524000D01*
X23478900Y-55358300D02*
X23478900Y-53846000D01*
X23060400Y-55776800D02*
X23478900Y-55358300D01*
X22500000Y-55776800D02*
X23060400Y-55776800D01*
X22500000Y-56524000D02*
X22500000Y-55776800D01*
X57778200Y-78535500D02*
X57033700Y-77791000D01*
X49589900Y-43815200D02*
X50790400Y-42614700D01*
X49589900Y-47447800D02*
X49589900Y-43815200D01*
X49537700Y-47500000D02*
X49589900Y-47447800D01*
X16223200Y-90439600D02*
X16223200Y-91000000D01*
X16410000Y-90252800D02*
X16223200Y-90439600D01*
X23197300Y-90252800D02*
X16410000Y-90252800D01*
X23702000Y-90757500D02*
X23197300Y-90252800D01*
X35698000Y-90757500D02*
X23702000Y-90757500D01*
X36296900Y-90158600D02*
X35698000Y-90757500D01*
X8635600Y-51283200D02*
X7439400Y-50087000D01*
X8635600Y-51500000D02*
X8635600Y-51283200D01*
X90802700Y-60448000D02*
X90802700Y-61683500D01*
X93695400Y-57555300D02*
X90802700Y-60448000D01*
X74553400Y-105225800D02*
X74882300Y-105554700D01*
X74553400Y-102542400D02*
X74553400Y-105225800D01*
X71075400Y-99064400D02*
X74553400Y-102542400D01*
X71075400Y-94000000D02*
X71075400Y-99064400D01*
X67373400Y-113184900D02*
X63223900Y-113184900D01*
X74657700Y-105900600D02*
X67373400Y-113184900D01*
X74657700Y-105779300D02*
X74657700Y-105900600D01*
X74882300Y-105554700D02*
X74657700Y-105779300D01*
X49537700Y-113184900D02*
X49537700Y-112500000D01*
X63223900Y-113184900D02*
X49537700Y-113184900D01*
X47847300Y-94147300D02*
X47500000Y-93800000D01*
X52152700Y-94147300D02*
X47847300Y-94147300D01*
X52500000Y-93800000D02*
X52152700Y-94147300D01*
X58722700Y-79280000D02*
X58522700Y-79280000D01*
X59054400Y-78948300D02*
X58722700Y-79280000D01*
X65532000Y-78948300D02*
X59054400Y-78948300D01*
X21331100Y-115416100D02*
X36179700Y-115416100D01*
X17747200Y-119000000D02*
X21331100Y-115416100D01*
X49492000Y-119732700D02*
X49296600Y-119928100D01*
X49500000Y-119732700D02*
X49492000Y-119732700D01*
X49260400Y-113258100D02*
X49296600Y-113294300D01*
X40884900Y-113258100D02*
X49260400Y-113258100D01*
X49406000Y-113184900D02*
X49296600Y-113294300D01*
X49537700Y-113184900D02*
X49406000Y-113184900D01*
X49500000Y-118900000D02*
X49500000Y-119732700D01*
X53999700Y-92050800D02*
X58866800Y-87183700D01*
X53999700Y-92300300D02*
X53999700Y-92050800D01*
X52500000Y-93800000D02*
X53999700Y-92300300D01*
X58722700Y-87039600D02*
X58722700Y-79280000D01*
X58866800Y-87183700D02*
X58722700Y-87039600D01*
X68334000Y-94000000D02*
X71075400Y-94000000D01*
X63429300Y-89095300D02*
X68334000Y-94000000D01*
X60778400Y-89095300D02*
X63429300Y-89095300D01*
X58866800Y-87183700D02*
X60778400Y-89095300D01*
X81847300Y-14149900D02*
X81773200Y-14224000D01*
X85784900Y-14149900D02*
X81847300Y-14149900D01*
X86995000Y-15360000D02*
X85784900Y-14149900D01*
X81026000Y-14224000D02*
X81773200Y-14224000D01*
X49530000Y-26797000D02*
X50277200Y-26797000D01*
X55364000Y-39668700D02*
X54572700Y-40460000D01*
X55364000Y-30006000D02*
X55364000Y-39668700D01*
X50277200Y-27357400D02*
X50277200Y-26797000D01*
X51509500Y-28589700D02*
X50277200Y-27357400D01*
X53074300Y-28589700D02*
X51509500Y-28589700D01*
X54490600Y-30006000D02*
X53074300Y-28589700D01*
X55364000Y-30006000D02*
X54490600Y-30006000D01*
X65873100Y-2398900D02*
X66586400Y-2398900D01*
X66586400Y-2398900D02*
X67299700Y-2398900D01*
X57851000Y-2450200D02*
X57799700Y-2398900D01*
X66535100Y-2450200D02*
X57851000Y-2450200D01*
X66586400Y-2398900D02*
X66535100Y-2450200D01*
X56373100Y-2398900D02*
X57799700Y-2398900D01*
X17500000Y-12333000D02*
X17500000Y-11419600D01*
X17500000Y-11419600D02*
X17500000Y-10506300D01*
X49296600Y-120495200D02*
X49068600Y-120267200D01*
X49296600Y-125372000D02*
X49296600Y-120495200D01*
X49924600Y-126000000D02*
X49296600Y-125372000D01*
X49068600Y-120156100D02*
X49296600Y-119928100D01*
X49068600Y-120267200D02*
X49068600Y-120156100D01*
X47909600Y-120439100D02*
X47909600Y-132371900D01*
X48081500Y-120267200D02*
X47909600Y-120439100D01*
X49068600Y-120267200D02*
X48081500Y-120267200D01*
X47909600Y-132371900D02*
X49537700Y-134000000D01*
X49153100Y-72146300D02*
X48727500Y-71720700D01*
X50019200Y-72146300D02*
X49153100Y-72146300D01*
X55663900Y-77791000D02*
X50019200Y-72146300D01*
X57033700Y-77791000D02*
X55663900Y-77791000D01*
X44588700Y-72949800D02*
X43000100Y-72949800D01*
X45817800Y-71720700D02*
X44588700Y-72949800D01*
X48727500Y-71720700D02*
X45817800Y-71720700D01*
X35479900Y-137659200D02*
X40802700Y-137659200D01*
X29230100Y-143909000D02*
X35479900Y-137659200D01*
X17000000Y-143909000D02*
X29230100Y-143909000D01*
X42622300Y-137659200D02*
X47909600Y-132371900D01*
X40802700Y-137659200D02*
X42622300Y-137659200D01*
X46100000Y-6424100D02*
X46100000Y-2500000D01*
X45038800Y-7485300D02*
X46100000Y-6424100D01*
X43869700Y-7485300D02*
X45038800Y-7485300D01*
X43138800Y-8216200D02*
X43869700Y-7485300D01*
X43138800Y-13991500D02*
X43138800Y-8216200D01*
X43807300Y-14660000D02*
X43138800Y-13991500D01*
X56373100Y-2398900D02*
X54946400Y-2398900D01*
X54845300Y-2500000D02*
X54946400Y-2398900D01*
X46100000Y-2500000D02*
X54845300Y-2500000D01*
X83562500Y-139338000D02*
X84965900Y-137934600D01*
X63576900Y-139338000D02*
X83562500Y-139338000D01*
X63418100Y-139179200D02*
X63576900Y-139338000D01*
X65950200Y-149850000D02*
X65950200Y-148748500D01*
X62130500Y-140466800D02*
X63418100Y-139179200D01*
X55972000Y-140466800D02*
X62130500Y-140466800D01*
X54303700Y-142135100D02*
X55972000Y-140466800D01*
X54000800Y-142135100D02*
X54303700Y-142135100D01*
X53972700Y-142163200D02*
X54000800Y-142135100D01*
X65218900Y-148017200D02*
X65950200Y-148748500D01*
X60185700Y-148017200D02*
X65218900Y-148017200D01*
X54303700Y-142135100D02*
X60185700Y-148017200D01*
X10940900Y-63297500D02*
X11742600Y-64099200D01*
X10940900Y-56831900D02*
X10940900Y-63297500D01*
X11248800Y-56524000D02*
X10940900Y-56831900D01*
X77033200Y-129898000D02*
X76906200Y-129771000D01*
X77810000Y-129898000D02*
X77033200Y-129898000D01*
X76032000Y-129771000D02*
X76906200Y-129771000D01*
X76032000Y-129771000D02*
X76032000Y-128960300D01*
X76435800Y-104651000D02*
X75532000Y-104651000D01*
X76562800Y-104778000D02*
X76435800Y-104651000D01*
X77310000Y-104778000D02*
X76562800Y-104778000D01*
X45340500Y-147150300D02*
X44532000Y-147150300D01*
X46290800Y-146200000D02*
X45340500Y-147150300D01*
X47038000Y-146200000D02*
X46290800Y-146200000D01*
X44532000Y-147961000D02*
X44532000Y-147150300D01*
X77310000Y-104778000D02*
X78057200Y-104778000D01*
X75064100Y-127992400D02*
X75051100Y-127992400D01*
X76032000Y-128960300D02*
X75064100Y-127992400D01*
X48550000Y-125550000D02*
X49000000Y-126000000D01*
X48550000Y-121100000D02*
X48550000Y-125550000D01*
X63750500Y-149850000D02*
X63750500Y-148748500D01*
X47038000Y-146200000D02*
X47785200Y-146200000D01*
X75051100Y-127992400D02*
X51167200Y-127992400D01*
X50992400Y-127992400D02*
X49000000Y-126000000D01*
X51167200Y-127992400D02*
X50992400Y-127992400D01*
X51101800Y-136412900D02*
X51101800Y-144681100D01*
X51167200Y-136347500D02*
X51101800Y-136412900D01*
X51167200Y-127992400D02*
X51167200Y-136347500D01*
X54031800Y-144681100D02*
X51101800Y-144681100D01*
X58099200Y-148748500D02*
X54031800Y-144681100D01*
X63750500Y-148748500D02*
X58099200Y-148748500D01*
X47785200Y-145639600D02*
X47785200Y-146200000D01*
X48743700Y-144681100D02*
X47785200Y-145639600D01*
X51101800Y-144681100D02*
X48743700Y-144681100D01*
X78057200Y-104778000D02*
X78215300Y-104936100D01*
X78968000Y-98919000D02*
X78530900Y-98919000D01*
X77190000Y-98792000D02*
X77937200Y-98792000D01*
X78297600Y-99152300D02*
X77937200Y-98792000D01*
X78530900Y-98919000D02*
X78297600Y-99152300D01*
X78057200Y-99392700D02*
X78057200Y-104778000D01*
X78297600Y-99152300D02*
X78057200Y-99392700D01*
D51*
X11176000Y-17272000D02*
X11544500Y-17272000D01*
X11430000Y-17157500D02*
X11430000Y-15194300D01*
X11544500Y-17272000D02*
X11430000Y-17157500D01*
X11939500Y-17667000D02*
X17500000Y-17667000D01*
X11544500Y-17272000D02*
X11939500Y-17667000D01*
X81494400Y-18039600D02*
X98000000Y-18039600D01*
X76199000Y-23335000D02*
X81494400Y-18039600D01*
X51532200Y-23335000D02*
X76199000Y-23335000D01*
X48788600Y-20591400D02*
X51532200Y-23335000D01*
X48788600Y-19453400D02*
X48788600Y-20591400D01*
X46280400Y-16945200D02*
X48788600Y-19453400D01*
X19276200Y-16945200D02*
X46280400Y-16945200D01*
X18554400Y-17667000D02*
X19276200Y-16945200D01*
X17500000Y-17667000D02*
X18554400Y-17667000D01*
X57424600Y-78889100D02*
X58116800Y-79581300D01*
X52413000Y-90000000D02*
X58116800Y-84296200D01*
X58116800Y-84296200D02*
X58116800Y-79581300D01*
X50762000Y-93400000D02*
X50762000Y-93063300D01*
X52312100Y-93063300D02*
X52500000Y-92875400D01*
X50762000Y-93063300D02*
X52312100Y-93063300D01*
X52500000Y-90087000D02*
X52500000Y-92875400D01*
X52413000Y-90000000D02*
X52500000Y-90087000D01*
X57672108Y-80464492D02*
X48136600Y-90000000D01*
X57071068Y-79242641D02*
X57672108Y-79843681D01*
X57672108Y-79843681D02*
X57672108Y-80464492D01*
X48136600Y-90000000D02*
X47587000Y-90000000D01*
X47953000Y-92788400D02*
X47587000Y-92788400D01*
X48564600Y-93400000D02*
X47953000Y-92788400D01*
X47587000Y-90000000D02*
X47587000Y-92788400D01*
X47587000Y-92788400D02*
X47500000Y-92875400D01*
X49238000Y-93400000D02*
X48564600Y-93400000D01*
X54222100Y-63722100D02*
X55000000Y-64500000D01*
X48579800Y-63722100D02*
X54222100Y-63722100D01*
X47186500Y-65115400D02*
X48579800Y-63722100D01*
X47878700Y-65807600D02*
X47186500Y-65115400D01*
X78968000Y-97141000D02*
X78167600Y-97141000D01*
X78040600Y-97268000D02*
X77190000Y-97268000D01*
X78167600Y-97141000D02*
X78040600Y-97268000D01*
X77190000Y-97268000D02*
X76516600Y-97268000D01*
X62653200Y-149850000D02*
X62653200Y-150877700D01*
X76371300Y-97413300D02*
X76516600Y-97268000D01*
X76291800Y-97413300D02*
X76371300Y-97413300D01*
X64061900Y-150877700D02*
X64305100Y-151120900D01*
X62653200Y-150877700D02*
X64061900Y-150877700D01*
X64850300Y-149850000D02*
X64850300Y-151323800D01*
X44532000Y-149739000D02*
X44532000Y-149002100D01*
X46983900Y-149002100D02*
X48562000Y-147424000D01*
X44532000Y-149002100D02*
X46983900Y-149002100D01*
X48562000Y-147424000D02*
X48562000Y-146200000D01*
X64503500Y-151670600D02*
X64850300Y-151323800D01*
X52808600Y-151670600D02*
X64503500Y-151670600D01*
X48562000Y-147424000D02*
X52808600Y-151670600D01*
X67050000Y-150877700D02*
X67050000Y-149850000D01*
X69156200Y-150877700D02*
X67050000Y-150877700D01*
X69755600Y-151477200D02*
X69156200Y-150877800D01*
X77694100Y-140644000D02*
X71478900Y-146859200D01*
X86490400Y-136044463D02*
X86490400Y-137195100D01*
X82173389Y-131727452D02*
X86490400Y-136044463D01*
X81505620Y-131727452D02*
X82173389Y-131727452D01*
X81200168Y-131422000D02*
X81505620Y-131727452D01*
X77810000Y-131422000D02*
X81200168Y-131422000D01*
X83041500Y-140644000D02*
X77694100Y-140644000D01*
X71478900Y-146859200D02*
X71478900Y-151356100D01*
X71478900Y-151356100D02*
X71357800Y-151477200D01*
X71357800Y-151477200D02*
X69755600Y-151477200D01*
X69156200Y-150877800D02*
X69156200Y-150877700D01*
X86490400Y-137195100D02*
X83041500Y-140644000D01*
X76032000Y-131549000D02*
X76832400Y-131549000D01*
X76959400Y-131422000D02*
X77810000Y-131422000D01*
X76832400Y-131549000D02*
X76959400Y-131422000D01*
X31112800Y-42402200D02*
X35473900Y-46763300D01*
X35473900Y-46763300D02*
X35473900Y-60190500D01*
X35473900Y-60190500D02*
X41787266Y-66503866D01*
X41787266Y-66503866D02*
X42210966Y-66503866D01*
X42210966Y-66503866D02*
X44696700Y-68989600D01*
X57127800Y-40624500D02*
X56365700Y-39862400D01*
X78582100Y-40624500D02*
X57127800Y-40624500D01*
X28338800Y-39628200D02*
X31112800Y-42402200D01*
X5710400Y-39628200D02*
X28338800Y-39628200D01*
X5648000Y-39565800D02*
X5710400Y-39628200D01*
X54149200Y-38824300D02*
X43278800Y-38824300D01*
X54746800Y-39421900D02*
X54149200Y-38824300D01*
X30039900Y-49500600D02*
X30773400Y-49500600D01*
X33547100Y-52274300D02*
X33547100Y-58712600D01*
X30773400Y-49500600D02*
X33547100Y-52274300D01*
X33547100Y-58712600D02*
X41858104Y-67023604D01*
X41858104Y-67023604D02*
X42023704Y-67023604D01*
X43651000Y-68650900D02*
X44343100Y-69343100D01*
X42023704Y-67023604D02*
X43651000Y-68650900D01*
X41338700Y-49747400D02*
X55000000Y-49747400D01*
X39002300Y-47411000D02*
X41338700Y-49747400D01*
X55230600Y-49978000D02*
X55000000Y-49747400D01*
X58430000Y-49978000D02*
X55230600Y-49978000D01*
X58585200Y-49822800D02*
X58430000Y-49978000D01*
X77104000Y-49822800D02*
X58585200Y-49822800D01*
X78645400Y-48281400D02*
X77104000Y-49822800D01*
X6738000Y-51500000D02*
X6738000Y-49896700D01*
X5489800Y-49896700D02*
X5000000Y-49406900D01*
X6738000Y-49896700D02*
X5489800Y-49896700D01*
X7134100Y-49500600D02*
X30039900Y-49500600D01*
X6738000Y-49896700D02*
X7134100Y-49500600D01*
X29898100Y-85291300D02*
X30077200Y-85470400D01*
X29898100Y-83022700D02*
X29898100Y-85291300D01*
X31190000Y-85470400D02*
X30077200Y-85470400D01*
X22500000Y-55000000D02*
X22500000Y-53726400D01*
X72500000Y-52500000D02*
X72500000Y-51943600D01*
X75815500Y-51943600D02*
X76371900Y-52500000D01*
X72500000Y-51943600D02*
X75815500Y-51943600D01*
X77500000Y-52500000D02*
X76371900Y-52500000D01*
X77500000Y-52500000D02*
X77500000Y-51387200D01*
X22613600Y-53612800D02*
X22500000Y-53726400D01*
X22613600Y-52500000D02*
X22613600Y-53612800D01*
X44335700Y-70042800D02*
X44681800Y-70388900D01*
X44335700Y-70042800D02*
X43989600Y-69696700D01*
X43989600Y-69696700D02*
X43297400Y-69004500D01*
X47890700Y-67180000D02*
X48938000Y-67180000D01*
X44681800Y-70388900D02*
X47890700Y-67180000D01*
X22613600Y-52500000D02*
X22613600Y-51387200D01*
X31579200Y-51387200D02*
X22613600Y-51387200D01*
X31579200Y-52500000D02*
X31579200Y-51387200D01*
X53632000Y-57404500D02*
X49002500Y-57404500D01*
X60262600Y-50773900D02*
X53632000Y-57404500D01*
X71330300Y-50773900D02*
X60262600Y-50773900D01*
X72500000Y-51943600D02*
X71330300Y-50773900D01*
X43297400Y-68911900D02*
X43297400Y-69004500D01*
X31579200Y-57193700D02*
X43297400Y-68911900D01*
X31579200Y-52500000D02*
X31579200Y-57193700D01*
X84502800Y-44384400D02*
X95469200Y-44384400D01*
X77500000Y-51387200D02*
X84502800Y-44384400D01*
X73016600Y-97500000D02*
X74144700Y-97500000D01*
X98016600Y-97500000D02*
X98016600Y-98612800D01*
X32016600Y-97500000D02*
X32016600Y-98612800D01*
X17000000Y-91000000D02*
X17000000Y-91673400D01*
X21713800Y-96387200D02*
X17000000Y-91673400D01*
X22539600Y-96387200D02*
X21713800Y-96387200D01*
X25008600Y-97500000D02*
X22539600Y-97500000D01*
X26121400Y-98612800D02*
X25008600Y-97500000D01*
X32016600Y-98612800D02*
X26121400Y-98612800D01*
X22539600Y-97500000D02*
X22539600Y-96387200D01*
X41776000Y-69413900D02*
X41776000Y-70022600D01*
X42151100Y-69038800D02*
X41776000Y-69413900D01*
X42624500Y-69038800D02*
X42151100Y-69038800D01*
X43636000Y-70050300D02*
X42624500Y-69038800D01*
X72908800Y-98612800D02*
X73016600Y-98612800D01*
X72192400Y-99329200D02*
X72908800Y-98612800D01*
X73016600Y-97500000D02*
X73016600Y-98612800D01*
X96903800Y-98612800D02*
X98016600Y-98612800D01*
X90063100Y-105453500D02*
X96903800Y-98612800D01*
X79931900Y-105453500D02*
X90063100Y-105453500D01*
X79774700Y-105296300D02*
X79931900Y-105453500D01*
X79774700Y-98291800D02*
X79774700Y-105296300D01*
X79425100Y-97942200D02*
X79774700Y-98291800D01*
X74586900Y-97942200D02*
X79425100Y-97942200D01*
X74144700Y-97500000D02*
X74586900Y-97942200D01*
X32016600Y-97500000D02*
X33144700Y-97500000D01*
X50856800Y-100749300D02*
X71476200Y-100749300D01*
X45822000Y-95714500D02*
X50856800Y-100749300D01*
X45822000Y-93431500D02*
X45822000Y-95714500D01*
X46004700Y-93248800D02*
X45822000Y-93431500D01*
X33718500Y-96926200D02*
X36293000Y-96926200D01*
X33144700Y-97500000D02*
X33718500Y-96926200D01*
X98016600Y-122500000D02*
X98016600Y-123612800D01*
X73016600Y-122500000D02*
X88040300Y-122500000D01*
X15476000Y-119000000D02*
X16149400Y-119000000D01*
X16149400Y-119420900D02*
X16149400Y-119000000D01*
X18115700Y-121387200D02*
X16149400Y-119420900D01*
X22359600Y-121387200D02*
X18115700Y-121387200D01*
X22359600Y-122483600D02*
X22359600Y-121387200D01*
X89153100Y-123612800D02*
X98016600Y-123612800D01*
X88040300Y-122500000D02*
X89153100Y-123612800D01*
X22359600Y-122483600D02*
X22359600Y-122500000D01*
X42539800Y-69711600D02*
X42396000Y-69567800D01*
X42590300Y-69711600D02*
X42539800Y-69711600D01*
X43282500Y-70403800D02*
X42590300Y-69711600D01*
X73016600Y-122500000D02*
X73016600Y-121387200D01*
X32016600Y-123612800D02*
X22359600Y-123612800D01*
X32016600Y-122500000D02*
X32016600Y-123612800D01*
X22359600Y-122500000D02*
X22359600Y-123612800D01*
X32016600Y-122500000D02*
X33144700Y-122500000D01*
X34365200Y-121279500D02*
X34626100Y-121279500D01*
X33144700Y-122500000D02*
X34365200Y-121279500D01*
X46121700Y-115165900D02*
X45189000Y-116098600D01*
X53635400Y-115165900D02*
X46121700Y-115165900D01*
X55856500Y-117387000D02*
X53635400Y-115165900D01*
X69016400Y-117387000D02*
X55856500Y-117387000D01*
X73016600Y-121387200D02*
X69016400Y-117387000D01*
X11039600Y-147500000D02*
X11039600Y-148612800D01*
X32016600Y-147500000D02*
X32016600Y-154695900D01*
X11426800Y-149000000D02*
X15476000Y-149000000D01*
X11039600Y-148612800D02*
X11426800Y-149000000D01*
X15476000Y-149000000D02*
X15476000Y-149673400D01*
X16149400Y-150346800D02*
X15476000Y-149673400D01*
X16149400Y-152792700D02*
X16149400Y-150346800D01*
X19299500Y-155942800D02*
X16149400Y-152792700D01*
X30769700Y-155942800D02*
X19299500Y-155942800D01*
X32016600Y-154695900D02*
X30769700Y-155942800D01*
X32016600Y-147500000D02*
X39918400Y-147500000D01*
X73266600Y-148862800D02*
X73016600Y-148612800D01*
X93289600Y-148862800D02*
X73266600Y-148862800D01*
X93289600Y-147750000D02*
X93289600Y-148862800D01*
X73016600Y-147500000D02*
X73016600Y-148612800D01*
X42928900Y-70757400D02*
X43621200Y-71449600D01*
X39918400Y-144684300D02*
X45024300Y-139578400D01*
X39918400Y-147500000D02*
X39918400Y-144684300D01*
X44002400Y-71449600D02*
X44219900Y-71667100D01*
X43621200Y-71449600D02*
X44002400Y-71449600D01*
X73016600Y-150356900D02*
X73016600Y-148612800D01*
X71397800Y-151975700D02*
X73016600Y-150356900D01*
X44182100Y-151975700D02*
X71397800Y-151975700D01*
X39918400Y-147712000D02*
X44182100Y-151975700D01*
X39918400Y-147500000D02*
X39918400Y-147712000D01*
X15476000Y-152400000D02*
X15476000Y-153073400D01*
X15469200Y-151726600D02*
X13280500Y-149537900D01*
X15476000Y-151726600D02*
X15469200Y-151726600D01*
X15476000Y-152400000D02*
X15476000Y-151726600D01*
X53576800Y-156294100D02*
X55337500Y-154533400D01*
X18696700Y-156294100D02*
X53576800Y-156294100D01*
X15476000Y-153073400D02*
X18696700Y-156294100D01*
X56016400Y-153854500D02*
X77637300Y-153854500D01*
X55337500Y-154533400D02*
X56016400Y-153854500D01*
X42575400Y-71110900D02*
X43267700Y-71803100D01*
X43533000Y-71992100D02*
X43506600Y-72018500D01*
X43533000Y-71992000D02*
X43533000Y-71992100D01*
X43344100Y-71803100D02*
X43533000Y-71992000D01*
X43267700Y-71803100D02*
X43344100Y-71803100D01*
X27362200Y-73271000D02*
X27196000Y-73437200D01*
X39235100Y-73271000D02*
X27362200Y-73271000D01*
X40434300Y-74470200D02*
X39235100Y-73271000D01*
X43668500Y-74470200D02*
X40434300Y-74470200D01*
X45935800Y-72202900D02*
X43668500Y-74470200D01*
X48596000Y-72202900D02*
X45935800Y-72202900D01*
X48918300Y-72525200D02*
X48596000Y-72202900D01*
X49674400Y-72525200D02*
X48918300Y-72525200D01*
X56025300Y-78876100D02*
X49674400Y-72525200D01*
X56025300Y-78903900D02*
X56025300Y-78876100D01*
X56717500Y-79596200D02*
X56025300Y-78903900D01*
X48224000Y-73041500D02*
X48254900Y-73041500D01*
X48254900Y-73041500D02*
X48424500Y-73211100D01*
X48424500Y-73211100D02*
X48660556Y-73211100D01*
X54795300Y-78381000D02*
X55671900Y-79257500D01*
X48660556Y-73211100D02*
X51984056Y-76534600D01*
X51984056Y-76534600D02*
X52948900Y-76534600D01*
X52948900Y-76534600D02*
X54795300Y-78381000D01*
X55671900Y-79257500D02*
X56364000Y-79949700D01*
X46825000Y-73106900D02*
X47358700Y-73106900D01*
X47358700Y-73106900D02*
X47845000Y-73593200D01*
X47845000Y-73593200D02*
X48587000Y-73593200D01*
X48587000Y-73593200D02*
X54604900Y-79611100D01*
X54604900Y-79611100D02*
X55318200Y-79611100D01*
X55318200Y-79611100D02*
X56010400Y-80303300D01*
X54964700Y-79964700D02*
X55656900Y-80656900D01*
X54527433Y-79964700D02*
X54964700Y-79964700D01*
X48698532Y-74135799D02*
X54527433Y-79964700D01*
X47627099Y-74135799D02*
X48698532Y-74135799D01*
X47327100Y-73835800D02*
X47627099Y-74135799D01*
X55142068Y-81010400D02*
X55303300Y-81010400D01*
X47990400Y-74795400D02*
X48927068Y-74795400D01*
X48927068Y-74795400D02*
X55142068Y-81010400D01*
X49025902Y-75325300D02*
X48525200Y-75325300D01*
X54949700Y-81249098D02*
X49025902Y-75325300D01*
X54949700Y-81364000D02*
X54949700Y-81249098D01*
X43560000Y-5174600D02*
X43560000Y-2500000D01*
X44450000Y-6064600D02*
X43560000Y-5174600D01*
X44450000Y-6738000D02*
X44450000Y-6064600D01*
X51122900Y-65100500D02*
X50121800Y-66101600D01*
X51414200Y-65100500D02*
X51122900Y-65100500D01*
X50121800Y-67118200D02*
X50702061Y-67698461D01*
X50121800Y-66101600D02*
X50121800Y-67118200D01*
X92525100Y-128084000D02*
X96521100Y-132080000D01*
X87848500Y-128084000D02*
X92525100Y-128084000D01*
X82611100Y-122846600D02*
X87848500Y-128084000D01*
X78170000Y-122846600D02*
X82611100Y-122846600D01*
X77403700Y-123612900D02*
X78170000Y-122846600D01*
X71950900Y-123612900D02*
X77403700Y-123612900D01*
X71800400Y-123462400D02*
X71950900Y-123612900D01*
X71800400Y-123097300D02*
X71800400Y-123462400D01*
X66395300Y-117692200D02*
X71800400Y-123097300D01*
X55413600Y-117692200D02*
X66395300Y-117692200D01*
X53416200Y-115694800D02*
X55413600Y-117692200D01*
X98250000Y-132080000D02*
X96521100Y-132080000D01*
X58131700Y-71818000D02*
X57439500Y-72510200D01*
X45558000Y-142110000D02*
X45558000Y-142783400D01*
X47230000Y-43000000D02*
X48958900Y-43000000D01*
X45558000Y-142110000D02*
X45558000Y-141436600D01*
X45558000Y-141436600D02*
X45859800Y-141134800D01*
X48958900Y-46602100D02*
X48987200Y-46630400D01*
X48958900Y-43000000D02*
X48958900Y-46602100D01*
X42500000Y-145841400D02*
X45558000Y-142783400D01*
X42500000Y-148850000D02*
X42500000Y-145841400D01*
X50089400Y-71767400D02*
X49865500Y-71543500D01*
X50176200Y-71767400D02*
X50089400Y-71767400D01*
X50360900Y-71952100D02*
X50176200Y-71767400D01*
X53012100Y-71952100D02*
X50360900Y-71952100D01*
X53401800Y-72341800D02*
X53012100Y-71952100D01*
X53893000Y-72341800D02*
X53401800Y-72341800D01*
X53987600Y-72436400D02*
X53893000Y-72341800D01*
X56182800Y-72436400D02*
X53987600Y-72436400D01*
X56256600Y-72510200D02*
X56182800Y-72436400D01*
X57439500Y-72510200D02*
X56256600Y-72510200D01*
X80500000Y-99266900D02*
X80500000Y-104738000D01*
X81000000Y-98766900D02*
X80500000Y-99266900D01*
X81000000Y-98030000D02*
X81000000Y-98766900D01*
X52770000Y-43000000D02*
X69601500Y-43000000D01*
X72126300Y-70639400D02*
X72126300Y-69984600D01*
X60017500Y-70639400D02*
X58485300Y-72171600D01*
X72126300Y-70639400D02*
X60017500Y-70639400D01*
X69601500Y-43000000D02*
X72105900Y-45504400D01*
X72678500Y-70639400D02*
X72126300Y-70639400D01*
X73084700Y-71045600D02*
X72678500Y-70639400D01*
X73084700Y-71427500D02*
X73084700Y-71045600D01*
X86992000Y-85334800D02*
X73084700Y-71427500D01*
X86992000Y-89995200D02*
X86992000Y-85334800D01*
X86104700Y-90882500D02*
X86992000Y-89995200D01*
X84851700Y-90882500D02*
X86104700Y-90882500D01*
X81000000Y-94734200D02*
X84851700Y-90882500D01*
X81000000Y-98030000D02*
X81000000Y-94734200D01*
X60162400Y-71201500D02*
X69444800Y-71201500D01*
X58838800Y-72525100D02*
X60162400Y-71201500D01*
X47230000Y-45540000D02*
X45501100Y-45540000D01*
X71141500Y-48504700D02*
X71394000Y-48252200D01*
X46981500Y-48504700D02*
X71141500Y-48504700D01*
X45289200Y-46812400D02*
X46981500Y-48504700D01*
X45289200Y-45751900D02*
X45289200Y-46812400D01*
X45501100Y-45540000D02*
X45289200Y-45751900D01*
X73262000Y-128755000D02*
X73935400Y-128755000D01*
X74060500Y-129862600D02*
X74000000Y-129923100D01*
X74060500Y-128880100D02*
X74060500Y-129862600D01*
X74163800Y-128880100D02*
X74060500Y-128880100D01*
X74060500Y-128880100D02*
X73935400Y-128755000D01*
X74000000Y-130660000D02*
X74000000Y-129923100D01*
X98250000Y-134620000D02*
X96521100Y-134620000D01*
X59192400Y-77121300D02*
X59884600Y-77813500D01*
X67090000Y-77502800D02*
X73161400Y-83574200D01*
X65296200Y-77502800D02*
X67090000Y-77502800D01*
X64985500Y-77813500D02*
X65296200Y-77502800D01*
X59884600Y-77813500D02*
X64985500Y-77813500D01*
X96521100Y-133516000D02*
X96521100Y-134620000D01*
X93787400Y-130782300D02*
X96521100Y-133516000D01*
X90115100Y-130782300D02*
X93787400Y-130782300D01*
X82708400Y-123375600D02*
X90115100Y-130782300D01*
X79820200Y-123375600D02*
X82708400Y-123375600D01*
X92710000Y-132080000D02*
X90981100Y-132080000D01*
X58838800Y-77474900D02*
X58146600Y-76782600D01*
X58273000Y-76045900D02*
X59376600Y-74942300D01*
X58273000Y-76656200D02*
X58273000Y-76045900D01*
X58146600Y-76782600D02*
X58273000Y-76656200D01*
X83199900Y-124298800D02*
X90981100Y-132080000D01*
X72205100Y-124298800D02*
X83199900Y-124298800D01*
X70967400Y-123061100D02*
X72205100Y-124298800D01*
X53196900Y-80674934D02*
X51563133Y-79041167D01*
X53889100Y-82424600D02*
X53196900Y-81732300D01*
X53196900Y-81732300D02*
X53196900Y-80674934D01*
X63950000Y-15500000D02*
X63950000Y-16522700D01*
X54040000Y-18440000D02*
X54903900Y-18440000D01*
X62441000Y-18031700D02*
X63950000Y-16522700D01*
X61262300Y-18031700D02*
X62441000Y-18031700D01*
X61139000Y-17908400D02*
X61262300Y-18031700D01*
X55435500Y-17908400D02*
X61139000Y-17908400D01*
X54903900Y-18440000D02*
X55435500Y-17908400D01*
X54040000Y-18440000D02*
X54040000Y-18986400D01*
X53588600Y-20992200D02*
X53588600Y-19437800D01*
X53588600Y-19437800D02*
X54040000Y-18986400D01*
X50203400Y-19620800D02*
X50203400Y-20066000D01*
X50477700Y-19346500D02*
X50203400Y-19620800D01*
X53497300Y-19346500D02*
X50477700Y-19346500D01*
X53588600Y-19437800D02*
X53497300Y-19346500D01*
X49530000Y-20066000D02*
X50203400Y-20066000D01*
X50122400Y-80512000D02*
X50684300Y-81073900D01*
X50684300Y-81073900D02*
X50684300Y-81686200D01*
X50684300Y-81686200D02*
X50411300Y-81959200D01*
X51750800Y-85776200D02*
X51922000Y-85776200D01*
X51922000Y-85776200D02*
X54227800Y-83470400D01*
X54227800Y-83470400D02*
X53535500Y-82778200D01*
X50411300Y-81959200D02*
X50411300Y-84436700D01*
X50411300Y-84436700D02*
X51750800Y-85776200D01*
X52520000Y-15500000D02*
X52520000Y-16363900D01*
X50203400Y-17613100D02*
X50203400Y-18034000D01*
X51452600Y-16363900D02*
X50203400Y-17613100D01*
X52520000Y-16363900D02*
X51452600Y-16363900D01*
X49530000Y-18034000D02*
X50203400Y-18034000D01*
X49645000Y-18707400D02*
X49530000Y-18707400D01*
X49987600Y-19050000D02*
X49645000Y-18707400D01*
X49530000Y-18034000D02*
X49530000Y-18707400D01*
X51414200Y-84899500D02*
X50722000Y-84207300D01*
X50722000Y-82080100D02*
X51736400Y-81065700D01*
X50722000Y-84207300D02*
X50722000Y-82080100D01*
X94879300Y-8700000D02*
X94761600Y-8700000D01*
X99112900Y-12933600D02*
X94879300Y-8700000D01*
X99112900Y-22052700D02*
X99112900Y-12933600D01*
X98760700Y-22404900D02*
X99112900Y-22052700D01*
X98760700Y-36038100D02*
X98760700Y-22404900D01*
X99190400Y-36467800D02*
X98760700Y-36038100D01*
X99190400Y-42462000D02*
X99190400Y-36467800D01*
X97679000Y-43973400D02*
X99190400Y-42462000D01*
X97221000Y-43973400D02*
X97679000Y-43973400D01*
X97103100Y-43855500D02*
X97221000Y-43973400D01*
X83831300Y-43855500D02*
X97103100Y-43855500D01*
X77496500Y-50190300D02*
X83831300Y-43855500D01*
X59992400Y-50190300D02*
X77496500Y-50190300D01*
X53688800Y-56493900D02*
X59992400Y-50190300D01*
X46683400Y-86801900D02*
X48585800Y-84899500D01*
X46683400Y-93659100D02*
X46683400Y-86801900D01*
X47716800Y-94692500D02*
X46683400Y-93659100D01*
X55601300Y-94692500D02*
X47716800Y-94692500D01*
X79606800Y-125785700D02*
X70613100Y-125785700D01*
X90981100Y-137160000D02*
X79606800Y-125785700D01*
X92710000Y-137160000D02*
X90981100Y-137160000D01*
X52473500Y-116491900D02*
X52562500Y-116491900D01*
X52562500Y-116491900D02*
X56472800Y-120402200D01*
X56472800Y-120402200D02*
X61699500Y-120402200D01*
X61699500Y-120402200D02*
X66511500Y-125214200D01*
X66511500Y-125214200D02*
X79854600Y-125214200D01*
X79854600Y-125214200D02*
X90610245Y-135969845D01*
X90610245Y-135969845D02*
X95330945Y-135969845D01*
X95330945Y-135969845D02*
X96521100Y-137160000D01*
X96521100Y-137160000D02*
X98250000Y-137160000D01*
X48232200Y-84545900D02*
X48924500Y-83853600D01*
X49451200Y-85597900D02*
X49374000Y-85675100D01*
X49451200Y-84380400D02*
X49451200Y-85597900D01*
X48924500Y-83853600D02*
X49451200Y-84380400D01*
X73500000Y-105540000D02*
X73500000Y-104803100D01*
X72762000Y-103635000D02*
X72762000Y-104232100D01*
X73333000Y-104803100D02*
X73500000Y-104803100D01*
X72762000Y-104232100D02*
X73333000Y-104803100D01*
X58587000Y-70772300D02*
X58699000Y-70660300D01*
X58470500Y-70772300D02*
X58587000Y-70772300D01*
X58470500Y-70772200D02*
X58470500Y-70772300D01*
X57778200Y-71464500D02*
X58470500Y-70772200D01*
X70281600Y-96129100D02*
X69879800Y-95727300D01*
X70281600Y-98806500D02*
X70281600Y-96129100D01*
X72762000Y-101286900D02*
X70281600Y-98806500D01*
X72762000Y-103635000D02*
X72762000Y-101286900D01*
X5480900Y-119768000D02*
X7542600Y-117706300D01*
X9257500Y-117706300D02*
X9562500Y-118011300D01*
X11927500Y-117038900D02*
X11927500Y-114207700D01*
X11927500Y-114207700D02*
X17068400Y-109066800D01*
X49944503Y-79346400D02*
X50440300Y-79346400D01*
X4343900Y-127000000D02*
X5480900Y-125863000D01*
X5480900Y-125863000D02*
X5480900Y-119768000D01*
X42599800Y-80985900D02*
X44328200Y-79257500D01*
X48255059Y-79811311D02*
X49479592Y-79811311D01*
X47701348Y-79257600D02*
X48255059Y-79811311D01*
X49479592Y-79811311D02*
X49944503Y-79346400D01*
X2540000Y-127000000D02*
X4343900Y-127000000D01*
X7542600Y-117706300D02*
X9257500Y-117706300D01*
X44328200Y-79257600D02*
X47701348Y-79257600D01*
X44328200Y-79257500D02*
X44328200Y-79257600D01*
X42599800Y-95347900D02*
X42599800Y-80985900D01*
X10955100Y-118011300D02*
X11927500Y-117038900D01*
X41758500Y-96189200D02*
X42599800Y-95347900D01*
X41758500Y-103962700D02*
X41758500Y-96189200D01*
X9562500Y-118011300D02*
X10955100Y-118011300D01*
X36654400Y-109066800D02*
X41758500Y-103962700D01*
X17068400Y-109066800D02*
X36654400Y-109066800D01*
X56330000Y-15500000D02*
X56876400Y-15500000D01*
X56876400Y-15500000D02*
X57110100Y-15733700D01*
X42575400Y-78889100D02*
X41883200Y-79581300D01*
X7590000Y-124460000D02*
X5786100Y-124460000D01*
X19667600Y-114284900D02*
X21883200Y-112069300D01*
X14542100Y-114284900D02*
X19667600Y-114284900D01*
X12367100Y-116459900D02*
X14542100Y-114284900D01*
X12367100Y-117030900D02*
X12367100Y-116459900D01*
X11081600Y-118316400D02*
X12367100Y-117030900D01*
X9436000Y-118316400D02*
X11081600Y-118316400D01*
X9131000Y-118011400D02*
X9436000Y-118316400D01*
X7694200Y-118011400D02*
X9131000Y-118011400D01*
X5786100Y-119919500D02*
X7694200Y-118011400D01*
X5786100Y-124460000D02*
X5786100Y-119919500D01*
X27923100Y-80982800D02*
X26818200Y-80982800D01*
X28470800Y-80435100D02*
X27923100Y-80982800D01*
X29392700Y-80435100D02*
X28470800Y-80435100D01*
X30246500Y-79581300D02*
X29392700Y-80435100D01*
X41883200Y-79581300D02*
X30246500Y-79581300D01*
X41518100Y-79239200D02*
X42221800Y-78535500D01*
X30157100Y-79239200D02*
X41518100Y-79239200D01*
X29266300Y-80130000D02*
X30157100Y-79239200D01*
X28198867Y-80130000D02*
X29266300Y-80130000D01*
X27897967Y-80430900D02*
X28198867Y-80130000D01*
X27418200Y-80430900D02*
X27897967Y-80430900D01*
X2540000Y-120978700D02*
X2540000Y-121920000D01*
X7213200Y-116305500D02*
X2540000Y-120978700D01*
X8532100Y-116305500D02*
X7213200Y-116305500D01*
X21568700Y-103268900D02*
X8532100Y-116305500D01*
X23054300Y-103268900D02*
X21568700Y-103268900D01*
X24417900Y-101905300D02*
X23054300Y-103268900D01*
X46744057Y-77489700D02*
X48466370Y-79212013D01*
X42560600Y-77489700D02*
X46744057Y-77489700D01*
X41868300Y-78182000D02*
X42560600Y-77489700D01*
X80965100Y-124604000D02*
X90981100Y-134620000D01*
X67458700Y-124604000D02*
X80965100Y-124604000D01*
X62341700Y-119487000D02*
X67458700Y-124604000D01*
X56230300Y-119487000D02*
X62341700Y-119487000D01*
X52460300Y-115717000D02*
X56230300Y-119487000D01*
X51909800Y-115717000D02*
X52460300Y-115717000D01*
X92710000Y-134620000D02*
X90981100Y-134620000D01*
X29714100Y-78934100D02*
X29047100Y-79601100D01*
X40409000Y-78934100D02*
X29714100Y-78934100D01*
X41514700Y-77828400D02*
X40409000Y-78934100D01*
X2540000Y-114300000D02*
X4268900Y-114300000D01*
X24144100Y-101110500D02*
X25682200Y-99572400D01*
X21985100Y-101110500D02*
X24144100Y-101110500D01*
X9524500Y-113571100D02*
X21985100Y-101110500D01*
X4997800Y-113571100D02*
X9524500Y-113571100D01*
X4268900Y-114300000D02*
X4997800Y-113571100D01*
X24419800Y-81529700D02*
X26047600Y-79901900D01*
X26047600Y-79901900D02*
X27995900Y-79901900D01*
X27995900Y-79901900D02*
X29268800Y-78629000D01*
X29268800Y-78629000D02*
X40007100Y-78629000D01*
X40007100Y-78629000D02*
X41161200Y-77474900D01*
X8080000Y-114300000D02*
X9808900Y-114300000D01*
X22149900Y-101959000D02*
X23087500Y-101959000D01*
X9808900Y-114300000D02*
X22149900Y-101959000D01*
X22455800Y-81528000D02*
X24387000Y-79596800D01*
X24387000Y-79596800D02*
X27869400Y-79596800D01*
X27869400Y-79596800D02*
X29261359Y-78204841D01*
X29261359Y-78204841D02*
X39724059Y-78204841D01*
X39724059Y-78204841D02*
X40807600Y-77121300D01*
X2540000Y-111760000D02*
X4268900Y-111760000D01*
X22081500Y-99381600D02*
X22191500Y-99381600D01*
X10432000Y-111031100D02*
X22081500Y-99381600D01*
X4997800Y-111031100D02*
X10432000Y-111031100D01*
X4268900Y-111760000D02*
X4997800Y-111031100D01*
X26119200Y-79067900D02*
X27966700Y-79067900D01*
X27966700Y-79067900D02*
X29270900Y-77763700D01*
X29270900Y-77763700D02*
X39458200Y-77763700D01*
X39458200Y-77763700D02*
X40454100Y-76767800D01*
X8080000Y-111760000D02*
X10134800Y-111760000D01*
X21640100Y-100254700D02*
X22549500Y-100254700D01*
X10134800Y-111760000D02*
X21640100Y-100254700D01*
X20435100Y-79455400D02*
X21503800Y-78386700D01*
X21503800Y-78386700D02*
X28216200Y-78386700D01*
X28216200Y-78386700D02*
X29191400Y-77411500D01*
X29191400Y-77411500D02*
X39103200Y-77411500D01*
X39103200Y-77411500D02*
X40100500Y-76414200D01*
X4268900Y-108030000D02*
X4268900Y-109220000D01*
X15231000Y-97067900D02*
X4268900Y-108030000D01*
X2540000Y-109220000D02*
X4268900Y-109220000D01*
X25426800Y-74439000D02*
X24857800Y-74439000D01*
X26972200Y-72893600D02*
X25426800Y-74439000D01*
X39408300Y-72893600D02*
X26972200Y-72893600D01*
X9808900Y-109139800D02*
X9808900Y-109220000D01*
X20771400Y-98177300D02*
X9808900Y-109139800D01*
X8080000Y-109220000D02*
X9808900Y-109220000D01*
X40100500Y-73585800D02*
X39408300Y-72893600D01*
X40454100Y-73232200D02*
X39761900Y-72539900D01*
X24328900Y-74219900D02*
X24328900Y-74572000D01*
X39761900Y-72539900D02*
X39735911Y-72513911D01*
X39735911Y-72513911D02*
X26386989Y-72513911D01*
X26386989Y-72513911D02*
X24990800Y-73910100D01*
X24990800Y-73910100D02*
X24638700Y-73910100D01*
X24638700Y-73910100D02*
X24328900Y-74219900D01*
X24328900Y-74572000D02*
X22658100Y-76242800D01*
X2540000Y-106680000D02*
X4268900Y-106680000D01*
X14805700Y-96143200D02*
X17457400Y-96143200D01*
X4268900Y-106680000D02*
X14805700Y-96143200D01*
X8080000Y-106680000D02*
X9808900Y-106680000D01*
X40807600Y-72878700D02*
X40115400Y-72186500D01*
X24985400Y-72186500D02*
X22559800Y-74612100D01*
X40115400Y-72186500D02*
X24985400Y-72186500D01*
X9808900Y-106680000D02*
X16250400Y-100238500D01*
X41161200Y-72525100D02*
X40514146Y-71878046D01*
X40514146Y-71878046D02*
X24191454Y-71878046D01*
X24191454Y-71878046D02*
X22546900Y-73522600D01*
X7590000Y-120748800D02*
X6656000Y-119814800D01*
X7590000Y-121920000D02*
X7590000Y-120748800D01*
X45270000Y-21190000D02*
X43541100Y-21190000D01*
X38071500Y-20461100D02*
X36739000Y-21793600D01*
X36739000Y-21793600D02*
X36739000Y-24983000D01*
X43541100Y-21190000D02*
X42812200Y-20461100D01*
X42812200Y-20461100D02*
X38071500Y-20461100D01*
X36739000Y-24983000D02*
X36026700Y-25695300D01*
X36026700Y-25695300D02*
X36026700Y-25706900D01*
X36026700Y-25706900D02*
X35779100Y-25954500D01*
X35779100Y-25954500D02*
X35779100Y-60064100D01*
X35779100Y-60064100D02*
X41690062Y-65975062D01*
X41690062Y-65975062D02*
X42389362Y-65975062D01*
X42389362Y-65975062D02*
X45050300Y-68636000D01*
X39730000Y-21190000D02*
X38730000Y-21190000D01*
X38730000Y-21190000D02*
X37145700Y-22774300D01*
X37145700Y-22774300D02*
X37145700Y-25019500D01*
X41649871Y-65503371D02*
X42624671Y-65503371D01*
X37145700Y-25019500D02*
X36084200Y-26081000D01*
X36084200Y-26081000D02*
X36084200Y-59937700D01*
X36084200Y-59937700D02*
X41649871Y-65503371D01*
X42624671Y-65503371D02*
X45403800Y-68282500D01*
X45270000Y-23730000D02*
X43541100Y-23730000D01*
X36389300Y-59811100D02*
X41574826Y-64996626D01*
X43541100Y-23730000D02*
X42812200Y-23001100D01*
X42812200Y-23001100D02*
X38114700Y-23001100D01*
X38114700Y-23001100D02*
X37450900Y-23664900D01*
X37450900Y-23664900D02*
X37450900Y-25145900D01*
X37450900Y-25145900D02*
X36389300Y-26207500D01*
X36389300Y-26207500D02*
X36389300Y-59811100D01*
X41574826Y-64996626D02*
X42825126Y-64996626D01*
X42825126Y-64996626D02*
X45757400Y-67928900D01*
X39730000Y-23730000D02*
X38730000Y-23730000D01*
X38730000Y-23730000D02*
X38001100Y-24458900D01*
X38001100Y-24458900D02*
X38001100Y-25027300D01*
X38001100Y-25027300D02*
X36694400Y-26334000D01*
X41512575Y-64502875D02*
X43038375Y-64502875D01*
X36694400Y-26334000D02*
X36694400Y-59684700D01*
X36694400Y-59684700D02*
X41512575Y-64502875D01*
X43038375Y-64502875D02*
X46110900Y-67575400D01*
X45270000Y-26270000D02*
X43541100Y-26270000D01*
X43541100Y-26270000D02*
X42812200Y-25541100D01*
X42812200Y-25541100D02*
X38134600Y-25541100D01*
X38134600Y-25541100D02*
X36999500Y-26676200D01*
X36999500Y-26676200D02*
X36999500Y-59558100D01*
X36999500Y-59558100D02*
X41437531Y-63996131D01*
X41437531Y-63996131D02*
X43238831Y-63996131D01*
X43238831Y-63996131D02*
X46464500Y-67221800D01*
X39730000Y-26270000D02*
X38730000Y-26270000D01*
X38730000Y-26270000D02*
X37304600Y-27695400D01*
X37304600Y-27695400D02*
X37304600Y-59396047D01*
X37304600Y-59396047D02*
X41397939Y-63489386D01*
X41397939Y-63489386D02*
X43439086Y-63489386D01*
X43439086Y-63489386D02*
X46818000Y-66868300D01*
X45270000Y-28810000D02*
X43541100Y-28810000D01*
X42812200Y-28081100D02*
X38083700Y-28081100D01*
X43541100Y-28810000D02*
X42812200Y-28081100D01*
X41335254Y-62995635D02*
X43652535Y-62995635D01*
X38083700Y-28081100D02*
X37609700Y-28555100D01*
X37609700Y-28555100D02*
X37609700Y-59270081D01*
X37609700Y-59270081D02*
X41335254Y-62995635D01*
X43652535Y-62995635D02*
X47171600Y-66514700D01*
X17000000Y-74050000D02*
X16136100Y-74050000D01*
X2540000Y-76200000D02*
X4268900Y-76200000D01*
X4997800Y-76928900D02*
X4268900Y-76200000D01*
X13257200Y-76928900D02*
X4997800Y-76928900D01*
X16136100Y-74050000D02*
X13257200Y-76928900D01*
X4997800Y-78011100D02*
X4268900Y-78740000D01*
X4997800Y-76928900D02*
X4997800Y-78011100D01*
X2540000Y-78740000D02*
X4268900Y-78740000D01*
X38810000Y-18360000D02*
X45010000Y-18360000D01*
X45010000Y-18360000D02*
X46138900Y-18360000D01*
X65197000Y-78358700D02*
X65532000Y-78023700D01*
X59339500Y-78358700D02*
X65197000Y-78358700D01*
X59177600Y-78520600D02*
X59339500Y-78358700D01*
X58485300Y-77828400D02*
X59177600Y-78520600D01*
X44450000Y-12931400D02*
X43741500Y-13639900D01*
X44450000Y-12192000D02*
X44450000Y-12931400D01*
X58485300Y-77828400D02*
X57793100Y-77136100D01*
X57793100Y-76965200D02*
X54859400Y-74031500D01*
X57793100Y-77136100D02*
X57793100Y-76965200D01*
X56524000Y-49115100D02*
X56855400Y-49446500D01*
X46394300Y-49115100D02*
X56524000Y-49115100D01*
X44164100Y-46884900D02*
X46394300Y-49115100D01*
X44164100Y-40460000D02*
X44164100Y-46884900D01*
X42741500Y-39037400D02*
X44164100Y-40460000D01*
X42741500Y-36391600D02*
X42741500Y-39037400D01*
X47026600Y-32106500D02*
X42741500Y-36391600D01*
X47026600Y-19247700D02*
X47026600Y-32106500D01*
X46138900Y-18360000D02*
X47026600Y-19247700D01*
X44164100Y-40460000D02*
X47230000Y-40460000D01*
X33762300Y-28522300D02*
X33762300Y-26300000D01*
X34340000Y-29100000D02*
X33762300Y-28522300D01*
X34290100Y-21751000D02*
X37681100Y-18360000D01*
X34290100Y-25772200D02*
X34290100Y-21751000D01*
X33762300Y-26300000D02*
X34290100Y-25772200D01*
X38810000Y-18360000D02*
X37681100Y-18360000D01*
X45211500Y-80140900D02*
X47015566Y-80140900D01*
X43323600Y-96186865D02*
X43323600Y-81676400D01*
X43323600Y-81676400D02*
X45035300Y-79964700D01*
X45035300Y-79964700D02*
X45211500Y-80140900D01*
X43247344Y-96263121D02*
X43323600Y-96186865D01*
X43229214Y-104305494D02*
X43247344Y-104287364D01*
X5072800Y-128811100D02*
X23768800Y-128811100D01*
X23768800Y-128811100D02*
X28433800Y-124146100D01*
X48139466Y-81264800D02*
X50111900Y-81264800D01*
X36718400Y-119955600D02*
X36718400Y-112469000D01*
X36718400Y-112469000D02*
X43229214Y-105958186D01*
X43229214Y-105958186D02*
X43229214Y-104305494D01*
X28433800Y-124146100D02*
X32527900Y-124146100D01*
X32527900Y-124146100D02*
X36718400Y-119955600D01*
X4343900Y-129540000D02*
X5072800Y-128811100D01*
X2540000Y-129540000D02*
X4343900Y-129540000D01*
X43247344Y-104287364D02*
X43247344Y-96263121D01*
X47015566Y-80140900D02*
X48139466Y-81264800D01*
X92710000Y-139700000D02*
X90981100Y-139700000D01*
X90981100Y-139673031D02*
X78676769Y-127368700D01*
X78676769Y-127368700D02*
X62243200Y-127368700D01*
X90981100Y-139700000D02*
X90981100Y-139673031D01*
X62243200Y-127368700D02*
X53560600Y-118686100D01*
X56373100Y-5599300D02*
X56373100Y-6627000D01*
X51620000Y-15500000D02*
X51620000Y-14636100D01*
X60140000Y-15500000D02*
X60140000Y-16363900D01*
X51692800Y-14563300D02*
X51620000Y-14636100D01*
X53165100Y-14563300D02*
X51692800Y-14563300D01*
X53165100Y-8761100D02*
X53165100Y-14563300D01*
X55299200Y-6627000D02*
X53165100Y-8761100D01*
X56373100Y-6627000D02*
X55299200Y-6627000D01*
X56611600Y-16363900D02*
X56611600Y-17002500D01*
X54965700Y-16363900D02*
X56611600Y-16363900D01*
X53165100Y-14563300D02*
X54965700Y-16363900D01*
X56611600Y-16363900D02*
X60140000Y-16363900D01*
X12700000Y-64540000D02*
X12700000Y-66268900D01*
X8080000Y-73660000D02*
X10534200Y-73660000D01*
X10534200Y-73660000D02*
X11998800Y-72195400D01*
X12767600Y-66268900D02*
X16188300Y-69689600D01*
X12700000Y-66268900D02*
X12767600Y-66268900D01*
X12700000Y-70080000D02*
X12700000Y-72242300D01*
X8080000Y-76200000D02*
X9808900Y-76200000D01*
X9808900Y-75133400D02*
X12700000Y-72242300D01*
X9808900Y-76200000D02*
X9808900Y-75133400D01*
X36862400Y-103000100D02*
X36494000Y-103000100D01*
X30401803Y-82494099D02*
X36825900Y-88918196D01*
X27801999Y-82494099D02*
X30401803Y-82494099D01*
X36825900Y-88918196D02*
X36825900Y-96713600D01*
X37296000Y-102566500D02*
X36862400Y-103000100D01*
X37296000Y-97183700D02*
X37296000Y-102566500D01*
X18343800Y-82074800D02*
X27382700Y-82074800D01*
X27382700Y-82074800D02*
X27801999Y-82494099D01*
X36825900Y-96713600D02*
X37296000Y-97183700D01*
X36494000Y-103000100D02*
X36494000Y-103368500D01*
X9974400Y-78574500D02*
X9808900Y-78740000D01*
X16865000Y-78574500D02*
X9974400Y-78574500D01*
X17297100Y-79006600D02*
X16865000Y-78574500D01*
X17297100Y-79375000D02*
X17297100Y-79006600D01*
X18034000Y-79375000D02*
X17297100Y-79375000D01*
X8080000Y-78740000D02*
X9808900Y-78740000D01*
X17907000Y-83185000D02*
X17907000Y-82511600D01*
X18034000Y-79375000D02*
X18034000Y-80175400D01*
X36494000Y-103737000D02*
X36494000Y-103368500D01*
X35122900Y-103368500D02*
X34881400Y-103610000D01*
X36494000Y-103368500D02*
X35122900Y-103368500D01*
X34208000Y-103610000D02*
X34881400Y-103610000D01*
X17907000Y-82511600D02*
X18343800Y-82074800D01*
X18343800Y-80485200D02*
X18034000Y-80175400D01*
X18343800Y-82074800D02*
X18343800Y-80485200D01*
X16256000Y-82384600D02*
X16256000Y-79775200D01*
X16383000Y-82511600D02*
X16256000Y-82384600D01*
X16383000Y-83185000D02*
X16383000Y-82511600D01*
X16256000Y-79375000D02*
X16256000Y-79775200D01*
X4268900Y-71637100D02*
X4268900Y-71120000D01*
X4925800Y-72294000D02*
X4268900Y-71637100D01*
X8023100Y-79775200D02*
X8020500Y-79772600D01*
X16256000Y-79775200D02*
X8023100Y-79775200D01*
X2540000Y-71120000D02*
X4268900Y-71120000D01*
X36494000Y-101959000D02*
X35693600Y-101959000D01*
X35566600Y-102086000D02*
X34208000Y-102086000D01*
X35693600Y-101959000D02*
X35566600Y-102086000D01*
X34208000Y-102086000D02*
X28980100Y-102086000D01*
X2540000Y-68580000D02*
X811100Y-68580000D01*
X353800Y-69037300D02*
X811100Y-68580000D01*
X353800Y-79586600D02*
X353800Y-69037300D01*
X11499900Y-90732700D02*
X353800Y-79586600D01*
X13799900Y-90732700D02*
X11499900Y-90732700D01*
X20511400Y-97444200D02*
X13799900Y-90732700D01*
X20511400Y-97444300D02*
X20511400Y-97444200D01*
X20786500Y-97444300D02*
X20511400Y-97444300D01*
X21300300Y-97958100D02*
X20786500Y-97444300D01*
X21300300Y-98396700D02*
X21300300Y-97958100D01*
X21750300Y-98846700D02*
X21300300Y-98396700D01*
X25740800Y-98846700D02*
X21750300Y-98846700D01*
X28980100Y-102086000D02*
X25740800Y-98846700D01*
X76459400Y-106302000D02*
X76332400Y-106429000D01*
X77310000Y-106302000D02*
X76459400Y-106302000D01*
X75532000Y-106429000D02*
X76332400Y-106429000D01*
X61625400Y-150877700D02*
X61857700Y-151110000D01*
X61553400Y-150877700D02*
X61625400Y-150877700D01*
X75532000Y-106429000D02*
X75532000Y-107165900D01*
X61553400Y-149850000D02*
X61553400Y-150877700D01*
X71681100Y-111016800D02*
X75532000Y-107165900D01*
X50550400Y-24926000D02*
X50203400Y-25273000D01*
X55364000Y-24926000D02*
X50550400Y-24926000D01*
X49530000Y-25273000D02*
X50203400Y-25273000D01*
X51689800Y-79731300D02*
X52489800Y-80531300D01*
X51470936Y-79731300D02*
X51689800Y-79731300D01*
X52489800Y-82439400D02*
X53182000Y-83131700D01*
X52489800Y-80531300D02*
X52489800Y-82439400D01*
X51034532Y-79294896D02*
X51470936Y-79731300D01*
X51034532Y-79110932D02*
X51034532Y-79294896D01*
X50741100Y-78817500D02*
X51034532Y-79110932D01*
X50190200Y-78817500D02*
X50741100Y-78817500D01*
X46965900Y-75593200D02*
X50190200Y-78817500D01*
X52070000Y-29337000D02*
X51396600Y-29337000D01*
X46402100Y-34331500D02*
X46301300Y-34331500D01*
X51396600Y-29337000D02*
X46402100Y-34331500D01*
X86866000Y-135988997D02*
X82075853Y-131198850D01*
X86866000Y-140963100D02*
X86866000Y-135988997D01*
X82075853Y-131198850D02*
X81759350Y-131198850D01*
X84089200Y-116650000D02*
X85400000Y-116650000D01*
X82258400Y-118480800D02*
X84089200Y-116650000D01*
X82258400Y-119699000D02*
X82258400Y-118480800D01*
X86086900Y-140963100D02*
X86866000Y-140963100D01*
X85400000Y-141650000D02*
X86086900Y-140963100D01*
X94418700Y-154436700D02*
X92733700Y-156121700D01*
X94418700Y-146729200D02*
X94418700Y-154436700D01*
X88652600Y-140963100D02*
X94418700Y-146729200D01*
X86866000Y-140963100D02*
X88652600Y-140963100D01*
X62251200Y-66284300D02*
X79266700Y-66284300D01*
X57424600Y-71110900D02*
X62251200Y-66284300D01*
X92621400Y-89930900D02*
X87488100Y-89930900D01*
X99144800Y-96454300D02*
X92621400Y-89930900D01*
X99144800Y-98510300D02*
X99144800Y-96454300D01*
X97967000Y-99688100D02*
X99144800Y-98510300D01*
X96452500Y-99688100D02*
X97967000Y-99688100D01*
X93326900Y-102813700D02*
X96452500Y-99688100D01*
X93326900Y-109222200D02*
X93326900Y-102813700D01*
X85899100Y-116650000D02*
X93326900Y-109222200D01*
X85400000Y-116650000D02*
X85899100Y-116650000D01*
X85769000Y-91650000D02*
X85400000Y-91650000D01*
X87488100Y-89930900D02*
X85769000Y-91650000D01*
X82262500Y-79980800D02*
X82262500Y-66650000D01*
X87488100Y-85206400D02*
X82262500Y-79980800D01*
X87488100Y-89930900D02*
X87488100Y-85206400D01*
X81896800Y-66284300D02*
X82262500Y-66650000D01*
X79266700Y-66284300D02*
X81896800Y-66284300D01*
X82262500Y-66650000D02*
X85400000Y-66650000D01*
X38698400Y-59177600D02*
X38698500Y-59177600D01*
X38698500Y-59177600D02*
X38698500Y-59414100D01*
X38698500Y-59414100D02*
X41279540Y-61995140D01*
X57056200Y-64924888D02*
X57056200Y-69358000D01*
X57056200Y-69358000D02*
X57056300Y-69358000D01*
X57056300Y-69358000D02*
X56364000Y-70050300D01*
X41279540Y-61995140D02*
X45166540Y-61995140D01*
X45166540Y-61995140D02*
X45653100Y-62481700D01*
X45653100Y-62481700D02*
X54613012Y-62481700D01*
X54613012Y-62481700D02*
X57056200Y-64924888D01*
X17673600Y-58010000D02*
X18549500Y-57134100D01*
X12800000Y-58010000D02*
X17673600Y-58010000D01*
X9007700Y-89782500D02*
X9007700Y-91650000D01*
X4385300Y-85160100D02*
X9007700Y-89782500D01*
X9007700Y-91650000D02*
X10400000Y-91650000D01*
X682600Y-122498600D02*
X833000Y-122649000D01*
X682600Y-104841200D02*
X682600Y-122498600D01*
X6182000Y-99341800D02*
X682600Y-104841200D01*
X6182000Y-94475700D02*
X6182000Y-99341800D01*
X9007700Y-91650000D02*
X6182000Y-94475700D01*
X387500Y-123094500D02*
X833000Y-122649000D01*
X387500Y-139958700D02*
X387500Y-123094500D01*
X2581300Y-142152500D02*
X387500Y-139958700D01*
X9897500Y-142152500D02*
X2581300Y-142152500D01*
X9897500Y-153371700D02*
X9897500Y-142152500D01*
X13162000Y-156636200D02*
X9897500Y-153371700D01*
X9897500Y-142152500D02*
X10400000Y-141650000D01*
X4224700Y-122649000D02*
X833000Y-122649000D01*
X4384000Y-122489700D02*
X4224700Y-122649000D01*
X4384000Y-119566300D02*
X4384000Y-122489700D01*
X7300300Y-116650000D02*
X4384000Y-119566300D01*
X10400000Y-116650000D02*
X7300300Y-116650000D01*
X19522700Y-58107300D02*
X18549500Y-57134100D01*
X30857900Y-58107300D02*
X19522700Y-58107300D01*
X33988400Y-61237800D02*
X30857900Y-58107300D01*
X33988400Y-61982400D02*
X33988400Y-61237800D01*
X35228200Y-116501200D02*
X29221000Y-116501200D01*
X35377000Y-116650000D02*
X35228200Y-116501200D01*
X35201000Y-91849000D02*
X35400000Y-91650000D01*
X30107400Y-91849000D02*
X35201000Y-91849000D01*
X49408600Y-70940700D02*
X49330200Y-70862300D01*
X55869900Y-70940700D02*
X49408600Y-70940700D01*
X56025300Y-71096000D02*
X55869900Y-70940700D01*
X56717500Y-70403800D02*
X56025300Y-71096000D01*
X33348800Y-144538500D02*
X31616900Y-144538500D01*
X35400000Y-142487300D02*
X33348800Y-144538500D01*
X35400000Y-141650000D02*
X35400000Y-142487300D01*
X30888400Y-154734500D02*
X31049600Y-154895700D01*
X30888400Y-145267000D02*
X30888400Y-154734500D01*
X31616900Y-144538500D02*
X30888400Y-145267000D01*
X35400000Y-67461000D02*
X35400000Y-66650000D01*
X33347200Y-69513800D02*
X35400000Y-67461000D01*
X32006300Y-69513800D02*
X33347200Y-69513800D01*
X31767900Y-69275400D02*
X32006300Y-69513800D01*
X60400000Y-67566100D02*
X60400000Y-66650000D01*
X57900900Y-70065200D02*
X60400000Y-67566100D01*
X57763400Y-70065200D02*
X57900900Y-70065200D01*
X57763400Y-70065100D02*
X57763400Y-70065200D01*
X57071100Y-70757400D02*
X57763400Y-70065100D01*
X57071100Y-70757400D02*
X56378900Y-71449600D01*
X60634800Y-141884800D02*
X69366400Y-141884800D01*
X60400000Y-141650000D02*
X60634800Y-141884800D01*
X56180900Y-71622200D02*
X54330400Y-71622200D01*
X56353500Y-71449600D02*
X56180900Y-71622200D01*
X56378900Y-71449600D02*
X56353500Y-71449600D01*
X69497400Y-116650000D02*
X69875000Y-117027600D01*
X60400000Y-116650000D02*
X69497400Y-116650000D01*
X60218100Y-91831900D02*
X55103500Y-91831900D01*
X60400000Y-91650000D02*
X60218100Y-91831900D01*
X33857700Y-39099300D02*
X35247100Y-37709900D01*
X19609100Y-39099300D02*
X33857700Y-39099300D01*
X43824500Y-38254500D02*
X43279900Y-37709900D01*
X48941200Y-38254500D02*
X43824500Y-38254500D01*
X70073800Y-37400000D02*
X72566400Y-37400000D01*
X58797300Y-26123500D02*
X70073800Y-37400000D01*
X48931100Y-26123500D02*
X58797300Y-26123500D01*
X48856500Y-26198100D02*
X48931100Y-26123500D01*
X48856500Y-30961700D02*
X48856500Y-26198100D01*
X45687000Y-34131200D02*
X48856500Y-30961700D01*
X45687000Y-34809400D02*
X45687000Y-34131200D01*
X45777400Y-34899800D02*
X45687000Y-34809400D01*
X69733000Y-38373400D02*
X98656000Y-38373400D01*
X68723000Y-39383400D02*
X69733000Y-38373400D01*
X26692500Y-29586800D02*
X31750000Y-24529300D01*
X31750000Y-24529300D02*
X31750000Y-23593700D01*
X31750000Y-23593700D02*
X37762700Y-17581000D01*
X37762700Y-17581000D02*
X46029400Y-17581000D01*
X47637300Y-19188900D02*
X47637300Y-20356700D01*
X47637300Y-20356700D02*
X51327700Y-24047100D01*
X51327700Y-24047100D02*
X57152600Y-24047100D01*
X22786000Y-29586800D02*
X26692500Y-29586800D01*
X46029400Y-17581000D02*
X47637300Y-19188900D01*
X66784500Y-33679000D02*
X85404100Y-33679000D01*
X85404100Y-33679000D02*
X89551900Y-37826800D01*
X57152600Y-24047100D02*
X66784500Y-33679000D01*
X32676400Y-47847400D02*
X34076100Y-49247100D01*
X20024800Y-47847400D02*
X32676400Y-47847400D01*
X49015600Y-42271100D02*
X49209500Y-42465000D01*
X45582500Y-42271100D02*
X49015600Y-42271100D01*
X44700400Y-43153200D02*
X45582500Y-42271100D01*
X44700400Y-45384100D02*
X44700400Y-43153200D01*
X72803600Y-48809900D02*
X72822600Y-48790900D01*
X46853400Y-48809900D02*
X72803600Y-48809900D01*
X44723000Y-46679500D02*
X46853400Y-48809900D01*
X44723000Y-46638000D02*
X44723000Y-46679500D01*
X72143800Y-46222600D02*
X69826600Y-46222600D01*
X74921900Y-43444500D02*
X72143800Y-46222600D01*
X97440100Y-43444500D02*
X74921900Y-43444500D01*
X72395900Y-54511300D02*
X81049600Y-54511300D01*
X71260500Y-53375900D02*
X72395900Y-54511300D01*
X71260500Y-52782200D02*
X71260500Y-53375900D01*
X69557400Y-51079100D02*
X71260500Y-52782200D01*
X60672400Y-51079100D02*
X69557400Y-51079100D01*
X53050700Y-58700800D02*
X60672400Y-51079100D01*
X43713900Y-58700800D02*
X53050700Y-58700800D01*
X38457900Y-53444800D02*
X43713900Y-58700800D01*
X14227100Y-59322400D02*
X29565100Y-59322400D01*
X13645600Y-59903900D02*
X14227100Y-59322400D01*
X33473700Y-69819000D02*
X38465000Y-64827700D01*
X18449000Y-69819000D02*
X33473700Y-69819000D01*
X13673400Y-65043400D02*
X18449000Y-69819000D01*
X44655100Y-59784400D02*
X39836100Y-59784400D01*
X45581400Y-60710700D02*
X44655100Y-59784400D01*
X63328900Y-60710700D02*
X45581400Y-60710700D01*
X63418200Y-60800000D02*
X63328900Y-60710700D01*
X62025900Y-64242300D02*
X61752800Y-63969200D01*
X84743100Y-64242300D02*
X62025900Y-64242300D01*
X85938900Y-63046500D02*
X84743100Y-64242300D01*
X11906700Y-84916100D02*
X13634600Y-84916100D01*
X6350200Y-79359600D02*
X11906700Y-84916100D01*
X6350200Y-78087300D02*
X6350200Y-79359600D01*
X6428200Y-78009300D02*
X6350200Y-78087300D01*
X16408100Y-78009300D02*
X6428200Y-78009300D01*
X16542300Y-78143500D02*
X16408100Y-78009300D01*
X19711400Y-78143500D02*
X16542300Y-78143500D01*
X20532900Y-77322000D02*
X19711400Y-78143500D01*
X28633700Y-77322000D02*
X20532900Y-77322000D01*
X28849400Y-77106300D02*
X28633700Y-77322000D01*
X38665600Y-77106300D02*
X28849400Y-77106300D01*
X40226800Y-75545100D02*
X38665600Y-77106300D01*
X43809500Y-75545100D02*
X40226800Y-75545100D01*
X45730100Y-73624500D02*
X43809500Y-75545100D01*
X46255500Y-73624500D02*
X45730100Y-73624500D01*
X80514600Y-63108800D02*
X83608800Y-63108800D01*
X70059500Y-52653700D02*
X80514600Y-63108800D01*
X70059500Y-52012900D02*
X70059500Y-52653700D01*
X69433700Y-51387100D02*
X70059500Y-52012900D01*
X61384700Y-51387100D02*
X69433700Y-51387100D01*
X52650800Y-60121000D02*
X61384700Y-51387100D01*
X46255500Y-60121000D02*
X52650800Y-60121000D01*
X28416316Y-87236284D02*
X34024916Y-87236284D01*
X11419100Y-89230000D02*
X26422600Y-89230000D01*
X26422600Y-89230000D02*
X28416316Y-87236284D01*
X11110600Y-88921500D02*
X11419100Y-89230000D01*
X51120600Y-100265100D02*
X46373400Y-95517900D01*
X53664700Y-100265100D02*
X51120600Y-100265100D01*
X56143500Y-97786300D02*
X53664700Y-100265100D01*
X56143500Y-94572700D02*
X56143500Y-97786300D01*
X58249200Y-92467000D02*
X56143500Y-94572700D01*
X60680900Y-92467000D02*
X58249200Y-92467000D01*
X61171900Y-91976000D02*
X60680900Y-92467000D01*
X61171900Y-90465900D02*
X61171900Y-91976000D01*
X61119800Y-90413800D02*
X61171900Y-90465900D01*
X39062800Y-92120600D02*
X39062800Y-90789700D01*
X42070900Y-95128700D02*
X39062800Y-92120600D01*
X64421600Y-85572900D02*
X86446000Y-85572900D01*
X62984000Y-87010500D02*
X64421600Y-85572900D01*
X17138500Y-110385100D02*
X15818100Y-111705500D01*
X37306100Y-110385100D02*
X17138500Y-110385100D01*
X41641700Y-106049500D02*
X37306100Y-110385100D01*
X42173700Y-106049500D02*
X41641700Y-106049500D01*
X72018100Y-89228900D02*
X68722500Y-92524500D01*
X82519100Y-89228900D02*
X72018100Y-89228900D01*
X83441200Y-88306800D02*
X82519100Y-89228900D01*
X62471700Y-108425500D02*
X44290100Y-108425500D01*
X68561400Y-102335800D02*
X62471700Y-108425500D01*
X37521200Y-110771000D02*
X37594700Y-110844500D01*
X20193800Y-110771000D02*
X37521200Y-110771000D01*
X17050500Y-113914300D02*
X20193800Y-110771000D01*
X12969100Y-113914300D02*
X17050500Y-113914300D01*
X41002300Y-112476300D02*
X40480500Y-112476300D01*
X44529200Y-108949400D02*
X41002300Y-112476300D01*
X61360100Y-108949400D02*
X44529200Y-108949400D01*
X63440900Y-111030200D02*
X61360100Y-108949400D01*
X82185300Y-114231100D02*
X84045500Y-112370900D01*
X61032600Y-114231100D02*
X82185300Y-114231100D01*
X60959000Y-114157500D02*
X61032600Y-114231100D01*
X85728900Y-114927700D02*
X85304636Y-114927700D01*
X85304636Y-114927700D02*
X85237736Y-114860800D01*
X45080870Y-114860800D02*
X25274970Y-134666700D01*
X85237736Y-114860800D02*
X45080870Y-114860800D01*
X25274970Y-134666700D02*
X14806700Y-134666700D01*
X38332400Y-135713800D02*
X38418600Y-135800000D01*
X14141000Y-135713800D02*
X38332400Y-135713800D01*
X12109500Y-137745300D02*
X14141000Y-135713800D01*
X46226100Y-138814000D02*
X46679400Y-139267300D01*
X35954500Y-138774400D02*
X35994100Y-138814000D01*
X35994100Y-138814000D02*
X46226100Y-138814000D01*
X52783900Y-136765200D02*
X62191100Y-136765200D01*
X51709900Y-137839200D02*
X52783900Y-136765200D01*
X85118868Y-135420500D02*
X85952403Y-136254035D01*
X64308400Y-135420500D02*
X85118868Y-135420500D01*
X60976700Y-138752200D02*
X64308400Y-135420500D01*
X81647600Y-135725700D02*
X83671100Y-137749200D01*
X65415900Y-135725700D02*
X81647600Y-135725700D01*
X61570700Y-139570900D02*
X65415900Y-135725700D01*
X51706500Y-139570900D02*
X61570700Y-139570900D01*
X69348300Y-157029800D02*
X45413200Y-157029800D01*
X71841000Y-154537100D02*
X69348300Y-157029800D01*
X7907800Y-33528000D02*
X6436400Y-34999400D01*
X25103565Y-17250400D02*
X17902971Y-24450994D01*
X17902971Y-30933407D02*
X15308378Y-33528000D01*
X17902971Y-24450994D02*
X17902971Y-30933407D01*
X25103565Y-17250400D02*
X46130500Y-17250400D01*
X3500000Y-34999400D02*
X6436400Y-34999400D01*
X47946300Y-20180900D02*
X51407800Y-23642400D01*
X47946300Y-19066200D02*
X47946300Y-20180900D01*
X46130500Y-17250400D02*
X47946300Y-19066200D01*
X51407800Y-23642400D02*
X58738200Y-23642400D01*
X58738200Y-23642400D02*
X63975000Y-28879200D01*
X63975000Y-28879200D02*
X65460800Y-28879200D01*
X65460800Y-28879200D02*
X67619400Y-31037800D01*
X15308378Y-33528000D02*
X7907800Y-33528000D01*
X67619400Y-31170700D02*
X68230600Y-31781900D01*
X68230600Y-31781900D02*
X87573100Y-31781900D01*
X87573100Y-31781900D02*
X89495000Y-29860000D01*
X67619400Y-31037800D02*
X67619400Y-31170700D01*
X89635600Y-30000600D02*
X89495000Y-29860000D01*
X96500000Y-30000600D02*
X89635600Y-30000600D01*
X68116800Y-75703800D02*
X72555800Y-71264800D01*
X65722800Y-75703800D02*
X68116800Y-75703800D01*
X64137300Y-77289300D02*
X65722800Y-75703800D01*
X60408900Y-77289300D02*
X64137300Y-77289300D01*
X60238200Y-77460000D02*
X60408900Y-77289300D01*
X59545900Y-76767800D02*
X60238200Y-77460000D01*
X45170700Y-86193200D02*
X45170700Y-96826471D01*
X45170700Y-96826471D02*
X45376265Y-97032036D01*
X45376265Y-97032036D02*
X45376265Y-97456300D01*
X47525100Y-83838800D02*
X45170700Y-86193200D01*
X30168307Y-135213500D02*
X44024862Y-121356945D01*
X13880400Y-135213500D02*
X30168307Y-135213500D01*
X9393900Y-139700000D02*
X13880400Y-135213500D01*
X7590000Y-139700000D02*
X9393900Y-139700000D01*
X38939000Y-112406300D02*
X44771399Y-106573901D01*
X44771399Y-106573901D02*
X44771399Y-96894401D01*
X5072800Y-137888900D02*
X9891375Y-137888900D01*
X25743185Y-133320100D02*
X38939000Y-120124285D01*
X14460175Y-133320100D02*
X25743185Y-133320100D01*
X4343900Y-137160000D02*
X5072800Y-137888900D01*
X2540000Y-137160000D02*
X4343900Y-137160000D01*
X9891375Y-137888900D02*
X14460175Y-133320100D01*
X38939000Y-120124285D02*
X38939000Y-112406300D01*
X44771399Y-96894401D02*
X44857032Y-96808768D01*
X44857032Y-96808768D02*
X44857032Y-85799868D01*
X44857032Y-85799868D02*
X47171600Y-83485300D01*
X44466588Y-106447112D02*
X44466588Y-96767612D01*
X44466588Y-96767612D02*
X44544000Y-96690200D01*
X44544000Y-96690200D02*
X44544000Y-85405700D01*
X38586000Y-112327700D02*
X44466588Y-106447112D01*
X38586000Y-119916006D02*
X38586000Y-112327700D01*
X25786624Y-132715382D02*
X38586000Y-119916006D01*
X9727359Y-137160000D02*
X14171977Y-132715382D01*
X14171977Y-132715382D02*
X25786624Y-132715382D01*
X7590000Y-137160000D02*
X9727359Y-137160000D01*
X44544000Y-85405700D02*
X46818000Y-83131700D01*
X44238900Y-85003800D02*
X46464500Y-82778200D01*
X44238900Y-96564766D02*
X44238900Y-85003800D01*
X44161777Y-96641889D02*
X44238900Y-96564766D01*
X44161777Y-106318822D02*
X44161777Y-96641889D01*
X38280800Y-119790139D02*
X38280800Y-112199799D01*
X25827441Y-132243498D02*
X38280800Y-119790139D01*
X13878702Y-132243498D02*
X25827441Y-132243498D01*
X12550000Y-133572200D02*
X13878702Y-132243498D01*
X2540000Y-134620000D02*
X4343900Y-134620000D01*
X5391700Y-133572200D02*
X12550000Y-133572200D01*
X38280800Y-112199799D02*
X44161777Y-106318822D01*
X4343900Y-134620000D02*
X5391700Y-133572200D01*
X46110900Y-82424600D02*
X46070532Y-82424600D01*
X46070532Y-82424600D02*
X45127566Y-83367566D01*
X7590000Y-134620000D02*
X5786100Y-134620000D01*
X17741200Y-107962400D02*
X30163900Y-107962400D01*
X11576900Y-114126700D02*
X17741200Y-107962400D01*
X11576900Y-116957900D02*
X11576900Y-114126700D01*
X10828600Y-117706200D02*
X11576900Y-116957900D01*
X9689000Y-117706200D02*
X10828600Y-117706200D01*
X9383900Y-117401100D02*
X9689000Y-117706200D01*
X7416100Y-117401100D02*
X9383900Y-117401100D01*
X5058100Y-119759100D02*
X7416100Y-117401100D01*
X5058100Y-124390600D02*
X5058100Y-119759100D01*
X4083200Y-125365500D02*
X5058100Y-124390600D01*
X1749500Y-125365500D02*
X4083200Y-125365500D01*
X736000Y-126379000D02*
X1749500Y-125365500D01*
X736000Y-135253300D02*
X736000Y-126379000D01*
X831600Y-135348900D02*
X736000Y-135253300D01*
X5057200Y-135348900D02*
X831600Y-135348900D01*
X5786100Y-134620000D02*
X5057200Y-135348900D01*
X11638690Y-131620610D02*
X25916690Y-131620610D01*
X43933800Y-83779002D02*
X45641702Y-82071100D01*
X43856966Y-106192567D02*
X43856966Y-96515633D01*
X45641702Y-82071100D02*
X45757400Y-82071100D01*
X5072800Y-132808900D02*
X10450400Y-132808900D01*
X43933800Y-96438799D02*
X43933800Y-83779002D01*
X43856966Y-96515633D02*
X43933800Y-96438799D01*
X10450400Y-132808900D02*
X11638690Y-131620610D01*
X4343900Y-132080000D02*
X5072800Y-132808900D01*
X37975700Y-112073833D02*
X43856966Y-106192567D01*
X25916690Y-131620610D02*
X37975700Y-119561600D01*
X37975700Y-119561600D02*
X37975700Y-112073833D01*
X2540000Y-132080000D02*
X4343900Y-132080000D01*
X37670600Y-111947867D02*
X43552155Y-106066312D01*
X37670600Y-119435000D02*
X37670600Y-111947867D01*
X26212022Y-130893578D02*
X37670600Y-119435000D01*
X43628700Y-83492600D02*
X45403800Y-81717500D01*
X43628700Y-96312832D02*
X43628700Y-83492600D01*
X43552155Y-106066312D02*
X43552155Y-96389377D01*
X9393900Y-132080000D02*
X10580322Y-130893578D01*
X7590000Y-132080000D02*
X9393900Y-132080000D01*
X10580322Y-130893578D02*
X26212022Y-130893578D01*
X43552155Y-96389377D02*
X43628700Y-96312832D01*
X47665081Y-79652400D02*
X48128803Y-80116122D01*
X48128803Y-80116122D02*
X49605848Y-80116122D01*
X49742741Y-79979229D02*
X51189729Y-79979229D01*
X44723100Y-79652400D02*
X47665081Y-79652400D01*
X44681800Y-79611100D02*
X44723100Y-79652400D01*
X51189729Y-79979229D02*
X51503300Y-80292800D01*
X42794700Y-95965000D02*
X42904900Y-95854800D01*
X42904900Y-95854800D02*
X42904900Y-81388000D01*
X49605848Y-80116122D02*
X49742741Y-79979229D01*
X42904900Y-81388000D02*
X44681800Y-79611100D01*
X66860000Y-15500000D02*
X66313600Y-15500000D01*
X63588600Y-20368800D02*
X63344000Y-20613400D01*
X63588600Y-18225000D02*
X63588600Y-20368800D01*
X66313600Y-15500000D02*
X63588600Y-18225000D01*
X25755600Y-129540000D02*
X7590000Y-129540000D01*
X30540200Y-124755400D02*
X25755600Y-129540000D01*
X95792200Y-138971100D02*
X96521100Y-139700000D01*
X90980800Y-138971100D02*
X95792200Y-138971100D01*
X78324400Y-126314700D02*
X90980800Y-138971100D01*
X66260400Y-126314700D02*
X78324400Y-126314700D01*
X62167400Y-122221700D02*
X66260400Y-126314700D01*
X57860600Y-122221700D02*
X62167400Y-122221700D01*
X53223800Y-117584900D02*
X57860600Y-122221700D01*
X45359400Y-117584900D02*
X53223800Y-117584900D01*
X44384500Y-116610000D02*
X45359400Y-117584900D01*
X98250000Y-139700000D02*
X96521100Y-139700000D01*
X39730000Y-28810000D02*
X39730000Y-29462400D01*
X39730000Y-29462400D02*
X37914900Y-31277500D01*
X37914900Y-31277500D02*
X37914900Y-59144215D01*
X37914900Y-59144215D02*
X41259576Y-62488891D01*
X41259576Y-62488891D02*
X43852791Y-62488891D01*
X43852791Y-62488891D02*
X47525100Y-66161200D01*
X94804600Y-11877800D02*
X96887200Y-13960400D01*
X91000000Y-11877800D02*
X94804600Y-11877800D01*
X98000000Y-13960400D02*
X96887200Y-13960400D01*
X7320300Y-12192000D02*
X11239500Y-12192000D01*
X11239500Y-12192000D02*
X11430000Y-12192000D01*
X64904000Y-24996000D02*
X67610900Y-24996000D01*
X69215000Y-26535400D02*
X69215000Y-25407300D01*
X68834000Y-24130000D02*
X68385900Y-24578100D01*
X68028800Y-24578100D02*
X68385900Y-24578100D01*
X67610900Y-24996000D02*
X68028800Y-24578100D01*
X68385900Y-24578100D02*
X69215000Y-25407300D01*
X71150900Y-71734000D02*
X71703600Y-71181300D01*
X65242200Y-71734000D02*
X71150900Y-71734000D01*
X65070800Y-71562600D02*
X65242200Y-71734000D01*
X60508500Y-71562600D02*
X65070800Y-71562600D01*
X59192400Y-72878700D02*
X60508500Y-71562600D01*
X59899500Y-76414200D02*
X59207300Y-75722000D01*
X59720200Y-75476700D02*
X60405500Y-74791400D01*
X59452600Y-75476700D02*
X59720200Y-75476700D01*
X59207300Y-75722000D02*
X59452600Y-75476700D01*
X56010400Y-69696700D02*
X55424391Y-70282709D01*
X55424391Y-70282709D02*
X51694199Y-70282709D01*
X51694199Y-70282709D02*
X51394200Y-69982710D01*
X59224100Y-4727100D02*
X59126900Y-4727100D01*
X59546400Y-5049400D02*
X59224100Y-4727100D01*
X59126900Y-3699400D02*
X59126900Y-4727100D01*
X49004400Y-68598400D02*
X48036800Y-68598400D01*
X48036800Y-68598400D02*
X44118500Y-72516700D01*
X44118500Y-72516700D02*
X44114000Y-72516700D01*
X44114000Y-72516700D02*
X44083300Y-72547400D01*
X44083300Y-72547400D02*
X43287500Y-72547400D01*
X43287500Y-72547400D02*
X42977700Y-72237600D01*
X42977700Y-72237600D02*
X42977700Y-72220400D01*
X42977700Y-72220400D02*
X42914100Y-72156700D01*
X42914100Y-72156700D02*
X42221800Y-71464500D01*
X49626900Y-3699400D02*
X48274000Y-3699400D01*
X48274000Y-7186500D02*
X47382300Y-8078200D01*
X48274000Y-3699400D02*
X48274000Y-7186500D01*
X65873100Y-5599300D02*
X65873100Y-6627000D01*
X67760000Y-15500000D02*
X67760000Y-14636100D01*
X66515400Y-6627000D02*
X65873100Y-6627000D01*
X67229000Y-7340600D02*
X66515400Y-6627000D01*
X67229000Y-14105100D02*
X67229000Y-7340600D01*
X67760000Y-14636100D02*
X67229000Y-14105100D01*
X55020100Y-14226200D02*
X55430000Y-14636100D01*
X55020100Y-7337800D02*
X55020100Y-14226200D01*
X55086400Y-7271500D02*
X55020100Y-7337800D01*
X57601200Y-7271500D02*
X55086400Y-7271500D01*
X57757100Y-7427400D02*
X57601200Y-7271500D01*
X60711000Y-7427400D02*
X57757100Y-7427400D01*
X61511400Y-6627000D02*
X60711000Y-7427400D01*
X65873100Y-6627000D02*
X61511400Y-6627000D01*
X55430000Y-15500000D02*
X55430000Y-14636100D01*
X57829700Y-14636100D02*
X58693600Y-15500000D01*
X55430000Y-14636100D02*
X57829700Y-14636100D01*
X59240000Y-15500000D02*
X58693600Y-15500000D01*
X46739700Y-75064300D02*
X46432500Y-74757100D01*
X46432500Y-74757100D02*
X45909800Y-74757100D01*
X45909800Y-74757100D02*
X45728600Y-74575900D01*
X45728600Y-74575900D02*
X45620300Y-74575900D01*
X45620300Y-74575900D02*
X45575800Y-74531400D01*
X47185100Y-75064300D02*
X46739700Y-75064300D01*
X47355200Y-75234400D02*
X47185100Y-75064300D01*
X48946500Y-76726100D02*
X47454800Y-75234400D01*
X47454800Y-75234400D02*
X47355200Y-75234400D01*
X54596200Y-81717500D02*
X53815458Y-80936758D01*
X53815458Y-80936758D02*
X53815458Y-80545926D01*
X53815458Y-80545926D02*
X53742767Y-80473233D01*
X53742767Y-80473233D02*
X49995636Y-76726100D01*
X49995636Y-76726100D02*
X48946500Y-76726100D01*
X26760600Y-40980200D02*
X34934800Y-49154400D01*
X25614100Y-40980200D02*
X26760600Y-40980200D01*
X52828400Y-83485300D02*
X52136200Y-82793000D01*
X51741400Y-82581400D02*
X51366200Y-82206200D01*
X51924500Y-82581400D02*
X51741400Y-82581400D01*
X52136200Y-82793000D02*
X51924500Y-82581400D01*
X63050000Y-15500000D02*
X63050000Y-16363900D01*
X59899500Y-73585800D02*
X60591700Y-72893600D01*
X63050000Y-9769500D02*
X63050000Y-15500000D01*
X64520200Y-8299300D02*
X63050000Y-9769500D01*
X65873100Y-8299300D02*
X64520200Y-8299300D01*
X62966100Y-16447800D02*
X63050000Y-16363900D01*
X62966100Y-16724700D02*
X62966100Y-16447800D01*
X63936200Y-72893600D02*
X64729400Y-72100400D01*
X60591700Y-72893600D02*
X63936200Y-72893600D01*
X56373100Y-8299300D02*
X57725900Y-8299300D01*
X54040000Y-17540000D02*
X59422200Y-17540000D01*
X59422200Y-17540000D02*
X60544700Y-16417500D01*
X57725900Y-11759600D02*
X57725900Y-8299300D01*
X60711400Y-14745100D02*
X57725900Y-11759600D01*
X60711400Y-16250800D02*
X60711400Y-14745100D01*
X60544700Y-16417500D02*
X60711400Y-16250800D01*
X60544700Y-16417500D02*
X61627800Y-17500600D01*
X60673600Y-72104500D02*
X63769400Y-72104500D01*
X59545900Y-73232200D02*
X60673600Y-72104500D01*
X52070000Y-27813000D02*
X52743400Y-27813000D01*
X53090400Y-27466000D02*
X55364000Y-27466000D01*
X52743400Y-27813000D02*
X53090400Y-27466000D01*
X55364000Y-27466000D02*
X56544900Y-27466000D01*
X59182000Y-20169000D02*
X56544900Y-22806100D01*
X59182000Y-19050000D02*
X59182000Y-20169000D01*
X47878700Y-84192400D02*
X45887400Y-86183700D01*
X45887400Y-92618100D02*
X45475800Y-93029700D01*
X45887400Y-86183700D02*
X45887400Y-92618100D01*
X45475800Y-95921800D02*
X50242900Y-100688900D01*
X45475800Y-93029700D02*
X45475800Y-95921800D01*
X50242900Y-100688900D02*
X50242900Y-103641100D01*
X50242900Y-103641100D02*
X45987400Y-107896600D01*
X45987400Y-107896600D02*
X44071100Y-107896600D01*
X44071100Y-107896600D02*
X43741700Y-108226000D01*
X39396700Y-112812000D02*
X39396700Y-120113903D01*
X43741700Y-108467000D02*
X39396700Y-112812000D01*
X43741700Y-108226000D02*
X43741700Y-108467000D01*
X39396700Y-120113903D02*
X25669503Y-133841100D01*
X4343900Y-139700000D02*
X2540000Y-139700000D01*
X25669503Y-133841100D02*
X14601400Y-133841100D01*
X9471400Y-138971100D02*
X5072800Y-138971100D01*
X14601400Y-133841100D02*
X9471400Y-138971100D01*
X5072800Y-138971100D02*
X4343900Y-139700000D01*
X51767800Y-65454100D02*
X50877200Y-66344700D01*
X40032400Y-103554000D02*
X39326400Y-102848000D01*
X40908000Y-103554000D02*
X40032400Y-103554000D01*
X38526000Y-102848000D02*
X39326400Y-102848000D01*
X50877200Y-66344700D02*
X50650800Y-66344700D01*
X38526000Y-89740800D02*
X38526000Y-102848000D01*
X30112300Y-81327100D02*
X38526000Y-89740800D01*
X38455200Y-47617000D02*
X38455200Y-46742800D01*
X49006600Y-58168400D02*
X38455200Y-47617000D01*
X50198100Y-58168400D02*
X49006600Y-58168400D01*
X51429100Y-67718990D02*
X50370200Y-68777890D01*
X51429100Y-66499800D02*
X51429100Y-67718990D01*
X52121300Y-65807600D02*
X51429100Y-66499800D01*
X17145000Y-77343000D02*
X17513500Y-77343000D01*
X18045600Y-77343000D02*
X18426600Y-76962000D01*
X17513500Y-77343000D02*
X18045600Y-77343000D01*
X18858800Y-76962000D02*
X18426600Y-76962000D01*
X18858800Y-76962000D02*
X19100000Y-76962000D01*
X19100000Y-76962000D02*
X21557400Y-76962000D01*
X21557400Y-76962000D02*
X22018000Y-76501400D01*
X22018000Y-72586700D02*
X23087400Y-71517300D01*
X22018000Y-76501400D02*
X22018000Y-72586700D01*
X22300600Y-76784000D02*
X22018000Y-76501400D01*
X38556200Y-76784000D02*
X22300600Y-76784000D01*
X40511500Y-74828700D02*
X38556200Y-76784000D01*
X43741600Y-74828700D02*
X40511500Y-74828700D01*
X46062300Y-72508000D02*
X43741600Y-74828700D01*
X48469500Y-72508000D02*
X46062300Y-72508000D01*
X49488400Y-73526900D02*
X48469500Y-72508000D01*
X49928000Y-73526900D02*
X49488400Y-73526900D01*
X9393900Y-125599200D02*
X9393900Y-127000000D01*
X13102600Y-121890500D02*
X9393900Y-125599200D01*
X14133500Y-121890500D02*
X13102600Y-121890500D01*
X7590000Y-127000000D02*
X9393900Y-127000000D01*
X43282500Y-79596200D02*
X42590300Y-80288400D01*
X30402700Y-80288400D02*
X42590300Y-80288400D01*
X29156900Y-81534200D02*
X30402700Y-80288400D01*
X28551300Y-81534200D02*
X29156900Y-81534200D01*
X37361700Y-96817800D02*
X37361700Y-89022930D01*
X19633500Y-105638500D02*
X36003100Y-105638500D01*
X11271800Y-114000200D02*
X19633500Y-105638500D01*
X30324600Y-79934800D02*
X42236700Y-79934800D01*
X29519200Y-80740200D02*
X30324600Y-79934800D01*
X10702100Y-117401100D02*
X11271800Y-116831400D01*
X37666800Y-103974800D02*
X37666800Y-97122900D01*
X42236700Y-79934800D02*
X42928900Y-79242600D01*
X28597300Y-80740200D02*
X29519200Y-80740200D01*
X28022400Y-81769800D02*
X28022400Y-81315100D01*
X28327400Y-82074800D02*
X28022400Y-81769800D01*
X37361700Y-89022930D02*
X30413570Y-82074800D01*
X37666800Y-97122900D02*
X37361700Y-96817800D01*
X11271800Y-116831400D02*
X11271800Y-114000200D01*
X36003100Y-105638500D02*
X37666800Y-103974800D01*
X9968200Y-117401100D02*
X10702100Y-117401100D01*
X7358400Y-117023500D02*
X9590600Y-117023500D01*
X9590600Y-117023500D02*
X9968200Y-117401100D01*
X4752900Y-119629000D02*
X7358400Y-117023500D01*
X4752900Y-123322100D02*
X4752900Y-119629000D01*
X3615000Y-124460000D02*
X4752900Y-123322100D01*
X30413570Y-82074800D02*
X28327400Y-82074800D01*
X2540000Y-124460000D02*
X3615000Y-124460000D01*
X28022400Y-81315100D02*
X28597300Y-80740200D01*
X78126900Y-12043100D02*
X78126900Y-8698100D01*
X74930000Y-15240000D02*
X78126900Y-12043100D01*
X75373100Y-2398900D02*
X75373100Y-5599300D01*
X80605100Y-15074600D02*
X81026000Y-15074600D01*
X80352600Y-14822100D02*
X80605100Y-15074600D01*
X80352600Y-8671300D02*
X80352600Y-14822100D01*
X79108500Y-7427200D02*
X80352600Y-8671300D01*
X76848600Y-7427200D02*
X79108500Y-7427200D01*
X76048400Y-6627000D02*
X76848600Y-7427200D01*
X75373100Y-6627000D02*
X76048400Y-6627000D01*
X75373100Y-5599300D02*
X75373100Y-6627000D01*
X81026000Y-15748000D02*
X81026000Y-15074600D01*
X16757200Y-55390000D02*
X18534400Y-53612800D01*
X14570000Y-55390000D02*
X16757200Y-55390000D01*
X18534400Y-52500000D02*
X18534400Y-53612800D01*
X27500000Y-52500000D02*
X27500000Y-53612800D01*
X34517300Y-60630100D02*
X27500000Y-53612800D01*
X34517300Y-67282700D02*
X34517300Y-60630100D01*
X33050000Y-68750000D02*
X34517300Y-67282700D01*
X68420800Y-56553200D02*
X68420800Y-52500000D01*
X60734300Y-64239700D02*
X68420800Y-56553200D01*
X60734300Y-65244900D02*
X60734300Y-64239700D01*
X58050000Y-67929200D02*
X60734300Y-65244900D01*
X58050000Y-68750000D02*
X58050000Y-67929200D01*
X81579200Y-56586700D02*
X81579200Y-52500000D01*
X86467800Y-61475300D02*
X81579200Y-56586700D01*
X86467800Y-66645000D02*
X86467800Y-61475300D01*
X84362800Y-68750000D02*
X86467800Y-66645000D01*
X83050000Y-68750000D02*
X84362800Y-68750000D01*
X15823200Y-93750000D02*
X18460400Y-96387200D01*
X8050000Y-93750000D02*
X15823200Y-93750000D01*
X18460400Y-97500000D02*
X18460400Y-96387200D01*
X29300000Y-97500000D02*
X27937400Y-97500000D01*
X33050000Y-93750000D02*
X29300000Y-97500000D01*
X61800000Y-97500000D02*
X68937400Y-97500000D01*
X58050000Y-93750000D02*
X61800000Y-97500000D01*
X86800000Y-97500000D02*
X93937400Y-97500000D01*
X83050000Y-93750000D02*
X86800000Y-97500000D01*
X11741100Y-118750000D02*
X8050000Y-118750000D01*
X15491100Y-122500000D02*
X11741100Y-118750000D01*
X18280400Y-122500000D02*
X15491100Y-122500000D01*
X29277000Y-122500000D02*
X27937400Y-122500000D01*
X33027000Y-118750000D02*
X29277000Y-122500000D01*
X66300200Y-118750000D02*
X68937400Y-121387200D01*
X58050000Y-118750000D02*
X66300200Y-118750000D01*
X68937400Y-122500000D02*
X68937400Y-121387200D01*
X89059300Y-118750000D02*
X92809300Y-122500000D01*
X83050000Y-118750000D02*
X89059300Y-118750000D01*
X93937400Y-122500000D02*
X92809300Y-122500000D01*
X6960400Y-144839600D02*
X6960400Y-147500000D01*
X8050000Y-143750000D02*
X6960400Y-144839600D01*
X30574600Y-143750000D02*
X27937400Y-146387200D01*
X33050000Y-143750000D02*
X30574600Y-143750000D01*
X27937400Y-147500000D02*
X27937400Y-146387200D01*
X66300200Y-143750000D02*
X68937400Y-146387200D01*
X58050000Y-143750000D02*
X66300200Y-143750000D01*
X68937400Y-147500000D02*
X68937400Y-146387200D01*
X87050000Y-147750000D02*
X89210400Y-147750000D01*
X83050000Y-143750000D02*
X87050000Y-147750000D01*
X31190000Y-89549600D02*
X30077200Y-89549600D01*
X29137800Y-88610200D02*
X28684500Y-88610200D01*
X30077200Y-89549600D02*
X29137800Y-88610200D01*
X69850000Y-10948900D02*
X68626900Y-9725800D01*
X69850000Y-15240000D02*
X69850000Y-10948900D01*
X68626900Y-8698100D02*
X68626900Y-9725800D01*
X67254200Y-148822300D02*
X69249600Y-148822300D01*
X65148300Y-146716400D02*
X67254200Y-148822300D01*
X59776000Y-146716400D02*
X65148300Y-146716400D01*
X55189100Y-142129500D02*
X59776000Y-146716400D01*
X52474900Y-83838800D02*
X51782700Y-83146500D01*
X69249600Y-149850000D02*
X69249600Y-148822300D01*
X51395400Y-83203100D02*
X51347100Y-83251400D01*
X51726100Y-83203100D02*
X51395400Y-83203100D01*
X51782700Y-83146500D02*
X51726100Y-83203100D01*
X21165800Y-25824200D02*
X22860000Y-24130000D01*
X21165800Y-30919800D02*
X21165800Y-25824200D01*
X21682400Y-31436400D02*
X21165800Y-30919800D01*
X29463600Y-31436400D02*
X21682400Y-31436400D01*
X31800000Y-29100000D02*
X29463600Y-31436400D01*
X31800000Y-27337700D02*
X31800000Y-29100000D01*
X32837700Y-26300000D02*
X31800000Y-27337700D01*
X65832900Y-28345300D02*
X68102200Y-30614600D01*
X65832900Y-27536000D02*
X65832900Y-28345300D01*
X69215000Y-30614600D02*
X68102200Y-30614600D01*
X64904000Y-27536000D02*
X65832900Y-27536000D01*
X71602700Y-29339700D02*
X70327800Y-30614600D01*
X71602700Y-27547700D02*
X71602700Y-29339700D01*
X69215000Y-30614600D02*
X70327800Y-30614600D01*
X66205400Y-17780000D02*
X64935400Y-19050000D01*
X69850000Y-17780000D02*
X66205400Y-17780000D01*
X64262000Y-19050000D02*
X64935400Y-19050000D01*
X71394700Y-10924800D02*
X74020200Y-8299300D01*
X71394700Y-16784700D02*
X71394700Y-10924800D01*
X72390000Y-17780000D02*
X71394700Y-16784700D01*
X75373100Y-8299300D02*
X74020200Y-8299300D01*
X70104000Y-22606000D02*
X68834000Y-22606000D01*
X74930000Y-17780000D02*
X70104000Y-22606000D01*
X88148000Y-10221400D02*
X86225900Y-8299300D01*
X88148000Y-15856400D02*
X88148000Y-10221400D01*
X87299700Y-16704700D02*
X88148000Y-15856400D01*
X78545300Y-16704700D02*
X87299700Y-16704700D01*
X77470000Y-17780000D02*
X78545300Y-16704700D01*
X84873100Y-8299300D02*
X86225900Y-8299300D01*
D52*
G36*
X15113000Y-19430897D02*
X15113000Y-31877000D01*
X6731000Y-31877000D01*
X6731000Y-28448000D01*
X6720994Y-28398590D01*
X6692553Y-28356965D01*
X6650159Y-28329685D01*
X6604000Y-28321000D01*
X825092Y-28321000D01*
X710000Y-28205908D01*
X710000Y-19430468D01*
X10299943Y-19427000D01*
X15113000Y-19430897D01*
X15113000Y-19430897D01*
G37*
X15113000Y-19430897D02*
X15113000Y-31877000D01*
X6731000Y-31877000D01*
X6731000Y-28448000D01*
X6720994Y-28398590D01*
X6692553Y-28356965D01*
X6650159Y-28329685D01*
X6604000Y-28321000D01*
X825092Y-28321000D01*
X710000Y-28205908D01*
X710000Y-19430468D01*
X10299943Y-19427000D01*
X15113000Y-19430897D01*
M02*
