G04 #@! TF.FileFunction,Soldermask,Bot*
%FSLAX46Y46*%
G04 Gerber Fmt 4.6, Leading zero omitted, Abs format (unit mm)*
G04 Created by KiCad (PCBNEW 4.0.4-stable) date 11/14/17 20:36:07*
%MOMM*%
%LPD*%
G01*
G04 APERTURE LIST*
%ADD10C,2.000000*%
%ADD11C,2.279600*%
%ADD12C,0.897840*%
%ADD13C,1.416000*%
%ADD14R,3.400000X1.400000*%
%ADD15R,2.279600X2.279600*%
%ADD16C,2.200000*%
%ADD17C,3.516000*%
%ADD18C,2.178000*%
%ADD19R,1.050000X1.460000*%
%ADD20R,1.670000X1.289000*%
%ADD21R,1.543000X1.416000*%
%ADD22R,1.416000X1.543000*%
%ADD23R,1.289000X1.289000*%
%ADD24R,1.416000X2.051000*%
%ADD25R,5.698440X6.597600*%
%ADD26C,1.720800*%
%ADD27C,4.514800*%
%ADD28R,1.098500X1.997660*%
%ADD29R,1.799540X1.997660*%
%ADD30R,1.799540X2.599640*%
%ADD31R,2.198320X1.799540*%
%ADD32R,1.670000X1.035000*%
%ADD33R,1.800000X1.700000*%
%ADD34R,1.400000X3.400000*%
%ADD35R,2.167840X2.198320*%
%ADD36R,2.198320X2.167840*%
%ADD37R,2.200000X1.500000*%
%ADD38C,1.670000*%
%ADD39C,1.748740*%
%ADD40R,1.748740X1.748740*%
%ADD41R,3.550000X1.400000*%
%ADD42R,2.647900X1.997660*%
%ADD43R,2.647900X1.898600*%
%ADD44R,1.035000X1.670000*%
%ADD45R,2.051000X3.448000*%
%ADD46C,3.400000*%
%ADD47C,5.400000*%
G04 APERTURE END LIST*
D10*
D11*
X35560000Y-24130000D03*
X33020000Y-24130000D03*
X30480000Y-24130000D03*
X27940000Y-24130000D03*
X25400000Y-24130000D03*
X22860000Y-24130000D03*
D12*
X65532000Y-78023720D03*
X65532000Y-78948280D03*
D13*
X12800000Y-58010000D03*
X14570000Y-55390000D03*
D14*
X2540000Y-78740000D03*
X8080000Y-78740000D03*
X2540000Y-76200000D03*
X8080000Y-76200000D03*
X2540000Y-73660000D03*
X8080000Y-73660000D03*
X2540000Y-71120000D03*
X8080000Y-71120000D03*
X2540000Y-68580000D03*
X8080000Y-68580000D03*
D13*
X35400000Y-66650000D03*
X33050000Y-68750000D03*
D15*
X8000000Y-2500000D03*
D11*
X10540000Y-2500000D03*
X13080000Y-2500000D03*
X15620000Y-2500000D03*
X18160000Y-2500000D03*
X20700000Y-2500000D03*
X23240000Y-2500000D03*
X25780000Y-2500000D03*
X28320000Y-2500000D03*
X30860000Y-2500000D03*
X33400000Y-2500000D03*
X35940000Y-2500000D03*
X38480000Y-2500000D03*
X41020000Y-2500000D03*
X43560000Y-2500000D03*
X46100000Y-2500000D03*
D16*
X89495000Y-15360000D03*
X86995000Y-15360000D03*
X84495000Y-15360000D03*
D17*
X92545000Y-22860000D03*
X81445000Y-22860000D03*
D18*
X84495000Y-29860000D03*
X89495000Y-29860000D03*
D19*
X48550000Y-118900000D03*
X49500000Y-118900000D03*
X50450000Y-118900000D03*
X50450000Y-121100000D03*
X48550000Y-121100000D03*
D12*
X11430000Y-15194280D03*
X11430000Y-14269720D03*
X49000020Y-126000000D03*
X49924580Y-126000000D03*
X50462280Y-47500000D03*
X49537720Y-47500000D03*
X50462280Y-134000000D03*
X49537720Y-134000000D03*
X50462280Y-112500000D03*
X49537720Y-112500000D03*
X52500000Y-92875420D03*
X52500000Y-93799980D03*
X47500000Y-92875420D03*
X47500000Y-93799980D03*
X55000020Y-64500000D03*
X55924580Y-64500000D03*
D20*
X11430000Y-12192000D03*
X11430000Y-10414000D03*
D21*
X36494000Y-103737000D03*
X36494000Y-101959000D03*
X38526000Y-102848000D03*
D22*
X18034000Y-79375000D03*
X16256000Y-79375000D03*
X17145000Y-77343000D03*
D21*
X78968000Y-98919000D03*
X78968000Y-97141000D03*
X81000000Y-98030000D03*
X76032000Y-129771000D03*
X76032000Y-131549000D03*
X74000000Y-130660000D03*
X44532000Y-147961000D03*
X44532000Y-149739000D03*
X42500000Y-148850000D03*
X75532000Y-104651000D03*
X75532000Y-106429000D03*
X73500000Y-105540000D03*
D12*
X6395720Y-12192000D03*
X7320280Y-12192000D03*
D23*
X71628000Y-13970000D03*
X73152000Y-13970000D03*
X81026000Y-15748000D03*
X81026000Y-14224000D03*
X68834000Y-22606000D03*
X68834000Y-24130000D03*
X49530000Y-26797000D03*
X49530000Y-25273000D03*
X44450000Y-10668000D03*
X44450000Y-12192000D03*
X50762000Y-93400000D03*
X49238000Y-93400000D03*
X40908000Y-103554000D03*
X42432000Y-103554000D03*
X34208000Y-103610000D03*
X34208000Y-102086000D03*
X19100000Y-76962000D03*
X19100000Y-75438000D03*
X17907000Y-83185000D03*
X16383000Y-83185000D03*
X80500000Y-104738000D03*
X80500000Y-106262000D03*
X77190000Y-98792000D03*
X77190000Y-97268000D03*
X73262000Y-128755000D03*
X71738000Y-128755000D03*
X77810000Y-129898000D03*
X77810000Y-131422000D03*
X43600000Y-145162000D03*
X43600000Y-143638000D03*
X47038000Y-146200000D03*
X48562000Y-146200000D03*
X72762000Y-103635000D03*
X71238000Y-103635000D03*
X77310000Y-104778000D03*
X77310000Y-106302000D03*
X44450000Y-8262000D03*
X44450000Y-6738000D03*
D24*
X6604000Y-17272000D03*
D25*
X8890000Y-24597360D03*
D24*
X11176000Y-17272000D03*
D26*
X52413000Y-90000000D03*
X47587000Y-90000000D03*
D27*
X91000000Y-11877800D03*
X91025400Y-4557000D03*
X94761600Y-8700000D03*
D28*
X60453600Y-149850000D03*
X61553420Y-149850000D03*
X62653240Y-149850000D03*
X63750520Y-149850000D03*
X64850340Y-149850000D03*
X65950160Y-149850000D03*
X67049980Y-149850000D03*
X68149800Y-149850000D03*
X69249620Y-149850000D03*
D29*
X70550100Y-150449440D03*
D30*
X70550100Y-159949040D03*
X54852900Y-159949040D03*
D31*
X55752060Y-150347840D03*
D32*
X17000000Y-74050000D03*
X17000000Y-74950000D03*
D23*
X60452000Y-19685000D03*
X58928000Y-19685000D03*
D33*
X55364000Y-22386000D03*
X55364000Y-24926000D03*
X55364000Y-27466000D03*
X55364000Y-30006000D03*
X64904000Y-22456000D03*
X64904000Y-24996000D03*
X64904000Y-27536000D03*
X64904000Y-30076000D03*
D13*
X60400000Y-66650000D03*
X58050000Y-68750000D03*
X85400000Y-66650000D03*
X83050000Y-68750000D03*
X10400000Y-91650000D03*
X8050000Y-93750000D03*
X35400000Y-91650000D03*
X33050000Y-93750000D03*
X60400000Y-91650000D03*
X58050000Y-93750000D03*
X85400000Y-91650000D03*
X83050000Y-93750000D03*
X10400000Y-116650000D03*
X8050000Y-118750000D03*
X35377000Y-116650000D03*
X33027000Y-118750000D03*
X60400000Y-116650000D03*
X58050000Y-118750000D03*
X85400000Y-116650000D03*
X83050000Y-118750000D03*
X10400000Y-141650000D03*
X8050000Y-143750000D03*
X35400000Y-141650000D03*
X33050000Y-143750000D03*
X60400000Y-141650000D03*
X58050000Y-143750000D03*
X85400000Y-141650000D03*
X83050000Y-143750000D03*
D34*
X2032000Y-11454000D03*
X2032000Y-16994000D03*
D14*
X47230000Y-45540000D03*
X52770000Y-45540000D03*
X47230000Y-43000000D03*
X52770000Y-43000000D03*
X47230000Y-40460000D03*
X52770000Y-40460000D03*
D34*
X12700000Y-64540000D03*
X12700000Y-70080000D03*
D35*
X98000000Y-13960380D03*
X98000000Y-18039620D03*
X69215000Y-30614620D03*
X69215000Y-26535380D03*
D36*
X18534380Y-52500000D03*
X22613620Y-52500000D03*
X27499980Y-52500000D03*
X31579220Y-52500000D03*
X68420780Y-52500000D03*
X72500020Y-52500000D03*
X81579220Y-52500000D03*
X77499980Y-52500000D03*
X18460380Y-97500000D03*
X22539620Y-97500000D03*
X27937380Y-97500000D03*
X32016620Y-97500000D03*
X68937380Y-97500000D03*
X73016620Y-97500000D03*
X93937380Y-97500000D03*
X98016620Y-97500000D03*
X18280380Y-122500000D03*
X22359620Y-122500000D03*
X27937380Y-122500000D03*
X32016620Y-122500000D03*
X68937380Y-122500000D03*
X73016620Y-122500000D03*
X93937380Y-122500000D03*
X98016620Y-122500000D03*
X6960380Y-147500000D03*
X11039620Y-147500000D03*
X27937380Y-147500000D03*
X32016620Y-147500000D03*
X68937380Y-147500000D03*
X73016620Y-147500000D03*
X89210380Y-147750000D03*
X93289620Y-147750000D03*
D37*
X38810000Y-14660000D03*
X45010000Y-14660000D03*
X45010000Y-18360000D03*
X38810000Y-18360000D03*
D14*
X8080000Y-106680000D03*
X2540000Y-106680000D03*
X8080000Y-109220000D03*
X2540000Y-109220000D03*
X8080000Y-111760000D03*
X2540000Y-111760000D03*
X8080000Y-114300000D03*
X2540000Y-114300000D03*
D23*
X51054000Y-20066000D03*
X49530000Y-20066000D03*
X51054000Y-18034000D03*
X49530000Y-18034000D03*
D14*
X98250000Y-132080000D03*
X92710000Y-132080000D03*
X98250000Y-134620000D03*
X92710000Y-134620000D03*
X98250000Y-137160000D03*
X92710000Y-137160000D03*
X98250000Y-139700000D03*
X92710000Y-139700000D03*
X39730000Y-28810000D03*
X45270000Y-28810000D03*
X39730000Y-26270000D03*
X45270000Y-26270000D03*
X39730000Y-23730000D03*
X45270000Y-23730000D03*
X39730000Y-21190000D03*
X45270000Y-21190000D03*
D12*
X71999980Y-94000000D03*
X71075420Y-94000000D03*
D35*
X31190000Y-89549620D03*
X31190000Y-85470380D03*
D38*
X3500000Y-30000640D03*
X3500000Y-34999360D03*
X96500000Y-34999360D03*
X96500000Y-30000640D03*
D23*
X52070000Y-27813000D03*
X52070000Y-29337000D03*
D39*
X17000000Y-30499980D03*
X22080000Y-30499980D03*
D40*
X19540000Y-32996800D03*
D41*
X2540000Y-139700000D03*
X7590000Y-139700000D03*
X2540000Y-137160000D03*
X7590000Y-137160000D03*
X2540000Y-134620000D03*
X7590000Y-134620000D03*
X2540000Y-132080000D03*
X7590000Y-132080000D03*
X7590000Y-121920000D03*
X2540000Y-121920000D03*
X7590000Y-124460000D03*
X2540000Y-124460000D03*
X7590000Y-127000000D03*
X2540000Y-127000000D03*
X7590000Y-129540000D03*
X2540000Y-129540000D03*
D42*
X84873120Y-2398900D03*
X84873120Y-5599300D03*
X84873120Y-8299320D03*
X78126880Y-8698100D03*
D43*
X78126880Y-1398140D03*
D42*
X78126880Y-3699380D03*
X78126880Y-6399400D03*
X84873120Y-10498960D03*
X75373120Y-2398900D03*
X75373120Y-5599300D03*
X75373120Y-8299320D03*
X68626880Y-8698100D03*
D43*
X68626880Y-1398140D03*
D42*
X68626880Y-3699380D03*
X68626880Y-6399400D03*
X75373120Y-10498960D03*
X56373120Y-2398900D03*
X56373120Y-5599300D03*
X56373120Y-8299320D03*
X49626880Y-8698100D03*
D43*
X49626880Y-1398140D03*
D42*
X49626880Y-3699380D03*
X49626880Y-6399400D03*
X56373120Y-10498960D03*
X65873120Y-2398900D03*
X65873120Y-5599300D03*
X65873120Y-8299320D03*
X59126880Y-8698100D03*
D43*
X59126880Y-1398140D03*
D42*
X59126880Y-3699380D03*
X59126880Y-6399400D03*
X65873120Y-10498960D03*
D23*
X8262000Y-51500000D03*
X6738000Y-51500000D03*
X22500000Y-56524000D03*
X22500000Y-55000000D03*
X15476000Y-91000000D03*
X17000000Y-91000000D03*
X15476000Y-119000000D03*
X17000000Y-119000000D03*
X15476000Y-149000000D03*
X17000000Y-149000000D03*
X15476000Y-152400000D03*
X17000000Y-152400000D03*
D44*
X60140000Y-15500000D03*
X59240000Y-15500000D03*
X52520000Y-15500000D03*
X51620000Y-15500000D03*
X48710000Y-15500000D03*
X47810000Y-15500000D03*
X63950000Y-15500000D03*
X63050000Y-15500000D03*
X67760000Y-15500000D03*
X66860000Y-15500000D03*
X55430000Y-15500000D03*
X56330000Y-15500000D03*
D45*
X17500000Y-12333000D03*
X17500000Y-17667000D03*
D10*
G36*
X51838478Y-64181266D02*
X52333453Y-64676241D01*
X50989950Y-66019744D01*
X50494975Y-65524769D01*
X51838478Y-64181266D01*
X51838478Y-64181266D01*
G37*
G36*
X52192031Y-64534819D02*
X52687006Y-65029794D01*
X51343503Y-66373297D01*
X50848528Y-65878322D01*
X52192031Y-64534819D01*
X52192031Y-64534819D01*
G37*
G36*
X52545584Y-64888373D02*
X53040559Y-65383348D01*
X51697056Y-66726851D01*
X51202081Y-66231876D01*
X52545584Y-64888373D01*
X52545584Y-64888373D01*
G37*
G36*
X52899138Y-65241926D02*
X53394113Y-65736901D01*
X52050610Y-67080404D01*
X51555635Y-66585429D01*
X52899138Y-65241926D01*
X52899138Y-65241926D01*
G37*
G36*
X53252691Y-65595480D02*
X53747666Y-66090455D01*
X52404163Y-67433958D01*
X51909188Y-66938983D01*
X53252691Y-65595480D01*
X53252691Y-65595480D01*
G37*
G36*
X53606245Y-65949033D02*
X54101220Y-66444008D01*
X52757717Y-67787511D01*
X52262742Y-67292536D01*
X53606245Y-65949033D01*
X53606245Y-65949033D01*
G37*
G36*
X53959798Y-66302586D02*
X54454773Y-66797561D01*
X53111270Y-68141064D01*
X52616295Y-67646089D01*
X53959798Y-66302586D01*
X53959798Y-66302586D01*
G37*
G36*
X54313351Y-66656140D02*
X54808326Y-67151115D01*
X53464823Y-68494618D01*
X52969848Y-67999643D01*
X54313351Y-66656140D01*
X54313351Y-66656140D01*
G37*
G36*
X54666905Y-67009693D02*
X55161880Y-67504668D01*
X53818377Y-68848171D01*
X53323402Y-68353196D01*
X54666905Y-67009693D01*
X54666905Y-67009693D01*
G37*
G36*
X55020458Y-67363247D02*
X55515433Y-67858222D01*
X54171930Y-69201725D01*
X53676955Y-68706750D01*
X55020458Y-67363247D01*
X55020458Y-67363247D01*
G37*
G36*
X55374011Y-67716800D02*
X55868986Y-68211775D01*
X54525483Y-69555278D01*
X54030508Y-69060303D01*
X55374011Y-67716800D01*
X55374011Y-67716800D01*
G37*
G36*
X55727565Y-68070353D02*
X56222540Y-68565328D01*
X54879037Y-69908831D01*
X54384062Y-69413856D01*
X55727565Y-68070353D01*
X55727565Y-68070353D01*
G37*
G36*
X56081118Y-68423907D02*
X56576093Y-68918882D01*
X55232590Y-70262385D01*
X54737615Y-69767410D01*
X56081118Y-68423907D01*
X56081118Y-68423907D01*
G37*
G36*
X56434672Y-68777460D02*
X56929647Y-69272435D01*
X55586144Y-70615938D01*
X55091169Y-70120963D01*
X56434672Y-68777460D01*
X56434672Y-68777460D01*
G37*
G36*
X56788225Y-69131014D02*
X57283200Y-69625989D01*
X55939697Y-70969492D01*
X55444722Y-70474517D01*
X56788225Y-69131014D01*
X56788225Y-69131014D01*
G37*
G36*
X57141778Y-69484567D02*
X57636753Y-69979542D01*
X56293250Y-71323045D01*
X55798275Y-70828070D01*
X57141778Y-69484567D01*
X57141778Y-69484567D01*
G37*
G36*
X57495332Y-69838120D02*
X57990307Y-70333095D01*
X56646804Y-71676598D01*
X56151829Y-71181623D01*
X57495332Y-69838120D01*
X57495332Y-69838120D01*
G37*
G36*
X57848885Y-70191674D02*
X58343860Y-70686649D01*
X57000357Y-72030152D01*
X56505382Y-71535177D01*
X57848885Y-70191674D01*
X57848885Y-70191674D01*
G37*
G36*
X58202439Y-70545227D02*
X58697414Y-71040202D01*
X57353911Y-72383705D01*
X56858936Y-71888730D01*
X58202439Y-70545227D01*
X58202439Y-70545227D01*
G37*
G36*
X58555992Y-70898780D02*
X59050967Y-71393755D01*
X57707464Y-72737258D01*
X57212489Y-72242283D01*
X58555992Y-70898780D01*
X58555992Y-70898780D01*
G37*
G36*
X58909545Y-71252334D02*
X59404520Y-71747309D01*
X58061017Y-73090812D01*
X57566042Y-72595837D01*
X58909545Y-71252334D01*
X58909545Y-71252334D01*
G37*
G36*
X59263099Y-71605887D02*
X59758074Y-72100862D01*
X58414571Y-73444365D01*
X57919596Y-72949390D01*
X59263099Y-71605887D01*
X59263099Y-71605887D01*
G37*
G36*
X59616652Y-71959441D02*
X60111627Y-72454416D01*
X58768124Y-73797919D01*
X58273149Y-73302944D01*
X59616652Y-71959441D01*
X59616652Y-71959441D01*
G37*
G36*
X59970206Y-72312994D02*
X60465181Y-72807969D01*
X59121678Y-74151472D01*
X58626703Y-73656497D01*
X59970206Y-72312994D01*
X59970206Y-72312994D01*
G37*
G36*
X60323759Y-72666547D02*
X60818734Y-73161522D01*
X59475231Y-74505025D01*
X58980256Y-74010050D01*
X60323759Y-72666547D01*
X60323759Y-72666547D01*
G37*
G36*
X59475231Y-75494975D02*
X60818734Y-76838478D01*
X60323759Y-77333453D01*
X58980256Y-75989950D01*
X59475231Y-75494975D01*
X59475231Y-75494975D01*
G37*
G36*
X59121678Y-75848528D02*
X60465181Y-77192031D01*
X59970206Y-77687006D01*
X58626703Y-76343503D01*
X59121678Y-75848528D01*
X59121678Y-75848528D01*
G37*
G36*
X58768124Y-76202081D02*
X60111627Y-77545584D01*
X59616652Y-78040559D01*
X58273149Y-76697056D01*
X58768124Y-76202081D01*
X58768124Y-76202081D01*
G37*
G36*
X58414571Y-76555635D02*
X59758074Y-77899138D01*
X59263099Y-78394113D01*
X57919596Y-77050610D01*
X58414571Y-76555635D01*
X58414571Y-76555635D01*
G37*
G36*
X58061017Y-76909188D02*
X59404520Y-78252691D01*
X58909545Y-78747666D01*
X57566042Y-77404163D01*
X58061017Y-76909188D01*
X58061017Y-76909188D01*
G37*
G36*
X57707464Y-77262742D02*
X59050967Y-78606245D01*
X58555992Y-79101220D01*
X57212489Y-77757717D01*
X57707464Y-77262742D01*
X57707464Y-77262742D01*
G37*
G36*
X57353911Y-77616295D02*
X58697414Y-78959798D01*
X58202439Y-79454773D01*
X56858936Y-78111270D01*
X57353911Y-77616295D01*
X57353911Y-77616295D01*
G37*
G36*
X57000357Y-77969848D02*
X58343860Y-79313351D01*
X57848885Y-79808326D01*
X56505382Y-78464823D01*
X57000357Y-77969848D01*
X57000357Y-77969848D01*
G37*
G36*
X56646804Y-78323402D02*
X57990307Y-79666905D01*
X57495332Y-80161880D01*
X56151829Y-78818377D01*
X56646804Y-78323402D01*
X56646804Y-78323402D01*
G37*
G36*
X56293250Y-78676955D02*
X57636753Y-80020458D01*
X57141778Y-80515433D01*
X55798275Y-79171930D01*
X56293250Y-78676955D01*
X56293250Y-78676955D01*
G37*
G36*
X55939697Y-79030508D02*
X57283200Y-80374011D01*
X56788225Y-80868986D01*
X55444722Y-79525483D01*
X55939697Y-79030508D01*
X55939697Y-79030508D01*
G37*
G36*
X55586144Y-79384062D02*
X56929647Y-80727565D01*
X56434672Y-81222540D01*
X55091169Y-79879037D01*
X55586144Y-79384062D01*
X55586144Y-79384062D01*
G37*
G36*
X55232590Y-79737615D02*
X56576093Y-81081118D01*
X56081118Y-81576093D01*
X54737615Y-80232590D01*
X55232590Y-79737615D01*
X55232590Y-79737615D01*
G37*
G36*
X54879037Y-80091169D02*
X56222540Y-81434672D01*
X55727565Y-81929647D01*
X54384062Y-80586144D01*
X54879037Y-80091169D01*
X54879037Y-80091169D01*
G37*
G36*
X54525483Y-80444722D02*
X55868986Y-81788225D01*
X55374011Y-82283200D01*
X54030508Y-80939697D01*
X54525483Y-80444722D01*
X54525483Y-80444722D01*
G37*
G36*
X54171930Y-80798275D02*
X55515433Y-82141778D01*
X55020458Y-82636753D01*
X53676955Y-81293250D01*
X54171930Y-80798275D01*
X54171930Y-80798275D01*
G37*
G36*
X53818377Y-81151829D02*
X55161880Y-82495332D01*
X54666905Y-82990307D01*
X53323402Y-81646804D01*
X53818377Y-81151829D01*
X53818377Y-81151829D01*
G37*
G36*
X53464823Y-81505382D02*
X54808326Y-82848885D01*
X54313351Y-83343860D01*
X52969848Y-82000357D01*
X53464823Y-81505382D01*
X53464823Y-81505382D01*
G37*
G36*
X53111270Y-81858936D02*
X54454773Y-83202439D01*
X53959798Y-83697414D01*
X52616295Y-82353911D01*
X53111270Y-81858936D01*
X53111270Y-81858936D01*
G37*
G36*
X52757717Y-82212489D02*
X54101220Y-83555992D01*
X53606245Y-84050967D01*
X52262742Y-82707464D01*
X52757717Y-82212489D01*
X52757717Y-82212489D01*
G37*
G36*
X52404163Y-82566042D02*
X53747666Y-83909545D01*
X53252691Y-84404520D01*
X51909188Y-83061017D01*
X52404163Y-82566042D01*
X52404163Y-82566042D01*
G37*
G36*
X52050610Y-82919596D02*
X53394113Y-84263099D01*
X52899138Y-84758074D01*
X51555635Y-83414571D01*
X52050610Y-82919596D01*
X52050610Y-82919596D01*
G37*
G36*
X51697056Y-83273149D02*
X53040559Y-84616652D01*
X52545584Y-85111627D01*
X51202081Y-83768124D01*
X51697056Y-83273149D01*
X51697056Y-83273149D01*
G37*
G36*
X51343503Y-83626703D02*
X52687006Y-84970206D01*
X52192031Y-85465181D01*
X50848528Y-84121678D01*
X51343503Y-83626703D01*
X51343503Y-83626703D01*
G37*
G36*
X50989950Y-83980256D02*
X52333453Y-85323759D01*
X51838478Y-85818734D01*
X50494975Y-84475231D01*
X50989950Y-83980256D01*
X50989950Y-83980256D01*
G37*
G36*
X49010050Y-83980256D02*
X49505025Y-84475231D01*
X48161522Y-85818734D01*
X47666547Y-85323759D01*
X49010050Y-83980256D01*
X49010050Y-83980256D01*
G37*
G36*
X48656497Y-83626703D02*
X49151472Y-84121678D01*
X47807969Y-85465181D01*
X47312994Y-84970206D01*
X48656497Y-83626703D01*
X48656497Y-83626703D01*
G37*
G36*
X48302944Y-83273149D02*
X48797919Y-83768124D01*
X47454416Y-85111627D01*
X46959441Y-84616652D01*
X48302944Y-83273149D01*
X48302944Y-83273149D01*
G37*
G36*
X47949390Y-82919596D02*
X48444365Y-83414571D01*
X47100862Y-84758074D01*
X46605887Y-84263099D01*
X47949390Y-82919596D01*
X47949390Y-82919596D01*
G37*
G36*
X47595837Y-82566042D02*
X48090812Y-83061017D01*
X46747309Y-84404520D01*
X46252334Y-83909545D01*
X47595837Y-82566042D01*
X47595837Y-82566042D01*
G37*
G36*
X47242283Y-82212489D02*
X47737258Y-82707464D01*
X46393755Y-84050967D01*
X45898780Y-83555992D01*
X47242283Y-82212489D01*
X47242283Y-82212489D01*
G37*
G36*
X46888730Y-81858936D02*
X47383705Y-82353911D01*
X46040202Y-83697414D01*
X45545227Y-83202439D01*
X46888730Y-81858936D01*
X46888730Y-81858936D01*
G37*
G36*
X46535177Y-81505382D02*
X47030152Y-82000357D01*
X45686649Y-83343860D01*
X45191674Y-82848885D01*
X46535177Y-81505382D01*
X46535177Y-81505382D01*
G37*
G36*
X46181623Y-81151829D02*
X46676598Y-81646804D01*
X45333095Y-82990307D01*
X44838120Y-82495332D01*
X46181623Y-81151829D01*
X46181623Y-81151829D01*
G37*
G36*
X45828070Y-80798275D02*
X46323045Y-81293250D01*
X44979542Y-82636753D01*
X44484567Y-82141778D01*
X45828070Y-80798275D01*
X45828070Y-80798275D01*
G37*
G36*
X45474517Y-80444722D02*
X45969492Y-80939697D01*
X44625989Y-82283200D01*
X44131014Y-81788225D01*
X45474517Y-80444722D01*
X45474517Y-80444722D01*
G37*
G36*
X45120963Y-80091169D02*
X45615938Y-80586144D01*
X44272435Y-81929647D01*
X43777460Y-81434672D01*
X45120963Y-80091169D01*
X45120963Y-80091169D01*
G37*
G36*
X44767410Y-79737615D02*
X45262385Y-80232590D01*
X43918882Y-81576093D01*
X43423907Y-81081118D01*
X44767410Y-79737615D01*
X44767410Y-79737615D01*
G37*
G36*
X44413856Y-79384062D02*
X44908831Y-79879037D01*
X43565328Y-81222540D01*
X43070353Y-80727565D01*
X44413856Y-79384062D01*
X44413856Y-79384062D01*
G37*
G36*
X44060303Y-79030508D02*
X44555278Y-79525483D01*
X43211775Y-80868986D01*
X42716800Y-80374011D01*
X44060303Y-79030508D01*
X44060303Y-79030508D01*
G37*
G36*
X43706750Y-78676955D02*
X44201725Y-79171930D01*
X42858222Y-80515433D01*
X42363247Y-80020458D01*
X43706750Y-78676955D01*
X43706750Y-78676955D01*
G37*
G36*
X43353196Y-78323402D02*
X43848171Y-78818377D01*
X42504668Y-80161880D01*
X42009693Y-79666905D01*
X43353196Y-78323402D01*
X43353196Y-78323402D01*
G37*
G36*
X42999643Y-77969848D02*
X43494618Y-78464823D01*
X42151115Y-79808326D01*
X41656140Y-79313351D01*
X42999643Y-77969848D01*
X42999643Y-77969848D01*
G37*
G36*
X42646089Y-77616295D02*
X43141064Y-78111270D01*
X41797561Y-79454773D01*
X41302586Y-78959798D01*
X42646089Y-77616295D01*
X42646089Y-77616295D01*
G37*
G36*
X42292536Y-77262742D02*
X42787511Y-77757717D01*
X41444008Y-79101220D01*
X40949033Y-78606245D01*
X42292536Y-77262742D01*
X42292536Y-77262742D01*
G37*
G36*
X41938983Y-76909188D02*
X42433958Y-77404163D01*
X41090455Y-78747666D01*
X40595480Y-78252691D01*
X41938983Y-76909188D01*
X41938983Y-76909188D01*
G37*
G36*
X41585429Y-76555635D02*
X42080404Y-77050610D01*
X40736901Y-78394113D01*
X40241926Y-77899138D01*
X41585429Y-76555635D01*
X41585429Y-76555635D01*
G37*
G36*
X41231876Y-76202081D02*
X41726851Y-76697056D01*
X40383348Y-78040559D01*
X39888373Y-77545584D01*
X41231876Y-76202081D01*
X41231876Y-76202081D01*
G37*
G36*
X40878322Y-75848528D02*
X41373297Y-76343503D01*
X40029794Y-77687006D01*
X39534819Y-77192031D01*
X40878322Y-75848528D01*
X40878322Y-75848528D01*
G37*
G36*
X40524769Y-75494975D02*
X41019744Y-75989950D01*
X39676241Y-77333453D01*
X39181266Y-76838478D01*
X40524769Y-75494975D01*
X40524769Y-75494975D01*
G37*
G36*
X39676241Y-72666547D02*
X41019744Y-74010050D01*
X40524769Y-74505025D01*
X39181266Y-73161522D01*
X39676241Y-72666547D01*
X39676241Y-72666547D01*
G37*
G36*
X40029794Y-72312994D02*
X41373297Y-73656497D01*
X40878322Y-74151472D01*
X39534819Y-72807969D01*
X40029794Y-72312994D01*
X40029794Y-72312994D01*
G37*
G36*
X40383348Y-71959441D02*
X41726851Y-73302944D01*
X41231876Y-73797919D01*
X39888373Y-72454416D01*
X40383348Y-71959441D01*
X40383348Y-71959441D01*
G37*
G36*
X40736901Y-71605887D02*
X42080404Y-72949390D01*
X41585429Y-73444365D01*
X40241926Y-72100862D01*
X40736901Y-71605887D01*
X40736901Y-71605887D01*
G37*
G36*
X41090455Y-71252334D02*
X42433958Y-72595837D01*
X41938983Y-73090812D01*
X40595480Y-71747309D01*
X41090455Y-71252334D01*
X41090455Y-71252334D01*
G37*
G36*
X41444008Y-70898780D02*
X42787511Y-72242283D01*
X42292536Y-72737258D01*
X40949033Y-71393755D01*
X41444008Y-70898780D01*
X41444008Y-70898780D01*
G37*
G36*
X41797561Y-70545227D02*
X43141064Y-71888730D01*
X42646089Y-72383705D01*
X41302586Y-71040202D01*
X41797561Y-70545227D01*
X41797561Y-70545227D01*
G37*
G36*
X42151115Y-70191674D02*
X43494618Y-71535177D01*
X42999643Y-72030152D01*
X41656140Y-70686649D01*
X42151115Y-70191674D01*
X42151115Y-70191674D01*
G37*
G36*
X42504668Y-69838120D02*
X43848171Y-71181623D01*
X43353196Y-71676598D01*
X42009693Y-70333095D01*
X42504668Y-69838120D01*
X42504668Y-69838120D01*
G37*
G36*
X42858222Y-69484567D02*
X44201725Y-70828070D01*
X43706750Y-71323045D01*
X42363247Y-69979542D01*
X42858222Y-69484567D01*
X42858222Y-69484567D01*
G37*
G36*
X43211775Y-69131014D02*
X44555278Y-70474517D01*
X44060303Y-70969492D01*
X42716800Y-69625989D01*
X43211775Y-69131014D01*
X43211775Y-69131014D01*
G37*
G36*
X43565328Y-68777460D02*
X44908831Y-70120963D01*
X44413856Y-70615938D01*
X43070353Y-69272435D01*
X43565328Y-68777460D01*
X43565328Y-68777460D01*
G37*
G36*
X43918882Y-68423907D02*
X45262385Y-69767410D01*
X44767410Y-70262385D01*
X43423907Y-68918882D01*
X43918882Y-68423907D01*
X43918882Y-68423907D01*
G37*
G36*
X44272435Y-68070353D02*
X45615938Y-69413856D01*
X45120963Y-69908831D01*
X43777460Y-68565328D01*
X44272435Y-68070353D01*
X44272435Y-68070353D01*
G37*
G36*
X44625989Y-67716800D02*
X45969492Y-69060303D01*
X45474517Y-69555278D01*
X44131014Y-68211775D01*
X44625989Y-67716800D01*
X44625989Y-67716800D01*
G37*
G36*
X44979542Y-67363247D02*
X46323045Y-68706750D01*
X45828070Y-69201725D01*
X44484567Y-67858222D01*
X44979542Y-67363247D01*
X44979542Y-67363247D01*
G37*
G36*
X45333095Y-67009693D02*
X46676598Y-68353196D01*
X46181623Y-68848171D01*
X44838120Y-67504668D01*
X45333095Y-67009693D01*
X45333095Y-67009693D01*
G37*
G36*
X45686649Y-66656140D02*
X47030152Y-67999643D01*
X46535177Y-68494618D01*
X45191674Y-67151115D01*
X45686649Y-66656140D01*
X45686649Y-66656140D01*
G37*
G36*
X46040202Y-66302586D02*
X47383705Y-67646089D01*
X46888730Y-68141064D01*
X45545227Y-66797561D01*
X46040202Y-66302586D01*
X46040202Y-66302586D01*
G37*
G36*
X46393755Y-65949033D02*
X47737258Y-67292536D01*
X47242283Y-67787511D01*
X45898780Y-66444008D01*
X46393755Y-65949033D01*
X46393755Y-65949033D01*
G37*
G36*
X46747309Y-65595480D02*
X48090812Y-66938983D01*
X47595837Y-67433958D01*
X46252334Y-66090455D01*
X46747309Y-65595480D01*
X46747309Y-65595480D01*
G37*
G36*
X47100862Y-65241926D02*
X48444365Y-66585429D01*
X47949390Y-67080404D01*
X46605887Y-65736901D01*
X47100862Y-65241926D01*
X47100862Y-65241926D01*
G37*
G36*
X47454416Y-64888373D02*
X48797919Y-66231876D01*
X48302944Y-66726851D01*
X46959441Y-65383348D01*
X47454416Y-64888373D01*
X47454416Y-64888373D01*
G37*
G36*
X47807969Y-64534819D02*
X49151472Y-65878322D01*
X48656497Y-66373297D01*
X47312994Y-65029794D01*
X47807969Y-64534819D01*
X47807969Y-64534819D01*
G37*
G36*
X48161522Y-64181266D02*
X49505025Y-65524769D01*
X49010050Y-66019744D01*
X47666547Y-64676241D01*
X48161522Y-64181266D01*
X48161522Y-64181266D01*
G37*
D46*
X75000000Y-137500000D03*
X12500000Y-75000000D03*
X87500000Y-75000000D03*
X25000000Y-62500000D03*
X62500000Y-75000000D03*
X25000000Y-87500000D03*
X25000000Y-137500000D03*
X37500000Y-125000000D03*
X75000000Y-62500000D03*
X25000000Y-112500000D03*
X12500000Y-125000000D03*
X75000000Y-87500000D03*
D47*
X47500000Y-52500000D03*
X97500000Y-52500000D03*
X52500000Y-97500000D03*
X47500000Y-102500000D03*
X97500000Y-2500000D03*
X97500000Y-102500000D03*
X2500000Y-97500000D03*
X2500000Y-147500000D03*
X97500000Y-147500000D03*
D46*
X97500000Y-161500000D03*
X87500000Y-125000000D03*
X2500000Y-161500000D03*
X75000000Y-112500000D03*
X62500000Y-125000000D03*
D12*
X32837720Y-26300000D03*
X33762280Y-26300000D03*
D47*
X52500000Y-147500000D03*
M02*
