M48
;DRILL file {KiCad 4.0.4-stable} date 11/14/17 20:36:02
;FORMAT={2:4/ absolute / inch / suppress leading zeros}
FMAT,2
INCH,TZ
T1C0.016
T2C0.020
T3C0.031
T4C0.032
T5C0.040
T6C0.043
T7C0.083
T8C0.118
T9C0.118
T10C0.126
%
G90
G05
M72
T1
X1807Y-46365
X2038Y-15558
X2170Y-60307
X2389Y-60951
X2805Y-19714
X2861Y-4250
X3394Y-21193
X3674Y-40735
X3868Y-40254
X4178Y-37604
X4346Y-23866
X4368Y-54907
X4541Y-43465
X4645Y-35081
X4787Y-35388
X4917Y-55052
X4950Y-24292
X4983Y-23658
X5010Y-43528
X5166Y-55572
X5352Y-35515
X5373Y-45444
X5645Y-23439
X5904Y-44021
X5965Y-54295
X6203Y-34257
X6311Y-9981
X7371Y-15588
X7438Y-9924
X7502Y-46733
X7816Y-18343
X7816Y-57771
X7993Y-23844
X8106Y-29023
X8125Y-31493
X8274Y-22720
X8374Y-31045
X8569Y-34465
X8603Y-19216
X8759Y-57174
X8783Y-29584
X8787Y-35640
X8815Y-48981
X9127Y-39764
X9393Y-47630
X9708Y-32877
X9782Y-17018
X9944Y-46439
X10280Y-46400
X10358Y-41224
X10523Y-33910
X10683Y-29521
X10852Y-60549
X11081Y-30642
X11122Y-40468
X11175Y-29116
X11423Y-28330
X11428Y-56224
X11742Y-28330
X11811Y-19708
X11920Y-32660
X11929Y-56633
X12022Y-50494
X12034Y-36598
X12047Y-48245
X12232Y-41700
X12401Y-50274
X12437Y-22227
X12453Y-40793
X12637Y-37830
X12637Y-39474
X12675Y-21926
X12701Y-28155
X12852Y-40433
X12912Y-50272
X13097Y-47485
X13452Y-30033
X13500Y-34250
X13711Y-21277
X13738Y-25644
X13747Y-43187
X13985Y-27832
X14093Y-38835
X14096Y-24833
X14170Y-43588
X14178Y-24019
X14244Y-53060
X14462Y-37655
X14519Y-35941
X14568Y-14874
X14691Y-34535
X14793Y-54952
X14852Y-31233
X14878Y-54282
X14910Y-16036
X14999Y-24896
X15068Y-37847
X15109Y-33924
X15195Y-54326
X15302Y-20400
X15364Y-45575
X15436Y-13774
X15468Y-15515
X15475Y-14265
X15531Y-45286
X15758Y-9745
X15758Y-13081
X15919Y-5696
X16094Y-44558
X16191Y-13275
X16303Y-29668
X16337Y-29352
X16477Y-11467
X16576Y-29843
X16600Y-27159
X16736Y-31947
X16819Y-36837
X16828Y-12844
X16961Y-10634
X17021Y-29607
X17099Y-26938
X17166Y-41819
X17189Y-28812
X17296Y-13431
X17477Y-21717
X17647Y-16672
X17736Y-56495
X17792Y-37875
X17796Y-17878
X17822Y-31112
X17847Y-53801
X17972Y-22248
X17988Y-16349
X18149Y-31036
X18249Y-18932
X18308Y-22250
X18388Y-27356
X18388Y-29748
X18420Y-23609
X18453Y-34166
X18529Y-56205
X18583Y-24042
X18613Y-34481
X18687Y-28205
X18688Y-25101
X18688Y-26857
X18703Y-13298
X18724Y-1094
X18743Y-18350
X18868Y-36047
X18943Y-22357
X18985Y-28826
X19024Y-28192
X19024Y-54950
X19056Y-28509
X19243Y-47244
X19243Y-52593
X19338Y-14247
X19355Y-13774
X19369Y-26345
X19384Y-28535
X19431Y-21935
X19458Y-16667
X19476Y-11368
X19552Y-26822
X19552Y-57170
X19621Y-25940
X19632Y-56480
X19707Y-32140
X19733Y-28949
X19737Y-29843
X19743Y-47244
X19792Y-23665
X19796Y-5009
X19819Y-18345
X19842Y-27956
X19861Y-33570
X19861Y-59935
X19958Y-49661
X20065Y-15561
X20123Y-34520
X20124Y-29635
X20137Y-50727
X20180Y-28887
X20214Y-18664
X20227Y-3612
X20276Y-40344
X20374Y-6744
X20386Y-30739
X20572Y-4895
X20635Y-31761
X20703Y-60522
X20851Y-27069
X20880Y-31969
X20900Y-11706
X20946Y-33426
X20984Y-6458
X21122Y-30980
X21138Y-7945
X21149Y-25743
X21232Y-34680
X21269Y-47255
X21269Y-54403
X21281Y-25052
X21295Y-22993
X21336Y-23489
X21540Y-33069
X21654Y-16628
X21751Y-28854
X21953Y-32434
X22149Y-30810
X22502Y-9590
X22554Y-31837
X23432Y-44021
X23494Y-17232
X23650Y-29363
X23882Y-53906
X23888Y-44140
X23939Y-34537
X24026Y-25283
X24073Y-23665
X24106Y-53433
X24191Y-35291
X24238Y-43037
X24418Y-6501
X24563Y-32998
X24685Y-58386
X24729Y-44927
X24950Y-23850
X24954Y-54641
X24959Y-33906
X24971Y-57845
X25039Y-30606
X25152Y-54142
X25212Y-44021
X25332Y-17147
X25366Y-35630
X25504Y-30592
X25589Y-28448
X25684Y-5499
X25741Y-19646
X25885Y-28662
X25910Y-24436
X25998Y-6165
X26001Y-59518
X26037Y-49442
X26180Y-28513
X26267Y-49215
X26401Y-59513
X26404Y-28828
X26492Y-17890
X26777Y-28906
X26916Y-8449
X27056Y-18341
X27114Y-49929
X27147Y-36885
X27424Y-15588
X27554Y-25594
X27558Y-17837
X27620Y-43081
X27644Y-13066
X27692Y-29300
X27775Y-21535
X27780Y-57434
X28011Y-26986
X28019Y-43931
X28121Y-60444
X28249Y-26405
X28324Y-4743
X28567Y-15009
X28694Y-24029
X28702Y-51369
X28705Y-40273
X28720Y-35085
X28756Y-17886
X28787Y-37178
X28787Y-39576
X29112Y-26307
X29164Y-52323
X29218Y-50726
X29463Y-48105
X30311Y-13068
X30407Y-36607
X30637Y-18143
X30708Y-54020
X30708Y-59881
X30913Y-19017
X30938Y-16076
X30950Y-41783
X31019Y-25594
X32869Y-34713
X32911Y-24685
X32911Y-34179
X32911Y-53869
X33319Y-24714
X33371Y-34633
X33575Y-53055
X33782Y-43225
X33782Y-45280
X33820Y-35370
X33862Y-23673
X34028Y-18623
X34040Y-50781
X34099Y-24433
X34231Y-53722
X34379Y-47743
X34730Y-43772
X34798Y-54643
X34930Y-44133
X35073Y-60844
X35252Y-18550
X36461Y-56939
X36899Y-15459
X37737Y-17584
X38944Y-15514
X38944Y-17080
T2
X3169Y-36909
X3169Y-46752
X3169Y-56594
X4094Y-36083
X4094Y-45925
X4094Y-55768
X5039Y-22839
X5736Y-21807
X13003Y-46752
X13012Y-27067
X13012Y-36909
X13012Y-56594
X13928Y-45925
X13937Y-26240
X13937Y-36083
X13937Y-55768
X22854Y-27067
X22854Y-36909
X22854Y-46752
X22854Y-56594
X23780Y-26240
X23780Y-36083
X23780Y-45925
X23780Y-55768
X32697Y-27067
X32697Y-36909
X32697Y-46752
X32697Y-56594
X33622Y-26240
X33622Y-36083
X33622Y-45925
X33622Y-55768
T3
X1378Y-11811
X1378Y-13779
X6693Y-12008
X7693Y-12991
X8693Y-12008
X37992Y-11811
X37992Y-13779
T4
X18735Y-35433
X20635Y-35433
T5
X3150Y-984
X4150Y-984
X5150Y-984
X6150Y-984
X7150Y-984
X8150Y-984
X9000Y-9500
X9150Y-984
X10000Y-9500
X10150Y-984
X11000Y-9500
X11150Y-984
X12000Y-9500
X12150Y-984
X13000Y-9500
X13150Y-984
X14000Y-9500
X14150Y-984
X15150Y-984
X16150Y-984
X17150Y-984
X18150Y-984
T6
X33266Y-6047
X33266Y-11756
X34250Y-6047
X35234Y-6047
X35234Y-11756
T7
X32065Y-9000
X36435Y-9000
T8
X35837Y-1794
X37308Y-3425
T9
X984Y-20669
X984Y-38386
X984Y-58071
X984Y-63583
X4921Y-29528
X4921Y-49213
X9843Y-24606
X9843Y-34449
X9843Y-44291
X9843Y-54134
X14764Y-29528
X14764Y-49213
X18701Y-20669
X18701Y-40354
X20669Y-38386
X20669Y-58071
X24606Y-29528
X24606Y-49213
X29528Y-24606
X29528Y-34449
X29528Y-44291
X29528Y-54134
X34449Y-29528
X34449Y-49213
X38386Y-984
X38386Y-20669
X38386Y-40354
X38386Y-58071
X38386Y-63583
T10
X35827Y-4676
T0
M30
