G04 #@! TF.FileFunction,Copper,L1,Top,Signal*
%FSLAX46Y46*%
G04 Gerber Fmt 4.6, Leading zero omitted, Abs format (unit mm)*
G04 Created by KiCad (PCBNEW 4.0.4-stable) date 11/14/17 20:36:07*
%MOMM*%
%LPD*%
G01*
G04 APERTURE LIST*
%ADD10C,2.000000*%
%ADD11C,0.254000*%
%ADD12R,1.651000X1.000000*%
%ADD13R,2.540000X1.270000*%
%ADD14C,1.879600*%
%ADD15C,1.016000*%
%ADD16R,1.600000X1.000000*%
%ADD17C,5.000000*%
%ADD18C,3.000000*%
%ADD19R,1.879600X1.879600*%
%ADD20C,1.800000*%
%ADD21C,3.116000*%
%ADD22C,1.778000*%
%ADD23C,1.320800*%
%ADD24C,4.114800*%
%ADD25R,1.767840X1.798320*%
%ADD26R,1.798320X1.767840*%
%ADD27C,1.270000*%
%ADD28C,1.348740*%
%ADD29R,1.348740X1.348740*%
%ADD30R,0.889000X0.889000*%
%ADD31C,0.600000*%
%ADD32C,0.203200*%
%ADD33C,0.200000*%
G04 APERTURE END LIST*
D10*
D11*
X5410000Y-60760000D02*
X7780000Y-61520000D01*
X4730000Y-61990000D02*
X7020000Y-62130000D01*
X5440000Y-63250000D02*
X7740000Y-63100000D01*
X7310000Y-63970000D02*
X5030000Y-64480000D01*
X6190000Y-65520000D02*
X8190000Y-64580000D01*
X6080000Y-66780000D02*
X8030000Y-65630000D01*
X9150000Y-65840000D02*
X7280000Y-67420000D01*
X9440000Y-66870000D02*
X8100000Y-68720000D01*
X9460000Y-68810000D02*
X10450000Y-66750000D01*
X10910000Y-67450000D02*
X10150000Y-69630000D01*
X11490000Y-69340000D02*
X11840000Y-67010000D01*
X12490000Y-67710000D02*
X12420000Y-69940000D01*
X13640000Y-69260000D02*
X13180000Y-66910000D01*
X14050000Y-67380000D02*
X14830000Y-69430000D01*
X15830000Y-68480000D02*
X14580000Y-66340000D01*
X15570000Y-66560000D02*
X16770000Y-68340000D01*
X15660000Y-65400000D02*
X17210000Y-67020000D01*
X16640000Y-65280000D02*
X18390000Y-66580000D01*
X16430000Y-64070000D02*
X18560000Y-65120000D01*
X17250000Y-63620000D02*
X19370000Y-64300000D01*
X16710000Y-62930000D02*
X19070000Y-63090000D01*
X17370000Y-62230000D02*
X19660000Y-62260000D01*
X16670000Y-61640000D02*
X19010000Y-61320000D01*
X17090000Y-60680000D02*
X19330000Y-60260000D01*
X16230000Y-60320000D02*
X18400000Y-59350000D01*
X16340000Y-59450000D02*
X18370000Y-58360000D01*
X15390000Y-59230000D02*
X17210000Y-57800000D01*
X16730000Y-56580000D02*
X15170000Y-58360000D01*
X14200000Y-58400000D02*
X15540000Y-56490000D01*
X13700000Y-57480000D02*
X14540000Y-55460000D01*
X12760000Y-57990000D02*
X13300000Y-55710000D01*
X12200000Y-57130000D02*
X12200000Y-55010000D01*
X11620000Y-58020000D02*
X11210000Y-55550000D01*
X10880000Y-57320000D02*
X10020000Y-55350000D01*
X9350000Y-56220000D02*
X10460000Y-58200000D01*
X8160000Y-56260000D02*
X9610000Y-58140000D01*
X7760000Y-57260000D02*
X9320000Y-58980000D01*
X6680000Y-57490000D02*
X8200000Y-59000000D01*
X6430000Y-58840000D02*
X8290000Y-60070000D01*
X5360000Y-59470000D02*
X7420000Y-60500000D01*
X19700000Y-62500000D02*
G75*
G03X19700000Y-62500000I-7500000J0D01*
G01*
X16710000Y-62490000D02*
G75*
G03X16710000Y-62490000I-4500000J0D01*
G01*
X30410000Y-60760000D02*
X32780000Y-61520000D01*
X29730000Y-61990000D02*
X32020000Y-62130000D01*
X30440000Y-63250000D02*
X32740000Y-63100000D01*
X32310000Y-63970000D02*
X30030000Y-64480000D01*
X31190000Y-65520000D02*
X33190000Y-64580000D01*
X31080000Y-66780000D02*
X33030000Y-65630000D01*
X34150000Y-65840000D02*
X32280000Y-67420000D01*
X34440000Y-66870000D02*
X33100000Y-68720000D01*
X34460000Y-68810000D02*
X35450000Y-66750000D01*
X35910000Y-67450000D02*
X35150000Y-69630000D01*
X36490000Y-69340000D02*
X36840000Y-67010000D01*
X37490000Y-67710000D02*
X37420000Y-69940000D01*
X38640000Y-69260000D02*
X38180000Y-66910000D01*
X39050000Y-67380000D02*
X39830000Y-69430000D01*
X40830000Y-68480000D02*
X39580000Y-66340000D01*
X40570000Y-66560000D02*
X41770000Y-68340000D01*
X40660000Y-65400000D02*
X42210000Y-67020000D01*
X41640000Y-65280000D02*
X43390000Y-66580000D01*
X41430000Y-64070000D02*
X43560000Y-65120000D01*
X42250000Y-63620000D02*
X44370000Y-64300000D01*
X41710000Y-62930000D02*
X44070000Y-63090000D01*
X42370000Y-62230000D02*
X44660000Y-62260000D01*
X41670000Y-61640000D02*
X44010000Y-61320000D01*
X42090000Y-60680000D02*
X44330000Y-60260000D01*
X41230000Y-60320000D02*
X43400000Y-59350000D01*
X41340000Y-59450000D02*
X43370000Y-58360000D01*
X40390000Y-59230000D02*
X42210000Y-57800000D01*
X41730000Y-56580000D02*
X40170000Y-58360000D01*
X39200000Y-58400000D02*
X40540000Y-56490000D01*
X38700000Y-57480000D02*
X39540000Y-55460000D01*
X37760000Y-57990000D02*
X38300000Y-55710000D01*
X37200000Y-57130000D02*
X37200000Y-55010000D01*
X36620000Y-58020000D02*
X36210000Y-55550000D01*
X35880000Y-57320000D02*
X35020000Y-55350000D01*
X34350000Y-56220000D02*
X35460000Y-58200000D01*
X33160000Y-56260000D02*
X34610000Y-58140000D01*
X32760000Y-57260000D02*
X34320000Y-58980000D01*
X31680000Y-57490000D02*
X33200000Y-59000000D01*
X31430000Y-58840000D02*
X33290000Y-60070000D01*
X30360000Y-59470000D02*
X32420000Y-60500000D01*
X44700000Y-62500000D02*
G75*
G03X44700000Y-62500000I-7500000J0D01*
G01*
X41710000Y-62490000D02*
G75*
G03X41710000Y-62490000I-4500000J0D01*
G01*
X55410000Y-60760000D02*
X57780000Y-61520000D01*
X54730000Y-61990000D02*
X57020000Y-62130000D01*
X55440000Y-63250000D02*
X57740000Y-63100000D01*
X57310000Y-63970000D02*
X55030000Y-64480000D01*
X56190000Y-65520000D02*
X58190000Y-64580000D01*
X56080000Y-66780000D02*
X58030000Y-65630000D01*
X59150000Y-65840000D02*
X57280000Y-67420000D01*
X59440000Y-66870000D02*
X58100000Y-68720000D01*
X59460000Y-68810000D02*
X60450000Y-66750000D01*
X60910000Y-67450000D02*
X60150000Y-69630000D01*
X61490000Y-69340000D02*
X61840000Y-67010000D01*
X62490000Y-67710000D02*
X62420000Y-69940000D01*
X63640000Y-69260000D02*
X63180000Y-66910000D01*
X64050000Y-67380000D02*
X64830000Y-69430000D01*
X65830000Y-68480000D02*
X64580000Y-66340000D01*
X65570000Y-66560000D02*
X66770000Y-68340000D01*
X65660000Y-65400000D02*
X67210000Y-67020000D01*
X66640000Y-65280000D02*
X68390000Y-66580000D01*
X66430000Y-64070000D02*
X68560000Y-65120000D01*
X67250000Y-63620000D02*
X69370000Y-64300000D01*
X66710000Y-62930000D02*
X69070000Y-63090000D01*
X67370000Y-62230000D02*
X69660000Y-62260000D01*
X66670000Y-61640000D02*
X69010000Y-61320000D01*
X67090000Y-60680000D02*
X69330000Y-60260000D01*
X66230000Y-60320000D02*
X68400000Y-59350000D01*
X66340000Y-59450000D02*
X68370000Y-58360000D01*
X65390000Y-59230000D02*
X67210000Y-57800000D01*
X66730000Y-56580000D02*
X65170000Y-58360000D01*
X64200000Y-58400000D02*
X65540000Y-56490000D01*
X63700000Y-57480000D02*
X64540000Y-55460000D01*
X62760000Y-57990000D02*
X63300000Y-55710000D01*
X62200000Y-57130000D02*
X62200000Y-55010000D01*
X61620000Y-58020000D02*
X61210000Y-55550000D01*
X60880000Y-57320000D02*
X60020000Y-55350000D01*
X59350000Y-56220000D02*
X60460000Y-58200000D01*
X58160000Y-56260000D02*
X59610000Y-58140000D01*
X57760000Y-57260000D02*
X59320000Y-58980000D01*
X56680000Y-57490000D02*
X58200000Y-59000000D01*
X56430000Y-58840000D02*
X58290000Y-60070000D01*
X55360000Y-59470000D02*
X57420000Y-60500000D01*
X69700000Y-62500000D02*
G75*
G03X69700000Y-62500000I-7500000J0D01*
G01*
X66710000Y-62490000D02*
G75*
G03X66710000Y-62490000I-4500000J0D01*
G01*
X80410000Y-60760000D02*
X82780000Y-61520000D01*
X79730000Y-61990000D02*
X82020000Y-62130000D01*
X80440000Y-63250000D02*
X82740000Y-63100000D01*
X82310000Y-63970000D02*
X80030000Y-64480000D01*
X81190000Y-65520000D02*
X83190000Y-64580000D01*
X81080000Y-66780000D02*
X83030000Y-65630000D01*
X84150000Y-65840000D02*
X82280000Y-67420000D01*
X84440000Y-66870000D02*
X83100000Y-68720000D01*
X84460000Y-68810000D02*
X85450000Y-66750000D01*
X85910000Y-67450000D02*
X85150000Y-69630000D01*
X86490000Y-69340000D02*
X86840000Y-67010000D01*
X87490000Y-67710000D02*
X87420000Y-69940000D01*
X88640000Y-69260000D02*
X88180000Y-66910000D01*
X89050000Y-67380000D02*
X89830000Y-69430000D01*
X90830000Y-68480000D02*
X89580000Y-66340000D01*
X90570000Y-66560000D02*
X91770000Y-68340000D01*
X90660000Y-65400000D02*
X92210000Y-67020000D01*
X91640000Y-65280000D02*
X93390000Y-66580000D01*
X91430000Y-64070000D02*
X93560000Y-65120000D01*
X92250000Y-63620000D02*
X94370000Y-64300000D01*
X91710000Y-62930000D02*
X94070000Y-63090000D01*
X92370000Y-62230000D02*
X94660000Y-62260000D01*
X91670000Y-61640000D02*
X94010000Y-61320000D01*
X92090000Y-60680000D02*
X94330000Y-60260000D01*
X91230000Y-60320000D02*
X93400000Y-59350000D01*
X91340000Y-59450000D02*
X93370000Y-58360000D01*
X90390000Y-59230000D02*
X92210000Y-57800000D01*
X91730000Y-56580000D02*
X90170000Y-58360000D01*
X89200000Y-58400000D02*
X90540000Y-56490000D01*
X88700000Y-57480000D02*
X89540000Y-55460000D01*
X87760000Y-57990000D02*
X88300000Y-55710000D01*
X87200000Y-57130000D02*
X87200000Y-55010000D01*
X86620000Y-58020000D02*
X86210000Y-55550000D01*
X85880000Y-57320000D02*
X85020000Y-55350000D01*
X84350000Y-56220000D02*
X85460000Y-58200000D01*
X83160000Y-56260000D02*
X84610000Y-58140000D01*
X82760000Y-57260000D02*
X84320000Y-58980000D01*
X81680000Y-57490000D02*
X83200000Y-59000000D01*
X81430000Y-58840000D02*
X83290000Y-60070000D01*
X80360000Y-59470000D02*
X82420000Y-60500000D01*
X94700000Y-62500000D02*
G75*
G03X94700000Y-62500000I-7500000J0D01*
G01*
X91710000Y-62490000D02*
G75*
G03X91710000Y-62490000I-4500000J0D01*
G01*
X5410000Y-85760000D02*
X7780000Y-86520000D01*
X4730000Y-86990000D02*
X7020000Y-87130000D01*
X5440000Y-88250000D02*
X7740000Y-88100000D01*
X7310000Y-88970000D02*
X5030000Y-89480000D01*
X6190000Y-90520000D02*
X8190000Y-89580000D01*
X6080000Y-91780000D02*
X8030000Y-90630000D01*
X9150000Y-90840000D02*
X7280000Y-92420000D01*
X9440000Y-91870000D02*
X8100000Y-93720000D01*
X9460000Y-93810000D02*
X10450000Y-91750000D01*
X10910000Y-92450000D02*
X10150000Y-94630000D01*
X11490000Y-94340000D02*
X11840000Y-92010000D01*
X12490000Y-92710000D02*
X12420000Y-94940000D01*
X13640000Y-94260000D02*
X13180000Y-91910000D01*
X14050000Y-92380000D02*
X14830000Y-94430000D01*
X15830000Y-93480000D02*
X14580000Y-91340000D01*
X15570000Y-91560000D02*
X16770000Y-93340000D01*
X15660000Y-90400000D02*
X17210000Y-92020000D01*
X16640000Y-90280000D02*
X18390000Y-91580000D01*
X16430000Y-89070000D02*
X18560000Y-90120000D01*
X17250000Y-88620000D02*
X19370000Y-89300000D01*
X16710000Y-87930000D02*
X19070000Y-88090000D01*
X17370000Y-87230000D02*
X19660000Y-87260000D01*
X16670000Y-86640000D02*
X19010000Y-86320000D01*
X17090000Y-85680000D02*
X19330000Y-85260000D01*
X16230000Y-85320000D02*
X18400000Y-84350000D01*
X16340000Y-84450000D02*
X18370000Y-83360000D01*
X15390000Y-84230000D02*
X17210000Y-82800000D01*
X16730000Y-81580000D02*
X15170000Y-83360000D01*
X14200000Y-83400000D02*
X15540000Y-81490000D01*
X13700000Y-82480000D02*
X14540000Y-80460000D01*
X12760000Y-82990000D02*
X13300000Y-80710000D01*
X12200000Y-82130000D02*
X12200000Y-80010000D01*
X11620000Y-83020000D02*
X11210000Y-80550000D01*
X10880000Y-82320000D02*
X10020000Y-80350000D01*
X9350000Y-81220000D02*
X10460000Y-83200000D01*
X8160000Y-81260000D02*
X9610000Y-83140000D01*
X7760000Y-82260000D02*
X9320000Y-83980000D01*
X6680000Y-82490000D02*
X8200000Y-84000000D01*
X6430000Y-83840000D02*
X8290000Y-85070000D01*
X5360000Y-84470000D02*
X7420000Y-85500000D01*
X19700000Y-87500000D02*
G75*
G03X19700000Y-87500000I-7500000J0D01*
G01*
X16710000Y-87490000D02*
G75*
G03X16710000Y-87490000I-4500000J0D01*
G01*
X30410000Y-85760000D02*
X32780000Y-86520000D01*
X29730000Y-86990000D02*
X32020000Y-87130000D01*
X30440000Y-88250000D02*
X32740000Y-88100000D01*
X32310000Y-88970000D02*
X30030000Y-89480000D01*
X31190000Y-90520000D02*
X33190000Y-89580000D01*
X31080000Y-91780000D02*
X33030000Y-90630000D01*
X34150000Y-90840000D02*
X32280000Y-92420000D01*
X34440000Y-91870000D02*
X33100000Y-93720000D01*
X34460000Y-93810000D02*
X35450000Y-91750000D01*
X35910000Y-92450000D02*
X35150000Y-94630000D01*
X36490000Y-94340000D02*
X36840000Y-92010000D01*
X37490000Y-92710000D02*
X37420000Y-94940000D01*
X38640000Y-94260000D02*
X38180000Y-91910000D01*
X39050000Y-92380000D02*
X39830000Y-94430000D01*
X40830000Y-93480000D02*
X39580000Y-91340000D01*
X40570000Y-91560000D02*
X41770000Y-93340000D01*
X40660000Y-90400000D02*
X42210000Y-92020000D01*
X41640000Y-90280000D02*
X43390000Y-91580000D01*
X41430000Y-89070000D02*
X43560000Y-90120000D01*
X42250000Y-88620000D02*
X44370000Y-89300000D01*
X41710000Y-87930000D02*
X44070000Y-88090000D01*
X42370000Y-87230000D02*
X44660000Y-87260000D01*
X41670000Y-86640000D02*
X44010000Y-86320000D01*
X42090000Y-85680000D02*
X44330000Y-85260000D01*
X41230000Y-85320000D02*
X43400000Y-84350000D01*
X41340000Y-84450000D02*
X43370000Y-83360000D01*
X40390000Y-84230000D02*
X42210000Y-82800000D01*
X41730000Y-81580000D02*
X40170000Y-83360000D01*
X39200000Y-83400000D02*
X40540000Y-81490000D01*
X38700000Y-82480000D02*
X39540000Y-80460000D01*
X37760000Y-82990000D02*
X38300000Y-80710000D01*
X37200000Y-82130000D02*
X37200000Y-80010000D01*
X36620000Y-83020000D02*
X36210000Y-80550000D01*
X35880000Y-82320000D02*
X35020000Y-80350000D01*
X34350000Y-81220000D02*
X35460000Y-83200000D01*
X33160000Y-81260000D02*
X34610000Y-83140000D01*
X32760000Y-82260000D02*
X34320000Y-83980000D01*
X31680000Y-82490000D02*
X33200000Y-84000000D01*
X31430000Y-83840000D02*
X33290000Y-85070000D01*
X30360000Y-84470000D02*
X32420000Y-85500000D01*
X44700000Y-87500000D02*
G75*
G03X44700000Y-87500000I-7500000J0D01*
G01*
X41710000Y-87490000D02*
G75*
G03X41710000Y-87490000I-4500000J0D01*
G01*
X55410000Y-85760000D02*
X57780000Y-86520000D01*
X54730000Y-86990000D02*
X57020000Y-87130000D01*
X55440000Y-88250000D02*
X57740000Y-88100000D01*
X57310000Y-88970000D02*
X55030000Y-89480000D01*
X56190000Y-90520000D02*
X58190000Y-89580000D01*
X56080000Y-91780000D02*
X58030000Y-90630000D01*
X59150000Y-90840000D02*
X57280000Y-92420000D01*
X59440000Y-91870000D02*
X58100000Y-93720000D01*
X59460000Y-93810000D02*
X60450000Y-91750000D01*
X60910000Y-92450000D02*
X60150000Y-94630000D01*
X61490000Y-94340000D02*
X61840000Y-92010000D01*
X62490000Y-92710000D02*
X62420000Y-94940000D01*
X63640000Y-94260000D02*
X63180000Y-91910000D01*
X64050000Y-92380000D02*
X64830000Y-94430000D01*
X65830000Y-93480000D02*
X64580000Y-91340000D01*
X65570000Y-91560000D02*
X66770000Y-93340000D01*
X65660000Y-90400000D02*
X67210000Y-92020000D01*
X66640000Y-90280000D02*
X68390000Y-91580000D01*
X66430000Y-89070000D02*
X68560000Y-90120000D01*
X67250000Y-88620000D02*
X69370000Y-89300000D01*
X66710000Y-87930000D02*
X69070000Y-88090000D01*
X67370000Y-87230000D02*
X69660000Y-87260000D01*
X66670000Y-86640000D02*
X69010000Y-86320000D01*
X67090000Y-85680000D02*
X69330000Y-85260000D01*
X66230000Y-85320000D02*
X68400000Y-84350000D01*
X66340000Y-84450000D02*
X68370000Y-83360000D01*
X65390000Y-84230000D02*
X67210000Y-82800000D01*
X66730000Y-81580000D02*
X65170000Y-83360000D01*
X64200000Y-83400000D02*
X65540000Y-81490000D01*
X63700000Y-82480000D02*
X64540000Y-80460000D01*
X62760000Y-82990000D02*
X63300000Y-80710000D01*
X62200000Y-82130000D02*
X62200000Y-80010000D01*
X61620000Y-83020000D02*
X61210000Y-80550000D01*
X60880000Y-82320000D02*
X60020000Y-80350000D01*
X59350000Y-81220000D02*
X60460000Y-83200000D01*
X58160000Y-81260000D02*
X59610000Y-83140000D01*
X57760000Y-82260000D02*
X59320000Y-83980000D01*
X56680000Y-82490000D02*
X58200000Y-84000000D01*
X56430000Y-83840000D02*
X58290000Y-85070000D01*
X55360000Y-84470000D02*
X57420000Y-85500000D01*
X69700000Y-87500000D02*
G75*
G03X69700000Y-87500000I-7500000J0D01*
G01*
X66710000Y-87490000D02*
G75*
G03X66710000Y-87490000I-4500000J0D01*
G01*
X80410000Y-85760000D02*
X82780000Y-86520000D01*
X79730000Y-86990000D02*
X82020000Y-87130000D01*
X80440000Y-88250000D02*
X82740000Y-88100000D01*
X82310000Y-88970000D02*
X80030000Y-89480000D01*
X81190000Y-90520000D02*
X83190000Y-89580000D01*
X81080000Y-91780000D02*
X83030000Y-90630000D01*
X84150000Y-90840000D02*
X82280000Y-92420000D01*
X84440000Y-91870000D02*
X83100000Y-93720000D01*
X84460000Y-93810000D02*
X85450000Y-91750000D01*
X85910000Y-92450000D02*
X85150000Y-94630000D01*
X86490000Y-94340000D02*
X86840000Y-92010000D01*
X87490000Y-92710000D02*
X87420000Y-94940000D01*
X88640000Y-94260000D02*
X88180000Y-91910000D01*
X89050000Y-92380000D02*
X89830000Y-94430000D01*
X90830000Y-93480000D02*
X89580000Y-91340000D01*
X90570000Y-91560000D02*
X91770000Y-93340000D01*
X90660000Y-90400000D02*
X92210000Y-92020000D01*
X91640000Y-90280000D02*
X93390000Y-91580000D01*
X91430000Y-89070000D02*
X93560000Y-90120000D01*
X92250000Y-88620000D02*
X94370000Y-89300000D01*
X91710000Y-87930000D02*
X94070000Y-88090000D01*
X92370000Y-87230000D02*
X94660000Y-87260000D01*
X91670000Y-86640000D02*
X94010000Y-86320000D01*
X92090000Y-85680000D02*
X94330000Y-85260000D01*
X91230000Y-85320000D02*
X93400000Y-84350000D01*
X91340000Y-84450000D02*
X93370000Y-83360000D01*
X90390000Y-84230000D02*
X92210000Y-82800000D01*
X91730000Y-81580000D02*
X90170000Y-83360000D01*
X89200000Y-83400000D02*
X90540000Y-81490000D01*
X88700000Y-82480000D02*
X89540000Y-80460000D01*
X87760000Y-82990000D02*
X88300000Y-80710000D01*
X87200000Y-82130000D02*
X87200000Y-80010000D01*
X86620000Y-83020000D02*
X86210000Y-80550000D01*
X85880000Y-82320000D02*
X85020000Y-80350000D01*
X84350000Y-81220000D02*
X85460000Y-83200000D01*
X83160000Y-81260000D02*
X84610000Y-83140000D01*
X82760000Y-82260000D02*
X84320000Y-83980000D01*
X81680000Y-82490000D02*
X83200000Y-84000000D01*
X81430000Y-83840000D02*
X83290000Y-85070000D01*
X80360000Y-84470000D02*
X82420000Y-85500000D01*
X94700000Y-87500000D02*
G75*
G03X94700000Y-87500000I-7500000J0D01*
G01*
X91710000Y-87490000D02*
G75*
G03X91710000Y-87490000I-4500000J0D01*
G01*
X5410000Y-110760000D02*
X7780000Y-111520000D01*
X4730000Y-111990000D02*
X7020000Y-112130000D01*
X5440000Y-113250000D02*
X7740000Y-113100000D01*
X7310000Y-113970000D02*
X5030000Y-114480000D01*
X6190000Y-115520000D02*
X8190000Y-114580000D01*
X6080000Y-116780000D02*
X8030000Y-115630000D01*
X9150000Y-115840000D02*
X7280000Y-117420000D01*
X9440000Y-116870000D02*
X8100000Y-118720000D01*
X9460000Y-118810000D02*
X10450000Y-116750000D01*
X10910000Y-117450000D02*
X10150000Y-119630000D01*
X11490000Y-119340000D02*
X11840000Y-117010000D01*
X12490000Y-117710000D02*
X12420000Y-119940000D01*
X13640000Y-119260000D02*
X13180000Y-116910000D01*
X14050000Y-117380000D02*
X14830000Y-119430000D01*
X15830000Y-118480000D02*
X14580000Y-116340000D01*
X15570000Y-116560000D02*
X16770000Y-118340000D01*
X15660000Y-115400000D02*
X17210000Y-117020000D01*
X16640000Y-115280000D02*
X18390000Y-116580000D01*
X16430000Y-114070000D02*
X18560000Y-115120000D01*
X17250000Y-113620000D02*
X19370000Y-114300000D01*
X16710000Y-112930000D02*
X19070000Y-113090000D01*
X17370000Y-112230000D02*
X19660000Y-112260000D01*
X16670000Y-111640000D02*
X19010000Y-111320000D01*
X17090000Y-110680000D02*
X19330000Y-110260000D01*
X16230000Y-110320000D02*
X18400000Y-109350000D01*
X16340000Y-109450000D02*
X18370000Y-108360000D01*
X15390000Y-109230000D02*
X17210000Y-107800000D01*
X16730000Y-106580000D02*
X15170000Y-108360000D01*
X14200000Y-108400000D02*
X15540000Y-106490000D01*
X13700000Y-107480000D02*
X14540000Y-105460000D01*
X12760000Y-107990000D02*
X13300000Y-105710000D01*
X12200000Y-107130000D02*
X12200000Y-105010000D01*
X11620000Y-108020000D02*
X11210000Y-105550000D01*
X10880000Y-107320000D02*
X10020000Y-105350000D01*
X9350000Y-106220000D02*
X10460000Y-108200000D01*
X8160000Y-106260000D02*
X9610000Y-108140000D01*
X7760000Y-107260000D02*
X9320000Y-108980000D01*
X6680000Y-107490000D02*
X8200000Y-109000000D01*
X6430000Y-108840000D02*
X8290000Y-110070000D01*
X5360000Y-109470000D02*
X7420000Y-110500000D01*
X19700000Y-112500000D02*
G75*
G03X19700000Y-112500000I-7500000J0D01*
G01*
X16710000Y-112490000D02*
G75*
G03X16710000Y-112490000I-4500000J0D01*
G01*
X30387000Y-110760000D02*
X32757000Y-111520000D01*
X29707000Y-111990000D02*
X31997000Y-112130000D01*
X30417000Y-113250000D02*
X32717000Y-113100000D01*
X32287000Y-113970000D02*
X30007000Y-114480000D01*
X31167000Y-115520000D02*
X33167000Y-114580000D01*
X31057000Y-116780000D02*
X33007000Y-115630000D01*
X34127000Y-115840000D02*
X32257000Y-117420000D01*
X34417000Y-116870000D02*
X33077000Y-118720000D01*
X34437000Y-118810000D02*
X35427000Y-116750000D01*
X35887000Y-117450000D02*
X35127000Y-119630000D01*
X36467000Y-119340000D02*
X36817000Y-117010000D01*
X37467000Y-117710000D02*
X37397000Y-119940000D01*
X38617000Y-119260000D02*
X38157000Y-116910000D01*
X39027000Y-117380000D02*
X39807000Y-119430000D01*
X40807000Y-118480000D02*
X39557000Y-116340000D01*
X40547000Y-116560000D02*
X41747000Y-118340000D01*
X40637000Y-115400000D02*
X42187000Y-117020000D01*
X41617000Y-115280000D02*
X43367000Y-116580000D01*
X41407000Y-114070000D02*
X43537000Y-115120000D01*
X42227000Y-113620000D02*
X44347000Y-114300000D01*
X41687000Y-112930000D02*
X44047000Y-113090000D01*
X42347000Y-112230000D02*
X44637000Y-112260000D01*
X41647000Y-111640000D02*
X43987000Y-111320000D01*
X42067000Y-110680000D02*
X44307000Y-110260000D01*
X41207000Y-110320000D02*
X43377000Y-109350000D01*
X41317000Y-109450000D02*
X43347000Y-108360000D01*
X40367000Y-109230000D02*
X42187000Y-107800000D01*
X41707000Y-106580000D02*
X40147000Y-108360000D01*
X39177000Y-108400000D02*
X40517000Y-106490000D01*
X38677000Y-107480000D02*
X39517000Y-105460000D01*
X37737000Y-107990000D02*
X38277000Y-105710000D01*
X37177000Y-107130000D02*
X37177000Y-105010000D01*
X36597000Y-108020000D02*
X36187000Y-105550000D01*
X35857000Y-107320000D02*
X34997000Y-105350000D01*
X34327000Y-106220000D02*
X35437000Y-108200000D01*
X33137000Y-106260000D02*
X34587000Y-108140000D01*
X32737000Y-107260000D02*
X34297000Y-108980000D01*
X31657000Y-107490000D02*
X33177000Y-109000000D01*
X31407000Y-108840000D02*
X33267000Y-110070000D01*
X30337000Y-109470000D02*
X32397000Y-110500000D01*
X44677000Y-112500000D02*
G75*
G03X44677000Y-112500000I-7500000J0D01*
G01*
X41687000Y-112490000D02*
G75*
G03X41687000Y-112490000I-4500000J0D01*
G01*
X55410000Y-110760000D02*
X57780000Y-111520000D01*
X54730000Y-111990000D02*
X57020000Y-112130000D01*
X55440000Y-113250000D02*
X57740000Y-113100000D01*
X57310000Y-113970000D02*
X55030000Y-114480000D01*
X56190000Y-115520000D02*
X58190000Y-114580000D01*
X56080000Y-116780000D02*
X58030000Y-115630000D01*
X59150000Y-115840000D02*
X57280000Y-117420000D01*
X59440000Y-116870000D02*
X58100000Y-118720000D01*
X59460000Y-118810000D02*
X60450000Y-116750000D01*
X60910000Y-117450000D02*
X60150000Y-119630000D01*
X61490000Y-119340000D02*
X61840000Y-117010000D01*
X62490000Y-117710000D02*
X62420000Y-119940000D01*
X63640000Y-119260000D02*
X63180000Y-116910000D01*
X64050000Y-117380000D02*
X64830000Y-119430000D01*
X65830000Y-118480000D02*
X64580000Y-116340000D01*
X65570000Y-116560000D02*
X66770000Y-118340000D01*
X65660000Y-115400000D02*
X67210000Y-117020000D01*
X66640000Y-115280000D02*
X68390000Y-116580000D01*
X66430000Y-114070000D02*
X68560000Y-115120000D01*
X67250000Y-113620000D02*
X69370000Y-114300000D01*
X66710000Y-112930000D02*
X69070000Y-113090000D01*
X67370000Y-112230000D02*
X69660000Y-112260000D01*
X66670000Y-111640000D02*
X69010000Y-111320000D01*
X67090000Y-110680000D02*
X69330000Y-110260000D01*
X66230000Y-110320000D02*
X68400000Y-109350000D01*
X66340000Y-109450000D02*
X68370000Y-108360000D01*
X65390000Y-109230000D02*
X67210000Y-107800000D01*
X66730000Y-106580000D02*
X65170000Y-108360000D01*
X64200000Y-108400000D02*
X65540000Y-106490000D01*
X63700000Y-107480000D02*
X64540000Y-105460000D01*
X62760000Y-107990000D02*
X63300000Y-105710000D01*
X62200000Y-107130000D02*
X62200000Y-105010000D01*
X61620000Y-108020000D02*
X61210000Y-105550000D01*
X60880000Y-107320000D02*
X60020000Y-105350000D01*
X59350000Y-106220000D02*
X60460000Y-108200000D01*
X58160000Y-106260000D02*
X59610000Y-108140000D01*
X57760000Y-107260000D02*
X59320000Y-108980000D01*
X56680000Y-107490000D02*
X58200000Y-109000000D01*
X56430000Y-108840000D02*
X58290000Y-110070000D01*
X55360000Y-109470000D02*
X57420000Y-110500000D01*
X69700000Y-112500000D02*
G75*
G03X69700000Y-112500000I-7500000J0D01*
G01*
X66710000Y-112490000D02*
G75*
G03X66710000Y-112490000I-4500000J0D01*
G01*
X80410000Y-110760000D02*
X82780000Y-111520000D01*
X79730000Y-111990000D02*
X82020000Y-112130000D01*
X80440000Y-113250000D02*
X82740000Y-113100000D01*
X82310000Y-113970000D02*
X80030000Y-114480000D01*
X81190000Y-115520000D02*
X83190000Y-114580000D01*
X81080000Y-116780000D02*
X83030000Y-115630000D01*
X84150000Y-115840000D02*
X82280000Y-117420000D01*
X84440000Y-116870000D02*
X83100000Y-118720000D01*
X84460000Y-118810000D02*
X85450000Y-116750000D01*
X85910000Y-117450000D02*
X85150000Y-119630000D01*
X86490000Y-119340000D02*
X86840000Y-117010000D01*
X87490000Y-117710000D02*
X87420000Y-119940000D01*
X88640000Y-119260000D02*
X88180000Y-116910000D01*
X89050000Y-117380000D02*
X89830000Y-119430000D01*
X90830000Y-118480000D02*
X89580000Y-116340000D01*
X90570000Y-116560000D02*
X91770000Y-118340000D01*
X90660000Y-115400000D02*
X92210000Y-117020000D01*
X91640000Y-115280000D02*
X93390000Y-116580000D01*
X91430000Y-114070000D02*
X93560000Y-115120000D01*
X92250000Y-113620000D02*
X94370000Y-114300000D01*
X91710000Y-112930000D02*
X94070000Y-113090000D01*
X92370000Y-112230000D02*
X94660000Y-112260000D01*
X91670000Y-111640000D02*
X94010000Y-111320000D01*
X92090000Y-110680000D02*
X94330000Y-110260000D01*
X91230000Y-110320000D02*
X93400000Y-109350000D01*
X91340000Y-109450000D02*
X93370000Y-108360000D01*
X90390000Y-109230000D02*
X92210000Y-107800000D01*
X91730000Y-106580000D02*
X90170000Y-108360000D01*
X89200000Y-108400000D02*
X90540000Y-106490000D01*
X88700000Y-107480000D02*
X89540000Y-105460000D01*
X87760000Y-107990000D02*
X88300000Y-105710000D01*
X87200000Y-107130000D02*
X87200000Y-105010000D01*
X86620000Y-108020000D02*
X86210000Y-105550000D01*
X85880000Y-107320000D02*
X85020000Y-105350000D01*
X84350000Y-106220000D02*
X85460000Y-108200000D01*
X83160000Y-106260000D02*
X84610000Y-108140000D01*
X82760000Y-107260000D02*
X84320000Y-108980000D01*
X81680000Y-107490000D02*
X83200000Y-109000000D01*
X81430000Y-108840000D02*
X83290000Y-110070000D01*
X80360000Y-109470000D02*
X82420000Y-110500000D01*
X94700000Y-112500000D02*
G75*
G03X94700000Y-112500000I-7500000J0D01*
G01*
X91710000Y-112490000D02*
G75*
G03X91710000Y-112490000I-4500000J0D01*
G01*
X5410000Y-135760000D02*
X7780000Y-136520000D01*
X4730000Y-136990000D02*
X7020000Y-137130000D01*
X5440000Y-138250000D02*
X7740000Y-138100000D01*
X7310000Y-138970000D02*
X5030000Y-139480000D01*
X6190000Y-140520000D02*
X8190000Y-139580000D01*
X6080000Y-141780000D02*
X8030000Y-140630000D01*
X9150000Y-140840000D02*
X7280000Y-142420000D01*
X9440000Y-141870000D02*
X8100000Y-143720000D01*
X9460000Y-143810000D02*
X10450000Y-141750000D01*
X10910000Y-142450000D02*
X10150000Y-144630000D01*
X11490000Y-144340000D02*
X11840000Y-142010000D01*
X12490000Y-142710000D02*
X12420000Y-144940000D01*
X13640000Y-144260000D02*
X13180000Y-141910000D01*
X14050000Y-142380000D02*
X14830000Y-144430000D01*
X15830000Y-143480000D02*
X14580000Y-141340000D01*
X15570000Y-141560000D02*
X16770000Y-143340000D01*
X15660000Y-140400000D02*
X17210000Y-142020000D01*
X16640000Y-140280000D02*
X18390000Y-141580000D01*
X16430000Y-139070000D02*
X18560000Y-140120000D01*
X17250000Y-138620000D02*
X19370000Y-139300000D01*
X16710000Y-137930000D02*
X19070000Y-138090000D01*
X17370000Y-137230000D02*
X19660000Y-137260000D01*
X16670000Y-136640000D02*
X19010000Y-136320000D01*
X17090000Y-135680000D02*
X19330000Y-135260000D01*
X16230000Y-135320000D02*
X18400000Y-134350000D01*
X16340000Y-134450000D02*
X18370000Y-133360000D01*
X15390000Y-134230000D02*
X17210000Y-132800000D01*
X16730000Y-131580000D02*
X15170000Y-133360000D01*
X14200000Y-133400000D02*
X15540000Y-131490000D01*
X13700000Y-132480000D02*
X14540000Y-130460000D01*
X12760000Y-132990000D02*
X13300000Y-130710000D01*
X12200000Y-132130000D02*
X12200000Y-130010000D01*
X11620000Y-133020000D02*
X11210000Y-130550000D01*
X10880000Y-132320000D02*
X10020000Y-130350000D01*
X9350000Y-131220000D02*
X10460000Y-133200000D01*
X8160000Y-131260000D02*
X9610000Y-133140000D01*
X7760000Y-132260000D02*
X9320000Y-133980000D01*
X6680000Y-132490000D02*
X8200000Y-134000000D01*
X6430000Y-133840000D02*
X8290000Y-135070000D01*
X5360000Y-134470000D02*
X7420000Y-135500000D01*
X19700000Y-137500000D02*
G75*
G03X19700000Y-137500000I-7500000J0D01*
G01*
X16710000Y-137490000D02*
G75*
G03X16710000Y-137490000I-4500000J0D01*
G01*
X30410000Y-135760000D02*
X32780000Y-136520000D01*
X29730000Y-136990000D02*
X32020000Y-137130000D01*
X30440000Y-138250000D02*
X32740000Y-138100000D01*
X32310000Y-138970000D02*
X30030000Y-139480000D01*
X31190000Y-140520000D02*
X33190000Y-139580000D01*
X31080000Y-141780000D02*
X33030000Y-140630000D01*
X34150000Y-140840000D02*
X32280000Y-142420000D01*
X34440000Y-141870000D02*
X33100000Y-143720000D01*
X34460000Y-143810000D02*
X35450000Y-141750000D01*
X35910000Y-142450000D02*
X35150000Y-144630000D01*
X36490000Y-144340000D02*
X36840000Y-142010000D01*
X37490000Y-142710000D02*
X37420000Y-144940000D01*
X38640000Y-144260000D02*
X38180000Y-141910000D01*
X39050000Y-142380000D02*
X39830000Y-144430000D01*
X40830000Y-143480000D02*
X39580000Y-141340000D01*
X40570000Y-141560000D02*
X41770000Y-143340000D01*
X40660000Y-140400000D02*
X42210000Y-142020000D01*
X41640000Y-140280000D02*
X43390000Y-141580000D01*
X41430000Y-139070000D02*
X43560000Y-140120000D01*
X42250000Y-138620000D02*
X44370000Y-139300000D01*
X41710000Y-137930000D02*
X44070000Y-138090000D01*
X42370000Y-137230000D02*
X44660000Y-137260000D01*
X41670000Y-136640000D02*
X44010000Y-136320000D01*
X42090000Y-135680000D02*
X44330000Y-135260000D01*
X41230000Y-135320000D02*
X43400000Y-134350000D01*
X41340000Y-134450000D02*
X43370000Y-133360000D01*
X40390000Y-134230000D02*
X42210000Y-132800000D01*
X41730000Y-131580000D02*
X40170000Y-133360000D01*
X39200000Y-133400000D02*
X40540000Y-131490000D01*
X38700000Y-132480000D02*
X39540000Y-130460000D01*
X37760000Y-132990000D02*
X38300000Y-130710000D01*
X37200000Y-132130000D02*
X37200000Y-130010000D01*
X36620000Y-133020000D02*
X36210000Y-130550000D01*
X35880000Y-132320000D02*
X35020000Y-130350000D01*
X34350000Y-131220000D02*
X35460000Y-133200000D01*
X33160000Y-131260000D02*
X34610000Y-133140000D01*
X32760000Y-132260000D02*
X34320000Y-133980000D01*
X31680000Y-132490000D02*
X33200000Y-134000000D01*
X31430000Y-133840000D02*
X33290000Y-135070000D01*
X30360000Y-134470000D02*
X32420000Y-135500000D01*
X44700000Y-137500000D02*
G75*
G03X44700000Y-137500000I-7500000J0D01*
G01*
X41710000Y-137490000D02*
G75*
G03X41710000Y-137490000I-4500000J0D01*
G01*
X55410000Y-135760000D02*
X57780000Y-136520000D01*
X54730000Y-136990000D02*
X57020000Y-137130000D01*
X55440000Y-138250000D02*
X57740000Y-138100000D01*
X57310000Y-138970000D02*
X55030000Y-139480000D01*
X56190000Y-140520000D02*
X58190000Y-139580000D01*
X56080000Y-141780000D02*
X58030000Y-140630000D01*
X59150000Y-140840000D02*
X57280000Y-142420000D01*
X59440000Y-141870000D02*
X58100000Y-143720000D01*
X59460000Y-143810000D02*
X60450000Y-141750000D01*
X60910000Y-142450000D02*
X60150000Y-144630000D01*
X61490000Y-144340000D02*
X61840000Y-142010000D01*
X62490000Y-142710000D02*
X62420000Y-144940000D01*
X63640000Y-144260000D02*
X63180000Y-141910000D01*
X64050000Y-142380000D02*
X64830000Y-144430000D01*
X65830000Y-143480000D02*
X64580000Y-141340000D01*
X65570000Y-141560000D02*
X66770000Y-143340000D01*
X65660000Y-140400000D02*
X67210000Y-142020000D01*
X66640000Y-140280000D02*
X68390000Y-141580000D01*
X66430000Y-139070000D02*
X68560000Y-140120000D01*
X67250000Y-138620000D02*
X69370000Y-139300000D01*
X66710000Y-137930000D02*
X69070000Y-138090000D01*
X67370000Y-137230000D02*
X69660000Y-137260000D01*
X66670000Y-136640000D02*
X69010000Y-136320000D01*
X67090000Y-135680000D02*
X69330000Y-135260000D01*
X66230000Y-135320000D02*
X68400000Y-134350000D01*
X66340000Y-134450000D02*
X68370000Y-133360000D01*
X65390000Y-134230000D02*
X67210000Y-132800000D01*
X66730000Y-131580000D02*
X65170000Y-133360000D01*
X64200000Y-133400000D02*
X65540000Y-131490000D01*
X63700000Y-132480000D02*
X64540000Y-130460000D01*
X62760000Y-132990000D02*
X63300000Y-130710000D01*
X62200000Y-132130000D02*
X62200000Y-130010000D01*
X61620000Y-133020000D02*
X61210000Y-130550000D01*
X60880000Y-132320000D02*
X60020000Y-130350000D01*
X59350000Y-131220000D02*
X60460000Y-133200000D01*
X58160000Y-131260000D02*
X59610000Y-133140000D01*
X57760000Y-132260000D02*
X59320000Y-133980000D01*
X56680000Y-132490000D02*
X58200000Y-134000000D01*
X56430000Y-133840000D02*
X58290000Y-135070000D01*
X55360000Y-134470000D02*
X57420000Y-135500000D01*
X69700000Y-137500000D02*
G75*
G03X69700000Y-137500000I-7500000J0D01*
G01*
X66710000Y-137490000D02*
G75*
G03X66710000Y-137490000I-4500000J0D01*
G01*
X80410000Y-135760000D02*
X82780000Y-136520000D01*
X79730000Y-136990000D02*
X82020000Y-137130000D01*
X80440000Y-138250000D02*
X82740000Y-138100000D01*
X82310000Y-138970000D02*
X80030000Y-139480000D01*
X81190000Y-140520000D02*
X83190000Y-139580000D01*
X81080000Y-141780000D02*
X83030000Y-140630000D01*
X84150000Y-140840000D02*
X82280000Y-142420000D01*
X84440000Y-141870000D02*
X83100000Y-143720000D01*
X84460000Y-143810000D02*
X85450000Y-141750000D01*
X85910000Y-142450000D02*
X85150000Y-144630000D01*
X86490000Y-144340000D02*
X86840000Y-142010000D01*
X87490000Y-142710000D02*
X87420000Y-144940000D01*
X88640000Y-144260000D02*
X88180000Y-141910000D01*
X89050000Y-142380000D02*
X89830000Y-144430000D01*
X90830000Y-143480000D02*
X89580000Y-141340000D01*
X90570000Y-141560000D02*
X91770000Y-143340000D01*
X90660000Y-140400000D02*
X92210000Y-142020000D01*
X91640000Y-140280000D02*
X93390000Y-141580000D01*
X91430000Y-139070000D02*
X93560000Y-140120000D01*
X92250000Y-138620000D02*
X94370000Y-139300000D01*
X91710000Y-137930000D02*
X94070000Y-138090000D01*
X92370000Y-137230000D02*
X94660000Y-137260000D01*
X91670000Y-136640000D02*
X94010000Y-136320000D01*
X92090000Y-135680000D02*
X94330000Y-135260000D01*
X91230000Y-135320000D02*
X93400000Y-134350000D01*
X91340000Y-134450000D02*
X93370000Y-133360000D01*
X90390000Y-134230000D02*
X92210000Y-132800000D01*
X91730000Y-131580000D02*
X90170000Y-133360000D01*
X89200000Y-133400000D02*
X90540000Y-131490000D01*
X88700000Y-132480000D02*
X89540000Y-130460000D01*
X87760000Y-132990000D02*
X88300000Y-130710000D01*
X87200000Y-132130000D02*
X87200000Y-130010000D01*
X86620000Y-133020000D02*
X86210000Y-130550000D01*
X85880000Y-132320000D02*
X85020000Y-130350000D01*
X84350000Y-131220000D02*
X85460000Y-133200000D01*
X83160000Y-131260000D02*
X84610000Y-133140000D01*
X82760000Y-132260000D02*
X84320000Y-133980000D01*
X81680000Y-132490000D02*
X83200000Y-134000000D01*
X81430000Y-133840000D02*
X83290000Y-135070000D01*
X80360000Y-134470000D02*
X82420000Y-135500000D01*
X94700000Y-137500000D02*
G75*
G03X94700000Y-137500000I-7500000J0D01*
G01*
X91710000Y-137490000D02*
G75*
G03X91710000Y-137490000I-4500000J0D01*
G01*
D12*
X43723000Y-154400000D03*
X48877000Y-154400000D03*
X48877000Y-157600000D03*
X43723000Y-157600000D03*
D13*
X7872500Y-36841000D03*
X7872500Y-41159000D03*
X16127500Y-41159000D03*
X16127500Y-36841000D03*
D14*
X35560000Y-24130000D03*
X33020000Y-24130000D03*
X30480000Y-24130000D03*
X27940000Y-24130000D03*
X25400000Y-24130000D03*
X22860000Y-24130000D03*
D15*
X12800000Y-58010000D03*
X14570000Y-55390000D03*
D16*
X9700000Y-60800000D03*
X9700000Y-64000000D03*
X14700000Y-64000000D03*
X14700000Y-60800000D03*
D17*
X2500000Y-52500000D03*
D15*
X35400000Y-66650000D03*
X33050000Y-68750000D03*
D16*
X34700000Y-60800000D03*
X34700000Y-64000000D03*
X39700000Y-64000000D03*
X39700000Y-60800000D03*
D18*
X37500000Y-75000000D03*
D19*
X8000000Y-2500000D03*
D14*
X10540000Y-2500000D03*
X13080000Y-2500000D03*
X15620000Y-2500000D03*
X18160000Y-2500000D03*
X20700000Y-2500000D03*
X23240000Y-2500000D03*
X25780000Y-2500000D03*
X28320000Y-2500000D03*
X30860000Y-2500000D03*
X33400000Y-2500000D03*
X35940000Y-2500000D03*
X38480000Y-2500000D03*
X41020000Y-2500000D03*
X43560000Y-2500000D03*
X46100000Y-2500000D03*
D17*
X2500000Y-2500000D03*
D20*
X89495000Y-15360000D03*
X86995000Y-15360000D03*
X84495000Y-15360000D03*
D21*
X92545000Y-22860000D03*
X81445000Y-22860000D03*
D22*
X84495000Y-29860000D03*
X89495000Y-29860000D03*
D23*
X52413000Y-90000000D03*
X47587000Y-90000000D03*
D24*
X91000000Y-11877800D03*
X91025400Y-4557000D03*
X94761600Y-8700000D03*
D12*
X18723000Y-37400000D03*
X23877000Y-37400000D03*
X23877000Y-40600000D03*
X18723000Y-40600000D03*
X44723000Y-37300000D03*
X49877000Y-37300000D03*
X49877000Y-40500000D03*
X44723000Y-40500000D03*
X68723000Y-37400000D03*
X73877000Y-37400000D03*
X73877000Y-40600000D03*
X68723000Y-40600000D03*
X93723000Y-37400000D03*
X98877000Y-37400000D03*
X98877000Y-40600000D03*
X93723000Y-40600000D03*
X18723000Y-44400000D03*
X23877000Y-44400000D03*
X23877000Y-47600000D03*
X18723000Y-47600000D03*
X44723000Y-44400000D03*
X49877000Y-44400000D03*
X49877000Y-47600000D03*
X44723000Y-47600000D03*
X68723000Y-44400000D03*
X73877000Y-44400000D03*
X73877000Y-47600000D03*
X68723000Y-47600000D03*
X93723000Y-44400000D03*
X98877000Y-44400000D03*
X98877000Y-47600000D03*
X93723000Y-47600000D03*
X18723000Y-154400000D03*
X23877000Y-154400000D03*
X23877000Y-157600000D03*
X18723000Y-157600000D03*
X68723000Y-154400000D03*
X73877000Y-154400000D03*
X73877000Y-157600000D03*
X68723000Y-157600000D03*
X93723000Y-154400000D03*
X98877000Y-154400000D03*
X98877000Y-157600000D03*
X93723000Y-157600000D03*
D15*
X60400000Y-66650000D03*
X58050000Y-68750000D03*
D16*
X59700000Y-60800000D03*
X59700000Y-64000000D03*
X64700000Y-64000000D03*
X64700000Y-60800000D03*
D15*
X85400000Y-66650000D03*
X83050000Y-68750000D03*
D16*
X84700000Y-60800000D03*
X84700000Y-64000000D03*
X89700000Y-64000000D03*
X89700000Y-60800000D03*
D15*
X10400000Y-91650000D03*
X8050000Y-93750000D03*
D16*
X9700000Y-85800000D03*
X9700000Y-89000000D03*
X14700000Y-89000000D03*
X14700000Y-85800000D03*
D15*
X35400000Y-91650000D03*
X33050000Y-93750000D03*
D16*
X34700000Y-85800000D03*
X34700000Y-89000000D03*
X39700000Y-89000000D03*
X39700000Y-85800000D03*
D15*
X60400000Y-91650000D03*
X58050000Y-93750000D03*
D16*
X59700000Y-85800000D03*
X59700000Y-89000000D03*
X64700000Y-89000000D03*
X64700000Y-85800000D03*
D15*
X85400000Y-91650000D03*
X83050000Y-93750000D03*
D16*
X84700000Y-85800000D03*
X84700000Y-89000000D03*
X89700000Y-89000000D03*
X89700000Y-85800000D03*
D15*
X10400000Y-116650000D03*
X8050000Y-118750000D03*
D16*
X9700000Y-110800000D03*
X9700000Y-114000000D03*
X14700000Y-114000000D03*
X14700000Y-110800000D03*
D15*
X35377000Y-116650000D03*
X33027000Y-118750000D03*
D16*
X34677000Y-110800000D03*
X34677000Y-114000000D03*
X39677000Y-114000000D03*
X39677000Y-110800000D03*
D15*
X60400000Y-116650000D03*
X58050000Y-118750000D03*
D16*
X59700000Y-110800000D03*
X59700000Y-114000000D03*
X64700000Y-114000000D03*
X64700000Y-110800000D03*
D15*
X85400000Y-116650000D03*
X83050000Y-118750000D03*
D16*
X84700000Y-110800000D03*
X84700000Y-114000000D03*
X89700000Y-114000000D03*
X89700000Y-110800000D03*
D15*
X10400000Y-141650000D03*
X8050000Y-143750000D03*
D16*
X9700000Y-135800000D03*
X9700000Y-139000000D03*
X14700000Y-139000000D03*
X14700000Y-135800000D03*
D15*
X35400000Y-141650000D03*
X33050000Y-143750000D03*
D16*
X34700000Y-135800000D03*
X34700000Y-139000000D03*
X39700000Y-139000000D03*
X39700000Y-135800000D03*
D15*
X60400000Y-141650000D03*
X58050000Y-143750000D03*
D16*
X59700000Y-135800000D03*
X59700000Y-139000000D03*
X64700000Y-139000000D03*
X64700000Y-135800000D03*
D15*
X85400000Y-141650000D03*
X83050000Y-143750000D03*
D16*
X84700000Y-135800000D03*
X84700000Y-139000000D03*
X89700000Y-139000000D03*
X89700000Y-135800000D03*
D25*
X5000000Y-36860380D03*
X5000000Y-40939620D03*
X30000000Y-36960380D03*
X30000000Y-41039620D03*
X55000000Y-36749980D03*
X55000000Y-40829220D03*
X80000000Y-36960380D03*
X80000000Y-41039620D03*
D26*
X80460380Y-32700000D03*
X84539620Y-32700000D03*
D25*
X5000000Y-43960380D03*
X5000000Y-48039620D03*
X30000000Y-43960380D03*
X30000000Y-48039620D03*
X55000000Y-43960380D03*
X55000000Y-48039620D03*
X80000000Y-43960380D03*
X80000000Y-48039620D03*
X4000000Y-158039620D03*
X4000000Y-153960380D03*
X29000000Y-158039620D03*
X29000000Y-153960380D03*
X54000000Y-158039620D03*
X54000000Y-153960380D03*
X79000000Y-158039620D03*
X79000000Y-153960380D03*
D26*
X89460380Y-33000000D03*
X93539620Y-33000000D03*
D27*
X3500000Y-30000640D03*
X3500000Y-34999360D03*
X96500000Y-34999360D03*
X96500000Y-30000640D03*
D28*
X17000000Y-30499980D03*
X22080000Y-30499980D03*
D29*
X19540000Y-32996800D03*
D30*
X2000000Y-43762000D03*
X2000000Y-42238000D03*
D13*
X32872500Y-36841000D03*
X32872500Y-41159000D03*
X41127500Y-41159000D03*
X41127500Y-36841000D03*
X57872500Y-36841000D03*
X57872500Y-41159000D03*
X66127500Y-41159000D03*
X66127500Y-36841000D03*
X82872500Y-36841000D03*
X82872500Y-41159000D03*
X91127500Y-41159000D03*
X91127500Y-36841000D03*
X7872500Y-43841000D03*
X7872500Y-48159000D03*
X16127500Y-48159000D03*
X16127500Y-43841000D03*
X32872500Y-43841000D03*
X32872500Y-48159000D03*
X41127500Y-48159000D03*
X41127500Y-43841000D03*
X57872500Y-43841000D03*
X57872500Y-48159000D03*
X66127500Y-48159000D03*
X66127500Y-43841000D03*
X82872500Y-43841000D03*
X82872500Y-48159000D03*
X91127500Y-48159000D03*
X91127500Y-43841000D03*
X7872500Y-153841000D03*
X7872500Y-158159000D03*
X16127500Y-158159000D03*
X16127500Y-153841000D03*
X32872500Y-153841000D03*
X32872500Y-158159000D03*
X41127500Y-158159000D03*
X41127500Y-153841000D03*
X57872500Y-153841000D03*
X57872500Y-158159000D03*
X66127500Y-158159000D03*
X66127500Y-153841000D03*
X82872500Y-153841000D03*
X82872500Y-158159000D03*
X91127500Y-158159000D03*
X91127500Y-153841000D03*
D18*
X75000000Y-137500000D03*
X12500000Y-75000000D03*
X87500000Y-75000000D03*
X25000000Y-62500000D03*
X62500000Y-75000000D03*
X25000000Y-87500000D03*
X25000000Y-137500000D03*
X37500000Y-125000000D03*
X75000000Y-62500000D03*
X25000000Y-112500000D03*
X12500000Y-125000000D03*
X75000000Y-87500000D03*
D17*
X47500000Y-52500000D03*
X97500000Y-52500000D03*
X52500000Y-97500000D03*
X47500000Y-102500000D03*
X97500000Y-2500000D03*
X97500000Y-102500000D03*
X2500000Y-97500000D03*
X2500000Y-147500000D03*
X97500000Y-147500000D03*
D18*
X97500000Y-161500000D03*
X87500000Y-125000000D03*
X2500000Y-161500000D03*
X75000000Y-112500000D03*
X62500000Y-125000000D03*
D17*
X52500000Y-147500000D03*
D31*
X34290128Y-86994057D03*
X22308933Y-75142873D03*
X51113740Y-75273448D03*
X45048878Y-143497042D03*
X18893732Y-25207400D03*
X19853600Y-146738000D03*
X45330200Y-136655000D03*
X77998200Y-137211000D03*
X71427000Y-153529000D03*
X20589800Y-73719100D03*
X37789800Y-137876000D03*
X7267800Y-10795000D03*
X72903600Y-130476000D03*
X85805100Y-109792000D03*
X89085300Y-154543000D03*
X60805100Y-87725000D03*
X83594900Y-86815300D03*
X12488700Y-139833000D03*
X11798200Y-89105800D03*
X83594900Y-136827000D03*
X52253900Y-12433800D03*
X51377000Y-9175400D03*
X59518000Y-111813000D03*
X86009600Y-60129200D03*
X61230000Y-135721000D03*
X48878200Y-133585000D03*
X77998200Y-152097000D03*
X20302800Y-60563800D03*
X11039200Y-60620900D03*
X70548100Y-54699200D03*
X61563300Y-109313000D03*
X86430900Y-47302300D03*
X49836500Y-65887800D03*
X51343900Y-47405800D03*
X51258100Y-73372000D03*
X11533800Y-110400000D03*
X51112000Y-87681300D03*
X50147300Y-120000000D03*
X50397900Y-71007600D03*
X61144600Y-60109100D03*
X50270700Y-60110000D03*
X47606300Y-46607900D03*
X21765300Y-87541700D03*
X36012900Y-61007900D03*
X48878200Y-120000000D03*
X73118800Y-100522000D03*
X78613100Y-106128000D03*
X73118800Y-94432200D03*
X72949900Y-89115800D03*
X68367100Y-21460500D03*
X35990700Y-110713000D03*
X39450000Y-115027000D03*
X16028800Y-25350700D03*
X50448195Y-152234313D03*
X50122490Y-73531122D03*
X63382100Y-138787000D03*
X38594900Y-137989000D03*
X40878100Y-113177000D03*
X13594900Y-90208200D03*
X12726600Y-110562000D03*
X22320100Y-90525300D03*
X50964900Y-39523800D03*
X13120500Y-141153000D03*
X22246800Y-145222000D03*
X21016700Y-57709000D03*
X88387300Y-138792000D03*
X38096400Y-63236400D03*
X60676400Y-112116000D03*
X19056200Y-118702000D03*
X50340100Y-46596300D03*
X49197300Y-66917500D03*
X62390000Y-83815100D03*
X64429800Y-90500000D03*
X12657000Y-60091900D03*
X37314700Y-87719800D03*
X72881600Y-61033000D03*
X65810700Y-62067200D03*
X85902400Y-89840600D03*
X88721400Y-112099000D03*
X84630400Y-62772600D03*
X49866499Y-143458137D03*
X51148300Y-128847000D03*
X50692600Y-126140000D03*
X40434700Y-14467500D03*
X49470200Y-28873600D03*
X56257200Y-78258300D03*
X54711100Y-83994900D03*
X53928500Y-88086200D03*
X62700000Y-148300000D03*
X70155400Y-109426000D03*
X63427347Y-146927347D03*
X49662336Y-145211885D03*
X67058700Y-151162000D03*
X74076600Y-132900000D03*
X45201900Y-45409800D03*
X37871200Y-40731800D03*
X55000000Y-42234900D03*
X5176600Y-39518100D03*
X78582300Y-40834300D03*
X7124900Y-50072500D03*
X52961800Y-68754000D03*
X30276600Y-82955300D03*
X43430700Y-68421800D03*
X30000000Y-50057600D03*
X65381100Y-49900700D03*
X78518400Y-48302100D03*
X34826600Y-54042700D03*
X46501300Y-56515200D03*
X95851400Y-44662300D03*
X38273500Y-96132000D03*
X47276900Y-87581700D03*
X47465000Y-71640000D03*
X30598600Y-122543000D03*
X26111800Y-117857000D03*
X28383900Y-73954000D03*
X32797300Y-127690000D03*
X47063714Y-142761266D03*
X48403100Y-72413600D03*
X52585700Y-153726000D03*
X27564700Y-153795000D03*
X5512700Y-153179000D03*
X48222500Y-73217200D03*
X43660800Y-73182600D03*
X43234200Y-75201000D03*
X42102300Y-75800300D03*
X53650800Y-78688300D03*
X57286800Y-80864800D03*
X54052500Y-63632700D03*
X43932200Y-34114400D03*
X51781500Y-78077500D03*
X53719500Y-65388100D03*
X54194700Y-59660900D03*
X48322103Y-139572055D03*
X49234400Y-72477800D03*
X49354500Y-55715500D03*
X68013655Y-73421960D03*
X77819000Y-46083800D03*
X77232700Y-92982100D03*
X67290800Y-45439600D03*
X74213300Y-128843000D03*
X60070500Y-74582700D03*
X63598200Y-77740200D03*
X74836400Y-122187000D03*
X86461000Y-128984000D03*
X64780100Y-77702600D03*
X57154700Y-24359700D03*
X55761500Y-82383600D03*
X62022700Y-16513400D03*
X53034100Y-81200800D03*
X53690700Y-20181400D03*
X73943800Y-66819500D03*
X76990900Y-33193100D03*
X50446000Y-85267500D03*
X68868600Y-126819000D03*
X51500800Y-102474000D03*
X66134800Y-125583000D03*
X70338000Y-74421900D03*
X72911300Y-102294000D03*
X53300200Y-16404500D03*
X42509300Y-81145900D03*
X32099200Y-96087600D03*
X32099200Y-100264000D03*
X50055975Y-81635752D03*
X66717400Y-125005000D03*
X24657200Y-83506900D03*
X23183800Y-101001000D03*
X20638500Y-79991300D03*
X9824300Y-102246000D03*
X21269000Y-78854400D03*
X9331300Y-103468000D03*
X27135000Y-74983000D03*
X26308100Y-104710000D03*
X47467400Y-68217800D03*
X47467400Y-63755800D03*
X40025100Y-33225600D03*
X40025100Y-24752500D03*
X43081800Y-27011000D03*
X41126300Y-33717300D03*
X55248800Y-73288200D03*
X54089500Y-58402600D03*
X46099600Y-78831800D03*
X51750600Y-17129100D03*
X22389000Y-124411000D03*
X23858700Y-120980000D03*
X30536500Y-128256000D03*
X28146800Y-77829900D03*
X31631200Y-103614000D03*
X29015300Y-71957212D03*
X32643700Y-102701000D03*
X66041400Y-151176000D03*
X71167200Y-111584000D03*
X52413600Y-80672200D03*
X53085600Y-29734200D03*
X78788100Y-65007500D03*
X92611400Y-144626000D03*
X87323900Y-121268000D03*
X4590900Y-117766000D03*
X8619800Y-53829800D03*
X10611000Y-95513800D03*
X6066900Y-154816000D03*
X44390600Y-55161000D03*
X38866600Y-51816900D03*
X29823700Y-71957212D03*
X33267100Y-120612000D03*
X31590400Y-56456800D03*
X48320800Y-71607700D03*
X30565900Y-92958600D03*
X30298400Y-143848000D03*
X54024300Y-138183000D03*
X54024300Y-120028000D03*
X69987500Y-65007500D03*
X68952500Y-93687000D03*
X37002500Y-37781200D03*
X18723000Y-39594400D03*
X72560500Y-38123600D03*
X45690000Y-41526100D03*
X98919000Y-39404500D03*
X69657100Y-39592900D03*
X24845900Y-43226800D03*
X39307700Y-36233900D03*
X49118700Y-36186600D03*
X93723000Y-39264800D03*
X49424300Y-42333800D03*
X44823500Y-42347400D03*
X39288100Y-39408300D03*
X19853600Y-46591300D03*
X73040000Y-45431700D03*
X46352900Y-48087500D03*
X98919000Y-43382500D03*
X68723000Y-46585500D03*
X89539900Y-47118200D03*
X45648900Y-56510100D03*
X32195500Y-55692200D03*
X14338700Y-59534000D03*
X34894200Y-65135500D03*
X12573800Y-61700900D03*
X63372900Y-60578000D03*
X46786000Y-59966600D03*
X42164700Y-68984100D03*
X35805100Y-63075100D03*
X86612000Y-62059500D03*
X61024800Y-64219700D03*
X15756300Y-87011800D03*
X37724600Y-79332500D03*
X47200000Y-61065500D03*
X83594900Y-62700800D03*
X38377600Y-86166300D03*
X12160200Y-89886100D03*
X63395400Y-86121700D03*
X46870200Y-86780700D03*
X36734500Y-95642700D03*
X36878600Y-91289300D03*
X84762600Y-87968500D03*
X61444400Y-89639300D03*
X47925145Y-91559846D03*
X14996200Y-111813000D03*
X35797100Y-98639900D03*
X83488400Y-88171600D03*
X34918500Y-109695000D03*
X31069900Y-105919000D03*
X28250000Y-102788000D03*
X13646300Y-115428000D03*
X64038100Y-111814000D03*
X39024300Y-115760000D03*
X88214100Y-111181000D03*
X62811200Y-114114000D03*
X15150800Y-137909000D03*
X85805100Y-115011000D03*
X36180500Y-134772000D03*
X11094200Y-139463000D03*
X60659900Y-136922000D03*
X37574500Y-139578000D03*
X86945600Y-136454000D03*
X63886300Y-137521000D03*
X85280900Y-134760000D03*
X29027500Y-142808000D03*
X67065523Y-73223714D03*
X49160600Y-34984800D03*
X39206800Y-34984800D03*
X45191200Y-96203200D03*
X43602500Y-106219000D03*
X25259000Y-117954000D03*
X31499800Y-127695000D03*
X45268100Y-79024800D03*
X48115500Y-56787000D03*
X69996200Y-45305500D03*
X66035400Y-15658600D03*
X42743400Y-32623100D03*
X41851600Y-29126500D03*
X66496641Y-72422110D03*
X71146700Y-68545700D03*
X47506700Y-33776900D03*
X50281800Y-12721800D03*
X35521900Y-70692800D03*
X47558100Y-2777500D03*
X34167500Y-76283600D03*
X71753500Y-67068300D03*
X71941900Y-12048000D03*
X65746753Y-72801364D03*
X65238500Y-13966300D03*
X64996868Y-72258342D03*
X70214500Y-33186600D03*
X46705000Y-75558900D03*
X41496600Y-74552900D03*
X42720900Y-93567100D03*
X46705000Y-69483800D03*
X50132800Y-75800707D03*
X41409600Y-75356500D03*
X49660900Y-68127800D03*
X32259600Y-71513400D03*
X59675100Y-43769100D03*
X64344000Y-43553600D03*
X21851200Y-48808400D03*
X26728300Y-86131300D03*
X53203100Y-84902600D03*
X70562100Y-145883000D03*
D32*
X34290128Y-86994057D02*
X34290128Y-86209872D01*
X34290128Y-86209872D02*
X34700000Y-85800000D01*
X20589800Y-73719100D02*
X22013573Y-75142873D01*
X22308933Y-75567137D02*
X22308933Y-75142873D01*
X21765300Y-87541700D02*
X22308933Y-86998067D01*
X22308933Y-86998067D02*
X22308933Y-75567137D01*
X22013573Y-75142873D02*
X22308933Y-75142873D01*
X51112000Y-87681300D02*
X51112000Y-75275188D01*
X51258100Y-75129088D02*
X51113740Y-75273448D01*
X51258100Y-73372000D02*
X51258100Y-75129088D01*
X51112000Y-75275188D02*
X51113740Y-75273448D01*
X45330200Y-143215720D02*
X45048878Y-143497042D01*
X43723000Y-144822920D02*
X45048878Y-143497042D01*
X45330200Y-136655000D02*
X45330200Y-143215720D01*
X43723000Y-154400000D02*
X43723000Y-144822920D01*
X16028800Y-25350700D02*
X18750432Y-25350700D01*
X18750432Y-25350700D02*
X18893732Y-25207400D01*
X69853600Y-154400000D02*
X68723000Y-154400000D01*
X70724900Y-153529000D02*
X69853600Y-154400000D01*
X71427000Y-153529000D02*
X70724900Y-153529000D01*
X35805100Y-135800000D02*
X34700000Y-135800000D01*
X37789800Y-137785000D02*
X35805100Y-135800000D01*
X37789800Y-137876000D02*
X37789800Y-137785000D01*
X10540000Y-7522800D02*
X10540000Y-2500000D01*
X7267800Y-10795000D02*
X10540000Y-7522800D01*
X93318300Y-154805000D02*
X93723000Y-154400000D01*
X89347000Y-154805000D02*
X93318300Y-154805000D01*
X89085300Y-154543000D02*
X89347000Y-154805000D01*
X19853600Y-154400000D02*
X18723000Y-154400000D01*
X19853600Y-146738000D02*
X19853600Y-154400000D01*
X85805100Y-110800000D02*
X85805100Y-109792000D01*
X84700000Y-110800000D02*
X85805100Y-110800000D01*
X83594900Y-85800000D02*
X84700000Y-85800000D01*
X83594900Y-86815300D02*
X83594900Y-85800000D01*
X12488700Y-137484000D02*
X12488700Y-139833000D01*
X10805100Y-135800000D02*
X12488700Y-137484000D01*
X9700000Y-135800000D02*
X10805100Y-135800000D01*
X83594900Y-135800000D02*
X84700000Y-135800000D01*
X83594900Y-136827000D02*
X83594900Y-135800000D01*
X94853600Y-37400000D02*
X93723000Y-37400000D01*
X94853600Y-44400000D02*
X94853600Y-37400000D01*
X93723000Y-44400000D02*
X94853600Y-44400000D01*
X59700000Y-110800000D02*
X59827800Y-110800000D01*
X59518000Y-111110000D02*
X59518000Y-111813000D01*
X59827800Y-110800000D02*
X59518000Y-111110000D01*
X86009600Y-60595500D02*
X86009600Y-60129200D01*
X85805100Y-60800000D02*
X86009600Y-60595500D01*
X84700000Y-60800000D02*
X85805100Y-60800000D01*
X60805100Y-85800000D02*
X60805100Y-87725000D01*
X59700000Y-85800000D02*
X60805100Y-85800000D01*
X61150600Y-135800000D02*
X61230000Y-135721000D01*
X59700000Y-135800000D02*
X61150600Y-135800000D01*
X77998200Y-135570000D02*
X77998200Y-137211000D01*
X72903600Y-130476000D02*
X77998200Y-135570000D01*
X77998200Y-137211000D02*
X77998200Y-152097000D01*
X10805100Y-85800000D02*
X9700000Y-85800000D01*
X10805100Y-88112700D02*
X10805100Y-85800000D01*
X11798200Y-89105800D02*
X10805100Y-88112700D01*
X20302800Y-57470700D02*
X20302800Y-60563800D01*
X20458700Y-57314800D02*
X20302800Y-57470700D01*
X20458700Y-45005100D02*
X20458700Y-57314800D01*
X19853600Y-44400000D02*
X20458700Y-45005100D01*
X18723000Y-44400000D02*
X19853600Y-44400000D01*
X18723000Y-35403500D02*
X18723000Y-37400000D01*
X17000000Y-33680500D02*
X18723000Y-35403500D01*
X17000000Y-30500000D02*
X17000000Y-33680500D01*
X19853600Y-37400000D02*
X19853600Y-44400000D01*
X18723000Y-37400000D02*
X19853600Y-37400000D01*
X68723000Y-44400000D02*
X69617900Y-44400000D01*
X93323600Y-44799400D02*
X93723000Y-44400000D01*
X88933800Y-44799400D02*
X93323600Y-44799400D01*
X86430900Y-47302300D02*
X88933800Y-44799400D01*
X10805100Y-60800000D02*
X9700000Y-60800000D01*
X10984200Y-60620900D02*
X10805100Y-60800000D01*
X11039200Y-60620900D02*
X10984200Y-60620900D01*
X51377000Y-11556900D02*
X51377000Y-9175400D01*
X52253900Y-12433800D02*
X51377000Y-11556900D01*
X69366300Y-44651600D02*
X69617900Y-44400000D01*
X69366300Y-45609900D02*
X69366300Y-44651600D01*
X70548100Y-46791700D02*
X69366300Y-45609900D01*
X70548100Y-54699200D02*
X70548100Y-46791700D01*
X68758400Y-37400000D02*
X68740700Y-37400000D01*
X70275000Y-38916600D02*
X68758400Y-37400000D01*
X70275000Y-43742900D02*
X70275000Y-38916600D01*
X69617900Y-44400000D02*
X70275000Y-43742900D01*
X11205000Y-110400000D02*
X11533800Y-110400000D01*
X10805100Y-110800000D02*
X11205000Y-110400000D01*
X9700000Y-110800000D02*
X10805100Y-110800000D01*
X49836500Y-65887800D02*
X49918400Y-65887800D01*
X51258100Y-71867800D02*
X50397900Y-71007600D01*
X51258100Y-73372000D02*
X51258100Y-71867800D01*
X50266100Y-70875800D02*
X50397900Y-71007600D01*
X50266100Y-67392000D02*
X50266100Y-70875800D01*
X49918400Y-67044300D02*
X50266100Y-67392000D01*
X49918400Y-65887800D02*
X49918400Y-67044300D01*
X60805100Y-60448600D02*
X61144600Y-60109100D01*
X60805100Y-60800000D02*
X60805100Y-60448600D01*
X59700000Y-60800000D02*
X60805100Y-60800000D01*
X49918400Y-60462300D02*
X50270700Y-60110000D01*
X49918400Y-65887800D02*
X49918400Y-60462300D01*
X51343900Y-55178400D02*
X51343900Y-47405800D01*
X50270700Y-56251600D02*
X51343900Y-55178400D01*
X50270700Y-60110000D02*
X50270700Y-56251600D01*
X46080900Y-45082500D02*
X46080900Y-44400000D01*
X47606300Y-46607900D02*
X46080900Y-45082500D01*
X44723000Y-44400000D02*
X46080900Y-44400000D01*
X45853600Y-37300000D02*
X44723000Y-37300000D01*
X46295200Y-37741600D02*
X45853600Y-37300000D01*
X46295200Y-44185700D02*
X46295200Y-37741600D01*
X46080900Y-44400000D02*
X46295200Y-44185700D01*
X60076000Y-110800000D02*
X59827800Y-110800000D01*
X61563300Y-109313000D02*
X60076000Y-110800000D01*
X20589800Y-60850800D02*
X20589800Y-73719100D01*
X20302800Y-60563800D02*
X20589800Y-60850800D01*
X36012900Y-61007800D02*
X36012900Y-61007900D01*
X35805100Y-60800000D02*
X36012900Y-61007800D01*
X34700000Y-60800000D02*
X35805100Y-60800000D01*
X48878200Y-120000000D02*
X48878200Y-133585000D01*
X50147300Y-120000000D02*
X48878200Y-120000000D01*
X78613100Y-106017000D02*
X78613100Y-106128000D01*
X73118800Y-100522000D02*
X78613100Y-106017000D01*
X73118800Y-94432200D02*
X73118800Y-100522000D01*
X72949900Y-94263300D02*
X73118800Y-94432200D01*
X72949900Y-89115800D02*
X72949900Y-94263300D01*
X68740700Y-21834100D02*
X68367100Y-21460500D01*
X68740700Y-37400000D02*
X68740700Y-21834100D01*
X35782100Y-110800000D02*
X34677000Y-110800000D01*
X35869000Y-110713000D02*
X35782100Y-110800000D01*
X35990700Y-110713000D02*
X35869000Y-110713000D01*
X35990700Y-112052000D02*
X35990700Y-110713000D01*
X38965900Y-115027000D02*
X35990700Y-112052000D01*
X39450000Y-115027000D02*
X38965900Y-115027000D01*
X68723000Y-37400000D02*
X68740700Y-37400000D01*
X91025400Y-4557000D02*
X91004681Y-4577719D01*
X91004681Y-4577719D02*
X91004681Y-8525400D01*
X91004681Y-8525400D02*
X90994000Y-8525400D01*
X21016700Y-72829400D02*
X21016700Y-58133264D01*
X22837535Y-74650235D02*
X21016700Y-72829400D01*
X22837535Y-90007865D02*
X22837535Y-74650235D01*
X21016700Y-58133264D02*
X21016700Y-57709000D01*
X22320100Y-90525300D02*
X22837535Y-90007865D01*
X49980600Y-152701908D02*
X50448195Y-152234313D01*
X49980600Y-153741000D02*
X49980600Y-152701908D01*
X49386100Y-68708700D02*
X49386100Y-71426700D01*
X50122490Y-72163090D02*
X50122490Y-73531122D01*
X48897301Y-67217499D02*
X48897301Y-68219901D01*
X48897301Y-68219901D02*
X49386100Y-68708700D01*
X49386100Y-71426700D02*
X50122490Y-72163090D01*
X49197300Y-66917500D02*
X48897301Y-67217499D01*
X23877000Y-40600000D02*
X22746400Y-40600000D01*
X38594900Y-139000000D02*
X38594900Y-137989000D01*
X39700000Y-139000000D02*
X38594900Y-139000000D01*
X23877000Y-47600000D02*
X22746400Y-47600000D01*
X49877000Y-40500000D02*
X51007600Y-40500000D01*
X22746400Y-40600000D02*
X22746400Y-47600000D01*
X51007600Y-39566500D02*
X50964900Y-39523800D01*
X51007600Y-40500000D02*
X51007600Y-39566500D01*
X13120500Y-139474000D02*
X13120500Y-141153000D01*
X13594900Y-139000000D02*
X13120500Y-139474000D01*
X14700000Y-139000000D02*
X13594900Y-139000000D01*
X13594900Y-89000000D02*
X13594900Y-90208200D01*
X14700000Y-89000000D02*
X13594900Y-89000000D01*
X40782100Y-113273000D02*
X40878100Y-113177000D01*
X40782100Y-114000000D02*
X40782100Y-113273000D01*
X39677000Y-114000000D02*
X40782100Y-114000000D01*
X63594900Y-139000000D02*
X63382100Y-138787000D01*
X64700000Y-139000000D02*
X63594900Y-139000000D01*
X88594900Y-139000000D02*
X89700000Y-139000000D01*
X88387300Y-138792000D02*
X88594900Y-139000000D01*
X98877000Y-40600000D02*
X97746400Y-40600000D01*
X97746400Y-47600000D02*
X97746400Y-40600000D01*
X98877000Y-47600000D02*
X97746400Y-47600000D01*
X13594900Y-111430000D02*
X12726600Y-110562000D01*
X13594900Y-114000000D02*
X13594900Y-111430000D01*
X14700000Y-114000000D02*
X13594900Y-114000000D01*
X18683100Y-33976400D02*
X22080000Y-33976400D01*
X18278000Y-33571300D02*
X18683100Y-33976400D01*
X18278000Y-30339300D02*
X18278000Y-33571300D01*
X17438700Y-29500000D02*
X18278000Y-30339300D01*
X7669800Y-29500000D02*
X17438700Y-29500000D01*
X1203300Y-35966500D02*
X7669800Y-29500000D01*
X1203300Y-42777900D02*
X1203300Y-35966500D01*
X1437800Y-43012400D02*
X1203300Y-42777900D01*
X2000000Y-43012400D02*
X1437800Y-43012400D01*
X2000000Y-43762000D02*
X2000000Y-43012400D01*
X22080000Y-30500000D02*
X22080000Y-33976400D01*
X22080000Y-39933600D02*
X22746400Y-40600000D01*
X22080000Y-33976400D02*
X22080000Y-39933600D01*
X21016700Y-48785800D02*
X21016700Y-57709000D01*
X22202500Y-47600000D02*
X21016700Y-48785800D01*
X22746400Y-47600000D02*
X22202500Y-47600000D01*
X72746400Y-157600000D02*
X73877000Y-157600000D01*
X70254100Y-160092000D02*
X72746400Y-157600000D01*
X52608900Y-160092000D02*
X70254100Y-160092000D01*
X49554100Y-157038000D02*
X52608900Y-160092000D01*
X48991600Y-157600000D02*
X48877000Y-157600000D01*
X49554100Y-157038000D02*
X48991600Y-157600000D01*
X97746400Y-157600000D02*
X98877000Y-157600000D01*
X95642800Y-159704000D02*
X97746400Y-157600000D01*
X77111200Y-159704000D02*
X95642800Y-159704000D01*
X75007600Y-157600000D02*
X77111200Y-159704000D01*
X73877000Y-157600000D02*
X75007600Y-157600000D01*
X49834700Y-153595000D02*
X49980600Y-153741000D01*
X47891000Y-153595000D02*
X49834700Y-153595000D01*
X47331800Y-154154000D02*
X47891000Y-153595000D01*
X47331800Y-155808000D02*
X47331800Y-154154000D01*
X43488900Y-159651000D02*
X47331800Y-155808000D01*
X27058400Y-159651000D02*
X43488900Y-159651000D01*
X25007600Y-157600000D02*
X27058400Y-159651000D01*
X23877000Y-157600000D02*
X25007600Y-157600000D01*
X50007700Y-156584000D02*
X49554100Y-157038000D01*
X50007700Y-153768000D02*
X50007700Y-156584000D01*
X49980600Y-153741000D02*
X50007700Y-153768000D01*
X22246800Y-157100000D02*
X22246800Y-145222000D01*
X22746400Y-157600000D02*
X22246800Y-157100000D01*
X23877000Y-157600000D02*
X22746400Y-157600000D01*
X49877000Y-47600000D02*
X50174600Y-47600000D01*
X51007600Y-45928800D02*
X50340100Y-46596300D01*
X51007600Y-40500000D02*
X51007600Y-45928800D01*
X50340100Y-47434500D02*
X50340100Y-46596300D01*
X50174600Y-47600000D02*
X50340100Y-47434500D01*
X22320100Y-115438000D02*
X22320100Y-90525300D01*
X19056200Y-118702000D02*
X22320100Y-115438000D01*
X62263100Y-112116000D02*
X60676400Y-112116000D01*
X64147500Y-114000000D02*
X62263100Y-112116000D01*
X64700000Y-114000000D02*
X64147500Y-114000000D01*
X13594900Y-61029800D02*
X12657000Y-60091900D01*
X13594900Y-64000000D02*
X13594900Y-61029800D01*
X14700000Y-64000000D02*
X13594900Y-64000000D01*
X49197300Y-65671300D02*
X49197300Y-66917500D01*
X49432000Y-65436600D02*
X49197300Y-65671300D01*
X49432000Y-59815100D02*
X49432000Y-65436600D01*
X49548700Y-59698400D02*
X49432000Y-59815100D01*
X49548700Y-56398300D02*
X49548700Y-59698400D01*
X50729400Y-55217600D02*
X49548700Y-56398300D01*
X50729400Y-48154800D02*
X50729400Y-55217600D01*
X50174600Y-47600000D02*
X50729400Y-48154800D01*
X38096400Y-63501500D02*
X38096400Y-63236400D01*
X38594900Y-64000000D02*
X38096400Y-63501500D01*
X39700000Y-64000000D02*
X38594900Y-64000000D01*
X73877000Y-47600000D02*
X74159700Y-47600000D01*
X62390000Y-86966200D02*
X62390000Y-83815100D01*
X64423800Y-89000000D02*
X62390000Y-86966200D01*
X64561900Y-89000000D02*
X64423800Y-89000000D01*
X93497600Y-11029100D02*
X90994000Y-8525400D01*
X93497600Y-11062500D02*
X93497600Y-11029100D01*
X94619000Y-12183900D02*
X93497600Y-11062500D01*
X94619000Y-24810200D02*
X94619000Y-12183900D01*
X97440200Y-27631400D02*
X94619000Y-24810200D01*
X97440200Y-32193000D02*
X97440200Y-27631400D01*
X97886300Y-32639100D02*
X97440200Y-32193000D01*
X97886300Y-36080300D02*
X97886300Y-32639100D01*
X97846900Y-36119700D02*
X97886300Y-36080300D01*
X97846900Y-36177600D02*
X97846900Y-36119700D01*
X97746400Y-36278100D02*
X97846900Y-36177600D01*
X97746400Y-40600000D02*
X97746400Y-36278100D01*
X21604000Y-144579000D02*
X22246800Y-145222000D01*
X21604000Y-121249000D02*
X21604000Y-144579000D01*
X19056200Y-118702000D02*
X21604000Y-121249000D01*
X65805100Y-62072800D02*
X65810700Y-62067200D01*
X65805100Y-64000000D02*
X65805100Y-62072800D01*
X64700000Y-64000000D02*
X65805100Y-64000000D01*
X87754300Y-89840600D02*
X85902400Y-89840600D01*
X88594900Y-89000000D02*
X87754300Y-89840600D01*
X89700000Y-89000000D02*
X88594900Y-89000000D01*
X88594900Y-112225000D02*
X88721400Y-112099000D01*
X88594900Y-114000000D02*
X88594900Y-112225000D01*
X89700000Y-114000000D02*
X88594900Y-114000000D01*
X86995000Y-12524400D02*
X86995000Y-15360000D01*
X90994000Y-8525400D02*
X86995000Y-12524400D01*
X75905400Y-39702200D02*
X75007600Y-40600000D01*
X75905400Y-31034500D02*
X75905400Y-39702200D01*
X86995000Y-19944900D02*
X75905400Y-31034500D01*
X86995000Y-15360000D02*
X86995000Y-19944900D01*
X73877000Y-40600000D02*
X75007600Y-40600000D01*
X72881600Y-48878100D02*
X74159700Y-47600000D01*
X72881600Y-61033000D02*
X72881600Y-48878100D01*
X75007600Y-46752100D02*
X75007600Y-40600000D01*
X74159700Y-47600000D02*
X75007600Y-46752100D01*
X87367500Y-62772600D02*
X84630400Y-62772600D01*
X88594900Y-64000000D02*
X87367500Y-62772600D01*
X89700000Y-64000000D02*
X88594900Y-64000000D01*
X38594900Y-89000000D02*
X37314700Y-87719800D01*
X39700000Y-89000000D02*
X38594900Y-89000000D01*
X64561900Y-90367900D02*
X64429800Y-90500000D01*
X64561900Y-89000000D02*
X64561900Y-90367900D01*
X64700000Y-89000000D02*
X64561900Y-89000000D01*
X51148300Y-142176336D02*
X49866499Y-143458137D01*
X51148300Y-128847000D02*
X51148300Y-142176336D01*
X50692600Y-128391000D02*
X51148300Y-128847000D01*
X50692600Y-126140000D02*
X50692600Y-128391000D01*
X49470200Y-23503000D02*
X49470200Y-28873600D01*
X40434700Y-14467500D02*
X49470200Y-23503000D01*
X52413000Y-83934500D02*
X52413000Y-90000000D01*
X56257200Y-80090300D02*
X52413000Y-83934500D01*
X56257200Y-78258300D02*
X56257200Y-80090300D01*
X53928500Y-84777500D02*
X53928500Y-88086200D01*
X54711100Y-83994900D02*
X53928500Y-84777500D01*
D33*
X62700000Y-148300000D02*
X62800000Y-148300000D01*
X62800000Y-148300000D02*
X70100000Y-141000000D01*
X70100000Y-141000000D02*
X70155400Y-141000000D01*
D32*
X70155400Y-109426000D02*
X70155400Y-141000000D01*
D33*
X49662336Y-145211885D02*
X50166589Y-144707632D01*
X50166589Y-144707632D02*
X54194889Y-144707632D01*
X54194889Y-144707632D02*
X56114605Y-146627348D01*
X56114605Y-146627348D02*
X63127348Y-146627348D01*
X63127348Y-146627348D02*
X63427347Y-146927347D01*
D32*
X67058700Y-151162000D02*
X71884100Y-146337000D01*
X71884100Y-135092000D02*
X74076600Y-132900000D01*
X71884100Y-146337000D02*
X71884100Y-135092000D01*
X2749600Y-42238000D02*
X2000000Y-42238000D01*
X3811000Y-41176600D02*
X2749600Y-42238000D01*
X3811000Y-40939600D02*
X3811000Y-41176600D01*
X5000000Y-40939600D02*
X3811000Y-40939600D01*
X37461600Y-39835300D02*
X37871200Y-40244900D01*
X30000000Y-39835300D02*
X37461600Y-39835300D01*
X30000000Y-41039600D02*
X30000000Y-39835300D01*
X37906800Y-40209300D02*
X37871200Y-40244900D01*
X42518000Y-40209300D02*
X37906800Y-40209300D01*
X43154500Y-40845800D02*
X42518000Y-40209300D01*
X43154500Y-44591700D02*
X43154500Y-40845800D01*
X43972600Y-45409800D02*
X43154500Y-44591700D01*
X45201900Y-45409800D02*
X43972600Y-45409800D01*
X37871200Y-40244900D02*
X37871200Y-40731800D01*
X55000000Y-40829200D02*
X55000000Y-42234900D01*
X5000000Y-39694700D02*
X5176600Y-39518100D01*
X5000000Y-40939600D02*
X5000000Y-39694700D01*
X78811000Y-40946300D02*
X78699000Y-40834300D01*
X78811000Y-41039600D02*
X78811000Y-40946300D01*
X80000000Y-41039600D02*
X78811000Y-41039600D01*
X78582300Y-40834300D02*
X78699000Y-40834300D01*
X84539600Y-33889000D02*
X84539600Y-32700000D01*
X83461400Y-34967200D02*
X84539600Y-33889000D01*
X79770400Y-34967200D02*
X83461400Y-34967200D01*
X78699000Y-36038600D02*
X79770400Y-34967200D01*
X78699000Y-40834300D02*
X78699000Y-36038600D01*
X6189000Y-49136600D02*
X7124900Y-50072500D01*
X6189000Y-48039600D02*
X6189000Y-49136600D01*
X5000000Y-48039600D02*
X6189000Y-48039600D01*
X30000000Y-48039600D02*
X30000000Y-50057600D01*
X44270300Y-69261400D02*
X43430700Y-68421800D01*
X44270300Y-75810000D02*
X44270300Y-69261400D01*
X42130600Y-77949700D02*
X44270300Y-75810000D01*
X35282200Y-77949700D02*
X42130600Y-77949700D01*
X30276600Y-82955300D02*
X35282200Y-77949700D01*
X78548500Y-48302100D02*
X78518400Y-48302100D01*
X78811000Y-48039600D02*
X78548500Y-48302100D01*
X80000000Y-48039600D02*
X78811000Y-48039600D01*
X55000000Y-49900700D02*
X65381100Y-49900700D01*
X55000000Y-56636400D02*
X55000000Y-49900700D01*
X53082500Y-58553900D02*
X55000000Y-56636400D01*
X53082500Y-62384300D02*
X53082500Y-58553900D01*
X52573000Y-62893800D02*
X53082500Y-62384300D01*
X52573000Y-65672500D02*
X52573000Y-62893800D01*
X52961800Y-66061300D02*
X52573000Y-65672500D01*
X52961800Y-68754000D02*
X52961800Y-66061300D01*
X55000000Y-49900700D02*
X55000000Y-48039600D01*
X46501300Y-56397300D02*
X46501300Y-56515200D01*
X45900300Y-55796300D02*
X46501300Y-56397300D01*
X43073100Y-55796300D02*
X45900300Y-55796300D01*
X41319500Y-54042700D02*
X43073100Y-55796300D01*
X34826600Y-54042700D02*
X41319500Y-54042700D01*
X95851400Y-37539900D02*
X95851400Y-44662300D01*
X97479500Y-35911800D02*
X95851400Y-37539900D01*
X97479500Y-34575000D02*
X97479500Y-35911800D01*
X95904500Y-33000000D02*
X97479500Y-34575000D01*
X93539600Y-33000000D02*
X95904500Y-33000000D01*
X47475400Y-87383200D02*
X47276900Y-87581700D01*
X47475400Y-73901000D02*
X47475400Y-87383200D01*
X47210700Y-73636300D02*
X47475400Y-73901000D01*
X47210700Y-71894300D02*
X47210700Y-73636300D01*
X47465000Y-71640000D02*
X47210700Y-71894300D01*
X41620500Y-96132000D02*
X38273500Y-96132000D01*
X46214800Y-91537700D02*
X41620500Y-96132000D01*
X46214800Y-88643800D02*
X46214800Y-91537700D01*
X47276900Y-87581700D02*
X46214800Y-88643800D01*
X26274000Y-118019000D02*
X26111800Y-117857000D01*
X26421800Y-118019000D02*
X26274000Y-118019000D01*
X27479300Y-116962000D02*
X26421800Y-118019000D01*
X27479300Y-101978000D02*
X27479300Y-116962000D01*
X27762900Y-101695000D02*
X27479300Y-101978000D01*
X27762900Y-78301700D02*
X27762900Y-101695000D01*
X27541700Y-78080500D02*
X27762900Y-78301700D01*
X27541700Y-77579300D02*
X27541700Y-78080500D01*
X28383900Y-76737100D02*
X27541700Y-77579300D01*
X28383900Y-73954000D02*
X28383900Y-76737100D01*
X30598600Y-122196000D02*
X30598600Y-122543000D01*
X26421800Y-118019000D02*
X30598600Y-122196000D01*
X30598600Y-125491000D02*
X32797300Y-127690000D01*
X30598600Y-122543000D02*
X30598600Y-125491000D01*
X47063714Y-106030814D02*
X47063714Y-142761266D01*
X44694900Y-98143400D02*
X44694900Y-103662000D01*
X48806212Y-72816712D02*
X48806212Y-90563498D01*
X44694900Y-103662000D02*
X47063714Y-106030814D01*
X48403100Y-72413600D02*
X48806212Y-72816712D01*
X48783966Y-90585744D02*
X48783966Y-94054334D01*
X48783966Y-94054334D02*
X44694900Y-98143400D01*
X48806212Y-90563498D02*
X48783966Y-90585744D01*
X36973900Y-122925000D02*
X38012900Y-122925000D01*
X48222500Y-89319778D02*
X48222500Y-73217200D01*
X48476001Y-89573279D02*
X48222500Y-89319778D01*
X35385700Y-127933000D02*
X35385700Y-124514000D01*
X29099300Y-140874000D02*
X29099300Y-134219000D01*
X48476001Y-90426721D02*
X48476001Y-89573279D01*
X45106800Y-106482000D02*
X44278300Y-105654000D01*
X48453755Y-90448967D02*
X48476001Y-90426721D01*
X48453755Y-93796445D02*
X48453755Y-90448967D01*
X44278300Y-105654000D02*
X44278300Y-97971900D01*
X29099300Y-134219000D02*
X35385700Y-127933000D01*
X38012900Y-122925000D02*
X45106800Y-115832000D01*
X35385700Y-124514000D02*
X36973900Y-122925000D01*
X28405500Y-153960000D02*
X30913000Y-151453000D01*
X30913000Y-142688000D02*
X29099300Y-140874000D01*
X30913000Y-151453000D02*
X30913000Y-142688000D01*
X45106800Y-115832000D02*
X45106800Y-106482000D01*
X44278300Y-97971900D02*
X48453755Y-93796445D01*
X52811000Y-153951000D02*
X52811000Y-153960000D01*
X52585700Y-153726000D02*
X52811000Y-153951000D01*
X53999600Y-153960000D02*
X53999800Y-153960000D01*
X53999900Y-153960000D02*
X54000000Y-153960000D01*
X53999800Y-153960000D02*
X53999900Y-153960000D01*
X52811000Y-153960000D02*
X53999600Y-153960000D01*
X27645400Y-153795000D02*
X27564700Y-153795000D01*
X27811000Y-153960000D02*
X27645400Y-153795000D01*
X28405500Y-153960000D02*
X27811000Y-153960000D01*
X77811000Y-153960000D02*
X78999600Y-153960000D01*
X76717200Y-152867000D02*
X77811000Y-153960000D01*
X54684400Y-152867000D02*
X76717200Y-152867000D01*
X54000000Y-153551000D02*
X54684400Y-152867000D01*
X54000000Y-153960000D02*
X54000000Y-153551000D01*
X53999600Y-153960000D02*
X53999800Y-153960000D01*
D33*
X79000000Y-153960400D02*
X78999600Y-153960000D01*
D32*
X28405500Y-153960000D02*
X28999600Y-153960000D01*
D33*
X28999600Y-153960000D02*
X29000000Y-153960400D01*
D32*
X5189000Y-153960000D02*
X4000400Y-153960000D01*
X5189000Y-153503000D02*
X5189000Y-153960000D01*
X5512700Y-153179000D02*
X5189000Y-153503000D01*
D33*
X4000400Y-153960000D02*
X4000000Y-153960400D01*
D32*
X53999800Y-153960000D02*
X53999900Y-153960000D01*
X53999900Y-153960000D02*
X54000000Y-153960000D01*
D33*
X54000000Y-153960000D02*
X54000000Y-153960400D01*
D32*
X19540000Y-32996800D02*
X19422342Y-32879142D01*
X19422342Y-32879142D02*
X19422342Y-8842342D01*
X19422342Y-8842342D02*
X13080000Y-2500000D01*
X43660800Y-73182600D02*
X43660800Y-73606900D01*
X43660800Y-73606900D02*
X43839300Y-73785400D01*
X43839300Y-73785400D02*
X43839300Y-75615200D01*
X25897700Y-59560400D02*
X25897700Y-32873000D01*
X43839300Y-75615200D02*
X42235500Y-77219000D01*
X42235500Y-77219000D02*
X36476600Y-77219000D01*
X15620000Y-3567999D02*
X15620000Y-2500000D01*
X36476600Y-77219000D02*
X26863700Y-67606100D01*
X26863700Y-67606100D02*
X26863700Y-60526400D01*
X26863700Y-60526400D02*
X25897700Y-59560400D01*
X25897700Y-32873000D02*
X20094431Y-27069731D01*
X20094431Y-27069731D02*
X20094431Y-8042430D01*
X20094431Y-8042430D02*
X15620000Y-3567999D01*
X20700000Y-24694200D02*
X20700000Y-2500000D01*
X26711200Y-30705400D02*
X20700000Y-24694200D01*
X26711200Y-59798700D02*
X26711200Y-30705400D01*
X27270400Y-60357900D02*
X26711200Y-59798700D01*
X27270400Y-67380100D02*
X27270400Y-60357900D01*
X36702400Y-76812100D02*
X27270400Y-67380100D01*
X41961000Y-76812100D02*
X36702400Y-76812100D01*
X43234200Y-75538900D02*
X41961000Y-76812100D01*
X43234200Y-75201000D02*
X43234200Y-75538900D01*
X31750000Y-4150000D02*
X33400000Y-2500000D01*
X31750000Y-24943000D02*
X31750000Y-4150000D01*
X28354600Y-28338400D02*
X31750000Y-24943000D01*
X28354600Y-59716400D02*
X28354600Y-28338400D01*
X28490500Y-59852300D02*
X28354600Y-59716400D01*
X28490500Y-66354900D02*
X28490500Y-59852300D01*
X32637200Y-70501600D02*
X28490500Y-66354900D01*
X32678800Y-70501600D02*
X32637200Y-70501600D01*
X33855500Y-71678300D02*
X32678800Y-70501600D01*
X39534000Y-71678300D02*
X33855500Y-71678300D01*
X42102300Y-74246600D02*
X39534000Y-71678300D01*
X42102300Y-75800300D02*
X42102300Y-74246600D01*
X53650800Y-71623600D02*
X53650800Y-78688300D01*
X51892900Y-69865700D02*
X53650800Y-71623600D01*
X51892900Y-66718000D02*
X51892900Y-69865700D01*
X51735000Y-66560100D02*
X51892900Y-66718000D01*
X51735000Y-61363200D02*
X51735000Y-66560100D01*
X52269100Y-60829100D02*
X51735000Y-61363200D01*
X52269100Y-56900200D02*
X52269100Y-60829100D01*
X53377400Y-55791900D02*
X52269100Y-56900200D01*
X53377400Y-33514300D02*
X53377400Y-55791900D01*
X54360400Y-32531300D02*
X53377400Y-33514300D01*
X54360400Y-8391500D02*
X54360400Y-32531300D01*
X46813600Y-844700D02*
X54360400Y-8391500D01*
X37595300Y-844700D02*
X46813600Y-844700D01*
X35940000Y-2500000D02*
X37595300Y-844700D01*
X38480000Y-21323100D02*
X38480000Y-2500000D01*
X43932200Y-34114400D02*
X43932200Y-26775300D01*
X43932200Y-26775300D02*
X38480000Y-21323100D01*
X54324600Y-63904800D02*
X54052500Y-63632700D01*
X54324600Y-67407500D02*
X54324600Y-63904800D01*
X57286800Y-70369700D02*
X54324600Y-67407500D01*
X57286800Y-80864800D02*
X57286800Y-70369700D01*
X53928500Y-15408500D02*
X41020000Y-2500000D01*
X53928500Y-16702300D02*
X53928500Y-15408500D01*
X52157300Y-18473500D02*
X53928500Y-16702300D01*
X52157300Y-55286400D02*
X52157300Y-18473500D01*
X50875800Y-56567900D02*
X52157300Y-55286400D01*
X50875800Y-60360700D02*
X50875800Y-56567900D01*
X50514900Y-60721600D02*
X50875800Y-60360700D01*
X50514900Y-67065600D02*
X50514900Y-60721600D01*
X50672800Y-67223500D02*
X50514900Y-67065600D01*
X50672800Y-70371300D02*
X50672800Y-67223500D01*
X51905200Y-71603700D02*
X50672800Y-70371300D01*
X51905200Y-77953800D02*
X51905200Y-71603700D01*
X51781500Y-78077500D02*
X51905200Y-77953800D01*
X54194700Y-62626000D02*
X54194700Y-59660900D01*
X53437200Y-63383500D02*
X54194700Y-62626000D01*
X53437200Y-65105800D02*
X53437200Y-63383500D01*
X53719500Y-65388100D02*
X53437200Y-65105800D01*
D33*
X48322103Y-106077897D02*
X48322103Y-139572055D01*
X49112577Y-100212576D02*
X50227001Y-101327001D01*
X49112577Y-90721859D02*
X49112577Y-100212576D01*
X49234400Y-90600036D02*
X49112577Y-90721859D01*
X49234400Y-72477800D02*
X49234400Y-90600036D01*
X50227001Y-101327001D02*
X50227001Y-104172999D01*
X50227001Y-104172999D02*
X48322103Y-106077897D01*
D32*
X49234400Y-72348900D02*
X49234400Y-72477800D01*
X48951800Y-72066300D02*
X49234400Y-72348900D01*
X48951800Y-69343400D02*
X48951800Y-72066300D01*
X48556200Y-68947800D02*
X48951800Y-69343400D01*
X48556200Y-62407500D02*
X48556200Y-68947800D01*
X49025300Y-61938400D02*
X48556200Y-62407500D01*
X49025300Y-59646600D02*
X49025300Y-61938400D01*
X49142000Y-59529900D02*
X49025300Y-59646600D01*
X49142000Y-55928000D02*
X49142000Y-59529900D01*
X49354500Y-55715500D02*
X49142000Y-55928000D01*
X68437919Y-73421960D02*
X68013655Y-73421960D01*
X77132940Y-73421960D02*
X68437919Y-73421960D01*
X77232700Y-73322200D02*
X77132940Y-73421960D01*
X77819000Y-72735900D02*
X77819000Y-46083800D01*
X77232700Y-73322200D02*
X77819000Y-72735900D01*
X77232700Y-73322200D02*
X77232700Y-92982100D01*
X60070500Y-74582700D02*
X60482100Y-74582700D01*
X60482100Y-74454000D02*
X60482100Y-74582700D01*
X64088600Y-70847500D02*
X60482100Y-74454000D01*
X65731800Y-70847500D02*
X64088600Y-70847500D01*
X70592600Y-65986700D02*
X65731800Y-70847500D01*
X70592600Y-55674900D02*
X70592600Y-65986700D01*
X69888500Y-54970800D02*
X70592600Y-55674900D01*
X69888500Y-46891400D02*
X69888500Y-54970800D01*
X68436700Y-45439600D02*
X69888500Y-46891400D01*
X67290800Y-45439600D02*
X68436700Y-45439600D01*
X71772400Y-126402000D02*
X74213300Y-128843000D01*
X71772400Y-103758000D02*
X71772400Y-126402000D01*
X70581500Y-102567000D02*
X71772400Y-103758000D01*
X70581500Y-84036500D02*
X70581500Y-102567000D01*
X65666200Y-79121200D02*
X70581500Y-84036500D01*
X64035500Y-79121200D02*
X65666200Y-79121200D01*
X60482100Y-75567800D02*
X64035500Y-79121200D01*
X60482100Y-74582700D02*
X60482100Y-75567800D01*
X64572500Y-78714500D02*
X63598200Y-77740200D01*
X65834700Y-78714500D02*
X64572500Y-78714500D01*
X71412000Y-84291800D02*
X65834700Y-78714500D01*
X71412000Y-102247000D02*
X71412000Y-84291800D01*
X72585800Y-103421000D02*
X71412000Y-102247000D01*
X72585800Y-119936000D02*
X72585800Y-103421000D01*
X74836400Y-122187000D02*
X72585800Y-119936000D01*
X65398000Y-77702600D02*
X64780100Y-77702600D01*
X71818700Y-84123300D02*
X65398000Y-77702600D01*
X71818700Y-102078000D02*
X71818700Y-84123300D01*
X77530900Y-107790000D02*
X71818700Y-102078000D01*
X77530900Y-120054000D02*
X77530900Y-107790000D01*
X86461000Y-128984000D02*
X77530900Y-120054000D01*
X57154700Y-31865000D02*
X57154700Y-24359700D01*
X53784200Y-35235500D02*
X57154700Y-31865000D01*
X53784200Y-56247800D02*
X53784200Y-35235500D01*
X52675800Y-57356200D02*
X53784200Y-56247800D01*
X52675800Y-60997600D02*
X52675800Y-57356200D01*
X52141700Y-61531700D02*
X52675800Y-60997600D01*
X52141700Y-66391600D02*
X52141700Y-61531700D01*
X52299600Y-66549500D02*
X52141700Y-66391600D01*
X52299600Y-69494100D02*
X52299600Y-66549500D01*
X54082800Y-71277300D02*
X52299600Y-69494100D01*
X54082800Y-73360200D02*
X54082800Y-71277300D01*
X56871200Y-76148600D02*
X54082800Y-73360200D01*
X56871200Y-79476100D02*
X56871200Y-76148600D01*
X56664000Y-79683300D02*
X56871200Y-79476100D01*
X56664000Y-81481100D02*
X56664000Y-79683300D01*
X55761500Y-82383600D02*
X56664000Y-81481100D01*
X62022700Y-19491700D02*
X62022700Y-16513400D01*
X57154700Y-24359700D02*
X62022700Y-19491700D01*
X53690700Y-31847400D02*
X53690700Y-20181400D01*
X52970700Y-32567400D02*
X53690700Y-31847400D01*
X52970700Y-55623400D02*
X52970700Y-32567400D01*
X51689200Y-56904900D02*
X52970700Y-55623400D01*
X51689200Y-60833800D02*
X51689200Y-56904900D01*
X51328300Y-61194700D02*
X51689200Y-60833800D01*
X51328300Y-66728600D02*
X51328300Y-61194700D01*
X51486200Y-66886500D02*
X51328300Y-66728600D01*
X51486200Y-70034300D02*
X51486200Y-66886500D01*
X53034100Y-71582200D02*
X51486200Y-70034300D01*
X53034100Y-81200800D02*
X53034100Y-71582200D01*
X76807000Y-33377000D02*
X76990900Y-33193100D01*
X76807000Y-63956300D02*
X76807000Y-33377000D01*
X73943800Y-66819500D02*
X76807000Y-63956300D01*
X58531200Y-120776000D02*
X52702900Y-114948000D01*
X68868600Y-126819000D02*
X68868600Y-126394736D01*
X50446000Y-90714286D02*
X50446000Y-85267500D01*
X50558821Y-90827107D02*
X50446000Y-90714286D01*
X63249864Y-120776000D02*
X58531200Y-120776000D01*
X68868600Y-126394736D02*
X63249864Y-120776000D01*
X52702900Y-102245000D02*
X49771399Y-99313499D01*
X49771399Y-96190271D02*
X50558821Y-95402849D01*
X50558821Y-95402849D02*
X50558821Y-90827107D01*
X52702900Y-114948000D02*
X52702900Y-102245000D01*
X49771399Y-99313499D02*
X49771399Y-96190271D01*
X63127900Y-122576000D02*
X66134800Y-125583000D01*
X59180700Y-122576000D02*
X63127900Y-122576000D01*
X51500800Y-114896000D02*
X59180700Y-122576000D01*
X51500800Y-102474000D02*
X51500800Y-114896000D01*
X72225400Y-76309300D02*
X70338000Y-74421900D01*
X72225400Y-101608000D02*
X72225400Y-76309300D01*
X72911300Y-102294000D02*
X72225400Y-101608000D01*
X51569000Y-16404500D02*
X53300200Y-16404500D01*
X51007700Y-16965800D02*
X51569000Y-16404500D01*
X51007700Y-37944300D02*
X51007700Y-16965800D01*
X50846800Y-38105200D02*
X51007700Y-37944300D01*
X49876900Y-38105200D02*
X50846800Y-38105200D01*
X48260600Y-39721500D02*
X49876900Y-38105200D01*
X48260600Y-47277400D02*
X48260600Y-39721500D01*
X44693800Y-50844200D02*
X48260600Y-47277400D01*
X44693800Y-53660700D02*
X44693800Y-50844200D01*
X47420900Y-56387800D02*
X44693800Y-53660700D01*
X47420900Y-60307200D02*
X47420900Y-56387800D01*
X47805200Y-60691500D02*
X47420900Y-60307200D01*
X47805200Y-61324700D02*
X47805200Y-60691500D01*
X45979400Y-63150500D02*
X47805200Y-61324700D01*
X45979400Y-66967300D02*
X45979400Y-63150500D01*
X45185400Y-67761300D02*
X45979400Y-66967300D01*
X45185400Y-76045300D02*
X45185400Y-67761300D01*
X42509300Y-78721400D02*
X45185400Y-76045300D01*
X42509300Y-81145900D02*
X42509300Y-78721400D01*
X32099200Y-100264000D02*
X32099200Y-96087600D01*
X58757000Y-121577000D02*
X52296200Y-115116000D01*
X52296200Y-115116000D02*
X52296200Y-102414000D01*
X63289400Y-121577000D02*
X58757000Y-121577000D01*
X66717400Y-125005000D02*
X63289400Y-121577000D01*
X50055975Y-84708751D02*
X50055975Y-81635752D01*
X52296200Y-102414000D02*
X49441188Y-99558988D01*
X49873500Y-92291226D02*
X49873500Y-84891226D01*
X49441188Y-99558988D02*
X49441188Y-92723538D01*
X49441188Y-92723538D02*
X49873500Y-92291226D01*
X49873500Y-84891226D02*
X50055975Y-84708751D01*
X23183800Y-84980300D02*
X24657200Y-83506900D01*
X23183800Y-101001000D02*
X23183800Y-84980300D01*
X20638500Y-91431400D02*
X9824300Y-102246000D01*
X20638500Y-79991300D02*
X20638500Y-91431400D01*
X9475900Y-103468000D02*
X9331300Y-103468000D01*
X21045300Y-91898400D02*
X9475900Y-103468000D01*
X21045300Y-87406000D02*
X21045300Y-91898400D01*
X21269000Y-87182300D02*
X21045300Y-87406000D01*
X21269000Y-78854400D02*
X21269000Y-87182300D01*
X27135000Y-78249000D02*
X27135000Y-74983000D01*
X27346800Y-78460800D02*
X27135000Y-78249000D01*
X27346800Y-101332000D02*
X27346800Y-78460800D01*
X26308100Y-102371000D02*
X27346800Y-101332000D01*
X26308100Y-104710000D02*
X26308100Y-102371000D01*
X47467400Y-63755800D02*
X47467400Y-68217800D01*
X40025100Y-24752500D02*
X40025100Y-33225600D01*
X41126300Y-28966500D02*
X41126300Y-33717300D01*
X43081800Y-27011000D02*
X41126300Y-28966500D01*
X53489200Y-59002900D02*
X54089500Y-58402600D01*
X53489200Y-62552800D02*
X53489200Y-59002900D01*
X53030500Y-63011500D02*
X53489200Y-62552800D01*
X53030500Y-65554800D02*
X53030500Y-63011500D01*
X53386400Y-65910700D02*
X53030500Y-65554800D01*
X53386400Y-67296200D02*
X53386400Y-65910700D01*
X55248800Y-69158600D02*
X53386400Y-67296200D01*
X55248800Y-73288200D02*
X55248800Y-69158600D01*
X51750600Y-37786600D02*
X51750600Y-17129100D01*
X50826700Y-38710500D02*
X51750600Y-37786600D01*
X49846900Y-38710500D02*
X50826700Y-38710500D01*
X48746300Y-39811100D02*
X49846900Y-38710500D01*
X48746300Y-49096600D02*
X48746300Y-39811100D01*
X50319600Y-50669900D02*
X48746300Y-49096600D01*
X50319600Y-53879000D02*
X50319600Y-50669900D01*
X48735300Y-55463300D02*
X50319600Y-53879000D01*
X48735300Y-59361400D02*
X48735300Y-55463300D01*
X48618600Y-59478100D02*
X48735300Y-59361400D01*
X48618600Y-61741500D02*
X48618600Y-59478100D01*
X46862300Y-63497800D02*
X48618600Y-61741500D01*
X46862300Y-67809900D02*
X46862300Y-63497800D01*
X46099600Y-68572600D02*
X46862300Y-67809900D01*
X46099600Y-78831800D02*
X46099600Y-68572600D01*
X23858700Y-124411000D02*
X23858700Y-120980000D01*
X23858700Y-124411000D02*
X22389000Y-124411000D01*
X26691300Y-124411000D02*
X23858700Y-124411000D01*
X30536500Y-128256000D02*
X26691300Y-124411000D01*
X28267600Y-100250000D02*
X31631200Y-103614000D01*
X28267600Y-77950700D02*
X28267600Y-100250000D01*
X28146800Y-77829900D02*
X28267600Y-77950700D01*
X29015300Y-72381476D02*
X29015300Y-71957212D01*
X29015300Y-77817200D02*
X29015300Y-72381476D01*
X28699400Y-78133100D02*
X29015300Y-77817200D01*
X28699400Y-98756700D02*
X28699400Y-78133100D01*
X32643700Y-102701000D02*
X28699400Y-98756700D01*
X66130800Y-151176000D02*
X66041400Y-151176000D01*
X71167200Y-146140000D02*
X66130800Y-151176000D01*
X71167200Y-111584000D02*
X71167200Y-146140000D01*
X52564000Y-30255800D02*
X53085600Y-29734200D01*
X52564000Y-55454900D02*
X52564000Y-30255800D01*
X51282500Y-56736400D02*
X52564000Y-55454900D01*
X51282500Y-60665300D02*
X51282500Y-56736400D01*
X50921600Y-61026200D02*
X51282500Y-60665300D01*
X50921600Y-66897100D02*
X50921600Y-61026200D01*
X51079500Y-67055000D02*
X50921600Y-66897100D01*
X51079500Y-70202800D02*
X51079500Y-67055000D01*
X52413600Y-71536900D02*
X51079500Y-70202800D01*
X52413600Y-80672200D02*
X52413600Y-71536900D01*
X91127500Y-158159000D02*
X82872500Y-158159000D01*
X82872500Y-41159000D02*
X91127500Y-41159000D01*
X91127500Y-48159000D02*
X82872500Y-48159000D01*
X81297300Y-49734200D02*
X81297300Y-48159000D01*
X78788100Y-52243400D02*
X81297300Y-49734200D01*
X78788100Y-65007500D02*
X78788100Y-52243400D01*
X82872500Y-48159000D02*
X81297300Y-48159000D01*
X81297400Y-41159000D02*
X82872500Y-41159000D01*
X81297400Y-41981600D02*
X81297400Y-41159000D01*
X80523000Y-42756000D02*
X81297400Y-41981600D01*
X78946800Y-42756000D02*
X80523000Y-42756000D01*
X78810900Y-42891900D02*
X78946800Y-42756000D01*
X78810900Y-45062300D02*
X78810900Y-42891900D01*
X79748600Y-46000000D02*
X78810900Y-45062300D01*
X80175000Y-46000000D02*
X79748600Y-46000000D01*
X81297300Y-47122300D02*
X80175000Y-46000000D01*
X81297300Y-48159000D02*
X81297300Y-47122300D01*
X92610200Y-156676000D02*
X91127500Y-158159000D01*
X93256900Y-156676000D02*
X92610200Y-156676000D01*
X94858400Y-155075000D02*
X93256900Y-156676000D01*
X94858400Y-150310000D02*
X94858400Y-155075000D01*
X92611400Y-148063000D02*
X94858400Y-150310000D01*
X92611400Y-144626000D02*
X92611400Y-148063000D01*
X95191100Y-142046000D02*
X92611400Y-144626000D01*
X95191100Y-129136000D02*
X95191100Y-142046000D01*
X87323900Y-121268000D02*
X95191100Y-129136000D01*
X4170500Y-100133000D02*
X8313400Y-95990400D01*
X4170500Y-117346000D02*
X4170500Y-100133000D01*
X4590900Y-117766000D02*
X4170500Y-117346000D01*
X10134400Y-95990400D02*
X10611000Y-95513800D01*
X8313400Y-95990400D02*
X10134400Y-95990400D01*
X16127500Y-158159000D02*
X7872500Y-158159000D01*
X7872500Y-41159000D02*
X16127500Y-41159000D01*
X6297400Y-41159000D02*
X7872500Y-41159000D01*
X6297400Y-41864100D02*
X6297400Y-41159000D01*
X5405500Y-42756000D02*
X6297400Y-41864100D01*
X3988700Y-42756000D02*
X5405500Y-42756000D01*
X3798600Y-42946100D02*
X3988700Y-42756000D01*
X3798600Y-44991900D02*
X3798600Y-42946100D01*
X4806700Y-46000000D02*
X3798600Y-44991900D01*
X5713500Y-46000000D02*
X4806700Y-46000000D01*
X7872500Y-48159000D02*
X5713500Y-46000000D01*
X6297400Y-155046000D02*
X6066900Y-154816000D01*
X6297400Y-158159000D02*
X6297400Y-155046000D01*
X7872500Y-158159000D02*
X6297400Y-158159000D01*
X4189800Y-58259800D02*
X8619800Y-53829800D01*
X4189800Y-91866800D02*
X4189800Y-58259800D01*
X8313400Y-95990400D02*
X4189800Y-91866800D01*
X8741800Y-53707800D02*
X8741800Y-48159000D01*
X8619800Y-53829800D02*
X8741800Y-53707800D01*
X41046500Y-51816900D02*
X38866600Y-51816900D01*
X44390600Y-55161000D02*
X41046500Y-51816900D01*
X16127500Y-48159000D02*
X8741800Y-48159000D01*
X8741800Y-48159000D02*
X7872500Y-48159000D01*
X29823700Y-72381476D02*
X29823700Y-71957212D01*
X29823700Y-81948500D02*
X29823700Y-72381476D01*
X30565900Y-92958600D02*
X29106200Y-91498900D01*
X29106200Y-82666000D02*
X29823700Y-81948500D01*
X29106200Y-91498900D02*
X29106200Y-82666000D01*
X41127500Y-158159000D02*
X32872500Y-158159000D01*
X40441700Y-48159000D02*
X33660100Y-48159000D01*
X42702600Y-45898100D02*
X40441700Y-48159000D01*
X42702600Y-41159000D02*
X42702600Y-45898100D01*
X41127500Y-41159000D02*
X42702600Y-41159000D01*
X31590400Y-50228700D02*
X31590400Y-56456800D01*
X33660100Y-48159000D02*
X31590400Y-50228700D01*
X39552400Y-41159000D02*
X41127500Y-41159000D01*
X39354500Y-41356900D02*
X39552400Y-41159000D01*
X34645500Y-41356900D02*
X39354500Y-41356900D01*
X34447600Y-41159000D02*
X34645500Y-41356900D01*
X32872500Y-41159000D02*
X34447600Y-41159000D01*
X26912700Y-147234000D02*
X30298400Y-143848000D01*
X26912700Y-158211000D02*
X26912700Y-147234000D01*
X27946100Y-159244000D02*
X26912700Y-158211000D01*
X30212400Y-159244000D02*
X27946100Y-159244000D01*
X31297400Y-158159000D02*
X30212400Y-159244000D01*
X32872500Y-158159000D02*
X31297400Y-158159000D01*
X33402400Y-120747000D02*
X33267100Y-120612000D01*
X33402400Y-127941000D02*
X33402400Y-120747000D01*
X28690600Y-132652000D02*
X33402400Y-127941000D01*
X28690600Y-141562000D02*
X28690600Y-132652000D01*
X30298400Y-143169000D02*
X28690600Y-141562000D01*
X30298400Y-143848000D02*
X30298400Y-143169000D01*
X34225200Y-96617900D02*
X30565900Y-92958600D01*
X34225200Y-96740800D02*
X34225200Y-96617900D01*
X41646400Y-96740800D02*
X34225200Y-96740800D01*
X46621500Y-91765700D02*
X41646400Y-96740800D01*
X46621500Y-89600100D02*
X46621500Y-91765700D01*
X47882100Y-88339500D02*
X46621500Y-89600100D01*
X47882100Y-73732400D02*
X47882100Y-88339500D01*
X47617400Y-73467700D02*
X47882100Y-73732400D01*
X47617400Y-72343600D02*
X47617400Y-73467700D01*
X48320800Y-71640200D02*
X47617400Y-72343600D01*
X48320800Y-71607700D02*
X48320800Y-71640200D01*
X29140400Y-116485000D02*
X33267100Y-120612000D01*
X29140400Y-108720000D02*
X29140400Y-116485000D01*
X34225200Y-103636000D02*
X29140400Y-108720000D01*
X34225200Y-96740800D02*
X34225200Y-103636000D01*
X32872500Y-48159000D02*
X33660100Y-48159000D01*
X41127500Y-48159000D02*
X40441700Y-48159000D01*
X54024300Y-138183000D02*
X54024300Y-140102353D01*
X56297400Y-158159000D02*
X57872500Y-158159000D01*
X54024300Y-140102353D02*
X48755800Y-145370853D01*
X52988900Y-159244000D02*
X55212400Y-159244000D01*
X48755800Y-145370853D02*
X48755800Y-148699006D01*
X48755800Y-148699006D02*
X51973200Y-151916406D01*
X51973200Y-151916406D02*
X51973200Y-158228000D01*
X51973200Y-158228000D02*
X52988900Y-159244000D01*
X55212400Y-159244000D02*
X56297400Y-158159000D01*
X66127500Y-158159000D02*
X57872500Y-158159000D01*
X60305800Y-42017200D02*
X63694200Y-42017200D01*
X59447600Y-41159000D02*
X60305800Y-42017200D01*
X57872500Y-41159000D02*
X59447600Y-41159000D01*
X64552400Y-41159000D02*
X66127500Y-41159000D01*
X63694200Y-42017200D02*
X64552400Y-41159000D01*
X62836000Y-48159000D02*
X63694200Y-47300800D01*
X57872500Y-48159000D02*
X62836000Y-48159000D01*
X66127500Y-53080000D02*
X66127500Y-48159000D01*
X70160500Y-57113000D02*
X66127500Y-53080000D01*
X70160500Y-64834500D02*
X70160500Y-57113000D01*
X69987500Y-65007500D02*
X70160500Y-64834500D01*
X70174700Y-92464800D02*
X68952500Y-93687000D01*
X70174700Y-84205000D02*
X70174700Y-92464800D01*
X65514500Y-79544800D02*
X70174700Y-84205000D01*
X63869900Y-79544800D02*
X65514500Y-79544800D01*
X59447200Y-75122100D02*
X63869900Y-79544800D01*
X59447200Y-74350300D02*
X59447200Y-75122100D01*
X63428100Y-70369400D02*
X59447200Y-74350300D01*
X65634700Y-70369400D02*
X63428100Y-70369400D01*
X69987500Y-66016600D02*
X65634700Y-70369400D01*
X69987500Y-65007500D02*
X69987500Y-66016600D01*
X54024300Y-138183000D02*
X54024300Y-120028000D01*
X64552400Y-48159000D02*
X63694200Y-47300800D01*
X66127500Y-48159000D02*
X64552400Y-48159000D01*
X63694200Y-47300800D02*
X63694200Y-42017200D01*
X18723000Y-40600000D02*
X18723000Y-39594400D01*
X42585200Y-37781200D02*
X37002500Y-37781200D01*
X43592300Y-36774100D02*
X42585200Y-37781200D01*
X43592300Y-36630100D02*
X43592300Y-36774100D01*
X43727600Y-36494800D02*
X43592300Y-36630100D01*
X47941200Y-36494800D02*
X43727600Y-36494800D01*
X48746400Y-37300000D02*
X47941200Y-36494800D01*
X49877000Y-37300000D02*
X48746400Y-37300000D01*
X72746400Y-37937700D02*
X72560500Y-38123600D01*
X72746400Y-37400000D02*
X72746400Y-37937700D01*
X73877000Y-37400000D02*
X72746400Y-37400000D01*
X45853600Y-41362500D02*
X45690000Y-41526100D01*
X45853600Y-40500000D02*
X45853600Y-41362500D01*
X44723000Y-40500000D02*
X45853600Y-40500000D01*
X98919000Y-37442000D02*
X98919000Y-39404500D01*
X98877000Y-37400000D02*
X98919000Y-37442000D01*
X69853600Y-40600000D02*
X68723000Y-40600000D01*
X69853600Y-39789400D02*
X69853600Y-40600000D01*
X69657100Y-39592900D02*
X69853600Y-39789400D01*
X93723000Y-40600000D02*
X93723000Y-39264800D01*
X25007600Y-43388500D02*
X24845900Y-43226800D01*
X25007600Y-44400000D02*
X25007600Y-43388500D01*
X23877000Y-44400000D02*
X25007600Y-44400000D01*
X39640800Y-35900800D02*
X39307700Y-36233900D01*
X48832900Y-35900800D02*
X39640800Y-35900800D01*
X49118700Y-36186600D02*
X48832900Y-35900800D01*
X49424300Y-43947300D02*
X49424300Y-42333800D01*
X49877000Y-44400000D02*
X49424300Y-43947300D01*
X19853600Y-47600000D02*
X19853600Y-46591300D01*
X18723000Y-47600000D02*
X19853600Y-47600000D01*
X42342100Y-39408300D02*
X39288100Y-39408300D01*
X43592300Y-40658500D02*
X42342100Y-39408300D01*
X43592300Y-41172100D02*
X43592300Y-40658500D01*
X44767600Y-42347400D02*
X43592300Y-41172100D01*
X44823500Y-42347400D02*
X44767600Y-42347400D01*
X46341100Y-48087500D02*
X46352900Y-48087500D01*
X45853600Y-47600000D02*
X46341100Y-48087500D01*
X44723000Y-47600000D02*
X45853600Y-47600000D01*
X73040000Y-45237000D02*
X73040000Y-45431700D01*
X73877000Y-44400000D02*
X73040000Y-45237000D01*
X68723000Y-47600000D02*
X68723000Y-46585500D01*
X98919000Y-44358000D02*
X98919000Y-43382500D01*
X98877000Y-44400000D02*
X98919000Y-44358000D01*
X14338700Y-60438700D02*
X14338700Y-59534000D01*
X14700000Y-60800000D02*
X14338700Y-60438700D01*
X93241200Y-47118200D02*
X89539900Y-47118200D01*
X93723000Y-47600000D02*
X93241200Y-47118200D01*
X42454500Y-56510100D02*
X45648900Y-56510100D01*
X40461000Y-54516600D02*
X42454500Y-56510100D01*
X35208500Y-54516600D02*
X40461000Y-54516600D01*
X35077300Y-54647800D02*
X35208500Y-54516600D01*
X33239900Y-54647800D02*
X35077300Y-54647800D01*
X32195500Y-55692200D02*
X33239900Y-54647800D01*
X10805100Y-63469600D02*
X12573800Y-61700900D01*
X10805100Y-64000000D02*
X10805100Y-63469600D01*
X9700000Y-64000000D02*
X10805100Y-64000000D01*
X35336200Y-65135500D02*
X34894200Y-65135500D01*
X38594900Y-61876800D02*
X35336200Y-65135500D01*
X38594900Y-60800000D02*
X38594900Y-61876800D01*
X39700000Y-60800000D02*
X38594900Y-60800000D01*
X63594900Y-60800000D02*
X63372900Y-60578000D01*
X64700000Y-60800000D02*
X63594900Y-60800000D01*
X45123900Y-61628700D02*
X46786000Y-59966600D01*
X45123900Y-65872900D02*
X45123900Y-61628700D01*
X42164700Y-68832100D02*
X45123900Y-65872900D01*
X42164700Y-68984100D02*
X42164700Y-68832100D01*
X35805100Y-64000000D02*
X35805100Y-63075100D01*
X34700000Y-64000000D02*
X35805100Y-64000000D01*
X60805100Y-64000000D02*
X61024800Y-64219700D01*
X59700000Y-64000000D02*
X60805100Y-64000000D01*
X87335400Y-62059500D02*
X86612000Y-62059500D01*
X88594900Y-60800000D02*
X87335400Y-62059500D01*
X89700000Y-60800000D02*
X88594900Y-60800000D01*
X15756300Y-86856300D02*
X15756300Y-87011800D01*
X14700000Y-85800000D02*
X15756300Y-86856300D01*
X45530700Y-62734800D02*
X47200000Y-61065500D01*
X45530700Y-66644500D02*
X45530700Y-62734800D01*
X44677000Y-67498200D02*
X45530700Y-66644500D01*
X44677000Y-75978500D02*
X44677000Y-67498200D01*
X41323000Y-79332500D02*
X44677000Y-75978500D01*
X37724600Y-79332500D02*
X41323000Y-79332500D01*
X83594900Y-64000000D02*
X83594900Y-62700800D01*
X84700000Y-64000000D02*
X83594900Y-64000000D01*
X38594900Y-85949000D02*
X38377600Y-86166300D01*
X38594900Y-85800000D02*
X38594900Y-85949000D01*
X39700000Y-85800000D02*
X38594900Y-85800000D01*
X10805100Y-89000000D02*
X9700000Y-89000000D01*
X11691200Y-89886100D02*
X10805100Y-89000000D01*
X12160200Y-89886100D02*
X11691200Y-89886100D01*
X36904800Y-95472400D02*
X36734500Y-95642700D01*
X41688200Y-95472400D02*
X36904800Y-95472400D01*
X45808000Y-91352600D02*
X41688200Y-95472400D01*
X45808000Y-87842900D02*
X45808000Y-91352600D01*
X46870200Y-86780700D02*
X45808000Y-87842900D01*
X35805100Y-90215800D02*
X36878600Y-91289300D01*
X35805100Y-89000000D02*
X35805100Y-90215800D01*
X34700000Y-89000000D02*
X35805100Y-89000000D01*
X63594900Y-85922200D02*
X63395400Y-86121700D01*
X63594900Y-85800000D02*
X63594900Y-85922200D01*
X64700000Y-85800000D02*
X63594900Y-85800000D01*
X60805100Y-89000000D02*
X59700000Y-89000000D01*
X61444400Y-89639300D02*
X60805100Y-89000000D01*
X86426400Y-87968500D02*
X84762600Y-87968500D01*
X88594900Y-85800000D02*
X86426400Y-87968500D01*
X89700000Y-85800000D02*
X88594900Y-85800000D01*
X40845091Y-98639900D02*
X47925145Y-91559846D01*
X35797100Y-98639900D02*
X40845091Y-98639900D01*
X83594900Y-88278100D02*
X83488400Y-88171600D01*
X83594900Y-89000000D02*
X83594900Y-88278100D01*
X84700000Y-89000000D02*
X83594900Y-89000000D01*
X14996200Y-111096000D02*
X14996200Y-111813000D01*
X14700000Y-110800000D02*
X14996200Y-111096000D01*
X10805100Y-114000000D02*
X9700000Y-114000000D01*
X12232700Y-115428000D02*
X10805100Y-114000000D01*
X13646300Y-115428000D02*
X12232700Y-115428000D01*
X37466700Y-109695000D02*
X34918500Y-109695000D01*
X38571900Y-110800000D02*
X37466700Y-109695000D01*
X39677000Y-110800000D02*
X38571900Y-110800000D01*
X28250000Y-103099000D02*
X28250000Y-102788000D01*
X31069900Y-105919000D02*
X28250000Y-103099000D01*
X63966800Y-111814000D02*
X64038100Y-111814000D01*
X63594900Y-111442000D02*
X63966800Y-111814000D01*
X63594900Y-110800000D02*
X63594900Y-111442000D01*
X64700000Y-110800000D02*
X63594900Y-110800000D01*
X37542000Y-115760000D02*
X39024300Y-115760000D01*
X35782100Y-114000000D02*
X37542000Y-115760000D01*
X34677000Y-114000000D02*
X35782100Y-114000000D01*
X88594900Y-110800000D02*
X88214100Y-111181000D01*
X89700000Y-110800000D02*
X88594900Y-110800000D01*
X60918900Y-114114000D02*
X62811200Y-114114000D01*
X60805100Y-114000000D02*
X60918900Y-114114000D01*
X59700000Y-114000000D02*
X60805100Y-114000000D01*
X15150800Y-136251000D02*
X15150800Y-137909000D01*
X14700000Y-135800000D02*
X15150800Y-136251000D01*
X85805100Y-114000000D02*
X85805100Y-115011000D01*
X84700000Y-114000000D02*
X85805100Y-114000000D01*
X10805100Y-139174000D02*
X11094200Y-139463000D01*
X10805100Y-139000000D02*
X10805100Y-139174000D01*
X9700000Y-139000000D02*
X10805100Y-139000000D01*
X37567400Y-134772000D02*
X36180500Y-134772000D01*
X38594900Y-135800000D02*
X37567400Y-134772000D01*
X39700000Y-135800000D02*
X38594900Y-135800000D01*
X36383300Y-139578000D02*
X37574500Y-139578000D01*
X35805100Y-139000000D02*
X36383300Y-139578000D01*
X34700000Y-139000000D02*
X35805100Y-139000000D01*
X62473200Y-136922000D02*
X60659900Y-136922000D01*
X63594900Y-135800000D02*
X62473200Y-136922000D01*
X64700000Y-135800000D02*
X63594900Y-135800000D01*
X87600100Y-135800000D02*
X86945600Y-136454000D01*
X89700000Y-135800000D02*
X87600100Y-135800000D01*
X60805100Y-139000000D02*
X59700000Y-139000000D01*
X62284500Y-137521000D02*
X60805100Y-139000000D01*
X63886300Y-137521000D02*
X62284500Y-137521000D01*
X25007600Y-146828000D02*
X29027500Y-142808000D01*
X25007600Y-154400000D02*
X25007600Y-146828000D01*
X23877000Y-154400000D02*
X25007600Y-154400000D01*
X85445100Y-134760000D02*
X85280900Y-134760000D01*
X85805100Y-135120000D02*
X85445100Y-134760000D01*
X85805100Y-139000000D02*
X85805100Y-135120000D01*
X84700000Y-139000000D02*
X85805100Y-139000000D01*
X47746400Y-154400000D02*
X48877000Y-154400000D01*
X47746400Y-155978000D02*
X47746400Y-154400000D01*
X43652600Y-160072000D02*
X47746400Y-155978000D01*
X22325400Y-160072000D02*
X43652600Y-160072000D01*
X19853600Y-157600000D02*
X22325400Y-160072000D01*
X18723000Y-157600000D02*
X19853600Y-157600000D01*
X73877000Y-154400000D02*
X72746400Y-154400000D01*
X68466800Y-159662000D02*
X52794000Y-159662000D01*
X52794000Y-159662000D02*
X50830600Y-157698000D01*
X44853600Y-156057000D02*
X44853600Y-157600000D01*
X72746400Y-154400000D02*
X72746400Y-155382000D01*
X50830600Y-157698000D02*
X50830600Y-152769805D01*
X72746400Y-155382000D02*
X68466800Y-159662000D01*
X50830600Y-152769805D02*
X50976805Y-152623600D01*
X50976805Y-152623600D02*
X50976805Y-151921215D01*
X50976805Y-151921215D02*
X50761293Y-151705703D01*
X50761293Y-151705703D02*
X49204897Y-151705703D01*
X49204897Y-151705703D02*
X44853600Y-156057000D01*
X44853600Y-157600000D02*
X43723000Y-157600000D01*
X97746400Y-154400000D02*
X98877000Y-154400000D01*
X97746400Y-155389000D02*
X97746400Y-154400000D01*
X93891700Y-159244000D02*
X97746400Y-155389000D01*
X77958300Y-159244000D02*
X93891700Y-159244000D01*
X76082800Y-157368000D02*
X77958300Y-159244000D01*
X76082800Y-154844000D02*
X76082800Y-157368000D01*
X74834100Y-153595000D02*
X76082800Y-154844000D01*
X72890900Y-153595000D02*
X74834100Y-153595000D01*
X69853600Y-156632000D02*
X72890900Y-153595000D01*
X69853600Y-157600000D02*
X69853600Y-156632000D01*
X68723000Y-157600000D02*
X69853600Y-157600000D01*
X67365522Y-72923715D02*
X67065523Y-73223714D01*
X80228800Y-33889100D02*
X77213800Y-36904100D01*
X70832100Y-70787000D02*
X69502237Y-70787000D01*
X77213800Y-36904100D02*
X77213800Y-64405300D01*
X88391500Y-31104100D02*
X83823000Y-31104100D01*
X81521700Y-33889100D02*
X80228800Y-33889100D01*
X81664800Y-33746000D02*
X81521700Y-33889100D01*
X81664800Y-33262300D02*
X81664800Y-33746000D01*
X89495000Y-30000600D02*
X88391500Y-31104100D01*
X77213800Y-64405300D02*
X70832100Y-70787000D01*
X83823000Y-31104100D02*
X81664800Y-33262300D01*
X69502237Y-70787000D02*
X67365522Y-72923715D01*
X89495000Y-30000600D02*
X96500000Y-30000600D01*
X89495000Y-29860000D02*
X89495000Y-30000600D01*
X49160600Y-34984800D02*
X39206800Y-34984800D01*
X43602500Y-97791900D02*
X43602500Y-106219000D01*
X45191200Y-96203200D02*
X43602500Y-97791900D01*
X48211900Y-56883400D02*
X48115500Y-56787000D01*
X48211900Y-61493200D02*
X48211900Y-56883400D01*
X46386200Y-63318900D02*
X48211900Y-61493200D01*
X46386200Y-67423200D02*
X46386200Y-63318900D01*
X45642900Y-68166500D02*
X46386200Y-67423200D01*
X45642900Y-76163000D02*
X45642900Y-68166500D01*
X45268100Y-76537800D02*
X45642900Y-76163000D01*
X45268100Y-79024800D02*
X45268100Y-76537800D01*
X69581700Y-19204900D02*
X66035400Y-15658600D01*
X69581700Y-35129300D02*
X69581700Y-19204900D01*
X70694400Y-36242000D02*
X69581700Y-35129300D01*
X70694400Y-44607300D02*
X70694400Y-36242000D01*
X69996200Y-45305500D02*
X70694400Y-44607300D01*
X25259000Y-121454000D02*
X31499800Y-127695000D01*
X25259000Y-117954000D02*
X25259000Y-121454000D01*
X41851600Y-31731300D02*
X41851600Y-29126500D01*
X42743400Y-32623100D02*
X41851600Y-31731300D01*
X66796640Y-72122111D02*
X66496641Y-72422110D01*
X68755251Y-70163500D02*
X66796640Y-72122111D01*
X70394700Y-70163500D02*
X68755251Y-70163500D01*
X72843600Y-67714600D02*
X70394700Y-70163500D01*
X72843600Y-61926800D02*
X72843600Y-67714600D01*
X76312200Y-58458200D02*
X72843600Y-61926800D01*
X76312200Y-32678600D02*
X76312200Y-58458200D01*
X89495000Y-19495800D02*
X76312200Y-32678600D01*
X89495000Y-15360000D02*
X89495000Y-19495800D01*
X72373300Y-67319100D02*
X71146700Y-68545700D01*
X72373300Y-61380400D02*
X72373300Y-67319100D01*
X72276500Y-61283600D02*
X72373300Y-61380400D01*
X72276500Y-60782400D02*
X72276500Y-61283600D01*
X72373300Y-60685600D02*
X72276500Y-60782400D01*
X72373300Y-40281100D02*
X72373300Y-60685600D01*
X74200700Y-38453700D02*
X72373300Y-40281100D01*
X74655900Y-38453700D02*
X74200700Y-38453700D01*
X75414300Y-37695300D02*
X74655900Y-38453700D01*
X75414300Y-24440700D02*
X75414300Y-37695300D01*
X84495000Y-15360000D02*
X75414300Y-24440700D01*
X50281800Y-31001800D02*
X50281800Y-12721800D01*
X47506700Y-33776900D02*
X50281800Y-31001800D01*
X47558100Y-2164400D02*
X47558100Y-2777500D01*
X37210000Y-24676900D02*
X37210000Y-1979400D01*
X37934400Y-1255000D02*
X46648700Y-1255000D01*
X37210000Y-1979400D02*
X37934400Y-1255000D01*
X28786300Y-59572900D02*
X28786300Y-33100600D01*
X28934400Y-59721000D02*
X28786300Y-59572900D01*
X33445200Y-70692800D02*
X32847300Y-70094900D01*
X32847300Y-70094900D02*
X32806000Y-70094900D01*
X35521900Y-70692800D02*
X33445200Y-70692800D01*
X46648700Y-1255000D02*
X47558100Y-2164400D01*
X28786300Y-33100600D02*
X37210000Y-24676900D01*
X32806000Y-70094900D02*
X28934400Y-66223300D01*
X28934400Y-66223300D02*
X28934400Y-59721000D01*
X34167500Y-75529339D02*
X30077429Y-71439268D01*
X23877000Y-38103200D02*
X23877000Y-37400000D01*
X30039468Y-71439268D02*
X23191500Y-64591300D01*
X30077429Y-71439268D02*
X30039468Y-71439268D01*
X34167500Y-76283600D02*
X34167500Y-75529339D01*
X25457400Y-49789800D02*
X25457400Y-39683600D01*
X23191500Y-52055700D02*
X25457400Y-49789800D01*
X23191500Y-64591300D02*
X23191500Y-52055700D01*
X25457400Y-39683600D02*
X23877000Y-38103200D01*
X71869800Y-66952000D02*
X71753500Y-67068300D01*
X71869800Y-60613900D02*
X71869800Y-66952000D01*
X71966600Y-60517100D02*
X71869800Y-60613900D01*
X71966600Y-54111500D02*
X71966600Y-60517100D01*
X71941900Y-54086800D02*
X71966600Y-54111500D01*
X71941900Y-12048000D02*
X71941900Y-54086800D01*
X65238500Y-13966300D02*
X71535200Y-20263000D01*
X71535200Y-20263000D02*
X71535200Y-66521612D01*
X71535200Y-66521612D02*
X65746753Y-72310059D01*
X65746753Y-72310059D02*
X65746753Y-72377100D01*
X65746753Y-72377100D02*
X65746753Y-72801364D01*
X71153200Y-66102010D02*
X65296867Y-71958343D01*
X65296867Y-71958343D02*
X64996868Y-72258342D01*
X71153200Y-34125300D02*
X71153200Y-66102010D01*
X70214500Y-33186600D02*
X71153200Y-34125300D01*
X46705000Y-79209100D02*
X46705000Y-75558900D01*
X45114200Y-80799900D02*
X46705000Y-79209100D01*
X45114200Y-91173800D02*
X45114200Y-80799900D01*
X42720900Y-93567100D02*
X45114200Y-91173800D01*
X46705000Y-75558900D02*
X46705000Y-69483800D01*
X27940000Y-59877000D02*
X27940000Y-24130000D01*
X28083800Y-60020800D02*
X27940000Y-59877000D01*
X28083800Y-66542700D02*
X28083800Y-60020800D01*
X32449400Y-70908300D02*
X28083800Y-66542700D01*
X32510300Y-70908300D02*
X32449400Y-70908300D01*
X34135100Y-72533100D02*
X32510300Y-70908300D01*
X39476800Y-72533100D02*
X34135100Y-72533100D01*
X41496600Y-74552900D02*
X39476800Y-72533100D01*
X50651091Y-72116391D02*
X50651091Y-74769775D01*
X49792800Y-68259700D02*
X49792800Y-71258100D01*
X50132800Y-75288066D02*
X50132800Y-75800707D01*
X49660900Y-68127800D02*
X49792800Y-68259700D01*
X49792800Y-71258100D02*
X50651091Y-72116391D01*
X50651091Y-74769775D02*
X50132800Y-75288066D01*
X33686000Y-72939800D02*
X32259600Y-71513400D01*
X38992900Y-72939800D02*
X33686000Y-72939800D01*
X41409600Y-75356500D02*
X38992900Y-72939800D01*
X27677100Y-66930900D02*
X32259600Y-71513400D01*
X27677100Y-60189400D02*
X27677100Y-66930900D01*
X27270500Y-59782800D02*
X27677100Y-60189400D01*
X27270500Y-26000500D02*
X27270500Y-59782800D01*
X25400000Y-24130000D02*
X27270500Y-26000500D01*
X16127500Y-36841000D02*
X7872500Y-36841000D01*
X6278000Y-36860400D02*
X5000000Y-36860400D01*
X6297400Y-36841000D02*
X6278000Y-36860400D01*
X7872500Y-36841000D02*
X6297400Y-36841000D01*
X41127500Y-36841000D02*
X32872500Y-36841000D01*
X31297400Y-36841000D02*
X32872500Y-36841000D01*
X31189000Y-36949400D02*
X31297400Y-36841000D01*
X31189000Y-36960400D02*
X31189000Y-36949400D01*
X30000000Y-36960400D02*
X31189000Y-36960400D01*
X56206400Y-36750000D02*
X55000000Y-36750000D01*
X56297400Y-36841000D02*
X56206400Y-36750000D01*
X57872500Y-36841000D02*
X56297400Y-36841000D01*
X66127500Y-36841000D02*
X57872500Y-36841000D01*
X82872500Y-36841000D02*
X91127500Y-36841000D01*
X81297400Y-36841000D02*
X82872500Y-36841000D01*
X81189000Y-36949400D02*
X81297400Y-36841000D01*
X81189000Y-36960400D02*
X81189000Y-36949400D01*
X80000000Y-36960400D02*
X81189000Y-36960400D01*
X82111400Y-29860000D02*
X84495000Y-29860000D01*
X80460400Y-31511000D02*
X82111400Y-29860000D01*
X80460400Y-32700000D02*
X80460400Y-31511000D01*
X16127500Y-43841000D02*
X7872500Y-43841000D01*
X6297400Y-43841000D02*
X7872500Y-43841000D01*
X6189000Y-43949400D02*
X6297400Y-43841000D01*
X6189000Y-43960400D02*
X6189000Y-43949400D01*
X5000000Y-43960400D02*
X6189000Y-43960400D01*
X32872500Y-43841000D02*
X41127500Y-43841000D01*
X31297400Y-43841000D02*
X32872500Y-43841000D01*
X31189000Y-43949400D02*
X31297400Y-43841000D01*
X31189000Y-43960400D02*
X31189000Y-43949400D01*
X30000000Y-43960400D02*
X31189000Y-43960400D01*
X59603200Y-43841000D02*
X59675100Y-43769100D01*
X57872500Y-43841000D02*
X59603200Y-43841000D01*
X64552400Y-43762000D02*
X64344000Y-43553600D01*
X64552400Y-43841000D02*
X64552400Y-43762000D01*
X66127500Y-43841000D02*
X64552400Y-43841000D01*
X56297400Y-43841000D02*
X57872500Y-43841000D01*
X56189000Y-43949400D02*
X56297400Y-43841000D01*
X56189000Y-43960400D02*
X56189000Y-43949400D01*
X55000000Y-43960400D02*
X56189000Y-43960400D01*
X91127500Y-43841000D02*
X82872500Y-43841000D01*
X81297400Y-43841000D02*
X82872500Y-43841000D01*
X81189000Y-43949400D02*
X81297400Y-43841000D01*
X81189000Y-43960400D02*
X81189000Y-43949400D01*
X80000000Y-43960400D02*
X81189000Y-43960400D01*
X7872500Y-153841000D02*
X16127500Y-153841000D01*
X5189000Y-158040000D02*
X4000400Y-158040000D01*
X5189000Y-154838000D02*
X5189000Y-158040000D01*
X6185900Y-153841000D02*
X5189000Y-154838000D01*
X7872500Y-153841000D02*
X6185900Y-153841000D01*
D33*
X4000400Y-158040000D02*
X4000000Y-158039600D01*
D32*
X32872500Y-153841000D02*
X41127500Y-153841000D01*
X30189000Y-158040000D02*
X29000400Y-158040000D01*
X30189000Y-154949000D02*
X30189000Y-158040000D01*
X31297400Y-153841000D02*
X30189000Y-154949000D01*
X32872500Y-153841000D02*
X31297400Y-153841000D01*
D33*
X29000400Y-158040000D02*
X29000000Y-158039600D01*
D32*
X57872500Y-153841000D02*
X66127500Y-153841000D01*
X55189000Y-158040000D02*
X54000400Y-158040000D01*
X55189000Y-154949000D02*
X55189000Y-158040000D01*
X56297400Y-153841000D02*
X55189000Y-154949000D01*
X57872500Y-153841000D02*
X56297400Y-153841000D01*
D33*
X54000400Y-158040000D02*
X54000000Y-158039600D01*
D32*
X82872500Y-153841000D02*
X91127500Y-153841000D01*
X79000000Y-156835000D02*
X79000000Y-158039600D01*
X81297400Y-154538000D02*
X79000000Y-156835000D01*
X81297400Y-153841000D02*
X81297400Y-154538000D01*
X82872500Y-153841000D02*
X81297400Y-153841000D01*
X79000000Y-158039600D02*
X79000000Y-158040000D01*
X26728300Y-77215700D02*
X26728300Y-86131300D01*
X21851200Y-72338600D02*
X26728300Y-77215700D01*
X21851200Y-48808400D02*
X21851200Y-72338600D01*
X90270800Y-34999400D02*
X96500000Y-34999400D01*
X89460400Y-34189000D02*
X90270800Y-34999400D01*
X89460400Y-33000000D02*
X89460400Y-34189000D01*
X70562100Y-111333000D02*
X70562100Y-145883000D01*
X70789500Y-111106000D02*
X70562100Y-111333000D01*
X70789500Y-108341000D02*
X70789500Y-111106000D01*
X53772400Y-91323600D02*
X70789500Y-108341000D01*
X53772400Y-88933200D02*
X53772400Y-91323600D01*
X53203100Y-88363900D02*
X53772400Y-88933200D01*
X53203100Y-84902600D02*
X53203100Y-88363900D01*
M02*
