  0
SECTION
  2
HEADER
  9
$ANGBASE
  50
0.0
  9
$ANGDIR
  70
  1
  9
$MEASUREMENT
  70
0
  0
ENDSEC
  0
SECTION
  2
TABLES
  0
TABLE
  2
LTYPE
  70
1
  0
LTYPE
  2
CONTINUOUS
  70
0
  3
Solid line
  72
65
  73
0
  40
0.0
  0
ENDTAB
  0
TABLE
  2
STYLE
  70
4
  0
STYLE
  2
KICAD
  70
0
  40
0
  41
1
  42
1
  50
0
  71
0
  3
isocp.shx
  0
STYLE
  2
KICADB
  70
0
  40
0
  41
1
  42
1
  50
0
  71
0
  3
isocp.shx
  0
STYLE
  2
KICADI
  70
0
  40
0
  41
1
  42
1
  50
15
  71
0
  3
isocp.shx
  0
STYLE
  2
KICADBI
  70
0
  40
0
  41
1
  42
1
  50
15
  71
0
  3
isocp.shx
  0
ENDTAB
  0
TABLE
  2
LAYER
  70
30
  0
LAYER
  2
BLACK
  70
0
  62
7
  6
CONTINUOUS
  0
LAYER
  2
GRAY1
  70
0
  62
251
  6
CONTINUOUS
  0
LAYER
  2
GRAY2
  70
0
  62
8
  6
CONTINUOUS
  0
LAYER
  2
GRAY3
  70
0
  62
9
  6
CONTINUOUS
  0
LAYER
  2
WHITE
  70
0
  62
7
  6
CONTINUOUS
  0
LAYER
  2
LYELLOW
  70
0
  62
51
  6
CONTINUOUS
  0
LAYER
  2
BLUE1
  70
0
  62
178
  6
CONTINUOUS
  0
LAYER
  2
GREEN1
  70
0
  62
98
  6
CONTINUOUS
  0
LAYER
  2
CYAN1
  70
0
  62
138
  6
CONTINUOUS
  0
LAYER
  2
RED1
  70
0
  62
18
  6
CONTINUOUS
  0
LAYER
  2
MAGENTA1
  70
0
  62
228
  6
CONTINUOUS
  0
LAYER
  2
BROWN1
  70
0
  62
58
  6
CONTINUOUS
  0
LAYER
  2
BLUE2
  70
0
  62
5
  6
CONTINUOUS
  0
LAYER
  2
GREEN2
  70
0
  62
3
  6
CONTINUOUS
  0
LAYER
  2
CYAN2
  70
0
  62
4
  6
CONTINUOUS
  0
LAYER
  2
RED2
  70
0
  62
1
  6
CONTINUOUS
  0
LAYER
  2
MAGENTA2
  70
0
  62
6
  6
CONTINUOUS
  0
LAYER
  2
BROWN2
  70
0
  62
54
  6
CONTINUOUS
  0
LAYER
  2
BLUE3
  70
0
  62
171
  6
CONTINUOUS
  0
LAYER
  2
GREEN3
  70
0
  62
91
  6
CONTINUOUS
  0
LAYER
  2
CYAN3
  70
0
  62
131
  6
CONTINUOUS
  0
LAYER
  2
RED3
  70
0
  62
11
  6
CONTINUOUS
  0
LAYER
  2
MAGENTA3
  70
0
  62
221
  6
CONTINUOUS
  0
LAYER
  2
YELLOW3
  70
0
  62
2
  6
CONTINUOUS
  0
LAYER
  2
BLUE4
  70
0
  62
5
  6
CONTINUOUS
  0
LAYER
  2
GREEN4
  70
0
  62
3
  6
CONTINUOUS
  0
LAYER
  2
CYAN4
  70
0
  62
4
  6
CONTINUOUS
  0
LAYER
  2
RED4
  70
0
  62
1
  6
CONTINUOUS
  0
LAYER
  2
MAGENTA4
  70
0
  62
6
  6
CONTINUOUS
  0
LAYER
  2
YELLOW4
  70
0
  62
2
  6
CONTINUOUS
  0
ENDTAB
  0
ENDSEC
  0
SECTION
  2
ENTITIES
0
LINE
8
Black
10
100.006
20
0.073861
11
100.013
21
0.073861
0
LINE
8
Black
10
100.013
20
0.073861
11
100.019
21
0.071616
0
LINE
8
Black
10
100.019
20
0.071616
11
100.026
21
0.070477
0
LINE
8
Black
10
100.026
20
0.070477
11
100.031
21
0.067196
0
LINE
8
Black
10
100.031
20
0.067196
11
100.037
21
0.064952
0
LINE
8
Black
10
100.037
20
0.064952
11
100.043
21
0.060734
0
LINE
8
Black
10
100.043
20
0.060734
11
100.048
21
0.057453
0
LINE
8
Black
10
100.048
20
0.057453
11
100.052
21
0.052427
0
LINE
8
Black
10
100.052
20
0.052427
11
100.057
21
0.048209
0
LINE
8
Black
10
100.057
20
0.048209
11
100.061
21
0.042527
0
LINE
8
Black
10
100.061
20
0.042527
11
100.065
21
0.0375
0
LINE
8
Black
10
100.065
20
0.0375
11
100.067
21
0.031334
0
LINE
8
Black
10
100.067
20
0.031334
11
100.07
21
0.025652
0
LINE
8
Black
10
100.07
20
0.025652
11
100.072
21
0.019191
0
LINE
8
Black
10
100.072
20
0.019191
11
100.074
21
0.013024
0
LINE
8
Black
10
100.074
20
0.013024
11
100.074
21
0.00646
0
LINE
8
Black
10
100.074
20
0.00646
11
100.075
21
0
0
LINE
8
Black
10
100.075
20
0
11
100.075
21
-28.5
0
LINE
8
Black
10
100.075
20
-28.5
11
100.074
21
-28.5032
0
LINE
8
Black
10
100.074
20
-28.5032
11
100.075
21
-28.5065
0
LINE
8
Black
10
100.075
20
-28.5065
11
100.072
21
-28.516
0
LINE
8
Black
10
100.072
20
-28.516
11
100.07
21
-28.5257
0
LINE
8
Black
10
100.07
20
-28.5257
11
100.069
21
-28.5285
0
LINE
8
Black
10
100.069
20
-28.5285
11
100.068
21
-28.5317
0
LINE
8
Black
10
100.068
20
-28.5317
11
100.062
21
-28.5397
0
LINE
8
Black
10
100.062
20
-28.5397
11
100.057
21
-28.5482
0
LINE
8
Black
10
100.057
20
-28.5482
11
100.055
21
-28.5503
0
LINE
8
Black
10
100.055
20
-28.5503
11
100.053
21
-28.553
0
LINE
8
Black
10
100.053
20
-28.553
11
99.075
21
-29.5311
0
LINE
8
Black
10
99.075
20
-29.5311
11
99.075
21
-35.4689
0
LINE
8
Black
10
99.075
20
-35.4689
11
100.053
21
-36.447
0
LINE
8
Black
10
100.053
20
-36.447
11
100.055
21
-36.4497
0
LINE
8
Black
10
100.055
20
-36.4497
11
100.057
21
-36.4518
0
LINE
8
Black
10
100.057
20
-36.4518
11
100.062
21
-36.4603
0
LINE
8
Black
10
100.062
20
-36.4603
11
100.068
21
-36.4683
0
LINE
8
Black
10
100.068
20
-36.4683
11
100.069
21
-36.4715
0
LINE
8
Black
10
100.069
20
-36.4715
11
100.07
21
-36.4743
0
LINE
8
Black
10
100.07
20
-36.4743
11
100.072
21
-36.484
0
LINE
8
Black
10
100.072
20
-36.484
11
100.075
21
-36.4935
0
LINE
8
Black
10
100.075
20
-36.4935
11
100.074
21
-36.4968
0
LINE
8
Black
10
100.074
20
-36.4968
11
100.075
21
-36.5
0
LINE
8
Black
10
100.075
20
-36.5
11
100.075
21
-162.5
0
LINE
8
Black
10
100.075
20
-162.5
11
100.074
21
-162.503
0
LINE
8
Black
10
100.074
20
-162.503
11
100.075
21
-162.507
0
LINE
8
Black
10
100.075
20
-162.507
11
100.072
21
-162.516
0
LINE
8
Black
10
100.072
20
-162.516
11
100.07
21
-162.526
0
LINE
8
Black
10
100.07
20
-162.526
11
100.069
21
-162.529
0
LINE
8
Black
10
100.069
20
-162.529
11
100.068
21
-162.532
0
LINE
8
Black
10
100.068
20
-162.532
11
100.062
21
-162.54
0
LINE
8
Black
10
100.062
20
-162.54
11
100.057
21
-162.548
0
LINE
8
Black
10
100.057
20
-162.548
11
100.055
21
-162.55
0
LINE
8
Black
10
100.055
20
-162.55
11
100.053
21
-162.553
0
LINE
8
Black
10
100.053
20
-162.553
11
98.553
21
-164.053
0
LINE
8
Black
10
98.553
20
-164.053
11
98.5503
21
-164.055
0
LINE
8
Black
10
98.5503
20
-164.055
11
98.5482
21
-164.057
0
LINE
8
Black
10
98.5482
20
-164.057
11
98.5397
21
-164.062
0
LINE
8
Black
10
98.5397
20
-164.062
11
98.5317
21
-164.068
0
LINE
8
Black
10
98.5317
20
-164.068
11
98.5285
21
-164.069
0
LINE
8
Black
10
98.5285
20
-164.069
11
98.5257
21
-164.07
0
LINE
8
Black
10
98.5257
20
-164.07
11
98.516
21
-164.072
0
LINE
8
Black
10
98.516
20
-164.072
11
98.5065
21
-164.075
0
LINE
8
Black
10
98.5065
20
-164.075
11
98.5033
21
-164.074
0
LINE
8
Black
10
98.5033
20
-164.074
11
98.5
21
-164.075
0
LINE
8
Black
10
98.5
20
-164.075
11
1.5
21
-164.075
0
LINE
8
Black
10
1.5
20
-164.075
11
1.49675
21
-164.074
0
LINE
8
Black
10
1.49675
20
-164.074
11
1.49346
21
-164.075
0
LINE
8
Black
10
1.49346
20
-164.075
11
1.484
21
-164.072
0
LINE
8
Black
10
1.484
20
-164.072
11
1.47435
21
-164.07
0
LINE
8
Black
10
1.47435
20
-164.07
11
1.47149
21
-164.069
0
LINE
8
Black
10
1.47149
20
-164.069
11
1.4683
21
-164.068
0
LINE
8
Black
10
1.4683
20
-164.068
11
1.46028
21
-164.062
0
LINE
8
Black
10
1.46028
20
-164.062
11
1.45179
21
-164.057
0
LINE
8
Black
10
1.45179
20
-164.057
11
1.44967
21
-164.055
0
LINE
8
Black
10
1.44967
20
-164.055
11
1.44697
21
-164.053
0
LINE
8
Black
10
1.44697
20
-164.053
11
-0.053033
21
-162.553
0
LINE
8
Black
10
-0.053033
20
-162.553
11
-0.054926
21
-162.55
0
LINE
8
Black
10
-0.054926
20
-162.55
11
-0.057453
21
-162.548
0
LINE
8
Black
10
-0.057453
20
-162.548
11
-0.062353
21
-162.54
0
LINE
8
Black
10
-0.062353
20
-162.54
11
-0.067973
21
-162.532
0
LINE
8
Black
10
-0.067973
20
-162.532
11
-0.068826
21
-162.529
0
LINE
8
Black
10
-0.068826
20
-162.529
11
-0.070477
21
-162.526
0
LINE
8
Black
10
-0.070477
20
-162.526
11
-0.07218
21
-162.516
0
LINE
8
Black
10
-0.07218
20
-162.516
11
-0.074714
21
-162.507
0
LINE
8
Black
10
-0.074714
20
-162.507
11
-0.074427
21
-162.503
0
LINE
8
Black
10
-0.074427
20
-162.503
11
-0.075
21
-162.5
0
LINE
8
Black
10
-0.075
20
-162.5
11
-0.075
21
-36.5
0
LINE
8
Black
10
-0.075
20
-36.5
11
-0.074427
21
-36.4967
0
LINE
8
Black
10
-0.074427
20
-36.4967
11
-0.074714
21
-36.4935
0
LINE
8
Black
10
-0.074714
20
-36.4935
11
-0.07218
21
-36.484
0
LINE
8
Black
10
-0.07218
20
-36.484
11
-0.070477
21
-36.4743
0
LINE
8
Black
10
-0.070477
20
-36.4743
11
-0.068826
21
-36.4715
0
LINE
8
Black
10
-0.068826
20
-36.4715
11
-0.067973
21
-36.4683
0
LINE
8
Black
10
-0.067973
20
-36.4683
11
-0.062353
21
-36.4603
0
LINE
8
Black
10
-0.062353
20
-36.4603
11
-0.057453
21
-36.4518
0
LINE
8
Black
10
-0.057453
20
-36.4518
11
-0.054926
21
-36.4497
0
LINE
8
Black
10
-0.054926
20
-36.4497
11
-0.053033
21
-36.447
0
LINE
8
Black
10
-0.053033
20
-36.447
11
0.925
21
-35.4689
0
LINE
8
Black
10
0.925
20
-35.4689
11
0.925
21
-29.5311
0
LINE
8
Black
10
0.925
20
-29.5311
11
-0.053033
21
-28.553
0
LINE
8
Black
10
-0.053033
20
-28.553
11
-0.054926
21
-28.5503
0
LINE
8
Black
10
-0.054926
20
-28.5503
11
-0.057453
21
-28.5482
0
LINE
8
Black
10
-0.057453
20
-28.5482
11
-0.062353
21
-28.5397
0
LINE
8
Black
10
-0.062353
20
-28.5397
11
-0.067973
21
-28.5317
0
LINE
8
Black
10
-0.067973
20
-28.5317
11
-0.068826
21
-28.5285
0
LINE
8
Black
10
-0.068826
20
-28.5285
11
-0.070477
21
-28.5257
0
LINE
8
Black
10
-0.070477
20
-28.5257
11
-0.07218
21
-28.516
0
LINE
8
Black
10
-0.07218
20
-28.516
11
-0.074714
21
-28.5065
0
LINE
8
Black
10
-0.074714
20
-28.5065
11
-0.074427
21
-28.5033
0
LINE
8
Black
10
-0.074427
20
-28.5033
11
-0.075
21
-28.5
0
LINE
8
Black
10
-0.075
20
-28.5
11
-0.075
21
0
0
LINE
8
Black
10
-0.075
20
0
11
-0.073861
21
0.00646
0
LINE
8
Black
10
-0.073861
20
0.00646
11
-0.073861
21
0.013024
0
LINE
8
Black
10
-0.073861
20
0.013024
11
-0.071616
21
0.019191
0
LINE
8
Black
10
-0.071616
20
0.019191
11
-0.070477
21
0.025652
0
LINE
8
Black
10
-0.070477
20
0.025652
11
-0.067196
21
0.031334
0
LINE
8
Black
10
-0.067196
20
0.031334
11
-0.064952
21
0.0375
0
LINE
8
Black
10
-0.064952
20
0.0375
11
-0.060734
21
0.042527
0
LINE
8
Black
10
-0.060734
20
0.042527
11
-0.057453
21
0.048209
0
LINE
8
Black
10
-0.057453
20
0.048209
11
-0.052427
21
0.052427
0
LINE
8
Black
10
-0.052427
20
0.052427
11
-0.048209
21
0.057453
0
LINE
8
Black
10
-0.048209
20
0.057453
11
-0.042527
21
0.060734
0
LINE
8
Black
10
-0.042527
20
0.060734
11
-0.0375
21
0.064952
0
LINE
8
Black
10
-0.0375
20
0.064952
11
-0.031334
21
0.067196
0
LINE
8
Black
10
-0.031334
20
0.067196
11
-0.025652
21
0.070477
0
LINE
8
Black
10
-0.025652
20
0.070477
11
-0.019191
21
0.071616
0
LINE
8
Black
10
-0.019191
20
0.071616
11
-0.013024
21
0.073861
0
LINE
8
Black
10
-0.013024
20
0.073861
11
-0.00646
21
0.073861
0
LINE
8
Black
10
-0.00646
20
0.073861
11
0
21
0.075
0
LINE
8
Black
10
0
20
0.075
11
100
21
0.075
0
LINE
8
Black
10
100
20
0.075
11
100.006
21
0.073861
0
LINE
8
Black
10
0.075
20
-0.075
11
0.075
21
-28.4689
0
LINE
8
Black
10
0.075
20
-28.4689
11
1.05303
21
-29.447
0
LINE
8
Black
10
1.05303
20
-29.447
11
1.05493
21
-29.4497
0
LINE
8
Black
10
1.05493
20
-29.4497
11
1.05745
21
-29.4518
0
LINE
8
Black
10
1.05745
20
-29.4518
11
1.06235
21
-29.4603
0
LINE
8
Black
10
1.06235
20
-29.4603
11
1.06797
21
-29.4683
0
LINE
8
Black
10
1.06797
20
-29.4683
11
1.06883
21
-29.4715
0
LINE
8
Black
10
1.06883
20
-29.4715
11
1.07048
21
-29.4743
0
LINE
8
Black
10
1.07048
20
-29.4743
11
1.07218
21
-29.484
0
LINE
8
Black
10
1.07218
20
-29.484
11
1.07471
21
-29.4935
0
LINE
8
Black
10
1.07471
20
-29.4935
11
1.07443
21
-29.4968
0
LINE
8
Black
10
1.07443
20
-29.4968
11
1.075
21
-29.5
0
LINE
8
Black
10
1.075
20
-29.5
11
1.075
21
-35.5
0
LINE
8
Black
10
1.075
20
-35.5
11
1.07443
21
-35.5032
0
LINE
8
Black
10
1.07443
20
-35.5032
11
1.07471
21
-35.5065
0
LINE
8
Black
10
1.07471
20
-35.5065
11
1.07218
21
-35.516
0
LINE
8
Black
10
1.07218
20
-35.516
11
1.07048
21
-35.5257
0
LINE
8
Black
10
1.07048
20
-35.5257
11
1.06883
21
-35.5285
0
LINE
8
Black
10
1.06883
20
-35.5285
11
1.06797
21
-35.5317
0
LINE
8
Black
10
1.06797
20
-35.5317
11
1.06235
21
-35.5397
0
LINE
8
Black
10
1.06235
20
-35.5397
11
1.05745
21
-35.5482
0
LINE
8
Black
10
1.05745
20
-35.5482
11
1.05493
21
-35.5503
0
LINE
8
Black
10
1.05493
20
-35.5503
11
1.05303
21
-35.553
0
LINE
8
Black
10
1.05303
20
-35.553
11
0.075
21
-36.5311
0
LINE
8
Black
10
0.075
20
-36.5311
11
0.075
21
-162.469
0
LINE
8
Black
10
0.075
20
-162.469
11
1.53107
21
-163.925
0
LINE
8
Black
10
1.53107
20
-163.925
11
98.4689
21
-163.925
0
LINE
8
Black
10
98.4689
20
-163.925
11
99.925
21
-162.469
0
LINE
8
Black
10
99.925
20
-162.469
11
99.925
21
-36.5311
0
LINE
8
Black
10
99.925
20
-36.5311
11
98.947
21
-35.553
0
LINE
8
Black
10
98.947
20
-35.553
11
98.9451
21
-35.5503
0
LINE
8
Black
10
98.9451
20
-35.5503
11
98.9425
21
-35.5482
0
LINE
8
Black
10
98.9425
20
-35.5482
11
98.9376
21
-35.5397
0
LINE
8
Black
10
98.9376
20
-35.5397
11
98.932
21
-35.5317
0
LINE
8
Black
10
98.932
20
-35.5317
11
98.9312
21
-35.5285
0
LINE
8
Black
10
98.9312
20
-35.5285
11
98.9295
21
-35.5257
0
LINE
8
Black
10
98.9295
20
-35.5257
11
98.9278
21
-35.516
0
LINE
8
Black
10
98.9278
20
-35.516
11
98.9253
21
-35.5065
0
LINE
8
Black
10
98.9253
20
-35.5065
11
98.9256
21
-35.5033
0
LINE
8
Black
10
98.9256
20
-35.5033
11
98.925
21
-35.5
0
LINE
8
Black
10
98.925
20
-35.5
11
98.925
21
-29.5
0
LINE
8
Black
10
98.925
20
-29.5
11
98.9256
21
-29.4967
0
LINE
8
Black
10
98.9256
20
-29.4967
11
98.9253
21
-29.4935
0
LINE
8
Black
10
98.9253
20
-29.4935
11
98.9278
21
-29.484
0
LINE
8
Black
10
98.9278
20
-29.484
11
98.9295
21
-29.4743
0
LINE
8
Black
10
98.9295
20
-29.4743
11
98.9312
21
-29.4715
0
LINE
8
Black
10
98.9312
20
-29.4715
11
98.932
21
-29.4683
0
LINE
8
Black
10
98.932
20
-29.4683
11
98.9376
21
-29.4603
0
LINE
8
Black
10
98.9376
20
-29.4603
11
98.9425
21
-29.4518
0
LINE
8
Black
10
98.9425
20
-29.4518
11
98.9451
21
-29.4497
0
LINE
8
Black
10
98.9451
20
-29.4497
11
98.947
21
-29.447
0
LINE
8
Black
10
98.947
20
-29.447
11
99.925
21
-28.4689
0
LINE
8
Black
10
99.925
20
-28.4689
11
99.925
21
-0.075
0
LINE
8
Black
10
99.925
20
-0.075
11
0.075
21
-0.075
  0
ENDSEC
  0
EOF
