G04 #@! TF.FileFunction,Legend,Top*
%FSLAX46Y46*%
G04 Gerber Fmt 4.6, Leading zero omitted, Abs format (unit mm)*
G04 Created by KiCad (PCBNEW 4.0.4-stable) date 11/21/17 10:24:49*
%MOMM*%
%LPD*%
G01*
G04 APERTURE LIST*
%ADD10C,2.000000*%
%ADD11C,0.203200*%
%ADD12C,0.150000*%
%ADD13C,0.066040*%
%ADD14C,0.127000*%
%ADD15C,0.254000*%
%ADD16C,0.101600*%
%ADD17C,0.081280*%
%ADD18C,0.048768*%
%ADD19C,0.152400*%
%ADD20C,0.076200*%
G04 APERTURE END LIST*
D10*
D11*
X24130000Y-20645000D02*
X23495000Y-20010000D01*
X23495000Y-20010000D02*
X22225000Y-20010000D01*
X22225000Y-20010000D02*
X21590000Y-20645000D01*
X21590000Y-20645000D02*
X21590000Y-21915000D01*
X21590000Y-21915000D02*
X22225000Y-22550000D01*
X22225000Y-22550000D02*
X23495000Y-22550000D01*
X23495000Y-22550000D02*
X24130000Y-21915000D01*
X24130000Y-21915000D02*
X24130000Y-20645000D01*
X43810800Y-153637797D02*
X43810800Y-153383797D01*
X43810800Y-153383797D02*
X43861600Y-153383797D01*
X43861600Y-153383797D02*
X43861600Y-153388878D01*
X43861600Y-153388878D02*
X48812059Y-153388878D01*
X48812059Y-153388878D02*
X48812059Y-153620019D01*
X43790481Y-158319022D02*
X43790481Y-158590800D01*
X43790481Y-158590800D02*
X43841281Y-158590800D01*
X43841281Y-158590800D02*
X43841281Y-158593341D01*
X43841281Y-158593341D02*
X48809519Y-158593341D01*
X48809519Y-158593341D02*
X48809519Y-158367281D01*
X43760000Y-156889000D02*
X43760000Y-155187200D01*
X48840000Y-155136400D02*
X48840000Y-156000000D01*
X48840000Y-156000000D02*
X48840000Y-156863600D01*
X48840000Y-156000000D02*
X46300000Y-158540000D01*
D12*
X14000000Y-39000000D02*
G75*
G03X14000000Y-39000000I-2000000J0D01*
G01*
D13*
X8952000Y-42048000D02*
X15048000Y-42048000D01*
X15048000Y-42048000D02*
X15048000Y-35952000D01*
X8952000Y-35952000D02*
X15048000Y-35952000D01*
X8952000Y-42048000D02*
X8952000Y-35952000D01*
D14*
X8952000Y-35952000D02*
X15048000Y-35952000D01*
X15048000Y-35952000D02*
X15048000Y-42048000D01*
X15048000Y-42048000D02*
X8952000Y-42048000D01*
X8952000Y-42048000D02*
X8952000Y-35952000D01*
D12*
X4000000Y-52500000D02*
G75*
G03X4000000Y-52500000I-1500000J0D01*
G01*
X14000000Y-75000000D02*
G75*
G03X14000000Y-75000000I-1500000J0D01*
G01*
X26500000Y-62500000D02*
G75*
G03X26500000Y-62500000I-1500000J0D01*
G01*
X12300000Y-64900000D02*
X14700000Y-62500000D01*
X9700000Y-64900000D02*
X12300000Y-64900000D01*
X9700000Y-59900000D02*
X9700000Y-64900000D01*
X14700000Y-59900000D02*
X9700000Y-59900000D01*
X14700000Y-62500000D02*
X14700000Y-59900000D01*
D15*
X0Y-75000000D02*
X0Y-50000000D01*
X0Y-50000000D02*
X25000000Y-50000000D01*
X25000000Y-50000000D02*
X25000000Y-75000000D01*
X25000000Y-75000000D02*
X0Y-75000000D01*
D12*
X29000000Y-52500000D02*
G75*
G03X29000000Y-52500000I-1500000J0D01*
G01*
X39000000Y-75000000D02*
G75*
G03X39000000Y-75000000I-1500000J0D01*
G01*
X51500000Y-62500000D02*
G75*
G03X51500000Y-62500000I-1500000J0D01*
G01*
X37300000Y-64900000D02*
X39700000Y-62500000D01*
X34700000Y-64900000D02*
X37300000Y-64900000D01*
X34700000Y-59900000D02*
X34700000Y-64900000D01*
X39700000Y-59900000D02*
X34700000Y-59900000D01*
X39700000Y-62500000D02*
X39700000Y-59900000D01*
D15*
X25000000Y-75000000D02*
X25000000Y-50000000D01*
X25000000Y-50000000D02*
X50000000Y-50000000D01*
X50000000Y-50000000D02*
X50000000Y-75000000D01*
X50000000Y-75000000D02*
X25000000Y-75000000D01*
D11*
X0Y0D02*
X80000000Y0D01*
X80000000Y0D02*
X80000000Y-36000000D01*
X80000000Y-36000000D02*
X0Y-36000000D01*
X0Y-36000000D02*
X0Y0D01*
X4350000Y-4850000D02*
X75650000Y-4850000D01*
X75650000Y-4850000D02*
X75650000Y-31150000D01*
X75650000Y-31150000D02*
X4350000Y-31150000D01*
X4350000Y-31150000D02*
X4350000Y-4850000D01*
X93195000Y-24560000D02*
X93195000Y-28753800D01*
X92388800Y-29560000D02*
G75*
G03X93195000Y-28753800I0J806200D01*
G01*
X92388800Y-29560000D02*
X90895000Y-29560000D01*
X81601200Y-29560000D02*
G75*
G02X80795000Y-28753800I0J806200D01*
G01*
X81601200Y-29560000D02*
X83095000Y-29560000D01*
X80795000Y-24560000D02*
X80795000Y-28753800D01*
X80795000Y-21160000D02*
X80795000Y-16966200D01*
X81601200Y-16160000D02*
G75*
G03X80795000Y-16966200I0J-806200D01*
G01*
X81601200Y-16160000D02*
X83595000Y-16160000D01*
X92388800Y-16160000D02*
G75*
G02X93195000Y-16966200I0J-806200D01*
G01*
X92388800Y-16160000D02*
X90395000Y-16160000D01*
X93195000Y-21160000D02*
X93195000Y-16966200D01*
X89995000Y-22860000D02*
G75*
G03X89995000Y-22860000I-3000000J0D01*
G01*
X18810800Y-36637797D02*
X18810800Y-36383797D01*
X18810800Y-36383797D02*
X18861600Y-36383797D01*
X18861600Y-36383797D02*
X18861600Y-36388878D01*
X18861600Y-36388878D02*
X23812059Y-36388878D01*
X23812059Y-36388878D02*
X23812059Y-36620019D01*
X18790481Y-41319022D02*
X18790481Y-41590800D01*
X18790481Y-41590800D02*
X18841281Y-41590800D01*
X18841281Y-41590800D02*
X18841281Y-41593341D01*
X18841281Y-41593341D02*
X23809519Y-41593341D01*
X23809519Y-41593341D02*
X23809519Y-41367281D01*
X18760000Y-39889000D02*
X18760000Y-38187200D01*
X23840000Y-38136400D02*
X23840000Y-39000000D01*
X23840000Y-39000000D02*
X23840000Y-39863600D01*
X23840000Y-39000000D02*
X21300000Y-41540000D01*
X44810800Y-36537797D02*
X44810800Y-36283797D01*
X44810800Y-36283797D02*
X44861600Y-36283797D01*
X44861600Y-36283797D02*
X44861600Y-36288878D01*
X44861600Y-36288878D02*
X49812059Y-36288878D01*
X49812059Y-36288878D02*
X49812059Y-36520019D01*
X44790481Y-41219022D02*
X44790481Y-41490800D01*
X44790481Y-41490800D02*
X44841281Y-41490800D01*
X44841281Y-41490800D02*
X44841281Y-41493341D01*
X44841281Y-41493341D02*
X49809519Y-41493341D01*
X49809519Y-41493341D02*
X49809519Y-41267281D01*
X44760000Y-39789000D02*
X44760000Y-38087200D01*
X49840000Y-38036400D02*
X49840000Y-38900000D01*
X49840000Y-38900000D02*
X49840000Y-39763600D01*
X49840000Y-38900000D02*
X47300000Y-41440000D01*
X68810800Y-36637797D02*
X68810800Y-36383797D01*
X68810800Y-36383797D02*
X68861600Y-36383797D01*
X68861600Y-36383797D02*
X68861600Y-36388878D01*
X68861600Y-36388878D02*
X73812059Y-36388878D01*
X73812059Y-36388878D02*
X73812059Y-36620019D01*
X68790481Y-41319022D02*
X68790481Y-41590800D01*
X68790481Y-41590800D02*
X68841281Y-41590800D01*
X68841281Y-41590800D02*
X68841281Y-41593341D01*
X68841281Y-41593341D02*
X73809519Y-41593341D01*
X73809519Y-41593341D02*
X73809519Y-41367281D01*
X68760000Y-39889000D02*
X68760000Y-38187200D01*
X73840000Y-38136400D02*
X73840000Y-39000000D01*
X73840000Y-39000000D02*
X73840000Y-39863600D01*
X73840000Y-39000000D02*
X71300000Y-41540000D01*
X93810800Y-36637797D02*
X93810800Y-36383797D01*
X93810800Y-36383797D02*
X93861600Y-36383797D01*
X93861600Y-36383797D02*
X93861600Y-36388878D01*
X93861600Y-36388878D02*
X98812059Y-36388878D01*
X98812059Y-36388878D02*
X98812059Y-36620019D01*
X93790481Y-41319022D02*
X93790481Y-41590800D01*
X93790481Y-41590800D02*
X93841281Y-41590800D01*
X93841281Y-41590800D02*
X93841281Y-41593341D01*
X93841281Y-41593341D02*
X98809519Y-41593341D01*
X98809519Y-41593341D02*
X98809519Y-41367281D01*
X93760000Y-39889000D02*
X93760000Y-38187200D01*
X98840000Y-38136400D02*
X98840000Y-39000000D01*
X98840000Y-39000000D02*
X98840000Y-39863600D01*
X98840000Y-39000000D02*
X96300000Y-41540000D01*
X18810800Y-43637797D02*
X18810800Y-43383797D01*
X18810800Y-43383797D02*
X18861600Y-43383797D01*
X18861600Y-43383797D02*
X18861600Y-43388878D01*
X18861600Y-43388878D02*
X23812059Y-43388878D01*
X23812059Y-43388878D02*
X23812059Y-43620019D01*
X18790481Y-48319022D02*
X18790481Y-48590800D01*
X18790481Y-48590800D02*
X18841281Y-48590800D01*
X18841281Y-48590800D02*
X18841281Y-48593341D01*
X18841281Y-48593341D02*
X23809519Y-48593341D01*
X23809519Y-48593341D02*
X23809519Y-48367281D01*
X18760000Y-46889000D02*
X18760000Y-45187200D01*
X23840000Y-45136400D02*
X23840000Y-46000000D01*
X23840000Y-46000000D02*
X23840000Y-46863600D01*
X23840000Y-46000000D02*
X21300000Y-48540000D01*
X44810800Y-43637797D02*
X44810800Y-43383797D01*
X44810800Y-43383797D02*
X44861600Y-43383797D01*
X44861600Y-43383797D02*
X44861600Y-43388878D01*
X44861600Y-43388878D02*
X49812059Y-43388878D01*
X49812059Y-43388878D02*
X49812059Y-43620019D01*
X44790481Y-48319022D02*
X44790481Y-48590800D01*
X44790481Y-48590800D02*
X44841281Y-48590800D01*
X44841281Y-48590800D02*
X44841281Y-48593341D01*
X44841281Y-48593341D02*
X49809519Y-48593341D01*
X49809519Y-48593341D02*
X49809519Y-48367281D01*
X44760000Y-46889000D02*
X44760000Y-45187200D01*
X49840000Y-45136400D02*
X49840000Y-46000000D01*
X49840000Y-46000000D02*
X49840000Y-46863600D01*
X49840000Y-46000000D02*
X47300000Y-48540000D01*
X68810800Y-43637797D02*
X68810800Y-43383797D01*
X68810800Y-43383797D02*
X68861600Y-43383797D01*
X68861600Y-43383797D02*
X68861600Y-43388878D01*
X68861600Y-43388878D02*
X73812059Y-43388878D01*
X73812059Y-43388878D02*
X73812059Y-43620019D01*
X68790481Y-48319022D02*
X68790481Y-48590800D01*
X68790481Y-48590800D02*
X68841281Y-48590800D01*
X68841281Y-48590800D02*
X68841281Y-48593341D01*
X68841281Y-48593341D02*
X73809519Y-48593341D01*
X73809519Y-48593341D02*
X73809519Y-48367281D01*
X68760000Y-46889000D02*
X68760000Y-45187200D01*
X73840000Y-45136400D02*
X73840000Y-46000000D01*
X73840000Y-46000000D02*
X73840000Y-46863600D01*
X73840000Y-46000000D02*
X71300000Y-48540000D01*
X93810800Y-43637797D02*
X93810800Y-43383797D01*
X93810800Y-43383797D02*
X93861600Y-43383797D01*
X93861600Y-43383797D02*
X93861600Y-43388878D01*
X93861600Y-43388878D02*
X98812059Y-43388878D01*
X98812059Y-43388878D02*
X98812059Y-43620019D01*
X93790481Y-48319022D02*
X93790481Y-48590800D01*
X93790481Y-48590800D02*
X93841281Y-48590800D01*
X93841281Y-48590800D02*
X93841281Y-48593341D01*
X93841281Y-48593341D02*
X98809519Y-48593341D01*
X98809519Y-48593341D02*
X98809519Y-48367281D01*
X93760000Y-46889000D02*
X93760000Y-45187200D01*
X98840000Y-45136400D02*
X98840000Y-46000000D01*
X98840000Y-46000000D02*
X98840000Y-46863600D01*
X98840000Y-46000000D02*
X96300000Y-48540000D01*
X18810800Y-153637797D02*
X18810800Y-153383797D01*
X18810800Y-153383797D02*
X18861600Y-153383797D01*
X18861600Y-153383797D02*
X18861600Y-153388878D01*
X18861600Y-153388878D02*
X23812059Y-153388878D01*
X23812059Y-153388878D02*
X23812059Y-153620019D01*
X18790481Y-158319022D02*
X18790481Y-158590800D01*
X18790481Y-158590800D02*
X18841281Y-158590800D01*
X18841281Y-158590800D02*
X18841281Y-158593341D01*
X18841281Y-158593341D02*
X23809519Y-158593341D01*
X23809519Y-158593341D02*
X23809519Y-158367281D01*
X18760000Y-156889000D02*
X18760000Y-155187200D01*
X23840000Y-155136400D02*
X23840000Y-156000000D01*
X23840000Y-156000000D02*
X23840000Y-156863600D01*
X23840000Y-156000000D02*
X21300000Y-158540000D01*
X68810800Y-153637797D02*
X68810800Y-153383797D01*
X68810800Y-153383797D02*
X68861600Y-153383797D01*
X68861600Y-153383797D02*
X68861600Y-153388878D01*
X68861600Y-153388878D02*
X73812059Y-153388878D01*
X73812059Y-153388878D02*
X73812059Y-153620019D01*
X68790481Y-158319022D02*
X68790481Y-158590800D01*
X68790481Y-158590800D02*
X68841281Y-158590800D01*
X68841281Y-158590800D02*
X68841281Y-158593341D01*
X68841281Y-158593341D02*
X73809519Y-158593341D01*
X73809519Y-158593341D02*
X73809519Y-158367281D01*
X68760000Y-156889000D02*
X68760000Y-155187200D01*
X73840000Y-155136400D02*
X73840000Y-156000000D01*
X73840000Y-156000000D02*
X73840000Y-156863600D01*
X73840000Y-156000000D02*
X71300000Y-158540000D01*
X93810800Y-153637797D02*
X93810800Y-153383797D01*
X93810800Y-153383797D02*
X93861600Y-153383797D01*
X93861600Y-153383797D02*
X93861600Y-153388878D01*
X93861600Y-153388878D02*
X98812059Y-153388878D01*
X98812059Y-153388878D02*
X98812059Y-153620019D01*
X93790481Y-158319022D02*
X93790481Y-158590800D01*
X93790481Y-158590800D02*
X93841281Y-158590800D01*
X93841281Y-158590800D02*
X93841281Y-158593341D01*
X93841281Y-158593341D02*
X98809519Y-158593341D01*
X98809519Y-158593341D02*
X98809519Y-158367281D01*
X93760000Y-156889000D02*
X93760000Y-155187200D01*
X98840000Y-155136400D02*
X98840000Y-156000000D01*
X98840000Y-156000000D02*
X98840000Y-156863600D01*
X98840000Y-156000000D02*
X96300000Y-158540000D01*
D12*
X54000000Y-52500000D02*
G75*
G03X54000000Y-52500000I-1500000J0D01*
G01*
X64000000Y-75000000D02*
G75*
G03X64000000Y-75000000I-1500000J0D01*
G01*
X76500000Y-62500000D02*
G75*
G03X76500000Y-62500000I-1500000J0D01*
G01*
X62300000Y-64900000D02*
X64700000Y-62500000D01*
X59700000Y-64900000D02*
X62300000Y-64900000D01*
X59700000Y-59900000D02*
X59700000Y-64900000D01*
X64700000Y-59900000D02*
X59700000Y-59900000D01*
X64700000Y-62500000D02*
X64700000Y-59900000D01*
D15*
X50000000Y-75000000D02*
X50000000Y-50000000D01*
X50000000Y-50000000D02*
X75000000Y-50000000D01*
X75000000Y-50000000D02*
X75000000Y-75000000D01*
X75000000Y-75000000D02*
X50000000Y-75000000D01*
D12*
X79000000Y-52500000D02*
G75*
G03X79000000Y-52500000I-1500000J0D01*
G01*
X89000000Y-75000000D02*
G75*
G03X89000000Y-75000000I-1500000J0D01*
G01*
X101500000Y-62500000D02*
G75*
G03X101500000Y-62500000I-1500000J0D01*
G01*
X87300000Y-64900000D02*
X89700000Y-62500000D01*
X84700000Y-64900000D02*
X87300000Y-64900000D01*
X84700000Y-59900000D02*
X84700000Y-64900000D01*
X89700000Y-59900000D02*
X84700000Y-59900000D01*
X89700000Y-62500000D02*
X89700000Y-59900000D01*
D15*
X75000000Y-75000000D02*
X75000000Y-50000000D01*
X75000000Y-50000000D02*
X100000000Y-50000000D01*
X100000000Y-50000000D02*
X100000000Y-75000000D01*
X100000000Y-75000000D02*
X75000000Y-75000000D01*
D12*
X4000000Y-77500000D02*
G75*
G03X4000000Y-77500000I-1500000J0D01*
G01*
X14000000Y-100000000D02*
G75*
G03X14000000Y-100000000I-1500000J0D01*
G01*
X26500000Y-87500000D02*
G75*
G03X26500000Y-87500000I-1500000J0D01*
G01*
X12300000Y-89900000D02*
X14700000Y-87500000D01*
X9700000Y-89900000D02*
X12300000Y-89900000D01*
X9700000Y-84900000D02*
X9700000Y-89900000D01*
X14700000Y-84900000D02*
X9700000Y-84900000D01*
X14700000Y-87500000D02*
X14700000Y-84900000D01*
D15*
X0Y-100000000D02*
X0Y-75000000D01*
X0Y-75000000D02*
X25000000Y-75000000D01*
X25000000Y-75000000D02*
X25000000Y-100000000D01*
X25000000Y-100000000D02*
X0Y-100000000D01*
D12*
X29000000Y-77500000D02*
G75*
G03X29000000Y-77500000I-1500000J0D01*
G01*
X39000000Y-100000000D02*
G75*
G03X39000000Y-100000000I-1500000J0D01*
G01*
X51500000Y-87500000D02*
G75*
G03X51500000Y-87500000I-1500000J0D01*
G01*
X37300000Y-89900000D02*
X39700000Y-87500000D01*
X34700000Y-89900000D02*
X37300000Y-89900000D01*
X34700000Y-84900000D02*
X34700000Y-89900000D01*
X39700000Y-84900000D02*
X34700000Y-84900000D01*
X39700000Y-87500000D02*
X39700000Y-84900000D01*
D15*
X25000000Y-100000000D02*
X25000000Y-75000000D01*
X25000000Y-75000000D02*
X50000000Y-75000000D01*
X50000000Y-75000000D02*
X50000000Y-100000000D01*
X50000000Y-100000000D02*
X25000000Y-100000000D01*
D12*
X54000000Y-77500000D02*
G75*
G03X54000000Y-77500000I-1500000J0D01*
G01*
X64000000Y-100000000D02*
G75*
G03X64000000Y-100000000I-1500000J0D01*
G01*
X76500000Y-87500000D02*
G75*
G03X76500000Y-87500000I-1500000J0D01*
G01*
X62300000Y-89900000D02*
X64700000Y-87500000D01*
X59700000Y-89900000D02*
X62300000Y-89900000D01*
X59700000Y-84900000D02*
X59700000Y-89900000D01*
X64700000Y-84900000D02*
X59700000Y-84900000D01*
X64700000Y-87500000D02*
X64700000Y-84900000D01*
D15*
X50000000Y-100000000D02*
X50000000Y-75000000D01*
X50000000Y-75000000D02*
X75000000Y-75000000D01*
X75000000Y-75000000D02*
X75000000Y-100000000D01*
X75000000Y-100000000D02*
X50000000Y-100000000D01*
D12*
X79000000Y-77500000D02*
G75*
G03X79000000Y-77500000I-1500000J0D01*
G01*
X89000000Y-100000000D02*
G75*
G03X89000000Y-100000000I-1500000J0D01*
G01*
X101500000Y-87500000D02*
G75*
G03X101500000Y-87500000I-1500000J0D01*
G01*
X87300000Y-89900000D02*
X89700000Y-87500000D01*
X84700000Y-89900000D02*
X87300000Y-89900000D01*
X84700000Y-84900000D02*
X84700000Y-89900000D01*
X89700000Y-84900000D02*
X84700000Y-84900000D01*
X89700000Y-87500000D02*
X89700000Y-84900000D01*
D15*
X75000000Y-100000000D02*
X75000000Y-75000000D01*
X75000000Y-75000000D02*
X100000000Y-75000000D01*
X100000000Y-75000000D02*
X100000000Y-100000000D01*
X100000000Y-100000000D02*
X75000000Y-100000000D01*
D12*
X4000000Y-102500000D02*
G75*
G03X4000000Y-102500000I-1500000J0D01*
G01*
X14000000Y-125000000D02*
G75*
G03X14000000Y-125000000I-1500000J0D01*
G01*
X26500000Y-112500000D02*
G75*
G03X26500000Y-112500000I-1500000J0D01*
G01*
X12300000Y-114900000D02*
X14700000Y-112500000D01*
X9700000Y-114900000D02*
X12300000Y-114900000D01*
X9700000Y-109900000D02*
X9700000Y-114900000D01*
X14700000Y-109900000D02*
X9700000Y-109900000D01*
X14700000Y-112500000D02*
X14700000Y-109900000D01*
D15*
X0Y-125000000D02*
X0Y-100000000D01*
X0Y-100000000D02*
X25000000Y-100000000D01*
X25000000Y-100000000D02*
X25000000Y-125000000D01*
X25000000Y-125000000D02*
X0Y-125000000D01*
D12*
X28977000Y-102500000D02*
G75*
G03X28977000Y-102500000I-1500000J0D01*
G01*
X38977000Y-125000000D02*
G75*
G03X38977000Y-125000000I-1500000J0D01*
G01*
X51477000Y-112500000D02*
G75*
G03X51477000Y-112500000I-1500000J0D01*
G01*
X37277000Y-114900000D02*
X39677000Y-112500000D01*
X34677000Y-114900000D02*
X37277000Y-114900000D01*
X34677000Y-109900000D02*
X34677000Y-114900000D01*
X39677000Y-109900000D02*
X34677000Y-109900000D01*
X39677000Y-112500000D02*
X39677000Y-109900000D01*
D15*
X24977000Y-125000000D02*
X24977000Y-100000000D01*
X24977000Y-100000000D02*
X49977000Y-100000000D01*
X49977000Y-100000000D02*
X49977000Y-125000000D01*
X49977000Y-125000000D02*
X24977000Y-125000000D01*
D12*
X54000000Y-102500000D02*
G75*
G03X54000000Y-102500000I-1500000J0D01*
G01*
X64000000Y-125000000D02*
G75*
G03X64000000Y-125000000I-1500000J0D01*
G01*
X76500000Y-112500000D02*
G75*
G03X76500000Y-112500000I-1500000J0D01*
G01*
X62300000Y-114900000D02*
X64700000Y-112500000D01*
X59700000Y-114900000D02*
X62300000Y-114900000D01*
X59700000Y-109900000D02*
X59700000Y-114900000D01*
X64700000Y-109900000D02*
X59700000Y-109900000D01*
X64700000Y-112500000D02*
X64700000Y-109900000D01*
D15*
X50000000Y-125000000D02*
X50000000Y-100000000D01*
X50000000Y-100000000D02*
X75000000Y-100000000D01*
X75000000Y-100000000D02*
X75000000Y-125000000D01*
X75000000Y-125000000D02*
X50000000Y-125000000D01*
D12*
X79000000Y-102500000D02*
G75*
G03X79000000Y-102500000I-1500000J0D01*
G01*
X89000000Y-125000000D02*
G75*
G03X89000000Y-125000000I-1500000J0D01*
G01*
X101500000Y-112500000D02*
G75*
G03X101500000Y-112500000I-1500000J0D01*
G01*
X87300000Y-114900000D02*
X89700000Y-112500000D01*
X84700000Y-114900000D02*
X87300000Y-114900000D01*
X84700000Y-109900000D02*
X84700000Y-114900000D01*
X89700000Y-109900000D02*
X84700000Y-109900000D01*
X89700000Y-112500000D02*
X89700000Y-109900000D01*
D15*
X75000000Y-125000000D02*
X75000000Y-100000000D01*
X75000000Y-100000000D02*
X100000000Y-100000000D01*
X100000000Y-100000000D02*
X100000000Y-125000000D01*
X100000000Y-125000000D02*
X75000000Y-125000000D01*
D12*
X4000000Y-127500000D02*
G75*
G03X4000000Y-127500000I-1500000J0D01*
G01*
X14000000Y-150000000D02*
G75*
G03X14000000Y-150000000I-1500000J0D01*
G01*
X26500000Y-137500000D02*
G75*
G03X26500000Y-137500000I-1500000J0D01*
G01*
X12300000Y-139900000D02*
X14700000Y-137500000D01*
X9700000Y-139900000D02*
X12300000Y-139900000D01*
X9700000Y-134900000D02*
X9700000Y-139900000D01*
X14700000Y-134900000D02*
X9700000Y-134900000D01*
X14700000Y-137500000D02*
X14700000Y-134900000D01*
D15*
X0Y-150000000D02*
X0Y-125000000D01*
X0Y-125000000D02*
X25000000Y-125000000D01*
X25000000Y-125000000D02*
X25000000Y-150000000D01*
X25000000Y-150000000D02*
X0Y-150000000D01*
D12*
X29000000Y-127500000D02*
G75*
G03X29000000Y-127500000I-1500000J0D01*
G01*
X39000000Y-150000000D02*
G75*
G03X39000000Y-150000000I-1500000J0D01*
G01*
X51500000Y-137500000D02*
G75*
G03X51500000Y-137500000I-1500000J0D01*
G01*
X37300000Y-139900000D02*
X39700000Y-137500000D01*
X34700000Y-139900000D02*
X37300000Y-139900000D01*
X34700000Y-134900000D02*
X34700000Y-139900000D01*
X39700000Y-134900000D02*
X34700000Y-134900000D01*
X39700000Y-137500000D02*
X39700000Y-134900000D01*
D15*
X25000000Y-150000000D02*
X25000000Y-125000000D01*
X25000000Y-125000000D02*
X50000000Y-125000000D01*
X50000000Y-125000000D02*
X50000000Y-150000000D01*
X50000000Y-150000000D02*
X25000000Y-150000000D01*
D12*
X54000000Y-127500000D02*
G75*
G03X54000000Y-127500000I-1500000J0D01*
G01*
X64000000Y-150000000D02*
G75*
G03X64000000Y-150000000I-1500000J0D01*
G01*
X76500000Y-137500000D02*
G75*
G03X76500000Y-137500000I-1500000J0D01*
G01*
X62300000Y-139900000D02*
X64700000Y-137500000D01*
X59700000Y-139900000D02*
X62300000Y-139900000D01*
X59700000Y-134900000D02*
X59700000Y-139900000D01*
X64700000Y-134900000D02*
X59700000Y-134900000D01*
X64700000Y-137500000D02*
X64700000Y-134900000D01*
D15*
X50000000Y-150000000D02*
X50000000Y-125000000D01*
X50000000Y-125000000D02*
X75000000Y-125000000D01*
X75000000Y-125000000D02*
X75000000Y-150000000D01*
X75000000Y-150000000D02*
X50000000Y-150000000D01*
D12*
X79000000Y-127500000D02*
G75*
G03X79000000Y-127500000I-1500000J0D01*
G01*
X89000000Y-150000000D02*
G75*
G03X89000000Y-150000000I-1500000J0D01*
G01*
X101500000Y-137500000D02*
G75*
G03X101500000Y-137500000I-1500000J0D01*
G01*
X87300000Y-139900000D02*
X89700000Y-137500000D01*
X84700000Y-139900000D02*
X87300000Y-139900000D01*
X84700000Y-134900000D02*
X84700000Y-139900000D01*
X89700000Y-134900000D02*
X84700000Y-134900000D01*
X89700000Y-137500000D02*
X89700000Y-134900000D01*
D15*
X75000000Y-150000000D02*
X75000000Y-125000000D01*
X75000000Y-125000000D02*
X100000000Y-125000000D01*
X100000000Y-125000000D02*
X100000000Y-150000000D01*
X100000000Y-150000000D02*
X75000000Y-150000000D01*
D13*
X3730000Y-36741000D02*
X3730000Y-41059000D01*
X3730000Y-41059000D02*
X6270000Y-41059000D01*
X6270000Y-36741000D02*
X6270000Y-41059000D01*
X3730000Y-36741000D02*
X6270000Y-36741000D01*
D14*
X6348740Y-36756240D02*
X6348740Y-41043760D01*
X3651260Y-41043760D02*
X3651260Y-36756240D01*
X6297940Y-41048840D02*
X5998220Y-41048840D01*
X3702060Y-41048840D02*
X4001780Y-41048840D01*
X3702060Y-36751160D02*
X4001780Y-36751160D01*
X6297940Y-36751160D02*
X5998220Y-36751160D01*
X5762000Y-38519000D02*
X5000000Y-39408000D01*
X5000000Y-39408000D02*
X4238000Y-38519000D01*
X4238000Y-38519000D02*
X5762000Y-38519000D01*
D13*
X28730000Y-36841000D02*
X28730000Y-41159000D01*
X28730000Y-41159000D02*
X31270000Y-41159000D01*
X31270000Y-36841000D02*
X31270000Y-41159000D01*
X28730000Y-36841000D02*
X31270000Y-36841000D01*
D14*
X31348740Y-36856240D02*
X31348740Y-41143760D01*
X28651260Y-41143760D02*
X28651260Y-36856240D01*
X31297940Y-41148840D02*
X30998220Y-41148840D01*
X28702060Y-41148840D02*
X29001780Y-41148840D01*
X28702060Y-36851160D02*
X29001780Y-36851160D01*
X31297940Y-36851160D02*
X30998220Y-36851160D01*
X30762000Y-38619000D02*
X30000000Y-39508000D01*
X30000000Y-39508000D02*
X29238000Y-38619000D01*
X29238000Y-38619000D02*
X30762000Y-38619000D01*
D13*
X53730000Y-36630600D02*
X53730000Y-40948600D01*
X53730000Y-40948600D02*
X56270000Y-40948600D01*
X56270000Y-36630600D02*
X56270000Y-40948600D01*
X53730000Y-36630600D02*
X56270000Y-36630600D01*
D14*
X56348740Y-36645840D02*
X56348740Y-40933360D01*
X53651260Y-40933360D02*
X53651260Y-36645840D01*
X56297940Y-40938440D02*
X55998220Y-40938440D01*
X53702060Y-40938440D02*
X54001780Y-40938440D01*
X53702060Y-36640760D02*
X54001780Y-36640760D01*
X56297940Y-36640760D02*
X55998220Y-36640760D01*
X55762000Y-38408600D02*
X55000000Y-39297600D01*
X55000000Y-39297600D02*
X54238000Y-38408600D01*
X54238000Y-38408600D02*
X55762000Y-38408600D01*
D13*
X78730000Y-36841000D02*
X78730000Y-41159000D01*
X78730000Y-41159000D02*
X81270000Y-41159000D01*
X81270000Y-36841000D02*
X81270000Y-41159000D01*
X78730000Y-36841000D02*
X81270000Y-36841000D01*
D14*
X81348740Y-36856240D02*
X81348740Y-41143760D01*
X78651260Y-41143760D02*
X78651260Y-36856240D01*
X81297940Y-41148840D02*
X80998220Y-41148840D01*
X78702060Y-41148840D02*
X79001780Y-41148840D01*
X78702060Y-36851160D02*
X79001780Y-36851160D01*
X81297940Y-36851160D02*
X80998220Y-36851160D01*
X80762000Y-38619000D02*
X80000000Y-39508000D01*
X80000000Y-39508000D02*
X79238000Y-38619000D01*
X79238000Y-38619000D02*
X80762000Y-38619000D01*
D13*
X80341000Y-33970000D02*
X84659000Y-33970000D01*
X84659000Y-33970000D02*
X84659000Y-31430000D01*
X80341000Y-31430000D02*
X84659000Y-31430000D01*
X80341000Y-33970000D02*
X80341000Y-31430000D01*
D14*
X80356240Y-31351260D02*
X84643760Y-31351260D01*
X84643760Y-34048740D02*
X80356240Y-34048740D01*
X84648840Y-31402060D02*
X84648840Y-31701780D01*
X84648840Y-33997940D02*
X84648840Y-33698220D01*
X80351160Y-33997940D02*
X80351160Y-33698220D01*
X80351160Y-31402060D02*
X80351160Y-31701780D01*
X82119000Y-31938000D02*
X83008000Y-32700000D01*
X83008000Y-32700000D02*
X82119000Y-33462000D01*
X82119000Y-33462000D02*
X82119000Y-31938000D01*
D13*
X3730000Y-43841000D02*
X3730000Y-48159000D01*
X3730000Y-48159000D02*
X6270000Y-48159000D01*
X6270000Y-43841000D02*
X6270000Y-48159000D01*
X3730000Y-43841000D02*
X6270000Y-43841000D01*
D14*
X6348740Y-43856240D02*
X6348740Y-48143760D01*
X3651260Y-48143760D02*
X3651260Y-43856240D01*
X6297940Y-48148840D02*
X5998220Y-48148840D01*
X3702060Y-48148840D02*
X4001780Y-48148840D01*
X3702060Y-43851160D02*
X4001780Y-43851160D01*
X6297940Y-43851160D02*
X5998220Y-43851160D01*
X5762000Y-45619000D02*
X5000000Y-46508000D01*
X5000000Y-46508000D02*
X4238000Y-45619000D01*
X4238000Y-45619000D02*
X5762000Y-45619000D01*
D13*
X28730000Y-43841000D02*
X28730000Y-48159000D01*
X28730000Y-48159000D02*
X31270000Y-48159000D01*
X31270000Y-43841000D02*
X31270000Y-48159000D01*
X28730000Y-43841000D02*
X31270000Y-43841000D01*
D14*
X31348740Y-43856240D02*
X31348740Y-48143760D01*
X28651260Y-48143760D02*
X28651260Y-43856240D01*
X31297940Y-48148840D02*
X30998220Y-48148840D01*
X28702060Y-48148840D02*
X29001780Y-48148840D01*
X28702060Y-43851160D02*
X29001780Y-43851160D01*
X31297940Y-43851160D02*
X30998220Y-43851160D01*
X30762000Y-45619000D02*
X30000000Y-46508000D01*
X30000000Y-46508000D02*
X29238000Y-45619000D01*
X29238000Y-45619000D02*
X30762000Y-45619000D01*
D13*
X53730000Y-43841000D02*
X53730000Y-48159000D01*
X53730000Y-48159000D02*
X56270000Y-48159000D01*
X56270000Y-43841000D02*
X56270000Y-48159000D01*
X53730000Y-43841000D02*
X56270000Y-43841000D01*
D14*
X56348740Y-43856240D02*
X56348740Y-48143760D01*
X53651260Y-48143760D02*
X53651260Y-43856240D01*
X56297940Y-48148840D02*
X55998220Y-48148840D01*
X53702060Y-48148840D02*
X54001780Y-48148840D01*
X53702060Y-43851160D02*
X54001780Y-43851160D01*
X56297940Y-43851160D02*
X55998220Y-43851160D01*
X55762000Y-45619000D02*
X55000000Y-46508000D01*
X55000000Y-46508000D02*
X54238000Y-45619000D01*
X54238000Y-45619000D02*
X55762000Y-45619000D01*
D13*
X78730000Y-43841000D02*
X78730000Y-48159000D01*
X78730000Y-48159000D02*
X81270000Y-48159000D01*
X81270000Y-43841000D02*
X81270000Y-48159000D01*
X78730000Y-43841000D02*
X81270000Y-43841000D01*
D14*
X81348740Y-43856240D02*
X81348740Y-48143760D01*
X78651260Y-48143760D02*
X78651260Y-43856240D01*
X81297940Y-48148840D02*
X80998220Y-48148840D01*
X78702060Y-48148840D02*
X79001780Y-48148840D01*
X78702060Y-43851160D02*
X79001780Y-43851160D01*
X81297940Y-43851160D02*
X80998220Y-43851160D01*
X80762000Y-45619000D02*
X80000000Y-46508000D01*
X80000000Y-46508000D02*
X79238000Y-45619000D01*
X79238000Y-45619000D02*
X80762000Y-45619000D01*
D13*
X5270000Y-158159000D02*
X5270000Y-153841000D01*
X5270000Y-153841000D02*
X2730000Y-153841000D01*
X2730000Y-158159000D02*
X2730000Y-153841000D01*
X5270000Y-158159000D02*
X2730000Y-158159000D01*
D14*
X2651260Y-158143760D02*
X2651260Y-153856240D01*
X5348740Y-153856240D02*
X5348740Y-158143760D01*
X2702060Y-153851160D02*
X3001780Y-153851160D01*
X5297940Y-153851160D02*
X4998220Y-153851160D01*
X5297940Y-158148840D02*
X4998220Y-158148840D01*
X2702060Y-158148840D02*
X3001780Y-158148840D01*
X3238000Y-156381000D02*
X4000000Y-155492000D01*
X4000000Y-155492000D02*
X4762000Y-156381000D01*
X4762000Y-156381000D02*
X3238000Y-156381000D01*
D13*
X30270000Y-158159000D02*
X30270000Y-153841000D01*
X30270000Y-153841000D02*
X27730000Y-153841000D01*
X27730000Y-158159000D02*
X27730000Y-153841000D01*
X30270000Y-158159000D02*
X27730000Y-158159000D01*
D14*
X27651260Y-158143760D02*
X27651260Y-153856240D01*
X30348740Y-153856240D02*
X30348740Y-158143760D01*
X27702060Y-153851160D02*
X28001780Y-153851160D01*
X30297940Y-153851160D02*
X29998220Y-153851160D01*
X30297940Y-158148840D02*
X29998220Y-158148840D01*
X27702060Y-158148840D02*
X28001780Y-158148840D01*
X28238000Y-156381000D02*
X29000000Y-155492000D01*
X29000000Y-155492000D02*
X29762000Y-156381000D01*
X29762000Y-156381000D02*
X28238000Y-156381000D01*
D13*
X55270000Y-158159000D02*
X55270000Y-153841000D01*
X55270000Y-153841000D02*
X52730000Y-153841000D01*
X52730000Y-158159000D02*
X52730000Y-153841000D01*
X55270000Y-158159000D02*
X52730000Y-158159000D01*
D14*
X52651260Y-158143760D02*
X52651260Y-153856240D01*
X55348740Y-153856240D02*
X55348740Y-158143760D01*
X52702060Y-153851160D02*
X53001780Y-153851160D01*
X55297940Y-153851160D02*
X54998220Y-153851160D01*
X55297940Y-158148840D02*
X54998220Y-158148840D01*
X52702060Y-158148840D02*
X53001780Y-158148840D01*
X53238000Y-156381000D02*
X54000000Y-155492000D01*
X54000000Y-155492000D02*
X54762000Y-156381000D01*
X54762000Y-156381000D02*
X53238000Y-156381000D01*
D13*
X80270000Y-158159000D02*
X80270000Y-153841000D01*
X80270000Y-153841000D02*
X77730000Y-153841000D01*
X77730000Y-158159000D02*
X77730000Y-153841000D01*
X80270000Y-158159000D02*
X77730000Y-158159000D01*
D14*
X77651260Y-158143760D02*
X77651260Y-153856240D01*
X80348740Y-153856240D02*
X80348740Y-158143760D01*
X77702060Y-153851160D02*
X78001780Y-153851160D01*
X80297940Y-153851160D02*
X79998220Y-153851160D01*
X80297940Y-158148840D02*
X79998220Y-158148840D01*
X77702060Y-158148840D02*
X78001780Y-158148840D01*
X78238000Y-156381000D02*
X79000000Y-155492000D01*
X79000000Y-155492000D02*
X79762000Y-156381000D01*
X79762000Y-156381000D02*
X78238000Y-156381000D01*
D13*
X89341000Y-34270000D02*
X93659000Y-34270000D01*
X93659000Y-34270000D02*
X93659000Y-31730000D01*
X89341000Y-31730000D02*
X93659000Y-31730000D01*
X89341000Y-34270000D02*
X89341000Y-31730000D01*
D14*
X89356240Y-31651260D02*
X93643760Y-31651260D01*
X93643760Y-34348740D02*
X89356240Y-34348740D01*
X93648840Y-31702060D02*
X93648840Y-32001780D01*
X93648840Y-34297940D02*
X93648840Y-33998220D01*
X89351160Y-34297940D02*
X89351160Y-33998220D01*
X89351160Y-31702060D02*
X89351160Y-32001780D01*
X91119000Y-32238000D02*
X92008000Y-33000000D01*
X92008000Y-33000000D02*
X91119000Y-33762000D01*
X91119000Y-33762000D02*
X91119000Y-32238000D01*
X1365000Y-44397000D02*
X1365000Y-41603000D01*
X1365000Y-41603000D02*
X2635000Y-41603000D01*
X2635000Y-41603000D02*
X2635000Y-44397000D01*
X2635000Y-44397000D02*
X1365000Y-44397000D01*
D12*
X39000000Y-39000000D02*
G75*
G03X39000000Y-39000000I-2000000J0D01*
G01*
D13*
X33952000Y-42048000D02*
X40048000Y-42048000D01*
X40048000Y-42048000D02*
X40048000Y-35952000D01*
X33952000Y-35952000D02*
X40048000Y-35952000D01*
X33952000Y-42048000D02*
X33952000Y-35952000D01*
D14*
X33952000Y-35952000D02*
X40048000Y-35952000D01*
X40048000Y-35952000D02*
X40048000Y-42048000D01*
X40048000Y-42048000D02*
X33952000Y-42048000D01*
X33952000Y-42048000D02*
X33952000Y-35952000D01*
D12*
X64000000Y-39000000D02*
G75*
G03X64000000Y-39000000I-2000000J0D01*
G01*
D13*
X58952000Y-42048000D02*
X65048000Y-42048000D01*
X65048000Y-42048000D02*
X65048000Y-35952000D01*
X58952000Y-35952000D02*
X65048000Y-35952000D01*
X58952000Y-42048000D02*
X58952000Y-35952000D01*
D14*
X58952000Y-35952000D02*
X65048000Y-35952000D01*
X65048000Y-35952000D02*
X65048000Y-42048000D01*
X65048000Y-42048000D02*
X58952000Y-42048000D01*
X58952000Y-42048000D02*
X58952000Y-35952000D01*
D12*
X89000000Y-39000000D02*
G75*
G03X89000000Y-39000000I-2000000J0D01*
G01*
D13*
X83952000Y-42048000D02*
X90048000Y-42048000D01*
X90048000Y-42048000D02*
X90048000Y-35952000D01*
X83952000Y-35952000D02*
X90048000Y-35952000D01*
X83952000Y-42048000D02*
X83952000Y-35952000D01*
D14*
X83952000Y-35952000D02*
X90048000Y-35952000D01*
X90048000Y-35952000D02*
X90048000Y-42048000D01*
X90048000Y-42048000D02*
X83952000Y-42048000D01*
X83952000Y-42048000D02*
X83952000Y-35952000D01*
D12*
X14000000Y-46000000D02*
G75*
G03X14000000Y-46000000I-2000000J0D01*
G01*
D13*
X8952000Y-49048000D02*
X15048000Y-49048000D01*
X15048000Y-49048000D02*
X15048000Y-42952000D01*
X8952000Y-42952000D02*
X15048000Y-42952000D01*
X8952000Y-49048000D02*
X8952000Y-42952000D01*
D14*
X8952000Y-42952000D02*
X15048000Y-42952000D01*
X15048000Y-42952000D02*
X15048000Y-49048000D01*
X15048000Y-49048000D02*
X8952000Y-49048000D01*
X8952000Y-49048000D02*
X8952000Y-42952000D01*
D12*
X39000000Y-46000000D02*
G75*
G03X39000000Y-46000000I-2000000J0D01*
G01*
D13*
X33952000Y-49048000D02*
X40048000Y-49048000D01*
X40048000Y-49048000D02*
X40048000Y-42952000D01*
X33952000Y-42952000D02*
X40048000Y-42952000D01*
X33952000Y-49048000D02*
X33952000Y-42952000D01*
D14*
X33952000Y-42952000D02*
X40048000Y-42952000D01*
X40048000Y-42952000D02*
X40048000Y-49048000D01*
X40048000Y-49048000D02*
X33952000Y-49048000D01*
X33952000Y-49048000D02*
X33952000Y-42952000D01*
D12*
X64000000Y-46000000D02*
G75*
G03X64000000Y-46000000I-2000000J0D01*
G01*
D13*
X58952000Y-49048000D02*
X65048000Y-49048000D01*
X65048000Y-49048000D02*
X65048000Y-42952000D01*
X58952000Y-42952000D02*
X65048000Y-42952000D01*
X58952000Y-49048000D02*
X58952000Y-42952000D01*
D14*
X58952000Y-42952000D02*
X65048000Y-42952000D01*
X65048000Y-42952000D02*
X65048000Y-49048000D01*
X65048000Y-49048000D02*
X58952000Y-49048000D01*
X58952000Y-49048000D02*
X58952000Y-42952000D01*
D12*
X89000000Y-46000000D02*
G75*
G03X89000000Y-46000000I-2000000J0D01*
G01*
D13*
X83952000Y-49048000D02*
X90048000Y-49048000D01*
X90048000Y-49048000D02*
X90048000Y-42952000D01*
X83952000Y-42952000D02*
X90048000Y-42952000D01*
X83952000Y-49048000D02*
X83952000Y-42952000D01*
D14*
X83952000Y-42952000D02*
X90048000Y-42952000D01*
X90048000Y-42952000D02*
X90048000Y-49048000D01*
X90048000Y-49048000D02*
X83952000Y-49048000D01*
X83952000Y-49048000D02*
X83952000Y-42952000D01*
D12*
X14000000Y-156000000D02*
G75*
G03X14000000Y-156000000I-2000000J0D01*
G01*
D13*
X8952000Y-159048000D02*
X15048000Y-159048000D01*
X15048000Y-159048000D02*
X15048000Y-152952000D01*
X8952000Y-152952000D02*
X15048000Y-152952000D01*
X8952000Y-159048000D02*
X8952000Y-152952000D01*
D14*
X8952000Y-152952000D02*
X15048000Y-152952000D01*
X15048000Y-152952000D02*
X15048000Y-159048000D01*
X15048000Y-159048000D02*
X8952000Y-159048000D01*
X8952000Y-159048000D02*
X8952000Y-152952000D01*
D12*
X39000000Y-156000000D02*
G75*
G03X39000000Y-156000000I-2000000J0D01*
G01*
D13*
X33952000Y-159048000D02*
X40048000Y-159048000D01*
X40048000Y-159048000D02*
X40048000Y-152952000D01*
X33952000Y-152952000D02*
X40048000Y-152952000D01*
X33952000Y-159048000D02*
X33952000Y-152952000D01*
D14*
X33952000Y-152952000D02*
X40048000Y-152952000D01*
X40048000Y-152952000D02*
X40048000Y-159048000D01*
X40048000Y-159048000D02*
X33952000Y-159048000D01*
X33952000Y-159048000D02*
X33952000Y-152952000D01*
D12*
X64000000Y-156000000D02*
G75*
G03X64000000Y-156000000I-2000000J0D01*
G01*
D13*
X58952000Y-159048000D02*
X65048000Y-159048000D01*
X65048000Y-159048000D02*
X65048000Y-152952000D01*
X58952000Y-152952000D02*
X65048000Y-152952000D01*
X58952000Y-159048000D02*
X58952000Y-152952000D01*
D14*
X58952000Y-152952000D02*
X65048000Y-152952000D01*
X65048000Y-152952000D02*
X65048000Y-159048000D01*
X65048000Y-159048000D02*
X58952000Y-159048000D01*
X58952000Y-159048000D02*
X58952000Y-152952000D01*
D12*
X89000000Y-156000000D02*
G75*
G03X89000000Y-156000000I-2000000J0D01*
G01*
D13*
X83952000Y-159048000D02*
X90048000Y-159048000D01*
X90048000Y-159048000D02*
X90048000Y-152952000D01*
X83952000Y-152952000D02*
X90048000Y-152952000D01*
X83952000Y-159048000D02*
X83952000Y-152952000D01*
D14*
X83952000Y-152952000D02*
X90048000Y-152952000D01*
X90048000Y-152952000D02*
X90048000Y-159048000D01*
X90048000Y-159048000D02*
X83952000Y-159048000D01*
X83952000Y-159048000D02*
X83952000Y-152952000D01*
D16*
X24163262Y-19746929D02*
X25082500Y-19746929D01*
X24622881Y-20206548D02*
X24622881Y-19287310D01*
X26231548Y-19000048D02*
X25657024Y-19000048D01*
X25599572Y-19574571D01*
X25657024Y-19517119D01*
X25771929Y-19459667D01*
X26059191Y-19459667D01*
X26174095Y-19517119D01*
X26231548Y-19574571D01*
X26289000Y-19689476D01*
X26289000Y-19976738D01*
X26231548Y-20091643D01*
X26174095Y-20149095D01*
X26059191Y-20206548D01*
X25771929Y-20206548D01*
X25657024Y-20149095D01*
X25599572Y-20091643D01*
X26633715Y-19000048D02*
X27035881Y-20206548D01*
X27438048Y-19000048D01*
D17*
X44160886Y-158788838D02*
X44390695Y-159754038D01*
X44574543Y-159064610D01*
X44758390Y-159754038D01*
X44988200Y-158788838D01*
X45309934Y-159708076D02*
X45447819Y-159754038D01*
X45677629Y-159754038D01*
X45769553Y-159708076D01*
X45815515Y-159662114D01*
X45861476Y-159570190D01*
X45861476Y-159478267D01*
X45815515Y-159386343D01*
X45769553Y-159340381D01*
X45677629Y-159294419D01*
X45493781Y-159248457D01*
X45401857Y-159202495D01*
X45355896Y-159156533D01*
X45309934Y-159064610D01*
X45309934Y-158972686D01*
X45355896Y-158880762D01*
X45401857Y-158834800D01*
X45493781Y-158788838D01*
X45723591Y-158788838D01*
X45861476Y-158834800D01*
X46596867Y-159248457D02*
X46734753Y-159294419D01*
X46780714Y-159340381D01*
X46826676Y-159432305D01*
X46826676Y-159570190D01*
X46780714Y-159662114D01*
X46734753Y-159708076D01*
X46642829Y-159754038D01*
X46275134Y-159754038D01*
X46275134Y-158788838D01*
X46596867Y-158788838D01*
X46688791Y-158834800D01*
X46734753Y-158880762D01*
X46780714Y-158972686D01*
X46780714Y-159064610D01*
X46734753Y-159156533D01*
X46688791Y-159202495D01*
X46596867Y-159248457D01*
X46275134Y-159248457D01*
X47194372Y-158880762D02*
X47240334Y-158834800D01*
X47332257Y-158788838D01*
X47562067Y-158788838D01*
X47653991Y-158834800D01*
X47699953Y-158880762D01*
X47745914Y-158972686D01*
X47745914Y-159064610D01*
X47699953Y-159202495D01*
X47148410Y-159754038D01*
X47745914Y-159754038D01*
X48573229Y-158788838D02*
X48389381Y-158788838D01*
X48297457Y-158834800D01*
X48251495Y-158880762D01*
X48159572Y-159018648D01*
X48113610Y-159202495D01*
X48113610Y-159570190D01*
X48159572Y-159662114D01*
X48205533Y-159708076D01*
X48297457Y-159754038D01*
X48481305Y-159754038D01*
X48573229Y-159708076D01*
X48619191Y-159662114D01*
X48665152Y-159570190D01*
X48665152Y-159340381D01*
X48619191Y-159248457D01*
X48573229Y-159202495D01*
X48481305Y-159156533D01*
X48297457Y-159156533D01*
X48205533Y-159202495D01*
X48159572Y-159248457D01*
X48113610Y-159340381D01*
D18*
X44705731Y-159993303D02*
X44843617Y-160572423D01*
X44953926Y-160158766D01*
X45064234Y-160572423D01*
X45202120Y-159993303D01*
X45395160Y-160544846D02*
X45477891Y-160572423D01*
X45615777Y-160572423D01*
X45670931Y-160544846D01*
X45698508Y-160517269D01*
X45726085Y-160462114D01*
X45726085Y-160406960D01*
X45698508Y-160351806D01*
X45670931Y-160324229D01*
X45615777Y-160296651D01*
X45505468Y-160269074D01*
X45450314Y-160241497D01*
X45422737Y-160213920D01*
X45395160Y-160158766D01*
X45395160Y-160103611D01*
X45422737Y-160048457D01*
X45450314Y-160020880D01*
X45505468Y-159993303D01*
X45643354Y-159993303D01*
X45726085Y-160020880D01*
X45946703Y-160048457D02*
X45974280Y-160020880D01*
X46029434Y-159993303D01*
X46167320Y-159993303D01*
X46222474Y-160020880D01*
X46250051Y-160048457D01*
X46277628Y-160103611D01*
X46277628Y-160158766D01*
X46250051Y-160241497D01*
X45919125Y-160572423D01*
X46277628Y-160572423D01*
X46608554Y-160241497D02*
X46553400Y-160213920D01*
X46525823Y-160186343D01*
X46498246Y-160131189D01*
X46498246Y-160103611D01*
X46525823Y-160048457D01*
X46553400Y-160020880D01*
X46608554Y-159993303D01*
X46718863Y-159993303D01*
X46774017Y-160020880D01*
X46801594Y-160048457D01*
X46829171Y-160103611D01*
X46829171Y-160131189D01*
X46801594Y-160186343D01*
X46774017Y-160213920D01*
X46718863Y-160241497D01*
X46608554Y-160241497D01*
X46553400Y-160269074D01*
X46525823Y-160296651D01*
X46498246Y-160351806D01*
X46498246Y-160462114D01*
X46525823Y-160517269D01*
X46553400Y-160544846D01*
X46608554Y-160572423D01*
X46718863Y-160572423D01*
X46774017Y-160544846D01*
X46801594Y-160517269D01*
X46829171Y-160462114D01*
X46829171Y-160351806D01*
X46801594Y-160296651D01*
X46774017Y-160269074D01*
X46718863Y-160241497D01*
X47380714Y-160572423D02*
X47049789Y-160572423D01*
X47215251Y-160572423D02*
X47215251Y-159993303D01*
X47160097Y-160076034D01*
X47104943Y-160131189D01*
X47049789Y-160158766D01*
X47601332Y-160048457D02*
X47628909Y-160020880D01*
X47684063Y-159993303D01*
X47821949Y-159993303D01*
X47877103Y-160020880D01*
X47904680Y-160048457D01*
X47932257Y-160103611D01*
X47932257Y-160158766D01*
X47904680Y-160241497D01*
X47573754Y-160572423D01*
X47932257Y-160572423D01*
D16*
X10497166Y-35742873D02*
X10624166Y-35785207D01*
X10835833Y-35785207D01*
X10920500Y-35742873D01*
X10962833Y-35700540D01*
X11005166Y-35615873D01*
X11005166Y-35531207D01*
X10962833Y-35446540D01*
X10920500Y-35404207D01*
X10835833Y-35361873D01*
X10666500Y-35319540D01*
X10581833Y-35277207D01*
X10539500Y-35234873D01*
X10497166Y-35150207D01*
X10497166Y-35065540D01*
X10539500Y-34980873D01*
X10581833Y-34938540D01*
X10666500Y-34896207D01*
X10878166Y-34896207D01*
X11005166Y-34938540D01*
X11301500Y-34896207D02*
X11513167Y-35785207D01*
X11682500Y-35150207D01*
X11851833Y-35785207D01*
X12063500Y-34896207D01*
X12317500Y-34896207D02*
X12867833Y-34896207D01*
X12571500Y-35234873D01*
X12698500Y-35234873D01*
X12783167Y-35277207D01*
X12825500Y-35319540D01*
X12867833Y-35404207D01*
X12867833Y-35615873D01*
X12825500Y-35700540D01*
X12783167Y-35742873D01*
X12698500Y-35785207D01*
X12444500Y-35785207D01*
X12359833Y-35742873D01*
X12317500Y-35700540D01*
X9100167Y-43359833D02*
X9227167Y-43402167D01*
X9438834Y-43402167D01*
X9523501Y-43359833D01*
X9565834Y-43317500D01*
X9608167Y-43232833D01*
X9608167Y-43148167D01*
X9565834Y-43063500D01*
X9523501Y-43021167D01*
X9438834Y-42978833D01*
X9269501Y-42936500D01*
X9184834Y-42894167D01*
X9142501Y-42851833D01*
X9100167Y-42767167D01*
X9100167Y-42682500D01*
X9142501Y-42597833D01*
X9184834Y-42555500D01*
X9269501Y-42513167D01*
X9481167Y-42513167D01*
X9608167Y-42555500D01*
X9904501Y-42513167D02*
X10116168Y-43402167D01*
X10285501Y-42767167D01*
X10454834Y-43402167D01*
X10666501Y-42513167D01*
X10793501Y-43486833D02*
X11470834Y-43486833D01*
X11682501Y-43402167D02*
X11682501Y-42513167D01*
X12021167Y-42513167D01*
X12105834Y-42555500D01*
X12148167Y-42597833D01*
X12190501Y-42682500D01*
X12190501Y-42809500D01*
X12148167Y-42894167D01*
X12105834Y-42936500D01*
X12021167Y-42978833D01*
X11682501Y-42978833D01*
X12571501Y-42513167D02*
X12571501Y-43232833D01*
X12613834Y-43317500D01*
X12656167Y-43359833D01*
X12740834Y-43402167D01*
X12910167Y-43402167D01*
X12994834Y-43359833D01*
X13037167Y-43317500D01*
X13079501Y-43232833D01*
X13079501Y-42513167D01*
X13460500Y-43359833D02*
X13587500Y-43402167D01*
X13799167Y-43402167D01*
X13883834Y-43359833D01*
X13926167Y-43317500D01*
X13968500Y-43232833D01*
X13968500Y-43148167D01*
X13926167Y-43063500D01*
X13883834Y-43021167D01*
X13799167Y-42978833D01*
X13629834Y-42936500D01*
X13545167Y-42894167D01*
X13502834Y-42851833D01*
X13460500Y-42767167D01*
X13460500Y-42682500D01*
X13502834Y-42597833D01*
X13545167Y-42555500D01*
X13629834Y-42513167D01*
X13841500Y-42513167D01*
X13968500Y-42555500D01*
X14349501Y-43402167D02*
X14349501Y-42513167D01*
X14349501Y-42936500D02*
X14857501Y-42936500D01*
X14857501Y-43402167D02*
X14857501Y-42513167D01*
D12*
X1665429Y-65366572D02*
X3189429Y-65003715D01*
X2100857Y-64713429D01*
X3189429Y-64423143D01*
X1665429Y-64060286D01*
X3116857Y-63552286D02*
X3189429Y-63334572D01*
X3189429Y-62971715D01*
X3116857Y-62826572D01*
X3044286Y-62754001D01*
X2899143Y-62681429D01*
X2754000Y-62681429D01*
X2608857Y-62754001D01*
X2536286Y-62826572D01*
X2463714Y-62971715D01*
X2391143Y-63262001D01*
X2318571Y-63407143D01*
X2246000Y-63479715D01*
X2100857Y-63552286D01*
X1955714Y-63552286D01*
X1810571Y-63479715D01*
X1738000Y-63407143D01*
X1665429Y-63262001D01*
X1665429Y-62899143D01*
X1738000Y-62681429D01*
X2391143Y-61520286D02*
X2463714Y-61302572D01*
X2536286Y-61230000D01*
X2681429Y-61157429D01*
X2899143Y-61157429D01*
X3044286Y-61230000D01*
X3116857Y-61302572D01*
X3189429Y-61447714D01*
X3189429Y-62028286D01*
X1665429Y-62028286D01*
X1665429Y-61520286D01*
X1738000Y-61375143D01*
X1810571Y-61302572D01*
X1955714Y-61230000D01*
X2100857Y-61230000D01*
X2246000Y-61302572D01*
X2318571Y-61375143D01*
X2391143Y-61520286D01*
X2391143Y-62028286D01*
X3189429Y-60431714D02*
X3189429Y-60141429D01*
X3116857Y-59996286D01*
X3044286Y-59923714D01*
X2826571Y-59778572D01*
X2536286Y-59706000D01*
X1955714Y-59706000D01*
X1810571Y-59778572D01*
X1738000Y-59851143D01*
X1665429Y-59996286D01*
X1665429Y-60286572D01*
X1738000Y-60431714D01*
X1810571Y-60504286D01*
X1955714Y-60576857D01*
X2318571Y-60576857D01*
X2463714Y-60504286D01*
X2536286Y-60431714D01*
X2608857Y-60286572D01*
X2608857Y-59996286D01*
X2536286Y-59851143D01*
X2463714Y-59778572D01*
X2318571Y-59706000D01*
X26665429Y-66092286D02*
X28189429Y-65729429D01*
X27100857Y-65439143D01*
X28189429Y-65148857D01*
X26665429Y-64786000D01*
X28116857Y-64278000D02*
X28189429Y-64060286D01*
X28189429Y-63697429D01*
X28116857Y-63552286D01*
X28044286Y-63479715D01*
X27899143Y-63407143D01*
X27754000Y-63407143D01*
X27608857Y-63479715D01*
X27536286Y-63552286D01*
X27463714Y-63697429D01*
X27391143Y-63987715D01*
X27318571Y-64132857D01*
X27246000Y-64205429D01*
X27100857Y-64278000D01*
X26955714Y-64278000D01*
X26810571Y-64205429D01*
X26738000Y-64132857D01*
X26665429Y-63987715D01*
X26665429Y-63624857D01*
X26738000Y-63407143D01*
X27391143Y-62246000D02*
X27463714Y-62028286D01*
X27536286Y-61955714D01*
X27681429Y-61883143D01*
X27899143Y-61883143D01*
X28044286Y-61955714D01*
X28116857Y-62028286D01*
X28189429Y-62173428D01*
X28189429Y-62754000D01*
X26665429Y-62754000D01*
X26665429Y-62246000D01*
X26738000Y-62100857D01*
X26810571Y-62028286D01*
X26955714Y-61955714D01*
X27100857Y-61955714D01*
X27246000Y-62028286D01*
X27318571Y-62100857D01*
X27391143Y-62246000D01*
X27391143Y-62754000D01*
X28189429Y-60431714D02*
X28189429Y-61302571D01*
X28189429Y-60867143D02*
X26665429Y-60867143D01*
X26883143Y-61012286D01*
X27028286Y-61157428D01*
X27100857Y-61302571D01*
X26665429Y-59488285D02*
X26665429Y-59343142D01*
X26738000Y-59197999D01*
X26810571Y-59125428D01*
X26955714Y-59052857D01*
X27246000Y-58980285D01*
X27608857Y-58980285D01*
X27899143Y-59052857D01*
X28044286Y-59125428D01*
X28116857Y-59197999D01*
X28189429Y-59343142D01*
X28189429Y-59488285D01*
X28116857Y-59633428D01*
X28044286Y-59705999D01*
X27899143Y-59778571D01*
X27608857Y-59851142D01*
X27246000Y-59851142D01*
X26955714Y-59778571D01*
X26810571Y-59705999D01*
X26738000Y-59633428D01*
X26665429Y-59488285D01*
X26089428Y-5769429D02*
X26089428Y-4245429D01*
X26452285Y-4245429D01*
X26670000Y-4318000D01*
X26815142Y-4463143D01*
X26887714Y-4608286D01*
X26960285Y-4898571D01*
X26960285Y-5116286D01*
X26887714Y-5406571D01*
X26815142Y-5551714D01*
X26670000Y-5696857D01*
X26452285Y-5769429D01*
X26089428Y-5769429D01*
X27540857Y-5696857D02*
X27758571Y-5769429D01*
X28121428Y-5769429D01*
X28266571Y-5696857D01*
X28339142Y-5624286D01*
X28411714Y-5479143D01*
X28411714Y-5334000D01*
X28339142Y-5188857D01*
X28266571Y-5116286D01*
X28121428Y-5043714D01*
X27831142Y-4971143D01*
X27686000Y-4898571D01*
X27613428Y-4826000D01*
X27540857Y-4680857D01*
X27540857Y-4535714D01*
X27613428Y-4390571D01*
X27686000Y-4318000D01*
X27831142Y-4245429D01*
X28194000Y-4245429D01*
X28411714Y-4318000D01*
X29863143Y-5769429D02*
X28992286Y-5769429D01*
X29427714Y-5769429D02*
X29427714Y-4245429D01*
X29282571Y-4463143D01*
X29137429Y-4608286D01*
X28992286Y-4680857D01*
X16364856Y-5769429D02*
X15639142Y-5769429D01*
X15639142Y-4245429D01*
X17743713Y-5624286D02*
X17671142Y-5696857D01*
X17453428Y-5769429D01*
X17308285Y-5769429D01*
X17090570Y-5696857D01*
X16945428Y-5551714D01*
X16872856Y-5406571D01*
X16800285Y-5116286D01*
X16800285Y-4898571D01*
X16872856Y-4608286D01*
X16945428Y-4463143D01*
X17090570Y-4318000D01*
X17308285Y-4245429D01*
X17453428Y-4245429D01*
X17671142Y-4318000D01*
X17743713Y-4390571D01*
X18396856Y-5769429D02*
X18396856Y-4245429D01*
X18759713Y-4245429D01*
X18977428Y-4318000D01*
X19122570Y-4463143D01*
X19195142Y-4608286D01*
X19267713Y-4898571D01*
X19267713Y-5116286D01*
X19195142Y-5406571D01*
X19122570Y-5551714D01*
X18977428Y-5696857D01*
X18759713Y-5769429D01*
X18396856Y-5769429D01*
X20719142Y-5769429D02*
X19848285Y-5769429D01*
X20283713Y-5769429D02*
X20283713Y-4245429D01*
X20138570Y-4463143D01*
X19993428Y-4608286D01*
X19848285Y-4680857D01*
X22025428Y-4245429D02*
X21735142Y-4245429D01*
X21589999Y-4318000D01*
X21517428Y-4390571D01*
X21372285Y-4608286D01*
X21299714Y-4898571D01*
X21299714Y-5479143D01*
X21372285Y-5624286D01*
X21444857Y-5696857D01*
X21589999Y-5769429D01*
X21880285Y-5769429D01*
X22025428Y-5696857D01*
X22097999Y-5624286D01*
X22170571Y-5479143D01*
X22170571Y-5116286D01*
X22097999Y-4971143D01*
X22025428Y-4898571D01*
X21880285Y-4826000D01*
X21589999Y-4826000D01*
X21444857Y-4898571D01*
X21372285Y-4971143D01*
X21299714Y-5116286D01*
X22678571Y-4245429D02*
X23694571Y-5769429D01*
X23694571Y-4245429D02*
X22678571Y-5769429D01*
X24202572Y-4390571D02*
X24275143Y-4318000D01*
X24420286Y-4245429D01*
X24783143Y-4245429D01*
X24928286Y-4318000D01*
X25000857Y-4390571D01*
X25073429Y-4535714D01*
X25073429Y-4680857D01*
X25000857Y-4898571D01*
X24130000Y-5769429D01*
X25073429Y-5769429D01*
X84963000Y-18476857D02*
X85180714Y-18549429D01*
X85543571Y-18549429D01*
X85688714Y-18476857D01*
X85761285Y-18404286D01*
X85833857Y-18259143D01*
X85833857Y-18114000D01*
X85761285Y-17968857D01*
X85688714Y-17896286D01*
X85543571Y-17823714D01*
X85253285Y-17751143D01*
X85108143Y-17678571D01*
X85035571Y-17606000D01*
X84963000Y-17460857D01*
X84963000Y-17315714D01*
X85035571Y-17170571D01*
X85108143Y-17098000D01*
X85253285Y-17025429D01*
X85616143Y-17025429D01*
X85833857Y-17098000D01*
X86341857Y-17025429D02*
X86704714Y-18549429D01*
X86995000Y-17460857D01*
X87285286Y-18549429D01*
X87648143Y-17025429D01*
X88156143Y-17170571D02*
X88228714Y-17098000D01*
X88373857Y-17025429D01*
X88736714Y-17025429D01*
X88881857Y-17098000D01*
X88954428Y-17170571D01*
X89027000Y-17315714D01*
X89027000Y-17460857D01*
X88954428Y-17678571D01*
X88083571Y-18549429D01*
X89027000Y-18549429D01*
D17*
X19628886Y-35326838D02*
X19858695Y-36292038D01*
X20042543Y-35602610D01*
X20226390Y-36292038D01*
X20456200Y-35326838D01*
X20777934Y-36246076D02*
X20915819Y-36292038D01*
X21145629Y-36292038D01*
X21237553Y-36246076D01*
X21283515Y-36200114D01*
X21329476Y-36108190D01*
X21329476Y-36016267D01*
X21283515Y-35924343D01*
X21237553Y-35878381D01*
X21145629Y-35832419D01*
X20961781Y-35786457D01*
X20869857Y-35740495D01*
X20823896Y-35694533D01*
X20777934Y-35602610D01*
X20777934Y-35510686D01*
X20823896Y-35418762D01*
X20869857Y-35372800D01*
X20961781Y-35326838D01*
X21191591Y-35326838D01*
X21329476Y-35372800D01*
X22064867Y-35786457D02*
X22202753Y-35832419D01*
X22248714Y-35878381D01*
X22294676Y-35970305D01*
X22294676Y-36108190D01*
X22248714Y-36200114D01*
X22202753Y-36246076D01*
X22110829Y-36292038D01*
X21743134Y-36292038D01*
X21743134Y-35326838D01*
X22064867Y-35326838D01*
X22156791Y-35372800D01*
X22202753Y-35418762D01*
X22248714Y-35510686D01*
X22248714Y-35602610D01*
X22202753Y-35694533D01*
X22156791Y-35740495D01*
X22064867Y-35786457D01*
X21743134Y-35786457D01*
X23213914Y-36292038D02*
X22662372Y-36292038D01*
X22938143Y-36292038D02*
X22938143Y-35326838D01*
X22846219Y-35464724D01*
X22754295Y-35556648D01*
X22662372Y-35602610D01*
D18*
X19573731Y-39287303D02*
X19711617Y-39866423D01*
X19821926Y-39452766D01*
X19932234Y-39866423D01*
X20070120Y-39287303D01*
X20263160Y-39838846D02*
X20345891Y-39866423D01*
X20483777Y-39866423D01*
X20538931Y-39838846D01*
X20566508Y-39811269D01*
X20594085Y-39756114D01*
X20594085Y-39700960D01*
X20566508Y-39645806D01*
X20538931Y-39618229D01*
X20483777Y-39590651D01*
X20373468Y-39563074D01*
X20318314Y-39535497D01*
X20290737Y-39507920D01*
X20263160Y-39452766D01*
X20263160Y-39397611D01*
X20290737Y-39342457D01*
X20318314Y-39314880D01*
X20373468Y-39287303D01*
X20511354Y-39287303D01*
X20594085Y-39314880D01*
X20814703Y-39342457D02*
X20842280Y-39314880D01*
X20897434Y-39287303D01*
X21035320Y-39287303D01*
X21090474Y-39314880D01*
X21118051Y-39342457D01*
X21145628Y-39397611D01*
X21145628Y-39452766D01*
X21118051Y-39535497D01*
X20787125Y-39866423D01*
X21145628Y-39866423D01*
X21476554Y-39535497D02*
X21421400Y-39507920D01*
X21393823Y-39480343D01*
X21366246Y-39425189D01*
X21366246Y-39397611D01*
X21393823Y-39342457D01*
X21421400Y-39314880D01*
X21476554Y-39287303D01*
X21586863Y-39287303D01*
X21642017Y-39314880D01*
X21669594Y-39342457D01*
X21697171Y-39397611D01*
X21697171Y-39425189D01*
X21669594Y-39480343D01*
X21642017Y-39507920D01*
X21586863Y-39535497D01*
X21476554Y-39535497D01*
X21421400Y-39563074D01*
X21393823Y-39590651D01*
X21366246Y-39645806D01*
X21366246Y-39756114D01*
X21393823Y-39811269D01*
X21421400Y-39838846D01*
X21476554Y-39866423D01*
X21586863Y-39866423D01*
X21642017Y-39838846D01*
X21669594Y-39811269D01*
X21697171Y-39756114D01*
X21697171Y-39645806D01*
X21669594Y-39590651D01*
X21642017Y-39563074D01*
X21586863Y-39535497D01*
X22248714Y-39866423D02*
X21917789Y-39866423D01*
X22083251Y-39866423D02*
X22083251Y-39287303D01*
X22028097Y-39370034D01*
X21972943Y-39425189D01*
X21917789Y-39452766D01*
X22469332Y-39342457D02*
X22496909Y-39314880D01*
X22552063Y-39287303D01*
X22689949Y-39287303D01*
X22745103Y-39314880D01*
X22772680Y-39342457D01*
X22800257Y-39397611D01*
X22800257Y-39452766D01*
X22772680Y-39535497D01*
X22441754Y-39866423D01*
X22800257Y-39866423D01*
D17*
X44948686Y-35272635D02*
X45178495Y-36237835D01*
X45362343Y-35548407D01*
X45546190Y-36237835D01*
X45776000Y-35272635D01*
X46097734Y-36191873D02*
X46235619Y-36237835D01*
X46465429Y-36237835D01*
X46557353Y-36191873D01*
X46603315Y-36145911D01*
X46649276Y-36053987D01*
X46649276Y-35962064D01*
X46603315Y-35870140D01*
X46557353Y-35824178D01*
X46465429Y-35778216D01*
X46281581Y-35732254D01*
X46189657Y-35686292D01*
X46143696Y-35640330D01*
X46097734Y-35548407D01*
X46097734Y-35456483D01*
X46143696Y-35364559D01*
X46189657Y-35318597D01*
X46281581Y-35272635D01*
X46511391Y-35272635D01*
X46649276Y-35318597D01*
X47384667Y-35732254D02*
X47522553Y-35778216D01*
X47568514Y-35824178D01*
X47614476Y-35916102D01*
X47614476Y-36053987D01*
X47568514Y-36145911D01*
X47522553Y-36191873D01*
X47430629Y-36237835D01*
X47062934Y-36237835D01*
X47062934Y-35272635D01*
X47384667Y-35272635D01*
X47476591Y-35318597D01*
X47522553Y-35364559D01*
X47568514Y-35456483D01*
X47568514Y-35548407D01*
X47522553Y-35640330D01*
X47476591Y-35686292D01*
X47384667Y-35732254D01*
X47062934Y-35732254D01*
X47982172Y-35364559D02*
X48028134Y-35318597D01*
X48120057Y-35272635D01*
X48349867Y-35272635D01*
X48441791Y-35318597D01*
X48487753Y-35364559D01*
X48533714Y-35456483D01*
X48533714Y-35548407D01*
X48487753Y-35686292D01*
X47936210Y-36237835D01*
X48533714Y-36237835D01*
D18*
X45696731Y-39187303D02*
X45834617Y-39766423D01*
X45944926Y-39352766D01*
X46055234Y-39766423D01*
X46193120Y-39187303D01*
X46386160Y-39738846D02*
X46468891Y-39766423D01*
X46606777Y-39766423D01*
X46661931Y-39738846D01*
X46689508Y-39711269D01*
X46717085Y-39656114D01*
X46717085Y-39600960D01*
X46689508Y-39545806D01*
X46661931Y-39518229D01*
X46606777Y-39490651D01*
X46496468Y-39463074D01*
X46441314Y-39435497D01*
X46413737Y-39407920D01*
X46386160Y-39352766D01*
X46386160Y-39297611D01*
X46413737Y-39242457D01*
X46441314Y-39214880D01*
X46496468Y-39187303D01*
X46634354Y-39187303D01*
X46717085Y-39214880D01*
X46937703Y-39242457D02*
X46965280Y-39214880D01*
X47020434Y-39187303D01*
X47158320Y-39187303D01*
X47213474Y-39214880D01*
X47241051Y-39242457D01*
X47268628Y-39297611D01*
X47268628Y-39352766D01*
X47241051Y-39435497D01*
X46910125Y-39766423D01*
X47268628Y-39766423D01*
X47599554Y-39435497D02*
X47544400Y-39407920D01*
X47516823Y-39380343D01*
X47489246Y-39325189D01*
X47489246Y-39297611D01*
X47516823Y-39242457D01*
X47544400Y-39214880D01*
X47599554Y-39187303D01*
X47709863Y-39187303D01*
X47765017Y-39214880D01*
X47792594Y-39242457D01*
X47820171Y-39297611D01*
X47820171Y-39325189D01*
X47792594Y-39380343D01*
X47765017Y-39407920D01*
X47709863Y-39435497D01*
X47599554Y-39435497D01*
X47544400Y-39463074D01*
X47516823Y-39490651D01*
X47489246Y-39545806D01*
X47489246Y-39656114D01*
X47516823Y-39711269D01*
X47544400Y-39738846D01*
X47599554Y-39766423D01*
X47709863Y-39766423D01*
X47765017Y-39738846D01*
X47792594Y-39711269D01*
X47820171Y-39656114D01*
X47820171Y-39545806D01*
X47792594Y-39490651D01*
X47765017Y-39463074D01*
X47709863Y-39435497D01*
X48371714Y-39766423D02*
X48040789Y-39766423D01*
X48206251Y-39766423D02*
X48206251Y-39187303D01*
X48151097Y-39270034D01*
X48095943Y-39325189D01*
X48040789Y-39352766D01*
X48592332Y-39242457D02*
X48619909Y-39214880D01*
X48675063Y-39187303D01*
X48812949Y-39187303D01*
X48868103Y-39214880D01*
X48895680Y-39242457D01*
X48923257Y-39297611D01*
X48923257Y-39352766D01*
X48895680Y-39435497D01*
X48564754Y-39766423D01*
X48923257Y-39766423D01*
D17*
X68999486Y-35377716D02*
X69229295Y-36342916D01*
X69413143Y-35653488D01*
X69596990Y-36342916D01*
X69826800Y-35377716D01*
X70148534Y-36296954D02*
X70286419Y-36342916D01*
X70516229Y-36342916D01*
X70608153Y-36296954D01*
X70654115Y-36250992D01*
X70700076Y-36159068D01*
X70700076Y-36067145D01*
X70654115Y-35975221D01*
X70608153Y-35929259D01*
X70516229Y-35883297D01*
X70332381Y-35837335D01*
X70240457Y-35791373D01*
X70194496Y-35745411D01*
X70148534Y-35653488D01*
X70148534Y-35561564D01*
X70194496Y-35469640D01*
X70240457Y-35423678D01*
X70332381Y-35377716D01*
X70562191Y-35377716D01*
X70700076Y-35423678D01*
X71435467Y-35837335D02*
X71573353Y-35883297D01*
X71619314Y-35929259D01*
X71665276Y-36021183D01*
X71665276Y-36159068D01*
X71619314Y-36250992D01*
X71573353Y-36296954D01*
X71481429Y-36342916D01*
X71113734Y-36342916D01*
X71113734Y-35377716D01*
X71435467Y-35377716D01*
X71527391Y-35423678D01*
X71573353Y-35469640D01*
X71619314Y-35561564D01*
X71619314Y-35653488D01*
X71573353Y-35745411D01*
X71527391Y-35791373D01*
X71435467Y-35837335D01*
X71113734Y-35837335D01*
X71987010Y-35377716D02*
X72584514Y-35377716D01*
X72262781Y-35745411D01*
X72400667Y-35745411D01*
X72492591Y-35791373D01*
X72538553Y-35837335D01*
X72584514Y-35929259D01*
X72584514Y-36159068D01*
X72538553Y-36250992D01*
X72492591Y-36296954D01*
X72400667Y-36342916D01*
X72124895Y-36342916D01*
X72032972Y-36296954D01*
X71987010Y-36250992D01*
D18*
X69842731Y-39033303D02*
X69980617Y-39612423D01*
X70090926Y-39198766D01*
X70201234Y-39612423D01*
X70339120Y-39033303D01*
X70532160Y-39584846D02*
X70614891Y-39612423D01*
X70752777Y-39612423D01*
X70807931Y-39584846D01*
X70835508Y-39557269D01*
X70863085Y-39502114D01*
X70863085Y-39446960D01*
X70835508Y-39391806D01*
X70807931Y-39364229D01*
X70752777Y-39336651D01*
X70642468Y-39309074D01*
X70587314Y-39281497D01*
X70559737Y-39253920D01*
X70532160Y-39198766D01*
X70532160Y-39143611D01*
X70559737Y-39088457D01*
X70587314Y-39060880D01*
X70642468Y-39033303D01*
X70780354Y-39033303D01*
X70863085Y-39060880D01*
X71083703Y-39088457D02*
X71111280Y-39060880D01*
X71166434Y-39033303D01*
X71304320Y-39033303D01*
X71359474Y-39060880D01*
X71387051Y-39088457D01*
X71414628Y-39143611D01*
X71414628Y-39198766D01*
X71387051Y-39281497D01*
X71056125Y-39612423D01*
X71414628Y-39612423D01*
X71745554Y-39281497D02*
X71690400Y-39253920D01*
X71662823Y-39226343D01*
X71635246Y-39171189D01*
X71635246Y-39143611D01*
X71662823Y-39088457D01*
X71690400Y-39060880D01*
X71745554Y-39033303D01*
X71855863Y-39033303D01*
X71911017Y-39060880D01*
X71938594Y-39088457D01*
X71966171Y-39143611D01*
X71966171Y-39171189D01*
X71938594Y-39226343D01*
X71911017Y-39253920D01*
X71855863Y-39281497D01*
X71745554Y-39281497D01*
X71690400Y-39309074D01*
X71662823Y-39336651D01*
X71635246Y-39391806D01*
X71635246Y-39502114D01*
X71662823Y-39557269D01*
X71690400Y-39584846D01*
X71745554Y-39612423D01*
X71855863Y-39612423D01*
X71911017Y-39584846D01*
X71938594Y-39557269D01*
X71966171Y-39502114D01*
X71966171Y-39391806D01*
X71938594Y-39336651D01*
X71911017Y-39309074D01*
X71855863Y-39281497D01*
X72517714Y-39612423D02*
X72186789Y-39612423D01*
X72352251Y-39612423D02*
X72352251Y-39033303D01*
X72297097Y-39116034D01*
X72241943Y-39171189D01*
X72186789Y-39198766D01*
X72738332Y-39088457D02*
X72765909Y-39060880D01*
X72821063Y-39033303D01*
X72958949Y-39033303D01*
X73014103Y-39060880D01*
X73041680Y-39088457D01*
X73069257Y-39143611D01*
X73069257Y-39198766D01*
X73041680Y-39281497D01*
X72710754Y-39612423D01*
X73069257Y-39612423D01*
D17*
X92780886Y-35326838D02*
X93010695Y-36292038D01*
X93194543Y-35602610D01*
X93378390Y-36292038D01*
X93608200Y-35326838D01*
X93929934Y-36246076D02*
X94067819Y-36292038D01*
X94297629Y-36292038D01*
X94389553Y-36246076D01*
X94435515Y-36200114D01*
X94481476Y-36108190D01*
X94481476Y-36016267D01*
X94435515Y-35924343D01*
X94389553Y-35878381D01*
X94297629Y-35832419D01*
X94113781Y-35786457D01*
X94021857Y-35740495D01*
X93975896Y-35694533D01*
X93929934Y-35602610D01*
X93929934Y-35510686D01*
X93975896Y-35418762D01*
X94021857Y-35372800D01*
X94113781Y-35326838D01*
X94343591Y-35326838D01*
X94481476Y-35372800D01*
X95216867Y-35786457D02*
X95354753Y-35832419D01*
X95400714Y-35878381D01*
X95446676Y-35970305D01*
X95446676Y-36108190D01*
X95400714Y-36200114D01*
X95354753Y-36246076D01*
X95262829Y-36292038D01*
X94895134Y-36292038D01*
X94895134Y-35326838D01*
X95216867Y-35326838D01*
X95308791Y-35372800D01*
X95354753Y-35418762D01*
X95400714Y-35510686D01*
X95400714Y-35602610D01*
X95354753Y-35694533D01*
X95308791Y-35740495D01*
X95216867Y-35786457D01*
X94895134Y-35786457D01*
X96273991Y-35648571D02*
X96273991Y-36292038D01*
X96044181Y-35280876D02*
X95814372Y-35970305D01*
X96411876Y-35970305D01*
D18*
X94757731Y-39287303D02*
X94895617Y-39866423D01*
X95005926Y-39452766D01*
X95116234Y-39866423D01*
X95254120Y-39287303D01*
X95447160Y-39838846D02*
X95529891Y-39866423D01*
X95667777Y-39866423D01*
X95722931Y-39838846D01*
X95750508Y-39811269D01*
X95778085Y-39756114D01*
X95778085Y-39700960D01*
X95750508Y-39645806D01*
X95722931Y-39618229D01*
X95667777Y-39590651D01*
X95557468Y-39563074D01*
X95502314Y-39535497D01*
X95474737Y-39507920D01*
X95447160Y-39452766D01*
X95447160Y-39397611D01*
X95474737Y-39342457D01*
X95502314Y-39314880D01*
X95557468Y-39287303D01*
X95695354Y-39287303D01*
X95778085Y-39314880D01*
X95998703Y-39342457D02*
X96026280Y-39314880D01*
X96081434Y-39287303D01*
X96219320Y-39287303D01*
X96274474Y-39314880D01*
X96302051Y-39342457D01*
X96329628Y-39397611D01*
X96329628Y-39452766D01*
X96302051Y-39535497D01*
X95971125Y-39866423D01*
X96329628Y-39866423D01*
X96660554Y-39535497D02*
X96605400Y-39507920D01*
X96577823Y-39480343D01*
X96550246Y-39425189D01*
X96550246Y-39397611D01*
X96577823Y-39342457D01*
X96605400Y-39314880D01*
X96660554Y-39287303D01*
X96770863Y-39287303D01*
X96826017Y-39314880D01*
X96853594Y-39342457D01*
X96881171Y-39397611D01*
X96881171Y-39425189D01*
X96853594Y-39480343D01*
X96826017Y-39507920D01*
X96770863Y-39535497D01*
X96660554Y-39535497D01*
X96605400Y-39563074D01*
X96577823Y-39590651D01*
X96550246Y-39645806D01*
X96550246Y-39756114D01*
X96577823Y-39811269D01*
X96605400Y-39838846D01*
X96660554Y-39866423D01*
X96770863Y-39866423D01*
X96826017Y-39838846D01*
X96853594Y-39811269D01*
X96881171Y-39756114D01*
X96881171Y-39645806D01*
X96853594Y-39590651D01*
X96826017Y-39563074D01*
X96770863Y-39535497D01*
X97432714Y-39866423D02*
X97101789Y-39866423D01*
X97267251Y-39866423D02*
X97267251Y-39287303D01*
X97212097Y-39370034D01*
X97156943Y-39425189D01*
X97101789Y-39452766D01*
X97653332Y-39342457D02*
X97680909Y-39314880D01*
X97736063Y-39287303D01*
X97873949Y-39287303D01*
X97929103Y-39314880D01*
X97956680Y-39342457D01*
X97984257Y-39397611D01*
X97984257Y-39452766D01*
X97956680Y-39535497D01*
X97625754Y-39866423D01*
X97984257Y-39866423D01*
D17*
X19628886Y-42192838D02*
X19858695Y-43158038D01*
X20042543Y-42468610D01*
X20226390Y-43158038D01*
X20456200Y-42192838D01*
X20777934Y-43112076D02*
X20915819Y-43158038D01*
X21145629Y-43158038D01*
X21237553Y-43112076D01*
X21283515Y-43066114D01*
X21329476Y-42974190D01*
X21329476Y-42882267D01*
X21283515Y-42790343D01*
X21237553Y-42744381D01*
X21145629Y-42698419D01*
X20961781Y-42652457D01*
X20869857Y-42606495D01*
X20823896Y-42560533D01*
X20777934Y-42468610D01*
X20777934Y-42376686D01*
X20823896Y-42284762D01*
X20869857Y-42238800D01*
X20961781Y-42192838D01*
X21191591Y-42192838D01*
X21329476Y-42238800D01*
X22064867Y-42652457D02*
X22202753Y-42698419D01*
X22248714Y-42744381D01*
X22294676Y-42836305D01*
X22294676Y-42974190D01*
X22248714Y-43066114D01*
X22202753Y-43112076D01*
X22110829Y-43158038D01*
X21743134Y-43158038D01*
X21743134Y-42192838D01*
X22064867Y-42192838D01*
X22156791Y-42238800D01*
X22202753Y-42284762D01*
X22248714Y-42376686D01*
X22248714Y-42468610D01*
X22202753Y-42560533D01*
X22156791Y-42606495D01*
X22064867Y-42652457D01*
X21743134Y-42652457D01*
X23167953Y-42192838D02*
X22708334Y-42192838D01*
X22662372Y-42652457D01*
X22708334Y-42606495D01*
X22800257Y-42560533D01*
X23030067Y-42560533D01*
X23121991Y-42606495D01*
X23167953Y-42652457D01*
X23213914Y-42744381D01*
X23213914Y-42974190D01*
X23167953Y-43066114D01*
X23121991Y-43112076D01*
X23030067Y-43158038D01*
X22800257Y-43158038D01*
X22708334Y-43112076D01*
X22662372Y-43066114D01*
D18*
X19573731Y-46407303D02*
X19711617Y-46986423D01*
X19821926Y-46572766D01*
X19932234Y-46986423D01*
X20070120Y-46407303D01*
X20263160Y-46958846D02*
X20345891Y-46986423D01*
X20483777Y-46986423D01*
X20538931Y-46958846D01*
X20566508Y-46931269D01*
X20594085Y-46876114D01*
X20594085Y-46820960D01*
X20566508Y-46765806D01*
X20538931Y-46738229D01*
X20483777Y-46710651D01*
X20373468Y-46683074D01*
X20318314Y-46655497D01*
X20290737Y-46627920D01*
X20263160Y-46572766D01*
X20263160Y-46517611D01*
X20290737Y-46462457D01*
X20318314Y-46434880D01*
X20373468Y-46407303D01*
X20511354Y-46407303D01*
X20594085Y-46434880D01*
X20814703Y-46462457D02*
X20842280Y-46434880D01*
X20897434Y-46407303D01*
X21035320Y-46407303D01*
X21090474Y-46434880D01*
X21118051Y-46462457D01*
X21145628Y-46517611D01*
X21145628Y-46572766D01*
X21118051Y-46655497D01*
X20787125Y-46986423D01*
X21145628Y-46986423D01*
X21476554Y-46655497D02*
X21421400Y-46627920D01*
X21393823Y-46600343D01*
X21366246Y-46545189D01*
X21366246Y-46517611D01*
X21393823Y-46462457D01*
X21421400Y-46434880D01*
X21476554Y-46407303D01*
X21586863Y-46407303D01*
X21642017Y-46434880D01*
X21669594Y-46462457D01*
X21697171Y-46517611D01*
X21697171Y-46545189D01*
X21669594Y-46600343D01*
X21642017Y-46627920D01*
X21586863Y-46655497D01*
X21476554Y-46655497D01*
X21421400Y-46683074D01*
X21393823Y-46710651D01*
X21366246Y-46765806D01*
X21366246Y-46876114D01*
X21393823Y-46931269D01*
X21421400Y-46958846D01*
X21476554Y-46986423D01*
X21586863Y-46986423D01*
X21642017Y-46958846D01*
X21669594Y-46931269D01*
X21697171Y-46876114D01*
X21697171Y-46765806D01*
X21669594Y-46710651D01*
X21642017Y-46683074D01*
X21586863Y-46655497D01*
X22248714Y-46986423D02*
X21917789Y-46986423D01*
X22083251Y-46986423D02*
X22083251Y-46407303D01*
X22028097Y-46490034D01*
X21972943Y-46545189D01*
X21917789Y-46572766D01*
X22469332Y-46462457D02*
X22496909Y-46434880D01*
X22552063Y-46407303D01*
X22689949Y-46407303D01*
X22745103Y-46434880D01*
X22772680Y-46462457D01*
X22800257Y-46517611D01*
X22800257Y-46572766D01*
X22772680Y-46655497D01*
X22441754Y-46986423D01*
X22800257Y-46986423D01*
D17*
X45012886Y-42192838D02*
X45242695Y-43158038D01*
X45426543Y-42468610D01*
X45610390Y-43158038D01*
X45840200Y-42192838D01*
X46161934Y-43112076D02*
X46299819Y-43158038D01*
X46529629Y-43158038D01*
X46621553Y-43112076D01*
X46667515Y-43066114D01*
X46713476Y-42974190D01*
X46713476Y-42882267D01*
X46667515Y-42790343D01*
X46621553Y-42744381D01*
X46529629Y-42698419D01*
X46345781Y-42652457D01*
X46253857Y-42606495D01*
X46207896Y-42560533D01*
X46161934Y-42468610D01*
X46161934Y-42376686D01*
X46207896Y-42284762D01*
X46253857Y-42238800D01*
X46345781Y-42192838D01*
X46575591Y-42192838D01*
X46713476Y-42238800D01*
X47448867Y-42652457D02*
X47586753Y-42698419D01*
X47632714Y-42744381D01*
X47678676Y-42836305D01*
X47678676Y-42974190D01*
X47632714Y-43066114D01*
X47586753Y-43112076D01*
X47494829Y-43158038D01*
X47127134Y-43158038D01*
X47127134Y-42192838D01*
X47448867Y-42192838D01*
X47540791Y-42238800D01*
X47586753Y-42284762D01*
X47632714Y-42376686D01*
X47632714Y-42468610D01*
X47586753Y-42560533D01*
X47540791Y-42606495D01*
X47448867Y-42652457D01*
X47127134Y-42652457D01*
X48505991Y-42192838D02*
X48322143Y-42192838D01*
X48230219Y-42238800D01*
X48184257Y-42284762D01*
X48092334Y-42422648D01*
X48046372Y-42606495D01*
X48046372Y-42974190D01*
X48092334Y-43066114D01*
X48138295Y-43112076D01*
X48230219Y-43158038D01*
X48414067Y-43158038D01*
X48505991Y-43112076D01*
X48551953Y-43066114D01*
X48597914Y-42974190D01*
X48597914Y-42744381D01*
X48551953Y-42652457D01*
X48505991Y-42606495D01*
X48414067Y-42560533D01*
X48230219Y-42560533D01*
X48138295Y-42606495D01*
X48092334Y-42652457D01*
X48046372Y-42744381D01*
D18*
X45973731Y-46153303D02*
X46111617Y-46732423D01*
X46221926Y-46318766D01*
X46332234Y-46732423D01*
X46470120Y-46153303D01*
X46663160Y-46704846D02*
X46745891Y-46732423D01*
X46883777Y-46732423D01*
X46938931Y-46704846D01*
X46966508Y-46677269D01*
X46994085Y-46622114D01*
X46994085Y-46566960D01*
X46966508Y-46511806D01*
X46938931Y-46484229D01*
X46883777Y-46456651D01*
X46773468Y-46429074D01*
X46718314Y-46401497D01*
X46690737Y-46373920D01*
X46663160Y-46318766D01*
X46663160Y-46263611D01*
X46690737Y-46208457D01*
X46718314Y-46180880D01*
X46773468Y-46153303D01*
X46911354Y-46153303D01*
X46994085Y-46180880D01*
X47214703Y-46208457D02*
X47242280Y-46180880D01*
X47297434Y-46153303D01*
X47435320Y-46153303D01*
X47490474Y-46180880D01*
X47518051Y-46208457D01*
X47545628Y-46263611D01*
X47545628Y-46318766D01*
X47518051Y-46401497D01*
X47187125Y-46732423D01*
X47545628Y-46732423D01*
X47876554Y-46401497D02*
X47821400Y-46373920D01*
X47793823Y-46346343D01*
X47766246Y-46291189D01*
X47766246Y-46263611D01*
X47793823Y-46208457D01*
X47821400Y-46180880D01*
X47876554Y-46153303D01*
X47986863Y-46153303D01*
X48042017Y-46180880D01*
X48069594Y-46208457D01*
X48097171Y-46263611D01*
X48097171Y-46291189D01*
X48069594Y-46346343D01*
X48042017Y-46373920D01*
X47986863Y-46401497D01*
X47876554Y-46401497D01*
X47821400Y-46429074D01*
X47793823Y-46456651D01*
X47766246Y-46511806D01*
X47766246Y-46622114D01*
X47793823Y-46677269D01*
X47821400Y-46704846D01*
X47876554Y-46732423D01*
X47986863Y-46732423D01*
X48042017Y-46704846D01*
X48069594Y-46677269D01*
X48097171Y-46622114D01*
X48097171Y-46511806D01*
X48069594Y-46456651D01*
X48042017Y-46429074D01*
X47986863Y-46401497D01*
X48648714Y-46732423D02*
X48317789Y-46732423D01*
X48483251Y-46732423D02*
X48483251Y-46153303D01*
X48428097Y-46236034D01*
X48372943Y-46291189D01*
X48317789Y-46318766D01*
X48869332Y-46208457D02*
X48896909Y-46180880D01*
X48952063Y-46153303D01*
X49089949Y-46153303D01*
X49145103Y-46180880D01*
X49172680Y-46208457D01*
X49200257Y-46263611D01*
X49200257Y-46318766D01*
X49172680Y-46401497D01*
X48841754Y-46732423D01*
X49200257Y-46732423D01*
D17*
X68881886Y-42192838D02*
X69111695Y-43158038D01*
X69295543Y-42468610D01*
X69479390Y-43158038D01*
X69709200Y-42192838D01*
X70030934Y-43112076D02*
X70168819Y-43158038D01*
X70398629Y-43158038D01*
X70490553Y-43112076D01*
X70536515Y-43066114D01*
X70582476Y-42974190D01*
X70582476Y-42882267D01*
X70536515Y-42790343D01*
X70490553Y-42744381D01*
X70398629Y-42698419D01*
X70214781Y-42652457D01*
X70122857Y-42606495D01*
X70076896Y-42560533D01*
X70030934Y-42468610D01*
X70030934Y-42376686D01*
X70076896Y-42284762D01*
X70122857Y-42238800D01*
X70214781Y-42192838D01*
X70444591Y-42192838D01*
X70582476Y-42238800D01*
X71317867Y-42652457D02*
X71455753Y-42698419D01*
X71501714Y-42744381D01*
X71547676Y-42836305D01*
X71547676Y-42974190D01*
X71501714Y-43066114D01*
X71455753Y-43112076D01*
X71363829Y-43158038D01*
X70996134Y-43158038D01*
X70996134Y-42192838D01*
X71317867Y-42192838D01*
X71409791Y-42238800D01*
X71455753Y-42284762D01*
X71501714Y-42376686D01*
X71501714Y-42468610D01*
X71455753Y-42560533D01*
X71409791Y-42606495D01*
X71317867Y-42652457D01*
X70996134Y-42652457D01*
X71869410Y-42192838D02*
X72512876Y-42192838D01*
X72099219Y-43158038D01*
D18*
X70096731Y-45499303D02*
X70234617Y-46078423D01*
X70344926Y-45664766D01*
X70455234Y-46078423D01*
X70593120Y-45499303D01*
X70786160Y-46050846D02*
X70868891Y-46078423D01*
X71006777Y-46078423D01*
X71061931Y-46050846D01*
X71089508Y-46023269D01*
X71117085Y-45968114D01*
X71117085Y-45912960D01*
X71089508Y-45857806D01*
X71061931Y-45830229D01*
X71006777Y-45802651D01*
X70896468Y-45775074D01*
X70841314Y-45747497D01*
X70813737Y-45719920D01*
X70786160Y-45664766D01*
X70786160Y-45609611D01*
X70813737Y-45554457D01*
X70841314Y-45526880D01*
X70896468Y-45499303D01*
X71034354Y-45499303D01*
X71117085Y-45526880D01*
X71337703Y-45554457D02*
X71365280Y-45526880D01*
X71420434Y-45499303D01*
X71558320Y-45499303D01*
X71613474Y-45526880D01*
X71641051Y-45554457D01*
X71668628Y-45609611D01*
X71668628Y-45664766D01*
X71641051Y-45747497D01*
X71310125Y-46078423D01*
X71668628Y-46078423D01*
X71999554Y-45747497D02*
X71944400Y-45719920D01*
X71916823Y-45692343D01*
X71889246Y-45637189D01*
X71889246Y-45609611D01*
X71916823Y-45554457D01*
X71944400Y-45526880D01*
X71999554Y-45499303D01*
X72109863Y-45499303D01*
X72165017Y-45526880D01*
X72192594Y-45554457D01*
X72220171Y-45609611D01*
X72220171Y-45637189D01*
X72192594Y-45692343D01*
X72165017Y-45719920D01*
X72109863Y-45747497D01*
X71999554Y-45747497D01*
X71944400Y-45775074D01*
X71916823Y-45802651D01*
X71889246Y-45857806D01*
X71889246Y-45968114D01*
X71916823Y-46023269D01*
X71944400Y-46050846D01*
X71999554Y-46078423D01*
X72109863Y-46078423D01*
X72165017Y-46050846D01*
X72192594Y-46023269D01*
X72220171Y-45968114D01*
X72220171Y-45857806D01*
X72192594Y-45802651D01*
X72165017Y-45775074D01*
X72109863Y-45747497D01*
X72771714Y-46078423D02*
X72440789Y-46078423D01*
X72606251Y-46078423D02*
X72606251Y-45499303D01*
X72551097Y-45582034D01*
X72495943Y-45637189D01*
X72440789Y-45664766D01*
X72992332Y-45554457D02*
X73019909Y-45526880D01*
X73075063Y-45499303D01*
X73212949Y-45499303D01*
X73268103Y-45526880D01*
X73295680Y-45554457D01*
X73323257Y-45609611D01*
X73323257Y-45664766D01*
X73295680Y-45747497D01*
X72964754Y-46078423D01*
X73323257Y-46078423D01*
D17*
X94789886Y-42192838D02*
X95019695Y-43158038D01*
X95203543Y-42468610D01*
X95387390Y-43158038D01*
X95617200Y-42192838D01*
X95938934Y-43112076D02*
X96076819Y-43158038D01*
X96306629Y-43158038D01*
X96398553Y-43112076D01*
X96444515Y-43066114D01*
X96490476Y-42974190D01*
X96490476Y-42882267D01*
X96444515Y-42790343D01*
X96398553Y-42744381D01*
X96306629Y-42698419D01*
X96122781Y-42652457D01*
X96030857Y-42606495D01*
X95984896Y-42560533D01*
X95938934Y-42468610D01*
X95938934Y-42376686D01*
X95984896Y-42284762D01*
X96030857Y-42238800D01*
X96122781Y-42192838D01*
X96352591Y-42192838D01*
X96490476Y-42238800D01*
X97225867Y-42652457D02*
X97363753Y-42698419D01*
X97409714Y-42744381D01*
X97455676Y-42836305D01*
X97455676Y-42974190D01*
X97409714Y-43066114D01*
X97363753Y-43112076D01*
X97271829Y-43158038D01*
X96904134Y-43158038D01*
X96904134Y-42192838D01*
X97225867Y-42192838D01*
X97317791Y-42238800D01*
X97363753Y-42284762D01*
X97409714Y-42376686D01*
X97409714Y-42468610D01*
X97363753Y-42560533D01*
X97317791Y-42606495D01*
X97225867Y-42652457D01*
X96904134Y-42652457D01*
X98007219Y-42606495D02*
X97915295Y-42560533D01*
X97869334Y-42514571D01*
X97823372Y-42422648D01*
X97823372Y-42376686D01*
X97869334Y-42284762D01*
X97915295Y-42238800D01*
X98007219Y-42192838D01*
X98191067Y-42192838D01*
X98282991Y-42238800D01*
X98328953Y-42284762D01*
X98374914Y-42376686D01*
X98374914Y-42422648D01*
X98328953Y-42514571D01*
X98282991Y-42560533D01*
X98191067Y-42606495D01*
X98007219Y-42606495D01*
X97915295Y-42652457D01*
X97869334Y-42698419D01*
X97823372Y-42790343D01*
X97823372Y-42974190D01*
X97869334Y-43066114D01*
X97915295Y-43112076D01*
X98007219Y-43158038D01*
X98191067Y-43158038D01*
X98282991Y-43112076D01*
X98328953Y-43066114D01*
X98374914Y-42974190D01*
X98374914Y-42790343D01*
X98328953Y-42698419D01*
X98282991Y-42652457D01*
X98191067Y-42606495D01*
D18*
X94734731Y-46153303D02*
X94872617Y-46732423D01*
X94982926Y-46318766D01*
X95093234Y-46732423D01*
X95231120Y-46153303D01*
X95424160Y-46704846D02*
X95506891Y-46732423D01*
X95644777Y-46732423D01*
X95699931Y-46704846D01*
X95727508Y-46677269D01*
X95755085Y-46622114D01*
X95755085Y-46566960D01*
X95727508Y-46511806D01*
X95699931Y-46484229D01*
X95644777Y-46456651D01*
X95534468Y-46429074D01*
X95479314Y-46401497D01*
X95451737Y-46373920D01*
X95424160Y-46318766D01*
X95424160Y-46263611D01*
X95451737Y-46208457D01*
X95479314Y-46180880D01*
X95534468Y-46153303D01*
X95672354Y-46153303D01*
X95755085Y-46180880D01*
X95975703Y-46208457D02*
X96003280Y-46180880D01*
X96058434Y-46153303D01*
X96196320Y-46153303D01*
X96251474Y-46180880D01*
X96279051Y-46208457D01*
X96306628Y-46263611D01*
X96306628Y-46318766D01*
X96279051Y-46401497D01*
X95948125Y-46732423D01*
X96306628Y-46732423D01*
X96637554Y-46401497D02*
X96582400Y-46373920D01*
X96554823Y-46346343D01*
X96527246Y-46291189D01*
X96527246Y-46263611D01*
X96554823Y-46208457D01*
X96582400Y-46180880D01*
X96637554Y-46153303D01*
X96747863Y-46153303D01*
X96803017Y-46180880D01*
X96830594Y-46208457D01*
X96858171Y-46263611D01*
X96858171Y-46291189D01*
X96830594Y-46346343D01*
X96803017Y-46373920D01*
X96747863Y-46401497D01*
X96637554Y-46401497D01*
X96582400Y-46429074D01*
X96554823Y-46456651D01*
X96527246Y-46511806D01*
X96527246Y-46622114D01*
X96554823Y-46677269D01*
X96582400Y-46704846D01*
X96637554Y-46732423D01*
X96747863Y-46732423D01*
X96803017Y-46704846D01*
X96830594Y-46677269D01*
X96858171Y-46622114D01*
X96858171Y-46511806D01*
X96830594Y-46456651D01*
X96803017Y-46429074D01*
X96747863Y-46401497D01*
X97409714Y-46732423D02*
X97078789Y-46732423D01*
X97244251Y-46732423D02*
X97244251Y-46153303D01*
X97189097Y-46236034D01*
X97133943Y-46291189D01*
X97078789Y-46318766D01*
X97630332Y-46208457D02*
X97657909Y-46180880D01*
X97713063Y-46153303D01*
X97850949Y-46153303D01*
X97906103Y-46180880D01*
X97933680Y-46208457D01*
X97961257Y-46263611D01*
X97961257Y-46318766D01*
X97933680Y-46401497D01*
X97602754Y-46732423D01*
X97961257Y-46732423D01*
D17*
X19037886Y-158788838D02*
X19267695Y-159754038D01*
X19451543Y-159064610D01*
X19635390Y-159754038D01*
X19865200Y-158788838D01*
X20186934Y-159708076D02*
X20324819Y-159754038D01*
X20554629Y-159754038D01*
X20646553Y-159708076D01*
X20692515Y-159662114D01*
X20738476Y-159570190D01*
X20738476Y-159478267D01*
X20692515Y-159386343D01*
X20646553Y-159340381D01*
X20554629Y-159294419D01*
X20370781Y-159248457D01*
X20278857Y-159202495D01*
X20232896Y-159156533D01*
X20186934Y-159064610D01*
X20186934Y-158972686D01*
X20232896Y-158880762D01*
X20278857Y-158834800D01*
X20370781Y-158788838D01*
X20600591Y-158788838D01*
X20738476Y-158834800D01*
X21473867Y-159248457D02*
X21611753Y-159294419D01*
X21657714Y-159340381D01*
X21703676Y-159432305D01*
X21703676Y-159570190D01*
X21657714Y-159662114D01*
X21611753Y-159708076D01*
X21519829Y-159754038D01*
X21152134Y-159754038D01*
X21152134Y-158788838D01*
X21473867Y-158788838D01*
X21565791Y-158834800D01*
X21611753Y-158880762D01*
X21657714Y-158972686D01*
X21657714Y-159064610D01*
X21611753Y-159156533D01*
X21565791Y-159202495D01*
X21473867Y-159248457D01*
X21152134Y-159248457D01*
X22071372Y-158880762D02*
X22117334Y-158834800D01*
X22209257Y-158788838D01*
X22439067Y-158788838D01*
X22530991Y-158834800D01*
X22576953Y-158880762D01*
X22622914Y-158972686D01*
X22622914Y-159064610D01*
X22576953Y-159202495D01*
X22025410Y-159754038D01*
X22622914Y-159754038D01*
X23496191Y-158788838D02*
X23036572Y-158788838D01*
X22990610Y-159248457D01*
X23036572Y-159202495D01*
X23128495Y-159156533D01*
X23358305Y-159156533D01*
X23450229Y-159202495D01*
X23496191Y-159248457D01*
X23542152Y-159340381D01*
X23542152Y-159570190D01*
X23496191Y-159662114D01*
X23450229Y-159708076D01*
X23358305Y-159754038D01*
X23128495Y-159754038D01*
X23036572Y-159708076D01*
X22990610Y-159662114D01*
D18*
X19582731Y-159893303D02*
X19720617Y-160472423D01*
X19830926Y-160058766D01*
X19941234Y-160472423D01*
X20079120Y-159893303D01*
X20272160Y-160444846D02*
X20354891Y-160472423D01*
X20492777Y-160472423D01*
X20547931Y-160444846D01*
X20575508Y-160417269D01*
X20603085Y-160362114D01*
X20603085Y-160306960D01*
X20575508Y-160251806D01*
X20547931Y-160224229D01*
X20492777Y-160196651D01*
X20382468Y-160169074D01*
X20327314Y-160141497D01*
X20299737Y-160113920D01*
X20272160Y-160058766D01*
X20272160Y-160003611D01*
X20299737Y-159948457D01*
X20327314Y-159920880D01*
X20382468Y-159893303D01*
X20520354Y-159893303D01*
X20603085Y-159920880D01*
X20823703Y-159948457D02*
X20851280Y-159920880D01*
X20906434Y-159893303D01*
X21044320Y-159893303D01*
X21099474Y-159920880D01*
X21127051Y-159948457D01*
X21154628Y-160003611D01*
X21154628Y-160058766D01*
X21127051Y-160141497D01*
X20796125Y-160472423D01*
X21154628Y-160472423D01*
X21485554Y-160141497D02*
X21430400Y-160113920D01*
X21402823Y-160086343D01*
X21375246Y-160031189D01*
X21375246Y-160003611D01*
X21402823Y-159948457D01*
X21430400Y-159920880D01*
X21485554Y-159893303D01*
X21595863Y-159893303D01*
X21651017Y-159920880D01*
X21678594Y-159948457D01*
X21706171Y-160003611D01*
X21706171Y-160031189D01*
X21678594Y-160086343D01*
X21651017Y-160113920D01*
X21595863Y-160141497D01*
X21485554Y-160141497D01*
X21430400Y-160169074D01*
X21402823Y-160196651D01*
X21375246Y-160251806D01*
X21375246Y-160362114D01*
X21402823Y-160417269D01*
X21430400Y-160444846D01*
X21485554Y-160472423D01*
X21595863Y-160472423D01*
X21651017Y-160444846D01*
X21678594Y-160417269D01*
X21706171Y-160362114D01*
X21706171Y-160251806D01*
X21678594Y-160196651D01*
X21651017Y-160169074D01*
X21595863Y-160141497D01*
X22257714Y-160472423D02*
X21926789Y-160472423D01*
X22092251Y-160472423D02*
X22092251Y-159893303D01*
X22037097Y-159976034D01*
X21981943Y-160031189D01*
X21926789Y-160058766D01*
X22478332Y-159948457D02*
X22505909Y-159920880D01*
X22561063Y-159893303D01*
X22698949Y-159893303D01*
X22754103Y-159920880D01*
X22781680Y-159948457D01*
X22809257Y-160003611D01*
X22809257Y-160058766D01*
X22781680Y-160141497D01*
X22450754Y-160472423D01*
X22809257Y-160472423D01*
D17*
X69060886Y-158888838D02*
X69290695Y-159854038D01*
X69474543Y-159164610D01*
X69658390Y-159854038D01*
X69888200Y-158888838D01*
X70209934Y-159808076D02*
X70347819Y-159854038D01*
X70577629Y-159854038D01*
X70669553Y-159808076D01*
X70715515Y-159762114D01*
X70761476Y-159670190D01*
X70761476Y-159578267D01*
X70715515Y-159486343D01*
X70669553Y-159440381D01*
X70577629Y-159394419D01*
X70393781Y-159348457D01*
X70301857Y-159302495D01*
X70255896Y-159256533D01*
X70209934Y-159164610D01*
X70209934Y-159072686D01*
X70255896Y-158980762D01*
X70301857Y-158934800D01*
X70393781Y-158888838D01*
X70623591Y-158888838D01*
X70761476Y-158934800D01*
X71496867Y-159348457D02*
X71634753Y-159394419D01*
X71680714Y-159440381D01*
X71726676Y-159532305D01*
X71726676Y-159670190D01*
X71680714Y-159762114D01*
X71634753Y-159808076D01*
X71542829Y-159854038D01*
X71175134Y-159854038D01*
X71175134Y-158888838D01*
X71496867Y-158888838D01*
X71588791Y-158934800D01*
X71634753Y-158980762D01*
X71680714Y-159072686D01*
X71680714Y-159164610D01*
X71634753Y-159256533D01*
X71588791Y-159302495D01*
X71496867Y-159348457D01*
X71175134Y-159348457D01*
X72094372Y-158980762D02*
X72140334Y-158934800D01*
X72232257Y-158888838D01*
X72462067Y-158888838D01*
X72553991Y-158934800D01*
X72599953Y-158980762D01*
X72645914Y-159072686D01*
X72645914Y-159164610D01*
X72599953Y-159302495D01*
X72048410Y-159854038D01*
X72645914Y-159854038D01*
X72967648Y-158888838D02*
X73611114Y-158888838D01*
X73197457Y-159854038D01*
D18*
X69405731Y-160093303D02*
X69543617Y-160672423D01*
X69653926Y-160258766D01*
X69764234Y-160672423D01*
X69902120Y-160093303D01*
X70095160Y-160644846D02*
X70177891Y-160672423D01*
X70315777Y-160672423D01*
X70370931Y-160644846D01*
X70398508Y-160617269D01*
X70426085Y-160562114D01*
X70426085Y-160506960D01*
X70398508Y-160451806D01*
X70370931Y-160424229D01*
X70315777Y-160396651D01*
X70205468Y-160369074D01*
X70150314Y-160341497D01*
X70122737Y-160313920D01*
X70095160Y-160258766D01*
X70095160Y-160203611D01*
X70122737Y-160148457D01*
X70150314Y-160120880D01*
X70205468Y-160093303D01*
X70343354Y-160093303D01*
X70426085Y-160120880D01*
X70646703Y-160148457D02*
X70674280Y-160120880D01*
X70729434Y-160093303D01*
X70867320Y-160093303D01*
X70922474Y-160120880D01*
X70950051Y-160148457D01*
X70977628Y-160203611D01*
X70977628Y-160258766D01*
X70950051Y-160341497D01*
X70619125Y-160672423D01*
X70977628Y-160672423D01*
X71308554Y-160341497D02*
X71253400Y-160313920D01*
X71225823Y-160286343D01*
X71198246Y-160231189D01*
X71198246Y-160203611D01*
X71225823Y-160148457D01*
X71253400Y-160120880D01*
X71308554Y-160093303D01*
X71418863Y-160093303D01*
X71474017Y-160120880D01*
X71501594Y-160148457D01*
X71529171Y-160203611D01*
X71529171Y-160231189D01*
X71501594Y-160286343D01*
X71474017Y-160313920D01*
X71418863Y-160341497D01*
X71308554Y-160341497D01*
X71253400Y-160369074D01*
X71225823Y-160396651D01*
X71198246Y-160451806D01*
X71198246Y-160562114D01*
X71225823Y-160617269D01*
X71253400Y-160644846D01*
X71308554Y-160672423D01*
X71418863Y-160672423D01*
X71474017Y-160644846D01*
X71501594Y-160617269D01*
X71529171Y-160562114D01*
X71529171Y-160451806D01*
X71501594Y-160396651D01*
X71474017Y-160369074D01*
X71418863Y-160341497D01*
X72080714Y-160672423D02*
X71749789Y-160672423D01*
X71915251Y-160672423D02*
X71915251Y-160093303D01*
X71860097Y-160176034D01*
X71804943Y-160231189D01*
X71749789Y-160258766D01*
X72301332Y-160148457D02*
X72328909Y-160120880D01*
X72384063Y-160093303D01*
X72521949Y-160093303D01*
X72577103Y-160120880D01*
X72604680Y-160148457D01*
X72632257Y-160203611D01*
X72632257Y-160258766D01*
X72604680Y-160341497D01*
X72273754Y-160672423D01*
X72632257Y-160672423D01*
D17*
X94060886Y-158888838D02*
X94290695Y-159854038D01*
X94474543Y-159164610D01*
X94658390Y-159854038D01*
X94888200Y-158888838D01*
X95209934Y-159808076D02*
X95347819Y-159854038D01*
X95577629Y-159854038D01*
X95669553Y-159808076D01*
X95715515Y-159762114D01*
X95761476Y-159670190D01*
X95761476Y-159578267D01*
X95715515Y-159486343D01*
X95669553Y-159440381D01*
X95577629Y-159394419D01*
X95393781Y-159348457D01*
X95301857Y-159302495D01*
X95255896Y-159256533D01*
X95209934Y-159164610D01*
X95209934Y-159072686D01*
X95255896Y-158980762D01*
X95301857Y-158934800D01*
X95393781Y-158888838D01*
X95623591Y-158888838D01*
X95761476Y-158934800D01*
X96496867Y-159348457D02*
X96634753Y-159394419D01*
X96680714Y-159440381D01*
X96726676Y-159532305D01*
X96726676Y-159670190D01*
X96680714Y-159762114D01*
X96634753Y-159808076D01*
X96542829Y-159854038D01*
X96175134Y-159854038D01*
X96175134Y-158888838D01*
X96496867Y-158888838D01*
X96588791Y-158934800D01*
X96634753Y-158980762D01*
X96680714Y-159072686D01*
X96680714Y-159164610D01*
X96634753Y-159256533D01*
X96588791Y-159302495D01*
X96496867Y-159348457D01*
X96175134Y-159348457D01*
X97094372Y-158980762D02*
X97140334Y-158934800D01*
X97232257Y-158888838D01*
X97462067Y-158888838D01*
X97553991Y-158934800D01*
X97599953Y-158980762D01*
X97645914Y-159072686D01*
X97645914Y-159164610D01*
X97599953Y-159302495D01*
X97048410Y-159854038D01*
X97645914Y-159854038D01*
X98197457Y-159302495D02*
X98105533Y-159256533D01*
X98059572Y-159210571D01*
X98013610Y-159118648D01*
X98013610Y-159072686D01*
X98059572Y-158980762D01*
X98105533Y-158934800D01*
X98197457Y-158888838D01*
X98381305Y-158888838D01*
X98473229Y-158934800D01*
X98519191Y-158980762D01*
X98565152Y-159072686D01*
X98565152Y-159118648D01*
X98519191Y-159210571D01*
X98473229Y-159256533D01*
X98381305Y-159302495D01*
X98197457Y-159302495D01*
X98105533Y-159348457D01*
X98059572Y-159394419D01*
X98013610Y-159486343D01*
X98013610Y-159670190D01*
X98059572Y-159762114D01*
X98105533Y-159808076D01*
X98197457Y-159854038D01*
X98381305Y-159854038D01*
X98473229Y-159808076D01*
X98519191Y-159762114D01*
X98565152Y-159670190D01*
X98565152Y-159486343D01*
X98519191Y-159394419D01*
X98473229Y-159348457D01*
X98381305Y-159302495D01*
D18*
X94305731Y-159993303D02*
X94443617Y-160572423D01*
X94553926Y-160158766D01*
X94664234Y-160572423D01*
X94802120Y-159993303D01*
X94995160Y-160544846D02*
X95077891Y-160572423D01*
X95215777Y-160572423D01*
X95270931Y-160544846D01*
X95298508Y-160517269D01*
X95326085Y-160462114D01*
X95326085Y-160406960D01*
X95298508Y-160351806D01*
X95270931Y-160324229D01*
X95215777Y-160296651D01*
X95105468Y-160269074D01*
X95050314Y-160241497D01*
X95022737Y-160213920D01*
X94995160Y-160158766D01*
X94995160Y-160103611D01*
X95022737Y-160048457D01*
X95050314Y-160020880D01*
X95105468Y-159993303D01*
X95243354Y-159993303D01*
X95326085Y-160020880D01*
X95546703Y-160048457D02*
X95574280Y-160020880D01*
X95629434Y-159993303D01*
X95767320Y-159993303D01*
X95822474Y-160020880D01*
X95850051Y-160048457D01*
X95877628Y-160103611D01*
X95877628Y-160158766D01*
X95850051Y-160241497D01*
X95519125Y-160572423D01*
X95877628Y-160572423D01*
X96208554Y-160241497D02*
X96153400Y-160213920D01*
X96125823Y-160186343D01*
X96098246Y-160131189D01*
X96098246Y-160103611D01*
X96125823Y-160048457D01*
X96153400Y-160020880D01*
X96208554Y-159993303D01*
X96318863Y-159993303D01*
X96374017Y-160020880D01*
X96401594Y-160048457D01*
X96429171Y-160103611D01*
X96429171Y-160131189D01*
X96401594Y-160186343D01*
X96374017Y-160213920D01*
X96318863Y-160241497D01*
X96208554Y-160241497D01*
X96153400Y-160269074D01*
X96125823Y-160296651D01*
X96098246Y-160351806D01*
X96098246Y-160462114D01*
X96125823Y-160517269D01*
X96153400Y-160544846D01*
X96208554Y-160572423D01*
X96318863Y-160572423D01*
X96374017Y-160544846D01*
X96401594Y-160517269D01*
X96429171Y-160462114D01*
X96429171Y-160351806D01*
X96401594Y-160296651D01*
X96374017Y-160269074D01*
X96318863Y-160241497D01*
X96980714Y-160572423D02*
X96649789Y-160572423D01*
X96815251Y-160572423D02*
X96815251Y-159993303D01*
X96760097Y-160076034D01*
X96704943Y-160131189D01*
X96649789Y-160158766D01*
X97201332Y-160048457D02*
X97228909Y-160020880D01*
X97284063Y-159993303D01*
X97421949Y-159993303D01*
X97477103Y-160020880D01*
X97504680Y-160048457D01*
X97532257Y-160103611D01*
X97532257Y-160158766D01*
X97504680Y-160241497D01*
X97173754Y-160572423D01*
X97532257Y-160572423D01*
D12*
X51665429Y-66092286D02*
X53189429Y-65729429D01*
X52100857Y-65439143D01*
X53189429Y-65148857D01*
X51665429Y-64786000D01*
X53116857Y-64278000D02*
X53189429Y-64060286D01*
X53189429Y-63697429D01*
X53116857Y-63552286D01*
X53044286Y-63479715D01*
X52899143Y-63407143D01*
X52754000Y-63407143D01*
X52608857Y-63479715D01*
X52536286Y-63552286D01*
X52463714Y-63697429D01*
X52391143Y-63987715D01*
X52318571Y-64132857D01*
X52246000Y-64205429D01*
X52100857Y-64278000D01*
X51955714Y-64278000D01*
X51810571Y-64205429D01*
X51738000Y-64132857D01*
X51665429Y-63987715D01*
X51665429Y-63624857D01*
X51738000Y-63407143D01*
X52391143Y-62246000D02*
X52463714Y-62028286D01*
X52536286Y-61955714D01*
X52681429Y-61883143D01*
X52899143Y-61883143D01*
X53044286Y-61955714D01*
X53116857Y-62028286D01*
X53189429Y-62173428D01*
X53189429Y-62754000D01*
X51665429Y-62754000D01*
X51665429Y-62246000D01*
X51738000Y-62100857D01*
X51810571Y-62028286D01*
X51955714Y-61955714D01*
X52100857Y-61955714D01*
X52246000Y-62028286D01*
X52318571Y-62100857D01*
X52391143Y-62246000D01*
X52391143Y-62754000D01*
X53189429Y-60431714D02*
X53189429Y-61302571D01*
X53189429Y-60867143D02*
X51665429Y-60867143D01*
X51883143Y-61012286D01*
X52028286Y-61157428D01*
X52100857Y-61302571D01*
X53189429Y-58980285D02*
X53189429Y-59851142D01*
X53189429Y-59415714D02*
X51665429Y-59415714D01*
X51883143Y-59560857D01*
X52028286Y-59705999D01*
X52100857Y-59851142D01*
X76665429Y-66092286D02*
X78189429Y-65729429D01*
X77100857Y-65439143D01*
X78189429Y-65148857D01*
X76665429Y-64786000D01*
X78116857Y-64278000D02*
X78189429Y-64060286D01*
X78189429Y-63697429D01*
X78116857Y-63552286D01*
X78044286Y-63479715D01*
X77899143Y-63407143D01*
X77754000Y-63407143D01*
X77608857Y-63479715D01*
X77536286Y-63552286D01*
X77463714Y-63697429D01*
X77391143Y-63987715D01*
X77318571Y-64132857D01*
X77246000Y-64205429D01*
X77100857Y-64278000D01*
X76955714Y-64278000D01*
X76810571Y-64205429D01*
X76738000Y-64132857D01*
X76665429Y-63987715D01*
X76665429Y-63624857D01*
X76738000Y-63407143D01*
X77391143Y-62246000D02*
X77463714Y-62028286D01*
X77536286Y-61955714D01*
X77681429Y-61883143D01*
X77899143Y-61883143D01*
X78044286Y-61955714D01*
X78116857Y-62028286D01*
X78189429Y-62173428D01*
X78189429Y-62754000D01*
X76665429Y-62754000D01*
X76665429Y-62246000D01*
X76738000Y-62100857D01*
X76810571Y-62028286D01*
X76955714Y-61955714D01*
X77100857Y-61955714D01*
X77246000Y-62028286D01*
X77318571Y-62100857D01*
X77391143Y-62246000D01*
X77391143Y-62754000D01*
X78189429Y-60431714D02*
X78189429Y-61302571D01*
X78189429Y-60867143D02*
X76665429Y-60867143D01*
X76883143Y-61012286D01*
X77028286Y-61157428D01*
X77100857Y-61302571D01*
X76810571Y-59851142D02*
X76738000Y-59778571D01*
X76665429Y-59633428D01*
X76665429Y-59270571D01*
X76738000Y-59125428D01*
X76810571Y-59052857D01*
X76955714Y-58980285D01*
X77100857Y-58980285D01*
X77318571Y-59052857D01*
X78189429Y-59923714D01*
X78189429Y-58980285D01*
X1665429Y-91092286D02*
X3189429Y-90729429D01*
X2100857Y-90439143D01*
X3189429Y-90148857D01*
X1665429Y-89786000D01*
X3116857Y-89278000D02*
X3189429Y-89060286D01*
X3189429Y-88697429D01*
X3116857Y-88552286D01*
X3044286Y-88479715D01*
X2899143Y-88407143D01*
X2754000Y-88407143D01*
X2608857Y-88479715D01*
X2536286Y-88552286D01*
X2463714Y-88697429D01*
X2391143Y-88987715D01*
X2318571Y-89132857D01*
X2246000Y-89205429D01*
X2100857Y-89278000D01*
X1955714Y-89278000D01*
X1810571Y-89205429D01*
X1738000Y-89132857D01*
X1665429Y-88987715D01*
X1665429Y-88624857D01*
X1738000Y-88407143D01*
X2391143Y-87246000D02*
X2463714Y-87028286D01*
X2536286Y-86955714D01*
X2681429Y-86883143D01*
X2899143Y-86883143D01*
X3044286Y-86955714D01*
X3116857Y-87028286D01*
X3189429Y-87173428D01*
X3189429Y-87754000D01*
X1665429Y-87754000D01*
X1665429Y-87246000D01*
X1738000Y-87100857D01*
X1810571Y-87028286D01*
X1955714Y-86955714D01*
X2100857Y-86955714D01*
X2246000Y-87028286D01*
X2318571Y-87100857D01*
X2391143Y-87246000D01*
X2391143Y-87754000D01*
X3189429Y-85431714D02*
X3189429Y-86302571D01*
X3189429Y-85867143D02*
X1665429Y-85867143D01*
X1883143Y-86012286D01*
X2028286Y-86157428D01*
X2100857Y-86302571D01*
X1665429Y-84923714D02*
X1665429Y-83980285D01*
X2246000Y-84488285D01*
X2246000Y-84270571D01*
X2318571Y-84125428D01*
X2391143Y-84052857D01*
X2536286Y-83980285D01*
X2899143Y-83980285D01*
X3044286Y-84052857D01*
X3116857Y-84125428D01*
X3189429Y-84270571D01*
X3189429Y-84705999D01*
X3116857Y-84851142D01*
X3044286Y-84923714D01*
D19*
X18839133Y-81344714D02*
X18793171Y-81390676D01*
X18655286Y-81436638D01*
X18563362Y-81436638D01*
X18425476Y-81390676D01*
X18333552Y-81298752D01*
X18287591Y-81206829D01*
X18241629Y-81022981D01*
X18241629Y-80885095D01*
X18287591Y-80701248D01*
X18333552Y-80609324D01*
X18425476Y-80517400D01*
X18563362Y-80471438D01*
X18655286Y-80471438D01*
X18793171Y-80517400D01*
X18839133Y-80563362D01*
X19160867Y-80471438D02*
X19758371Y-80471438D01*
X19436638Y-80839133D01*
X19574524Y-80839133D01*
X19666448Y-80885095D01*
X19712410Y-80931057D01*
X19758371Y-81022981D01*
X19758371Y-81252790D01*
X19712410Y-81344714D01*
X19666448Y-81390676D01*
X19574524Y-81436638D01*
X19298752Y-81436638D01*
X19206829Y-81390676D01*
X19160867Y-81344714D01*
D12*
X26665429Y-91092286D02*
X28189429Y-90729429D01*
X27100857Y-90439143D01*
X28189429Y-90148857D01*
X26665429Y-89786000D01*
X28116857Y-89278000D02*
X28189429Y-89060286D01*
X28189429Y-88697429D01*
X28116857Y-88552286D01*
X28044286Y-88479715D01*
X27899143Y-88407143D01*
X27754000Y-88407143D01*
X27608857Y-88479715D01*
X27536286Y-88552286D01*
X27463714Y-88697429D01*
X27391143Y-88987715D01*
X27318571Y-89132857D01*
X27246000Y-89205429D01*
X27100857Y-89278000D01*
X26955714Y-89278000D01*
X26810571Y-89205429D01*
X26738000Y-89132857D01*
X26665429Y-88987715D01*
X26665429Y-88624857D01*
X26738000Y-88407143D01*
X27391143Y-87246000D02*
X27463714Y-87028286D01*
X27536286Y-86955714D01*
X27681429Y-86883143D01*
X27899143Y-86883143D01*
X28044286Y-86955714D01*
X28116857Y-87028286D01*
X28189429Y-87173428D01*
X28189429Y-87754000D01*
X26665429Y-87754000D01*
X26665429Y-87246000D01*
X26738000Y-87100857D01*
X26810571Y-87028286D01*
X26955714Y-86955714D01*
X27100857Y-86955714D01*
X27246000Y-87028286D01*
X27318571Y-87100857D01*
X27391143Y-87246000D01*
X27391143Y-87754000D01*
X28189429Y-85431714D02*
X28189429Y-86302571D01*
X28189429Y-85867143D02*
X26665429Y-85867143D01*
X26883143Y-86012286D01*
X27028286Y-86157428D01*
X27100857Y-86302571D01*
X27173429Y-84125428D02*
X28189429Y-84125428D01*
X26592857Y-84488285D02*
X27681429Y-84851142D01*
X27681429Y-83907714D01*
D19*
X43839133Y-81344714D02*
X43793171Y-81390676D01*
X43655286Y-81436638D01*
X43563362Y-81436638D01*
X43425476Y-81390676D01*
X43333552Y-81298752D01*
X43287591Y-81206829D01*
X43241629Y-81022981D01*
X43241629Y-80885095D01*
X43287591Y-80701248D01*
X43333552Y-80609324D01*
X43425476Y-80517400D01*
X43563362Y-80471438D01*
X43655286Y-80471438D01*
X43793171Y-80517400D01*
X43839133Y-80563362D01*
X44160867Y-80471438D02*
X44758371Y-80471438D01*
X44436638Y-80839133D01*
X44574524Y-80839133D01*
X44666448Y-80885095D01*
X44712410Y-80931057D01*
X44758371Y-81022981D01*
X44758371Y-81252790D01*
X44712410Y-81344714D01*
X44666448Y-81390676D01*
X44574524Y-81436638D01*
X44298752Y-81436638D01*
X44206829Y-81390676D01*
X44160867Y-81344714D01*
D12*
X51665429Y-91092286D02*
X53189429Y-90729429D01*
X52100857Y-90439143D01*
X53189429Y-90148857D01*
X51665429Y-89786000D01*
X53116857Y-89278000D02*
X53189429Y-89060286D01*
X53189429Y-88697429D01*
X53116857Y-88552286D01*
X53044286Y-88479715D01*
X52899143Y-88407143D01*
X52754000Y-88407143D01*
X52608857Y-88479715D01*
X52536286Y-88552286D01*
X52463714Y-88697429D01*
X52391143Y-88987715D01*
X52318571Y-89132857D01*
X52246000Y-89205429D01*
X52100857Y-89278000D01*
X51955714Y-89278000D01*
X51810571Y-89205429D01*
X51738000Y-89132857D01*
X51665429Y-88987715D01*
X51665429Y-88624857D01*
X51738000Y-88407143D01*
X52391143Y-87246000D02*
X52463714Y-87028286D01*
X52536286Y-86955714D01*
X52681429Y-86883143D01*
X52899143Y-86883143D01*
X53044286Y-86955714D01*
X53116857Y-87028286D01*
X53189429Y-87173428D01*
X53189429Y-87754000D01*
X51665429Y-87754000D01*
X51665429Y-87246000D01*
X51738000Y-87100857D01*
X51810571Y-87028286D01*
X51955714Y-86955714D01*
X52100857Y-86955714D01*
X52246000Y-87028286D01*
X52318571Y-87100857D01*
X52391143Y-87246000D01*
X52391143Y-87754000D01*
X53189429Y-85431714D02*
X53189429Y-86302571D01*
X53189429Y-85867143D02*
X51665429Y-85867143D01*
X51883143Y-86012286D01*
X52028286Y-86157428D01*
X52100857Y-86302571D01*
X51665429Y-84052857D02*
X51665429Y-84778571D01*
X52391143Y-84851142D01*
X52318571Y-84778571D01*
X52246000Y-84633428D01*
X52246000Y-84270571D01*
X52318571Y-84125428D01*
X52391143Y-84052857D01*
X52536286Y-83980285D01*
X52899143Y-83980285D01*
X53044286Y-84052857D01*
X53116857Y-84125428D01*
X53189429Y-84270571D01*
X53189429Y-84633428D01*
X53116857Y-84778571D01*
X53044286Y-84851142D01*
D19*
X68839133Y-81344714D02*
X68793171Y-81390676D01*
X68655286Y-81436638D01*
X68563362Y-81436638D01*
X68425476Y-81390676D01*
X68333552Y-81298752D01*
X68287591Y-81206829D01*
X68241629Y-81022981D01*
X68241629Y-80885095D01*
X68287591Y-80701248D01*
X68333552Y-80609324D01*
X68425476Y-80517400D01*
X68563362Y-80471438D01*
X68655286Y-80471438D01*
X68793171Y-80517400D01*
X68839133Y-80563362D01*
X69160867Y-80471438D02*
X69758371Y-80471438D01*
X69436638Y-80839133D01*
X69574524Y-80839133D01*
X69666448Y-80885095D01*
X69712410Y-80931057D01*
X69758371Y-81022981D01*
X69758371Y-81252790D01*
X69712410Y-81344714D01*
X69666448Y-81390676D01*
X69574524Y-81436638D01*
X69298752Y-81436638D01*
X69206829Y-81390676D01*
X69160867Y-81344714D01*
D12*
X76665429Y-91092286D02*
X78189429Y-90729429D01*
X77100857Y-90439143D01*
X78189429Y-90148857D01*
X76665429Y-89786000D01*
X78116857Y-89278000D02*
X78189429Y-89060286D01*
X78189429Y-88697429D01*
X78116857Y-88552286D01*
X78044286Y-88479715D01*
X77899143Y-88407143D01*
X77754000Y-88407143D01*
X77608857Y-88479715D01*
X77536286Y-88552286D01*
X77463714Y-88697429D01*
X77391143Y-88987715D01*
X77318571Y-89132857D01*
X77246000Y-89205429D01*
X77100857Y-89278000D01*
X76955714Y-89278000D01*
X76810571Y-89205429D01*
X76738000Y-89132857D01*
X76665429Y-88987715D01*
X76665429Y-88624857D01*
X76738000Y-88407143D01*
X77391143Y-87246000D02*
X77463714Y-87028286D01*
X77536286Y-86955714D01*
X77681429Y-86883143D01*
X77899143Y-86883143D01*
X78044286Y-86955714D01*
X78116857Y-87028286D01*
X78189429Y-87173428D01*
X78189429Y-87754000D01*
X76665429Y-87754000D01*
X76665429Y-87246000D01*
X76738000Y-87100857D01*
X76810571Y-87028286D01*
X76955714Y-86955714D01*
X77100857Y-86955714D01*
X77246000Y-87028286D01*
X77318571Y-87100857D01*
X77391143Y-87246000D01*
X77391143Y-87754000D01*
X78189429Y-85431714D02*
X78189429Y-86302571D01*
X78189429Y-85867143D02*
X76665429Y-85867143D01*
X76883143Y-86012286D01*
X77028286Y-86157428D01*
X77100857Y-86302571D01*
X76665429Y-84125428D02*
X76665429Y-84415714D01*
X76738000Y-84560857D01*
X76810571Y-84633428D01*
X77028286Y-84778571D01*
X77318571Y-84851142D01*
X77899143Y-84851142D01*
X78044286Y-84778571D01*
X78116857Y-84705999D01*
X78189429Y-84560857D01*
X78189429Y-84270571D01*
X78116857Y-84125428D01*
X78044286Y-84052857D01*
X77899143Y-83980285D01*
X77536286Y-83980285D01*
X77391143Y-84052857D01*
X77318571Y-84125428D01*
X77246000Y-84270571D01*
X77246000Y-84560857D01*
X77318571Y-84705999D01*
X77391143Y-84778571D01*
X77536286Y-84851142D01*
X1665429Y-116092286D02*
X3189429Y-115729429D01*
X2100857Y-115439143D01*
X3189429Y-115148857D01*
X1665429Y-114786000D01*
X3116857Y-114278000D02*
X3189429Y-114060286D01*
X3189429Y-113697429D01*
X3116857Y-113552286D01*
X3044286Y-113479715D01*
X2899143Y-113407143D01*
X2754000Y-113407143D01*
X2608857Y-113479715D01*
X2536286Y-113552286D01*
X2463714Y-113697429D01*
X2391143Y-113987715D01*
X2318571Y-114132857D01*
X2246000Y-114205429D01*
X2100857Y-114278000D01*
X1955714Y-114278000D01*
X1810571Y-114205429D01*
X1738000Y-114132857D01*
X1665429Y-113987715D01*
X1665429Y-113624857D01*
X1738000Y-113407143D01*
X2391143Y-112246000D02*
X2463714Y-112028286D01*
X2536286Y-111955714D01*
X2681429Y-111883143D01*
X2899143Y-111883143D01*
X3044286Y-111955714D01*
X3116857Y-112028286D01*
X3189429Y-112173428D01*
X3189429Y-112754000D01*
X1665429Y-112754000D01*
X1665429Y-112246000D01*
X1738000Y-112100857D01*
X1810571Y-112028286D01*
X1955714Y-111955714D01*
X2100857Y-111955714D01*
X2246000Y-112028286D01*
X2318571Y-112100857D01*
X2391143Y-112246000D01*
X2391143Y-112754000D01*
X3189429Y-110431714D02*
X3189429Y-111302571D01*
X3189429Y-110867143D02*
X1665429Y-110867143D01*
X1883143Y-111012286D01*
X2028286Y-111157428D01*
X2100857Y-111302571D01*
X1665429Y-109923714D02*
X1665429Y-108907714D01*
X3189429Y-109560857D01*
D19*
X18839133Y-106344714D02*
X18793171Y-106390676D01*
X18655286Y-106436638D01*
X18563362Y-106436638D01*
X18425476Y-106390676D01*
X18333552Y-106298752D01*
X18287591Y-106206829D01*
X18241629Y-106022981D01*
X18241629Y-105885095D01*
X18287591Y-105701248D01*
X18333552Y-105609324D01*
X18425476Y-105517400D01*
X18563362Y-105471438D01*
X18655286Y-105471438D01*
X18793171Y-105517400D01*
X18839133Y-105563362D01*
X19160867Y-105471438D02*
X19758371Y-105471438D01*
X19436638Y-105839133D01*
X19574524Y-105839133D01*
X19666448Y-105885095D01*
X19712410Y-105931057D01*
X19758371Y-106022981D01*
X19758371Y-106252790D01*
X19712410Y-106344714D01*
X19666448Y-106390676D01*
X19574524Y-106436638D01*
X19298752Y-106436638D01*
X19206829Y-106390676D01*
X19160867Y-106344714D01*
D12*
X26665429Y-116092286D02*
X28189429Y-115729429D01*
X27100857Y-115439143D01*
X28189429Y-115148857D01*
X26665429Y-114786000D01*
X28116857Y-114278000D02*
X28189429Y-114060286D01*
X28189429Y-113697429D01*
X28116857Y-113552286D01*
X28044286Y-113479715D01*
X27899143Y-113407143D01*
X27754000Y-113407143D01*
X27608857Y-113479715D01*
X27536286Y-113552286D01*
X27463714Y-113697429D01*
X27391143Y-113987715D01*
X27318571Y-114132857D01*
X27246000Y-114205429D01*
X27100857Y-114278000D01*
X26955714Y-114278000D01*
X26810571Y-114205429D01*
X26738000Y-114132857D01*
X26665429Y-113987715D01*
X26665429Y-113624857D01*
X26738000Y-113407143D01*
X27391143Y-112246000D02*
X27463714Y-112028286D01*
X27536286Y-111955714D01*
X27681429Y-111883143D01*
X27899143Y-111883143D01*
X28044286Y-111955714D01*
X28116857Y-112028286D01*
X28189429Y-112173428D01*
X28189429Y-112754000D01*
X26665429Y-112754000D01*
X26665429Y-112246000D01*
X26738000Y-112100857D01*
X26810571Y-112028286D01*
X26955714Y-111955714D01*
X27100857Y-111955714D01*
X27246000Y-112028286D01*
X27318571Y-112100857D01*
X27391143Y-112246000D01*
X27391143Y-112754000D01*
X28189429Y-110431714D02*
X28189429Y-111302571D01*
X28189429Y-110867143D02*
X26665429Y-110867143D01*
X26883143Y-111012286D01*
X27028286Y-111157428D01*
X27100857Y-111302571D01*
X27318571Y-109560857D02*
X27246000Y-109705999D01*
X27173429Y-109778571D01*
X27028286Y-109851142D01*
X26955714Y-109851142D01*
X26810571Y-109778571D01*
X26738000Y-109705999D01*
X26665429Y-109560857D01*
X26665429Y-109270571D01*
X26738000Y-109125428D01*
X26810571Y-109052857D01*
X26955714Y-108980285D01*
X27028286Y-108980285D01*
X27173429Y-109052857D01*
X27246000Y-109125428D01*
X27318571Y-109270571D01*
X27318571Y-109560857D01*
X27391143Y-109705999D01*
X27463714Y-109778571D01*
X27608857Y-109851142D01*
X27899143Y-109851142D01*
X28044286Y-109778571D01*
X28116857Y-109705999D01*
X28189429Y-109560857D01*
X28189429Y-109270571D01*
X28116857Y-109125428D01*
X28044286Y-109052857D01*
X27899143Y-108980285D01*
X27608857Y-108980285D01*
X27463714Y-109052857D01*
X27391143Y-109125428D01*
X27318571Y-109270571D01*
D19*
X43816133Y-106344714D02*
X43770171Y-106390676D01*
X43632286Y-106436638D01*
X43540362Y-106436638D01*
X43402476Y-106390676D01*
X43310552Y-106298752D01*
X43264591Y-106206829D01*
X43218629Y-106022981D01*
X43218629Y-105885095D01*
X43264591Y-105701248D01*
X43310552Y-105609324D01*
X43402476Y-105517400D01*
X43540362Y-105471438D01*
X43632286Y-105471438D01*
X43770171Y-105517400D01*
X43816133Y-105563362D01*
X44137867Y-105471438D02*
X44735371Y-105471438D01*
X44413638Y-105839133D01*
X44551524Y-105839133D01*
X44643448Y-105885095D01*
X44689410Y-105931057D01*
X44735371Y-106022981D01*
X44735371Y-106252790D01*
X44689410Y-106344714D01*
X44643448Y-106390676D01*
X44551524Y-106436638D01*
X44275752Y-106436638D01*
X44183829Y-106390676D01*
X44137867Y-106344714D01*
D12*
X51665429Y-116092286D02*
X53189429Y-115729429D01*
X52100857Y-115439143D01*
X53189429Y-115148857D01*
X51665429Y-114786000D01*
X53116857Y-114278000D02*
X53189429Y-114060286D01*
X53189429Y-113697429D01*
X53116857Y-113552286D01*
X53044286Y-113479715D01*
X52899143Y-113407143D01*
X52754000Y-113407143D01*
X52608857Y-113479715D01*
X52536286Y-113552286D01*
X52463714Y-113697429D01*
X52391143Y-113987715D01*
X52318571Y-114132857D01*
X52246000Y-114205429D01*
X52100857Y-114278000D01*
X51955714Y-114278000D01*
X51810571Y-114205429D01*
X51738000Y-114132857D01*
X51665429Y-113987715D01*
X51665429Y-113624857D01*
X51738000Y-113407143D01*
X52391143Y-112246000D02*
X52463714Y-112028286D01*
X52536286Y-111955714D01*
X52681429Y-111883143D01*
X52899143Y-111883143D01*
X53044286Y-111955714D01*
X53116857Y-112028286D01*
X53189429Y-112173428D01*
X53189429Y-112754000D01*
X51665429Y-112754000D01*
X51665429Y-112246000D01*
X51738000Y-112100857D01*
X51810571Y-112028286D01*
X51955714Y-111955714D01*
X52100857Y-111955714D01*
X52246000Y-112028286D01*
X52318571Y-112100857D01*
X52391143Y-112246000D01*
X52391143Y-112754000D01*
X53189429Y-110431714D02*
X53189429Y-111302571D01*
X53189429Y-110867143D02*
X51665429Y-110867143D01*
X51883143Y-111012286D01*
X52028286Y-111157428D01*
X52100857Y-111302571D01*
X53189429Y-109705999D02*
X53189429Y-109415714D01*
X53116857Y-109270571D01*
X53044286Y-109197999D01*
X52826571Y-109052857D01*
X52536286Y-108980285D01*
X51955714Y-108980285D01*
X51810571Y-109052857D01*
X51738000Y-109125428D01*
X51665429Y-109270571D01*
X51665429Y-109560857D01*
X51738000Y-109705999D01*
X51810571Y-109778571D01*
X51955714Y-109851142D01*
X52318571Y-109851142D01*
X52463714Y-109778571D01*
X52536286Y-109705999D01*
X52608857Y-109560857D01*
X52608857Y-109270571D01*
X52536286Y-109125428D01*
X52463714Y-109052857D01*
X52318571Y-108980285D01*
D19*
X68839133Y-106344714D02*
X68793171Y-106390676D01*
X68655286Y-106436638D01*
X68563362Y-106436638D01*
X68425476Y-106390676D01*
X68333552Y-106298752D01*
X68287591Y-106206829D01*
X68241629Y-106022981D01*
X68241629Y-105885095D01*
X68287591Y-105701248D01*
X68333552Y-105609324D01*
X68425476Y-105517400D01*
X68563362Y-105471438D01*
X68655286Y-105471438D01*
X68793171Y-105517400D01*
X68839133Y-105563362D01*
X69160867Y-105471438D02*
X69758371Y-105471438D01*
X69436638Y-105839133D01*
X69574524Y-105839133D01*
X69666448Y-105885095D01*
X69712410Y-105931057D01*
X69758371Y-106022981D01*
X69758371Y-106252790D01*
X69712410Y-106344714D01*
X69666448Y-106390676D01*
X69574524Y-106436638D01*
X69298752Y-106436638D01*
X69206829Y-106390676D01*
X69160867Y-106344714D01*
D12*
X76665429Y-116092286D02*
X78189429Y-115729429D01*
X77100857Y-115439143D01*
X78189429Y-115148857D01*
X76665429Y-114786000D01*
X78116857Y-114278000D02*
X78189429Y-114060286D01*
X78189429Y-113697429D01*
X78116857Y-113552286D01*
X78044286Y-113479715D01*
X77899143Y-113407143D01*
X77754000Y-113407143D01*
X77608857Y-113479715D01*
X77536286Y-113552286D01*
X77463714Y-113697429D01*
X77391143Y-113987715D01*
X77318571Y-114132857D01*
X77246000Y-114205429D01*
X77100857Y-114278000D01*
X76955714Y-114278000D01*
X76810571Y-114205429D01*
X76738000Y-114132857D01*
X76665429Y-113987715D01*
X76665429Y-113624857D01*
X76738000Y-113407143D01*
X77391143Y-112246000D02*
X77463714Y-112028286D01*
X77536286Y-111955714D01*
X77681429Y-111883143D01*
X77899143Y-111883143D01*
X78044286Y-111955714D01*
X78116857Y-112028286D01*
X78189429Y-112173428D01*
X78189429Y-112754000D01*
X76665429Y-112754000D01*
X76665429Y-112246000D01*
X76738000Y-112100857D01*
X76810571Y-112028286D01*
X76955714Y-111955714D01*
X77100857Y-111955714D01*
X77246000Y-112028286D01*
X77318571Y-112100857D01*
X77391143Y-112246000D01*
X77391143Y-112754000D01*
X76810571Y-111302571D02*
X76738000Y-111230000D01*
X76665429Y-111084857D01*
X76665429Y-110722000D01*
X76738000Y-110576857D01*
X76810571Y-110504286D01*
X76955714Y-110431714D01*
X77100857Y-110431714D01*
X77318571Y-110504286D01*
X78189429Y-111375143D01*
X78189429Y-110431714D01*
X76665429Y-109488285D02*
X76665429Y-109343142D01*
X76738000Y-109197999D01*
X76810571Y-109125428D01*
X76955714Y-109052857D01*
X77246000Y-108980285D01*
X77608857Y-108980285D01*
X77899143Y-109052857D01*
X78044286Y-109125428D01*
X78116857Y-109197999D01*
X78189429Y-109343142D01*
X78189429Y-109488285D01*
X78116857Y-109633428D01*
X78044286Y-109705999D01*
X77899143Y-109778571D01*
X77608857Y-109851142D01*
X77246000Y-109851142D01*
X76955714Y-109778571D01*
X76810571Y-109705999D01*
X76738000Y-109633428D01*
X76665429Y-109488285D01*
D19*
X93839133Y-106344714D02*
X93793171Y-106390676D01*
X93655286Y-106436638D01*
X93563362Y-106436638D01*
X93425476Y-106390676D01*
X93333552Y-106298752D01*
X93287591Y-106206829D01*
X93241629Y-106022981D01*
X93241629Y-105885095D01*
X93287591Y-105701248D01*
X93333552Y-105609324D01*
X93425476Y-105517400D01*
X93563362Y-105471438D01*
X93655286Y-105471438D01*
X93793171Y-105517400D01*
X93839133Y-105563362D01*
X94160867Y-105471438D02*
X94758371Y-105471438D01*
X94436638Y-105839133D01*
X94574524Y-105839133D01*
X94666448Y-105885095D01*
X94712410Y-105931057D01*
X94758371Y-106022981D01*
X94758371Y-106252790D01*
X94712410Y-106344714D01*
X94666448Y-106390676D01*
X94574524Y-106436638D01*
X94298752Y-106436638D01*
X94206829Y-106390676D01*
X94160867Y-106344714D01*
D12*
X1665429Y-141092286D02*
X3189429Y-140729429D01*
X2100857Y-140439143D01*
X3189429Y-140148857D01*
X1665429Y-139786000D01*
X3116857Y-139278000D02*
X3189429Y-139060286D01*
X3189429Y-138697429D01*
X3116857Y-138552286D01*
X3044286Y-138479715D01*
X2899143Y-138407143D01*
X2754000Y-138407143D01*
X2608857Y-138479715D01*
X2536286Y-138552286D01*
X2463714Y-138697429D01*
X2391143Y-138987715D01*
X2318571Y-139132857D01*
X2246000Y-139205429D01*
X2100857Y-139278000D01*
X1955714Y-139278000D01*
X1810571Y-139205429D01*
X1738000Y-139132857D01*
X1665429Y-138987715D01*
X1665429Y-138624857D01*
X1738000Y-138407143D01*
X2391143Y-137246000D02*
X2463714Y-137028286D01*
X2536286Y-136955714D01*
X2681429Y-136883143D01*
X2899143Y-136883143D01*
X3044286Y-136955714D01*
X3116857Y-137028286D01*
X3189429Y-137173428D01*
X3189429Y-137754000D01*
X1665429Y-137754000D01*
X1665429Y-137246000D01*
X1738000Y-137100857D01*
X1810571Y-137028286D01*
X1955714Y-136955714D01*
X2100857Y-136955714D01*
X2246000Y-137028286D01*
X2318571Y-137100857D01*
X2391143Y-137246000D01*
X2391143Y-137754000D01*
X1810571Y-136302571D02*
X1738000Y-136230000D01*
X1665429Y-136084857D01*
X1665429Y-135722000D01*
X1738000Y-135576857D01*
X1810571Y-135504286D01*
X1955714Y-135431714D01*
X2100857Y-135431714D01*
X2318571Y-135504286D01*
X3189429Y-136375143D01*
X3189429Y-135431714D01*
X3189429Y-133980285D02*
X3189429Y-134851142D01*
X3189429Y-134415714D02*
X1665429Y-134415714D01*
X1883143Y-134560857D01*
X2028286Y-134705999D01*
X2100857Y-134851142D01*
D19*
X18839133Y-131344714D02*
X18793171Y-131390676D01*
X18655286Y-131436638D01*
X18563362Y-131436638D01*
X18425476Y-131390676D01*
X18333552Y-131298752D01*
X18287591Y-131206829D01*
X18241629Y-131022981D01*
X18241629Y-130885095D01*
X18287591Y-130701248D01*
X18333552Y-130609324D01*
X18425476Y-130517400D01*
X18563362Y-130471438D01*
X18655286Y-130471438D01*
X18793171Y-130517400D01*
X18839133Y-130563362D01*
X19160867Y-130471438D02*
X19758371Y-130471438D01*
X19436638Y-130839133D01*
X19574524Y-130839133D01*
X19666448Y-130885095D01*
X19712410Y-130931057D01*
X19758371Y-131022981D01*
X19758371Y-131252790D01*
X19712410Y-131344714D01*
X19666448Y-131390676D01*
X19574524Y-131436638D01*
X19298752Y-131436638D01*
X19206829Y-131390676D01*
X19160867Y-131344714D01*
D12*
X26665429Y-141092286D02*
X28189429Y-140729429D01*
X27100857Y-140439143D01*
X28189429Y-140148857D01*
X26665429Y-139786000D01*
X28116857Y-139278000D02*
X28189429Y-139060286D01*
X28189429Y-138697429D01*
X28116857Y-138552286D01*
X28044286Y-138479715D01*
X27899143Y-138407143D01*
X27754000Y-138407143D01*
X27608857Y-138479715D01*
X27536286Y-138552286D01*
X27463714Y-138697429D01*
X27391143Y-138987715D01*
X27318571Y-139132857D01*
X27246000Y-139205429D01*
X27100857Y-139278000D01*
X26955714Y-139278000D01*
X26810571Y-139205429D01*
X26738000Y-139132857D01*
X26665429Y-138987715D01*
X26665429Y-138624857D01*
X26738000Y-138407143D01*
X27391143Y-137246000D02*
X27463714Y-137028286D01*
X27536286Y-136955714D01*
X27681429Y-136883143D01*
X27899143Y-136883143D01*
X28044286Y-136955714D01*
X28116857Y-137028286D01*
X28189429Y-137173428D01*
X28189429Y-137754000D01*
X26665429Y-137754000D01*
X26665429Y-137246000D01*
X26738000Y-137100857D01*
X26810571Y-137028286D01*
X26955714Y-136955714D01*
X27100857Y-136955714D01*
X27246000Y-137028286D01*
X27318571Y-137100857D01*
X27391143Y-137246000D01*
X27391143Y-137754000D01*
X26810571Y-136302571D02*
X26738000Y-136230000D01*
X26665429Y-136084857D01*
X26665429Y-135722000D01*
X26738000Y-135576857D01*
X26810571Y-135504286D01*
X26955714Y-135431714D01*
X27100857Y-135431714D01*
X27318571Y-135504286D01*
X28189429Y-136375143D01*
X28189429Y-135431714D01*
X26810571Y-134851142D02*
X26738000Y-134778571D01*
X26665429Y-134633428D01*
X26665429Y-134270571D01*
X26738000Y-134125428D01*
X26810571Y-134052857D01*
X26955714Y-133980285D01*
X27100857Y-133980285D01*
X27318571Y-134052857D01*
X28189429Y-134923714D01*
X28189429Y-133980285D01*
D19*
X43839133Y-131344714D02*
X43793171Y-131390676D01*
X43655286Y-131436638D01*
X43563362Y-131436638D01*
X43425476Y-131390676D01*
X43333552Y-131298752D01*
X43287591Y-131206829D01*
X43241629Y-131022981D01*
X43241629Y-130885095D01*
X43287591Y-130701248D01*
X43333552Y-130609324D01*
X43425476Y-130517400D01*
X43563362Y-130471438D01*
X43655286Y-130471438D01*
X43793171Y-130517400D01*
X43839133Y-130563362D01*
X44160867Y-130471438D02*
X44758371Y-130471438D01*
X44436638Y-130839133D01*
X44574524Y-130839133D01*
X44666448Y-130885095D01*
X44712410Y-130931057D01*
X44758371Y-131022981D01*
X44758371Y-131252790D01*
X44712410Y-131344714D01*
X44666448Y-131390676D01*
X44574524Y-131436638D01*
X44298752Y-131436638D01*
X44206829Y-131390676D01*
X44160867Y-131344714D01*
D12*
X51665429Y-141092286D02*
X53189429Y-140729429D01*
X52100857Y-140439143D01*
X53189429Y-140148857D01*
X51665429Y-139786000D01*
X53116857Y-139278000D02*
X53189429Y-139060286D01*
X53189429Y-138697429D01*
X53116857Y-138552286D01*
X53044286Y-138479715D01*
X52899143Y-138407143D01*
X52754000Y-138407143D01*
X52608857Y-138479715D01*
X52536286Y-138552286D01*
X52463714Y-138697429D01*
X52391143Y-138987715D01*
X52318571Y-139132857D01*
X52246000Y-139205429D01*
X52100857Y-139278000D01*
X51955714Y-139278000D01*
X51810571Y-139205429D01*
X51738000Y-139132857D01*
X51665429Y-138987715D01*
X51665429Y-138624857D01*
X51738000Y-138407143D01*
X52391143Y-137246000D02*
X52463714Y-137028286D01*
X52536286Y-136955714D01*
X52681429Y-136883143D01*
X52899143Y-136883143D01*
X53044286Y-136955714D01*
X53116857Y-137028286D01*
X53189429Y-137173428D01*
X53189429Y-137754000D01*
X51665429Y-137754000D01*
X51665429Y-137246000D01*
X51738000Y-137100857D01*
X51810571Y-137028286D01*
X51955714Y-136955714D01*
X52100857Y-136955714D01*
X52246000Y-137028286D01*
X52318571Y-137100857D01*
X52391143Y-137246000D01*
X52391143Y-137754000D01*
X51810571Y-136302571D02*
X51738000Y-136230000D01*
X51665429Y-136084857D01*
X51665429Y-135722000D01*
X51738000Y-135576857D01*
X51810571Y-135504286D01*
X51955714Y-135431714D01*
X52100857Y-135431714D01*
X52318571Y-135504286D01*
X53189429Y-136375143D01*
X53189429Y-135431714D01*
X51665429Y-134923714D02*
X51665429Y-133980285D01*
X52246000Y-134488285D01*
X52246000Y-134270571D01*
X52318571Y-134125428D01*
X52391143Y-134052857D01*
X52536286Y-133980285D01*
X52899143Y-133980285D01*
X53044286Y-134052857D01*
X53116857Y-134125428D01*
X53189429Y-134270571D01*
X53189429Y-134705999D01*
X53116857Y-134851142D01*
X53044286Y-134923714D01*
D19*
X68839133Y-131344714D02*
X68793171Y-131390676D01*
X68655286Y-131436638D01*
X68563362Y-131436638D01*
X68425476Y-131390676D01*
X68333552Y-131298752D01*
X68287591Y-131206829D01*
X68241629Y-131022981D01*
X68241629Y-130885095D01*
X68287591Y-130701248D01*
X68333552Y-130609324D01*
X68425476Y-130517400D01*
X68563362Y-130471438D01*
X68655286Y-130471438D01*
X68793171Y-130517400D01*
X68839133Y-130563362D01*
X69160867Y-130471438D02*
X69758371Y-130471438D01*
X69436638Y-130839133D01*
X69574524Y-130839133D01*
X69666448Y-130885095D01*
X69712410Y-130931057D01*
X69758371Y-131022981D01*
X69758371Y-131252790D01*
X69712410Y-131344714D01*
X69666448Y-131390676D01*
X69574524Y-131436638D01*
X69298752Y-131436638D01*
X69206829Y-131390676D01*
X69160867Y-131344714D01*
D12*
X76665429Y-141092286D02*
X78189429Y-140729429D01*
X77100857Y-140439143D01*
X78189429Y-140148857D01*
X76665429Y-139786000D01*
X78116857Y-139278000D02*
X78189429Y-139060286D01*
X78189429Y-138697429D01*
X78116857Y-138552286D01*
X78044286Y-138479715D01*
X77899143Y-138407143D01*
X77754000Y-138407143D01*
X77608857Y-138479715D01*
X77536286Y-138552286D01*
X77463714Y-138697429D01*
X77391143Y-138987715D01*
X77318571Y-139132857D01*
X77246000Y-139205429D01*
X77100857Y-139278000D01*
X76955714Y-139278000D01*
X76810571Y-139205429D01*
X76738000Y-139132857D01*
X76665429Y-138987715D01*
X76665429Y-138624857D01*
X76738000Y-138407143D01*
X77391143Y-137246000D02*
X77463714Y-137028286D01*
X77536286Y-136955714D01*
X77681429Y-136883143D01*
X77899143Y-136883143D01*
X78044286Y-136955714D01*
X78116857Y-137028286D01*
X78189429Y-137173428D01*
X78189429Y-137754000D01*
X76665429Y-137754000D01*
X76665429Y-137246000D01*
X76738000Y-137100857D01*
X76810571Y-137028286D01*
X76955714Y-136955714D01*
X77100857Y-136955714D01*
X77246000Y-137028286D01*
X77318571Y-137100857D01*
X77391143Y-137246000D01*
X77391143Y-137754000D01*
X76810571Y-136302571D02*
X76738000Y-136230000D01*
X76665429Y-136084857D01*
X76665429Y-135722000D01*
X76738000Y-135576857D01*
X76810571Y-135504286D01*
X76955714Y-135431714D01*
X77100857Y-135431714D01*
X77318571Y-135504286D01*
X78189429Y-136375143D01*
X78189429Y-135431714D01*
X77173429Y-134125428D02*
X78189429Y-134125428D01*
X76592857Y-134488285D02*
X77681429Y-134851142D01*
X77681429Y-133907714D01*
D19*
X93839133Y-131344714D02*
X93793171Y-131390676D01*
X93655286Y-131436638D01*
X93563362Y-131436638D01*
X93425476Y-131390676D01*
X93333552Y-131298752D01*
X93287591Y-131206829D01*
X93241629Y-131022981D01*
X93241629Y-130885095D01*
X93287591Y-130701248D01*
X93333552Y-130609324D01*
X93425476Y-130517400D01*
X93563362Y-130471438D01*
X93655286Y-130471438D01*
X93793171Y-130517400D01*
X93839133Y-130563362D01*
X94160867Y-130471438D02*
X94758371Y-130471438D01*
X94436638Y-130839133D01*
X94574524Y-130839133D01*
X94666448Y-130885095D01*
X94712410Y-130931057D01*
X94758371Y-131022981D01*
X94758371Y-131252790D01*
X94712410Y-131344714D01*
X94666448Y-131390676D01*
X94574524Y-131436638D01*
X94298752Y-131436638D01*
X94206829Y-131390676D01*
X94160867Y-131344714D01*
D16*
X7497667Y-39873666D02*
X6608667Y-39873666D01*
X6608667Y-39662000D01*
X6651000Y-39535000D01*
X6735667Y-39450333D01*
X6820333Y-39408000D01*
X6989667Y-39365666D01*
X7116667Y-39365666D01*
X7286000Y-39408000D01*
X7370667Y-39450333D01*
X7455333Y-39535000D01*
X7497667Y-39662000D01*
X7497667Y-39873666D01*
X6905000Y-38603666D02*
X7497667Y-38603666D01*
X6566333Y-38815333D02*
X7201333Y-39027000D01*
X7201333Y-38476666D01*
X3306667Y-39894833D02*
X2417667Y-39894833D01*
X2417667Y-39683167D01*
X2460000Y-39556167D01*
X2544667Y-39471500D01*
X2629333Y-39429167D01*
X2798667Y-39386833D01*
X2925667Y-39386833D01*
X3095000Y-39429167D01*
X3179667Y-39471500D01*
X3264333Y-39556167D01*
X3306667Y-39683167D01*
X3306667Y-39894833D01*
X32497667Y-39973666D02*
X31608667Y-39973666D01*
X31608667Y-39762000D01*
X31651000Y-39635000D01*
X31735667Y-39550333D01*
X31820333Y-39508000D01*
X31989667Y-39465666D01*
X32116667Y-39465666D01*
X32286000Y-39508000D01*
X32370667Y-39550333D01*
X32455333Y-39635000D01*
X32497667Y-39762000D01*
X32497667Y-39973666D01*
X31608667Y-38661333D02*
X31608667Y-39084666D01*
X32032000Y-39127000D01*
X31989667Y-39084666D01*
X31947333Y-39000000D01*
X31947333Y-38788333D01*
X31989667Y-38703666D01*
X32032000Y-38661333D01*
X32116667Y-38619000D01*
X32328333Y-38619000D01*
X32413000Y-38661333D01*
X32455333Y-38703666D01*
X32497667Y-38788333D01*
X32497667Y-39000000D01*
X32455333Y-39084666D01*
X32413000Y-39127000D01*
X28306667Y-39994833D02*
X27417667Y-39994833D01*
X27417667Y-39783167D01*
X27460000Y-39656167D01*
X27544667Y-39571500D01*
X27629333Y-39529167D01*
X27798667Y-39486833D01*
X27925667Y-39486833D01*
X28095000Y-39529167D01*
X28179667Y-39571500D01*
X28264333Y-39656167D01*
X28306667Y-39783167D01*
X28306667Y-39994833D01*
X57497667Y-39763266D02*
X56608667Y-39763266D01*
X56608667Y-39551600D01*
X56651000Y-39424600D01*
X56735667Y-39339933D01*
X56820333Y-39297600D01*
X56989667Y-39255266D01*
X57116667Y-39255266D01*
X57286000Y-39297600D01*
X57370667Y-39339933D01*
X57455333Y-39424600D01*
X57497667Y-39551600D01*
X57497667Y-39763266D01*
X56608667Y-38493266D02*
X56608667Y-38662600D01*
X56651000Y-38747266D01*
X56693333Y-38789600D01*
X56820333Y-38874266D01*
X56989667Y-38916600D01*
X57328333Y-38916600D01*
X57413000Y-38874266D01*
X57455333Y-38831933D01*
X57497667Y-38747266D01*
X57497667Y-38577933D01*
X57455333Y-38493266D01*
X57413000Y-38450933D01*
X57328333Y-38408600D01*
X57116667Y-38408600D01*
X57032000Y-38450933D01*
X56989667Y-38493266D01*
X56947333Y-38577933D01*
X56947333Y-38747266D01*
X56989667Y-38831933D01*
X57032000Y-38874266D01*
X57116667Y-38916600D01*
X53306667Y-39784433D02*
X52417667Y-39784433D01*
X52417667Y-39572767D01*
X52460000Y-39445767D01*
X52544667Y-39361100D01*
X52629333Y-39318767D01*
X52798667Y-39276433D01*
X52925667Y-39276433D01*
X53095000Y-39318767D01*
X53179667Y-39361100D01*
X53264333Y-39445767D01*
X53306667Y-39572767D01*
X53306667Y-39784433D01*
X82497667Y-39973666D02*
X81608667Y-39973666D01*
X81608667Y-39762000D01*
X81651000Y-39635000D01*
X81735667Y-39550333D01*
X81820333Y-39508000D01*
X81989667Y-39465666D01*
X82116667Y-39465666D01*
X82286000Y-39508000D01*
X82370667Y-39550333D01*
X82455333Y-39635000D01*
X82497667Y-39762000D01*
X82497667Y-39973666D01*
X81608667Y-39169333D02*
X81608667Y-38576666D01*
X82497667Y-38957666D01*
X78306667Y-39994833D02*
X77417667Y-39994833D01*
X77417667Y-39783167D01*
X77460000Y-39656167D01*
X77544667Y-39571500D01*
X77629333Y-39529167D01*
X77798667Y-39486833D01*
X77925667Y-39486833D01*
X78095000Y-39529167D01*
X78179667Y-39571500D01*
X78264333Y-39656167D01*
X78306667Y-39783167D01*
X78306667Y-39994833D01*
X82161334Y-31006667D02*
X82161334Y-30117667D01*
X82373000Y-30117667D01*
X82500000Y-30160000D01*
X82584667Y-30244667D01*
X82627000Y-30329333D01*
X82669334Y-30498667D01*
X82669334Y-30625667D01*
X82627000Y-30795000D01*
X82584667Y-30879667D01*
X82500000Y-30964333D01*
X82373000Y-31006667D01*
X82161334Y-31006667D01*
X83177334Y-30498667D02*
X83092667Y-30456333D01*
X83050334Y-30414000D01*
X83008000Y-30329333D01*
X83008000Y-30287000D01*
X83050334Y-30202333D01*
X83092667Y-30160000D01*
X83177334Y-30117667D01*
X83346667Y-30117667D01*
X83431334Y-30160000D01*
X83473667Y-30202333D01*
X83516000Y-30287000D01*
X83516000Y-30329333D01*
X83473667Y-30414000D01*
X83431334Y-30456333D01*
X83346667Y-30498667D01*
X83177334Y-30498667D01*
X83092667Y-30541000D01*
X83050334Y-30583333D01*
X83008000Y-30668000D01*
X83008000Y-30837333D01*
X83050334Y-30922000D01*
X83092667Y-30964333D01*
X83177334Y-31006667D01*
X83346667Y-31006667D01*
X83431334Y-30964333D01*
X83473667Y-30922000D01*
X83516000Y-30837333D01*
X83516000Y-30668000D01*
X83473667Y-30583333D01*
X83431334Y-30541000D01*
X83346667Y-30498667D01*
X83029167Y-35197667D02*
X83029167Y-34308667D01*
X83240833Y-34308667D01*
X83367833Y-34351000D01*
X83452500Y-34435667D01*
X83494833Y-34520333D01*
X83537167Y-34689667D01*
X83537167Y-34816667D01*
X83494833Y-34986000D01*
X83452500Y-35070667D01*
X83367833Y-35155333D01*
X83240833Y-35197667D01*
X83029167Y-35197667D01*
X7497667Y-46973666D02*
X6608667Y-46973666D01*
X6608667Y-46762000D01*
X6651000Y-46635000D01*
X6735667Y-46550333D01*
X6820333Y-46508000D01*
X6989667Y-46465666D01*
X7116667Y-46465666D01*
X7286000Y-46508000D01*
X7370667Y-46550333D01*
X7455333Y-46635000D01*
X7497667Y-46762000D01*
X7497667Y-46973666D01*
X7497667Y-46042333D02*
X7497667Y-45873000D01*
X7455333Y-45788333D01*
X7413000Y-45746000D01*
X7286000Y-45661333D01*
X7116667Y-45619000D01*
X6778000Y-45619000D01*
X6693333Y-45661333D01*
X6651000Y-45703666D01*
X6608667Y-45788333D01*
X6608667Y-45957666D01*
X6651000Y-46042333D01*
X6693333Y-46084666D01*
X6778000Y-46127000D01*
X6989667Y-46127000D01*
X7074333Y-46084666D01*
X7116667Y-46042333D01*
X7159000Y-45957666D01*
X7159000Y-45788333D01*
X7116667Y-45703666D01*
X7074333Y-45661333D01*
X6989667Y-45619000D01*
X3306667Y-46994833D02*
X2417667Y-46994833D01*
X2417667Y-46783167D01*
X2460000Y-46656167D01*
X2544667Y-46571500D01*
X2629333Y-46529167D01*
X2798667Y-46486833D01*
X2925667Y-46486833D01*
X3095000Y-46529167D01*
X3179667Y-46571500D01*
X3264333Y-46656167D01*
X3306667Y-46783167D01*
X3306667Y-46994833D01*
X32497667Y-47397000D02*
X31608667Y-47397000D01*
X31608667Y-47185334D01*
X31651000Y-47058334D01*
X31735667Y-46973667D01*
X31820333Y-46931334D01*
X31989667Y-46889000D01*
X32116667Y-46889000D01*
X32286000Y-46931334D01*
X32370667Y-46973667D01*
X32455333Y-47058334D01*
X32497667Y-47185334D01*
X32497667Y-47397000D01*
X32497667Y-46042334D02*
X32497667Y-46550334D01*
X32497667Y-46296334D02*
X31608667Y-46296334D01*
X31735667Y-46381000D01*
X31820333Y-46465667D01*
X31862667Y-46550334D01*
X31608667Y-45492000D02*
X31608667Y-45407333D01*
X31651000Y-45322667D01*
X31693333Y-45280333D01*
X31778000Y-45238000D01*
X31947333Y-45195667D01*
X32159000Y-45195667D01*
X32328333Y-45238000D01*
X32413000Y-45280333D01*
X32455333Y-45322667D01*
X32497667Y-45407333D01*
X32497667Y-45492000D01*
X32455333Y-45576667D01*
X32413000Y-45619000D01*
X32328333Y-45661333D01*
X32159000Y-45703667D01*
X31947333Y-45703667D01*
X31778000Y-45661333D01*
X31693333Y-45619000D01*
X31651000Y-45576667D01*
X31608667Y-45492000D01*
X28306667Y-46994833D02*
X27417667Y-46994833D01*
X27417667Y-46783167D01*
X27460000Y-46656167D01*
X27544667Y-46571500D01*
X27629333Y-46529167D01*
X27798667Y-46486833D01*
X27925667Y-46486833D01*
X28095000Y-46529167D01*
X28179667Y-46571500D01*
X28264333Y-46656167D01*
X28306667Y-46783167D01*
X28306667Y-46994833D01*
X57497667Y-47397000D02*
X56608667Y-47397000D01*
X56608667Y-47185334D01*
X56651000Y-47058334D01*
X56735667Y-46973667D01*
X56820333Y-46931334D01*
X56989667Y-46889000D01*
X57116667Y-46889000D01*
X57286000Y-46931334D01*
X57370667Y-46973667D01*
X57455333Y-47058334D01*
X57497667Y-47185334D01*
X57497667Y-47397000D01*
X57497667Y-46042334D02*
X57497667Y-46550334D01*
X57497667Y-46296334D02*
X56608667Y-46296334D01*
X56735667Y-46381000D01*
X56820333Y-46465667D01*
X56862667Y-46550334D01*
X57497667Y-45195667D02*
X57497667Y-45703667D01*
X57497667Y-45449667D02*
X56608667Y-45449667D01*
X56735667Y-45534333D01*
X56820333Y-45619000D01*
X56862667Y-45703667D01*
X53306667Y-46994833D02*
X52417667Y-46994833D01*
X52417667Y-46783167D01*
X52460000Y-46656167D01*
X52544667Y-46571500D01*
X52629333Y-46529167D01*
X52798667Y-46486833D01*
X52925667Y-46486833D01*
X53095000Y-46529167D01*
X53179667Y-46571500D01*
X53264333Y-46656167D01*
X53306667Y-46783167D01*
X53306667Y-46994833D01*
X82497667Y-47397000D02*
X81608667Y-47397000D01*
X81608667Y-47185334D01*
X81651000Y-47058334D01*
X81735667Y-46973667D01*
X81820333Y-46931334D01*
X81989667Y-46889000D01*
X82116667Y-46889000D01*
X82286000Y-46931334D01*
X82370667Y-46973667D01*
X82455333Y-47058334D01*
X82497667Y-47185334D01*
X82497667Y-47397000D01*
X82497667Y-46042334D02*
X82497667Y-46550334D01*
X82497667Y-46296334D02*
X81608667Y-46296334D01*
X81735667Y-46381000D01*
X81820333Y-46465667D01*
X81862667Y-46550334D01*
X81693333Y-45703667D02*
X81651000Y-45661333D01*
X81608667Y-45576667D01*
X81608667Y-45365000D01*
X81651000Y-45280333D01*
X81693333Y-45238000D01*
X81778000Y-45195667D01*
X81862667Y-45195667D01*
X81989667Y-45238000D01*
X82497667Y-45746000D01*
X82497667Y-45195667D01*
X78306667Y-46994833D02*
X77417667Y-46994833D01*
X77417667Y-46783167D01*
X77460000Y-46656167D01*
X77544667Y-46571500D01*
X77629333Y-46529167D01*
X77798667Y-46486833D01*
X77925667Y-46486833D01*
X78095000Y-46529167D01*
X78179667Y-46571500D01*
X78264333Y-46656167D01*
X78306667Y-46783167D01*
X78306667Y-46994833D01*
X2306667Y-156762000D02*
X1417667Y-156762000D01*
X1417667Y-156550334D01*
X1460000Y-156423334D01*
X1544667Y-156338667D01*
X1629333Y-156296334D01*
X1798667Y-156254000D01*
X1925667Y-156254000D01*
X2095000Y-156296334D01*
X2179667Y-156338667D01*
X2264333Y-156423334D01*
X2306667Y-156550334D01*
X2306667Y-156762000D01*
X1502333Y-155915334D02*
X1460000Y-155873000D01*
X1417667Y-155788334D01*
X1417667Y-155576667D01*
X1460000Y-155492000D01*
X1502333Y-155449667D01*
X1587000Y-155407334D01*
X1671667Y-155407334D01*
X1798667Y-155449667D01*
X2306667Y-155957667D01*
X2306667Y-155407334D01*
X2306667Y-154984000D02*
X2306667Y-154814667D01*
X2264333Y-154730000D01*
X2222000Y-154687667D01*
X2095000Y-154603000D01*
X1925667Y-154560667D01*
X1587000Y-154560667D01*
X1502333Y-154603000D01*
X1460000Y-154645333D01*
X1417667Y-154730000D01*
X1417667Y-154899333D01*
X1460000Y-154984000D01*
X1502333Y-155026333D01*
X1587000Y-155068667D01*
X1798667Y-155068667D01*
X1883333Y-155026333D01*
X1925667Y-154984000D01*
X1968000Y-154899333D01*
X1968000Y-154730000D01*
X1925667Y-154645333D01*
X1883333Y-154603000D01*
X1798667Y-154560667D01*
X2467167Y-158017833D02*
X1578167Y-158017833D01*
X1578167Y-157806167D01*
X1620500Y-157679167D01*
X1705167Y-157594500D01*
X1789833Y-157552167D01*
X1959167Y-157509833D01*
X2086167Y-157509833D01*
X2255500Y-157552167D01*
X2340167Y-157594500D01*
X2424833Y-157679167D01*
X2467167Y-157806167D01*
X2467167Y-158017833D01*
X27306667Y-156762000D02*
X26417667Y-156762000D01*
X26417667Y-156550334D01*
X26460000Y-156423334D01*
X26544667Y-156338667D01*
X26629333Y-156296334D01*
X26798667Y-156254000D01*
X26925667Y-156254000D01*
X27095000Y-156296334D01*
X27179667Y-156338667D01*
X27264333Y-156423334D01*
X27306667Y-156550334D01*
X27306667Y-156762000D01*
X26417667Y-155957667D02*
X26417667Y-155407334D01*
X26756333Y-155703667D01*
X26756333Y-155576667D01*
X26798667Y-155492000D01*
X26841000Y-155449667D01*
X26925667Y-155407334D01*
X27137333Y-155407334D01*
X27222000Y-155449667D01*
X27264333Y-155492000D01*
X27306667Y-155576667D01*
X27306667Y-155830667D01*
X27264333Y-155915334D01*
X27222000Y-155957667D01*
X26417667Y-154857000D02*
X26417667Y-154772333D01*
X26460000Y-154687667D01*
X26502333Y-154645333D01*
X26587000Y-154603000D01*
X26756333Y-154560667D01*
X26968000Y-154560667D01*
X27137333Y-154603000D01*
X27222000Y-154645333D01*
X27264333Y-154687667D01*
X27306667Y-154772333D01*
X27306667Y-154857000D01*
X27264333Y-154941667D01*
X27222000Y-154984000D01*
X27137333Y-155026333D01*
X26968000Y-155068667D01*
X26756333Y-155068667D01*
X26587000Y-155026333D01*
X26502333Y-154984000D01*
X26460000Y-154941667D01*
X26417667Y-154857000D01*
X27267167Y-157807833D02*
X26378167Y-157807833D01*
X26378167Y-157596167D01*
X26420500Y-157469167D01*
X26505167Y-157384500D01*
X26589833Y-157342167D01*
X26759167Y-157299833D01*
X26886167Y-157299833D01*
X27055500Y-157342167D01*
X27140167Y-157384500D01*
X27224833Y-157469167D01*
X27267167Y-157596167D01*
X27267167Y-157807833D01*
X52467167Y-156454500D02*
X51578167Y-156454500D01*
X51578167Y-156242834D01*
X51620500Y-156115834D01*
X51705167Y-156031167D01*
X51789833Y-155988834D01*
X51959167Y-155946500D01*
X52086167Y-155946500D01*
X52255500Y-155988834D01*
X52340167Y-156031167D01*
X52424833Y-156115834D01*
X52467167Y-156242834D01*
X52467167Y-156454500D01*
X51578167Y-155650167D02*
X51578167Y-155099834D01*
X51916833Y-155396167D01*
X51916833Y-155269167D01*
X51959167Y-155184500D01*
X52001500Y-155142167D01*
X52086167Y-155099834D01*
X52297833Y-155099834D01*
X52382500Y-155142167D01*
X52424833Y-155184500D01*
X52467167Y-155269167D01*
X52467167Y-155523167D01*
X52424833Y-155607834D01*
X52382500Y-155650167D01*
X52467167Y-154253167D02*
X52467167Y-154761167D01*
X52467167Y-154507167D02*
X51578167Y-154507167D01*
X51705167Y-154591833D01*
X51789833Y-154676500D01*
X51832167Y-154761167D01*
X52367167Y-157907833D02*
X51478167Y-157907833D01*
X51478167Y-157696167D01*
X51520500Y-157569167D01*
X51605167Y-157484500D01*
X51689833Y-157442167D01*
X51859167Y-157399833D01*
X51986167Y-157399833D01*
X52155500Y-157442167D01*
X52240167Y-157484500D01*
X52324833Y-157569167D01*
X52367167Y-157696167D01*
X52367167Y-157907833D01*
X77367167Y-156762000D02*
X76478167Y-156762000D01*
X76478167Y-156550334D01*
X76520500Y-156423334D01*
X76605167Y-156338667D01*
X76689833Y-156296334D01*
X76859167Y-156254000D01*
X76986167Y-156254000D01*
X77155500Y-156296334D01*
X77240167Y-156338667D01*
X77324833Y-156423334D01*
X77367167Y-156550334D01*
X77367167Y-156762000D01*
X76478167Y-155957667D02*
X76478167Y-155407334D01*
X76816833Y-155703667D01*
X76816833Y-155576667D01*
X76859167Y-155492000D01*
X76901500Y-155449667D01*
X76986167Y-155407334D01*
X77197833Y-155407334D01*
X77282500Y-155449667D01*
X77324833Y-155492000D01*
X77367167Y-155576667D01*
X77367167Y-155830667D01*
X77324833Y-155915334D01*
X77282500Y-155957667D01*
X76562833Y-155068667D02*
X76520500Y-155026333D01*
X76478167Y-154941667D01*
X76478167Y-154730000D01*
X76520500Y-154645333D01*
X76562833Y-154603000D01*
X76647500Y-154560667D01*
X76732167Y-154560667D01*
X76859167Y-154603000D01*
X77367167Y-155111000D01*
X77367167Y-154560667D01*
X77367167Y-158109833D02*
X76478167Y-158109833D01*
X76478167Y-157898167D01*
X76520500Y-157771167D01*
X76605167Y-157686500D01*
X76689833Y-157644167D01*
X76859167Y-157601833D01*
X76986167Y-157601833D01*
X77155500Y-157644167D01*
X77240167Y-157686500D01*
X77324833Y-157771167D01*
X77367167Y-157898167D01*
X77367167Y-158109833D01*
X90738000Y-31306667D02*
X90738000Y-30417667D01*
X90949666Y-30417667D01*
X91076666Y-30460000D01*
X91161333Y-30544667D01*
X91203666Y-30629333D01*
X91246000Y-30798667D01*
X91246000Y-30925667D01*
X91203666Y-31095000D01*
X91161333Y-31179667D01*
X91076666Y-31264333D01*
X90949666Y-31306667D01*
X90738000Y-31306667D01*
X91542333Y-30417667D02*
X92092666Y-30417667D01*
X91796333Y-30756333D01*
X91923333Y-30756333D01*
X92008000Y-30798667D01*
X92050333Y-30841000D01*
X92092666Y-30925667D01*
X92092666Y-31137333D01*
X92050333Y-31222000D01*
X92008000Y-31264333D01*
X91923333Y-31306667D01*
X91669333Y-31306667D01*
X91584666Y-31264333D01*
X91542333Y-31222000D01*
X92854667Y-30714000D02*
X92854667Y-31306667D01*
X92643000Y-30375333D02*
X92431333Y-31010333D01*
X92981667Y-31010333D01*
X92029167Y-35497667D02*
X92029167Y-34608667D01*
X92240833Y-34608667D01*
X92367833Y-34651000D01*
X92452500Y-34735667D01*
X92494833Y-34820333D01*
X92537167Y-34989667D01*
X92537167Y-35116667D01*
X92494833Y-35286000D01*
X92452500Y-35370667D01*
X92367833Y-35455333D01*
X92240833Y-35497667D01*
X92029167Y-35497667D01*
X2402167Y-40571500D02*
X1978833Y-40867834D01*
X2402167Y-41079500D02*
X1513167Y-41079500D01*
X1513167Y-40740834D01*
X1555500Y-40656167D01*
X1597833Y-40613834D01*
X1682500Y-40571500D01*
X1809500Y-40571500D01*
X1894167Y-40613834D01*
X1936500Y-40656167D01*
X1978833Y-40740834D01*
X1978833Y-41079500D01*
X1597833Y-40232834D02*
X1555500Y-40190500D01*
X1513167Y-40105834D01*
X1513167Y-39894167D01*
X1555500Y-39809500D01*
X1597833Y-39767167D01*
X1682500Y-39724834D01*
X1767167Y-39724834D01*
X1894167Y-39767167D01*
X2402167Y-40275167D01*
X2402167Y-39724834D01*
X1513167Y-38920500D02*
X1513167Y-39343833D01*
X1936500Y-39386167D01*
X1894167Y-39343833D01*
X1851833Y-39259167D01*
X1851833Y-39047500D01*
X1894167Y-38962833D01*
X1936500Y-38920500D01*
X2021167Y-38878167D01*
X2232833Y-38878167D01*
X2317500Y-38920500D01*
X2359833Y-38962833D01*
X2402167Y-39047500D01*
X2402167Y-39259167D01*
X2359833Y-39343833D01*
X2317500Y-39386167D01*
D20*
X863929Y-43483810D02*
X1287262Y-43483810D01*
X622024Y-43635000D02*
X1075595Y-43786191D01*
X1075595Y-43393095D01*
X652262Y-43211667D02*
X652262Y-42788333D01*
X1287262Y-43060476D01*
X652262Y-42425476D02*
X652262Y-42365000D01*
X682500Y-42304524D01*
X712738Y-42274286D01*
X773214Y-42244048D01*
X894167Y-42213809D01*
X1045357Y-42213809D01*
X1166310Y-42244048D01*
X1226786Y-42274286D01*
X1257024Y-42304524D01*
X1287262Y-42365000D01*
X1287262Y-42425476D01*
X1257024Y-42485952D01*
X1226786Y-42516190D01*
X1166310Y-42546429D01*
X1045357Y-42576667D01*
X894167Y-42576667D01*
X773214Y-42546429D01*
X712738Y-42516190D01*
X682500Y-42485952D01*
X652262Y-42425476D01*
D16*
X35497166Y-35742873D02*
X35624166Y-35785207D01*
X35835833Y-35785207D01*
X35920500Y-35742873D01*
X35962833Y-35700540D01*
X36005166Y-35615873D01*
X36005166Y-35531207D01*
X35962833Y-35446540D01*
X35920500Y-35404207D01*
X35835833Y-35361873D01*
X35666500Y-35319540D01*
X35581833Y-35277207D01*
X35539500Y-35234873D01*
X35497166Y-35150207D01*
X35497166Y-35065540D01*
X35539500Y-34980873D01*
X35581833Y-34938540D01*
X35666500Y-34896207D01*
X35878166Y-34896207D01*
X36005166Y-34938540D01*
X36301500Y-34896207D02*
X36513167Y-35785207D01*
X36682500Y-35150207D01*
X36851833Y-35785207D01*
X37063500Y-34896207D01*
X37783167Y-35192540D02*
X37783167Y-35785207D01*
X37571500Y-34853873D02*
X37359833Y-35488873D01*
X37910167Y-35488873D01*
X34100167Y-43359833D02*
X34227167Y-43402167D01*
X34438834Y-43402167D01*
X34523501Y-43359833D01*
X34565834Y-43317500D01*
X34608167Y-43232833D01*
X34608167Y-43148167D01*
X34565834Y-43063500D01*
X34523501Y-43021167D01*
X34438834Y-42978833D01*
X34269501Y-42936500D01*
X34184834Y-42894167D01*
X34142501Y-42851833D01*
X34100167Y-42767167D01*
X34100167Y-42682500D01*
X34142501Y-42597833D01*
X34184834Y-42555500D01*
X34269501Y-42513167D01*
X34481167Y-42513167D01*
X34608167Y-42555500D01*
X34904501Y-42513167D02*
X35116168Y-43402167D01*
X35285501Y-42767167D01*
X35454834Y-43402167D01*
X35666501Y-42513167D01*
X35793501Y-43486833D02*
X36470834Y-43486833D01*
X36682501Y-43402167D02*
X36682501Y-42513167D01*
X37021167Y-42513167D01*
X37105834Y-42555500D01*
X37148167Y-42597833D01*
X37190501Y-42682500D01*
X37190501Y-42809500D01*
X37148167Y-42894167D01*
X37105834Y-42936500D01*
X37021167Y-42978833D01*
X36682501Y-42978833D01*
X37571501Y-42513167D02*
X37571501Y-43232833D01*
X37613834Y-43317500D01*
X37656167Y-43359833D01*
X37740834Y-43402167D01*
X37910167Y-43402167D01*
X37994834Y-43359833D01*
X38037167Y-43317500D01*
X38079501Y-43232833D01*
X38079501Y-42513167D01*
X38460500Y-43359833D02*
X38587500Y-43402167D01*
X38799167Y-43402167D01*
X38883834Y-43359833D01*
X38926167Y-43317500D01*
X38968500Y-43232833D01*
X38968500Y-43148167D01*
X38926167Y-43063500D01*
X38883834Y-43021167D01*
X38799167Y-42978833D01*
X38629834Y-42936500D01*
X38545167Y-42894167D01*
X38502834Y-42851833D01*
X38460500Y-42767167D01*
X38460500Y-42682500D01*
X38502834Y-42597833D01*
X38545167Y-42555500D01*
X38629834Y-42513167D01*
X38841500Y-42513167D01*
X38968500Y-42555500D01*
X39349501Y-43402167D02*
X39349501Y-42513167D01*
X39349501Y-42936500D02*
X39857501Y-42936500D01*
X39857501Y-43402167D02*
X39857501Y-42513167D01*
X60497166Y-35742873D02*
X60624166Y-35785207D01*
X60835833Y-35785207D01*
X60920500Y-35742873D01*
X60962833Y-35700540D01*
X61005166Y-35615873D01*
X61005166Y-35531207D01*
X60962833Y-35446540D01*
X60920500Y-35404207D01*
X60835833Y-35361873D01*
X60666500Y-35319540D01*
X60581833Y-35277207D01*
X60539500Y-35234873D01*
X60497166Y-35150207D01*
X60497166Y-35065540D01*
X60539500Y-34980873D01*
X60581833Y-34938540D01*
X60666500Y-34896207D01*
X60878166Y-34896207D01*
X61005166Y-34938540D01*
X61301500Y-34896207D02*
X61513167Y-35785207D01*
X61682500Y-35150207D01*
X61851833Y-35785207D01*
X62063500Y-34896207D01*
X62825500Y-34896207D02*
X62402167Y-34896207D01*
X62359833Y-35319540D01*
X62402167Y-35277207D01*
X62486833Y-35234873D01*
X62698500Y-35234873D01*
X62783167Y-35277207D01*
X62825500Y-35319540D01*
X62867833Y-35404207D01*
X62867833Y-35615873D01*
X62825500Y-35700540D01*
X62783167Y-35742873D01*
X62698500Y-35785207D01*
X62486833Y-35785207D01*
X62402167Y-35742873D01*
X62359833Y-35700540D01*
X59100167Y-43359833D02*
X59227167Y-43402167D01*
X59438834Y-43402167D01*
X59523501Y-43359833D01*
X59565834Y-43317500D01*
X59608167Y-43232833D01*
X59608167Y-43148167D01*
X59565834Y-43063500D01*
X59523501Y-43021167D01*
X59438834Y-42978833D01*
X59269501Y-42936500D01*
X59184834Y-42894167D01*
X59142501Y-42851833D01*
X59100167Y-42767167D01*
X59100167Y-42682500D01*
X59142501Y-42597833D01*
X59184834Y-42555500D01*
X59269501Y-42513167D01*
X59481167Y-42513167D01*
X59608167Y-42555500D01*
X59904501Y-42513167D02*
X60116168Y-43402167D01*
X60285501Y-42767167D01*
X60454834Y-43402167D01*
X60666501Y-42513167D01*
X60793501Y-43486833D02*
X61470834Y-43486833D01*
X61682501Y-43402167D02*
X61682501Y-42513167D01*
X62021167Y-42513167D01*
X62105834Y-42555500D01*
X62148167Y-42597833D01*
X62190501Y-42682500D01*
X62190501Y-42809500D01*
X62148167Y-42894167D01*
X62105834Y-42936500D01*
X62021167Y-42978833D01*
X61682501Y-42978833D01*
X62571501Y-42513167D02*
X62571501Y-43232833D01*
X62613834Y-43317500D01*
X62656167Y-43359833D01*
X62740834Y-43402167D01*
X62910167Y-43402167D01*
X62994834Y-43359833D01*
X63037167Y-43317500D01*
X63079501Y-43232833D01*
X63079501Y-42513167D01*
X63460500Y-43359833D02*
X63587500Y-43402167D01*
X63799167Y-43402167D01*
X63883834Y-43359833D01*
X63926167Y-43317500D01*
X63968500Y-43232833D01*
X63968500Y-43148167D01*
X63926167Y-43063500D01*
X63883834Y-43021167D01*
X63799167Y-42978833D01*
X63629834Y-42936500D01*
X63545167Y-42894167D01*
X63502834Y-42851833D01*
X63460500Y-42767167D01*
X63460500Y-42682500D01*
X63502834Y-42597833D01*
X63545167Y-42555500D01*
X63629834Y-42513167D01*
X63841500Y-42513167D01*
X63968500Y-42555500D01*
X64349501Y-43402167D02*
X64349501Y-42513167D01*
X64349501Y-42936500D02*
X64857501Y-42936500D01*
X64857501Y-43402167D02*
X64857501Y-42513167D01*
X85497166Y-35742873D02*
X85624166Y-35785207D01*
X85835833Y-35785207D01*
X85920500Y-35742873D01*
X85962833Y-35700540D01*
X86005166Y-35615873D01*
X86005166Y-35531207D01*
X85962833Y-35446540D01*
X85920500Y-35404207D01*
X85835833Y-35361873D01*
X85666500Y-35319540D01*
X85581833Y-35277207D01*
X85539500Y-35234873D01*
X85497166Y-35150207D01*
X85497166Y-35065540D01*
X85539500Y-34980873D01*
X85581833Y-34938540D01*
X85666500Y-34896207D01*
X85878166Y-34896207D01*
X86005166Y-34938540D01*
X86301500Y-34896207D02*
X86513167Y-35785207D01*
X86682500Y-35150207D01*
X86851833Y-35785207D01*
X87063500Y-34896207D01*
X87783167Y-34896207D02*
X87613833Y-34896207D01*
X87529167Y-34938540D01*
X87486833Y-34980873D01*
X87402167Y-35107873D01*
X87359833Y-35277207D01*
X87359833Y-35615873D01*
X87402167Y-35700540D01*
X87444500Y-35742873D01*
X87529167Y-35785207D01*
X87698500Y-35785207D01*
X87783167Y-35742873D01*
X87825500Y-35700540D01*
X87867833Y-35615873D01*
X87867833Y-35404207D01*
X87825500Y-35319540D01*
X87783167Y-35277207D01*
X87698500Y-35234873D01*
X87529167Y-35234873D01*
X87444500Y-35277207D01*
X87402167Y-35319540D01*
X87359833Y-35404207D01*
X84100167Y-43359833D02*
X84227167Y-43402167D01*
X84438834Y-43402167D01*
X84523501Y-43359833D01*
X84565834Y-43317500D01*
X84608167Y-43232833D01*
X84608167Y-43148167D01*
X84565834Y-43063500D01*
X84523501Y-43021167D01*
X84438834Y-42978833D01*
X84269501Y-42936500D01*
X84184834Y-42894167D01*
X84142501Y-42851833D01*
X84100167Y-42767167D01*
X84100167Y-42682500D01*
X84142501Y-42597833D01*
X84184834Y-42555500D01*
X84269501Y-42513167D01*
X84481167Y-42513167D01*
X84608167Y-42555500D01*
X84904501Y-42513167D02*
X85116168Y-43402167D01*
X85285501Y-42767167D01*
X85454834Y-43402167D01*
X85666501Y-42513167D01*
X85793501Y-43486833D02*
X86470834Y-43486833D01*
X86682501Y-43402167D02*
X86682501Y-42513167D01*
X87021167Y-42513167D01*
X87105834Y-42555500D01*
X87148167Y-42597833D01*
X87190501Y-42682500D01*
X87190501Y-42809500D01*
X87148167Y-42894167D01*
X87105834Y-42936500D01*
X87021167Y-42978833D01*
X86682501Y-42978833D01*
X87571501Y-42513167D02*
X87571501Y-43232833D01*
X87613834Y-43317500D01*
X87656167Y-43359833D01*
X87740834Y-43402167D01*
X87910167Y-43402167D01*
X87994834Y-43359833D01*
X88037167Y-43317500D01*
X88079501Y-43232833D01*
X88079501Y-42513167D01*
X88460500Y-43359833D02*
X88587500Y-43402167D01*
X88799167Y-43402167D01*
X88883834Y-43359833D01*
X88926167Y-43317500D01*
X88968500Y-43232833D01*
X88968500Y-43148167D01*
X88926167Y-43063500D01*
X88883834Y-43021167D01*
X88799167Y-42978833D01*
X88629834Y-42936500D01*
X88545167Y-42894167D01*
X88502834Y-42851833D01*
X88460500Y-42767167D01*
X88460500Y-42682500D01*
X88502834Y-42597833D01*
X88545167Y-42555500D01*
X88629834Y-42513167D01*
X88841500Y-42513167D01*
X88968500Y-42555500D01*
X89349501Y-43402167D02*
X89349501Y-42513167D01*
X89349501Y-42936500D02*
X89857501Y-42936500D01*
X89857501Y-43402167D02*
X89857501Y-42513167D01*
X10497166Y-42742873D02*
X10624166Y-42785207D01*
X10835833Y-42785207D01*
X10920500Y-42742873D01*
X10962833Y-42700540D01*
X11005166Y-42615873D01*
X11005166Y-42531207D01*
X10962833Y-42446540D01*
X10920500Y-42404207D01*
X10835833Y-42361873D01*
X10666500Y-42319540D01*
X10581833Y-42277207D01*
X10539500Y-42234873D01*
X10497166Y-42150207D01*
X10497166Y-42065540D01*
X10539500Y-41980873D01*
X10581833Y-41938540D01*
X10666500Y-41896207D01*
X10878166Y-41896207D01*
X11005166Y-41938540D01*
X11301500Y-41896207D02*
X11513167Y-42785207D01*
X11682500Y-42150207D01*
X11851833Y-42785207D01*
X12063500Y-41896207D01*
X12317500Y-41896207D02*
X12910167Y-41896207D01*
X12529167Y-42785207D01*
X9100167Y-50359833D02*
X9227167Y-50402167D01*
X9438834Y-50402167D01*
X9523501Y-50359833D01*
X9565834Y-50317500D01*
X9608167Y-50232833D01*
X9608167Y-50148167D01*
X9565834Y-50063500D01*
X9523501Y-50021167D01*
X9438834Y-49978833D01*
X9269501Y-49936500D01*
X9184834Y-49894167D01*
X9142501Y-49851833D01*
X9100167Y-49767167D01*
X9100167Y-49682500D01*
X9142501Y-49597833D01*
X9184834Y-49555500D01*
X9269501Y-49513167D01*
X9481167Y-49513167D01*
X9608167Y-49555500D01*
X9904501Y-49513167D02*
X10116168Y-50402167D01*
X10285501Y-49767167D01*
X10454834Y-50402167D01*
X10666501Y-49513167D01*
X10793501Y-50486833D02*
X11470834Y-50486833D01*
X11682501Y-50402167D02*
X11682501Y-49513167D01*
X12021167Y-49513167D01*
X12105834Y-49555500D01*
X12148167Y-49597833D01*
X12190501Y-49682500D01*
X12190501Y-49809500D01*
X12148167Y-49894167D01*
X12105834Y-49936500D01*
X12021167Y-49978833D01*
X11682501Y-49978833D01*
X12571501Y-49513167D02*
X12571501Y-50232833D01*
X12613834Y-50317500D01*
X12656167Y-50359833D01*
X12740834Y-50402167D01*
X12910167Y-50402167D01*
X12994834Y-50359833D01*
X13037167Y-50317500D01*
X13079501Y-50232833D01*
X13079501Y-49513167D01*
X13460500Y-50359833D02*
X13587500Y-50402167D01*
X13799167Y-50402167D01*
X13883834Y-50359833D01*
X13926167Y-50317500D01*
X13968500Y-50232833D01*
X13968500Y-50148167D01*
X13926167Y-50063500D01*
X13883834Y-50021167D01*
X13799167Y-49978833D01*
X13629834Y-49936500D01*
X13545167Y-49894167D01*
X13502834Y-49851833D01*
X13460500Y-49767167D01*
X13460500Y-49682500D01*
X13502834Y-49597833D01*
X13545167Y-49555500D01*
X13629834Y-49513167D01*
X13841500Y-49513167D01*
X13968500Y-49555500D01*
X14349501Y-50402167D02*
X14349501Y-49513167D01*
X14349501Y-49936500D02*
X14857501Y-49936500D01*
X14857501Y-50402167D02*
X14857501Y-49513167D01*
X35497166Y-42742873D02*
X35624166Y-42785207D01*
X35835833Y-42785207D01*
X35920500Y-42742873D01*
X35962833Y-42700540D01*
X36005166Y-42615873D01*
X36005166Y-42531207D01*
X35962833Y-42446540D01*
X35920500Y-42404207D01*
X35835833Y-42361873D01*
X35666500Y-42319540D01*
X35581833Y-42277207D01*
X35539500Y-42234873D01*
X35497166Y-42150207D01*
X35497166Y-42065540D01*
X35539500Y-41980873D01*
X35581833Y-41938540D01*
X35666500Y-41896207D01*
X35878166Y-41896207D01*
X36005166Y-41938540D01*
X36301500Y-41896207D02*
X36513167Y-42785207D01*
X36682500Y-42150207D01*
X36851833Y-42785207D01*
X37063500Y-41896207D01*
X37529167Y-42277207D02*
X37444500Y-42234873D01*
X37402167Y-42192540D01*
X37359833Y-42107873D01*
X37359833Y-42065540D01*
X37402167Y-41980873D01*
X37444500Y-41938540D01*
X37529167Y-41896207D01*
X37698500Y-41896207D01*
X37783167Y-41938540D01*
X37825500Y-41980873D01*
X37867833Y-42065540D01*
X37867833Y-42107873D01*
X37825500Y-42192540D01*
X37783167Y-42234873D01*
X37698500Y-42277207D01*
X37529167Y-42277207D01*
X37444500Y-42319540D01*
X37402167Y-42361873D01*
X37359833Y-42446540D01*
X37359833Y-42615873D01*
X37402167Y-42700540D01*
X37444500Y-42742873D01*
X37529167Y-42785207D01*
X37698500Y-42785207D01*
X37783167Y-42742873D01*
X37825500Y-42700540D01*
X37867833Y-42615873D01*
X37867833Y-42446540D01*
X37825500Y-42361873D01*
X37783167Y-42319540D01*
X37698500Y-42277207D01*
X34100167Y-50359833D02*
X34227167Y-50402167D01*
X34438834Y-50402167D01*
X34523501Y-50359833D01*
X34565834Y-50317500D01*
X34608167Y-50232833D01*
X34608167Y-50148167D01*
X34565834Y-50063500D01*
X34523501Y-50021167D01*
X34438834Y-49978833D01*
X34269501Y-49936500D01*
X34184834Y-49894167D01*
X34142501Y-49851833D01*
X34100167Y-49767167D01*
X34100167Y-49682500D01*
X34142501Y-49597833D01*
X34184834Y-49555500D01*
X34269501Y-49513167D01*
X34481167Y-49513167D01*
X34608167Y-49555500D01*
X34904501Y-49513167D02*
X35116168Y-50402167D01*
X35285501Y-49767167D01*
X35454834Y-50402167D01*
X35666501Y-49513167D01*
X35793501Y-50486833D02*
X36470834Y-50486833D01*
X36682501Y-50402167D02*
X36682501Y-49513167D01*
X37021167Y-49513167D01*
X37105834Y-49555500D01*
X37148167Y-49597833D01*
X37190501Y-49682500D01*
X37190501Y-49809500D01*
X37148167Y-49894167D01*
X37105834Y-49936500D01*
X37021167Y-49978833D01*
X36682501Y-49978833D01*
X37571501Y-49513167D02*
X37571501Y-50232833D01*
X37613834Y-50317500D01*
X37656167Y-50359833D01*
X37740834Y-50402167D01*
X37910167Y-50402167D01*
X37994834Y-50359833D01*
X38037167Y-50317500D01*
X38079501Y-50232833D01*
X38079501Y-49513167D01*
X38460500Y-50359833D02*
X38587500Y-50402167D01*
X38799167Y-50402167D01*
X38883834Y-50359833D01*
X38926167Y-50317500D01*
X38968500Y-50232833D01*
X38968500Y-50148167D01*
X38926167Y-50063500D01*
X38883834Y-50021167D01*
X38799167Y-49978833D01*
X38629834Y-49936500D01*
X38545167Y-49894167D01*
X38502834Y-49851833D01*
X38460500Y-49767167D01*
X38460500Y-49682500D01*
X38502834Y-49597833D01*
X38545167Y-49555500D01*
X38629834Y-49513167D01*
X38841500Y-49513167D01*
X38968500Y-49555500D01*
X39349501Y-50402167D02*
X39349501Y-49513167D01*
X39349501Y-49936500D02*
X39857501Y-49936500D01*
X39857501Y-50402167D02*
X39857501Y-49513167D01*
X60497166Y-42742873D02*
X60624166Y-42785207D01*
X60835833Y-42785207D01*
X60920500Y-42742873D01*
X60962833Y-42700540D01*
X61005166Y-42615873D01*
X61005166Y-42531207D01*
X60962833Y-42446540D01*
X60920500Y-42404207D01*
X60835833Y-42361873D01*
X60666500Y-42319540D01*
X60581833Y-42277207D01*
X60539500Y-42234873D01*
X60497166Y-42150207D01*
X60497166Y-42065540D01*
X60539500Y-41980873D01*
X60581833Y-41938540D01*
X60666500Y-41896207D01*
X60878166Y-41896207D01*
X61005166Y-41938540D01*
X61301500Y-41896207D02*
X61513167Y-42785207D01*
X61682500Y-42150207D01*
X61851833Y-42785207D01*
X62063500Y-41896207D01*
X62444500Y-42785207D02*
X62613833Y-42785207D01*
X62698500Y-42742873D01*
X62740833Y-42700540D01*
X62825500Y-42573540D01*
X62867833Y-42404207D01*
X62867833Y-42065540D01*
X62825500Y-41980873D01*
X62783167Y-41938540D01*
X62698500Y-41896207D01*
X62529167Y-41896207D01*
X62444500Y-41938540D01*
X62402167Y-41980873D01*
X62359833Y-42065540D01*
X62359833Y-42277207D01*
X62402167Y-42361873D01*
X62444500Y-42404207D01*
X62529167Y-42446540D01*
X62698500Y-42446540D01*
X62783167Y-42404207D01*
X62825500Y-42361873D01*
X62867833Y-42277207D01*
X59100167Y-50359833D02*
X59227167Y-50402167D01*
X59438834Y-50402167D01*
X59523501Y-50359833D01*
X59565834Y-50317500D01*
X59608167Y-50232833D01*
X59608167Y-50148167D01*
X59565834Y-50063500D01*
X59523501Y-50021167D01*
X59438834Y-49978833D01*
X59269501Y-49936500D01*
X59184834Y-49894167D01*
X59142501Y-49851833D01*
X59100167Y-49767167D01*
X59100167Y-49682500D01*
X59142501Y-49597833D01*
X59184834Y-49555500D01*
X59269501Y-49513167D01*
X59481167Y-49513167D01*
X59608167Y-49555500D01*
X59904501Y-49513167D02*
X60116168Y-50402167D01*
X60285501Y-49767167D01*
X60454834Y-50402167D01*
X60666501Y-49513167D01*
X60793501Y-50486833D02*
X61470834Y-50486833D01*
X61682501Y-50402167D02*
X61682501Y-49513167D01*
X62021167Y-49513167D01*
X62105834Y-49555500D01*
X62148167Y-49597833D01*
X62190501Y-49682500D01*
X62190501Y-49809500D01*
X62148167Y-49894167D01*
X62105834Y-49936500D01*
X62021167Y-49978833D01*
X61682501Y-49978833D01*
X62571501Y-49513167D02*
X62571501Y-50232833D01*
X62613834Y-50317500D01*
X62656167Y-50359833D01*
X62740834Y-50402167D01*
X62910167Y-50402167D01*
X62994834Y-50359833D01*
X63037167Y-50317500D01*
X63079501Y-50232833D01*
X63079501Y-49513167D01*
X63460500Y-50359833D02*
X63587500Y-50402167D01*
X63799167Y-50402167D01*
X63883834Y-50359833D01*
X63926167Y-50317500D01*
X63968500Y-50232833D01*
X63968500Y-50148167D01*
X63926167Y-50063500D01*
X63883834Y-50021167D01*
X63799167Y-49978833D01*
X63629834Y-49936500D01*
X63545167Y-49894167D01*
X63502834Y-49851833D01*
X63460500Y-49767167D01*
X63460500Y-49682500D01*
X63502834Y-49597833D01*
X63545167Y-49555500D01*
X63629834Y-49513167D01*
X63841500Y-49513167D01*
X63968500Y-49555500D01*
X64349501Y-50402167D02*
X64349501Y-49513167D01*
X64349501Y-49936500D02*
X64857501Y-49936500D01*
X64857501Y-50402167D02*
X64857501Y-49513167D01*
X85073833Y-42742873D02*
X85200833Y-42785207D01*
X85412500Y-42785207D01*
X85497167Y-42742873D01*
X85539500Y-42700540D01*
X85581833Y-42615873D01*
X85581833Y-42531207D01*
X85539500Y-42446540D01*
X85497167Y-42404207D01*
X85412500Y-42361873D01*
X85243167Y-42319540D01*
X85158500Y-42277207D01*
X85116167Y-42234873D01*
X85073833Y-42150207D01*
X85073833Y-42065540D01*
X85116167Y-41980873D01*
X85158500Y-41938540D01*
X85243167Y-41896207D01*
X85454833Y-41896207D01*
X85581833Y-41938540D01*
X85878167Y-41896207D02*
X86089834Y-42785207D01*
X86259167Y-42150207D01*
X86428500Y-42785207D01*
X86640167Y-41896207D01*
X87444500Y-42785207D02*
X86936500Y-42785207D01*
X87190500Y-42785207D02*
X87190500Y-41896207D01*
X87105834Y-42023207D01*
X87021167Y-42107873D01*
X86936500Y-42150207D01*
X87994834Y-41896207D02*
X88079501Y-41896207D01*
X88164167Y-41938540D01*
X88206501Y-41980873D01*
X88248834Y-42065540D01*
X88291167Y-42234873D01*
X88291167Y-42446540D01*
X88248834Y-42615873D01*
X88206501Y-42700540D01*
X88164167Y-42742873D01*
X88079501Y-42785207D01*
X87994834Y-42785207D01*
X87910167Y-42742873D01*
X87867834Y-42700540D01*
X87825501Y-42615873D01*
X87783167Y-42446540D01*
X87783167Y-42234873D01*
X87825501Y-42065540D01*
X87867834Y-41980873D01*
X87910167Y-41938540D01*
X87994834Y-41896207D01*
X84100167Y-50359833D02*
X84227167Y-50402167D01*
X84438834Y-50402167D01*
X84523501Y-50359833D01*
X84565834Y-50317500D01*
X84608167Y-50232833D01*
X84608167Y-50148167D01*
X84565834Y-50063500D01*
X84523501Y-50021167D01*
X84438834Y-49978833D01*
X84269501Y-49936500D01*
X84184834Y-49894167D01*
X84142501Y-49851833D01*
X84100167Y-49767167D01*
X84100167Y-49682500D01*
X84142501Y-49597833D01*
X84184834Y-49555500D01*
X84269501Y-49513167D01*
X84481167Y-49513167D01*
X84608167Y-49555500D01*
X84904501Y-49513167D02*
X85116168Y-50402167D01*
X85285501Y-49767167D01*
X85454834Y-50402167D01*
X85666501Y-49513167D01*
X85793501Y-50486833D02*
X86470834Y-50486833D01*
X86682501Y-50402167D02*
X86682501Y-49513167D01*
X87021167Y-49513167D01*
X87105834Y-49555500D01*
X87148167Y-49597833D01*
X87190501Y-49682500D01*
X87190501Y-49809500D01*
X87148167Y-49894167D01*
X87105834Y-49936500D01*
X87021167Y-49978833D01*
X86682501Y-49978833D01*
X87571501Y-49513167D02*
X87571501Y-50232833D01*
X87613834Y-50317500D01*
X87656167Y-50359833D01*
X87740834Y-50402167D01*
X87910167Y-50402167D01*
X87994834Y-50359833D01*
X88037167Y-50317500D01*
X88079501Y-50232833D01*
X88079501Y-49513167D01*
X88460500Y-50359833D02*
X88587500Y-50402167D01*
X88799167Y-50402167D01*
X88883834Y-50359833D01*
X88926167Y-50317500D01*
X88968500Y-50232833D01*
X88968500Y-50148167D01*
X88926167Y-50063500D01*
X88883834Y-50021167D01*
X88799167Y-49978833D01*
X88629834Y-49936500D01*
X88545167Y-49894167D01*
X88502834Y-49851833D01*
X88460500Y-49767167D01*
X88460500Y-49682500D01*
X88502834Y-49597833D01*
X88545167Y-49555500D01*
X88629834Y-49513167D01*
X88841500Y-49513167D01*
X88968500Y-49555500D01*
X89349501Y-50402167D02*
X89349501Y-49513167D01*
X89349501Y-49936500D02*
X89857501Y-49936500D01*
X89857501Y-50402167D02*
X89857501Y-49513167D01*
X10073833Y-152742873D02*
X10200833Y-152785207D01*
X10412500Y-152785207D01*
X10497167Y-152742873D01*
X10539500Y-152700540D01*
X10581833Y-152615873D01*
X10581833Y-152531207D01*
X10539500Y-152446540D01*
X10497167Y-152404207D01*
X10412500Y-152361873D01*
X10243167Y-152319540D01*
X10158500Y-152277207D01*
X10116167Y-152234873D01*
X10073833Y-152150207D01*
X10073833Y-152065540D01*
X10116167Y-151980873D01*
X10158500Y-151938540D01*
X10243167Y-151896207D01*
X10454833Y-151896207D01*
X10581833Y-151938540D01*
X10878167Y-151896207D02*
X11089834Y-152785207D01*
X11259167Y-152150207D01*
X11428500Y-152785207D01*
X11640167Y-151896207D01*
X12444500Y-152785207D02*
X11936500Y-152785207D01*
X12190500Y-152785207D02*
X12190500Y-151896207D01*
X12105834Y-152023207D01*
X12021167Y-152107873D01*
X11936500Y-152150207D01*
X13291167Y-152785207D02*
X12783167Y-152785207D01*
X13037167Y-152785207D02*
X13037167Y-151896207D01*
X12952501Y-152023207D01*
X12867834Y-152107873D01*
X12783167Y-152150207D01*
X9100167Y-160359833D02*
X9227167Y-160402167D01*
X9438834Y-160402167D01*
X9523501Y-160359833D01*
X9565834Y-160317500D01*
X9608167Y-160232833D01*
X9608167Y-160148167D01*
X9565834Y-160063500D01*
X9523501Y-160021167D01*
X9438834Y-159978833D01*
X9269501Y-159936500D01*
X9184834Y-159894167D01*
X9142501Y-159851833D01*
X9100167Y-159767167D01*
X9100167Y-159682500D01*
X9142501Y-159597833D01*
X9184834Y-159555500D01*
X9269501Y-159513167D01*
X9481167Y-159513167D01*
X9608167Y-159555500D01*
X9904501Y-159513167D02*
X10116168Y-160402167D01*
X10285501Y-159767167D01*
X10454834Y-160402167D01*
X10666501Y-159513167D01*
X10793501Y-160486833D02*
X11470834Y-160486833D01*
X11682501Y-160402167D02*
X11682501Y-159513167D01*
X12021167Y-159513167D01*
X12105834Y-159555500D01*
X12148167Y-159597833D01*
X12190501Y-159682500D01*
X12190501Y-159809500D01*
X12148167Y-159894167D01*
X12105834Y-159936500D01*
X12021167Y-159978833D01*
X11682501Y-159978833D01*
X12571501Y-159513167D02*
X12571501Y-160232833D01*
X12613834Y-160317500D01*
X12656167Y-160359833D01*
X12740834Y-160402167D01*
X12910167Y-160402167D01*
X12994834Y-160359833D01*
X13037167Y-160317500D01*
X13079501Y-160232833D01*
X13079501Y-159513167D01*
X13460500Y-160359833D02*
X13587500Y-160402167D01*
X13799167Y-160402167D01*
X13883834Y-160359833D01*
X13926167Y-160317500D01*
X13968500Y-160232833D01*
X13968500Y-160148167D01*
X13926167Y-160063500D01*
X13883834Y-160021167D01*
X13799167Y-159978833D01*
X13629834Y-159936500D01*
X13545167Y-159894167D01*
X13502834Y-159851833D01*
X13460500Y-159767167D01*
X13460500Y-159682500D01*
X13502834Y-159597833D01*
X13545167Y-159555500D01*
X13629834Y-159513167D01*
X13841500Y-159513167D01*
X13968500Y-159555500D01*
X14349501Y-160402167D02*
X14349501Y-159513167D01*
X14349501Y-159936500D02*
X14857501Y-159936500D01*
X14857501Y-160402167D02*
X14857501Y-159513167D01*
X35073833Y-152742873D02*
X35200833Y-152785207D01*
X35412500Y-152785207D01*
X35497167Y-152742873D01*
X35539500Y-152700540D01*
X35581833Y-152615873D01*
X35581833Y-152531207D01*
X35539500Y-152446540D01*
X35497167Y-152404207D01*
X35412500Y-152361873D01*
X35243167Y-152319540D01*
X35158500Y-152277207D01*
X35116167Y-152234873D01*
X35073833Y-152150207D01*
X35073833Y-152065540D01*
X35116167Y-151980873D01*
X35158500Y-151938540D01*
X35243167Y-151896207D01*
X35454833Y-151896207D01*
X35581833Y-151938540D01*
X35878167Y-151896207D02*
X36089834Y-152785207D01*
X36259167Y-152150207D01*
X36428500Y-152785207D01*
X36640167Y-151896207D01*
X37444500Y-152785207D02*
X36936500Y-152785207D01*
X37190500Y-152785207D02*
X37190500Y-151896207D01*
X37105834Y-152023207D01*
X37021167Y-152107873D01*
X36936500Y-152150207D01*
X37783167Y-151980873D02*
X37825501Y-151938540D01*
X37910167Y-151896207D01*
X38121834Y-151896207D01*
X38206501Y-151938540D01*
X38248834Y-151980873D01*
X38291167Y-152065540D01*
X38291167Y-152150207D01*
X38248834Y-152277207D01*
X37740834Y-152785207D01*
X38291167Y-152785207D01*
X34100167Y-160359833D02*
X34227167Y-160402167D01*
X34438834Y-160402167D01*
X34523501Y-160359833D01*
X34565834Y-160317500D01*
X34608167Y-160232833D01*
X34608167Y-160148167D01*
X34565834Y-160063500D01*
X34523501Y-160021167D01*
X34438834Y-159978833D01*
X34269501Y-159936500D01*
X34184834Y-159894167D01*
X34142501Y-159851833D01*
X34100167Y-159767167D01*
X34100167Y-159682500D01*
X34142501Y-159597833D01*
X34184834Y-159555500D01*
X34269501Y-159513167D01*
X34481167Y-159513167D01*
X34608167Y-159555500D01*
X34904501Y-159513167D02*
X35116168Y-160402167D01*
X35285501Y-159767167D01*
X35454834Y-160402167D01*
X35666501Y-159513167D01*
X35793501Y-160486833D02*
X36470834Y-160486833D01*
X36682501Y-160402167D02*
X36682501Y-159513167D01*
X37021167Y-159513167D01*
X37105834Y-159555500D01*
X37148167Y-159597833D01*
X37190501Y-159682500D01*
X37190501Y-159809500D01*
X37148167Y-159894167D01*
X37105834Y-159936500D01*
X37021167Y-159978833D01*
X36682501Y-159978833D01*
X37571501Y-159513167D02*
X37571501Y-160232833D01*
X37613834Y-160317500D01*
X37656167Y-160359833D01*
X37740834Y-160402167D01*
X37910167Y-160402167D01*
X37994834Y-160359833D01*
X38037167Y-160317500D01*
X38079501Y-160232833D01*
X38079501Y-159513167D01*
X38460500Y-160359833D02*
X38587500Y-160402167D01*
X38799167Y-160402167D01*
X38883834Y-160359833D01*
X38926167Y-160317500D01*
X38968500Y-160232833D01*
X38968500Y-160148167D01*
X38926167Y-160063500D01*
X38883834Y-160021167D01*
X38799167Y-159978833D01*
X38629834Y-159936500D01*
X38545167Y-159894167D01*
X38502834Y-159851833D01*
X38460500Y-159767167D01*
X38460500Y-159682500D01*
X38502834Y-159597833D01*
X38545167Y-159555500D01*
X38629834Y-159513167D01*
X38841500Y-159513167D01*
X38968500Y-159555500D01*
X39349501Y-160402167D02*
X39349501Y-159513167D01*
X39349501Y-159936500D02*
X39857501Y-159936500D01*
X39857501Y-160402167D02*
X39857501Y-159513167D01*
X60073833Y-152742873D02*
X60200833Y-152785207D01*
X60412500Y-152785207D01*
X60497167Y-152742873D01*
X60539500Y-152700540D01*
X60581833Y-152615873D01*
X60581833Y-152531207D01*
X60539500Y-152446540D01*
X60497167Y-152404207D01*
X60412500Y-152361873D01*
X60243167Y-152319540D01*
X60158500Y-152277207D01*
X60116167Y-152234873D01*
X60073833Y-152150207D01*
X60073833Y-152065540D01*
X60116167Y-151980873D01*
X60158500Y-151938540D01*
X60243167Y-151896207D01*
X60454833Y-151896207D01*
X60581833Y-151938540D01*
X60878167Y-151896207D02*
X61089834Y-152785207D01*
X61259167Y-152150207D01*
X61428500Y-152785207D01*
X61640167Y-151896207D01*
X62444500Y-152785207D02*
X61936500Y-152785207D01*
X62190500Y-152785207D02*
X62190500Y-151896207D01*
X62105834Y-152023207D01*
X62021167Y-152107873D01*
X61936500Y-152150207D01*
X62740834Y-151896207D02*
X63291167Y-151896207D01*
X62994834Y-152234873D01*
X63121834Y-152234873D01*
X63206501Y-152277207D01*
X63248834Y-152319540D01*
X63291167Y-152404207D01*
X63291167Y-152615873D01*
X63248834Y-152700540D01*
X63206501Y-152742873D01*
X63121834Y-152785207D01*
X62867834Y-152785207D01*
X62783167Y-152742873D01*
X62740834Y-152700540D01*
X59100167Y-160359833D02*
X59227167Y-160402167D01*
X59438834Y-160402167D01*
X59523501Y-160359833D01*
X59565834Y-160317500D01*
X59608167Y-160232833D01*
X59608167Y-160148167D01*
X59565834Y-160063500D01*
X59523501Y-160021167D01*
X59438834Y-159978833D01*
X59269501Y-159936500D01*
X59184834Y-159894167D01*
X59142501Y-159851833D01*
X59100167Y-159767167D01*
X59100167Y-159682500D01*
X59142501Y-159597833D01*
X59184834Y-159555500D01*
X59269501Y-159513167D01*
X59481167Y-159513167D01*
X59608167Y-159555500D01*
X59904501Y-159513167D02*
X60116168Y-160402167D01*
X60285501Y-159767167D01*
X60454834Y-160402167D01*
X60666501Y-159513167D01*
X60793501Y-160486833D02*
X61470834Y-160486833D01*
X61682501Y-160402167D02*
X61682501Y-159513167D01*
X62021167Y-159513167D01*
X62105834Y-159555500D01*
X62148167Y-159597833D01*
X62190501Y-159682500D01*
X62190501Y-159809500D01*
X62148167Y-159894167D01*
X62105834Y-159936500D01*
X62021167Y-159978833D01*
X61682501Y-159978833D01*
X62571501Y-159513167D02*
X62571501Y-160232833D01*
X62613834Y-160317500D01*
X62656167Y-160359833D01*
X62740834Y-160402167D01*
X62910167Y-160402167D01*
X62994834Y-160359833D01*
X63037167Y-160317500D01*
X63079501Y-160232833D01*
X63079501Y-159513167D01*
X63460500Y-160359833D02*
X63587500Y-160402167D01*
X63799167Y-160402167D01*
X63883834Y-160359833D01*
X63926167Y-160317500D01*
X63968500Y-160232833D01*
X63968500Y-160148167D01*
X63926167Y-160063500D01*
X63883834Y-160021167D01*
X63799167Y-159978833D01*
X63629834Y-159936500D01*
X63545167Y-159894167D01*
X63502834Y-159851833D01*
X63460500Y-159767167D01*
X63460500Y-159682500D01*
X63502834Y-159597833D01*
X63545167Y-159555500D01*
X63629834Y-159513167D01*
X63841500Y-159513167D01*
X63968500Y-159555500D01*
X64349501Y-160402167D02*
X64349501Y-159513167D01*
X64349501Y-159936500D02*
X64857501Y-159936500D01*
X64857501Y-160402167D02*
X64857501Y-159513167D01*
X85073833Y-152742873D02*
X85200833Y-152785207D01*
X85412500Y-152785207D01*
X85497167Y-152742873D01*
X85539500Y-152700540D01*
X85581833Y-152615873D01*
X85581833Y-152531207D01*
X85539500Y-152446540D01*
X85497167Y-152404207D01*
X85412500Y-152361873D01*
X85243167Y-152319540D01*
X85158500Y-152277207D01*
X85116167Y-152234873D01*
X85073833Y-152150207D01*
X85073833Y-152065540D01*
X85116167Y-151980873D01*
X85158500Y-151938540D01*
X85243167Y-151896207D01*
X85454833Y-151896207D01*
X85581833Y-151938540D01*
X85878167Y-151896207D02*
X86089834Y-152785207D01*
X86259167Y-152150207D01*
X86428500Y-152785207D01*
X86640167Y-151896207D01*
X87444500Y-152785207D02*
X86936500Y-152785207D01*
X87190500Y-152785207D02*
X87190500Y-151896207D01*
X87105834Y-152023207D01*
X87021167Y-152107873D01*
X86936500Y-152150207D01*
X88206501Y-152192540D02*
X88206501Y-152785207D01*
X87994834Y-151853873D02*
X87783167Y-152488873D01*
X88333501Y-152488873D01*
X84100167Y-160359833D02*
X84227167Y-160402167D01*
X84438834Y-160402167D01*
X84523501Y-160359833D01*
X84565834Y-160317500D01*
X84608167Y-160232833D01*
X84608167Y-160148167D01*
X84565834Y-160063500D01*
X84523501Y-160021167D01*
X84438834Y-159978833D01*
X84269501Y-159936500D01*
X84184834Y-159894167D01*
X84142501Y-159851833D01*
X84100167Y-159767167D01*
X84100167Y-159682500D01*
X84142501Y-159597833D01*
X84184834Y-159555500D01*
X84269501Y-159513167D01*
X84481167Y-159513167D01*
X84608167Y-159555500D01*
X84904501Y-159513167D02*
X85116168Y-160402167D01*
X85285501Y-159767167D01*
X85454834Y-160402167D01*
X85666501Y-159513167D01*
X85793501Y-160486833D02*
X86470834Y-160486833D01*
X86682501Y-160402167D02*
X86682501Y-159513167D01*
X87021167Y-159513167D01*
X87105834Y-159555500D01*
X87148167Y-159597833D01*
X87190501Y-159682500D01*
X87190501Y-159809500D01*
X87148167Y-159894167D01*
X87105834Y-159936500D01*
X87021167Y-159978833D01*
X86682501Y-159978833D01*
X87571501Y-159513167D02*
X87571501Y-160232833D01*
X87613834Y-160317500D01*
X87656167Y-160359833D01*
X87740834Y-160402167D01*
X87910167Y-160402167D01*
X87994834Y-160359833D01*
X88037167Y-160317500D01*
X88079501Y-160232833D01*
X88079501Y-159513167D01*
X88460500Y-160359833D02*
X88587500Y-160402167D01*
X88799167Y-160402167D01*
X88883834Y-160359833D01*
X88926167Y-160317500D01*
X88968500Y-160232833D01*
X88968500Y-160148167D01*
X88926167Y-160063500D01*
X88883834Y-160021167D01*
X88799167Y-159978833D01*
X88629834Y-159936500D01*
X88545167Y-159894167D01*
X88502834Y-159851833D01*
X88460500Y-159767167D01*
X88460500Y-159682500D01*
X88502834Y-159597833D01*
X88545167Y-159555500D01*
X88629834Y-159513167D01*
X88841500Y-159513167D01*
X88968500Y-159555500D01*
X89349501Y-160402167D02*
X89349501Y-159513167D01*
X89349501Y-159936500D02*
X89857501Y-159936500D01*
X89857501Y-160402167D02*
X89857501Y-159513167D01*
M02*
