  0
SECTION
  2
HEADER
  9
$ANGBASE
  50
0.0
  9
$ANGDIR
  70
  1
  9
$MEASUREMENT
  70
0
  0
ENDSEC
  0
SECTION
  2
TABLES
  0
TABLE
  2
LTYPE
  70
1
  0
LTYPE
  2
CONTINUOUS
  70
0
  3
Solid line
  72
65
  73
0
  40
0.0
  0
ENDTAB
  0
TABLE
  2
STYLE
  70
4
  0
STYLE
  2
KICAD
  70
0
  40
0
  41
1
  42
1
  50
0
  71
0
  3
isocp.shx
  0
STYLE
  2
KICADB
  70
0
  40
0
  41
1
  42
1
  50
0
  71
0
  3
isocp.shx
  0
STYLE
  2
KICADI
  70
0
  40
0
  41
1
  42
1
  50
15
  71
0
  3
isocp.shx
  0
STYLE
  2
KICADBI
  70
0
  40
0
  41
1
  42
1
  50
15
  71
0
  3
isocp.shx
  0
ENDTAB
  0
TABLE
  2
LAYER
  70
30
  0
LAYER
  2
BLACK
  70
0
  62
7
  6
CONTINUOUS
  0
LAYER
  2
GRAY1
  70
0
  62
251
  6
CONTINUOUS
  0
LAYER
  2
GRAY2
  70
0
  62
8
  6
CONTINUOUS
  0
LAYER
  2
GRAY3
  70
0
  62
9
  6
CONTINUOUS
  0
LAYER
  2
WHITE
  70
0
  62
7
  6
CONTINUOUS
  0
LAYER
  2
LYELLOW
  70
0
  62
51
  6
CONTINUOUS
  0
LAYER
  2
BLUE1
  70
0
  62
178
  6
CONTINUOUS
  0
LAYER
  2
GREEN1
  70
0
  62
98
  6
CONTINUOUS
  0
LAYER
  2
CYAN1
  70
0
  62
138
  6
CONTINUOUS
  0
LAYER
  2
RED1
  70
0
  62
18
  6
CONTINUOUS
  0
LAYER
  2
MAGENTA1
  70
0
  62
228
  6
CONTINUOUS
  0
LAYER
  2
BROWN1
  70
0
  62
58
  6
CONTINUOUS
  0
LAYER
  2
BLUE2
  70
0
  62
5
  6
CONTINUOUS
  0
LAYER
  2
GREEN2
  70
0
  62
3
  6
CONTINUOUS
  0
LAYER
  2
CYAN2
  70
0
  62
4
  6
CONTINUOUS
  0
LAYER
  2
RED2
  70
0
  62
1
  6
CONTINUOUS
  0
LAYER
  2
MAGENTA2
  70
0
  62
6
  6
CONTINUOUS
  0
LAYER
  2
BROWN2
  70
0
  62
54
  6
CONTINUOUS
  0
LAYER
  2
BLUE3
  70
0
  62
171
  6
CONTINUOUS
  0
LAYER
  2
GREEN3
  70
0
  62
91
  6
CONTINUOUS
  0
LAYER
  2
CYAN3
  70
0
  62
131
  6
CONTINUOUS
  0
LAYER
  2
RED3
  70
0
  62
11
  6
CONTINUOUS
  0
LAYER
  2
MAGENTA3
  70
0
  62
221
  6
CONTINUOUS
  0
LAYER
  2
YELLOW3
  70
0
  62
2
  6
CONTINUOUS
  0
LAYER
  2
BLUE4
  70
0
  62
5
  6
CONTINUOUS
  0
LAYER
  2
GREEN4
  70
0
  62
3
  6
CONTINUOUS
  0
LAYER
  2
CYAN4
  70
0
  62
4
  6
CONTINUOUS
  0
LAYER
  2
RED4
  70
0
  62
1
  6
CONTINUOUS
  0
LAYER
  2
MAGENTA4
  70
0
  62
6
  6
CONTINUOUS
  0
LAYER
  2
YELLOW4
  70
0
  62
2
  6
CONTINUOUS
  0
ENDTAB
  0
ENDSEC
  0
SECTION
  2
ENTITIES
0
LINE
8
Black
10
3.08365
20
-159.896
11
3.59691
21
-160.193
0
LINE
8
Black
10
3.59691
20
-160.193
11
3.97787
21
-160.647
0
LINE
8
Black
10
3.97787
20
-160.647
11
4.18057
21
-161.204
0
LINE
8
Black
10
4.18057
20
-161.204
11
4.18057
21
-161.796
0
LINE
8
Black
10
4.18057
20
-161.796
11
3.97787
21
-162.353
0
LINE
8
Black
10
3.97787
20
-162.353
11
3.59691
21
-162.807
0
LINE
8
Black
10
3.59691
20
-162.807
11
3.08365
21
-163.104
0
LINE
8
Black
10
3.08365
20
-163.104
11
2.5
21
-163.206
0
LINE
8
Black
10
2.5
20
-163.206
11
1.91634
21
-163.104
0
LINE
8
Black
10
1.91634
20
-163.104
11
1.40309
21
-162.807
0
LINE
8
Black
10
1.40309
20
-162.807
11
1.02213
21
-162.353
0
LINE
8
Black
10
1.02213
20
-162.353
11
0.819431
21
-161.796
0
LINE
8
Black
10
0.819431
20
-161.796
11
0.819431
21
-161.204
0
LINE
8
Black
10
0.819431
20
-161.204
11
1.02213
21
-160.647
0
LINE
8
Black
10
1.02213
20
-160.647
11
1.40309
21
-160.193
0
LINE
8
Black
10
1.40309
20
-160.193
11
1.91634
21
-159.896
0
LINE
8
Black
10
1.91634
20
-159.896
11
2.5
21
-159.794
0
LINE
8
Black
10
2.5
20
-159.794
11
3.08365
21
-159.896
0
LINE
8
Black
10
98.0837
20
-159.896
11
98.5969
21
-160.193
0
LINE
8
Black
10
98.5969
20
-160.193
11
98.9779
21
-160.647
0
LINE
8
Black
10
98.9779
20
-160.647
11
99.1806
21
-161.204
0
LINE
8
Black
10
99.1806
20
-161.204
11
99.1806
21
-161.796
0
LINE
8
Black
10
99.1806
20
-161.796
11
98.9779
21
-162.353
0
LINE
8
Black
10
98.9779
20
-162.353
11
98.5969
21
-162.807
0
LINE
8
Black
10
98.5969
20
-162.807
11
98.0837
21
-163.104
0
LINE
8
Black
10
98.0837
20
-163.104
11
97.5
21
-163.206
0
LINE
8
Black
10
97.5
20
-163.206
11
96.9163
21
-163.104
0
LINE
8
Black
10
96.9163
20
-163.104
11
96.4031
21
-162.807
0
LINE
8
Black
10
96.4031
20
-162.807
11
96.0221
21
-162.353
0
LINE
8
Black
10
96.0221
20
-162.353
11
95.8194
21
-161.796
0
LINE
8
Black
10
95.8194
20
-161.796
11
95.8194
21
-161.204
0
LINE
8
Black
10
95.8194
20
-161.204
11
96.0221
21
-160.647
0
LINE
8
Black
10
96.0221
20
-160.647
11
96.4031
21
-160.193
0
LINE
8
Black
10
96.4031
20
-160.193
11
96.9163
21
-159.896
0
LINE
8
Black
10
96.9163
20
-159.896
11
97.5
21
-159.794
0
LINE
8
Black
10
97.5
20
-159.794
11
98.0837
21
-159.896
0
LINE
8
Black
10
80.0839
20
-159.139
11
77.9161
21
-159.139
0
LINE
8
Black
10
77.9161
20
-159.139
11
77.9161
21
-156.94
0
LINE
8
Black
10
77.9161
20
-156.94
11
80.0839
21
-156.94
0
LINE
8
Black
10
80.0839
20
-156.94
11
80.0839
21
-159.139
0
LINE
8
Black
10
55.0839
20
-159.139
11
52.9161
21
-159.139
0
LINE
8
Black
10
52.9161
20
-159.139
11
52.9161
21
-156.94
0
LINE
8
Black
10
52.9161
20
-156.94
11
55.0839
21
-156.94
0
LINE
8
Black
10
55.0839
20
-156.94
11
55.0839
21
-159.139
0
LINE
8
Black
10
30.0839
20
-159.139
11
27.9161
21
-159.139
0
LINE
8
Black
10
27.9161
20
-159.139
11
27.9161
21
-156.94
0
LINE
8
Black
10
27.9161
20
-156.94
11
30.0839
21
-156.94
0
LINE
8
Black
10
30.0839
20
-156.94
11
30.0839
21
-159.139
0
LINE
8
Black
10
5.08392
20
-159.139
11
2.91608
21
-159.139
0
LINE
8
Black
10
2.91608
20
-159.139
11
2.91608
21
-156.94
0
LINE
8
Black
10
2.91608
20
-156.94
11
5.08392
21
-156.94
0
LINE
8
Black
10
5.08392
20
-156.94
11
5.08392
21
-159.139
0
LINE
8
Black
10
34.3425
20
-158.994
11
31.4025
21
-158.994
0
LINE
8
Black
10
31.4025
20
-158.994
11
31.4025
21
-157.324
0
LINE
8
Black
10
31.4025
20
-157.324
11
34.3425
21
-157.324
0
LINE
8
Black
10
34.3425
20
-157.324
11
34.3425
21
-158.994
0
LINE
8
Black
10
42.5975
20
-158.994
11
39.6575
21
-158.994
0
LINE
8
Black
10
39.6575
20
-158.994
11
39.6575
21
-157.324
0
LINE
8
Black
10
39.6575
20
-157.324
11
42.5975
21
-157.324
0
LINE
8
Black
10
42.5975
20
-157.324
11
42.5975
21
-158.994
0
LINE
8
Black
10
17.5975
20
-158.994
11
14.6575
21
-158.994
0
LINE
8
Black
10
14.6575
20
-158.994
11
14.6575
21
-157.324
0
LINE
8
Black
10
14.6575
20
-157.324
11
17.5975
21
-157.324
0
LINE
8
Black
10
17.5975
20
-157.324
11
17.5975
21
-158.994
0
LINE
8
Black
10
9.3425
20
-158.994
11
6.4025
21
-158.994
0
LINE
8
Black
10
6.4025
20
-158.994
11
6.4025
21
-157.324
0
LINE
8
Black
10
6.4025
20
-157.324
11
9.3425
21
-157.324
0
LINE
8
Black
10
9.3425
20
-157.324
11
9.3425
21
-158.994
0
LINE
8
Black
10
59.3425
20
-158.994
11
56.4025
21
-158.994
0
LINE
8
Black
10
56.4025
20
-158.994
11
56.4025
21
-157.324
0
LINE
8
Black
10
56.4025
20
-157.324
11
59.3425
21
-157.324
0
LINE
8
Black
10
59.3425
20
-157.324
11
59.3425
21
-158.994
0
LINE
8
Black
10
67.5975
20
-158.994
11
64.6575
21
-158.994
0
LINE
8
Black
10
64.6575
20
-158.994
11
64.6575
21
-157.324
0
LINE
8
Black
10
64.6575
20
-157.324
11
67.5975
21
-157.324
0
LINE
8
Black
10
67.5975
20
-157.324
11
67.5975
21
-158.994
0
LINE
8
Black
10
84.3425
20
-158.994
11
81.4025
21
-158.994
0
LINE
8
Black
10
81.4025
20
-158.994
11
81.4025
21
-157.324
0
LINE
8
Black
10
81.4025
20
-157.324
11
84.3425
21
-157.324
0
LINE
8
Black
10
84.3425
20
-157.324
11
84.3425
21
-158.994
0
LINE
8
Black
10
92.5975
20
-158.994
11
89.6575
21
-158.994
0
LINE
8
Black
10
89.6575
20
-158.994
11
89.6575
21
-157.324
0
LINE
8
Black
10
89.6575
20
-157.324
11
92.5975
21
-157.324
0
LINE
8
Black
10
92.5975
20
-157.324
11
92.5975
21
-158.994
0
LINE
8
Black
10
69.7485
20
-158.3
11
67.6975
21
-158.3
0
LINE
8
Black
10
67.6975
20
-158.3
11
67.6975
21
-156.9
0
LINE
8
Black
10
67.6975
20
-156.9
11
69.7485
21
-156.9
0
LINE
8
Black
10
69.7485
20
-156.9
11
69.7485
21
-158.3
0
LINE
8
Black
10
74.9025
20
-158.3
11
72.8515
21
-158.3
0
LINE
8
Black
10
72.8515
20
-158.3
11
72.8515
21
-156.9
0
LINE
8
Black
10
72.8515
20
-156.9
11
74.9025
21
-156.9
0
LINE
8
Black
10
74.9025
20
-156.9
11
74.9025
21
-158.3
0
LINE
8
Black
10
19.7485
20
-158.3
11
17.6975
21
-158.3
0
LINE
8
Black
10
17.6975
20
-158.3
11
17.6975
21
-156.9
0
LINE
8
Black
10
17.6975
20
-156.9
11
19.7485
21
-156.9
0
LINE
8
Black
10
19.7485
20
-156.9
11
19.7485
21
-158.3
0
LINE
8
Black
10
99.9025
20
-158.3
11
97.8515
21
-158.3
0
LINE
8
Black
10
97.8515
20
-158.3
11
97.8515
21
-156.9
0
LINE
8
Black
10
97.8515
20
-156.9
11
99.9025
21
-156.9
0
LINE
8
Black
10
99.9025
20
-156.9
11
99.9025
21
-158.3
0
LINE
8
Black
10
94.7485
20
-158.3
11
92.6975
21
-158.3
0
LINE
8
Black
10
92.6975
20
-158.3
11
92.6975
21
-156.9
0
LINE
8
Black
10
92.6975
20
-156.9
11
94.7485
21
-156.9
0
LINE
8
Black
10
94.7485
20
-156.9
11
94.7485
21
-158.3
0
LINE
8
Black
10
24.9025
20
-158.3
11
22.8515
21
-158.3
0
LINE
8
Black
10
22.8515
20
-158.3
11
22.8515
21
-156.9
0
LINE
8
Black
10
22.8515
20
-156.9
11
24.9025
21
-156.9
0
LINE
8
Black
10
24.9025
20
-156.9
11
24.9025
21
-158.3
0
LINE
8
Black
10
44.7485
20
-158.3
11
42.6975
21
-158.3
0
LINE
8
Black
10
42.6975
20
-158.3
11
42.6975
21
-156.9
0
LINE
8
Black
10
42.6975
20
-156.9
11
44.7485
21
-156.9
0
LINE
8
Black
10
44.7485
20
-156.9
11
44.7485
21
-158.3
0
LINE
8
Black
10
49.9025
20
-158.3
11
47.8515
21
-158.3
0
LINE
8
Black
10
47.8515
20
-158.3
11
47.8515
21
-156.9
0
LINE
8
Black
10
47.8515
20
-156.9
11
49.9025
21
-156.9
0
LINE
8
Black
10
49.9025
20
-156.9
11
49.9025
21
-158.3
0
LINE
8
Black
10
74.9025
20
-155.1
11
72.8515
21
-155.1
0
LINE
8
Black
10
72.8515
20
-155.1
11
72.8515
21
-153.7
0
LINE
8
Black
10
72.8515
20
-153.7
11
74.9025
21
-153.7
0
LINE
8
Black
10
74.9025
20
-153.7
11
74.9025
21
-155.1
0
LINE
8
Black
10
69.7485
20
-155.1
11
67.6975
21
-155.1
0
LINE
8
Black
10
67.6975
20
-155.1
11
67.6975
21
-153.7
0
LINE
8
Black
10
67.6975
20
-153.7
11
69.7485
21
-153.7
0
LINE
8
Black
10
69.7485
20
-153.7
11
69.7485
21
-155.1
0
LINE
8
Black
10
24.9025
20
-155.1
11
22.8515
21
-155.1
0
LINE
8
Black
10
22.8515
20
-155.1
11
22.8515
21
-153.7
0
LINE
8
Black
10
22.8515
20
-153.7
11
24.9025
21
-153.7
0
LINE
8
Black
10
24.9025
20
-153.7
11
24.9025
21
-155.1
0
LINE
8
Black
10
19.7485
20
-155.1
11
17.6975
21
-155.1
0
LINE
8
Black
10
17.6975
20
-155.1
11
17.6975
21
-153.7
0
LINE
8
Black
10
17.6975
20
-153.7
11
19.7485
21
-153.7
0
LINE
8
Black
10
19.7485
20
-153.7
11
19.7485
21
-155.1
0
LINE
8
Black
10
44.7485
20
-155.1
11
42.6975
21
-155.1
0
LINE
8
Black
10
42.6975
20
-155.1
11
42.6975
21
-153.7
0
LINE
8
Black
10
42.6975
20
-153.7
11
44.7485
21
-153.7
0
LINE
8
Black
10
44.7485
20
-153.7
11
44.7485
21
-155.1
0
LINE
8
Black
10
49.9025
20
-155.1
11
47.8515
21
-155.1
0
LINE
8
Black
10
47.8515
20
-155.1
11
47.8515
21
-153.7
0
LINE
8
Black
10
47.8515
20
-153.7
11
49.9025
21
-153.7
0
LINE
8
Black
10
49.9025
20
-153.7
11
49.9025
21
-155.1
0
LINE
8
Black
10
99.9025
20
-155.1
11
97.8515
21
-155.1
0
LINE
8
Black
10
97.8515
20
-155.1
11
97.8515
21
-153.7
0
LINE
8
Black
10
97.8515
20
-153.7
11
99.9025
21
-153.7
0
LINE
8
Black
10
99.9025
20
-153.7
11
99.9025
21
-155.1
0
LINE
8
Black
10
94.7485
20
-155.1
11
92.6975
21
-155.1
0
LINE
8
Black
10
92.6975
20
-155.1
11
92.6975
21
-153.7
0
LINE
8
Black
10
92.6975
20
-153.7
11
94.7485
21
-153.7
0
LINE
8
Black
10
94.7485
20
-153.7
11
94.7485
21
-155.1
0
LINE
8
Black
10
5.08392
20
-155.06
11
2.91608
21
-155.06
0
LINE
8
Black
10
2.91608
20
-155.06
11
2.91608
21
-152.861
0
LINE
8
Black
10
2.91608
20
-152.861
11
5.08392
21
-152.861
0
LINE
8
Black
10
5.08392
20
-152.861
11
5.08392
21
-155.06
0
LINE
8
Black
10
80.0839
20
-155.06
11
77.9161
21
-155.06
0
LINE
8
Black
10
77.9161
20
-155.06
11
77.9161
21
-152.861
0
LINE
8
Black
10
77.9161
20
-152.861
11
80.0839
21
-152.861
0
LINE
8
Black
10
80.0839
20
-152.861
11
80.0839
21
-155.06
0
LINE
8
Black
10
55.0839
20
-155.06
11
52.9161
21
-155.06
0
LINE
8
Black
10
52.9161
20
-155.06
11
52.9161
21
-152.861
0
LINE
8
Black
10
52.9161
20
-152.861
11
55.0839
21
-152.861
0
LINE
8
Black
10
55.0839
20
-152.861
11
55.0839
21
-155.06
0
LINE
8
Black
10
30.0839
20
-155.06
11
27.9161
21
-155.06
0
LINE
8
Black
10
27.9161
20
-155.06
11
27.9161
21
-152.861
0
LINE
8
Black
10
27.9161
20
-152.861
11
30.0839
21
-152.861
0
LINE
8
Black
10
30.0839
20
-152.861
11
30.0839
21
-155.06
0
LINE
8
Black
10
17.5975
20
-154.676
11
14.6575
21
-154.676
0
LINE
8
Black
10
14.6575
20
-154.676
11
14.6575
21
-153.006
0
LINE
8
Black
10
14.6575
20
-153.006
11
17.5975
21
-153.006
0
LINE
8
Black
10
17.5975
20
-153.006
11
17.5975
21
-154.676
0
LINE
8
Black
10
92.5975
20
-154.676
11
89.6575
21
-154.676
0
LINE
8
Black
10
89.6575
20
-154.676
11
89.6575
21
-153.006
0
LINE
8
Black
10
89.6575
20
-153.006
11
92.5975
21
-153.006
0
LINE
8
Black
10
92.5975
20
-153.006
11
92.5975
21
-154.676
0
LINE
8
Black
10
84.3425
20
-154.676
11
81.4025
21
-154.676
0
LINE
8
Black
10
81.4025
20
-154.676
11
81.4025
21
-153.006
0
LINE
8
Black
10
81.4025
20
-153.006
11
84.3425
21
-153.006
0
LINE
8
Black
10
84.3425
20
-153.006
11
84.3425
21
-154.676
0
LINE
8
Black
10
67.5975
20
-154.676
11
64.6575
21
-154.676
0
LINE
8
Black
10
64.6575
20
-154.676
11
64.6575
21
-153.006
0
LINE
8
Black
10
64.6575
20
-153.006
11
67.5975
21
-153.006
0
LINE
8
Black
10
67.5975
20
-153.006
11
67.5975
21
-154.676
0
LINE
8
Black
10
9.3425
20
-154.676
11
6.4025
21
-154.676
0
LINE
8
Black
10
6.4025
20
-154.676
11
6.4025
21
-153.006
0
LINE
8
Black
10
6.4025
20
-153.006
11
9.3425
21
-153.006
0
LINE
8
Black
10
9.3425
20
-153.006
11
9.3425
21
-154.676
0
LINE
8
Black
10
59.3425
20
-154.676
11
56.4025
21
-154.676
0
LINE
8
Black
10
56.4025
20
-154.676
11
56.4025
21
-153.006
0
LINE
8
Black
10
56.4025
20
-153.006
11
59.3425
21
-153.006
0
LINE
8
Black
10
59.3425
20
-153.006
11
59.3425
21
-154.676
0
LINE
8
Black
10
42.5975
20
-154.676
11
39.6575
21
-154.676
0
LINE
8
Black
10
39.6575
20
-154.676
11
39.6575
21
-153.006
0
LINE
8
Black
10
39.6575
20
-153.006
11
42.5975
21
-153.006
0
LINE
8
Black
10
42.5975
20
-153.006
11
42.5975
21
-154.676
0
LINE
8
Black
10
34.3425
20
-154.676
11
31.4025
21
-154.676
0
LINE
8
Black
10
31.4025
20
-154.676
11
31.4025
21
-153.006
0
LINE
8
Black
10
31.4025
20
-153.006
11
34.3425
21
-153.006
0
LINE
8
Black
10
34.3425
20
-153.006
11
34.3425
21
-154.676
0
LINE
8
Black
10
3.42698
20
-144.953
11
4.24216
21
-145.424
0
LINE
8
Black
10
4.24216
20
-145.424
11
4.8472
21
-146.145
0
LINE
8
Black
10
4.8472
20
-146.145
11
5.16914
21
-147.029
0
LINE
8
Black
10
5.16914
20
-147.029
11
5.16914
21
-147.971
0
LINE
8
Black
10
5.16914
20
-147.971
11
4.8472
21
-148.855
0
LINE
8
Black
10
4.8472
20
-148.855
11
4.24216
21
-149.576
0
LINE
8
Black
10
4.24216
20
-149.576
11
3.42698
21
-150.047
0
LINE
8
Black
10
3.42698
20
-150.047
11
2.5
21
-150.21
0
LINE
8
Black
10
2.5
20
-150.21
11
1.57302
21
-150.047
0
LINE
8
Black
10
1.57302
20
-150.047
11
0.757844
21
-149.576
0
LINE
8
Black
10
0.757844
20
-149.576
11
0.152799
21
-148.855
0
LINE
8
Black
10
0.152799
20
-148.855
11
-0.169138
21
-147.971
0
LINE
8
Black
10
-0.169138
20
-147.971
11
-0.169138
21
-147.029
0
LINE
8
Black
10
-0.169138
20
-147.029
11
0.152799
21
-146.145
0
LINE
8
Black
10
0.152799
20
-146.145
11
0.757844
21
-145.424
0
LINE
8
Black
10
0.757844
20
-145.424
11
1.57302
21
-144.953
0
LINE
8
Black
10
1.57302
20
-144.953
11
2.5
21
-144.79
0
LINE
8
Black
10
2.5
20
-144.79
11
3.42698
21
-144.953
0
LINE
8
Black
10
98.427
20
-144.953
11
99.2422
21
-145.424
0
LINE
8
Black
10
99.2422
20
-145.424
11
99.8472
21
-146.145
0
LINE
8
Black
10
99.8472
20
-146.145
11
100.169
21
-147.029
0
LINE
8
Black
10
100.169
20
-147.029
11
100.169
21
-147.971
0
LINE
8
Black
10
100.169
20
-147.971
11
99.8472
21
-148.855
0
LINE
8
Black
10
99.8472
20
-148.855
11
99.2422
21
-149.576
0
LINE
8
Black
10
99.2422
20
-149.576
11
98.427
21
-150.047
0
LINE
8
Black
10
98.427
20
-150.047
11
97.5
21
-150.21
0
LINE
8
Black
10
97.5
20
-150.21
11
96.573
21
-150.047
0
LINE
8
Black
10
96.573
20
-150.047
11
95.7578
21
-149.576
0
LINE
8
Black
10
95.7578
20
-149.576
11
95.1528
21
-148.855
0
LINE
8
Black
10
95.1528
20
-148.855
11
94.8309
21
-147.971
0
LINE
8
Black
10
94.8309
20
-147.971
11
94.8309
21
-147.029
0
LINE
8
Black
10
94.8309
20
-147.029
11
95.1528
21
-146.145
0
LINE
8
Black
10
95.1528
20
-146.145
11
95.7578
21
-145.424
0
LINE
8
Black
10
95.7578
20
-145.424
11
96.573
21
-144.953
0
LINE
8
Black
10
96.573
20
-144.953
11
97.5
21
-144.79
0
LINE
8
Black
10
97.5
20
-144.79
11
98.427
21
-144.953
0
LINE
8
Black
10
53.427
20
-144.953
11
54.2422
21
-145.424
0
LINE
8
Black
10
54.2422
20
-145.424
11
54.8472
21
-146.145
0
LINE
8
Black
10
54.8472
20
-146.145
11
55.1691
21
-147.029
0
LINE
8
Black
10
55.1691
20
-147.029
11
55.1691
21
-147.971
0
LINE
8
Black
10
55.1691
20
-147.971
11
54.8472
21
-148.855
0
LINE
8
Black
10
54.8472
20
-148.855
11
54.2422
21
-149.576
0
LINE
8
Black
10
54.2422
20
-149.576
11
53.427
21
-150.047
0
LINE
8
Black
10
53.427
20
-150.047
11
52.5
21
-150.21
0
LINE
8
Black
10
52.5
20
-150.21
11
51.573
21
-150.047
0
LINE
8
Black
10
51.573
20
-150.047
11
50.7578
21
-149.576
0
LINE
8
Black
10
50.7578
20
-149.576
11
50.1528
21
-148.855
0
LINE
8
Black
10
50.1528
20
-148.855
11
49.8309
21
-147.971
0
LINE
8
Black
10
49.8309
20
-147.971
11
49.8309
21
-147.029
0
LINE
8
Black
10
49.8309
20
-147.029
11
50.1528
21
-146.145
0
LINE
8
Black
10
50.1528
20
-146.145
11
50.7578
21
-145.424
0
LINE
8
Black
10
50.7578
20
-145.424
11
51.573
21
-144.953
0
LINE
8
Black
10
51.573
20
-144.953
11
52.5
21
-144.79
0
LINE
8
Black
10
52.5
20
-144.79
11
53.427
21
-144.953
0
LINE
8
Black
10
42.9642
20
-142.337
11
40.9623
21
-144.016
0
LINE
8
Black
10
40.9623
20
-144.016
11
38.5066
21
-144.91
0
LINE
8
Black
10
38.5066
20
-144.91
11
35.8934
21
-144.91
0
LINE
8
Black
10
35.8934
20
-144.91
11
33.6674
21
-144.1
0
LINE
8
Black
10
33.6674
20
-144.1
11
33.6655
21
-144.105
0
LINE
8
Black
10
33.6655
20
-144.105
11
33.5068
21
-144.294
0
LINE
8
Black
10
33.5068
20
-144.294
11
33.2931
21
-144.418
0
LINE
8
Black
10
33.2931
20
-144.418
11
33.05
21
-144.461
0
LINE
8
Black
10
33.05
20
-144.461
11
32.8069
21
-144.418
0
LINE
8
Black
10
32.8069
20
-144.418
11
32.5932
21
-144.294
0
LINE
8
Black
10
32.5932
20
-144.294
11
32.4345
21
-144.105
0
LINE
8
Black
10
32.4345
20
-144.105
11
32.3501
21
-143.873
0
LINE
8
Black
10
32.3501
20
-143.873
11
32.3501
21
-143.627
0
LINE
8
Black
10
32.3501
20
-143.627
11
32.4345
21
-143.395
0
LINE
8
Black
10
32.4345
20
-143.395
11
32.5428
21
-143.266
0
LINE
8
Black
10
32.5428
20
-143.266
11
31.4358
21
-142.337
0
LINE
8
Black
10
31.4358
20
-142.337
11
30.1292
21
-140.074
0
LINE
8
Black
10
30.1292
20
-140.074
11
29.6754
21
-137.5
0
LINE
8
Black
10
29.6754
20
-137.5
11
30.1292
21
-134.926
0
LINE
8
Black
10
30.1292
20
-134.926
11
31.4358
21
-132.663
0
LINE
8
Black
10
31.4358
20
-132.663
11
33.4377
21
-130.984
0
LINE
8
Black
10
33.4377
20
-130.984
11
35.8934
21
-130.09
0
LINE
8
Black
10
35.8934
20
-130.09
11
38.5066
21
-130.09
0
LINE
8
Black
10
38.5066
20
-130.09
11
40.9623
21
-130.984
0
LINE
8
Black
10
40.9623
20
-130.984
11
42.9642
21
-132.663
0
LINE
8
Black
10
42.9642
20
-132.663
11
44.2708
21
-134.926
0
LINE
8
Black
10
44.2708
20
-134.926
11
44.7246
21
-137.5
0
LINE
8
Black
10
44.7246
20
-137.5
11
44.2708
21
-140.074
0
LINE
8
Black
10
44.2708
20
-140.074
11
42.9642
21
-142.337
0
LINE
8
Black
10
40.666
20
-134.592
11
39.4623
21
-133.582
0
LINE
8
Black
10
39.4623
20
-133.582
11
37.9857
21
-133.044
0
LINE
8
Black
10
37.9857
20
-133.044
11
36.4143
21
-133.044
0
LINE
8
Black
10
36.4143
20
-133.044
11
34.9377
21
-133.582
0
LINE
8
Black
10
34.9377
20
-133.582
11
33.734
21
-134.592
0
LINE
8
Black
10
33.734
20
-134.592
11
32.9483
21
-135.953
0
LINE
8
Black
10
32.9483
20
-135.953
11
32.6754
21
-137.5
0
LINE
8
Black
10
32.6754
20
-137.5
11
32.9483
21
-139.047
0
LINE
8
Black
10
32.9483
20
-139.047
11
33.734
21
-140.408
0
LINE
8
Black
10
33.734
20
-140.408
11
34.7869
21
-141.292
0
LINE
8
Black
10
34.7869
20
-141.292
11
34.9432
21
-141.106
0
LINE
8
Black
10
34.9432
20
-141.106
11
35.1569
21
-140.982
0
LINE
8
Black
10
35.1569
20
-140.982
11
35.4
21
-140.939
0
LINE
8
Black
10
35.4
20
-140.939
11
35.6431
21
-140.982
0
LINE
8
Black
10
35.6431
20
-140.982
11
35.8568
21
-141.106
0
LINE
8
Black
10
35.8568
20
-141.106
11
36.0155
21
-141.295
0
LINE
8
Black
10
36.0155
20
-141.295
11
36.0999
21
-141.527
0
LINE
8
Black
10
36.0999
20
-141.527
11
36.0999
21
-141.773
0
LINE
8
Black
10
36.0999
20
-141.773
11
36.0781
21
-141.833
0
LINE
8
Black
10
36.0781
20
-141.833
11
36.4143
21
-141.956
0
LINE
8
Black
10
36.4143
20
-141.956
11
37.9857
21
-141.956
0
LINE
8
Black
10
37.9857
20
-141.956
11
39.4623
21
-141.418
0
LINE
8
Black
10
39.4623
20
-141.418
11
40.666
21
-140.408
0
LINE
8
Black
10
40.666
20
-140.408
11
41.4517
21
-139.047
0
LINE
8
Black
10
41.4517
20
-139.047
11
41.7246
21
-137.5
0
LINE
8
Black
10
41.7246
20
-137.5
11
41.4517
21
-135.953
0
LINE
8
Black
10
41.4517
20
-135.953
11
40.666
21
-134.592
0
LINE
8
Black
10
40.7
20
-139.7
11
38.7
21
-139.7
0
LINE
8
Black
10
38.7
20
-139.7
11
38.7
21
-138.3
0
LINE
8
Black
10
38.7
20
-138.3
11
40.7
21
-138.3
0
LINE
8
Black
10
40.7
20
-138.3
11
40.7
21
-139.7
0
LINE
8
Black
10
35.7
20
-139.7
11
33.7
21
-139.7
0
LINE
8
Black
10
33.7
20
-139.7
11
33.7
21
-138.3
0
LINE
8
Black
10
33.7
20
-138.3
11
35.7
21
-138.3
0
LINE
8
Black
10
35.7
20
-138.3
11
35.7
21
-139.7
0
LINE
8
Black
10
40.7
20
-136.5
11
38.7
21
-136.5
0
LINE
8
Black
10
38.7
20
-136.5
11
38.7
21
-135.1
0
LINE
8
Black
10
38.7
20
-135.1
11
40.7
21
-135.1
0
LINE
8
Black
10
40.7
20
-135.1
11
40.7
21
-136.5
0
LINE
8
Black
10
35.7
20
-136.5
11
33.7
21
-136.5
0
LINE
8
Black
10
33.7
20
-136.5
11
33.7
21
-135.1
0
LINE
8
Black
10
33.7
20
-135.1
11
35.7
21
-135.1
0
LINE
8
Black
10
35.7
20
-135.1
11
35.7
21
-136.5
0
LINE
8
Black
10
17.9642
20
-142.337
11
15.9623
21
-144.016
0
LINE
8
Black
10
15.9623
20
-144.016
11
13.5066
21
-144.91
0
LINE
8
Black
10
13.5066
20
-144.91
11
10.8934
21
-144.91
0
LINE
8
Black
10
10.8934
20
-144.91
11
8.66741
21
-144.1
0
LINE
8
Black
10
8.66741
20
-144.1
11
8.66549
21
-144.105
0
LINE
8
Black
10
8.66549
20
-144.105
11
8.50683
21
-144.294
0
LINE
8
Black
10
8.50683
20
-144.294
11
8.29307
21
-144.418
0
LINE
8
Black
10
8.29307
20
-144.418
11
8.05
21
-144.461
0
LINE
8
Black
10
8.05
20
-144.461
11
7.80692
21
-144.418
0
LINE
8
Black
10
7.80692
20
-144.418
11
7.59317
21
-144.294
0
LINE
8
Black
10
7.59317
20
-144.294
11
7.43451
21
-144.105
0
LINE
8
Black
10
7.43451
20
-144.105
11
7.35009
21
-143.873
0
LINE
8
Black
10
7.35009
20
-143.873
11
7.35009
21
-143.627
0
LINE
8
Black
10
7.35009
20
-143.627
11
7.43451
21
-143.395
0
LINE
8
Black
10
7.43451
20
-143.395
11
7.54283
21
-143.266
0
LINE
8
Black
10
7.54283
20
-143.266
11
6.43585
21
-142.337
0
LINE
8
Black
10
6.43585
20
-142.337
11
5.12922
21
-140.074
0
LINE
8
Black
10
5.12922
20
-140.074
11
4.67543
21
-137.5
0
LINE
8
Black
10
4.67543
20
-137.5
11
5.12922
21
-134.926
0
LINE
8
Black
10
5.12922
20
-134.926
11
6.43585
21
-132.663
0
LINE
8
Black
10
6.43585
20
-132.663
11
8.43772
21
-130.984
0
LINE
8
Black
10
8.43772
20
-130.984
11
10.8934
21
-130.09
0
LINE
8
Black
10
10.8934
20
-130.09
11
13.5066
21
-130.09
0
LINE
8
Black
10
13.5066
20
-130.09
11
15.9623
21
-130.984
0
LINE
8
Black
10
15.9623
20
-130.984
11
17.9642
21
-132.663
0
LINE
8
Black
10
17.9642
20
-132.663
11
19.2708
21
-134.926
0
LINE
8
Black
10
19.2708
20
-134.926
11
19.7246
21
-137.5
0
LINE
8
Black
10
19.7246
20
-137.5
11
19.2708
21
-140.074
0
LINE
8
Black
10
19.2708
20
-140.074
11
17.9642
21
-142.337
0
LINE
8
Black
10
15.666
20
-134.592
11
14.4623
21
-133.582
0
LINE
8
Black
10
14.4623
20
-133.582
11
12.9857
21
-133.044
0
LINE
8
Black
10
12.9857
20
-133.044
11
11.4143
21
-133.044
0
LINE
8
Black
10
11.4143
20
-133.044
11
9.93772
21
-133.582
0
LINE
8
Black
10
9.93772
20
-133.582
11
8.73398
21
-134.592
0
LINE
8
Black
10
8.73398
20
-134.592
11
7.9483
21
-135.953
0
LINE
8
Black
10
7.9483
20
-135.953
11
7.67543
21
-137.5
0
LINE
8
Black
10
7.67543
20
-137.5
11
7.9483
21
-139.047
0
LINE
8
Black
10
7.9483
20
-139.047
11
8.73398
21
-140.408
0
LINE
8
Black
10
8.73398
20
-140.408
11
9.78688
21
-141.292
0
LINE
8
Black
10
9.78688
20
-141.292
11
9.94317
21
-141.106
0
LINE
8
Black
10
9.94317
20
-141.106
11
10.1569
21
-140.982
0
LINE
8
Black
10
10.1569
20
-140.982
11
10.4
21
-140.939
0
LINE
8
Black
10
10.4
20
-140.939
11
10.6431
21
-140.982
0
LINE
8
Black
10
10.6431
20
-140.982
11
10.8568
21
-141.106
0
LINE
8
Black
10
10.8568
20
-141.106
11
11.0155
21
-141.295
0
LINE
8
Black
10
11.0155
20
-141.295
11
11.0999
21
-141.527
0
LINE
8
Black
10
11.0999
20
-141.527
11
11.0999
21
-141.773
0
LINE
8
Black
10
11.0999
20
-141.773
11
11.0781
21
-141.833
0
LINE
8
Black
10
11.0781
20
-141.833
11
11.4143
21
-141.956
0
LINE
8
Black
10
11.4143
20
-141.956
11
12.9857
21
-141.956
0
LINE
8
Black
10
12.9857
20
-141.956
11
14.4623
21
-141.418
0
LINE
8
Black
10
14.4623
20
-141.418
11
15.666
21
-140.408
0
LINE
8
Black
10
15.666
20
-140.408
11
16.4517
21
-139.047
0
LINE
8
Black
10
16.4517
20
-139.047
11
16.7246
21
-137.5
0
LINE
8
Black
10
16.7246
20
-137.5
11
16.4517
21
-135.953
0
LINE
8
Black
10
16.4517
20
-135.953
11
15.666
21
-134.592
0
LINE
8
Black
10
10.7
20
-139.7
11
8.7
21
-139.7
0
LINE
8
Black
10
8.7
20
-139.7
11
8.7
21
-138.3
0
LINE
8
Black
10
8.7
20
-138.3
11
10.7
21
-138.3
0
LINE
8
Black
10
10.7
20
-138.3
11
10.7
21
-139.7
0
LINE
8
Black
10
15.7
20
-139.7
11
13.7
21
-139.7
0
LINE
8
Black
10
13.7
20
-139.7
11
13.7
21
-138.3
0
LINE
8
Black
10
13.7
20
-138.3
11
15.7
21
-138.3
0
LINE
8
Black
10
15.7
20
-138.3
11
15.7
21
-139.7
0
LINE
8
Black
10
15.7
20
-136.5
11
13.7
21
-136.5
0
LINE
8
Black
10
13.7
20
-136.5
11
13.7
21
-135.1
0
LINE
8
Black
10
13.7
20
-135.1
11
15.7
21
-135.1
0
LINE
8
Black
10
15.7
20
-135.1
11
15.7
21
-136.5
0
LINE
8
Black
10
10.7
20
-136.5
11
8.7
21
-136.5
0
LINE
8
Black
10
8.7
20
-136.5
11
8.7
21
-135.1
0
LINE
8
Black
10
8.7
20
-135.1
11
10.7
21
-135.1
0
LINE
8
Black
10
10.7
20
-135.1
11
10.7
21
-136.5
0
LINE
8
Black
10
67.9642
20
-132.663
11
69.2708
21
-134.926
0
LINE
8
Black
10
69.2708
20
-134.926
11
69.7246
21
-137.5
0
LINE
8
Black
10
69.7246
20
-137.5
11
69.2708
21
-140.074
0
LINE
8
Black
10
69.2708
20
-140.074
11
67.9642
21
-142.337
0
LINE
8
Black
10
67.9642
20
-142.337
11
65.9623
21
-144.016
0
LINE
8
Black
10
65.9623
20
-144.016
11
63.5066
21
-144.91
0
LINE
8
Black
10
63.5066
20
-144.91
11
60.8934
21
-144.91
0
LINE
8
Black
10
60.8934
20
-144.91
11
58.6674
21
-144.1
0
LINE
8
Black
10
58.6674
20
-144.1
11
58.6655
21
-144.105
0
LINE
8
Black
10
58.6655
20
-144.105
11
58.5068
21
-144.294
0
LINE
8
Black
10
58.5068
20
-144.294
11
58.2931
21
-144.418
0
LINE
8
Black
10
58.2931
20
-144.418
11
58.05
21
-144.461
0
LINE
8
Black
10
58.05
20
-144.461
11
57.8069
21
-144.418
0
LINE
8
Black
10
57.8069
20
-144.418
11
57.5932
21
-144.294
0
LINE
8
Black
10
57.5932
20
-144.294
11
57.4345
21
-144.105
0
LINE
8
Black
10
57.4345
20
-144.105
11
57.3501
21
-143.873
0
LINE
8
Black
10
57.3501
20
-143.873
11
57.3501
21
-143.627
0
LINE
8
Black
10
57.3501
20
-143.627
11
57.4345
21
-143.395
0
LINE
8
Black
10
57.4345
20
-143.395
11
57.5428
21
-143.266
0
LINE
8
Black
10
57.5428
20
-143.266
11
56.4358
21
-142.337
0
LINE
8
Black
10
56.4358
20
-142.337
11
55.1292
21
-140.074
0
LINE
8
Black
10
55.1292
20
-140.074
11
54.6754
21
-137.5
0
LINE
8
Black
10
54.6754
20
-137.5
11
55.1292
21
-134.926
0
LINE
8
Black
10
55.1292
20
-134.926
11
56.4358
21
-132.663
0
LINE
8
Black
10
56.4358
20
-132.663
11
58.4377
21
-130.984
0
LINE
8
Black
10
58.4377
20
-130.984
11
60.8934
21
-130.09
0
LINE
8
Black
10
60.8934
20
-130.09
11
63.5066
21
-130.09
0
LINE
8
Black
10
63.5066
20
-130.09
11
65.9623
21
-130.984
0
LINE
8
Black
10
65.9623
20
-130.984
11
67.9642
21
-132.663
0
LINE
8
Black
10
65.666
20
-134.592
11
64.4623
21
-133.582
0
LINE
8
Black
10
64.4623
20
-133.582
11
62.9857
21
-133.044
0
LINE
8
Black
10
62.9857
20
-133.044
11
61.4143
21
-133.044
0
LINE
8
Black
10
61.4143
20
-133.044
11
59.9377
21
-133.582
0
LINE
8
Black
10
59.9377
20
-133.582
11
58.734
21
-134.592
0
LINE
8
Black
10
58.734
20
-134.592
11
57.9483
21
-135.953
0
LINE
8
Black
10
57.9483
20
-135.953
11
57.6754
21
-137.5
0
LINE
8
Black
10
57.6754
20
-137.5
11
57.9483
21
-139.047
0
LINE
8
Black
10
57.9483
20
-139.047
11
58.734
21
-140.408
0
LINE
8
Black
10
58.734
20
-140.408
11
59.7869
21
-141.292
0
LINE
8
Black
10
59.7869
20
-141.292
11
59.9432
21
-141.106
0
LINE
8
Black
10
59.9432
20
-141.106
11
60.1569
21
-140.982
0
LINE
8
Black
10
60.1569
20
-140.982
11
60.4
21
-140.939
0
LINE
8
Black
10
60.4
20
-140.939
11
60.6431
21
-140.982
0
LINE
8
Black
10
60.6431
20
-140.982
11
60.8568
21
-141.106
0
LINE
8
Black
10
60.8568
20
-141.106
11
61.0155
21
-141.295
0
LINE
8
Black
10
61.0155
20
-141.295
11
61.0999
21
-141.527
0
LINE
8
Black
10
61.0999
20
-141.527
11
61.0999
21
-141.773
0
LINE
8
Black
10
61.0999
20
-141.773
11
61.0781
21
-141.833
0
LINE
8
Black
10
61.0781
20
-141.833
11
61.4143
21
-141.956
0
LINE
8
Black
10
61.4143
20
-141.956
11
62.9857
21
-141.956
0
LINE
8
Black
10
62.9857
20
-141.956
11
64.4623
21
-141.418
0
LINE
8
Black
10
64.4623
20
-141.418
11
65.666
21
-140.408
0
LINE
8
Black
10
65.666
20
-140.408
11
66.4517
21
-139.047
0
LINE
8
Black
10
66.4517
20
-139.047
11
66.7246
21
-137.5
0
LINE
8
Black
10
66.7246
20
-137.5
11
66.4517
21
-135.953
0
LINE
8
Black
10
66.4517
20
-135.953
11
65.666
21
-134.592
0
LINE
8
Black
10
60.7
20
-139.7
11
58.7
21
-139.7
0
LINE
8
Black
10
58.7
20
-139.7
11
58.7
21
-138.3
0
LINE
8
Black
10
58.7
20
-138.3
11
60.7
21
-138.3
0
LINE
8
Black
10
60.7
20
-138.3
11
60.7
21
-139.7
0
LINE
8
Black
10
65.7
20
-139.7
11
63.7
21
-139.7
0
LINE
8
Black
10
63.7
20
-139.7
11
63.7
21
-138.3
0
LINE
8
Black
10
63.7
20
-138.3
11
65.7
21
-138.3
0
LINE
8
Black
10
65.7
20
-138.3
11
65.7
21
-139.7
0
LINE
8
Black
10
65.7
20
-136.5
11
63.7
21
-136.5
0
LINE
8
Black
10
63.7
20
-136.5
11
63.7
21
-135.1
0
LINE
8
Black
10
63.7
20
-135.1
11
65.7
21
-135.1
0
LINE
8
Black
10
65.7
20
-135.1
11
65.7
21
-136.5
0
LINE
8
Black
10
60.7
20
-136.5
11
58.7
21
-136.5
0
LINE
8
Black
10
58.7
20
-136.5
11
58.7
21
-135.1
0
LINE
8
Black
10
58.7
20
-135.1
11
60.7
21
-135.1
0
LINE
8
Black
10
60.7
20
-135.1
11
60.7
21
-136.5
0
LINE
8
Black
10
92.9642
20
-142.337
11
90.9623
21
-144.016
0
LINE
8
Black
10
90.9623
20
-144.016
11
88.5066
21
-144.91
0
LINE
8
Black
10
88.5066
20
-144.91
11
85.8934
21
-144.91
0
LINE
8
Black
10
85.8934
20
-144.91
11
83.6674
21
-144.1
0
LINE
8
Black
10
83.6674
20
-144.1
11
83.6655
21
-144.105
0
LINE
8
Black
10
83.6655
20
-144.105
11
83.5068
21
-144.294
0
LINE
8
Black
10
83.5068
20
-144.294
11
83.2931
21
-144.418
0
LINE
8
Black
10
83.2931
20
-144.418
11
83.05
21
-144.461
0
LINE
8
Black
10
83.05
20
-144.461
11
82.8069
21
-144.418
0
LINE
8
Black
10
82.8069
20
-144.418
11
82.5932
21
-144.294
0
LINE
8
Black
10
82.5932
20
-144.294
11
82.4345
21
-144.105
0
LINE
8
Black
10
82.4345
20
-144.105
11
82.3501
21
-143.873
0
LINE
8
Black
10
82.3501
20
-143.873
11
82.3501
21
-143.627
0
LINE
8
Black
10
82.3501
20
-143.627
11
82.4345
21
-143.395
0
LINE
8
Black
10
82.4345
20
-143.395
11
82.5428
21
-143.266
0
LINE
8
Black
10
82.5428
20
-143.266
11
81.4358
21
-142.337
0
LINE
8
Black
10
81.4358
20
-142.337
11
80.1292
21
-140.074
0
LINE
8
Black
10
80.1292
20
-140.074
11
79.6754
21
-137.5
0
LINE
8
Black
10
79.6754
20
-137.5
11
80.1292
21
-134.926
0
LINE
8
Black
10
80.1292
20
-134.926
11
81.4358
21
-132.663
0
LINE
8
Black
10
81.4358
20
-132.663
11
83.4377
21
-130.984
0
LINE
8
Black
10
83.4377
20
-130.984
11
85.8934
21
-130.09
0
LINE
8
Black
10
85.8934
20
-130.09
11
88.5066
21
-130.09
0
LINE
8
Black
10
88.5066
20
-130.09
11
90.9623
21
-130.984
0
LINE
8
Black
10
90.9623
20
-130.984
11
92.9642
21
-132.663
0
LINE
8
Black
10
92.9642
20
-132.663
11
94.2708
21
-134.926
0
LINE
8
Black
10
94.2708
20
-134.926
11
94.7246
21
-137.5
0
LINE
8
Black
10
94.7246
20
-137.5
11
94.2708
21
-140.074
0
LINE
8
Black
10
94.2708
20
-140.074
11
92.9642
21
-142.337
0
LINE
8
Black
10
90.666
20
-134.592
11
89.4623
21
-133.582
0
LINE
8
Black
10
89.4623
20
-133.582
11
87.9857
21
-133.044
0
LINE
8
Black
10
87.9857
20
-133.044
11
86.4143
21
-133.044
0
LINE
8
Black
10
86.4143
20
-133.044
11
84.9377
21
-133.582
0
LINE
8
Black
10
84.9377
20
-133.582
11
83.734
21
-134.592
0
LINE
8
Black
10
83.734
20
-134.592
11
82.9483
21
-135.953
0
LINE
8
Black
10
82.9483
20
-135.953
11
82.6754
21
-137.5
0
LINE
8
Black
10
82.6754
20
-137.5
11
82.9483
21
-139.047
0
LINE
8
Black
10
82.9483
20
-139.047
11
83.734
21
-140.408
0
LINE
8
Black
10
83.734
20
-140.408
11
84.7869
21
-141.292
0
LINE
8
Black
10
84.7869
20
-141.292
11
84.9432
21
-141.106
0
LINE
8
Black
10
84.9432
20
-141.106
11
85.1569
21
-140.982
0
LINE
8
Black
10
85.1569
20
-140.982
11
85.4
21
-140.939
0
LINE
8
Black
10
85.4
20
-140.939
11
85.6431
21
-140.982
0
LINE
8
Black
10
85.6431
20
-140.982
11
85.8568
21
-141.106
0
LINE
8
Black
10
85.8568
20
-141.106
11
86.0155
21
-141.295
0
LINE
8
Black
10
86.0155
20
-141.295
11
86.0999
21
-141.527
0
LINE
8
Black
10
86.0999
20
-141.527
11
86.0999
21
-141.773
0
LINE
8
Black
10
86.0999
20
-141.773
11
86.0781
21
-141.833
0
LINE
8
Black
10
86.0781
20
-141.833
11
86.4143
21
-141.956
0
LINE
8
Black
10
86.4143
20
-141.956
11
87.9857
21
-141.956
0
LINE
8
Black
10
87.9857
20
-141.956
11
89.4623
21
-141.418
0
LINE
8
Black
10
89.4623
20
-141.418
11
90.666
21
-140.408
0
LINE
8
Black
10
90.666
20
-140.408
11
91.4517
21
-139.047
0
LINE
8
Black
10
91.4517
20
-139.047
11
91.7246
21
-137.5
0
LINE
8
Black
10
91.7246
20
-137.5
11
91.4517
21
-135.953
0
LINE
8
Black
10
91.4517
20
-135.953
11
90.666
21
-134.592
0
LINE
8
Black
10
85.7
20
-139.7
11
83.7
21
-139.7
0
LINE
8
Black
10
83.7
20
-139.7
11
83.7
21
-138.3
0
LINE
8
Black
10
83.7
20
-138.3
11
85.7
21
-138.3
0
LINE
8
Black
10
85.7
20
-138.3
11
85.7
21
-139.7
0
LINE
8
Black
10
90.7
20
-139.7
11
88.7
21
-139.7
0
LINE
8
Black
10
88.7
20
-139.7
11
88.7
21
-138.3
0
LINE
8
Black
10
88.7
20
-138.3
11
90.7
21
-138.3
0
LINE
8
Black
10
90.7
20
-138.3
11
90.7
21
-139.7
0
LINE
8
Black
10
85.7
20
-136.5
11
83.7
21
-136.5
0
LINE
8
Black
10
83.7
20
-136.5
11
83.7
21
-135.1
0
LINE
8
Black
10
83.7
20
-135.1
11
85.7
21
-135.1
0
LINE
8
Black
10
85.7
20
-135.1
11
85.7
21
-136.5
0
LINE
8
Black
10
90.7
20
-136.5
11
88.7
21
-136.5
0
LINE
8
Black
10
88.7
20
-136.5
11
88.7
21
-135.1
0
LINE
8
Black
10
88.7
20
-135.1
11
90.7
21
-135.1
0
LINE
8
Black
10
90.7
20
-135.1
11
90.7
21
-136.5
0
LINE
8
Black
10
75.5837
20
-135.896
11
76.0969
21
-136.193
0
LINE
8
Black
10
76.0969
20
-136.193
11
76.4779
21
-136.647
0
LINE
8
Black
10
76.4779
20
-136.647
11
76.6806
21
-137.204
0
LINE
8
Black
10
76.6806
20
-137.204
11
76.6806
21
-137.796
0
LINE
8
Black
10
76.6806
20
-137.796
11
76.4779
21
-138.353
0
LINE
8
Black
10
76.4779
20
-138.353
11
76.0969
21
-138.807
0
LINE
8
Black
10
76.0969
20
-138.807
11
75.5837
21
-139.104
0
LINE
8
Black
10
75.5837
20
-139.104
11
75
21
-139.206
0
LINE
8
Black
10
75
20
-139.206
11
74.4163
21
-139.104
0
LINE
8
Black
10
74.4163
20
-139.104
11
73.9031
21
-138.807
0
LINE
8
Black
10
73.9031
20
-138.807
11
73.5221
21
-138.353
0
LINE
8
Black
10
73.5221
20
-138.353
11
73.3194
21
-137.796
0
LINE
8
Black
10
73.3194
20
-137.796
11
73.3194
21
-137.204
0
LINE
8
Black
10
73.3194
20
-137.204
11
73.5221
21
-136.647
0
LINE
8
Black
10
73.5221
20
-136.647
11
73.9031
21
-136.193
0
LINE
8
Black
10
73.9031
20
-136.193
11
74.4163
21
-135.896
0
LINE
8
Black
10
74.4163
20
-135.896
11
75
21
-135.794
0
LINE
8
Black
10
75
20
-135.794
11
75.5837
21
-135.896
0
LINE
8
Black
10
25.5837
20
-135.896
11
26.0969
21
-136.193
0
LINE
8
Black
10
26.0969
20
-136.193
11
26.4779
21
-136.647
0
LINE
8
Black
10
26.4779
20
-136.647
11
26.6806
21
-137.204
0
LINE
8
Black
10
26.6806
20
-137.204
11
26.6806
21
-137.796
0
LINE
8
Black
10
26.6806
20
-137.796
11
26.4779
21
-138.353
0
LINE
8
Black
10
26.4779
20
-138.353
11
26.0969
21
-138.807
0
LINE
8
Black
10
26.0969
20
-138.807
11
25.5837
21
-139.104
0
LINE
8
Black
10
25.5837
20
-139.104
11
25
21
-139.206
0
LINE
8
Black
10
25
20
-139.206
11
24.4163
21
-139.104
0
LINE
8
Black
10
24.4163
20
-139.104
11
23.9031
21
-138.807
0
LINE
8
Black
10
23.9031
20
-138.807
11
23.5221
21
-138.353
0
LINE
8
Black
10
23.5221
20
-138.353
11
23.3194
21
-137.796
0
LINE
8
Black
10
23.3194
20
-137.796
11
23.3194
21
-137.204
0
LINE
8
Black
10
23.3194
20
-137.204
11
23.5221
21
-136.647
0
LINE
8
Black
10
23.5221
20
-136.647
11
23.9031
21
-136.193
0
LINE
8
Black
10
23.9031
20
-136.193
11
24.4163
21
-135.896
0
LINE
8
Black
10
24.4163
20
-135.896
11
25
21
-135.794
0
LINE
8
Black
10
25
20
-135.794
11
25.5837
21
-135.896
0
LINE
8
Black
10
38.0837
20
-123.396
11
38.5969
21
-123.693
0
LINE
8
Black
10
38.5969
20
-123.693
11
38.9779
21
-124.147
0
LINE
8
Black
10
38.9779
20
-124.147
11
39.1806
21
-124.704
0
LINE
8
Black
10
39.1806
20
-124.704
11
39.1806
21
-125.296
0
LINE
8
Black
10
39.1806
20
-125.296
11
38.9779
21
-125.853
0
LINE
8
Black
10
38.9779
20
-125.853
11
38.5969
21
-126.307
0
LINE
8
Black
10
38.5969
20
-126.307
11
38.0837
21
-126.604
0
LINE
8
Black
10
38.0837
20
-126.604
11
37.5
21
-126.706
0
LINE
8
Black
10
37.5
20
-126.706
11
36.9163
21
-126.604
0
LINE
8
Black
10
36.9163
20
-126.604
11
36.4031
21
-126.307
0
LINE
8
Black
10
36.4031
20
-126.307
11
36.0221
21
-125.853
0
LINE
8
Black
10
36.0221
20
-125.853
11
35.8194
21
-125.296
0
LINE
8
Black
10
35.8194
20
-125.296
11
35.8194
21
-124.704
0
LINE
8
Black
10
35.8194
20
-124.704
11
36.0221
21
-124.147
0
LINE
8
Black
10
36.0221
20
-124.147
11
36.4031
21
-123.693
0
LINE
8
Black
10
36.4031
20
-123.693
11
36.9163
21
-123.396
0
LINE
8
Black
10
36.9163
20
-123.396
11
37.5
21
-123.294
0
LINE
8
Black
10
37.5
20
-123.294
11
38.0837
21
-123.396
0
LINE
8
Black
10
63.0837
20
-123.396
11
63.5969
21
-123.693
0
LINE
8
Black
10
63.5969
20
-123.693
11
63.9779
21
-124.147
0
LINE
8
Black
10
63.9779
20
-124.147
11
64.1806
21
-124.704
0
LINE
8
Black
10
64.1806
20
-124.704
11
64.1806
21
-125.296
0
LINE
8
Black
10
64.1806
20
-125.296
11
63.9779
21
-125.853
0
LINE
8
Black
10
63.9779
20
-125.853
11
63.5969
21
-126.307
0
LINE
8
Black
10
63.5969
20
-126.307
11
63.0837
21
-126.604
0
LINE
8
Black
10
63.0837
20
-126.604
11
62.5
21
-126.706
0
LINE
8
Black
10
62.5
20
-126.706
11
61.9163
21
-126.604
0
LINE
8
Black
10
61.9163
20
-126.604
11
61.4031
21
-126.307
0
LINE
8
Black
10
61.4031
20
-126.307
11
61.0221
21
-125.853
0
LINE
8
Black
10
61.0221
20
-125.853
11
60.8194
21
-125.296
0
LINE
8
Black
10
60.8194
20
-125.296
11
60.8194
21
-124.704
0
LINE
8
Black
10
60.8194
20
-124.704
11
61.0221
21
-124.147
0
LINE
8
Black
10
61.0221
20
-124.147
11
61.4031
21
-123.693
0
LINE
8
Black
10
61.4031
20
-123.693
11
61.9163
21
-123.396
0
LINE
8
Black
10
61.9163
20
-123.396
11
62.5
21
-123.294
0
LINE
8
Black
10
62.5
20
-123.294
11
63.0837
21
-123.396
0
LINE
8
Black
10
88.0837
20
-123.396
11
88.5969
21
-123.693
0
LINE
8
Black
10
88.5969
20
-123.693
11
88.9779
21
-124.147
0
LINE
8
Black
10
88.9779
20
-124.147
11
89.1806
21
-124.704
0
LINE
8
Black
10
89.1806
20
-124.704
11
89.1806
21
-125.296
0
LINE
8
Black
10
89.1806
20
-125.296
11
88.9779
21
-125.853
0
LINE
8
Black
10
88.9779
20
-125.853
11
88.5969
21
-126.307
0
LINE
8
Black
10
88.5969
20
-126.307
11
88.0837
21
-126.604
0
LINE
8
Black
10
88.0837
20
-126.604
11
87.5
21
-126.706
0
LINE
8
Black
10
87.5
20
-126.706
11
86.9163
21
-126.604
0
LINE
8
Black
10
86.9163
20
-126.604
11
86.4031
21
-126.307
0
LINE
8
Black
10
86.4031
20
-126.307
11
86.0221
21
-125.853
0
LINE
8
Black
10
86.0221
20
-125.853
11
85.8194
21
-125.296
0
LINE
8
Black
10
85.8194
20
-125.296
11
85.8194
21
-124.704
0
LINE
8
Black
10
85.8194
20
-124.704
11
86.0221
21
-124.147
0
LINE
8
Black
10
86.0221
20
-124.147
11
86.4031
21
-123.693
0
LINE
8
Black
10
86.4031
20
-123.693
11
86.9163
21
-123.396
0
LINE
8
Black
10
86.9163
20
-123.396
11
87.5
21
-123.294
0
LINE
8
Black
10
87.5
20
-123.294
11
88.0837
21
-123.396
0
LINE
8
Black
10
13.0837
20
-123.396
11
13.5969
21
-123.693
0
LINE
8
Black
10
13.5969
20
-123.693
11
13.9779
21
-124.147
0
LINE
8
Black
10
13.9779
20
-124.147
11
14.1806
21
-124.704
0
LINE
8
Black
10
14.1806
20
-124.704
11
14.1806
21
-125.296
0
LINE
8
Black
10
14.1806
20
-125.296
11
13.9779
21
-125.853
0
LINE
8
Black
10
13.9779
20
-125.853
11
13.5969
21
-126.307
0
LINE
8
Black
10
13.5969
20
-126.307
11
13.0837
21
-126.604
0
LINE
8
Black
10
13.0837
20
-126.604
11
12.5
21
-126.706
0
LINE
8
Black
10
12.5
20
-126.706
11
11.9163
21
-126.604
0
LINE
8
Black
10
11.9163
20
-126.604
11
11.4031
21
-126.307
0
LINE
8
Black
10
11.4031
20
-126.307
11
11.0221
21
-125.853
0
LINE
8
Black
10
11.0221
20
-125.853
11
10.8194
21
-125.296
0
LINE
8
Black
10
10.8194
20
-125.296
11
10.8194
21
-124.704
0
LINE
8
Black
10
10.8194
20
-124.704
11
11.0221
21
-124.147
0
LINE
8
Black
10
11.0221
20
-124.147
11
11.4031
21
-123.693
0
LINE
8
Black
10
11.4031
20
-123.693
11
11.9163
21
-123.396
0
LINE
8
Black
10
11.9163
20
-123.396
11
12.5
21
-123.294
0
LINE
8
Black
10
12.5
20
-123.294
11
13.0837
21
-123.396
0
LINE
8
Black
10
67.9642
20
-107.663
11
69.2708
21
-109.926
0
LINE
8
Black
10
69.2708
20
-109.926
11
69.7246
21
-112.5
0
LINE
8
Black
10
69.7246
20
-112.5
11
69.2708
21
-115.074
0
LINE
8
Black
10
69.2708
20
-115.074
11
67.9642
21
-117.337
0
LINE
8
Black
10
67.9642
20
-117.337
11
65.9623
21
-119.016
0
LINE
8
Black
10
65.9623
20
-119.016
11
63.5066
21
-119.91
0
LINE
8
Black
10
63.5066
20
-119.91
11
60.8934
21
-119.91
0
LINE
8
Black
10
60.8934
20
-119.91
11
58.6674
21
-119.1
0
LINE
8
Black
10
58.6674
20
-119.1
11
58.6655
21
-119.105
0
LINE
8
Black
10
58.6655
20
-119.105
11
58.5068
21
-119.294
0
LINE
8
Black
10
58.5068
20
-119.294
11
58.2931
21
-119.418
0
LINE
8
Black
10
58.2931
20
-119.418
11
58.05
21
-119.461
0
LINE
8
Black
10
58.05
20
-119.461
11
57.8069
21
-119.418
0
LINE
8
Black
10
57.8069
20
-119.418
11
57.5932
21
-119.294
0
LINE
8
Black
10
57.5932
20
-119.294
11
57.4345
21
-119.105
0
LINE
8
Black
10
57.4345
20
-119.105
11
57.3501
21
-118.873
0
LINE
8
Black
10
57.3501
20
-118.873
11
57.3501
21
-118.627
0
LINE
8
Black
10
57.3501
20
-118.627
11
57.4345
21
-118.395
0
LINE
8
Black
10
57.4345
20
-118.395
11
57.5428
21
-118.266
0
LINE
8
Black
10
57.5428
20
-118.266
11
56.4358
21
-117.337
0
LINE
8
Black
10
56.4358
20
-117.337
11
55.1292
21
-115.074
0
LINE
8
Black
10
55.1292
20
-115.074
11
54.6754
21
-112.5
0
LINE
8
Black
10
54.6754
20
-112.5
11
55.1292
21
-109.926
0
LINE
8
Black
10
55.1292
20
-109.926
11
56.4358
21
-107.663
0
LINE
8
Black
10
56.4358
20
-107.663
11
58.4377
21
-105.984
0
LINE
8
Black
10
58.4377
20
-105.984
11
60.8934
21
-105.09
0
LINE
8
Black
10
60.8934
20
-105.09
11
63.5066
21
-105.09
0
LINE
8
Black
10
63.5066
20
-105.09
11
65.9623
21
-105.984
0
LINE
8
Black
10
65.9623
20
-105.984
11
67.9642
21
-107.663
0
LINE
8
Black
10
65.666
20
-109.592
11
64.4623
21
-108.582
0
LINE
8
Black
10
64.4623
20
-108.582
11
62.9857
21
-108.044
0
LINE
8
Black
10
62.9857
20
-108.044
11
61.4143
21
-108.044
0
LINE
8
Black
10
61.4143
20
-108.044
11
59.9377
21
-108.582
0
LINE
8
Black
10
59.9377
20
-108.582
11
58.734
21
-109.592
0
LINE
8
Black
10
58.734
20
-109.592
11
57.9483
21
-110.953
0
LINE
8
Black
10
57.9483
20
-110.953
11
57.6754
21
-112.5
0
LINE
8
Black
10
57.6754
20
-112.5
11
57.9483
21
-114.047
0
LINE
8
Black
10
57.9483
20
-114.047
11
58.734
21
-115.408
0
LINE
8
Black
10
58.734
20
-115.408
11
59.7869
21
-116.292
0
LINE
8
Black
10
59.7869
20
-116.292
11
59.9432
21
-116.106
0
LINE
8
Black
10
59.9432
20
-116.106
11
60.1569
21
-115.982
0
LINE
8
Black
10
60.1569
20
-115.982
11
60.4
21
-115.939
0
LINE
8
Black
10
60.4
20
-115.939
11
60.6431
21
-115.982
0
LINE
8
Black
10
60.6431
20
-115.982
11
60.8568
21
-116.106
0
LINE
8
Black
10
60.8568
20
-116.106
11
61.0155
21
-116.295
0
LINE
8
Black
10
61.0155
20
-116.295
11
61.0999
21
-116.527
0
LINE
8
Black
10
61.0999
20
-116.527
11
61.0999
21
-116.773
0
LINE
8
Black
10
61.0999
20
-116.773
11
61.0781
21
-116.833
0
LINE
8
Black
10
61.0781
20
-116.833
11
61.4143
21
-116.956
0
LINE
8
Black
10
61.4143
20
-116.956
11
62.9857
21
-116.956
0
LINE
8
Black
10
62.9857
20
-116.956
11
64.4623
21
-116.418
0
LINE
8
Black
10
64.4623
20
-116.418
11
65.666
21
-115.408
0
LINE
8
Black
10
65.666
20
-115.408
11
66.4517
21
-114.047
0
LINE
8
Black
10
66.4517
20
-114.047
11
66.7246
21
-112.5
0
LINE
8
Black
10
66.7246
20
-112.5
11
66.4517
21
-110.953
0
LINE
8
Black
10
66.4517
20
-110.953
11
65.666
21
-109.592
0
LINE
8
Black
10
60.7
20
-114.7
11
58.7
21
-114.7
0
LINE
8
Black
10
58.7
20
-114.7
11
58.7
21
-113.3
0
LINE
8
Black
10
58.7
20
-113.3
11
60.7
21
-113.3
0
LINE
8
Black
10
60.7
20
-113.3
11
60.7
21
-114.7
0
LINE
8
Black
10
65.7
20
-114.7
11
63.7
21
-114.7
0
LINE
8
Black
10
63.7
20
-114.7
11
63.7
21
-113.3
0
LINE
8
Black
10
63.7
20
-113.3
11
65.7
21
-113.3
0
LINE
8
Black
10
65.7
20
-113.3
11
65.7
21
-114.7
0
LINE
8
Black
10
60.7
20
-111.5
11
58.7
21
-111.5
0
LINE
8
Black
10
58.7
20
-111.5
11
58.7
21
-110.1
0
LINE
8
Black
10
58.7
20
-110.1
11
60.7
21
-110.1
0
LINE
8
Black
10
60.7
20
-110.1
11
60.7
21
-111.5
0
LINE
8
Black
10
65.7
20
-111.5
11
63.7
21
-111.5
0
LINE
8
Black
10
63.7
20
-111.5
11
63.7
21
-110.1
0
LINE
8
Black
10
63.7
20
-110.1
11
65.7
21
-110.1
0
LINE
8
Black
10
65.7
20
-110.1
11
65.7
21
-111.5
0
LINE
8
Black
10
42.9412
20
-107.663
11
44.2478
21
-109.926
0
LINE
8
Black
10
44.2478
20
-109.926
11
44.7016
21
-112.5
0
LINE
8
Black
10
44.7016
20
-112.5
11
44.2478
21
-115.074
0
LINE
8
Black
10
44.2478
20
-115.074
11
42.9412
21
-117.337
0
LINE
8
Black
10
42.9412
20
-117.337
11
40.9393
21
-119.016
0
LINE
8
Black
10
40.9393
20
-119.016
11
38.4836
21
-119.91
0
LINE
8
Black
10
38.4836
20
-119.91
11
35.8704
21
-119.91
0
LINE
8
Black
10
35.8704
20
-119.91
11
33.6444
21
-119.1
0
LINE
8
Black
10
33.6444
20
-119.1
11
33.6425
21
-119.105
0
LINE
8
Black
10
33.6425
20
-119.105
11
33.4838
21
-119.294
0
LINE
8
Black
10
33.4838
20
-119.294
11
33.2701
21
-119.418
0
LINE
8
Black
10
33.2701
20
-119.418
11
33.027
21
-119.461
0
LINE
8
Black
10
33.027
20
-119.461
11
32.7839
21
-119.418
0
LINE
8
Black
10
32.7839
20
-119.418
11
32.5702
21
-119.294
0
LINE
8
Black
10
32.5702
20
-119.294
11
32.4115
21
-119.105
0
LINE
8
Black
10
32.4115
20
-119.105
11
32.3271
21
-118.873
0
LINE
8
Black
10
32.3271
20
-118.873
11
32.3271
21
-118.627
0
LINE
8
Black
10
32.3271
20
-118.627
11
32.4115
21
-118.395
0
LINE
8
Black
10
32.4115
20
-118.395
11
32.5198
21
-118.266
0
LINE
8
Black
10
32.5198
20
-118.266
11
31.4128
21
-117.337
0
LINE
8
Black
10
31.4128
20
-117.337
11
30.1062
21
-115.074
0
LINE
8
Black
10
30.1062
20
-115.074
11
29.6524
21
-112.5
0
LINE
8
Black
10
29.6524
20
-112.5
11
30.1062
21
-109.926
0
LINE
8
Black
10
30.1062
20
-109.926
11
31.4128
21
-107.663
0
LINE
8
Black
10
31.4128
20
-107.663
11
33.4147
21
-105.984
0
LINE
8
Black
10
33.4147
20
-105.984
11
35.8704
21
-105.09
0
LINE
8
Black
10
35.8704
20
-105.09
11
38.4836
21
-105.09
0
LINE
8
Black
10
38.4836
20
-105.09
11
40.9393
21
-105.984
0
LINE
8
Black
10
40.9393
20
-105.984
11
42.9412
21
-107.663
0
LINE
8
Black
10
40.643
20
-109.592
11
39.4393
21
-108.582
0
LINE
8
Black
10
39.4393
20
-108.582
11
37.9627
21
-108.044
0
LINE
8
Black
10
37.9627
20
-108.044
11
36.3913
21
-108.044
0
LINE
8
Black
10
36.3913
20
-108.044
11
34.9147
21
-108.582
0
LINE
8
Black
10
34.9147
20
-108.582
11
33.711
21
-109.592
0
LINE
8
Black
10
33.711
20
-109.592
11
32.9253
21
-110.953
0
LINE
8
Black
10
32.9253
20
-110.953
11
32.6524
21
-112.5
0
LINE
8
Black
10
32.6524
20
-112.5
11
32.9253
21
-114.047
0
LINE
8
Black
10
32.9253
20
-114.047
11
33.711
21
-115.408
0
LINE
8
Black
10
33.711
20
-115.408
11
34.7639
21
-116.292
0
LINE
8
Black
10
34.7639
20
-116.292
11
34.9202
21
-116.106
0
LINE
8
Black
10
34.9202
20
-116.106
11
35.1339
21
-115.982
0
LINE
8
Black
10
35.1339
20
-115.982
11
35.377
21
-115.939
0
LINE
8
Black
10
35.377
20
-115.939
11
35.6201
21
-115.982
0
LINE
8
Black
10
35.6201
20
-115.982
11
35.8338
21
-116.106
0
LINE
8
Black
10
35.8338
20
-116.106
11
35.9925
21
-116.295
0
LINE
8
Black
10
35.9925
20
-116.295
11
36.0769
21
-116.527
0
LINE
8
Black
10
36.0769
20
-116.527
11
36.0769
21
-116.773
0
LINE
8
Black
10
36.0769
20
-116.773
11
36.0551
21
-116.833
0
LINE
8
Black
10
36.0551
20
-116.833
11
36.3913
21
-116.956
0
LINE
8
Black
10
36.3913
20
-116.956
11
37.9627
21
-116.956
0
LINE
8
Black
10
37.9627
20
-116.956
11
39.4393
21
-116.418
0
LINE
8
Black
10
39.4393
20
-116.418
11
40.643
21
-115.408
0
LINE
8
Black
10
40.643
20
-115.408
11
41.4287
21
-114.047
0
LINE
8
Black
10
41.4287
20
-114.047
11
41.7016
21
-112.5
0
LINE
8
Black
10
41.7016
20
-112.5
11
41.4287
21
-110.953
0
LINE
8
Black
10
41.4287
20
-110.953
11
40.643
21
-109.592
0
LINE
8
Black
10
35.677
20
-114.7
11
33.677
21
-114.7
0
LINE
8
Black
10
33.677
20
-114.7
11
33.677
21
-113.3
0
LINE
8
Black
10
33.677
20
-113.3
11
35.677
21
-113.3
0
LINE
8
Black
10
35.677
20
-113.3
11
35.677
21
-114.7
0
LINE
8
Black
10
40.677
20
-114.7
11
38.677
21
-114.7
0
LINE
8
Black
10
38.677
20
-114.7
11
38.677
21
-113.3
0
LINE
8
Black
10
38.677
20
-113.3
11
40.677
21
-113.3
0
LINE
8
Black
10
40.677
20
-113.3
11
40.677
21
-114.7
0
LINE
8
Black
10
35.677
20
-111.5
11
33.677
21
-111.5
0
LINE
8
Black
10
33.677
20
-111.5
11
33.677
21
-110.1
0
LINE
8
Black
10
33.677
20
-110.1
11
35.677
21
-110.1
0
LINE
8
Black
10
35.677
20
-110.1
11
35.677
21
-111.5
0
LINE
8
Black
10
40.677
20
-111.5
11
38.677
21
-111.5
0
LINE
8
Black
10
38.677
20
-111.5
11
38.677
21
-110.1
0
LINE
8
Black
10
38.677
20
-110.1
11
40.677
21
-110.1
0
LINE
8
Black
10
40.677
20
-110.1
11
40.677
21
-111.5
0
LINE
8
Black
10
17.9642
20
-117.337
11
15.9623
21
-119.016
0
LINE
8
Black
10
15.9623
20
-119.016
11
13.5066
21
-119.91
0
LINE
8
Black
10
13.5066
20
-119.91
11
10.8934
21
-119.91
0
LINE
8
Black
10
10.8934
20
-119.91
11
8.66741
21
-119.1
0
LINE
8
Black
10
8.66741
20
-119.1
11
8.66549
21
-119.105
0
LINE
8
Black
10
8.66549
20
-119.105
11
8.50683
21
-119.294
0
LINE
8
Black
10
8.50683
20
-119.294
11
8.29307
21
-119.418
0
LINE
8
Black
10
8.29307
20
-119.418
11
8.05
21
-119.461
0
LINE
8
Black
10
8.05
20
-119.461
11
7.80692
21
-119.418
0
LINE
8
Black
10
7.80692
20
-119.418
11
7.59317
21
-119.294
0
LINE
8
Black
10
7.59317
20
-119.294
11
7.43451
21
-119.105
0
LINE
8
Black
10
7.43451
20
-119.105
11
7.35009
21
-118.873
0
LINE
8
Black
10
7.35009
20
-118.873
11
7.35009
21
-118.627
0
LINE
8
Black
10
7.35009
20
-118.627
11
7.43451
21
-118.395
0
LINE
8
Black
10
7.43451
20
-118.395
11
7.54283
21
-118.266
0
LINE
8
Black
10
7.54283
20
-118.266
11
6.43585
21
-117.337
0
LINE
8
Black
10
6.43585
20
-117.337
11
5.12922
21
-115.074
0
LINE
8
Black
10
5.12922
20
-115.074
11
4.67543
21
-112.5
0
LINE
8
Black
10
4.67543
20
-112.5
11
5.12922
21
-109.926
0
LINE
8
Black
10
5.12922
20
-109.926
11
6.43585
21
-107.663
0
LINE
8
Black
10
6.43585
20
-107.663
11
8.43772
21
-105.984
0
LINE
8
Black
10
8.43772
20
-105.984
11
10.8934
21
-105.09
0
LINE
8
Black
10
10.8934
20
-105.09
11
13.5066
21
-105.09
0
LINE
8
Black
10
13.5066
20
-105.09
11
15.9623
21
-105.984
0
LINE
8
Black
10
15.9623
20
-105.984
11
17.9642
21
-107.663
0
LINE
8
Black
10
17.9642
20
-107.663
11
19.2708
21
-109.926
0
LINE
8
Black
10
19.2708
20
-109.926
11
19.7246
21
-112.5
0
LINE
8
Black
10
19.7246
20
-112.5
11
19.2708
21
-115.074
0
LINE
8
Black
10
19.2708
20
-115.074
11
17.9642
21
-117.337
0
LINE
8
Black
10
15.666
20
-109.592
11
14.4623
21
-108.582
0
LINE
8
Black
10
14.4623
20
-108.582
11
12.9857
21
-108.044
0
LINE
8
Black
10
12.9857
20
-108.044
11
11.4143
21
-108.044
0
LINE
8
Black
10
11.4143
20
-108.044
11
9.93772
21
-108.582
0
LINE
8
Black
10
9.93772
20
-108.582
11
8.73398
21
-109.592
0
LINE
8
Black
10
8.73398
20
-109.592
11
7.9483
21
-110.953
0
LINE
8
Black
10
7.9483
20
-110.953
11
7.67543
21
-112.5
0
LINE
8
Black
10
7.67543
20
-112.5
11
7.9483
21
-114.047
0
LINE
8
Black
10
7.9483
20
-114.047
11
8.73398
21
-115.408
0
LINE
8
Black
10
8.73398
20
-115.408
11
9.78688
21
-116.292
0
LINE
8
Black
10
9.78688
20
-116.292
11
9.94317
21
-116.106
0
LINE
8
Black
10
9.94317
20
-116.106
11
10.1569
21
-115.982
0
LINE
8
Black
10
10.1569
20
-115.982
11
10.4
21
-115.939
0
LINE
8
Black
10
10.4
20
-115.939
11
10.6431
21
-115.982
0
LINE
8
Black
10
10.6431
20
-115.982
11
10.8568
21
-116.106
0
LINE
8
Black
10
10.8568
20
-116.106
11
11.0155
21
-116.295
0
LINE
8
Black
10
11.0155
20
-116.295
11
11.0999
21
-116.527
0
LINE
8
Black
10
11.0999
20
-116.527
11
11.0999
21
-116.773
0
LINE
8
Black
10
11.0999
20
-116.773
11
11.0781
21
-116.833
0
LINE
8
Black
10
11.0781
20
-116.833
11
11.4143
21
-116.956
0
LINE
8
Black
10
11.4143
20
-116.956
11
12.9857
21
-116.956
0
LINE
8
Black
10
12.9857
20
-116.956
11
14.4623
21
-116.418
0
LINE
8
Black
10
14.4623
20
-116.418
11
15.666
21
-115.408
0
LINE
8
Black
10
15.666
20
-115.408
11
16.4517
21
-114.047
0
LINE
8
Black
10
16.4517
20
-114.047
11
16.7246
21
-112.5
0
LINE
8
Black
10
16.7246
20
-112.5
11
16.4517
21
-110.953
0
LINE
8
Black
10
16.4517
20
-110.953
11
15.666
21
-109.592
0
LINE
8
Black
10
10.7
20
-114.7
11
8.7
21
-114.7
0
LINE
8
Black
10
8.7
20
-114.7
11
8.7
21
-113.3
0
LINE
8
Black
10
8.7
20
-113.3
11
10.7
21
-113.3
0
LINE
8
Black
10
10.7
20
-113.3
11
10.7
21
-114.7
0
LINE
8
Black
10
15.7
20
-114.7
11
13.7
21
-114.7
0
LINE
8
Black
10
13.7
20
-114.7
11
13.7
21
-113.3
0
LINE
8
Black
10
13.7
20
-113.3
11
15.7
21
-113.3
0
LINE
8
Black
10
15.7
20
-113.3
11
15.7
21
-114.7
0
LINE
8
Black
10
15.7
20
-111.5
11
13.7
21
-111.5
0
LINE
8
Black
10
13.7
20
-111.5
11
13.7
21
-110.1
0
LINE
8
Black
10
13.7
20
-110.1
11
15.7
21
-110.1
0
LINE
8
Black
10
15.7
20
-110.1
11
15.7
21
-111.5
0
LINE
8
Black
10
10.7
20
-111.5
11
8.7
21
-111.5
0
LINE
8
Black
10
8.7
20
-111.5
11
8.7
21
-110.1
0
LINE
8
Black
10
8.7
20
-110.1
11
10.7
21
-110.1
0
LINE
8
Black
10
10.7
20
-110.1
11
10.7
21
-111.5
0
LINE
8
Black
10
92.9642
20
-117.337
11
90.9623
21
-119.016
0
LINE
8
Black
10
90.9623
20
-119.016
11
88.5066
21
-119.91
0
LINE
8
Black
10
88.5066
20
-119.91
11
85.8934
21
-119.91
0
LINE
8
Black
10
85.8934
20
-119.91
11
83.6674
21
-119.1
0
LINE
8
Black
10
83.6674
20
-119.1
11
83.6655
21
-119.105
0
LINE
8
Black
10
83.6655
20
-119.105
11
83.5068
21
-119.294
0
LINE
8
Black
10
83.5068
20
-119.294
11
83.2931
21
-119.418
0
LINE
8
Black
10
83.2931
20
-119.418
11
83.05
21
-119.461
0
LINE
8
Black
10
83.05
20
-119.461
11
82.8069
21
-119.418
0
LINE
8
Black
10
82.8069
20
-119.418
11
82.5932
21
-119.294
0
LINE
8
Black
10
82.5932
20
-119.294
11
82.4345
21
-119.105
0
LINE
8
Black
10
82.4345
20
-119.105
11
82.3501
21
-118.873
0
LINE
8
Black
10
82.3501
20
-118.873
11
82.3501
21
-118.627
0
LINE
8
Black
10
82.3501
20
-118.627
11
82.4345
21
-118.395
0
LINE
8
Black
10
82.4345
20
-118.395
11
82.5428
21
-118.266
0
LINE
8
Black
10
82.5428
20
-118.266
11
81.4358
21
-117.337
0
LINE
8
Black
10
81.4358
20
-117.337
11
80.1292
21
-115.074
0
LINE
8
Black
10
80.1292
20
-115.074
11
79.6754
21
-112.5
0
LINE
8
Black
10
79.6754
20
-112.5
11
80.1292
21
-109.926
0
LINE
8
Black
10
80.1292
20
-109.926
11
81.4358
21
-107.663
0
LINE
8
Black
10
81.4358
20
-107.663
11
83.4377
21
-105.984
0
LINE
8
Black
10
83.4377
20
-105.984
11
85.8934
21
-105.09
0
LINE
8
Black
10
85.8934
20
-105.09
11
88.5066
21
-105.09
0
LINE
8
Black
10
88.5066
20
-105.09
11
90.9623
21
-105.984
0
LINE
8
Black
10
90.9623
20
-105.984
11
92.9642
21
-107.663
0
LINE
8
Black
10
92.9642
20
-107.663
11
94.2708
21
-109.926
0
LINE
8
Black
10
94.2708
20
-109.926
11
94.7246
21
-112.5
0
LINE
8
Black
10
94.7246
20
-112.5
11
94.2708
21
-115.074
0
LINE
8
Black
10
94.2708
20
-115.074
11
92.9642
21
-117.337
0
LINE
8
Black
10
90.666
20
-109.592
11
89.4623
21
-108.582
0
LINE
8
Black
10
89.4623
20
-108.582
11
87.9857
21
-108.044
0
LINE
8
Black
10
87.9857
20
-108.044
11
86.4143
21
-108.044
0
LINE
8
Black
10
86.4143
20
-108.044
11
84.9377
21
-108.582
0
LINE
8
Black
10
84.9377
20
-108.582
11
83.734
21
-109.592
0
LINE
8
Black
10
83.734
20
-109.592
11
82.9483
21
-110.953
0
LINE
8
Black
10
82.9483
20
-110.953
11
82.6754
21
-112.5
0
LINE
8
Black
10
82.6754
20
-112.5
11
82.9483
21
-114.047
0
LINE
8
Black
10
82.9483
20
-114.047
11
83.734
21
-115.408
0
LINE
8
Black
10
83.734
20
-115.408
11
84.7869
21
-116.292
0
LINE
8
Black
10
84.7869
20
-116.292
11
84.9432
21
-116.106
0
LINE
8
Black
10
84.9432
20
-116.106
11
85.1569
21
-115.982
0
LINE
8
Black
10
85.1569
20
-115.982
11
85.4
21
-115.939
0
LINE
8
Black
10
85.4
20
-115.939
11
85.6431
21
-115.982
0
LINE
8
Black
10
85.6431
20
-115.982
11
85.8568
21
-116.106
0
LINE
8
Black
10
85.8568
20
-116.106
11
86.0155
21
-116.295
0
LINE
8
Black
10
86.0155
20
-116.295
11
86.0999
21
-116.527
0
LINE
8
Black
10
86.0999
20
-116.527
11
86.0999
21
-116.773
0
LINE
8
Black
10
86.0999
20
-116.773
11
86.0781
21
-116.833
0
LINE
8
Black
10
86.0781
20
-116.833
11
86.4143
21
-116.956
0
LINE
8
Black
10
86.4143
20
-116.956
11
87.9857
21
-116.956
0
LINE
8
Black
10
87.9857
20
-116.956
11
89.4623
21
-116.418
0
LINE
8
Black
10
89.4623
20
-116.418
11
90.666
21
-115.408
0
LINE
8
Black
10
90.666
20
-115.408
11
91.4517
21
-114.047
0
LINE
8
Black
10
91.4517
20
-114.047
11
91.7246
21
-112.5
0
LINE
8
Black
10
91.7246
20
-112.5
11
91.4517
21
-110.953
0
LINE
8
Black
10
91.4517
20
-110.953
11
90.666
21
-109.592
0
LINE
8
Black
10
85.7
20
-114.7
11
83.7
21
-114.7
0
LINE
8
Black
10
83.7
20
-114.7
11
83.7
21
-113.3
0
LINE
8
Black
10
83.7
20
-113.3
11
85.7
21
-113.3
0
LINE
8
Black
10
85.7
20
-113.3
11
85.7
21
-114.7
0
LINE
8
Black
10
90.7
20
-114.7
11
88.7
21
-114.7
0
LINE
8
Black
10
88.7
20
-114.7
11
88.7
21
-113.3
0
LINE
8
Black
10
88.7
20
-113.3
11
90.7
21
-113.3
0
LINE
8
Black
10
90.7
20
-113.3
11
90.7
21
-114.7
0
LINE
8
Black
10
85.7
20
-111.5
11
83.7
21
-111.5
0
LINE
8
Black
10
83.7
20
-111.5
11
83.7
21
-110.1
0
LINE
8
Black
10
83.7
20
-110.1
11
85.7
21
-110.1
0
LINE
8
Black
10
85.7
20
-110.1
11
85.7
21
-111.5
0
LINE
8
Black
10
90.7
20
-111.5
11
88.7
21
-111.5
0
LINE
8
Black
10
88.7
20
-111.5
11
88.7
21
-110.1
0
LINE
8
Black
10
88.7
20
-110.1
11
90.7
21
-110.1
0
LINE
8
Black
10
90.7
20
-110.1
11
90.7
21
-111.5
0
LINE
8
Black
10
25.5837
20
-110.896
11
26.0969
21
-111.193
0
LINE
8
Black
10
26.0969
20
-111.193
11
26.4779
21
-111.647
0
LINE
8
Black
10
26.4779
20
-111.647
11
26.6806
21
-112.204
0
LINE
8
Black
10
26.6806
20
-112.204
11
26.6806
21
-112.796
0
LINE
8
Black
10
26.6806
20
-112.796
11
26.4779
21
-113.353
0
LINE
8
Black
10
26.4779
20
-113.353
11
26.0969
21
-113.807
0
LINE
8
Black
10
26.0969
20
-113.807
11
25.5837
21
-114.104
0
LINE
8
Black
10
25.5837
20
-114.104
11
25
21
-114.206
0
LINE
8
Black
10
25
20
-114.206
11
24.4163
21
-114.104
0
LINE
8
Black
10
24.4163
20
-114.104
11
23.9031
21
-113.807
0
LINE
8
Black
10
23.9031
20
-113.807
11
23.5221
21
-113.353
0
LINE
8
Black
10
23.5221
20
-113.353
11
23.3194
21
-112.796
0
LINE
8
Black
10
23.3194
20
-112.796
11
23.3194
21
-112.204
0
LINE
8
Black
10
23.3194
20
-112.204
11
23.5221
21
-111.647
0
LINE
8
Black
10
23.5221
20
-111.647
11
23.9031
21
-111.193
0
LINE
8
Black
10
23.9031
20
-111.193
11
24.4163
21
-110.896
0
LINE
8
Black
10
24.4163
20
-110.896
11
25
21
-110.794
0
LINE
8
Black
10
25
20
-110.794
11
25.5837
21
-110.896
0
LINE
8
Black
10
75.5837
20
-110.896
11
76.0969
21
-111.193
0
LINE
8
Black
10
76.0969
20
-111.193
11
76.4779
21
-111.647
0
LINE
8
Black
10
76.4779
20
-111.647
11
76.6806
21
-112.204
0
LINE
8
Black
10
76.6806
20
-112.204
11
76.6806
21
-112.796
0
LINE
8
Black
10
76.6806
20
-112.796
11
76.4779
21
-113.353
0
LINE
8
Black
10
76.4779
20
-113.353
11
76.0969
21
-113.807
0
LINE
8
Black
10
76.0969
20
-113.807
11
75.5837
21
-114.104
0
LINE
8
Black
10
75.5837
20
-114.104
11
75
21
-114.206
0
LINE
8
Black
10
75
20
-114.206
11
74.4163
21
-114.104
0
LINE
8
Black
10
74.4163
20
-114.104
11
73.9031
21
-113.807
0
LINE
8
Black
10
73.9031
20
-113.807
11
73.5221
21
-113.353
0
LINE
8
Black
10
73.5221
20
-113.353
11
73.3194
21
-112.796
0
LINE
8
Black
10
73.3194
20
-112.796
11
73.3194
21
-112.204
0
LINE
8
Black
10
73.3194
20
-112.204
11
73.5221
21
-111.647
0
LINE
8
Black
10
73.5221
20
-111.647
11
73.9031
21
-111.193
0
LINE
8
Black
10
73.9031
20
-111.193
11
74.4163
21
-110.896
0
LINE
8
Black
10
74.4163
20
-110.896
11
75
21
-110.794
0
LINE
8
Black
10
75
20
-110.794
11
75.5837
21
-110.896
0
LINE
8
Black
10
48.427
20
-99.9531
11
49.2422
21
-100.424
0
LINE
8
Black
10
49.2422
20
-100.424
11
49.8472
21
-101.145
0
LINE
8
Black
10
49.8472
20
-101.145
11
50.1691
21
-102.029
0
LINE
8
Black
10
50.1691
20
-102.029
11
50.1691
21
-102.971
0
LINE
8
Black
10
50.1691
20
-102.971
11
49.8472
21
-103.855
0
LINE
8
Black
10
49.8472
20
-103.855
11
49.2422
21
-104.576
0
LINE
8
Black
10
49.2422
20
-104.576
11
48.427
21
-105.047
0
LINE
8
Black
10
48.427
20
-105.047
11
47.5
21
-105.21
0
LINE
8
Black
10
47.5
20
-105.21
11
46.573
21
-105.047
0
LINE
8
Black
10
46.573
20
-105.047
11
45.7578
21
-104.576
0
LINE
8
Black
10
45.7578
20
-104.576
11
45.1528
21
-103.855
0
LINE
8
Black
10
45.1528
20
-103.855
11
44.8309
21
-102.971
0
LINE
8
Black
10
44.8309
20
-102.971
11
44.8309
21
-102.029
0
LINE
8
Black
10
44.8309
20
-102.029
11
45.1528
21
-101.145
0
LINE
8
Black
10
45.1528
20
-101.145
11
45.7578
21
-100.424
0
LINE
8
Black
10
45.7578
20
-100.424
11
46.573
21
-99.9531
0
LINE
8
Black
10
46.573
20
-99.9531
11
47.5
21
-99.7897
0
LINE
8
Black
10
47.5
20
-99.7897
11
48.427
21
-99.9531
0
LINE
8
Black
10
98.427
20
-99.9531
11
99.2422
21
-100.424
0
LINE
8
Black
10
99.2422
20
-100.424
11
99.8472
21
-101.145
0
LINE
8
Black
10
99.8472
20
-101.145
11
100.169
21
-102.029
0
LINE
8
Black
10
100.169
20
-102.029
11
100.169
21
-102.971
0
LINE
8
Black
10
100.169
20
-102.971
11
99.8472
21
-103.855
0
LINE
8
Black
10
99.8472
20
-103.855
11
99.2422
21
-104.576
0
LINE
8
Black
10
99.2422
20
-104.576
11
98.427
21
-105.047
0
LINE
8
Black
10
98.427
20
-105.047
11
97.5
21
-105.21
0
LINE
8
Black
10
97.5
20
-105.21
11
96.573
21
-105.047
0
LINE
8
Black
10
96.573
20
-105.047
11
95.7578
21
-104.576
0
LINE
8
Black
10
95.7578
20
-104.576
11
95.1528
21
-103.855
0
LINE
8
Black
10
95.1528
20
-103.855
11
94.8309
21
-102.971
0
LINE
8
Black
10
94.8309
20
-102.971
11
94.8309
21
-102.029
0
LINE
8
Black
10
94.8309
20
-102.029
11
95.1528
21
-101.145
0
LINE
8
Black
10
95.1528
20
-101.145
11
95.7578
21
-100.424
0
LINE
8
Black
10
95.7578
20
-100.424
11
96.573
21
-99.9531
0
LINE
8
Black
10
96.573
20
-99.9531
11
97.5
21
-99.7897
0
LINE
8
Black
10
97.5
20
-99.7897
11
98.427
21
-99.9531
0
LINE
8
Black
10
3.42698
20
-94.9531
11
4.24216
21
-95.4238
0
LINE
8
Black
10
4.24216
20
-95.4238
11
4.8472
21
-96.1448
0
LINE
8
Black
10
4.8472
20
-96.1448
11
5.16914
21
-97.0294
0
LINE
8
Black
10
5.16914
20
-97.0294
11
5.16914
21
-97.9706
0
LINE
8
Black
10
5.16914
20
-97.9706
11
4.8472
21
-98.8552
0
LINE
8
Black
10
4.8472
20
-98.8552
11
4.24216
21
-99.5762
0
LINE
8
Black
10
4.24216
20
-99.5762
11
3.42698
21
-100.047
0
LINE
8
Black
10
3.42698
20
-100.047
11
2.5
21
-100.21
0
LINE
8
Black
10
2.5
20
-100.21
11
1.57302
21
-100.047
0
LINE
8
Black
10
1.57302
20
-100.047
11
0.757844
21
-99.5762
0
LINE
8
Black
10
0.757844
20
-99.5762
11
0.152799
21
-98.8552
0
LINE
8
Black
10
0.152799
20
-98.8552
11
-0.169138
21
-97.9706
0
LINE
8
Black
10
-0.169138
20
-97.9706
11
-0.169138
21
-97.0294
0
LINE
8
Black
10
-0.169138
20
-97.0294
11
0.152799
21
-96.1448
0
LINE
8
Black
10
0.152799
20
-96.1448
11
0.757844
21
-95.4238
0
LINE
8
Black
10
0.757844
20
-95.4238
11
1.57302
21
-94.9531
0
LINE
8
Black
10
1.57302
20
-94.9531
11
2.5
21
-94.7897
0
LINE
8
Black
10
2.5
20
-94.7897
11
3.42698
21
-94.9531
0
LINE
8
Black
10
53.427
20
-94.9531
11
54.2422
21
-95.4238
0
LINE
8
Black
10
54.2422
20
-95.4238
11
54.8472
21
-96.1448
0
LINE
8
Black
10
54.8472
20
-96.1448
11
55.1691
21
-97.0294
0
LINE
8
Black
10
55.1691
20
-97.0294
11
55.1691
21
-97.9706
0
LINE
8
Black
10
55.1691
20
-97.9706
11
54.8472
21
-98.8552
0
LINE
8
Black
10
54.8472
20
-98.8552
11
54.2422
21
-99.5762
0
LINE
8
Black
10
54.2422
20
-99.5762
11
53.427
21
-100.047
0
LINE
8
Black
10
53.427
20
-100.047
11
52.5
21
-100.21
0
LINE
8
Black
10
52.5
20
-100.21
11
51.573
21
-100.047
0
LINE
8
Black
10
51.573
20
-100.047
11
50.7578
21
-99.5762
0
LINE
8
Black
10
50.7578
20
-99.5762
11
50.1528
21
-98.8552
0
LINE
8
Black
10
50.1528
20
-98.8552
11
49.8309
21
-97.9706
0
LINE
8
Black
10
49.8309
20
-97.9706
11
49.8309
21
-97.0294
0
LINE
8
Black
10
49.8309
20
-97.0294
11
50.1528
21
-96.1448
0
LINE
8
Black
10
50.1528
20
-96.1448
11
50.7578
21
-95.4238
0
LINE
8
Black
10
50.7578
20
-95.4238
11
51.573
21
-94.9531
0
LINE
8
Black
10
51.573
20
-94.9531
11
52.5
21
-94.7897
0
LINE
8
Black
10
52.5
20
-94.7897
11
53.427
21
-94.9531
0
LINE
8
Black
10
67.9642
20
-82.6633
11
69.2708
21
-84.9264
0
LINE
8
Black
10
69.2708
20
-84.9264
11
69.7246
21
-87.5
0
LINE
8
Black
10
69.7246
20
-87.5
11
69.2708
21
-90.0736
0
LINE
8
Black
10
69.2708
20
-90.0736
11
67.9642
21
-92.3367
0
LINE
8
Black
10
67.9642
20
-92.3367
11
65.9623
21
-94.0165
0
LINE
8
Black
10
65.9623
20
-94.0165
11
63.5066
21
-94.9103
0
LINE
8
Black
10
63.5066
20
-94.9103
11
60.8934
21
-94.9103
0
LINE
8
Black
10
60.8934
20
-94.9103
11
58.6674
21
-94.1001
0
LINE
8
Black
10
58.6674
20
-94.1001
11
58.6655
21
-94.1054
0
LINE
8
Black
10
58.6655
20
-94.1054
11
58.5068
21
-94.2944
0
LINE
8
Black
10
58.5068
20
-94.2944
11
58.2931
21
-94.4178
0
LINE
8
Black
10
58.2931
20
-94.4178
11
58.05
21
-94.4607
0
LINE
8
Black
10
58.05
20
-94.4607
11
57.8069
21
-94.4178
0
LINE
8
Black
10
57.8069
20
-94.4178
11
57.5932
21
-94.2944
0
LINE
8
Black
10
57.5932
20
-94.2944
11
57.4345
21
-94.1054
0
LINE
8
Black
10
57.4345
20
-94.1054
11
57.3501
21
-93.8734
0
LINE
8
Black
10
57.3501
20
-93.8734
11
57.3501
21
-93.6266
0
LINE
8
Black
10
57.3501
20
-93.6266
11
57.4345
21
-93.3946
0
LINE
8
Black
10
57.4345
20
-93.3946
11
57.5428
21
-93.2656
0
LINE
8
Black
10
57.5428
20
-93.2656
11
56.4358
21
-92.3367
0
LINE
8
Black
10
56.4358
20
-92.3367
11
55.1292
21
-90.0736
0
LINE
8
Black
10
55.1292
20
-90.0736
11
54.6754
21
-87.5
0
LINE
8
Black
10
54.6754
20
-87.5
11
55.1292
21
-84.9264
0
LINE
8
Black
10
55.1292
20
-84.9264
11
56.4358
21
-82.6633
0
LINE
8
Black
10
56.4358
20
-82.6633
11
58.4377
21
-80.9835
0
LINE
8
Black
10
58.4377
20
-80.9835
11
60.8934
21
-80.0897
0
LINE
8
Black
10
60.8934
20
-80.0897
11
63.5066
21
-80.0897
0
LINE
8
Black
10
63.5066
20
-80.0897
11
65.9623
21
-80.9835
0
LINE
8
Black
10
65.9623
20
-80.9835
11
67.9642
21
-82.6633
0
LINE
8
Black
10
65.666
20
-84.5917
11
64.4623
21
-83.5816
0
LINE
8
Black
10
64.4623
20
-83.5816
11
62.9857
21
-83.0442
0
LINE
8
Black
10
62.9857
20
-83.0442
11
61.4143
21
-83.0442
0
LINE
8
Black
10
61.4143
20
-83.0442
11
59.9377
21
-83.5816
0
LINE
8
Black
10
59.9377
20
-83.5816
11
58.734
21
-84.5917
0
LINE
8
Black
10
58.734
20
-84.5917
11
57.9483
21
-85.9525
0
LINE
8
Black
10
57.9483
20
-85.9525
11
57.6754
21
-87.5
0
LINE
8
Black
10
57.6754
20
-87.5
11
57.9483
21
-89.0475
0
LINE
8
Black
10
57.9483
20
-89.0475
11
58.734
21
-90.4083
0
LINE
8
Black
10
58.734
20
-90.4083
11
59.7869
21
-91.2918
0
LINE
8
Black
10
59.7869
20
-91.2918
11
59.9432
21
-91.1056
0
LINE
8
Black
10
59.9432
20
-91.1056
11
60.1569
21
-90.9822
0
LINE
8
Black
10
60.1569
20
-90.9822
11
60.4
21
-90.9393
0
LINE
8
Black
10
60.4
20
-90.9393
11
60.6431
21
-90.9822
0
LINE
8
Black
10
60.6431
20
-90.9822
11
60.8568
21
-91.1056
0
LINE
8
Black
10
60.8568
20
-91.1056
11
61.0155
21
-91.2946
0
LINE
8
Black
10
61.0155
20
-91.2946
11
61.0999
21
-91.5266
0
LINE
8
Black
10
61.0999
20
-91.5266
11
61.0999
21
-91.7734
0
LINE
8
Black
10
61.0999
20
-91.7734
11
61.0781
21
-91.8334
0
LINE
8
Black
10
61.0781
20
-91.8334
11
61.4143
21
-91.9558
0
LINE
8
Black
10
61.4143
20
-91.9558
11
62.9857
21
-91.9558
0
LINE
8
Black
10
62.9857
20
-91.9558
11
64.4623
21
-91.4184
0
LINE
8
Black
10
64.4623
20
-91.4184
11
65.666
21
-90.4083
0
LINE
8
Black
10
65.666
20
-90.4083
11
66.4517
21
-89.0475
0
LINE
8
Black
10
66.4517
20
-89.0475
11
66.7246
21
-87.5
0
LINE
8
Black
10
66.7246
20
-87.5
11
66.4517
21
-85.9525
0
LINE
8
Black
10
66.4517
20
-85.9525
11
65.666
21
-84.5917
0
LINE
8
Black
10
60.7
20
-89.7
11
58.7
21
-89.7
0
LINE
8
Black
10
58.7
20
-89.7
11
58.7
21
-88.3
0
LINE
8
Black
10
58.7
20
-88.3
11
60.7
21
-88.3
0
LINE
8
Black
10
60.7
20
-88.3
11
60.7
21
-89.7
0
LINE
8
Black
10
65.7
20
-89.7
11
63.7
21
-89.7
0
LINE
8
Black
10
63.7
20
-89.7
11
63.7
21
-88.3
0
LINE
8
Black
10
63.7
20
-88.3
11
65.7
21
-88.3
0
LINE
8
Black
10
65.7
20
-88.3
11
65.7
21
-89.7
0
LINE
8
Black
10
65.7
20
-86.5
11
63.7
21
-86.5
0
LINE
8
Black
10
63.7
20
-86.5
11
63.7
21
-85.1
0
LINE
8
Black
10
63.7
20
-85.1
11
65.7
21
-85.1
0
LINE
8
Black
10
65.7
20
-85.1
11
65.7
21
-86.5
0
LINE
8
Black
10
60.7
20
-86.5
11
58.7
21
-86.5
0
LINE
8
Black
10
58.7
20
-86.5
11
58.7
21
-85.1
0
LINE
8
Black
10
58.7
20
-85.1
11
60.7
21
-85.1
0
LINE
8
Black
10
60.7
20
-85.1
11
60.7
21
-86.5
0
LINE
8
Black
10
92.9642
20
-92.3367
11
90.9623
21
-94.0165
0
LINE
8
Black
10
90.9623
20
-94.0165
11
88.5066
21
-94.9103
0
LINE
8
Black
10
88.5066
20
-94.9103
11
85.8934
21
-94.9103
0
LINE
8
Black
10
85.8934
20
-94.9103
11
83.6674
21
-94.1001
0
LINE
8
Black
10
83.6674
20
-94.1001
11
83.6655
21
-94.1054
0
LINE
8
Black
10
83.6655
20
-94.1054
11
83.5068
21
-94.2944
0
LINE
8
Black
10
83.5068
20
-94.2944
11
83.2931
21
-94.4178
0
LINE
8
Black
10
83.2931
20
-94.4178
11
83.05
21
-94.4607
0
LINE
8
Black
10
83.05
20
-94.4607
11
82.8069
21
-94.4178
0
LINE
8
Black
10
82.8069
20
-94.4178
11
82.5932
21
-94.2944
0
LINE
8
Black
10
82.5932
20
-94.2944
11
82.4345
21
-94.1054
0
LINE
8
Black
10
82.4345
20
-94.1054
11
82.3501
21
-93.8734
0
LINE
8
Black
10
82.3501
20
-93.8734
11
82.3501
21
-93.6266
0
LINE
8
Black
10
82.3501
20
-93.6266
11
82.4345
21
-93.3946
0
LINE
8
Black
10
82.4345
20
-93.3946
11
82.5428
21
-93.2656
0
LINE
8
Black
10
82.5428
20
-93.2656
11
81.4358
21
-92.3367
0
LINE
8
Black
10
81.4358
20
-92.3367
11
80.1292
21
-90.0736
0
LINE
8
Black
10
80.1292
20
-90.0736
11
79.6754
21
-87.5
0
LINE
8
Black
10
79.6754
20
-87.5
11
80.1292
21
-84.9264
0
LINE
8
Black
10
80.1292
20
-84.9264
11
81.4358
21
-82.6633
0
LINE
8
Black
10
81.4358
20
-82.6633
11
83.4377
21
-80.9835
0
LINE
8
Black
10
83.4377
20
-80.9835
11
85.8934
21
-80.0897
0
LINE
8
Black
10
85.8934
20
-80.0897
11
88.5066
21
-80.0897
0
LINE
8
Black
10
88.5066
20
-80.0897
11
90.9623
21
-80.9835
0
LINE
8
Black
10
90.9623
20
-80.9835
11
92.9642
21
-82.6633
0
LINE
8
Black
10
92.9642
20
-82.6633
11
94.2708
21
-84.9264
0
LINE
8
Black
10
94.2708
20
-84.9264
11
94.7246
21
-87.5
0
LINE
8
Black
10
94.7246
20
-87.5
11
94.2708
21
-90.0736
0
LINE
8
Black
10
94.2708
20
-90.0736
11
92.9642
21
-92.3367
0
LINE
8
Black
10
90.666
20
-84.5917
11
89.4623
21
-83.5816
0
LINE
8
Black
10
89.4623
20
-83.5816
11
87.9857
21
-83.0442
0
LINE
8
Black
10
87.9857
20
-83.0442
11
86.4143
21
-83.0442
0
LINE
8
Black
10
86.4143
20
-83.0442
11
84.9377
21
-83.5816
0
LINE
8
Black
10
84.9377
20
-83.5816
11
83.734
21
-84.5917
0
LINE
8
Black
10
83.734
20
-84.5917
11
82.9483
21
-85.9525
0
LINE
8
Black
10
82.9483
20
-85.9525
11
82.6754
21
-87.5
0
LINE
8
Black
10
82.6754
20
-87.5
11
82.9483
21
-89.0475
0
LINE
8
Black
10
82.9483
20
-89.0475
11
83.734
21
-90.4083
0
LINE
8
Black
10
83.734
20
-90.4083
11
84.7869
21
-91.2918
0
LINE
8
Black
10
84.7869
20
-91.2918
11
84.9432
21
-91.1056
0
LINE
8
Black
10
84.9432
20
-91.1056
11
85.1569
21
-90.9822
0
LINE
8
Black
10
85.1569
20
-90.9822
11
85.4
21
-90.9393
0
LINE
8
Black
10
85.4
20
-90.9393
11
85.6431
21
-90.9822
0
LINE
8
Black
10
85.6431
20
-90.9822
11
85.8568
21
-91.1056
0
LINE
8
Black
10
85.8568
20
-91.1056
11
86.0155
21
-91.2946
0
LINE
8
Black
10
86.0155
20
-91.2946
11
86.0999
21
-91.5266
0
LINE
8
Black
10
86.0999
20
-91.5266
11
86.0999
21
-91.7734
0
LINE
8
Black
10
86.0999
20
-91.7734
11
86.0781
21
-91.8334
0
LINE
8
Black
10
86.0781
20
-91.8334
11
86.4143
21
-91.9558
0
LINE
8
Black
10
86.4143
20
-91.9558
11
87.9857
21
-91.9558
0
LINE
8
Black
10
87.9857
20
-91.9558
11
89.4623
21
-91.4184
0
LINE
8
Black
10
89.4623
20
-91.4184
11
90.666
21
-90.4083
0
LINE
8
Black
10
90.666
20
-90.4083
11
91.4517
21
-89.0475
0
LINE
8
Black
10
91.4517
20
-89.0475
11
91.7246
21
-87.5
0
LINE
8
Black
10
91.7246
20
-87.5
11
91.4517
21
-85.9525
0
LINE
8
Black
10
91.4517
20
-85.9525
11
90.666
21
-84.5917
0
LINE
8
Black
10
90.7
20
-89.7
11
88.7
21
-89.7
0
LINE
8
Black
10
88.7
20
-89.7
11
88.7
21
-88.3
0
LINE
8
Black
10
88.7
20
-88.3
11
90.7
21
-88.3
0
LINE
8
Black
10
90.7
20
-88.3
11
90.7
21
-89.7
0
LINE
8
Black
10
85.7
20
-89.7
11
83.7
21
-89.7
0
LINE
8
Black
10
83.7
20
-89.7
11
83.7
21
-88.3
0
LINE
8
Black
10
83.7
20
-88.3
11
85.7
21
-88.3
0
LINE
8
Black
10
85.7
20
-88.3
11
85.7
21
-89.7
0
LINE
8
Black
10
90.7
20
-86.5
11
88.7
21
-86.5
0
LINE
8
Black
10
88.7
20
-86.5
11
88.7
21
-85.1
0
LINE
8
Black
10
88.7
20
-85.1
11
90.7
21
-85.1
0
LINE
8
Black
10
90.7
20
-85.1
11
90.7
21
-86.5
0
LINE
8
Black
10
85.7
20
-86.5
11
83.7
21
-86.5
0
LINE
8
Black
10
83.7
20
-86.5
11
83.7
21
-85.1
0
LINE
8
Black
10
83.7
20
-85.1
11
85.7
21
-85.1
0
LINE
8
Black
10
85.7
20
-85.1
11
85.7
21
-86.5
0
LINE
8
Black
10
17.9642
20
-82.6633
11
19.2708
21
-84.9264
0
LINE
8
Black
10
19.2708
20
-84.9264
11
19.7246
21
-87.5
0
LINE
8
Black
10
19.7246
20
-87.5
11
19.2708
21
-90.0736
0
LINE
8
Black
10
19.2708
20
-90.0736
11
17.9642
21
-92.3367
0
LINE
8
Black
10
17.9642
20
-92.3367
11
15.9623
21
-94.0165
0
LINE
8
Black
10
15.9623
20
-94.0165
11
13.5066
21
-94.9103
0
LINE
8
Black
10
13.5066
20
-94.9103
11
10.8934
21
-94.9103
0
LINE
8
Black
10
10.8934
20
-94.9103
11
8.66741
21
-94.1001
0
LINE
8
Black
10
8.66741
20
-94.1001
11
8.66549
21
-94.1054
0
LINE
8
Black
10
8.66549
20
-94.1054
11
8.50683
21
-94.2944
0
LINE
8
Black
10
8.50683
20
-94.2944
11
8.29307
21
-94.4178
0
LINE
8
Black
10
8.29307
20
-94.4178
11
8.05
21
-94.4607
0
LINE
8
Black
10
8.05
20
-94.4607
11
7.80692
21
-94.4178
0
LINE
8
Black
10
7.80692
20
-94.4178
11
7.59317
21
-94.2944
0
LINE
8
Black
10
7.59317
20
-94.2944
11
7.43451
21
-94.1054
0
LINE
8
Black
10
7.43451
20
-94.1054
11
7.35009
21
-93.8734
0
LINE
8
Black
10
7.35009
20
-93.8734
11
7.35009
21
-93.6266
0
LINE
8
Black
10
7.35009
20
-93.6266
11
7.43451
21
-93.3946
0
LINE
8
Black
10
7.43451
20
-93.3946
11
7.54283
21
-93.2656
0
LINE
8
Black
10
7.54283
20
-93.2656
11
6.43585
21
-92.3367
0
LINE
8
Black
10
6.43585
20
-92.3367
11
5.12922
21
-90.0736
0
LINE
8
Black
10
5.12922
20
-90.0736
11
4.67543
21
-87.5
0
LINE
8
Black
10
4.67543
20
-87.5
11
5.12922
21
-84.9264
0
LINE
8
Black
10
5.12922
20
-84.9264
11
6.43585
21
-82.6633
0
LINE
8
Black
10
6.43585
20
-82.6633
11
8.43772
21
-80.9835
0
LINE
8
Black
10
8.43772
20
-80.9835
11
10.8934
21
-80.0897
0
LINE
8
Black
10
10.8934
20
-80.0897
11
13.5066
21
-80.0897
0
LINE
8
Black
10
13.5066
20
-80.0897
11
15.9623
21
-80.9835
0
LINE
8
Black
10
15.9623
20
-80.9835
11
17.9642
21
-82.6633
0
LINE
8
Black
10
15.666
20
-84.5917
11
14.4623
21
-83.5816
0
LINE
8
Black
10
14.4623
20
-83.5816
11
12.9857
21
-83.0442
0
LINE
8
Black
10
12.9857
20
-83.0442
11
11.4143
21
-83.0442
0
LINE
8
Black
10
11.4143
20
-83.0442
11
9.93772
21
-83.5816
0
LINE
8
Black
10
9.93772
20
-83.5816
11
8.73398
21
-84.5917
0
LINE
8
Black
10
8.73398
20
-84.5917
11
7.9483
21
-85.9525
0
LINE
8
Black
10
7.9483
20
-85.9525
11
7.67543
21
-87.5
0
LINE
8
Black
10
7.67543
20
-87.5
11
7.9483
21
-89.0475
0
LINE
8
Black
10
7.9483
20
-89.0475
11
8.73398
21
-90.4083
0
LINE
8
Black
10
8.73398
20
-90.4083
11
9.78688
21
-91.2918
0
LINE
8
Black
10
9.78688
20
-91.2918
11
9.94317
21
-91.1056
0
LINE
8
Black
10
9.94317
20
-91.1056
11
10.1569
21
-90.9822
0
LINE
8
Black
10
10.1569
20
-90.9822
11
10.4
21
-90.9393
0
LINE
8
Black
10
10.4
20
-90.9393
11
10.6431
21
-90.9822
0
LINE
8
Black
10
10.6431
20
-90.9822
11
10.8568
21
-91.1056
0
LINE
8
Black
10
10.8568
20
-91.1056
11
11.0155
21
-91.2946
0
LINE
8
Black
10
11.0155
20
-91.2946
11
11.0999
21
-91.5266
0
LINE
8
Black
10
11.0999
20
-91.5266
11
11.0999
21
-91.7734
0
LINE
8
Black
10
11.0999
20
-91.7734
11
11.0781
21
-91.8334
0
LINE
8
Black
10
11.0781
20
-91.8334
11
11.4143
21
-91.9558
0
LINE
8
Black
10
11.4143
20
-91.9558
11
12.9857
21
-91.9558
0
LINE
8
Black
10
12.9857
20
-91.9558
11
14.4623
21
-91.4184
0
LINE
8
Black
10
14.4623
20
-91.4184
11
15.666
21
-90.4083
0
LINE
8
Black
10
15.666
20
-90.4083
11
16.4517
21
-89.0475
0
LINE
8
Black
10
16.4517
20
-89.0475
11
16.7246
21
-87.5
0
LINE
8
Black
10
16.7246
20
-87.5
11
16.4517
21
-85.9525
0
LINE
8
Black
10
16.4517
20
-85.9525
11
15.666
21
-84.5917
0
LINE
8
Black
10
15.7
20
-89.7
11
13.7
21
-89.7
0
LINE
8
Black
10
13.7
20
-89.7
11
13.7
21
-88.3
0
LINE
8
Black
10
13.7
20
-88.3
11
15.7
21
-88.3
0
LINE
8
Black
10
15.7
20
-88.3
11
15.7
21
-89.7
0
LINE
8
Black
10
10.7
20
-89.7
11
8.7
21
-89.7
0
LINE
8
Black
10
8.7
20
-89.7
11
8.7
21
-88.3
0
LINE
8
Black
10
8.7
20
-88.3
11
10.7
21
-88.3
0
LINE
8
Black
10
10.7
20
-88.3
11
10.7
21
-89.7
0
LINE
8
Black
10
10.7
20
-86.5
11
8.7
21
-86.5
0
LINE
8
Black
10
8.7
20
-86.5
11
8.7
21
-85.1
0
LINE
8
Black
10
8.7
20
-85.1
11
10.7
21
-85.1
0
LINE
8
Black
10
10.7
20
-85.1
11
10.7
21
-86.5
0
LINE
8
Black
10
15.7
20
-86.5
11
13.7
21
-86.5
0
LINE
8
Black
10
13.7
20
-86.5
11
13.7
21
-85.1
0
LINE
8
Black
10
13.7
20
-85.1
11
15.7
21
-85.1
0
LINE
8
Black
10
15.7
20
-85.1
11
15.7
21
-86.5
0
LINE
8
Black
10
42.9642
20
-92.3367
11
40.9623
21
-94.0165
0
LINE
8
Black
10
40.9623
20
-94.0165
11
38.5066
21
-94.9103
0
LINE
8
Black
10
38.5066
20
-94.9103
11
35.8934
21
-94.9103
0
LINE
8
Black
10
35.8934
20
-94.9103
11
33.6674
21
-94.1001
0
LINE
8
Black
10
33.6674
20
-94.1001
11
33.6655
21
-94.1054
0
LINE
8
Black
10
33.6655
20
-94.1054
11
33.5068
21
-94.2944
0
LINE
8
Black
10
33.5068
20
-94.2944
11
33.2931
21
-94.4178
0
LINE
8
Black
10
33.2931
20
-94.4178
11
33.05
21
-94.4607
0
LINE
8
Black
10
33.05
20
-94.4607
11
32.8069
21
-94.4178
0
LINE
8
Black
10
32.8069
20
-94.4178
11
32.5932
21
-94.2944
0
LINE
8
Black
10
32.5932
20
-94.2944
11
32.4345
21
-94.1054
0
LINE
8
Black
10
32.4345
20
-94.1054
11
32.3501
21
-93.8734
0
LINE
8
Black
10
32.3501
20
-93.8734
11
32.3501
21
-93.6266
0
LINE
8
Black
10
32.3501
20
-93.6266
11
32.4345
21
-93.3946
0
LINE
8
Black
10
32.4345
20
-93.3946
11
32.5428
21
-93.2656
0
LINE
8
Black
10
32.5428
20
-93.2656
11
31.4358
21
-92.3367
0
LINE
8
Black
10
31.4358
20
-92.3367
11
30.1292
21
-90.0736
0
LINE
8
Black
10
30.1292
20
-90.0736
11
29.6754
21
-87.5
0
LINE
8
Black
10
29.6754
20
-87.5
11
30.1292
21
-84.9264
0
LINE
8
Black
10
30.1292
20
-84.9264
11
31.4358
21
-82.6633
0
LINE
8
Black
10
31.4358
20
-82.6633
11
33.4377
21
-80.9835
0
LINE
8
Black
10
33.4377
20
-80.9835
11
35.8934
21
-80.0897
0
LINE
8
Black
10
35.8934
20
-80.0897
11
38.5066
21
-80.0897
0
LINE
8
Black
10
38.5066
20
-80.0897
11
40.9623
21
-80.9835
0
LINE
8
Black
10
40.9623
20
-80.9835
11
42.9642
21
-82.6633
0
LINE
8
Black
10
42.9642
20
-82.6633
11
44.2708
21
-84.9264
0
LINE
8
Black
10
44.2708
20
-84.9264
11
44.7246
21
-87.5
0
LINE
8
Black
10
44.7246
20
-87.5
11
44.2708
21
-90.0736
0
LINE
8
Black
10
44.2708
20
-90.0736
11
42.9642
21
-92.3367
0
LINE
8
Black
10
40.666
20
-84.5917
11
39.4623
21
-83.5816
0
LINE
8
Black
10
39.4623
20
-83.5816
11
37.9857
21
-83.0442
0
LINE
8
Black
10
37.9857
20
-83.0442
11
36.4143
21
-83.0442
0
LINE
8
Black
10
36.4143
20
-83.0442
11
34.9377
21
-83.5816
0
LINE
8
Black
10
34.9377
20
-83.5816
11
33.734
21
-84.5917
0
LINE
8
Black
10
33.734
20
-84.5917
11
32.9483
21
-85.9525
0
LINE
8
Black
10
32.9483
20
-85.9525
11
32.6754
21
-87.5
0
LINE
8
Black
10
32.6754
20
-87.5
11
32.9483
21
-89.0475
0
LINE
8
Black
10
32.9483
20
-89.0475
11
33.734
21
-90.4083
0
LINE
8
Black
10
33.734
20
-90.4083
11
34.7869
21
-91.2918
0
LINE
8
Black
10
34.7869
20
-91.2918
11
34.9432
21
-91.1056
0
LINE
8
Black
10
34.9432
20
-91.1056
11
35.1569
21
-90.9822
0
LINE
8
Black
10
35.1569
20
-90.9822
11
35.4
21
-90.9393
0
LINE
8
Black
10
35.4
20
-90.9393
11
35.6431
21
-90.9822
0
LINE
8
Black
10
35.6431
20
-90.9822
11
35.8568
21
-91.1056
0
LINE
8
Black
10
35.8568
20
-91.1056
11
36.0155
21
-91.2946
0
LINE
8
Black
10
36.0155
20
-91.2946
11
36.0999
21
-91.5266
0
LINE
8
Black
10
36.0999
20
-91.5266
11
36.0999
21
-91.7734
0
LINE
8
Black
10
36.0999
20
-91.7734
11
36.0781
21
-91.8334
0
LINE
8
Black
10
36.0781
20
-91.8334
11
36.4143
21
-91.9558
0
LINE
8
Black
10
36.4143
20
-91.9558
11
37.9857
21
-91.9558
0
LINE
8
Black
10
37.9857
20
-91.9558
11
39.4623
21
-91.4184
0
LINE
8
Black
10
39.4623
20
-91.4184
11
40.666
21
-90.4083
0
LINE
8
Black
10
40.666
20
-90.4083
11
41.4517
21
-89.0475
0
LINE
8
Black
10
41.4517
20
-89.0475
11
41.7246
21
-87.5
0
LINE
8
Black
10
41.7246
20
-87.5
11
41.4517
21
-85.9525
0
LINE
8
Black
10
41.4517
20
-85.9525
11
40.666
21
-84.5917
0
LINE
8
Black
10
35.7
20
-89.7
11
33.7
21
-89.7
0
LINE
8
Black
10
33.7
20
-89.7
11
33.7
21
-88.3
0
LINE
8
Black
10
33.7
20
-88.3
11
35.7
21
-88.3
0
LINE
8
Black
10
35.7
20
-88.3
11
35.7
21
-89.7
0
LINE
8
Black
10
40.7
20
-89.7
11
38.7
21
-89.7
0
LINE
8
Black
10
38.7
20
-89.7
11
38.7
21
-88.3
0
LINE
8
Black
10
38.7
20
-88.3
11
40.7
21
-88.3
0
LINE
8
Black
10
40.7
20
-88.3
11
40.7
21
-89.7
0
LINE
8
Black
10
40.7
20
-86.5
11
38.7
21
-86.5
0
LINE
8
Black
10
38.7
20
-86.5
11
38.7
21
-85.1
0
LINE
8
Black
10
38.7
20
-85.1
11
40.7
21
-85.1
0
LINE
8
Black
10
40.7
20
-85.1
11
40.7
21
-86.5
0
LINE
8
Black
10
35.7
20
-86.5
11
33.7
21
-86.5
0
LINE
8
Black
10
33.7
20
-86.5
11
33.7
21
-85.1
0
LINE
8
Black
10
33.7
20
-85.1
11
35.7
21
-85.1
0
LINE
8
Black
10
35.7
20
-85.1
11
35.7
21
-86.5
0
LINE
8
Black
10
52.7084
20
-89.1884
11
52.9682
21
-89.3384
0
LINE
8
Black
10
52.9682
20
-89.3384
11
53.161
21
-89.5682
0
LINE
8
Black
10
53.161
20
-89.5682
11
53.2636
21
-89.85
0
LINE
8
Black
10
53.2636
20
-89.85
11
53.2636
21
-90.15
0
LINE
8
Black
10
53.2636
20
-90.15
11
53.161
21
-90.4318
0
LINE
8
Black
10
53.161
20
-90.4318
11
52.9682
21
-90.6616
0
LINE
8
Black
10
52.9682
20
-90.6616
11
52.7084
21
-90.8116
0
LINE
8
Black
10
52.7084
20
-90.8116
11
52.413
21
-90.8637
0
LINE
8
Black
10
52.413
20
-90.8637
11
52.1176
21
-90.8116
0
LINE
8
Black
10
52.1176
20
-90.8116
11
51.8578
21
-90.6616
0
LINE
8
Black
10
51.8578
20
-90.6616
11
51.665
21
-90.4318
0
LINE
8
Black
10
51.665
20
-90.4318
11
51.5624
21
-90.15
0
LINE
8
Black
10
51.5624
20
-90.15
11
51.5624
21
-89.85
0
LINE
8
Black
10
51.5624
20
-89.85
11
51.665
21
-89.5682
0
LINE
8
Black
10
51.665
20
-89.5682
11
51.8578
21
-89.3384
0
LINE
8
Black
10
51.8578
20
-89.3384
11
52.1176
21
-89.1884
0
LINE
8
Black
10
52.1176
20
-89.1884
11
52.413
21
-89.1363
0
LINE
8
Black
10
52.413
20
-89.1363
11
52.7084
21
-89.1884
0
LINE
8
Black
10
47.8824
20
-89.1884
11
48.1422
21
-89.3384
0
LINE
8
Black
10
48.1422
20
-89.3384
11
48.335
21
-89.5682
0
LINE
8
Black
10
48.335
20
-89.5682
11
48.4376
21
-89.85
0
LINE
8
Black
10
48.4376
20
-89.85
11
48.4376
21
-90.15
0
LINE
8
Black
10
48.4376
20
-90.15
11
48.335
21
-90.4318
0
LINE
8
Black
10
48.335
20
-90.4318
11
48.1422
21
-90.6616
0
LINE
8
Black
10
48.1422
20
-90.6616
11
47.8824
21
-90.8116
0
LINE
8
Black
10
47.8824
20
-90.8116
11
47.587
21
-90.8637
0
LINE
8
Black
10
47.587
20
-90.8637
11
47.2916
21
-90.8116
0
LINE
8
Black
10
47.2916
20
-90.8116
11
47.0318
21
-90.6616
0
LINE
8
Black
10
47.0318
20
-90.6616
11
46.839
21
-90.4318
0
LINE
8
Black
10
46.839
20
-90.4318
11
46.7364
21
-90.15
0
LINE
8
Black
10
46.7364
20
-90.15
11
46.7364
21
-89.85
0
LINE
8
Black
10
46.7364
20
-89.85
11
46.839
21
-89.5682
0
LINE
8
Black
10
46.839
20
-89.5682
11
47.0318
21
-89.3384
0
LINE
8
Black
10
47.0318
20
-89.3384
11
47.2916
21
-89.1884
0
LINE
8
Black
10
47.2916
20
-89.1884
11
47.587
21
-89.1363
0
LINE
8
Black
10
47.587
20
-89.1363
11
47.8824
21
-89.1884
0
LINE
8
Black
10
25.5837
20
-85.8964
11
26.0969
21
-86.1927
0
LINE
8
Black
10
26.0969
20
-86.1927
11
26.4779
21
-86.6468
0
LINE
8
Black
10
26.4779
20
-86.6468
11
26.6806
21
-87.2037
0
LINE
8
Black
10
26.6806
20
-87.2037
11
26.6806
21
-87.7963
0
LINE
8
Black
10
26.6806
20
-87.7963
11
26.4779
21
-88.3532
0
LINE
8
Black
10
26.4779
20
-88.3532
11
26.0969
21
-88.8072
0
LINE
8
Black
10
26.0969
20
-88.8072
11
25.5837
21
-89.1036
0
LINE
8
Black
10
25.5837
20
-89.1036
11
25
21
-89.2065
0
LINE
8
Black
10
25
20
-89.2065
11
24.4163
21
-89.1036
0
LINE
8
Black
10
24.4163
20
-89.1036
11
23.9031
21
-88.8072
0
LINE
8
Black
10
23.9031
20
-88.8072
11
23.5221
21
-88.3532
0
LINE
8
Black
10
23.5221
20
-88.3532
11
23.3194
21
-87.7963
0
LINE
8
Black
10
23.3194
20
-87.7963
11
23.3194
21
-87.2037
0
LINE
8
Black
10
23.3194
20
-87.2037
11
23.5221
21
-86.6468
0
LINE
8
Black
10
23.5221
20
-86.6468
11
23.9031
21
-86.1927
0
LINE
8
Black
10
23.9031
20
-86.1927
11
24.4163
21
-85.8964
0
LINE
8
Black
10
24.4163
20
-85.8964
11
25
21
-85.7935
0
LINE
8
Black
10
25
20
-85.7935
11
25.5837
21
-85.8964
0
LINE
8
Black
10
75.5837
20
-85.8964
11
76.0969
21
-86.1927
0
LINE
8
Black
10
76.0969
20
-86.1927
11
76.4779
21
-86.6468
0
LINE
8
Black
10
76.4779
20
-86.6468
11
76.6806
21
-87.2037
0
LINE
8
Black
10
76.6806
20
-87.2037
11
76.6806
21
-87.7963
0
LINE
8
Black
10
76.6806
20
-87.7963
11
76.4779
21
-88.3532
0
LINE
8
Black
10
76.4779
20
-88.3532
11
76.0969
21
-88.8072
0
LINE
8
Black
10
76.0969
20
-88.8072
11
75.5837
21
-89.1036
0
LINE
8
Black
10
75.5837
20
-89.1036
11
75
21
-89.2065
0
LINE
8
Black
10
75
20
-89.2065
11
74.4163
21
-89.1036
0
LINE
8
Black
10
74.4163
20
-89.1036
11
73.9031
21
-88.8072
0
LINE
8
Black
10
73.9031
20
-88.8072
11
73.5221
21
-88.3532
0
LINE
8
Black
10
73.5221
20
-88.3532
11
73.3194
21
-87.7963
0
LINE
8
Black
10
73.3194
20
-87.7963
11
73.3194
21
-87.2037
0
LINE
8
Black
10
73.3194
20
-87.2037
11
73.5221
21
-86.6468
0
LINE
8
Black
10
73.5221
20
-86.6468
11
73.9031
21
-86.1927
0
LINE
8
Black
10
73.9031
20
-86.1927
11
74.4163
21
-85.8964
0
LINE
8
Black
10
74.4163
20
-85.8964
11
75
21
-85.7935
0
LINE
8
Black
10
75
20
-85.7935
11
75.5837
21
-85.8964
0
LINE
8
Black
10
63.0837
20
-73.3964
11
63.5969
21
-73.6928
0
LINE
8
Black
10
63.5969
20
-73.6928
11
63.9779
21
-74.1468
0
LINE
8
Black
10
63.9779
20
-74.1468
11
64.1806
21
-74.7037
0
LINE
8
Black
10
64.1806
20
-74.7037
11
64.1806
21
-75.2963
0
LINE
8
Black
10
64.1806
20
-75.2963
11
63.9779
21
-75.8532
0
LINE
8
Black
10
63.9779
20
-75.8532
11
63.5969
21
-76.3072
0
LINE
8
Black
10
63.5969
20
-76.3072
11
63.0837
21
-76.6036
0
LINE
8
Black
10
63.0837
20
-76.6036
11
62.5
21
-76.7065
0
LINE
8
Black
10
62.5
20
-76.7065
11
61.9163
21
-76.6036
0
LINE
8
Black
10
61.9163
20
-76.6036
11
61.4031
21
-76.3072
0
LINE
8
Black
10
61.4031
20
-76.3072
11
61.0221
21
-75.8532
0
LINE
8
Black
10
61.0221
20
-75.8532
11
60.8194
21
-75.2963
0
LINE
8
Black
10
60.8194
20
-75.2963
11
60.8194
21
-74.7037
0
LINE
8
Black
10
60.8194
20
-74.7037
11
61.0221
21
-74.1468
0
LINE
8
Black
10
61.0221
20
-74.1468
11
61.4031
21
-73.6928
0
LINE
8
Black
10
61.4031
20
-73.6928
11
61.9163
21
-73.3964
0
LINE
8
Black
10
61.9163
20
-73.3964
11
62.5
21
-73.2935
0
LINE
8
Black
10
62.5
20
-73.2935
11
63.0837
21
-73.3964
0
LINE
8
Black
10
13.0837
20
-73.3964
11
13.5969
21
-73.6928
0
LINE
8
Black
10
13.5969
20
-73.6928
11
13.9779
21
-74.1468
0
LINE
8
Black
10
13.9779
20
-74.1468
11
14.1806
21
-74.7037
0
LINE
8
Black
10
14.1806
20
-74.7037
11
14.1806
21
-75.2963
0
LINE
8
Black
10
14.1806
20
-75.2963
11
13.9779
21
-75.8532
0
LINE
8
Black
10
13.9779
20
-75.8532
11
13.5969
21
-76.3072
0
LINE
8
Black
10
13.5969
20
-76.3072
11
13.0837
21
-76.6036
0
LINE
8
Black
10
13.0837
20
-76.6036
11
12.5
21
-76.7065
0
LINE
8
Black
10
12.5
20
-76.7065
11
11.9163
21
-76.6036
0
LINE
8
Black
10
11.9163
20
-76.6036
11
11.4031
21
-76.3072
0
LINE
8
Black
10
11.4031
20
-76.3072
11
11.0221
21
-75.8532
0
LINE
8
Black
10
11.0221
20
-75.8532
11
10.8194
21
-75.2963
0
LINE
8
Black
10
10.8194
20
-75.2963
11
10.8194
21
-74.7037
0
LINE
8
Black
10
10.8194
20
-74.7037
11
11.0221
21
-74.1468
0
LINE
8
Black
10
11.0221
20
-74.1468
11
11.4031
21
-73.6928
0
LINE
8
Black
10
11.4031
20
-73.6928
11
11.9163
21
-73.3964
0
LINE
8
Black
10
11.9163
20
-73.3964
11
12.5
21
-73.2935
0
LINE
8
Black
10
12.5
20
-73.2935
11
13.0837
21
-73.3964
0
LINE
8
Black
10
88.0837
20
-73.3964
11
88.5969
21
-73.6928
0
LINE
8
Black
10
88.5969
20
-73.6928
11
88.9779
21
-74.1468
0
LINE
8
Black
10
88.9779
20
-74.1468
11
89.1806
21
-74.7037
0
LINE
8
Black
10
89.1806
20
-74.7037
11
89.1806
21
-75.2963
0
LINE
8
Black
10
89.1806
20
-75.2963
11
88.9779
21
-75.8532
0
LINE
8
Black
10
88.9779
20
-75.8532
11
88.5969
21
-76.3072
0
LINE
8
Black
10
88.5969
20
-76.3072
11
88.0837
21
-76.6036
0
LINE
8
Black
10
88.0837
20
-76.6036
11
87.5
21
-76.7065
0
LINE
8
Black
10
87.5
20
-76.7065
11
86.9163
21
-76.6036
0
LINE
8
Black
10
86.9163
20
-76.6036
11
86.4031
21
-76.3072
0
LINE
8
Black
10
86.4031
20
-76.3072
11
86.0221
21
-75.8532
0
LINE
8
Black
10
86.0221
20
-75.8532
11
85.8194
21
-75.2963
0
LINE
8
Black
10
85.8194
20
-75.2963
11
85.8194
21
-74.7037
0
LINE
8
Black
10
85.8194
20
-74.7037
11
86.0221
21
-74.1468
0
LINE
8
Black
10
86.0221
20
-74.1468
11
86.4031
21
-73.6928
0
LINE
8
Black
10
86.4031
20
-73.6928
11
86.9163
21
-73.3964
0
LINE
8
Black
10
86.9163
20
-73.3964
11
87.5
21
-73.2935
0
LINE
8
Black
10
87.5
20
-73.2935
11
88.0837
21
-73.3964
0
LINE
8
Black
10
42.9642
20
-67.3367
11
40.9623
21
-69.0165
0
LINE
8
Black
10
40.9623
20
-69.0165
11
38.5066
21
-69.9103
0
LINE
8
Black
10
38.5066
20
-69.9103
11
35.8934
21
-69.9103
0
LINE
8
Black
10
35.8934
20
-69.9103
11
33.6674
21
-69.1001
0
LINE
8
Black
10
33.6674
20
-69.1001
11
33.6655
21
-69.1054
0
LINE
8
Black
10
33.6655
20
-69.1054
11
33.5068
21
-69.2944
0
LINE
8
Black
10
33.5068
20
-69.2944
11
33.2931
21
-69.4178
0
LINE
8
Black
10
33.2931
20
-69.4178
11
33.05
21
-69.4607
0
LINE
8
Black
10
33.05
20
-69.4607
11
32.8069
21
-69.4178
0
LINE
8
Black
10
32.8069
20
-69.4178
11
32.5932
21
-69.2944
0
LINE
8
Black
10
32.5932
20
-69.2944
11
32.4345
21
-69.1054
0
LINE
8
Black
10
32.4345
20
-69.1054
11
32.3501
21
-68.8734
0
LINE
8
Black
10
32.3501
20
-68.8734
11
32.3501
21
-68.6266
0
LINE
8
Black
10
32.3501
20
-68.6266
11
32.4345
21
-68.3946
0
LINE
8
Black
10
32.4345
20
-68.3946
11
32.5428
21
-68.2656
0
LINE
8
Black
10
32.5428
20
-68.2656
11
31.4358
21
-67.3367
0
LINE
8
Black
10
31.4358
20
-67.3367
11
30.1292
21
-65.0736
0
LINE
8
Black
10
30.1292
20
-65.0736
11
29.6754
21
-62.5
0
LINE
8
Black
10
29.6754
20
-62.5
11
30.1292
21
-59.9264
0
LINE
8
Black
10
30.1292
20
-59.9264
11
31.4358
21
-57.6633
0
LINE
8
Black
10
31.4358
20
-57.6633
11
33.4377
21
-55.9835
0
LINE
8
Black
10
33.4377
20
-55.9835
11
35.8934
21
-55.0897
0
LINE
8
Black
10
35.8934
20
-55.0897
11
38.5066
21
-55.0897
0
LINE
8
Black
10
38.5066
20
-55.0897
11
40.9623
21
-55.9835
0
LINE
8
Black
10
40.9623
20
-55.9835
11
42.9642
21
-57.6633
0
LINE
8
Black
10
42.9642
20
-57.6633
11
44.2708
21
-59.9264
0
LINE
8
Black
10
44.2708
20
-59.9264
11
44.7246
21
-62.5
0
LINE
8
Black
10
44.7246
20
-62.5
11
44.2708
21
-65.0736
0
LINE
8
Black
10
44.2708
20
-65.0736
11
42.9642
21
-67.3367
0
LINE
8
Black
10
40.666
20
-59.5917
11
39.4623
21
-58.5816
0
LINE
8
Black
10
39.4623
20
-58.5816
11
37.9857
21
-58.0442
0
LINE
8
Black
10
37.9857
20
-58.0442
11
36.4143
21
-58.0442
0
LINE
8
Black
10
36.4143
20
-58.0442
11
34.9377
21
-58.5816
0
LINE
8
Black
10
34.9377
20
-58.5816
11
33.734
21
-59.5917
0
LINE
8
Black
10
33.734
20
-59.5917
11
32.9483
21
-60.9525
0
LINE
8
Black
10
32.9483
20
-60.9525
11
32.6754
21
-62.5
0
LINE
8
Black
10
32.6754
20
-62.5
11
32.9483
21
-64.0475
0
LINE
8
Black
10
32.9483
20
-64.0475
11
33.734
21
-65.4083
0
LINE
8
Black
10
33.734
20
-65.4083
11
34.7869
21
-66.2918
0
LINE
8
Black
10
34.7869
20
-66.2918
11
34.9432
21
-66.1056
0
LINE
8
Black
10
34.9432
20
-66.1056
11
35.1569
21
-65.9822
0
LINE
8
Black
10
35.1569
20
-65.9822
11
35.4
21
-65.9393
0
LINE
8
Black
10
35.4
20
-65.9393
11
35.6431
21
-65.9822
0
LINE
8
Black
10
35.6431
20
-65.9822
11
35.8568
21
-66.1056
0
LINE
8
Black
10
35.8568
20
-66.1056
11
36.0155
21
-66.2946
0
LINE
8
Black
10
36.0155
20
-66.2946
11
36.0999
21
-66.5266
0
LINE
8
Black
10
36.0999
20
-66.5266
11
36.0999
21
-66.7734
0
LINE
8
Black
10
36.0999
20
-66.7734
11
36.0781
21
-66.8334
0
LINE
8
Black
10
36.0781
20
-66.8334
11
36.4143
21
-66.9558
0
LINE
8
Black
10
36.4143
20
-66.9558
11
37.9857
21
-66.9558
0
LINE
8
Black
10
37.9857
20
-66.9558
11
39.4623
21
-66.4184
0
LINE
8
Black
10
39.4623
20
-66.4184
11
40.666
21
-65.4083
0
LINE
8
Black
10
40.666
20
-65.4083
11
41.4517
21
-64.0475
0
LINE
8
Black
10
41.4517
20
-64.0475
11
41.7246
21
-62.5
0
LINE
8
Black
10
41.7246
20
-62.5
11
41.4517
21
-60.9525
0
LINE
8
Black
10
41.4517
20
-60.9525
11
40.666
21
-59.5917
0
LINE
8
Black
10
40.7
20
-64.7
11
38.7
21
-64.7
0
LINE
8
Black
10
38.7
20
-64.7
11
38.7
21
-63.3
0
LINE
8
Black
10
38.7
20
-63.3
11
40.7
21
-63.3
0
LINE
8
Black
10
40.7
20
-63.3
11
40.7
21
-64.7
0
LINE
8
Black
10
35.7
20
-64.7
11
33.7
21
-64.7
0
LINE
8
Black
10
33.7
20
-64.7
11
33.7
21
-63.3
0
LINE
8
Black
10
33.7
20
-63.3
11
35.7
21
-63.3
0
LINE
8
Black
10
35.7
20
-63.3
11
35.7
21
-64.7
0
LINE
8
Black
10
40.7
20
-61.5
11
38.7
21
-61.5
0
LINE
8
Black
10
38.7
20
-61.5
11
38.7
21
-60.1
0
LINE
8
Black
10
38.7
20
-60.1
11
40.7
21
-60.1
0
LINE
8
Black
10
40.7
20
-60.1
11
40.7
21
-61.5
0
LINE
8
Black
10
35.7
20
-61.5
11
33.7
21
-61.5
0
LINE
8
Black
10
33.7
20
-61.5
11
33.7
21
-60.1
0
LINE
8
Black
10
33.7
20
-60.1
11
35.7
21
-60.1
0
LINE
8
Black
10
35.7
20
-60.1
11
35.7
21
-61.5
0
LINE
8
Black
10
17.9642
20
-67.3367
11
15.9623
21
-69.0165
0
LINE
8
Black
10
15.9623
20
-69.0165
11
13.5066
21
-69.9103
0
LINE
8
Black
10
13.5066
20
-69.9103
11
10.8934
21
-69.9103
0
LINE
8
Black
10
10.8934
20
-69.9103
11
8.43772
21
-69.0165
0
LINE
8
Black
10
8.43772
20
-69.0165
11
6.43585
21
-67.3367
0
LINE
8
Black
10
6.43585
20
-67.3367
11
5.12922
21
-65.0736
0
LINE
8
Black
10
5.12922
20
-65.0736
11
4.67543
21
-62.5
0
LINE
8
Black
10
4.67543
20
-62.5
11
5.12922
21
-59.9264
0
LINE
8
Black
10
5.12922
20
-59.9264
11
6.43585
21
-57.6633
0
LINE
8
Black
10
6.43585
20
-57.6633
11
8.43772
21
-55.9835
0
LINE
8
Black
10
8.43772
20
-55.9835
11
10.8934
21
-55.0897
0
LINE
8
Black
10
10.8934
20
-55.0897
11
13.5066
21
-55.0897
0
LINE
8
Black
10
13.5066
20
-55.0897
11
13.8844
21
-55.2272
0
LINE
8
Black
10
13.8844
20
-55.2272
11
13.9545
21
-55.0346
0
LINE
8
Black
10
13.9545
20
-55.0346
11
14.1132
21
-54.8456
0
LINE
8
Black
10
14.1132
20
-54.8456
11
14.3269
21
-54.7222
0
LINE
8
Black
10
14.3269
20
-54.7222
11
14.57
21
-54.6793
0
LINE
8
Black
10
14.57
20
-54.6793
11
14.8131
21
-54.7222
0
LINE
8
Black
10
14.8131
20
-54.7222
11
15.0268
21
-54.8456
0
LINE
8
Black
10
15.0268
20
-54.8456
11
15.1855
21
-55.0346
0
LINE
8
Black
10
15.1855
20
-55.0346
11
15.2699
21
-55.2666
0
LINE
8
Black
10
15.2699
20
-55.2666
11
15.2699
21
-55.5134
0
LINE
8
Black
10
15.2699
20
-55.5134
11
15.1998
21
-55.706
0
LINE
8
Black
10
15.1998
20
-55.706
11
15.9623
21
-55.9835
0
LINE
8
Black
10
15.9623
20
-55.9835
11
17.9642
21
-57.6633
0
LINE
8
Black
10
17.9642
20
-57.6633
11
19.2708
21
-59.9264
0
LINE
8
Black
10
19.2708
20
-59.9264
11
19.7246
21
-62.5
0
LINE
8
Black
10
19.7246
20
-62.5
11
19.2708
21
-65.0736
0
LINE
8
Black
10
19.2708
20
-65.0736
11
17.9642
21
-67.3367
0
LINE
8
Black
10
15.666
20
-59.5917
11
14.4623
21
-58.5816
0
LINE
8
Black
10
14.4623
20
-58.5816
11
13.4684
21
-58.2199
0
LINE
8
Black
10
13.4684
20
-58.2199
11
13.4155
21
-58.3654
0
LINE
8
Black
10
13.4155
20
-58.3654
11
13.2568
21
-58.5544
0
LINE
8
Black
10
13.2568
20
-58.5544
11
13.0431
21
-58.6778
0
LINE
8
Black
10
13.0431
20
-58.6778
11
12.8
21
-58.7207
0
LINE
8
Black
10
12.8
20
-58.7207
11
12.5569
21
-58.6778
0
LINE
8
Black
10
12.5569
20
-58.6778
11
12.3432
21
-58.5544
0
LINE
8
Black
10
12.3432
20
-58.5544
11
12.1845
21
-58.3654
0
LINE
8
Black
10
12.1845
20
-58.3654
11
12.1001
21
-58.1334
0
LINE
8
Black
10
12.1001
20
-58.1334
11
12.1001
21
-58.0442
0
LINE
8
Black
10
12.1001
20
-58.0442
11
11.4143
21
-58.0442
0
LINE
8
Black
10
11.4143
20
-58.0442
11
9.93772
21
-58.5816
0
LINE
8
Black
10
9.93772
20
-58.5816
11
8.73398
21
-59.5917
0
LINE
8
Black
10
8.73398
20
-59.5917
11
7.9483
21
-60.9525
0
LINE
8
Black
10
7.9483
20
-60.9525
11
7.67543
21
-62.5
0
LINE
8
Black
10
7.67543
20
-62.5
11
7.9483
21
-64.0475
0
LINE
8
Black
10
7.9483
20
-64.0475
11
8.73398
21
-65.4083
0
LINE
8
Black
10
8.73398
20
-65.4083
11
9.93772
21
-66.4184
0
LINE
8
Black
10
9.93772
20
-66.4184
11
11.4143
21
-66.9558
0
LINE
8
Black
10
11.4143
20
-66.9558
11
12.9857
21
-66.9558
0
LINE
8
Black
10
12.9857
20
-66.9558
11
14.4623
21
-66.4184
0
LINE
8
Black
10
14.4623
20
-66.4184
11
15.666
21
-65.4083
0
LINE
8
Black
10
15.666
20
-65.4083
11
16.4517
21
-64.0475
0
LINE
8
Black
10
16.4517
20
-64.0475
11
16.7246
21
-62.5
0
LINE
8
Black
10
16.7246
20
-62.5
11
16.4517
21
-60.9525
0
LINE
8
Black
10
16.4517
20
-60.9525
11
15.666
21
-59.5917
0
LINE
8
Black
10
10.7
20
-64.7
11
8.7
21
-64.7
0
LINE
8
Black
10
8.7
20
-64.7
11
8.7
21
-63.3
0
LINE
8
Black
10
8.7
20
-63.3
11
10.7
21
-63.3
0
LINE
8
Black
10
10.7
20
-63.3
11
10.7
21
-64.7
0
LINE
8
Black
10
15.7
20
-64.7
11
13.7
21
-64.7
0
LINE
8
Black
10
13.7
20
-64.7
11
13.7
21
-63.3
0
LINE
8
Black
10
13.7
20
-63.3
11
15.7
21
-63.3
0
LINE
8
Black
10
15.7
20
-63.3
11
15.7
21
-64.7
0
LINE
8
Black
10
10.7
20
-61.5
11
8.7
21
-61.5
0
LINE
8
Black
10
8.7
20
-61.5
11
8.7
21
-60.1
0
LINE
8
Black
10
8.7
20
-60.1
11
10.7
21
-60.1
0
LINE
8
Black
10
10.7
20
-60.1
11
10.7
21
-61.5
0
LINE
8
Black
10
15.7
20
-61.5
11
13.7
21
-61.5
0
LINE
8
Black
10
13.7
20
-61.5
11
13.7
21
-60.1
0
LINE
8
Black
10
13.7
20
-60.1
11
15.7
21
-60.1
0
LINE
8
Black
10
15.7
20
-60.1
11
15.7
21
-61.5
0
LINE
8
Black
10
92.9642
20
-57.6633
11
94.2708
21
-59.9264
0
LINE
8
Black
10
94.2708
20
-59.9264
11
94.7246
21
-62.5
0
LINE
8
Black
10
94.7246
20
-62.5
11
94.2708
21
-65.0736
0
LINE
8
Black
10
94.2708
20
-65.0736
11
92.9642
21
-67.3367
0
LINE
8
Black
10
92.9642
20
-67.3367
11
90.9623
21
-69.0165
0
LINE
8
Black
10
90.9623
20
-69.0165
11
88.5066
21
-69.9103
0
LINE
8
Black
10
88.5066
20
-69.9103
11
85.8934
21
-69.9103
0
LINE
8
Black
10
85.8934
20
-69.9103
11
83.6674
21
-69.1001
0
LINE
8
Black
10
83.6674
20
-69.1001
11
83.6655
21
-69.1054
0
LINE
8
Black
10
83.6655
20
-69.1054
11
83.5068
21
-69.2944
0
LINE
8
Black
10
83.5068
20
-69.2944
11
83.2931
21
-69.4178
0
LINE
8
Black
10
83.2931
20
-69.4178
11
83.05
21
-69.4607
0
LINE
8
Black
10
83.05
20
-69.4607
11
82.8069
21
-69.4178
0
LINE
8
Black
10
82.8069
20
-69.4178
11
82.5932
21
-69.2944
0
LINE
8
Black
10
82.5932
20
-69.2944
11
82.4345
21
-69.1054
0
LINE
8
Black
10
82.4345
20
-69.1054
11
82.3501
21
-68.8734
0
LINE
8
Black
10
82.3501
20
-68.8734
11
82.3501
21
-68.6266
0
LINE
8
Black
10
82.3501
20
-68.6266
11
82.4345
21
-68.3946
0
LINE
8
Black
10
82.4345
20
-68.3946
11
82.5428
21
-68.2656
0
LINE
8
Black
10
82.5428
20
-68.2656
11
81.4358
21
-67.3367
0
LINE
8
Black
10
81.4358
20
-67.3367
11
80.1292
21
-65.0736
0
LINE
8
Black
10
80.1292
20
-65.0736
11
79.6754
21
-62.5
0
LINE
8
Black
10
79.6754
20
-62.5
11
80.1292
21
-59.9264
0
LINE
8
Black
10
80.1292
20
-59.9264
11
81.4358
21
-57.6633
0
LINE
8
Black
10
81.4358
20
-57.6633
11
83.4377
21
-55.9835
0
LINE
8
Black
10
83.4377
20
-55.9835
11
85.8934
21
-55.0897
0
LINE
8
Black
10
85.8934
20
-55.0897
11
88.5066
21
-55.0897
0
LINE
8
Black
10
88.5066
20
-55.0897
11
90.9623
21
-55.9835
0
LINE
8
Black
10
90.9623
20
-55.9835
11
92.9642
21
-57.6633
0
LINE
8
Black
10
90.666
20
-59.5917
11
89.4623
21
-58.5816
0
LINE
8
Black
10
89.4623
20
-58.5816
11
87.9857
21
-58.0442
0
LINE
8
Black
10
87.9857
20
-58.0442
11
86.4143
21
-58.0442
0
LINE
8
Black
10
86.4143
20
-58.0442
11
84.9377
21
-58.5816
0
LINE
8
Black
10
84.9377
20
-58.5816
11
83.734
21
-59.5917
0
LINE
8
Black
10
83.734
20
-59.5917
11
82.9483
21
-60.9525
0
LINE
8
Black
10
82.9483
20
-60.9525
11
82.6754
21
-62.5
0
LINE
8
Black
10
82.6754
20
-62.5
11
82.9483
21
-64.0475
0
LINE
8
Black
10
82.9483
20
-64.0475
11
83.734
21
-65.4083
0
LINE
8
Black
10
83.734
20
-65.4083
11
84.7869
21
-66.2918
0
LINE
8
Black
10
84.7869
20
-66.2918
11
84.9432
21
-66.1056
0
LINE
8
Black
10
84.9432
20
-66.1056
11
85.1569
21
-65.9822
0
LINE
8
Black
10
85.1569
20
-65.9822
11
85.4
21
-65.9393
0
LINE
8
Black
10
85.4
20
-65.9393
11
85.6431
21
-65.9822
0
LINE
8
Black
10
85.6431
20
-65.9822
11
85.8568
21
-66.1056
0
LINE
8
Black
10
85.8568
20
-66.1056
11
86.0155
21
-66.2946
0
LINE
8
Black
10
86.0155
20
-66.2946
11
86.0999
21
-66.5266
0
LINE
8
Black
10
86.0999
20
-66.5266
11
86.0999
21
-66.7734
0
LINE
8
Black
10
86.0999
20
-66.7734
11
86.0781
21
-66.8334
0
LINE
8
Black
10
86.0781
20
-66.8334
11
86.4143
21
-66.9558
0
LINE
8
Black
10
86.4143
20
-66.9558
11
87.9857
21
-66.9558
0
LINE
8
Black
10
87.9857
20
-66.9558
11
89.4623
21
-66.4184
0
LINE
8
Black
10
89.4623
20
-66.4184
11
90.666
21
-65.4083
0
LINE
8
Black
10
90.666
20
-65.4083
11
91.4517
21
-64.0475
0
LINE
8
Black
10
91.4517
20
-64.0475
11
91.7246
21
-62.5
0
LINE
8
Black
10
91.7246
20
-62.5
11
91.4517
21
-60.9525
0
LINE
8
Black
10
91.4517
20
-60.9525
11
90.666
21
-59.5917
0
LINE
8
Black
10
90.7
20
-64.7
11
88.7
21
-64.7
0
LINE
8
Black
10
88.7
20
-64.7
11
88.7
21
-63.3
0
LINE
8
Black
10
88.7
20
-63.3
11
90.7
21
-63.3
0
LINE
8
Black
10
90.7
20
-63.3
11
90.7
21
-64.7
0
LINE
8
Black
10
85.7
20
-64.7
11
83.7
21
-64.7
0
LINE
8
Black
10
83.7
20
-64.7
11
83.7
21
-63.3
0
LINE
8
Black
10
83.7
20
-63.3
11
85.7
21
-63.3
0
LINE
8
Black
10
85.7
20
-63.3
11
85.7
21
-64.7
0
LINE
8
Black
10
90.7
20
-61.5
11
88.7
21
-61.5
0
LINE
8
Black
10
88.7
20
-61.5
11
88.7
21
-60.1
0
LINE
8
Black
10
88.7
20
-60.1
11
90.7
21
-60.1
0
LINE
8
Black
10
90.7
20
-60.1
11
90.7
21
-61.5
0
LINE
8
Black
10
85.7
20
-61.5
11
83.7
21
-61.5
0
LINE
8
Black
10
83.7
20
-61.5
11
83.7
21
-60.1
0
LINE
8
Black
10
83.7
20
-60.1
11
85.7
21
-60.1
0
LINE
8
Black
10
85.7
20
-60.1
11
85.7
21
-61.5
0
LINE
8
Black
10
67.9642
20
-67.3367
11
65.9623
21
-69.0165
0
LINE
8
Black
10
65.9623
20
-69.0165
11
63.5066
21
-69.9103
0
LINE
8
Black
10
63.5066
20
-69.9103
11
60.8934
21
-69.9103
0
LINE
8
Black
10
60.8934
20
-69.9103
11
58.6674
21
-69.1001
0
LINE
8
Black
10
58.6674
20
-69.1001
11
58.6655
21
-69.1054
0
LINE
8
Black
10
58.6655
20
-69.1054
11
58.5068
21
-69.2944
0
LINE
8
Black
10
58.5068
20
-69.2944
11
58.2931
21
-69.4178
0
LINE
8
Black
10
58.2931
20
-69.4178
11
58.05
21
-69.4607
0
LINE
8
Black
10
58.05
20
-69.4607
11
57.8069
21
-69.4178
0
LINE
8
Black
10
57.8069
20
-69.4178
11
57.5932
21
-69.2944
0
LINE
8
Black
10
57.5932
20
-69.2944
11
57.4345
21
-69.1054
0
LINE
8
Black
10
57.4345
20
-69.1054
11
57.3501
21
-68.8734
0
LINE
8
Black
10
57.3501
20
-68.8734
11
57.3501
21
-68.6266
0
LINE
8
Black
10
57.3501
20
-68.6266
11
57.4345
21
-68.3946
0
LINE
8
Black
10
57.4345
20
-68.3946
11
57.5428
21
-68.2656
0
LINE
8
Black
10
57.5428
20
-68.2656
11
56.4358
21
-67.3367
0
LINE
8
Black
10
56.4358
20
-67.3367
11
55.1292
21
-65.0736
0
LINE
8
Black
10
55.1292
20
-65.0736
11
54.6754
21
-62.5
0
LINE
8
Black
10
54.6754
20
-62.5
11
55.1292
21
-59.9264
0
LINE
8
Black
10
55.1292
20
-59.9264
11
56.4358
21
-57.6633
0
LINE
8
Black
10
56.4358
20
-57.6633
11
58.4377
21
-55.9835
0
LINE
8
Black
10
58.4377
20
-55.9835
11
60.8934
21
-55.0897
0
LINE
8
Black
10
60.8934
20
-55.0897
11
63.5066
21
-55.0897
0
LINE
8
Black
10
63.5066
20
-55.0897
11
65.9623
21
-55.9835
0
LINE
8
Black
10
65.9623
20
-55.9835
11
67.9642
21
-57.6633
0
LINE
8
Black
10
67.9642
20
-57.6633
11
69.2708
21
-59.9264
0
LINE
8
Black
10
69.2708
20
-59.9264
11
69.7246
21
-62.5
0
LINE
8
Black
10
69.7246
20
-62.5
11
69.2708
21
-65.0736
0
LINE
8
Black
10
69.2708
20
-65.0736
11
67.9642
21
-67.3367
0
LINE
8
Black
10
65.666
20
-59.5917
11
64.4623
21
-58.5816
0
LINE
8
Black
10
64.4623
20
-58.5816
11
62.9857
21
-58.0442
0
LINE
8
Black
10
62.9857
20
-58.0442
11
61.4143
21
-58.0442
0
LINE
8
Black
10
61.4143
20
-58.0442
11
59.9377
21
-58.5816
0
LINE
8
Black
10
59.9377
20
-58.5816
11
58.734
21
-59.5917
0
LINE
8
Black
10
58.734
20
-59.5917
11
57.9483
21
-60.9525
0
LINE
8
Black
10
57.9483
20
-60.9525
11
57.6754
21
-62.5
0
LINE
8
Black
10
57.6754
20
-62.5
11
57.9483
21
-64.0475
0
LINE
8
Black
10
57.9483
20
-64.0475
11
58.734
21
-65.4083
0
LINE
8
Black
10
58.734
20
-65.4083
11
59.7869
21
-66.2918
0
LINE
8
Black
10
59.7869
20
-66.2918
11
59.9432
21
-66.1056
0
LINE
8
Black
10
59.9432
20
-66.1056
11
60.1569
21
-65.9822
0
LINE
8
Black
10
60.1569
20
-65.9822
11
60.4
21
-65.9393
0
LINE
8
Black
10
60.4
20
-65.9393
11
60.6431
21
-65.9822
0
LINE
8
Black
10
60.6431
20
-65.9822
11
60.8568
21
-66.1056
0
LINE
8
Black
10
60.8568
20
-66.1056
11
61.0155
21
-66.2946
0
LINE
8
Black
10
61.0155
20
-66.2946
11
61.0999
21
-66.5266
0
LINE
8
Black
10
61.0999
20
-66.5266
11
61.0999
21
-66.7734
0
LINE
8
Black
10
61.0999
20
-66.7734
11
61.0781
21
-66.8334
0
LINE
8
Black
10
61.0781
20
-66.8334
11
61.4143
21
-66.9558
0
LINE
8
Black
10
61.4143
20
-66.9558
11
62.9857
21
-66.9558
0
LINE
8
Black
10
62.9857
20
-66.9558
11
64.4623
21
-66.4184
0
LINE
8
Black
10
64.4623
20
-66.4184
11
65.666
21
-65.4083
0
LINE
8
Black
10
65.666
20
-65.4083
11
66.4517
21
-64.0475
0
LINE
8
Black
10
66.4517
20
-64.0475
11
66.7246
21
-62.5
0
LINE
8
Black
10
66.7246
20
-62.5
11
66.4517
21
-60.9525
0
LINE
8
Black
10
66.4517
20
-60.9525
11
65.666
21
-59.5917
0
LINE
8
Black
10
60.7
20
-64.7
11
58.7
21
-64.7
0
LINE
8
Black
10
58.7
20
-64.7
11
58.7
21
-63.3
0
LINE
8
Black
10
58.7
20
-63.3
11
60.7
21
-63.3
0
LINE
8
Black
10
60.7
20
-63.3
11
60.7
21
-64.7
0
LINE
8
Black
10
65.7
20
-64.7
11
63.7
21
-64.7
0
LINE
8
Black
10
63.7
20
-64.7
11
63.7
21
-63.3
0
LINE
8
Black
10
63.7
20
-63.3
11
65.7
21
-63.3
0
LINE
8
Black
10
65.7
20
-63.3
11
65.7
21
-64.7
0
LINE
8
Black
10
65.7
20
-61.5
11
63.7
21
-61.5
0
LINE
8
Black
10
63.7
20
-61.5
11
63.7
21
-60.1
0
LINE
8
Black
10
63.7
20
-60.1
11
65.7
21
-60.1
0
LINE
8
Black
10
65.7
20
-60.1
11
65.7
21
-61.5
0
LINE
8
Black
10
60.7
20
-61.5
11
58.7
21
-61.5
0
LINE
8
Black
10
58.7
20
-61.5
11
58.7
21
-60.1
0
LINE
8
Black
10
58.7
20
-60.1
11
60.7
21
-60.1
0
LINE
8
Black
10
60.7
20
-60.1
11
60.7
21
-61.5
0
LINE
8
Black
10
75.5837
20
-60.8964
11
76.0969
21
-61.1927
0
LINE
8
Black
10
76.0969
20
-61.1927
11
76.4779
21
-61.6468
0
LINE
8
Black
10
76.4779
20
-61.6468
11
76.6806
21
-62.2037
0
LINE
8
Black
10
76.6806
20
-62.2037
11
76.6806
21
-62.7963
0
LINE
8
Black
10
76.6806
20
-62.7963
11
76.4779
21
-63.3532
0
LINE
8
Black
10
76.4779
20
-63.3532
11
76.0969
21
-63.8072
0
LINE
8
Black
10
76.0969
20
-63.8072
11
75.5837
21
-64.1036
0
LINE
8
Black
10
75.5837
20
-64.1036
11
75
21
-64.2065
0
LINE
8
Black
10
75
20
-64.2065
11
74.4163
21
-64.1036
0
LINE
8
Black
10
74.4163
20
-64.1036
11
73.9031
21
-63.8072
0
LINE
8
Black
10
73.9031
20
-63.8072
11
73.5221
21
-63.3532
0
LINE
8
Black
10
73.5221
20
-63.3532
11
73.3194
21
-62.7963
0
LINE
8
Black
10
73.3194
20
-62.7963
11
73.3194
21
-62.2037
0
LINE
8
Black
10
73.3194
20
-62.2037
11
73.5221
21
-61.6468
0
LINE
8
Black
10
73.5221
20
-61.6468
11
73.9031
21
-61.1927
0
LINE
8
Black
10
73.9031
20
-61.1927
11
74.4163
21
-60.8964
0
LINE
8
Black
10
74.4163
20
-60.8964
11
75
21
-60.7935
0
LINE
8
Black
10
75
20
-60.7935
11
75.5837
21
-60.8964
0
LINE
8
Black
10
25.5837
20
-60.8964
11
26.0969
21
-61.1927
0
LINE
8
Black
10
26.0969
20
-61.1927
11
26.4779
21
-61.6468
0
LINE
8
Black
10
26.4779
20
-61.6468
11
26.6806
21
-62.2037
0
LINE
8
Black
10
26.6806
20
-62.2037
11
26.6806
21
-62.7963
0
LINE
8
Black
10
26.6806
20
-62.7963
11
26.4779
21
-63.3532
0
LINE
8
Black
10
26.4779
20
-63.3532
11
26.0969
21
-63.8072
0
LINE
8
Black
10
26.0969
20
-63.8072
11
25.5837
21
-64.1036
0
LINE
8
Black
10
25.5837
20
-64.1036
11
25
21
-64.2065
0
LINE
8
Black
10
25
20
-64.2065
11
24.4163
21
-64.1036
0
LINE
8
Black
10
24.4163
20
-64.1036
11
23.9031
21
-63.8072
0
LINE
8
Black
10
23.9031
20
-63.8072
11
23.5221
21
-63.3532
0
LINE
8
Black
10
23.5221
20
-63.3532
11
23.3194
21
-62.7963
0
LINE
8
Black
10
23.3194
20
-62.7963
11
23.3194
21
-62.2037
0
LINE
8
Black
10
23.3194
20
-62.2037
11
23.5221
21
-61.6468
0
LINE
8
Black
10
23.5221
20
-61.6468
11
23.9031
21
-61.1927
0
LINE
8
Black
10
23.9031
20
-61.1927
11
24.4163
21
-60.8964
0
LINE
8
Black
10
24.4163
20
-60.8964
11
25
21
-60.7935
0
LINE
8
Black
10
25
20
-60.7935
11
25.5837
21
-60.8964
0
LINE
8
Black
10
48.427
20
-49.9531
11
49.2422
21
-50.4238
0
LINE
8
Black
10
49.2422
20
-50.4238
11
49.8472
21
-51.1448
0
LINE
8
Black
10
49.8472
20
-51.1448
11
50.1691
21
-52.0294
0
LINE
8
Black
10
50.1691
20
-52.0294
11
50.1691
21
-52.9706
0
LINE
8
Black
10
50.1691
20
-52.9706
11
49.8472
21
-53.8552
0
LINE
8
Black
10
49.8472
20
-53.8552
11
49.2422
21
-54.5762
0
LINE
8
Black
10
49.2422
20
-54.5762
11
48.427
21
-55.0469
0
LINE
8
Black
10
48.427
20
-55.0469
11
47.5
21
-55.2103
0
LINE
8
Black
10
47.5
20
-55.2103
11
46.573
21
-55.0469
0
LINE
8
Black
10
46.573
20
-55.0469
11
45.7578
21
-54.5762
0
LINE
8
Black
10
45.7578
20
-54.5762
11
45.1528
21
-53.8552
0
LINE
8
Black
10
45.1528
20
-53.8552
11
44.8309
21
-52.9706
0
LINE
8
Black
10
44.8309
20
-52.9706
11
44.8309
21
-52.0294
0
LINE
8
Black
10
44.8309
20
-52.0294
11
45.1528
21
-51.1448
0
LINE
8
Black
10
45.1528
20
-51.1448
11
45.7578
21
-50.4238
0
LINE
8
Black
10
45.7578
20
-50.4238
11
46.573
21
-49.9531
0
LINE
8
Black
10
46.573
20
-49.9531
11
47.5
21
-49.7897
0
LINE
8
Black
10
47.5
20
-49.7897
11
48.427
21
-49.9531
0
LINE
8
Black
10
98.427
20
-49.9531
11
99.2422
21
-50.4238
0
LINE
8
Black
10
99.2422
20
-50.4238
11
99.8472
21
-51.1448
0
LINE
8
Black
10
99.8472
20
-51.1448
11
100.169
21
-52.0294
0
LINE
8
Black
10
100.169
20
-52.0294
11
100.169
21
-52.9706
0
LINE
8
Black
10
100.169
20
-52.9706
11
99.8472
21
-53.8552
0
LINE
8
Black
10
99.8472
20
-53.8552
11
99.2422
21
-54.5762
0
LINE
8
Black
10
99.2422
20
-54.5762
11
98.427
21
-55.0469
0
LINE
8
Black
10
98.427
20
-55.0469
11
97.5
21
-55.2103
0
LINE
8
Black
10
97.5
20
-55.2103
11
96.573
21
-55.0469
0
LINE
8
Black
10
96.573
20
-55.0469
11
95.7578
21
-54.5762
0
LINE
8
Black
10
95.7578
20
-54.5762
11
95.1528
21
-53.8552
0
LINE
8
Black
10
95.1528
20
-53.8552
11
94.8309
21
-52.9706
0
LINE
8
Black
10
94.8309
20
-52.9706
11
94.8309
21
-52.0294
0
LINE
8
Black
10
94.8309
20
-52.0294
11
95.1528
21
-51.1448
0
LINE
8
Black
10
95.1528
20
-51.1448
11
95.7578
21
-50.4238
0
LINE
8
Black
10
95.7578
20
-50.4238
11
96.573
21
-49.9531
0
LINE
8
Black
10
96.573
20
-49.9531
11
97.5
21
-49.7897
0
LINE
8
Black
10
97.5
20
-49.7897
11
98.427
21
-49.9531
0
LINE
8
Black
10
6.08392
20
-49.1388
11
3.91608
21
-49.1388
0
LINE
8
Black
10
3.91608
20
-49.1388
11
3.91608
21
-46.9405
0
LINE
8
Black
10
3.91608
20
-46.9405
11
6.08392
21
-46.9405
0
LINE
8
Black
10
6.08392
20
-46.9405
11
6.08392
21
-49.1388
0
LINE
8
Black
10
31.0839
20
-49.1388
11
28.9161
21
-49.1388
0
LINE
8
Black
10
28.9161
20
-49.1388
11
28.9161
21
-46.9405
0
LINE
8
Black
10
28.9161
20
-46.9405
11
31.0839
21
-46.9405
0
LINE
8
Black
10
31.0839
20
-46.9405
11
31.0839
21
-49.1388
0
LINE
8
Black
10
56.0839
20
-49.1388
11
53.9161
21
-49.1388
0
LINE
8
Black
10
53.9161
20
-49.1388
11
53.9161
21
-46.9405
0
LINE
8
Black
10
53.9161
20
-46.9405
11
56.0839
21
-46.9405
0
LINE
8
Black
10
56.0839
20
-46.9405
11
56.0839
21
-49.1388
0
LINE
8
Black
10
81.0839
20
-49.1388
11
78.9161
21
-49.1388
0
LINE
8
Black
10
78.9161
20
-49.1388
11
78.9161
21
-46.9405
0
LINE
8
Black
10
78.9161
20
-46.9405
11
81.0839
21
-46.9405
0
LINE
8
Black
10
81.0839
20
-46.9405
11
81.0839
21
-49.1388
0
LINE
8
Black
10
92.5975
20
-48.994
11
89.6575
21
-48.994
0
LINE
8
Black
10
89.6575
20
-48.994
11
89.6575
21
-47.324
0
LINE
8
Black
10
89.6575
20
-47.324
11
92.5975
21
-47.324
0
LINE
8
Black
10
92.5975
20
-47.324
11
92.5975
21
-48.994
0
LINE
8
Black
10
9.3425
20
-48.994
11
6.4025
21
-48.994
0
LINE
8
Black
10
6.4025
20
-48.994
11
6.4025
21
-47.324
0
LINE
8
Black
10
6.4025
20
-47.324
11
9.3425
21
-47.324
0
LINE
8
Black
10
9.3425
20
-47.324
11
9.3425
21
-48.994
0
LINE
8
Black
10
17.5975
20
-48.994
11
14.6575
21
-48.994
0
LINE
8
Black
10
14.6575
20
-48.994
11
14.6575
21
-47.324
0
LINE
8
Black
10
14.6575
20
-47.324
11
17.5975
21
-47.324
0
LINE
8
Black
10
17.5975
20
-47.324
11
17.5975
21
-48.994
0
LINE
8
Black
10
34.3425
20
-48.994
11
31.4025
21
-48.994
0
LINE
8
Black
10
31.4025
20
-48.994
11
31.4025
21
-47.324
0
LINE
8
Black
10
31.4025
20
-47.324
11
34.3425
21
-47.324
0
LINE
8
Black
10
34.3425
20
-47.324
11
34.3425
21
-48.994
0
LINE
8
Black
10
42.5975
20
-48.994
11
39.6575
21
-48.994
0
LINE
8
Black
10
39.6575
20
-48.994
11
39.6575
21
-47.324
0
LINE
8
Black
10
39.6575
20
-47.324
11
42.5975
21
-47.324
0
LINE
8
Black
10
42.5975
20
-47.324
11
42.5975
21
-48.994
0
LINE
8
Black
10
59.3425
20
-48.994
11
56.4025
21
-48.994
0
LINE
8
Black
10
56.4025
20
-48.994
11
56.4025
21
-47.324
0
LINE
8
Black
10
56.4025
20
-47.324
11
59.3425
21
-47.324
0
LINE
8
Black
10
59.3425
20
-47.324
11
59.3425
21
-48.994
0
LINE
8
Black
10
67.5975
20
-48.994
11
64.6575
21
-48.994
0
LINE
8
Black
10
64.6575
20
-48.994
11
64.6575
21
-47.324
0
LINE
8
Black
10
64.6575
20
-47.324
11
67.5975
21
-47.324
0
LINE
8
Black
10
67.5975
20
-47.324
11
67.5975
21
-48.994
0
LINE
8
Black
10
84.3425
20
-48.994
11
81.4025
21
-48.994
0
LINE
8
Black
10
81.4025
20
-48.994
11
81.4025
21
-47.324
0
LINE
8
Black
10
81.4025
20
-47.324
11
84.3425
21
-47.324
0
LINE
8
Black
10
84.3425
20
-47.324
11
84.3425
21
-48.994
0
LINE
8
Black
10
50.9025
20
-48.3
11
48.8515
21
-48.3
0
LINE
8
Black
10
48.8515
20
-48.3
11
48.8515
21
-46.9
0
LINE
8
Black
10
48.8515
20
-46.9
11
50.9025
21
-46.9
0
LINE
8
Black
10
50.9025
20
-46.9
11
50.9025
21
-48.3
0
LINE
8
Black
10
94.7485
20
-48.3
11
92.6975
21
-48.3
0
LINE
8
Black
10
92.6975
20
-48.3
11
92.6975
21
-46.9
0
LINE
8
Black
10
92.6975
20
-46.9
11
94.7485
21
-46.9
0
LINE
8
Black
10
94.7485
20
-46.9
11
94.7485
21
-48.3
0
LINE
8
Black
10
69.7485
20
-48.3
11
67.6975
21
-48.3
0
LINE
8
Black
10
67.6975
20
-48.3
11
67.6975
21
-46.9
0
LINE
8
Black
10
67.6975
20
-46.9
11
69.7485
21
-46.9
0
LINE
8
Black
10
69.7485
20
-46.9
11
69.7485
21
-48.3
0
LINE
8
Black
10
45.7485
20
-48.3
11
43.6975
21
-48.3
0
LINE
8
Black
10
43.6975
20
-48.3
11
43.6975
21
-46.9
0
LINE
8
Black
10
43.6975
20
-46.9
11
45.7485
21
-46.9
0
LINE
8
Black
10
45.7485
20
-46.9
11
45.7485
21
-48.3
0
LINE
8
Black
10
74.9025
20
-48.3
11
72.8515
21
-48.3
0
LINE
8
Black
10
72.8515
20
-48.3
11
72.8515
21
-46.9
0
LINE
8
Black
10
72.8515
20
-46.9
11
74.9025
21
-46.9
0
LINE
8
Black
10
74.9025
20
-46.9
11
74.9025
21
-48.3
0
LINE
8
Black
10
99.9025
20
-48.3
11
97.8515
21
-48.3
0
LINE
8
Black
10
97.8515
20
-48.3
11
97.8515
21
-46.9
0
LINE
8
Black
10
97.8515
20
-46.9
11
99.9025
21
-46.9
0
LINE
8
Black
10
99.9025
20
-46.9
11
99.9025
21
-48.3
0
LINE
8
Black
10
24.9025
20
-48.3
11
22.8515
21
-48.3
0
LINE
8
Black
10
22.8515
20
-48.3
11
22.8515
21
-46.9
0
LINE
8
Black
10
22.8515
20
-46.9
11
24.9025
21
-46.9
0
LINE
8
Black
10
24.9025
20
-46.9
11
24.9025
21
-48.3
0
LINE
8
Black
10
19.7485
20
-48.3
11
17.6975
21
-48.3
0
LINE
8
Black
10
17.6975
20
-48.3
11
17.6975
21
-46.9
0
LINE
8
Black
10
17.6975
20
-46.9
11
19.7485
21
-46.9
0
LINE
8
Black
10
19.7485
20
-46.9
11
19.7485
21
-48.3
0
LINE
8
Black
10
24.9025
20
-45.1
11
22.8515
21
-45.1
0
LINE
8
Black
10
22.8515
20
-45.1
11
22.8515
21
-43.7
0
LINE
8
Black
10
22.8515
20
-43.7
11
24.9025
21
-43.7
0
LINE
8
Black
10
24.9025
20
-43.7
11
24.9025
21
-45.1
0
LINE
8
Black
10
74.9025
20
-45.1
11
72.8515
21
-45.1
0
LINE
8
Black
10
72.8515
20
-45.1
11
72.8515
21
-43.7
0
LINE
8
Black
10
72.8515
20
-43.7
11
74.9025
21
-43.7
0
LINE
8
Black
10
74.9025
20
-43.7
11
74.9025
21
-45.1
0
LINE
8
Black
10
19.7485
20
-45.1
11
17.6975
21
-45.1
0
LINE
8
Black
10
17.6975
20
-45.1
11
17.6975
21
-43.7
0
LINE
8
Black
10
17.6975
20
-43.7
11
19.7485
21
-43.7
0
LINE
8
Black
10
19.7485
20
-43.7
11
19.7485
21
-45.1
0
LINE
8
Black
10
45.7485
20
-45.1
11
43.6975
21
-45.1
0
LINE
8
Black
10
43.6975
20
-45.1
11
43.6975
21
-43.7
0
LINE
8
Black
10
43.6975
20
-43.7
11
45.7485
21
-43.7
0
LINE
8
Black
10
45.7485
20
-43.7
11
45.7485
21
-45.1
0
LINE
8
Black
10
69.7485
20
-45.1
11
67.6975
21
-45.1
0
LINE
8
Black
10
67.6975
20
-45.1
11
67.6975
21
-43.7
0
LINE
8
Black
10
67.6975
20
-43.7
11
69.7485
21
-43.7
0
LINE
8
Black
10
69.7485
20
-43.7
11
69.7485
21
-45.1
0
LINE
8
Black
10
50.9025
20
-45.1
11
48.8515
21
-45.1
0
LINE
8
Black
10
48.8515
20
-45.1
11
48.8515
21
-43.7
0
LINE
8
Black
10
48.8515
20
-43.7
11
50.9025
21
-43.7
0
LINE
8
Black
10
50.9025
20
-43.7
11
50.9025
21
-45.1
0
LINE
8
Black
10
94.7485
20
-45.1
11
92.6975
21
-45.1
0
LINE
8
Black
10
92.6975
20
-45.1
11
92.6975
21
-43.7
0
LINE
8
Black
10
92.6975
20
-43.7
11
94.7485
21
-43.7
0
LINE
8
Black
10
94.7485
20
-43.7
11
94.7485
21
-45.1
0
LINE
8
Black
10
99.9025
20
-45.1
11
97.8515
21
-45.1
0
LINE
8
Black
10
97.8515
20
-45.1
11
97.8515
21
-43.7
0
LINE
8
Black
10
97.8515
20
-43.7
11
99.9025
21
-43.7
0
LINE
8
Black
10
99.9025
20
-43.7
11
99.9025
21
-45.1
0
LINE
8
Black
10
6.08392
20
-45.0595
11
3.91608
21
-45.0595
0
LINE
8
Black
10
3.91608
20
-45.0595
11
3.91608
21
-42.8612
0
LINE
8
Black
10
3.91608
20
-42.8612
11
6.08392
21
-42.8612
0
LINE
8
Black
10
6.08392
20
-42.8612
11
6.08392
21
-45.0595
0
LINE
8
Black
10
31.0839
20
-45.0595
11
28.9161
21
-45.0595
0
LINE
8
Black
10
28.9161
20
-45.0595
11
28.9161
21
-42.8612
0
LINE
8
Black
10
28.9161
20
-42.8612
11
31.0839
21
-42.8612
0
LINE
8
Black
10
31.0839
20
-42.8612
11
31.0839
21
-45.0595
0
LINE
8
Black
10
56.0839
20
-45.0595
11
53.9161
21
-45.0595
0
LINE
8
Black
10
53.9161
20
-45.0595
11
53.9161
21
-42.8612
0
LINE
8
Black
10
53.9161
20
-42.8612
11
56.0839
21
-42.8612
0
LINE
8
Black
10
56.0839
20
-42.8612
11
56.0839
21
-45.0595
0
LINE
8
Black
10
81.0839
20
-45.0595
11
78.9161
21
-45.0595
0
LINE
8
Black
10
78.9161
20
-45.0595
11
78.9161
21
-42.8612
0
LINE
8
Black
10
78.9161
20
-42.8612
11
81.0839
21
-42.8612
0
LINE
8
Black
10
81.0839
20
-42.8612
11
81.0839
21
-45.0595
0
LINE
8
Black
10
9.3425
20
-44.676
11
6.4025
21
-44.676
0
LINE
8
Black
10
6.4025
20
-44.676
11
6.4025
21
-43.006
0
LINE
8
Black
10
6.4025
20
-43.006
11
9.3425
21
-43.006
0
LINE
8
Black
10
9.3425
20
-43.006
11
9.3425
21
-44.676
0
LINE
8
Black
10
67.5975
20
-44.676
11
64.6575
21
-44.676
0
LINE
8
Black
10
64.6575
20
-44.676
11
64.6575
21
-43.006
0
LINE
8
Black
10
64.6575
20
-43.006
11
67.5975
21
-43.006
0
LINE
8
Black
10
67.5975
20
-43.006
11
67.5975
21
-44.676
0
LINE
8
Black
10
17.5975
20
-44.676
11
14.6575
21
-44.676
0
LINE
8
Black
10
14.6575
20
-44.676
11
14.6575
21
-43.006
0
LINE
8
Black
10
14.6575
20
-43.006
11
17.5975
21
-43.006
0
LINE
8
Black
10
17.5975
20
-43.006
11
17.5975
21
-44.676
0
LINE
8
Black
10
34.3425
20
-44.676
11
31.4025
21
-44.676
0
LINE
8
Black
10
31.4025
20
-44.676
11
31.4025
21
-43.006
0
LINE
8
Black
10
31.4025
20
-43.006
11
34.3425
21
-43.006
0
LINE
8
Black
10
34.3425
20
-43.006
11
34.3425
21
-44.676
0
LINE
8
Black
10
42.5975
20
-44.676
11
39.6575
21
-44.676
0
LINE
8
Black
10
39.6575
20
-44.676
11
39.6575
21
-43.006
0
LINE
8
Black
10
39.6575
20
-43.006
11
42.5975
21
-43.006
0
LINE
8
Black
10
42.5975
20
-43.006
11
42.5975
21
-44.676
0
LINE
8
Black
10
59.3425
20
-44.676
11
56.4025
21
-44.676
0
LINE
8
Black
10
56.4025
20
-44.676
11
56.4025
21
-43.006
0
LINE
8
Black
10
56.4025
20
-43.006
11
59.3425
21
-43.006
0
LINE
8
Black
10
59.3425
20
-43.006
11
59.3425
21
-44.676
0
LINE
8
Black
10
84.3425
20
-44.676
11
81.4025
21
-44.676
0
LINE
8
Black
10
81.4025
20
-44.676
11
81.4025
21
-43.006
0
LINE
8
Black
10
81.4025
20
-43.006
11
84.3425
21
-43.006
0
LINE
8
Black
10
84.3425
20
-43.006
11
84.3425
21
-44.676
0
LINE
8
Black
10
92.5975
20
-44.676
11
89.6575
21
-44.676
0
LINE
8
Black
10
89.6575
20
-44.676
11
89.6575
21
-43.006
0
LINE
8
Black
10
89.6575
20
-43.006
11
92.5975
21
-43.006
0
LINE
8
Black
10
92.5975
20
-43.006
11
92.5975
21
-44.676
0
LINE
8
Black
10
2.6445
20
-44.4065
11
1.3555
21
-44.4065
0
LINE
8
Black
10
1.3555
20
-44.4065
11
1.3555
21
-43.1175
0
LINE
8
Black
10
1.3555
20
-43.1175
11
2.6445
21
-43.1175
0
LINE
8
Black
10
2.6445
20
-43.1175
11
2.6445
21
-44.4065
0
LINE
8
Black
10
2.6445
20
-42.8825
11
1.3555
21
-42.8825
0
LINE
8
Black
10
1.3555
20
-42.8825
11
1.3555
21
-41.5935
0
LINE
8
Black
10
1.3555
20
-41.5935
11
2.6445
21
-41.5935
0
LINE
8
Black
10
2.6445
20
-41.5935
11
2.6445
21
-42.8825
0
LINE
8
Black
10
81.0839
20
-42.1388
11
78.9161
21
-42.1388
0
LINE
8
Black
10
78.9161
20
-42.1388
11
78.9161
21
-39.9405
0
LINE
8
Black
10
78.9161
20
-39.9405
11
81.0839
21
-39.9405
0
LINE
8
Black
10
81.0839
20
-39.9405
11
81.0839
21
-42.1388
0
LINE
8
Black
10
31.0839
20
-42.1388
11
28.9161
21
-42.1388
0
LINE
8
Black
10
28.9161
20
-42.1388
11
28.9161
21
-39.9405
0
LINE
8
Black
10
28.9161
20
-39.9405
11
31.0839
21
-39.9405
0
LINE
8
Black
10
31.0839
20
-39.9405
11
31.0839
21
-42.1388
0
LINE
8
Black
10
6.08392
20
-42.0388
11
3.91608
21
-42.0388
0
LINE
8
Black
10
3.91608
20
-42.0388
11
3.91608
21
-39.8405
0
LINE
8
Black
10
3.91608
20
-39.8405
11
6.08392
21
-39.8405
0
LINE
8
Black
10
6.08392
20
-39.8405
11
6.08392
21
-42.0388
0
LINE
8
Black
10
67.5975
20
-41.994
11
64.6575
21
-41.994
0
LINE
8
Black
10
64.6575
20
-41.994
11
64.6575
21
-40.324
0
LINE
8
Black
10
64.6575
20
-40.324
11
67.5975
21
-40.324
0
LINE
8
Black
10
67.5975
20
-40.324
11
67.5975
21
-41.994
0
LINE
8
Black
10
92.5975
20
-41.994
11
89.6575
21
-41.994
0
LINE
8
Black
10
89.6575
20
-41.994
11
89.6575
21
-40.324
0
LINE
8
Black
10
89.6575
20
-40.324
11
92.5975
21
-40.324
0
LINE
8
Black
10
92.5975
20
-40.324
11
92.5975
21
-41.994
0
LINE
8
Black
10
84.3425
20
-41.994
11
81.4025
21
-41.994
0
LINE
8
Black
10
81.4025
20
-41.994
11
81.4025
21
-40.324
0
LINE
8
Black
10
81.4025
20
-40.324
11
84.3425
21
-40.324
0
LINE
8
Black
10
84.3425
20
-40.324
11
84.3425
21
-41.994
0
LINE
8
Black
10
59.3425
20
-41.994
11
56.4025
21
-41.994
0
LINE
8
Black
10
56.4025
20
-41.994
11
56.4025
21
-40.324
0
LINE
8
Black
10
56.4025
20
-40.324
11
59.3425
21
-40.324
0
LINE
8
Black
10
59.3425
20
-40.324
11
59.3425
21
-41.994
0
LINE
8
Black
10
42.5975
20
-41.994
11
39.6575
21
-41.994
0
LINE
8
Black
10
39.6575
20
-41.994
11
39.6575
21
-40.324
0
LINE
8
Black
10
39.6575
20
-40.324
11
42.5975
21
-40.324
0
LINE
8
Black
10
42.5975
20
-40.324
11
42.5975
21
-41.994
0
LINE
8
Black
10
34.3425
20
-41.994
11
31.4025
21
-41.994
0
LINE
8
Black
10
31.4025
20
-41.994
11
31.4025
21
-40.324
0
LINE
8
Black
10
31.4025
20
-40.324
11
34.3425
21
-40.324
0
LINE
8
Black
10
34.3425
20
-40.324
11
34.3425
21
-41.994
0
LINE
8
Black
10
17.5975
20
-41.994
11
14.6575
21
-41.994
0
LINE
8
Black
10
14.6575
20
-41.994
11
14.6575
21
-40.324
0
LINE
8
Black
10
14.6575
20
-40.324
11
17.5975
21
-40.324
0
LINE
8
Black
10
17.5975
20
-40.324
11
17.5975
21
-41.994
0
LINE
8
Black
10
9.3425
20
-41.994
11
6.4025
21
-41.994
0
LINE
8
Black
10
6.4025
20
-41.994
11
6.4025
21
-40.324
0
LINE
8
Black
10
6.4025
20
-40.324
11
9.3425
21
-40.324
0
LINE
8
Black
10
9.3425
20
-40.324
11
9.3425
21
-41.994
0
LINE
8
Black
10
56.0839
20
-41.9284
11
53.9161
21
-41.9284
0
LINE
8
Black
10
53.9161
20
-41.9284
11
53.9161
21
-39.7301
0
LINE
8
Black
10
53.9161
20
-39.7301
11
56.0839
21
-39.7301
0
LINE
8
Black
10
56.0839
20
-39.7301
11
56.0839
21
-41.9284
0
LINE
8
Black
10
94.7485
20
-41.3
11
92.6975
21
-41.3
0
LINE
8
Black
10
92.6975
20
-41.3
11
92.6975
21
-39.9
0
LINE
8
Black
10
92.6975
20
-39.9
11
94.7485
21
-39.9
0
LINE
8
Black
10
94.7485
20
-39.9
11
94.7485
21
-41.3
0
LINE
8
Black
10
99.9025
20
-41.3
11
97.8515
21
-41.3
0
LINE
8
Black
10
97.8515
20
-41.3
11
97.8515
21
-39.9
0
LINE
8
Black
10
97.8515
20
-39.9
11
99.9025
21
-39.9
0
LINE
8
Black
10
99.9025
20
-39.9
11
99.9025
21
-41.3
0
LINE
8
Black
10
24.9025
20
-41.3
11
22.8515
21
-41.3
0
LINE
8
Black
10
22.8515
20
-41.3
11
22.8515
21
-39.9
0
LINE
8
Black
10
22.8515
20
-39.9
11
24.9025
21
-39.9
0
LINE
8
Black
10
24.9025
20
-39.9
11
24.9025
21
-41.3
0
LINE
8
Black
10
19.7485
20
-41.3
11
17.6975
21
-41.3
0
LINE
8
Black
10
17.6975
20
-41.3
11
17.6975
21
-39.9
0
LINE
8
Black
10
17.6975
20
-39.9
11
19.7485
21
-39.9
0
LINE
8
Black
10
19.7485
20
-39.9
11
19.7485
21
-41.3
0
LINE
8
Black
10
74.9025
20
-41.3
11
72.8515
21
-41.3
0
LINE
8
Black
10
72.8515
20
-41.3
11
72.8515
21
-39.9
0
LINE
8
Black
10
72.8515
20
-39.9
11
74.9025
21
-39.9
0
LINE
8
Black
10
74.9025
20
-39.9
11
74.9025
21
-41.3
0
LINE
8
Black
10
69.7485
20
-41.3
11
67.6975
21
-41.3
0
LINE
8
Black
10
67.6975
20
-41.3
11
67.6975
21
-39.9
0
LINE
8
Black
10
67.6975
20
-39.9
11
69.7485
21
-39.9
0
LINE
8
Black
10
69.7485
20
-39.9
11
69.7485
21
-41.3
0
LINE
8
Black
10
50.9025
20
-41.2
11
48.8515
21
-41.2
0
LINE
8
Black
10
48.8515
20
-41.2
11
48.8515
21
-39.8
0
LINE
8
Black
10
48.8515
20
-39.8
11
50.9025
21
-39.8
0
LINE
8
Black
10
50.9025
20
-39.8
11
50.9025
21
-41.2
0
LINE
8
Black
10
45.7485
20
-41.2
11
43.6975
21
-41.2
0
LINE
8
Black
10
43.6975
20
-41.2
11
43.6975
21
-39.8
0
LINE
8
Black
10
43.6975
20
-39.8
11
45.7485
21
-39.8
0
LINE
8
Black
10
45.7485
20
-39.8
11
45.7485
21
-41.2
0
LINE
8
Black
10
74.9025
20
-38.1
11
72.8515
21
-38.1
0
LINE
8
Black
10
72.8515
20
-38.1
11
72.8515
21
-36.7
0
LINE
8
Black
10
72.8515
20
-36.7
11
74.9025
21
-36.7
0
LINE
8
Black
10
74.9025
20
-36.7
11
74.9025
21
-38.1
0
LINE
8
Black
10
24.9025
20
-38.1
11
22.8515
21
-38.1
0
LINE
8
Black
10
22.8515
20
-38.1
11
22.8515
21
-36.7
0
LINE
8
Black
10
22.8515
20
-36.7
11
24.9025
21
-36.7
0
LINE
8
Black
10
24.9025
20
-36.7
11
24.9025
21
-38.1
0
LINE
8
Black
10
19.7485
20
-38.1
11
17.6975
21
-38.1
0
LINE
8
Black
10
17.6975
20
-38.1
11
17.6975
21
-36.7
0
LINE
8
Black
10
17.6975
20
-36.7
11
19.7485
21
-36.7
0
LINE
8
Black
10
19.7485
20
-36.7
11
19.7485
21
-38.1
0
LINE
8
Black
10
69.7485
20
-38.1
11
67.6975
21
-38.1
0
LINE
8
Black
10
67.6975
20
-38.1
11
67.6975
21
-36.7
0
LINE
8
Black
10
67.6975
20
-36.7
11
69.7485
21
-36.7
0
LINE
8
Black
10
69.7485
20
-36.7
11
69.7485
21
-38.1
0
LINE
8
Black
10
99.9025
20
-38.1
11
97.8515
21
-38.1
0
LINE
8
Black
10
97.8515
20
-38.1
11
97.8515
21
-36.7
0
LINE
8
Black
10
97.8515
20
-36.7
11
99.9025
21
-36.7
0
LINE
8
Black
10
99.9025
20
-36.7
11
99.9025
21
-38.1
0
LINE
8
Black
10
94.7485
20
-38.1
11
92.6975
21
-38.1
0
LINE
8
Black
10
92.6975
20
-38.1
11
92.6975
21
-36.7
0
LINE
8
Black
10
92.6975
20
-36.7
11
94.7485
21
-36.7
0
LINE
8
Black
10
94.7485
20
-36.7
11
94.7485
21
-38.1
0
LINE
8
Black
10
81.0839
20
-38.0595
11
78.9161
21
-38.0595
0
LINE
8
Black
10
78.9161
20
-38.0595
11
78.9161
21
-35.8612
0
LINE
8
Black
10
78.9161
20
-35.8612
11
81.0839
21
-35.8612
0
LINE
8
Black
10
81.0839
20
-35.8612
11
81.0839
21
-38.0595
0
LINE
8
Black
10
31.0839
20
-38.0595
11
28.9161
21
-38.0595
0
LINE
8
Black
10
28.9161
20
-38.0595
11
28.9161
21
-35.8612
0
LINE
8
Black
10
28.9161
20
-35.8612
11
31.0839
21
-35.8612
0
LINE
8
Black
10
31.0839
20
-35.8612
11
31.0839
21
-38.0595
0
LINE
8
Black
10
50.9025
20
-38
11
48.8515
21
-38
0
LINE
8
Black
10
48.8515
20
-38
11
48.8515
21
-36.6
0
LINE
8
Black
10
48.8515
20
-36.6
11
50.9025
21
-36.6
0
LINE
8
Black
10
50.9025
20
-36.6
11
50.9025
21
-38
0
LINE
8
Black
10
45.7485
20
-38
11
43.6975
21
-38
0
LINE
8
Black
10
43.6975
20
-38
11
43.6975
21
-36.6
0
LINE
8
Black
10
43.6975
20
-36.6
11
45.7485
21
-36.6
0
LINE
8
Black
10
45.7485
20
-36.6
11
45.7485
21
-38
0
LINE
8
Black
10
6.08392
20
-37.9595
11
3.91608
21
-37.9595
0
LINE
8
Black
10
3.91608
20
-37.9595
11
3.91608
21
-35.7612
0
LINE
8
Black
10
3.91608
20
-35.7612
11
6.08392
21
-35.7612
0
LINE
8
Black
10
6.08392
20
-35.7612
11
6.08392
21
-37.9595
0
LINE
8
Black
10
56.0839
20
-37.8491
11
53.9161
21
-37.8491
0
LINE
8
Black
10
53.9161
20
-37.8491
11
53.9161
21
-35.6508
0
LINE
8
Black
10
53.9161
20
-35.6508
11
56.0839
21
-35.6508
0
LINE
8
Black
10
56.0839
20
-35.6508
11
56.0839
21
-37.8491
0
LINE
8
Black
10
9.3425
20
-37.676
11
6.4025
21
-37.676
0
LINE
8
Black
10
6.4025
20
-37.676
11
6.4025
21
-36.006
0
LINE
8
Black
10
6.4025
20
-36.006
11
9.3425
21
-36.006
0
LINE
8
Black
10
9.3425
20
-36.006
11
9.3425
21
-37.676
0
LINE
8
Black
10
84.3425
20
-37.676
11
81.4025
21
-37.676
0
LINE
8
Black
10
81.4025
20
-37.676
11
81.4025
21
-36.006
0
LINE
8
Black
10
81.4025
20
-36.006
11
84.3425
21
-36.006
0
LINE
8
Black
10
84.3425
20
-36.006
11
84.3425
21
-37.676
0
LINE
8
Black
10
67.5975
20
-37.676
11
64.6575
21
-37.676
0
LINE
8
Black
10
64.6575
20
-37.676
11
64.6575
21
-36.006
0
LINE
8
Black
10
64.6575
20
-36.006
11
67.5975
21
-36.006
0
LINE
8
Black
10
67.5975
20
-36.006
11
67.5975
21
-37.676
0
LINE
8
Black
10
59.3425
20
-37.676
11
56.4025
21
-37.676
0
LINE
8
Black
10
56.4025
20
-37.676
11
56.4025
21
-36.006
0
LINE
8
Black
10
56.4025
20
-36.006
11
59.3425
21
-36.006
0
LINE
8
Black
10
59.3425
20
-36.006
11
59.3425
21
-37.676
0
LINE
8
Black
10
17.5975
20
-37.676
11
14.6575
21
-37.676
0
LINE
8
Black
10
14.6575
20
-37.676
11
14.6575
21
-36.006
0
LINE
8
Black
10
14.6575
20
-36.006
11
17.5975
21
-36.006
0
LINE
8
Black
10
17.5975
20
-36.006
11
17.5975
21
-37.676
0
LINE
8
Black
10
42.5975
20
-37.676
11
39.6575
21
-37.676
0
LINE
8
Black
10
39.6575
20
-37.676
11
39.6575
21
-36.006
0
LINE
8
Black
10
39.6575
20
-36.006
11
42.5975
21
-36.006
0
LINE
8
Black
10
42.5975
20
-36.006
11
42.5975
21
-37.676
0
LINE
8
Black
10
34.3425
20
-37.676
11
31.4025
21
-37.676
0
LINE
8
Black
10
31.4025
20
-37.676
11
31.4025
21
-36.006
0
LINE
8
Black
10
31.4025
20
-36.006
11
34.3425
21
-36.006
0
LINE
8
Black
10
34.3425
20
-36.006
11
34.3425
21
-37.676
0
LINE
8
Black
10
92.5975
20
-37.676
11
89.6575
21
-37.676
0
LINE
8
Black
10
89.6575
20
-37.676
11
89.6575
21
-36.006
0
LINE
8
Black
10
89.6575
20
-36.006
11
92.5975
21
-36.006
0
LINE
8
Black
10
92.5975
20
-36.006
11
92.5975
21
-37.676
0
LINE
8
Black
10
96.7867
20
-34.2117
11
97.0388
21
-34.3573
0
LINE
8
Black
10
97.0388
20
-34.3573
11
97.2259
21
-34.5803
0
LINE
8
Black
10
97.2259
20
-34.5803
11
97.3255
21
-34.8538
0
LINE
8
Black
10
97.3255
20
-34.8538
11
97.3255
21
-35.1449
0
LINE
8
Black
10
97.3255
20
-35.1449
11
97.2259
21
-35.4185
0
LINE
8
Black
10
97.2259
20
-35.4185
11
97.0388
21
-35.6415
0
LINE
8
Black
10
97.0388
20
-35.6415
11
96.7867
21
-35.787
0
LINE
8
Black
10
96.7867
20
-35.787
11
96.5
21
-35.8376
0
LINE
8
Black
10
96.5
20
-35.8376
11
96.2133
21
-35.787
0
LINE
8
Black
10
96.2133
20
-35.787
11
95.9612
21
-35.6415
0
LINE
8
Black
10
95.9612
20
-35.6415
11
95.7741
21
-35.4185
0
LINE
8
Black
10
95.7741
20
-35.4185
11
95.6745
21
-35.1449
0
LINE
8
Black
10
95.6745
20
-35.1449
11
95.6745
21
-34.8538
0
LINE
8
Black
10
95.6745
20
-34.8538
11
95.7741
21
-34.5803
0
LINE
8
Black
10
95.7741
20
-34.5803
11
95.9612
21
-34.3573
0
LINE
8
Black
10
95.9612
20
-34.3573
11
96.2133
21
-34.2117
0
LINE
8
Black
10
96.2133
20
-34.2117
11
96.5
21
-34.1612
0
LINE
8
Black
10
96.5
20
-34.1612
11
96.7867
21
-34.2117
0
LINE
8
Black
10
3.78668
20
-34.2117
11
4.03878
21
-34.3573
0
LINE
8
Black
10
4.03878
20
-34.3573
11
4.22589
21
-34.5803
0
LINE
8
Black
10
4.22589
20
-34.5803
11
4.32546
21
-34.8538
0
LINE
8
Black
10
4.32546
20
-34.8538
11
4.32546
21
-35.1449
0
LINE
8
Black
10
4.32546
20
-35.1449
11
4.22589
21
-35.4185
0
LINE
8
Black
10
4.22589
20
-35.4185
11
4.03878
21
-35.6415
0
LINE
8
Black
10
4.03878
20
-35.6415
11
3.78668
21
-35.787
0
LINE
8
Black
10
3.78668
20
-35.787
11
3.5
21
-35.8376
0
LINE
8
Black
10
3.5
20
-35.8376
11
3.21332
21
-35.787
0
LINE
8
Black
10
3.21332
20
-35.787
11
2.96122
21
-35.6415
0
LINE
8
Black
10
2.96122
20
-35.6415
11
2.77411
21
-35.4185
0
LINE
8
Black
10
2.77411
20
-35.4185
11
2.67454
21
-35.1449
0
LINE
8
Black
10
2.67454
20
-35.1449
11
2.67454
21
-34.8538
0
LINE
8
Black
10
2.67454
20
-34.8538
11
2.77411
21
-34.5803
0
LINE
8
Black
10
2.77411
20
-34.5803
11
2.96122
21
-34.3573
0
LINE
8
Black
10
2.96122
20
-34.3573
11
3.21332
21
-34.2117
0
LINE
8
Black
10
3.21332
20
-34.2117
11
3.5
21
-34.1612
0
LINE
8
Black
10
3.5
20
-34.1612
11
3.78668
21
-34.2117
0
LINE
8
Black
10
90.5595
20
-34.0839
11
88.3612
21
-34.0839
0
LINE
8
Black
10
88.3612
20
-34.0839
11
88.3612
21
-31.9161
0
LINE
8
Black
10
88.3612
20
-31.9161
11
90.5595
21
-31.9161
0
LINE
8
Black
10
90.5595
20
-31.9161
11
90.5595
21
-34.0839
0
LINE
8
Black
10
94.6388
20
-34.0839
11
92.4405
21
-34.0839
0
LINE
8
Black
10
92.4405
20
-34.0839
11
92.4405
21
-31.9161
0
LINE
8
Black
10
92.4405
20
-31.9161
11
94.6388
21
-31.9161
0
LINE
8
Black
10
94.6388
20
-31.9161
11
94.6388
21
-34.0839
0
LINE
8
Black
10
20.4144
20
-33.8712
11
18.6656
21
-33.8712
0
LINE
8
Black
10
18.6656
20
-33.8712
11
18.6656
21
-32.1224
0
LINE
8
Black
10
18.6656
20
-32.1224
11
20.4144
21
-32.1224
0
LINE
8
Black
10
20.4144
20
-32.1224
11
20.4144
21
-33.8712
0
LINE
8
Black
10
85.6388
20
-33.7839
11
83.4405
21
-33.7839
0
LINE
8
Black
10
83.4405
20
-33.7839
11
83.4405
21
-31.6161
0
LINE
8
Black
10
83.4405
20
-31.6161
11
85.6388
21
-31.6161
0
LINE
8
Black
10
85.6388
20
-31.6161
11
85.6388
21
-33.7839
0
LINE
8
Black
10
81.5595
20
-33.7839
11
79.3612
21
-33.7839
0
LINE
8
Black
10
79.3612
20
-33.7839
11
79.3612
21
-31.6161
0
LINE
8
Black
10
79.3612
20
-31.6161
11
81.5595
21
-31.6161
0
LINE
8
Black
10
81.5595
20
-31.6161
11
81.5595
21
-33.7839
0
LINE
8
Black
10
17.3002
20
-29.6752
11
17.5642
21
-29.8276
0
LINE
8
Black
10
17.5642
20
-29.8276
11
17.7601
21
-30.0611
0
LINE
8
Black
10
17.7601
20
-30.0611
11
17.8644
21
-30.3476
0
LINE
8
Black
10
17.8644
20
-30.3476
11
17.8644
21
-30.6524
0
LINE
8
Black
10
17.8644
20
-30.6524
11
17.7601
21
-30.9388
0
LINE
8
Black
10
17.7601
20
-30.9388
11
17.5642
21
-31.1723
0
LINE
8
Black
10
17.5642
20
-31.1723
11
17.3002
21
-31.3248
0
LINE
8
Black
10
17.3002
20
-31.3248
11
17
21
-31.3777
0
LINE
8
Black
10
17
20
-31.3777
11
16.6998
21
-31.3248
0
LINE
8
Black
10
16.6998
20
-31.3248
11
16.4358
21
-31.1723
0
LINE
8
Black
10
16.4358
20
-31.1723
11
16.2399
21
-30.9388
0
LINE
8
Black
10
16.2399
20
-30.9388
11
16.1356
21
-30.6524
0
LINE
8
Black
10
16.1356
20
-30.6524
11
16.1356
21
-30.3476
0
LINE
8
Black
10
16.1356
20
-30.3476
11
16.2399
21
-30.0611
0
LINE
8
Black
10
16.2399
20
-30.0611
11
16.4358
21
-29.8276
0
LINE
8
Black
10
16.4358
20
-29.8276
11
16.6998
21
-29.6752
0
LINE
8
Black
10
16.6998
20
-29.6752
11
17
21
-29.6223
0
LINE
8
Black
10
17
20
-29.6223
11
17.3002
21
-29.6752
0
LINE
8
Black
10
22.3802
20
-29.6752
11
22.6442
21
-29.8276
0
LINE
8
Black
10
22.6442
20
-29.8276
11
22.8401
21
-30.0611
0
LINE
8
Black
10
22.8401
20
-30.0611
11
22.9444
21
-30.3476
0
LINE
8
Black
10
22.9444
20
-30.3476
11
22.9444
21
-30.6524
0
LINE
8
Black
10
22.9444
20
-30.6524
11
22.8401
21
-30.9388
0
LINE
8
Black
10
22.8401
20
-30.9388
11
22.6442
21
-31.1723
0
LINE
8
Black
10
22.6442
20
-31.1723
11
22.3802
21
-31.3248
0
LINE
8
Black
10
22.3802
20
-31.3248
11
22.08
21
-31.3777
0
LINE
8
Black
10
22.08
20
-31.3777
11
21.7798
21
-31.3248
0
LINE
8
Black
10
21.7798
20
-31.3248
11
21.5158
21
-31.1723
0
LINE
8
Black
10
21.5158
20
-31.1723
11
21.3199
21
-30.9388
0
LINE
8
Black
10
21.3199
20
-30.9388
11
21.2156
21
-30.6524
0
LINE
8
Black
10
21.2156
20
-30.6524
11
21.2156
21
-30.3476
0
LINE
8
Black
10
21.2156
20
-30.3476
11
21.3199
21
-30.0611
0
LINE
8
Black
10
21.3199
20
-30.0611
11
21.5158
21
-29.8276
0
LINE
8
Black
10
21.5158
20
-29.8276
11
21.7798
21
-29.6752
0
LINE
8
Black
10
21.7798
20
-29.6752
11
22.08
21
-29.6223
0
LINE
8
Black
10
22.08
20
-29.6223
11
22.3802
21
-29.6752
0
LINE
8
Black
10
89.8689
20
-28.8328
11
90.1977
21
-29.0226
0
LINE
8
Black
10
90.1977
20
-29.0226
11
90.4417
21
-29.3134
0
LINE
8
Black
10
90.4417
20
-29.3134
11
90.5716
21
-29.6702
0
LINE
8
Black
10
90.5716
20
-29.6702
11
90.5716
21
-30.0498
0
LINE
8
Black
10
90.5716
20
-30.0498
11
90.4417
21
-30.4066
0
LINE
8
Black
10
90.4417
20
-30.4066
11
90.1977
21
-30.6974
0
LINE
8
Black
10
90.1977
20
-30.6974
11
89.8689
21
-30.8872
0
LINE
8
Black
10
89.8689
20
-30.8872
11
89.495
21
-30.9532
0
LINE
8
Black
10
89.495
20
-30.9532
11
89.1211
21
-30.8872
0
LINE
8
Black
10
89.1211
20
-30.8872
11
88.7923
21
-30.6974
0
LINE
8
Black
10
88.7923
20
-30.6974
11
88.5483
21
-30.4066
0
LINE
8
Black
10
88.5483
20
-30.4066
11
88.4184
21
-30.0498
0
LINE
8
Black
10
88.4184
20
-30.0498
11
88.4184
21
-29.6702
0
LINE
8
Black
10
88.4184
20
-29.6702
11
88.5483
21
-29.3134
0
LINE
8
Black
10
88.5483
20
-29.3134
11
88.7923
21
-29.0226
0
LINE
8
Black
10
88.7923
20
-29.0226
11
89.1211
21
-28.8328
0
LINE
8
Black
10
89.1211
20
-28.8328
11
89.495
21
-28.7668
0
LINE
8
Black
10
89.495
20
-28.7668
11
89.8689
21
-28.8328
0
LINE
8
Black
10
84.8689
20
-28.8328
11
85.1977
21
-29.0226
0
LINE
8
Black
10
85.1977
20
-29.0226
11
85.4417
21
-29.3134
0
LINE
8
Black
10
85.4417
20
-29.3134
11
85.5716
21
-29.6702
0
LINE
8
Black
10
85.5716
20
-29.6702
11
85.5716
21
-30.0498
0
LINE
8
Black
10
85.5716
20
-30.0498
11
85.4417
21
-30.4066
0
LINE
8
Black
10
85.4417
20
-30.4066
11
85.1977
21
-30.6974
0
LINE
8
Black
10
85.1977
20
-30.6974
11
84.8689
21
-30.8872
0
LINE
8
Black
10
84.8689
20
-30.8872
11
84.495
21
-30.9532
0
LINE
8
Black
10
84.495
20
-30.9532
11
84.1211
21
-30.8872
0
LINE
8
Black
10
84.1211
20
-30.8872
11
83.7923
21
-30.6974
0
LINE
8
Black
10
83.7923
20
-30.6974
11
83.5483
21
-30.4066
0
LINE
8
Black
10
83.5483
20
-30.4066
11
83.4184
21
-30.0498
0
LINE
8
Black
10
83.4184
20
-30.0498
11
83.4184
21
-29.6702
0
LINE
8
Black
10
83.4184
20
-29.6702
11
83.5483
21
-29.3134
0
LINE
8
Black
10
83.5483
20
-29.3134
11
83.7923
21
-29.0226
0
LINE
8
Black
10
83.7923
20
-29.0226
11
84.1211
21
-28.8328
0
LINE
8
Black
10
84.1211
20
-28.8328
11
84.495
21
-28.7668
0
LINE
8
Black
10
84.495
20
-28.7668
11
84.8689
21
-28.8328
0
LINE
8
Black
10
96.7867
20
-29.213
11
97.0388
21
-29.3585
0
LINE
8
Black
10
97.0388
20
-29.3585
11
97.2259
21
-29.5815
0
LINE
8
Black
10
97.2259
20
-29.5815
11
97.3255
21
-29.8551
0
LINE
8
Black
10
97.3255
20
-29.8551
11
97.3255
21
-30.1462
0
LINE
8
Black
10
97.3255
20
-30.1462
11
97.2259
21
-30.4197
0
LINE
8
Black
10
97.2259
20
-30.4197
11
97.0388
21
-30.6427
0
LINE
8
Black
10
97.0388
20
-30.6427
11
96.7867
21
-30.7883
0
LINE
8
Black
10
96.7867
20
-30.7883
11
96.5
21
-30.8388
0
LINE
8
Black
10
96.5
20
-30.8388
11
96.2133
21
-30.7883
0
LINE
8
Black
10
96.2133
20
-30.7883
11
95.9612
21
-30.6427
0
LINE
8
Black
10
95.9612
20
-30.6427
11
95.7741
21
-30.4197
0
LINE
8
Black
10
95.7741
20
-30.4197
11
95.6745
21
-30.1462
0
LINE
8
Black
10
95.6745
20
-30.1462
11
95.6745
21
-29.8551
0
LINE
8
Black
10
95.6745
20
-29.8551
11
95.7741
21
-29.5815
0
LINE
8
Black
10
95.7741
20
-29.5815
11
95.9612
21
-29.3585
0
LINE
8
Black
10
95.9612
20
-29.3585
11
96.2133
21
-29.213
0
LINE
8
Black
10
96.2133
20
-29.213
11
96.5
21
-29.1624
0
LINE
8
Black
10
96.5
20
-29.1624
11
96.7867
21
-29.213
0
LINE
8
Black
10
3.78668
20
-29.213
11
4.03878
21
-29.3585
0
LINE
8
Black
10
4.03878
20
-29.3585
11
4.22589
21
-29.5815
0
LINE
8
Black
10
4.22589
20
-29.5815
11
4.32546
21
-29.8551
0
LINE
8
Black
10
4.32546
20
-29.8551
11
4.32546
21
-30.1462
0
LINE
8
Black
10
4.32546
20
-30.1462
11
4.22589
21
-30.4197
0
LINE
8
Black
10
4.22589
20
-30.4197
11
4.03878
21
-30.6427
0
LINE
8
Black
10
4.03878
20
-30.6427
11
3.78668
21
-30.7883
0
LINE
8
Black
10
3.78668
20
-30.7883
11
3.5
21
-30.8388
0
LINE
8
Black
10
3.5
20
-30.8388
11
3.21332
21
-30.7883
0
LINE
8
Black
10
3.21332
20
-30.7883
11
2.96122
21
-30.6427
0
LINE
8
Black
10
2.96122
20
-30.6427
11
2.77411
21
-30.4197
0
LINE
8
Black
10
2.77411
20
-30.4197
11
2.67454
21
-30.1462
0
LINE
8
Black
10
2.67454
20
-30.1462
11
2.67454
21
-29.8551
0
LINE
8
Black
10
2.67454
20
-29.8551
11
2.77411
21
-29.5815
0
LINE
8
Black
10
2.77411
20
-29.5815
11
2.96122
21
-29.3585
0
LINE
8
Black
10
2.96122
20
-29.3585
11
3.21332
21
-29.213
0
LINE
8
Black
10
3.21332
20
-29.213
11
3.5
21
-29.1624
0
LINE
8
Black
10
3.5
20
-29.1624
11
3.78668
21
-29.213
0
LINE
8
Black
10
34.7313
20
-28.0248
11
35.0754
21
-28.2235
0
LINE
8
Black
10
35.0754
20
-28.2235
11
35.3309
21
-28.5279
0
LINE
8
Black
10
35.3309
20
-28.5279
11
35.4668
21
-28.9013
0
LINE
8
Black
10
35.4668
20
-28.9013
11
35.4668
21
-29.2987
0
LINE
8
Black
10
35.4668
20
-29.2987
11
35.3309
21
-29.6721
0
LINE
8
Black
10
35.3309
20
-29.6721
11
35.0754
21
-29.9765
0
LINE
8
Black
10
35.0754
20
-29.9765
11
34.7313
21
-30.1752
0
LINE
8
Black
10
34.7313
20
-30.1752
11
34.34
21
-30.2442
0
LINE
8
Black
10
34.34
20
-30.2442
11
33.9487
21
-30.1752
0
LINE
8
Black
10
33.9487
20
-30.1752
11
33.6046
21
-29.9765
0
LINE
8
Black
10
33.6046
20
-29.9765
11
33.3491
21
-29.6721
0
LINE
8
Black
10
33.3491
20
-29.6721
11
33.2132
21
-29.2987
0
LINE
8
Black
10
33.2132
20
-29.2987
11
33.2132
21
-28.9013
0
LINE
8
Black
10
33.2132
20
-28.9013
11
33.3491
21
-28.5279
0
LINE
8
Black
10
33.3491
20
-28.5279
11
33.6046
21
-28.2235
0
LINE
8
Black
10
33.6046
20
-28.2235
11
33.9487
21
-28.0248
0
LINE
8
Black
10
33.9487
20
-28.0248
11
34.34
21
-27.9558
0
LINE
8
Black
10
34.34
20
-27.9558
11
34.7313
21
-28.0248
0
LINE
8
Black
10
32.1913
20
-28.0248
11
32.5354
21
-28.2235
0
LINE
8
Black
10
32.5354
20
-28.2235
11
32.7909
21
-28.5279
0
LINE
8
Black
10
32.7909
20
-28.5279
11
32.9268
21
-28.9013
0
LINE
8
Black
10
32.9268
20
-28.9013
11
32.9268
21
-29.2987
0
LINE
8
Black
10
32.9268
20
-29.2987
11
32.7909
21
-29.6721
0
LINE
8
Black
10
32.7909
20
-29.6721
11
32.5354
21
-29.9765
0
LINE
8
Black
10
32.5354
20
-29.9765
11
32.1913
21
-30.1752
0
LINE
8
Black
10
32.1913
20
-30.1752
11
31.8
21
-30.2442
0
LINE
8
Black
10
31.8
20
-30.2442
11
31.4087
21
-30.1752
0
LINE
8
Black
10
31.4087
20
-30.1752
11
31.0646
21
-29.9765
0
LINE
8
Black
10
31.0646
20
-29.9765
11
30.8091
21
-29.6721
0
LINE
8
Black
10
30.8091
20
-29.6721
11
30.6732
21
-29.2987
0
LINE
8
Black
10
30.6732
20
-29.2987
11
30.6732
21
-28.9013
0
LINE
8
Black
10
30.6732
20
-28.9013
11
30.8091
21
-28.5279
0
LINE
8
Black
10
30.8091
20
-28.5279
11
31.0646
21
-28.2235
0
LINE
8
Black
10
31.0646
20
-28.2235
11
31.4087
21
-28.0248
0
LINE
8
Black
10
31.4087
20
-28.0248
11
31.8
21
-27.9558
0
LINE
8
Black
10
31.8
20
-27.9558
11
32.1913
21
-28.0248
0
LINE
8
Black
10
35.9513
20
-23.0548
11
36.2954
21
-23.2535
0
LINE
8
Black
10
36.2954
20
-23.2535
11
36.5509
21
-23.5579
0
LINE
8
Black
10
36.5509
20
-23.5579
11
36.6868
21
-23.9313
0
LINE
8
Black
10
36.6868
20
-23.9313
11
36.6868
21
-24.3287
0
LINE
8
Black
10
36.6868
20
-24.3287
11
36.5509
21
-24.7021
0
LINE
8
Black
10
36.5509
20
-24.7021
11
36.2954
21
-25.0065
0
LINE
8
Black
10
36.2954
20
-25.0065
11
35.9513
21
-25.2052
0
LINE
8
Black
10
35.9513
20
-25.2052
11
35.56
21
-25.2742
0
LINE
8
Black
10
35.56
20
-25.2742
11
35.1687
21
-25.2052
0
LINE
8
Black
10
35.1687
20
-25.2052
11
34.8246
21
-25.0065
0
LINE
8
Black
10
34.8246
20
-25.0065
11
34.5691
21
-24.7021
0
LINE
8
Black
10
34.5691
20
-24.7021
11
34.4332
21
-24.3287
0
LINE
8
Black
10
34.4332
20
-24.3287
11
34.4332
21
-23.9313
0
LINE
8
Black
10
34.4332
20
-23.9313
11
34.5691
21
-23.5579
0
LINE
8
Black
10
34.5691
20
-23.5579
11
34.8246
21
-23.2535
0
LINE
8
Black
10
34.8246
20
-23.2535
11
35.1687
21
-23.0548
0
LINE
8
Black
10
35.1687
20
-23.0548
11
35.56
21
-22.9858
0
LINE
8
Black
10
35.56
20
-22.9858
11
35.9513
21
-23.0548
0
LINE
8
Black
10
30.8713
20
-23.0548
11
31.2154
21
-23.2535
0
LINE
8
Black
10
31.2154
20
-23.2535
11
31.4709
21
-23.5579
0
LINE
8
Black
10
31.4709
20
-23.5579
11
31.6068
21
-23.9313
0
LINE
8
Black
10
31.6068
20
-23.9313
11
31.6068
21
-24.3287
0
LINE
8
Black
10
31.6068
20
-24.3287
11
31.4709
21
-24.7021
0
LINE
8
Black
10
31.4709
20
-24.7021
11
31.2154
21
-25.0065
0
LINE
8
Black
10
31.2154
20
-25.0065
11
30.8713
21
-25.2052
0
LINE
8
Black
10
30.8713
20
-25.2052
11
30.48
21
-25.2742
0
LINE
8
Black
10
30.48
20
-25.2742
11
30.0887
21
-25.2052
0
LINE
8
Black
10
30.0887
20
-25.2052
11
29.7446
21
-25.0065
0
LINE
8
Black
10
29.7446
20
-25.0065
11
29.4891
21
-24.7021
0
LINE
8
Black
10
29.4891
20
-24.7021
11
29.3532
21
-24.3287
0
LINE
8
Black
10
29.3532
20
-24.3287
11
29.3532
21
-23.9313
0
LINE
8
Black
10
29.3532
20
-23.9313
11
29.4891
21
-23.5579
0
LINE
8
Black
10
29.4891
20
-23.5579
11
29.7446
21
-23.2535
0
LINE
8
Black
10
29.7446
20
-23.2535
11
30.0887
21
-23.0548
0
LINE
8
Black
10
30.0887
20
-23.0548
11
30.48
21
-22.9858
0
LINE
8
Black
10
30.48
20
-22.9858
11
30.8713
21
-23.0548
0
LINE
8
Black
10
25.7913
20
-23.0548
11
26.1354
21
-23.2535
0
LINE
8
Black
10
26.1354
20
-23.2535
11
26.3909
21
-23.5579
0
LINE
8
Black
10
26.3909
20
-23.5579
11
26.5268
21
-23.9313
0
LINE
8
Black
10
26.5268
20
-23.9313
11
26.5268
21
-24.3287
0
LINE
8
Black
10
26.5268
20
-24.3287
11
26.3909
21
-24.7021
0
LINE
8
Black
10
26.3909
20
-24.7021
11
26.1354
21
-25.0065
0
LINE
8
Black
10
26.1354
20
-25.0065
11
25.7913
21
-25.2052
0
LINE
8
Black
10
25.7913
20
-25.2052
11
25.4
21
-25.2742
0
LINE
8
Black
10
25.4
20
-25.2742
11
25.0087
21
-25.2052
0
LINE
8
Black
10
25.0087
20
-25.2052
11
24.6646
21
-25.0065
0
LINE
8
Black
10
24.6646
20
-25.0065
11
24.4091
21
-24.7021
0
LINE
8
Black
10
24.4091
20
-24.7021
11
24.2732
21
-24.3287
0
LINE
8
Black
10
24.2732
20
-24.3287
11
24.2732
21
-23.9313
0
LINE
8
Black
10
24.2732
20
-23.9313
11
24.4091
21
-23.5579
0
LINE
8
Black
10
24.4091
20
-23.5579
11
24.6646
21
-23.2535
0
LINE
8
Black
10
24.6646
20
-23.2535
11
25.0087
21
-23.0548
0
LINE
8
Black
10
25.0087
20
-23.0548
11
25.4
21
-22.9858
0
LINE
8
Black
10
25.4
20
-22.9858
11
25.7913
21
-23.0548
0
LINE
8
Black
10
23.2513
20
-23.0548
11
23.5954
21
-23.2535
0
LINE
8
Black
10
23.5954
20
-23.2535
11
23.8509
21
-23.5579
0
LINE
8
Black
10
23.8509
20
-23.5579
11
23.9868
21
-23.9313
0
LINE
8
Black
10
23.9868
20
-23.9313
11
23.9868
21
-24.3287
0
LINE
8
Black
10
23.9868
20
-24.3287
11
23.8509
21
-24.7021
0
LINE
8
Black
10
23.8509
20
-24.7021
11
23.5954
21
-25.0065
0
LINE
8
Black
10
23.5954
20
-25.0065
11
23.2513
21
-25.2052
0
LINE
8
Black
10
23.2513
20
-25.2052
11
22.86
21
-25.2742
0
LINE
8
Black
10
22.86
20
-25.2742
11
22.4687
21
-25.2052
0
LINE
8
Black
10
22.4687
20
-25.2052
11
22.1246
21
-25.0065
0
LINE
8
Black
10
22.1246
20
-25.0065
11
21.8691
21
-24.7021
0
LINE
8
Black
10
21.8691
20
-24.7021
11
21.7332
21
-24.3287
0
LINE
8
Black
10
21.7332
20
-24.3287
11
21.7332
21
-23.9313
0
LINE
8
Black
10
21.7332
20
-23.9313
11
21.8691
21
-23.5579
0
LINE
8
Black
10
21.8691
20
-23.5579
11
22.1246
21
-23.2535
0
LINE
8
Black
10
22.1246
20
-23.2535
11
22.4687
21
-23.0548
0
LINE
8
Black
10
22.4687
20
-23.0548
11
22.86
21
-22.9858
0
LINE
8
Black
10
22.86
20
-22.9858
11
23.2513
21
-23.0548
0
LINE
8
Black
10
33.4113
20
-23.0548
11
33.7554
21
-23.2535
0
LINE
8
Black
10
33.7554
20
-23.2535
11
34.0109
21
-23.5579
0
LINE
8
Black
10
34.0109
20
-23.5579
11
34.1468
21
-23.9313
0
LINE
8
Black
10
34.1468
20
-23.9313
11
34.1468
21
-24.3287
0
LINE
8
Black
10
34.1468
20
-24.3287
11
34.0109
21
-24.7021
0
LINE
8
Black
10
34.0109
20
-24.7021
11
33.7554
21
-25.0065
0
LINE
8
Black
10
33.7554
20
-25.0065
11
33.4113
21
-25.2052
0
LINE
8
Black
10
33.4113
20
-25.2052
11
33.02
21
-25.2742
0
LINE
8
Black
10
33.02
20
-25.2742
11
32.6287
21
-25.2052
0
LINE
8
Black
10
32.6287
20
-25.2052
11
32.2846
21
-25.0065
0
LINE
8
Black
10
32.2846
20
-25.0065
11
32.0291
21
-24.7021
0
LINE
8
Black
10
32.0291
20
-24.7021
11
31.8932
21
-24.3287
0
LINE
8
Black
10
31.8932
20
-24.3287
11
31.8932
21
-23.9313
0
LINE
8
Black
10
31.8932
20
-23.9313
11
32.0291
21
-23.5579
0
LINE
8
Black
10
32.0291
20
-23.5579
11
32.2846
21
-23.2535
0
LINE
8
Black
10
32.2846
20
-23.2535
11
32.6287
21
-23.0548
0
LINE
8
Black
10
32.6287
20
-23.0548
11
33.02
21
-22.9858
0
LINE
8
Black
10
33.02
20
-22.9858
11
33.4113
21
-23.0548
0
LINE
8
Black
10
28.3313
20
-23.0548
11
28.6754
21
-23.2535
0
LINE
8
Black
10
28.6754
20
-23.2535
11
28.9309
21
-23.5579
0
LINE
8
Black
10
28.9309
20
-23.5579
11
29.0668
21
-23.9313
0
LINE
8
Black
10
29.0668
20
-23.9313
11
29.0668
21
-24.3287
0
LINE
8
Black
10
29.0668
20
-24.3287
11
28.9309
21
-24.7021
0
LINE
8
Black
10
28.9309
20
-24.7021
11
28.6754
21
-25.0065
0
LINE
8
Black
10
28.6754
20
-25.0065
11
28.3313
21
-25.2052
0
LINE
8
Black
10
28.3313
20
-25.2052
11
27.94
21
-25.2742
0
LINE
8
Black
10
27.94
20
-25.2742
11
27.5487
21
-25.2052
0
LINE
8
Black
10
27.5487
20
-25.2052
11
27.2046
21
-25.0065
0
LINE
8
Black
10
27.2046
20
-25.0065
11
26.9491
21
-24.7021
0
LINE
8
Black
10
26.9491
20
-24.7021
11
26.8132
21
-24.3287
0
LINE
8
Black
10
26.8132
20
-24.3287
11
26.8132
21
-23.9313
0
LINE
8
Black
10
26.8132
20
-23.9313
11
26.9491
21
-23.5579
0
LINE
8
Black
10
26.9491
20
-23.5579
11
27.2046
21
-23.2535
0
LINE
8
Black
10
27.2046
20
-23.2535
11
27.5487
21
-23.0548
0
LINE
8
Black
10
27.5487
20
-23.0548
11
27.94
21
-22.9858
0
LINE
8
Black
10
27.94
20
-22.9858
11
28.3313
21
-23.0548
0
LINE
8
Black
10
93.1486
20
-21.2017
11
93.6793
21
-21.5082
0
LINE
8
Black
10
93.6793
20
-21.5082
11
94.0733
21
-21.9776
0
LINE
8
Black
10
94.0733
20
-21.9776
11
94.2829
21
-22.5536
0
LINE
8
Black
10
94.2829
20
-22.5536
11
94.2829
21
-23.1664
0
LINE
8
Black
10
94.2829
20
-23.1664
11
94.0733
21
-23.7424
0
LINE
8
Black
10
94.0733
20
-23.7424
11
93.6793
21
-24.2118
0
LINE
8
Black
10
93.6793
20
-24.2118
11
93.1486
21
-24.5183
0
LINE
8
Black
10
93.1486
20
-24.5183
11
92.545
21
-24.6247
0
LINE
8
Black
10
92.545
20
-24.6247
11
91.9414
21
-24.5183
0
LINE
8
Black
10
91.9414
20
-24.5183
11
91.4107
21
-24.2118
0
LINE
8
Black
10
91.4107
20
-24.2118
11
91.0167
21
-23.7424
0
LINE
8
Black
10
91.0167
20
-23.7424
11
90.8071
21
-23.1664
0
LINE
8
Black
10
90.8071
20
-23.1664
11
90.8071
21
-22.5536
0
LINE
8
Black
10
90.8071
20
-22.5536
11
91.0167
21
-21.9776
0
LINE
8
Black
10
91.0167
20
-21.9776
11
91.4107
21
-21.5082
0
LINE
8
Black
10
91.4107
20
-21.5082
11
91.9414
21
-21.2017
0
LINE
8
Black
10
91.9414
20
-21.2017
11
92.545
21
-21.0953
0
LINE
8
Black
10
92.545
20
-21.0953
11
93.1486
21
-21.2017
0
LINE
8
Black
10
82.0486
20
-21.2017
11
82.5793
21
-21.5082
0
LINE
8
Black
10
82.5793
20
-21.5082
11
82.9733
21
-21.9776
0
LINE
8
Black
10
82.9733
20
-21.9776
11
83.1829
21
-22.5536
0
LINE
8
Black
10
83.1829
20
-22.5536
11
83.1829
21
-23.1664
0
LINE
8
Black
10
83.1829
20
-23.1664
11
82.9733
21
-23.7424
0
LINE
8
Black
10
82.9733
20
-23.7424
11
82.5793
21
-24.2118
0
LINE
8
Black
10
82.5793
20
-24.2118
11
82.0486
21
-24.5183
0
LINE
8
Black
10
82.0486
20
-24.5183
11
81.445
21
-24.6247
0
LINE
8
Black
10
81.445
20
-24.6247
11
80.8414
21
-24.5183
0
LINE
8
Black
10
80.8414
20
-24.5183
11
80.3107
21
-24.2118
0
LINE
8
Black
10
80.3107
20
-24.2118
11
79.9167
21
-23.7424
0
LINE
8
Black
10
79.9167
20
-23.7424
11
79.7071
21
-23.1664
0
LINE
8
Black
10
79.7071
20
-23.1664
11
79.7071
21
-22.5536
0
LINE
8
Black
10
79.7071
20
-22.5536
11
79.9167
21
-21.9776
0
LINE
8
Black
10
79.9167
20
-21.9776
11
80.3107
21
-21.5082
0
LINE
8
Black
10
80.3107
20
-21.5082
11
80.8414
21
-21.2017
0
LINE
8
Black
10
80.8414
20
-21.2017
11
81.445
21
-21.0953
0
LINE
8
Black
10
81.445
20
-21.0953
11
82.0486
21
-21.2017
0
LINE
8
Black
10
23.2513
20
-20.2048
11
23.5954
21
-20.4035
0
LINE
8
Black
10
23.5954
20
-20.4035
11
23.8509
21
-20.7079
0
LINE
8
Black
10
23.8509
20
-20.7079
11
23.9868
21
-21.0813
0
LINE
8
Black
10
23.9868
20
-21.0813
11
23.9868
21
-21.4787
0
LINE
8
Black
10
23.9868
20
-21.4787
11
23.8509
21
-21.8521
0
LINE
8
Black
10
23.8509
20
-21.8521
11
23.5954
21
-22.1565
0
LINE
8
Black
10
23.5954
20
-22.1565
11
23.2513
21
-22.3552
0
LINE
8
Black
10
23.2513
20
-22.3552
11
22.86
21
-22.4242
0
LINE
8
Black
10
22.86
20
-22.4242
11
22.4687
21
-22.3552
0
LINE
8
Black
10
22.4687
20
-22.3552
11
22.1246
21
-22.1565
0
LINE
8
Black
10
22.1246
20
-22.1565
11
21.8691
21
-21.8521
0
LINE
8
Black
10
21.8691
20
-21.8521
11
21.7332
21
-21.4787
0
LINE
8
Black
10
21.7332
20
-21.4787
11
21.7332
21
-21.0813
0
LINE
8
Black
10
21.7332
20
-21.0813
11
21.8691
21
-20.7079
0
LINE
8
Black
10
21.8691
20
-20.7079
11
22.1246
21
-20.4035
0
LINE
8
Black
10
22.1246
20
-20.4035
11
22.4687
21
-20.2048
0
LINE
8
Black
10
22.4687
20
-20.2048
11
22.86
21
-20.1358
0
LINE
8
Black
10
22.86
20
-20.1358
11
23.2513
21
-20.2048
0
LINE
8
Black
10
75.2603
20
-16.8726
11
75.5507
21
-17.0403
0
LINE
8
Black
10
75.5507
20
-17.0403
11
75.7663
21
-17.2972
0
LINE
8
Black
10
75.7663
20
-17.2972
11
75.881
21
-17.6123
0
LINE
8
Black
10
75.881
20
-17.6123
11
75.881
21
-17.9477
0
LINE
8
Black
10
75.881
20
-17.9477
11
75.7663
21
-18.2628
0
LINE
8
Black
10
75.7663
20
-18.2628
11
75.5507
21
-18.5197
0
LINE
8
Black
10
75.5507
20
-18.5197
11
75.2603
21
-18.6874
0
LINE
8
Black
10
75.2603
20
-18.6874
11
74.93
21
-18.7457
0
LINE
8
Black
10
74.93
20
-18.7457
11
74.5997
21
-18.6874
0
LINE
8
Black
10
74.5997
20
-18.6874
11
74.3093
21
-18.5197
0
LINE
8
Black
10
74.3093
20
-18.5197
11
74.0937
21
-18.2628
0
LINE
8
Black
10
74.0937
20
-18.2628
11
73.979
21
-17.9477
0
LINE
8
Black
10
73.979
20
-17.9477
11
73.979
21
-17.6123
0
LINE
8
Black
10
73.979
20
-17.6123
11
74.0937
21
-17.2972
0
LINE
8
Black
10
74.0937
20
-17.2972
11
74.3093
21
-17.0403
0
LINE
8
Black
10
74.3093
20
-17.0403
11
74.5997
21
-16.8726
0
LINE
8
Black
10
74.5997
20
-16.8726
11
74.93
21
-16.8143
0
LINE
8
Black
10
74.93
20
-16.8143
11
75.2603
21
-16.8726
0
LINE
8
Black
10
72.7203
20
-16.8726
11
73.0107
21
-17.0403
0
LINE
8
Black
10
73.0107
20
-17.0403
11
73.2263
21
-17.2972
0
LINE
8
Black
10
73.2263
20
-17.2972
11
73.341
21
-17.6123
0
LINE
8
Black
10
73.341
20
-17.6123
11
73.341
21
-17.9477
0
LINE
8
Black
10
73.341
20
-17.9477
11
73.2263
21
-18.2628
0
LINE
8
Black
10
73.2263
20
-18.2628
11
73.0107
21
-18.5197
0
LINE
8
Black
10
73.0107
20
-18.5197
11
72.7203
21
-18.6874
0
LINE
8
Black
10
72.7203
20
-18.6874
11
72.39
21
-18.7457
0
LINE
8
Black
10
72.39
20
-18.7457
11
72.0597
21
-18.6874
0
LINE
8
Black
10
72.0597
20
-18.6874
11
71.7693
21
-18.5197
0
LINE
8
Black
10
71.7693
20
-18.5197
11
71.5537
21
-18.2628
0
LINE
8
Black
10
71.5537
20
-18.2628
11
71.439
21
-17.9477
0
LINE
8
Black
10
71.439
20
-17.9477
11
71.439
21
-17.6123
0
LINE
8
Black
10
71.439
20
-17.6123
11
71.5537
21
-17.2972
0
LINE
8
Black
10
71.5537
20
-17.2972
11
71.7693
21
-17.0403
0
LINE
8
Black
10
71.7693
20
-17.0403
11
72.0597
21
-16.8726
0
LINE
8
Black
10
72.0597
20
-16.8726
11
72.39
21
-16.8143
0
LINE
8
Black
10
72.39
20
-16.8143
11
72.7203
21
-16.8726
0
LINE
8
Black
10
70.1803
20
-16.8726
11
70.4707
21
-17.0403
0
LINE
8
Black
10
70.4707
20
-17.0403
11
70.6863
21
-17.2972
0
LINE
8
Black
10
70.6863
20
-17.2972
11
70.801
21
-17.6123
0
LINE
8
Black
10
70.801
20
-17.6123
11
70.801
21
-17.9477
0
LINE
8
Black
10
70.801
20
-17.9477
11
70.6863
21
-18.2628
0
LINE
8
Black
10
70.6863
20
-18.2628
11
70.4707
21
-18.5197
0
LINE
8
Black
10
70.4707
20
-18.5197
11
70.1803
21
-18.6874
0
LINE
8
Black
10
70.1803
20
-18.6874
11
69.85
21
-18.7457
0
LINE
8
Black
10
69.85
20
-18.7457
11
69.5197
21
-18.6874
0
LINE
8
Black
10
69.5197
20
-18.6874
11
69.2293
21
-18.5197
0
LINE
8
Black
10
69.2293
20
-18.5197
11
69.0137
21
-18.2628
0
LINE
8
Black
10
69.0137
20
-18.2628
11
68.899
21
-17.9477
0
LINE
8
Black
10
68.899
20
-17.9477
11
68.899
21
-17.6123
0
LINE
8
Black
10
68.899
20
-17.6123
11
69.0137
21
-17.2972
0
LINE
8
Black
10
69.0137
20
-17.2972
11
69.2293
21
-17.0403
0
LINE
8
Black
10
69.2293
20
-17.0403
11
69.5197
21
-16.8726
0
LINE
8
Black
10
69.5197
20
-16.8726
11
69.85
21
-16.8143
0
LINE
8
Black
10
69.85
20
-16.8143
11
70.1803
21
-16.8726
0
LINE
8
Black
10
77.8003
20
-16.8726
11
78.0907
21
-17.0403
0
LINE
8
Black
10
78.0907
20
-17.0403
11
78.3063
21
-17.2972
0
LINE
8
Black
10
78.3063
20
-17.2972
11
78.421
21
-17.6123
0
LINE
8
Black
10
78.421
20
-17.6123
11
78.421
21
-17.9477
0
LINE
8
Black
10
78.421
20
-17.9477
11
78.3063
21
-18.2628
0
LINE
8
Black
10
78.3063
20
-18.2628
11
78.0907
21
-18.5197
0
LINE
8
Black
10
78.0907
20
-18.5197
11
77.8003
21
-18.6874
0
LINE
8
Black
10
77.8003
20
-18.6874
11
77.47
21
-18.7457
0
LINE
8
Black
10
77.47
20
-18.7457
11
77.1397
21
-18.6874
0
LINE
8
Black
10
77.1397
20
-18.6874
11
76.8493
21
-18.5197
0
LINE
8
Black
10
76.8493
20
-18.5197
11
76.6337
21
-18.2628
0
LINE
8
Black
10
76.6337
20
-18.2628
11
76.519
21
-17.9477
0
LINE
8
Black
10
76.519
20
-17.9477
11
76.519
21
-17.6123
0
LINE
8
Black
10
76.519
20
-17.6123
11
76.6337
21
-17.2972
0
LINE
8
Black
10
76.6337
20
-17.2972
11
76.8493
21
-17.0403
0
LINE
8
Black
10
76.8493
20
-17.0403
11
77.1397
21
-16.8726
0
LINE
8
Black
10
77.1397
20
-16.8726
11
77.47
21
-16.8143
0
LINE
8
Black
10
77.47
20
-16.8143
11
77.8003
21
-16.8726
0
LINE
8
Black
10
84.8727
20
-14.3224
11
85.2048
21
-14.5141
0
LINE
8
Black
10
85.2048
20
-14.5141
11
85.4513
21
-14.8079
0
LINE
8
Black
10
85.4513
20
-14.8079
11
85.5824
21
-15.1683
0
LINE
8
Black
10
85.5824
20
-15.1683
11
85.5824
21
-15.5517
0
LINE
8
Black
10
85.5824
20
-15.5517
11
85.4513
21
-15.9121
0
LINE
8
Black
10
85.4513
20
-15.9121
11
85.2048
21
-16.2059
0
LINE
8
Black
10
85.2048
20
-16.2059
11
84.8727
21
-16.3976
0
LINE
8
Black
10
84.8727
20
-16.3976
11
84.495
21
-16.4642
0
LINE
8
Black
10
84.495
20
-16.4642
11
84.1173
21
-16.3976
0
LINE
8
Black
10
84.1173
20
-16.3976
11
83.7852
21
-16.2059
0
LINE
8
Black
10
83.7852
20
-16.2059
11
83.5387
21
-15.9121
0
LINE
8
Black
10
83.5387
20
-15.9121
11
83.4076
21
-15.5517
0
LINE
8
Black
10
83.4076
20
-15.5517
11
83.4076
21
-15.1683
0
LINE
8
Black
10
83.4076
20
-15.1683
11
83.5387
21
-14.8079
0
LINE
8
Black
10
83.5387
20
-14.8079
11
83.7852
21
-14.5141
0
LINE
8
Black
10
83.7852
20
-14.5141
11
84.1173
21
-14.3224
0
LINE
8
Black
10
84.1173
20
-14.3224
11
84.495
21
-14.2558
0
LINE
8
Black
10
84.495
20
-14.2558
11
84.8727
21
-14.3224
0
LINE
8
Black
10
87.3727
20
-14.3224
11
87.7048
21
-14.5141
0
LINE
8
Black
10
87.7048
20
-14.5141
11
87.9513
21
-14.8079
0
LINE
8
Black
10
87.9513
20
-14.8079
11
88.0824
21
-15.1683
0
LINE
8
Black
10
88.0824
20
-15.1683
11
88.0824
21
-15.5517
0
LINE
8
Black
10
88.0824
20
-15.5517
11
87.9513
21
-15.9121
0
LINE
8
Black
10
87.9513
20
-15.9121
11
87.7048
21
-16.2059
0
LINE
8
Black
10
87.7048
20
-16.2059
11
87.3727
21
-16.3976
0
LINE
8
Black
10
87.3727
20
-16.3976
11
86.995
21
-16.4642
0
LINE
8
Black
10
86.995
20
-16.4642
11
86.6173
21
-16.3976
0
LINE
8
Black
10
86.6173
20
-16.3976
11
86.2852
21
-16.2059
0
LINE
8
Black
10
86.2852
20
-16.2059
11
86.0387
21
-15.9121
0
LINE
8
Black
10
86.0387
20
-15.9121
11
85.9076
21
-15.5517
0
LINE
8
Black
10
85.9076
20
-15.5517
11
85.9076
21
-15.1683
0
LINE
8
Black
10
85.9076
20
-15.1683
11
86.0387
21
-14.8079
0
LINE
8
Black
10
86.0387
20
-14.8079
11
86.2852
21
-14.5141
0
LINE
8
Black
10
86.2852
20
-14.5141
11
86.6173
21
-14.3224
0
LINE
8
Black
10
86.6173
20
-14.3224
11
86.995
21
-14.2558
0
LINE
8
Black
10
86.995
20
-14.2558
11
87.3727
21
-14.3224
0
LINE
8
Black
10
89.8727
20
-14.3224
11
90.2048
21
-14.5141
0
LINE
8
Black
10
90.2048
20
-14.5141
11
90.4513
21
-14.8079
0
LINE
8
Black
10
90.4513
20
-14.8079
11
90.5824
21
-15.1683
0
LINE
8
Black
10
90.5824
20
-15.1683
11
90.5824
21
-15.5517
0
LINE
8
Black
10
90.5824
20
-15.5517
11
90.4513
21
-15.9121
0
LINE
8
Black
10
90.4513
20
-15.9121
11
90.2048
21
-16.2059
0
LINE
8
Black
10
90.2048
20
-16.2059
11
89.8727
21
-16.3976
0
LINE
8
Black
10
89.8727
20
-16.3976
11
89.495
21
-16.4642
0
LINE
8
Black
10
89.495
20
-16.4642
11
89.1173
21
-16.3976
0
LINE
8
Black
10
89.1173
20
-16.3976
11
88.7852
21
-16.2059
0
LINE
8
Black
10
88.7852
20
-16.2059
11
88.5387
21
-15.9121
0
LINE
8
Black
10
88.5387
20
-15.9121
11
88.4076
21
-15.5517
0
LINE
8
Black
10
88.4076
20
-15.5517
11
88.4076
21
-15.1683
0
LINE
8
Black
10
88.4076
20
-15.1683
11
88.5387
21
-14.8079
0
LINE
8
Black
10
88.5387
20
-14.8079
11
88.7852
21
-14.5141
0
LINE
8
Black
10
88.7852
20
-14.5141
11
89.1173
21
-14.3224
0
LINE
8
Black
10
89.1173
20
-14.3224
11
89.495
21
-14.2558
0
LINE
8
Black
10
89.495
20
-14.2558
11
89.8727
21
-14.3224
0
LINE
8
Black
10
77.8003
20
-14.3326
11
78.0907
21
-14.5002
0
LINE
8
Black
10
78.0907
20
-14.5002
11
78.3063
21
-14.7572
0
LINE
8
Black
10
78.3063
20
-14.7572
11
78.421
21
-15.0723
0
LINE
8
Black
10
78.421
20
-15.0723
11
78.421
21
-15.4077
0
LINE
8
Black
10
78.421
20
-15.4077
11
78.3063
21
-15.7228
0
LINE
8
Black
10
78.3063
20
-15.7228
11
78.0907
21
-15.9797
0
LINE
8
Black
10
78.0907
20
-15.9797
11
77.8003
21
-16.1474
0
LINE
8
Black
10
77.8003
20
-16.1474
11
77.47
21
-16.2057
0
LINE
8
Black
10
77.47
20
-16.2057
11
77.1397
21
-16.1474
0
LINE
8
Black
10
77.1397
20
-16.1474
11
76.8493
21
-15.9797
0
LINE
8
Black
10
76.8493
20
-15.9797
11
76.6337
21
-15.7228
0
LINE
8
Black
10
76.6337
20
-15.7228
11
76.519
21
-15.4077
0
LINE
8
Black
10
76.519
20
-15.4077
11
76.519
21
-15.0723
0
LINE
8
Black
10
76.519
20
-15.0723
11
76.6337
21
-14.7572
0
LINE
8
Black
10
76.6337
20
-14.7572
11
76.8493
21
-14.5002
0
LINE
8
Black
10
76.8493
20
-14.5002
11
77.1397
21
-14.3326
0
LINE
8
Black
10
77.1397
20
-14.3326
11
77.47
21
-14.2743
0
LINE
8
Black
10
77.47
20
-14.2743
11
77.8003
21
-14.3326
0
LINE
8
Black
10
75.2603
20
-14.3326
11
75.5507
21
-14.5002
0
LINE
8
Black
10
75.5507
20
-14.5002
11
75.7663
21
-14.7572
0
LINE
8
Black
10
75.7663
20
-14.7572
11
75.881
21
-15.0723
0
LINE
8
Black
10
75.881
20
-15.0723
11
75.881
21
-15.4077
0
LINE
8
Black
10
75.881
20
-15.4077
11
75.7663
21
-15.7228
0
LINE
8
Black
10
75.7663
20
-15.7228
11
75.5507
21
-15.9797
0
LINE
8
Black
10
75.5507
20
-15.9797
11
75.2603
21
-16.1474
0
LINE
8
Black
10
75.2603
20
-16.1474
11
74.93
21
-16.2057
0
LINE
8
Black
10
74.93
20
-16.2057
11
74.5997
21
-16.1474
0
LINE
8
Black
10
74.5997
20
-16.1474
11
74.3093
21
-15.9797
0
LINE
8
Black
10
74.3093
20
-15.9797
11
74.0937
21
-15.7228
0
LINE
8
Black
10
74.0937
20
-15.7228
11
73.979
21
-15.4077
0
LINE
8
Black
10
73.979
20
-15.4077
11
73.979
21
-15.0723
0
LINE
8
Black
10
73.979
20
-15.0723
11
74.0937
21
-14.7572
0
LINE
8
Black
10
74.0937
20
-14.7572
11
74.3093
21
-14.5002
0
LINE
8
Black
10
74.3093
20
-14.5002
11
74.5997
21
-14.3326
0
LINE
8
Black
10
74.5997
20
-14.3326
11
74.93
21
-14.2743
0
LINE
8
Black
10
74.93
20
-14.2743
11
75.2603
21
-14.3326
0
LINE
8
Black
10
72.7203
20
-14.3326
11
73.0107
21
-14.5002
0
LINE
8
Black
10
73.0107
20
-14.5002
11
73.2263
21
-14.7572
0
LINE
8
Black
10
73.2263
20
-14.7572
11
73.341
21
-15.0723
0
LINE
8
Black
10
73.341
20
-15.0723
11
73.341
21
-15.4077
0
LINE
8
Black
10
73.341
20
-15.4077
11
73.2263
21
-15.7228
0
LINE
8
Black
10
73.2263
20
-15.7228
11
73.0107
21
-15.9797
0
LINE
8
Black
10
73.0107
20
-15.9797
11
72.7203
21
-16.1474
0
LINE
8
Black
10
72.7203
20
-16.1474
11
72.39
21
-16.2057
0
LINE
8
Black
10
72.39
20
-16.2057
11
72.0597
21
-16.1474
0
LINE
8
Black
10
72.0597
20
-16.1474
11
71.7693
21
-15.9797
0
LINE
8
Black
10
71.7693
20
-15.9797
11
71.5537
21
-15.7228
0
LINE
8
Black
10
71.5537
20
-15.7228
11
71.439
21
-15.4077
0
LINE
8
Black
10
71.439
20
-15.4077
11
71.439
21
-15.0723
0
LINE
8
Black
10
71.439
20
-15.0723
11
71.5537
21
-14.7572
0
LINE
8
Black
10
71.5537
20
-14.7572
11
71.7693
21
-14.5002
0
LINE
8
Black
10
71.7693
20
-14.5002
11
72.0597
21
-14.3326
0
LINE
8
Black
10
72.0597
20
-14.3326
11
72.39
21
-14.2743
0
LINE
8
Black
10
72.39
20
-14.2743
11
72.7203
21
-14.3326
0
LINE
8
Black
10
70.1803
20
-14.3326
11
70.4707
21
-14.5002
0
LINE
8
Black
10
70.4707
20
-14.5002
11
70.6863
21
-14.7572
0
LINE
8
Black
10
70.6863
20
-14.7572
11
70.801
21
-15.0723
0
LINE
8
Black
10
70.801
20
-15.0723
11
70.801
21
-15.4077
0
LINE
8
Black
10
70.801
20
-15.4077
11
70.6863
21
-15.7228
0
LINE
8
Black
10
70.6863
20
-15.7228
11
70.4707
21
-15.9797
0
LINE
8
Black
10
70.4707
20
-15.9797
11
70.1803
21
-16.1474
0
LINE
8
Black
10
70.1803
20
-16.1474
11
69.85
21
-16.2057
0
LINE
8
Black
10
69.85
20
-16.2057
11
69.5197
21
-16.1474
0
LINE
8
Black
10
69.5197
20
-16.1474
11
69.2293
21
-15.9797
0
LINE
8
Black
10
69.2293
20
-15.9797
11
69.0137
21
-15.7228
0
LINE
8
Black
10
69.0137
20
-15.7228
11
68.899
21
-15.4077
0
LINE
8
Black
10
68.899
20
-15.4077
11
68.899
21
-15.0723
0
LINE
8
Black
10
68.899
20
-15.0723
11
69.0137
21
-14.7572
0
LINE
8
Black
10
69.0137
20
-14.7572
11
69.2293
21
-14.5002
0
LINE
8
Black
10
69.2293
20
-14.5002
11
69.5197
21
-14.3326
0
LINE
8
Black
10
69.5197
20
-14.3326
11
69.85
21
-14.2743
0
LINE
8
Black
10
69.85
20
-14.2743
11
70.1803
21
-14.3326
0
LINE
8
Black
10
91.775
20
-9.74843
11
92.4566
21
-10.1419
0
LINE
8
Black
10
92.4566
20
-10.1419
11
92.9624
21
-10.7448
0
LINE
8
Black
10
92.9624
20
-10.7448
11
93.2316
21
-11.4843
0
LINE
8
Black
10
93.2316
20
-11.4843
11
93.2316
21
-12.2713
0
LINE
8
Black
10
93.2316
20
-12.2713
11
92.9624
21
-13.0108
0
LINE
8
Black
10
92.9624
20
-13.0108
11
92.4566
21
-13.6137
0
LINE
8
Black
10
92.4566
20
-13.6137
11
91.775
21
-14.0072
0
LINE
8
Black
10
91.775
20
-14.0072
11
91
21
-14.1438
0
LINE
8
Black
10
91
20
-14.1438
11
90.225
21
-14.0072
0
LINE
8
Black
10
90.225
20
-14.0072
11
89.5434
21
-13.6137
0
LINE
8
Black
10
89.5434
20
-13.6137
11
89.0376
21
-13.0108
0
LINE
8
Black
10
89.0376
20
-13.0108
11
88.7684
21
-12.2713
0
LINE
8
Black
10
88.7684
20
-12.2713
11
88.7684
21
-11.4843
0
LINE
8
Black
10
88.7684
20
-11.4843
11
89.0376
21
-10.7448
0
LINE
8
Black
10
89.0376
20
-10.7448
11
89.5434
21
-10.1419
0
LINE
8
Black
10
89.5434
20
-10.1419
11
90.225
21
-9.74843
0
LINE
8
Black
10
90.225
20
-9.74843
11
91
21
-9.61178
0
LINE
8
Black
10
91
20
-9.61178
11
91.775
21
-9.74843
0
LINE
8
Black
10
95.5366
20
-6.57063
11
96.2182
21
-6.96413
0
LINE
8
Black
10
96.2182
20
-6.96413
11
96.724
21
-7.56699
0
LINE
8
Black
10
96.724
20
-7.56699
11
96.9932
21
-8.30651
0
LINE
8
Black
10
96.9932
20
-8.30651
11
96.9932
21
-9.09349
0
LINE
8
Black
10
96.9932
20
-9.09349
11
96.724
21
-9.83301
0
LINE
8
Black
10
96.724
20
-9.83301
11
96.2182
21
-10.4359
0
LINE
8
Black
10
96.2182
20
-10.4359
11
95.5366
21
-10.8294
0
LINE
8
Black
10
95.5366
20
-10.8294
11
94.7616
21
-10.966
0
LINE
8
Black
10
94.7616
20
-10.966
11
93.9866
21
-10.8294
0
LINE
8
Black
10
93.9866
20
-10.8294
11
93.305
21
-10.4359
0
LINE
8
Black
10
93.305
20
-10.4359
11
92.7992
21
-9.83301
0
LINE
8
Black
10
92.7992
20
-9.83301
11
92.53
21
-9.09349
0
LINE
8
Black
10
92.53
20
-9.09349
11
92.53
21
-8.30651
0
LINE
8
Black
10
92.53
20
-8.30651
11
92.7992
21
-7.56699
0
LINE
8
Black
10
92.7992
20
-7.56699
11
93.305
21
-6.96413
0
LINE
8
Black
10
93.305
20
-6.96413
11
93.9866
21
-6.57063
0
LINE
8
Black
10
93.9866
20
-6.57063
11
94.7616
21
-6.43398
0
LINE
8
Black
10
94.7616
20
-6.43398
11
95.5366
21
-6.57063
0
LINE
8
Black
10
91.8004
20
-2.42763
11
92.482
21
-2.82113
0
LINE
8
Black
10
92.482
20
-2.82113
11
92.9878
21
-3.42399
0
LINE
8
Black
10
92.9878
20
-3.42399
11
93.257
21
-4.16351
0
LINE
8
Black
10
93.257
20
-4.16351
11
93.257
21
-4.95049
0
LINE
8
Black
10
93.257
20
-4.95049
11
92.9878
21
-5.69001
0
LINE
8
Black
10
92.9878
20
-5.69001
11
92.482
21
-6.29287
0
LINE
8
Black
10
92.482
20
-6.29287
11
91.8004
21
-6.68636
0
LINE
8
Black
10
91.8004
20
-6.68636
11
91.0254
21
-6.82302
0
LINE
8
Black
10
91.0254
20
-6.82302
11
90.2504
21
-6.68636
0
LINE
8
Black
10
90.2504
20
-6.68636
11
89.5688
21
-6.29287
0
LINE
8
Black
10
89.5688
20
-6.29287
11
89.063
21
-5.69001
0
LINE
8
Black
10
89.063
20
-5.69001
11
88.7938
21
-4.95049
0
LINE
8
Black
10
88.7938
20
-4.95049
11
88.7938
21
-4.16351
0
LINE
8
Black
10
88.7938
20
-4.16351
11
89.063
21
-3.42399
0
LINE
8
Black
10
89.063
20
-3.42399
11
89.5688
21
-2.82113
0
LINE
8
Black
10
89.5688
20
-2.82113
11
90.2504
21
-2.42763
0
LINE
8
Black
10
90.2504
20
-2.42763
11
91.0254
21
-2.29098
0
LINE
8
Black
10
91.0254
20
-2.29098
11
91.8004
21
-2.42763
0
LINE
8
Black
10
98.427
20
0.046862
11
99.2422
21
-0.423779
0
LINE
8
Black
10
99.2422
20
-0.423779
11
99.8472
21
-1.14484
0
LINE
8
Black
10
99.8472
20
-1.14484
11
100.169
21
-2.02936
0
LINE
8
Black
10
100.169
20
-2.02936
11
100.169
21
-2.97064
0
LINE
8
Black
10
100.169
20
-2.97064
11
99.8472
21
-3.85516
0
LINE
8
Black
10
99.8472
20
-3.85516
11
99.2422
21
-4.57622
0
LINE
8
Black
10
99.2422
20
-4.57622
11
98.427
21
-5.04686
0
LINE
8
Black
10
98.427
20
-5.04686
11
97.5
21
-5.21031
0
LINE
8
Black
10
97.5
20
-5.21031
11
96.573
21
-5.04686
0
LINE
8
Black
10
96.573
20
-5.04686
11
95.7578
21
-4.57622
0
LINE
8
Black
10
95.7578
20
-4.57622
11
95.1528
21
-3.85516
0
LINE
8
Black
10
95.1528
20
-3.85516
11
94.8309
21
-2.97064
0
LINE
8
Black
10
94.8309
20
-2.97064
11
94.8309
21
-2.02936
0
LINE
8
Black
10
94.8309
20
-2.02936
11
95.1528
21
-1.14484
0
LINE
8
Black
10
95.1528
20
-1.14484
11
95.7578
21
-0.423779
0
LINE
8
Black
10
95.7578
20
-0.423779
11
96.573
21
0.046862
0
LINE
8
Black
10
96.573
20
0.046862
11
97.5
21
0.210314
0
LINE
8
Black
10
97.5
20
0.210314
11
98.427
21
0.046862
0
LINE
8
Black
10
38.8713
20
-1.42485
11
39.2154
21
-1.62353
0
LINE
8
Black
10
39.2154
20
-1.62353
11
39.4709
21
-1.92792
0
LINE
8
Black
10
39.4709
20
-1.92792
11
39.6068
21
-2.30132
0
LINE
8
Black
10
39.6068
20
-2.30132
11
39.6068
21
-2.69868
0
LINE
8
Black
10
39.6068
20
-2.69868
11
39.4709
21
-3.07208
0
LINE
8
Black
10
39.4709
20
-3.07208
11
39.2154
21
-3.37647
0
LINE
8
Black
10
39.2154
20
-3.37647
11
38.8713
21
-3.57515
0
LINE
8
Black
10
38.8713
20
-3.57515
11
38.48
21
-3.64415
0
LINE
8
Black
10
38.48
20
-3.64415
11
38.0887
21
-3.57515
0
LINE
8
Black
10
38.0887
20
-3.57515
11
37.7446
21
-3.37647
0
LINE
8
Black
10
37.7446
20
-3.37647
11
37.4891
21
-3.07208
0
LINE
8
Black
10
37.4891
20
-3.07208
11
37.3532
21
-2.69868
0
LINE
8
Black
10
37.3532
20
-2.69868
11
37.3532
21
-2.30132
0
LINE
8
Black
10
37.3532
20
-2.30132
11
37.4891
21
-1.92792
0
LINE
8
Black
10
37.4891
20
-1.92792
11
37.7446
21
-1.62353
0
LINE
8
Black
10
37.7446
20
-1.62353
11
38.0887
21
-1.42485
0
LINE
8
Black
10
38.0887
20
-1.42485
11
38.48
21
-1.35585
0
LINE
8
Black
10
38.48
20
-1.35585
11
38.8713
21
-1.42485
0
LINE
8
Black
10
46.4913
20
-1.42485
11
46.8354
21
-1.62353
0
LINE
8
Black
10
46.8354
20
-1.62353
11
47.0909
21
-1.92792
0
LINE
8
Black
10
47.0909
20
-1.92792
11
47.2268
21
-2.30132
0
LINE
8
Black
10
47.2268
20
-2.30132
11
47.2268
21
-2.69868
0
LINE
8
Black
10
47.2268
20
-2.69868
11
47.0909
21
-3.07208
0
LINE
8
Black
10
47.0909
20
-3.07208
11
46.8354
21
-3.37647
0
LINE
8
Black
10
46.8354
20
-3.37647
11
46.4913
21
-3.57515
0
LINE
8
Black
10
46.4913
20
-3.57515
11
46.1
21
-3.64415
0
LINE
8
Black
10
46.1
20
-3.64415
11
45.7087
21
-3.57515
0
LINE
8
Black
10
45.7087
20
-3.57515
11
45.3646
21
-3.37647
0
LINE
8
Black
10
45.3646
20
-3.37647
11
45.1091
21
-3.07208
0
LINE
8
Black
10
45.1091
20
-3.07208
11
44.9732
21
-2.69868
0
LINE
8
Black
10
44.9732
20
-2.69868
11
44.9732
21
-2.30132
0
LINE
8
Black
10
44.9732
20
-2.30132
11
45.1091
21
-1.92792
0
LINE
8
Black
10
45.1091
20
-1.92792
11
45.3646
21
-1.62353
0
LINE
8
Black
10
45.3646
20
-1.62353
11
45.7087
21
-1.42485
0
LINE
8
Black
10
45.7087
20
-1.42485
11
46.1
21
-1.35585
0
LINE
8
Black
10
46.1
20
-1.35585
11
46.4913
21
-1.42485
0
LINE
8
Black
10
43.9513
20
-1.42485
11
44.2954
21
-1.62353
0
LINE
8
Black
10
44.2954
20
-1.62353
11
44.5509
21
-1.92792
0
LINE
8
Black
10
44.5509
20
-1.92792
11
44.6868
21
-2.30132
0
LINE
8
Black
10
44.6868
20
-2.30132
11
44.6868
21
-2.69868
0
LINE
8
Black
10
44.6868
20
-2.69868
11
44.5509
21
-3.07208
0
LINE
8
Black
10
44.5509
20
-3.07208
11
44.2954
21
-3.37647
0
LINE
8
Black
10
44.2954
20
-3.37647
11
43.9513
21
-3.57515
0
LINE
8
Black
10
43.9513
20
-3.57515
11
43.56
21
-3.64415
0
LINE
8
Black
10
43.56
20
-3.64415
11
43.1687
21
-3.57515
0
LINE
8
Black
10
43.1687
20
-3.57515
11
42.8246
21
-3.37647
0
LINE
8
Black
10
42.8246
20
-3.37647
11
42.5691
21
-3.07208
0
LINE
8
Black
10
42.5691
20
-3.07208
11
42.4332
21
-2.69868
0
LINE
8
Black
10
42.4332
20
-2.69868
11
42.4332
21
-2.30132
0
LINE
8
Black
10
42.4332
20
-2.30132
11
42.5691
21
-1.92792
0
LINE
8
Black
10
42.5691
20
-1.92792
11
42.8246
21
-1.62353
0
LINE
8
Black
10
42.8246
20
-1.62353
11
43.1687
21
-1.42485
0
LINE
8
Black
10
43.1687
20
-1.42485
11
43.56
21
-1.35585
0
LINE
8
Black
10
43.56
20
-1.35585
11
43.9513
21
-1.42485
0
LINE
8
Black
10
41.4113
20
-1.42485
11
41.7554
21
-1.62353
0
LINE
8
Black
10
41.7554
20
-1.62353
11
42.0109
21
-1.92792
0
LINE
8
Black
10
42.0109
20
-1.92792
11
42.1468
21
-2.30132
0
LINE
8
Black
10
42.1468
20
-2.30132
11
42.1468
21
-2.69868
0
LINE
8
Black
10
42.1468
20
-2.69868
11
42.0109
21
-3.07208
0
LINE
8
Black
10
42.0109
20
-3.07208
11
41.7554
21
-3.37647
0
LINE
8
Black
10
41.7554
20
-3.37647
11
41.4113
21
-3.57515
0
LINE
8
Black
10
41.4113
20
-3.57515
11
41.02
21
-3.64415
0
LINE
8
Black
10
41.02
20
-3.64415
11
40.6287
21
-3.57515
0
LINE
8
Black
10
40.6287
20
-3.57515
11
40.2846
21
-3.37647
0
LINE
8
Black
10
40.2846
20
-3.37647
11
40.0291
21
-3.07208
0
LINE
8
Black
10
40.0291
20
-3.07208
11
39.8932
21
-2.69868
0
LINE
8
Black
10
39.8932
20
-2.69868
11
39.8932
21
-2.30132
0
LINE
8
Black
10
39.8932
20
-2.30132
11
40.0291
21
-1.92792
0
LINE
8
Black
10
40.0291
20
-1.92792
11
40.2846
21
-1.62353
0
LINE
8
Black
10
40.2846
20
-1.62353
11
40.6287
21
-1.42485
0
LINE
8
Black
10
40.6287
20
-1.42485
11
41.02
21
-1.35585
0
LINE
8
Black
10
41.02
20
-1.35585
11
41.4113
21
-1.42485
0
LINE
8
Black
10
36.3313
20
-1.42485
11
36.6754
21
-1.62353
0
LINE
8
Black
10
36.6754
20
-1.62353
11
36.9309
21
-1.92792
0
LINE
8
Black
10
36.9309
20
-1.92792
11
37.0668
21
-2.30132
0
LINE
8
Black
10
37.0668
20
-2.30132
11
37.0668
21
-2.69868
0
LINE
8
Black
10
37.0668
20
-2.69868
11
36.9309
21
-3.07208
0
LINE
8
Black
10
36.9309
20
-3.07208
11
36.6754
21
-3.37647
0
LINE
8
Black
10
36.6754
20
-3.37647
11
36.3313
21
-3.57515
0
LINE
8
Black
10
36.3313
20
-3.57515
11
35.94
21
-3.64415
0
LINE
8
Black
10
35.94
20
-3.64415
11
35.5487
21
-3.57515
0
LINE
8
Black
10
35.5487
20
-3.57515
11
35.2046
21
-3.37647
0
LINE
8
Black
10
35.2046
20
-3.37647
11
34.9491
21
-3.07208
0
LINE
8
Black
10
34.9491
20
-3.07208
11
34.8132
21
-2.69868
0
LINE
8
Black
10
34.8132
20
-2.69868
11
34.8132
21
-2.30132
0
LINE
8
Black
10
34.8132
20
-2.30132
11
34.9491
21
-1.92792
0
LINE
8
Black
10
34.9491
20
-1.92792
11
35.2046
21
-1.62353
0
LINE
8
Black
10
35.2046
20
-1.62353
11
35.5487
21
-1.42485
0
LINE
8
Black
10
35.5487
20
-1.42485
11
35.94
21
-1.35585
0
LINE
8
Black
10
35.94
20
-1.35585
11
36.3313
21
-1.42485
0
LINE
8
Black
10
33.7913
20
-1.42485
11
34.1354
21
-1.62353
0
LINE
8
Black
10
34.1354
20
-1.62353
11
34.3909
21
-1.92792
0
LINE
8
Black
10
34.3909
20
-1.92792
11
34.5268
21
-2.30132
0
LINE
8
Black
10
34.5268
20
-2.30132
11
34.5268
21
-2.69868
0
LINE
8
Black
10
34.5268
20
-2.69868
11
34.3909
21
-3.07208
0
LINE
8
Black
10
34.3909
20
-3.07208
11
34.1354
21
-3.37647
0
LINE
8
Black
10
34.1354
20
-3.37647
11
33.7913
21
-3.57515
0
LINE
8
Black
10
33.7913
20
-3.57515
11
33.4
21
-3.64415
0
LINE
8
Black
10
33.4
20
-3.64415
11
33.0087
21
-3.57515
0
LINE
8
Black
10
33.0087
20
-3.57515
11
32.6646
21
-3.37647
0
LINE
8
Black
10
32.6646
20
-3.37647
11
32.4091
21
-3.07208
0
LINE
8
Black
10
32.4091
20
-3.07208
11
32.2732
21
-2.69868
0
LINE
8
Black
10
32.2732
20
-2.69868
11
32.2732
21
-2.30132
0
LINE
8
Black
10
32.2732
20
-2.30132
11
32.4091
21
-1.92792
0
LINE
8
Black
10
32.4091
20
-1.92792
11
32.6646
21
-1.62353
0
LINE
8
Black
10
32.6646
20
-1.62353
11
33.0087
21
-1.42485
0
LINE
8
Black
10
33.0087
20
-1.42485
11
33.4
21
-1.35585
0
LINE
8
Black
10
33.4
20
-1.35585
11
33.7913
21
-1.42485
0
LINE
8
Black
10
31.2513
20
-1.42485
11
31.5954
21
-1.62353
0
LINE
8
Black
10
31.5954
20
-1.62353
11
31.8509
21
-1.92792
0
LINE
8
Black
10
31.8509
20
-1.92792
11
31.9868
21
-2.30132
0
LINE
8
Black
10
31.9868
20
-2.30132
11
31.9868
21
-2.69868
0
LINE
8
Black
10
31.9868
20
-2.69868
11
31.8509
21
-3.07208
0
LINE
8
Black
10
31.8509
20
-3.07208
11
31.5954
21
-3.37647
0
LINE
8
Black
10
31.5954
20
-3.37647
11
31.2513
21
-3.57515
0
LINE
8
Black
10
31.2513
20
-3.57515
11
30.86
21
-3.64415
0
LINE
8
Black
10
30.86
20
-3.64415
11
30.4687
21
-3.57515
0
LINE
8
Black
10
30.4687
20
-3.57515
11
30.1246
21
-3.37647
0
LINE
8
Black
10
30.1246
20
-3.37647
11
29.8691
21
-3.07208
0
LINE
8
Black
10
29.8691
20
-3.07208
11
29.7332
21
-2.69868
0
LINE
8
Black
10
29.7332
20
-2.69868
11
29.7332
21
-2.30132
0
LINE
8
Black
10
29.7332
20
-2.30132
11
29.8691
21
-1.92792
0
LINE
8
Black
10
29.8691
20
-1.92792
11
30.1246
21
-1.62353
0
LINE
8
Black
10
30.1246
20
-1.62353
11
30.4687
21
-1.42485
0
LINE
8
Black
10
30.4687
20
-1.42485
11
30.86
21
-1.35585
0
LINE
8
Black
10
30.86
20
-1.35585
11
31.2513
21
-1.42485
0
LINE
8
Black
10
28.7113
20
-1.42485
11
29.0554
21
-1.62353
0
LINE
8
Black
10
29.0554
20
-1.62353
11
29.3109
21
-1.92792
0
LINE
8
Black
10
29.3109
20
-1.92792
11
29.4468
21
-2.30132
0
LINE
8
Black
10
29.4468
20
-2.30132
11
29.4468
21
-2.69868
0
LINE
8
Black
10
29.4468
20
-2.69868
11
29.3109
21
-3.07208
0
LINE
8
Black
10
29.3109
20
-3.07208
11
29.0554
21
-3.37647
0
LINE
8
Black
10
29.0554
20
-3.37647
11
28.7113
21
-3.57515
0
LINE
8
Black
10
28.7113
20
-3.57515
11
28.32
21
-3.64415
0
LINE
8
Black
10
28.32
20
-3.64415
11
27.9287
21
-3.57515
0
LINE
8
Black
10
27.9287
20
-3.57515
11
27.5846
21
-3.37647
0
LINE
8
Black
10
27.5846
20
-3.37647
11
27.3291
21
-3.07208
0
LINE
8
Black
10
27.3291
20
-3.07208
11
27.1932
21
-2.69868
0
LINE
8
Black
10
27.1932
20
-2.69868
11
27.1932
21
-2.30132
0
LINE
8
Black
10
27.1932
20
-2.30132
11
27.3291
21
-1.92792
0
LINE
8
Black
10
27.3291
20
-1.92792
11
27.5846
21
-1.62353
0
LINE
8
Black
10
27.5846
20
-1.62353
11
27.9287
21
-1.42485
0
LINE
8
Black
10
27.9287
20
-1.42485
11
28.32
21
-1.35585
0
LINE
8
Black
10
28.32
20
-1.35585
11
28.7113
21
-1.42485
0
LINE
8
Black
10
26.1713
20
-1.42485
11
26.5154
21
-1.62353
0
LINE
8
Black
10
26.5154
20
-1.62353
11
26.7709
21
-1.92792
0
LINE
8
Black
10
26.7709
20
-1.92792
11
26.9068
21
-2.30132
0
LINE
8
Black
10
26.9068
20
-2.30132
11
26.9068
21
-2.69868
0
LINE
8
Black
10
26.9068
20
-2.69868
11
26.7709
21
-3.07208
0
LINE
8
Black
10
26.7709
20
-3.07208
11
26.5154
21
-3.37647
0
LINE
8
Black
10
26.5154
20
-3.37647
11
26.1713
21
-3.57515
0
LINE
8
Black
10
26.1713
20
-3.57515
11
25.78
21
-3.64415
0
LINE
8
Black
10
25.78
20
-3.64415
11
25.3887
21
-3.57515
0
LINE
8
Black
10
25.3887
20
-3.57515
11
25.0446
21
-3.37647
0
LINE
8
Black
10
25.0446
20
-3.37647
11
24.7891
21
-3.07208
0
LINE
8
Black
10
24.7891
20
-3.07208
11
24.6532
21
-2.69868
0
LINE
8
Black
10
24.6532
20
-2.69868
11
24.6532
21
-2.30132
0
LINE
8
Black
10
24.6532
20
-2.30132
11
24.7891
21
-1.92792
0
LINE
8
Black
10
24.7891
20
-1.92792
11
25.0446
21
-1.62353
0
LINE
8
Black
10
25.0446
20
-1.62353
11
25.3887
21
-1.42485
0
LINE
8
Black
10
25.3887
20
-1.42485
11
25.78
21
-1.35585
0
LINE
8
Black
10
25.78
20
-1.35585
11
26.1713
21
-1.42485
0
LINE
8
Black
10
23.6313
20
-1.42485
11
23.9754
21
-1.62353
0
LINE
8
Black
10
23.9754
20
-1.62353
11
24.2309
21
-1.92792
0
LINE
8
Black
10
24.2309
20
-1.92792
11
24.3668
21
-2.30132
0
LINE
8
Black
10
24.3668
20
-2.30132
11
24.3668
21
-2.69868
0
LINE
8
Black
10
24.3668
20
-2.69868
11
24.2309
21
-3.07208
0
LINE
8
Black
10
24.2309
20
-3.07208
11
23.9754
21
-3.37647
0
LINE
8
Black
10
23.9754
20
-3.37647
11
23.6313
21
-3.57515
0
LINE
8
Black
10
23.6313
20
-3.57515
11
23.24
21
-3.64415
0
LINE
8
Black
10
23.24
20
-3.64415
11
22.8487
21
-3.57515
0
LINE
8
Black
10
22.8487
20
-3.57515
11
22.5046
21
-3.37647
0
LINE
8
Black
10
22.5046
20
-3.37647
11
22.2491
21
-3.07208
0
LINE
8
Black
10
22.2491
20
-3.07208
11
22.1132
21
-2.69868
0
LINE
8
Black
10
22.1132
20
-2.69868
11
22.1132
21
-2.30132
0
LINE
8
Black
10
22.1132
20
-2.30132
11
22.2491
21
-1.92792
0
LINE
8
Black
10
22.2491
20
-1.92792
11
22.5046
21
-1.62353
0
LINE
8
Black
10
22.5046
20
-1.62353
11
22.8487
21
-1.42485
0
LINE
8
Black
10
22.8487
20
-1.42485
11
23.24
21
-1.35585
0
LINE
8
Black
10
23.24
20
-1.35585
11
23.6313
21
-1.42485
0
LINE
8
Black
10
21.0913
20
-1.42485
11
21.4354
21
-1.62353
0
LINE
8
Black
10
21.4354
20
-1.62353
11
21.6909
21
-1.92792
0
LINE
8
Black
10
21.6909
20
-1.92792
11
21.8268
21
-2.30132
0
LINE
8
Black
10
21.8268
20
-2.30132
11
21.8268
21
-2.69868
0
LINE
8
Black
10
21.8268
20
-2.69868
11
21.6909
21
-3.07208
0
LINE
8
Black
10
21.6909
20
-3.07208
11
21.4354
21
-3.37647
0
LINE
8
Black
10
21.4354
20
-3.37647
11
21.0913
21
-3.57515
0
LINE
8
Black
10
21.0913
20
-3.57515
11
20.7
21
-3.64415
0
LINE
8
Black
10
20.7
20
-3.64415
11
20.3087
21
-3.57515
0
LINE
8
Black
10
20.3087
20
-3.57515
11
19.9646
21
-3.37647
0
LINE
8
Black
10
19.9646
20
-3.37647
11
19.7091
21
-3.07208
0
LINE
8
Black
10
19.7091
20
-3.07208
11
19.5732
21
-2.69868
0
LINE
8
Black
10
19.5732
20
-2.69868
11
19.5732
21
-2.30132
0
LINE
8
Black
10
19.5732
20
-2.30132
11
19.7091
21
-1.92792
0
LINE
8
Black
10
19.7091
20
-1.92792
11
19.9646
21
-1.62353
0
LINE
8
Black
10
19.9646
20
-1.62353
11
20.3087
21
-1.42485
0
LINE
8
Black
10
20.3087
20
-1.42485
11
20.7
21
-1.35585
0
LINE
8
Black
10
20.7
20
-1.35585
11
21.0913
21
-1.42485
0
LINE
8
Black
10
18.5513
20
-1.42485
11
18.8954
21
-1.62353
0
LINE
8
Black
10
18.8954
20
-1.62353
11
19.1509
21
-1.92792
0
LINE
8
Black
10
19.1509
20
-1.92792
11
19.2868
21
-2.30132
0
LINE
8
Black
10
19.2868
20
-2.30132
11
19.2868
21
-2.69868
0
LINE
8
Black
10
19.2868
20
-2.69868
11
19.1509
21
-3.07208
0
LINE
8
Black
10
19.1509
20
-3.07208
11
18.8954
21
-3.37647
0
LINE
8
Black
10
18.8954
20
-3.37647
11
18.5513
21
-3.57515
0
LINE
8
Black
10
18.5513
20
-3.57515
11
18.16
21
-3.64415
0
LINE
8
Black
10
18.16
20
-3.64415
11
17.7687
21
-3.57515
0
LINE
8
Black
10
17.7687
20
-3.57515
11
17.4246
21
-3.37647
0
LINE
8
Black
10
17.4246
20
-3.37647
11
17.1691
21
-3.07208
0
LINE
8
Black
10
17.1691
20
-3.07208
11
17.0332
21
-2.69868
0
LINE
8
Black
10
17.0332
20
-2.69868
11
17.0332
21
-2.30132
0
LINE
8
Black
10
17.0332
20
-2.30132
11
17.1691
21
-1.92792
0
LINE
8
Black
10
17.1691
20
-1.92792
11
17.4246
21
-1.62353
0
LINE
8
Black
10
17.4246
20
-1.62353
11
17.7687
21
-1.42485
0
LINE
8
Black
10
17.7687
20
-1.42485
11
18.16
21
-1.35585
0
LINE
8
Black
10
18.16
20
-1.35585
11
18.5513
21
-1.42485
0
LINE
8
Black
10
16.0113
20
-1.42485
11
16.3554
21
-1.62353
0
LINE
8
Black
10
16.3554
20
-1.62353
11
16.6109
21
-1.92792
0
LINE
8
Black
10
16.6109
20
-1.92792
11
16.7468
21
-2.30132
0
LINE
8
Black
10
16.7468
20
-2.30132
11
16.7468
21
-2.69868
0
LINE
8
Black
10
16.7468
20
-2.69868
11
16.6109
21
-3.07208
0
LINE
8
Black
10
16.6109
20
-3.07208
11
16.3554
21
-3.37647
0
LINE
8
Black
10
16.3554
20
-3.37647
11
16.0113
21
-3.57515
0
LINE
8
Black
10
16.0113
20
-3.57515
11
15.62
21
-3.64415
0
LINE
8
Black
10
15.62
20
-3.64415
11
15.2287
21
-3.57515
0
LINE
8
Black
10
15.2287
20
-3.57515
11
14.8846
21
-3.37647
0
LINE
8
Black
10
14.8846
20
-3.37647
11
14.6291
21
-3.07208
0
LINE
8
Black
10
14.6291
20
-3.07208
11
14.4932
21
-2.69868
0
LINE
8
Black
10
14.4932
20
-2.69868
11
14.4932
21
-2.30132
0
LINE
8
Black
10
14.4932
20
-2.30132
11
14.6291
21
-1.92792
0
LINE
8
Black
10
14.6291
20
-1.92792
11
14.8846
21
-1.62353
0
LINE
8
Black
10
14.8846
20
-1.62353
11
15.2287
21
-1.42485
0
LINE
8
Black
10
15.2287
20
-1.42485
11
15.62
21
-1.35585
0
LINE
8
Black
10
15.62
20
-1.35585
11
16.0113
21
-1.42485
0
LINE
8
Black
10
13.4713
20
-1.42485
11
13.8154
21
-1.62353
0
LINE
8
Black
10
13.8154
20
-1.62353
11
14.0709
21
-1.92792
0
LINE
8
Black
10
14.0709
20
-1.92792
11
14.2068
21
-2.30132
0
LINE
8
Black
10
14.2068
20
-2.30132
11
14.2068
21
-2.69868
0
LINE
8
Black
10
14.2068
20
-2.69868
11
14.0709
21
-3.07208
0
LINE
8
Black
10
14.0709
20
-3.07208
11
13.8154
21
-3.37647
0
LINE
8
Black
10
13.8154
20
-3.37647
11
13.4713
21
-3.57515
0
LINE
8
Black
10
13.4713
20
-3.57515
11
13.08
21
-3.64415
0
LINE
8
Black
10
13.08
20
-3.64415
11
12.6887
21
-3.57515
0
LINE
8
Black
10
12.6887
20
-3.57515
11
12.3446
21
-3.37647
0
LINE
8
Black
10
12.3446
20
-3.37647
11
12.0891
21
-3.07208
0
LINE
8
Black
10
12.0891
20
-3.07208
11
11.9532
21
-2.69868
0
LINE
8
Black
10
11.9532
20
-2.69868
11
11.9532
21
-2.30132
0
LINE
8
Black
10
11.9532
20
-2.30132
11
12.0891
21
-1.92792
0
LINE
8
Black
10
12.0891
20
-1.92792
11
12.3446
21
-1.62353
0
LINE
8
Black
10
12.3446
20
-1.62353
11
12.6887
21
-1.42485
0
LINE
8
Black
10
12.6887
20
-1.42485
11
13.08
21
-1.35585
0
LINE
8
Black
10
13.08
20
-1.35585
11
13.4713
21
-1.42485
0
LINE
8
Black
10
10.9313
20
-1.42485
11
11.2754
21
-1.62353
0
LINE
8
Black
10
11.2754
20
-1.62353
11
11.5309
21
-1.92792
0
LINE
8
Black
10
11.5309
20
-1.92792
11
11.6668
21
-2.30132
0
LINE
8
Black
10
11.6668
20
-2.30132
11
11.6668
21
-2.69868
0
LINE
8
Black
10
11.6668
20
-2.69868
11
11.5309
21
-3.07208
0
LINE
8
Black
10
11.5309
20
-3.07208
11
11.2754
21
-3.37647
0
LINE
8
Black
10
11.2754
20
-3.37647
11
10.9313
21
-3.57515
0
LINE
8
Black
10
10.9313
20
-3.57515
11
10.54
21
-3.64415
0
LINE
8
Black
10
10.54
20
-3.64415
11
10.1487
21
-3.57515
0
LINE
8
Black
10
10.1487
20
-3.57515
11
9.80455
21
-3.37647
0
LINE
8
Black
10
9.80455
20
-3.37647
11
9.54913
21
-3.07208
0
LINE
8
Black
10
9.54913
20
-3.07208
11
9.41323
21
-2.69868
0
LINE
8
Black
10
9.41323
20
-2.69868
11
9.41323
21
-2.30132
0
LINE
8
Black
10
9.41323
20
-2.30132
11
9.54913
21
-1.92792
0
LINE
8
Black
10
9.54913
20
-1.92792
11
9.80455
21
-1.62353
0
LINE
8
Black
10
9.80455
20
-1.62353
11
10.1487
21
-1.42485
0
LINE
8
Black
10
10.1487
20
-1.42485
11
10.54
21
-1.35585
0
LINE
8
Black
10
10.54
20
-1.35585
11
10.9313
21
-1.42485
0
LINE
8
Black
10
9.1398
20
-3.6398
11
6.8602
21
-3.6398
0
LINE
8
Black
10
6.8602
20
-3.6398
11
6.8602
21
-1.3602
0
LINE
8
Black
10
6.8602
20
-1.3602
11
9.1398
21
-1.3602
0
LINE
8
Black
10
9.1398
20
-1.3602
11
9.1398
21
-3.6398
  0
ENDSEC
  0
EOF
