G04 #@! TF.FileFunction,Soldermask,Top*
%FSLAX46Y46*%
G04 Gerber Fmt 4.6, Leading zero omitted, Abs format (unit mm)*
G04 Created by KiCad (PCBNEW 4.0.4-stable) date 11/10/17 13:29:54*
%MOMM*%
%LPD*%
G01*
G04 APERTURE LIST*
%ADD10C,2.000000*%
%ADD11C,3.000000*%
%ADD12R,2.940000X1.670000*%
%ADD13C,2.279600*%
%ADD14C,1.416000*%
%ADD15R,2.000000X1.400000*%
%ADD16R,2.279600X2.279600*%
%ADD17C,2.200000*%
%ADD18C,3.516000*%
%ADD19C,2.178000*%
%ADD20C,1.720800*%
%ADD21C,4.514800*%
%ADD22R,2.051000X1.400000*%
%ADD23R,2.167840X2.198320*%
%ADD24R,2.198320X2.167840*%
%ADD25C,1.670000*%
%ADD26C,1.748740*%
%ADD27R,1.748740X1.748740*%
%ADD28R,1.289000X1.289000*%
%ADD29C,3.400000*%
%ADD30C,5.400000*%
G04 APERTURE END LIST*
D10*
D11*
X18224567Y-62500000D02*
G75*
G03X18224567Y-62500000I-6024567J0D01*
G01*
X18224567Y-62500000D02*
G75*
G03X18224567Y-62500000I-6024567J0D01*
G01*
X43224567Y-62500000D02*
G75*
G03X43224567Y-62500000I-6024567J0D01*
G01*
X43224567Y-62500000D02*
G75*
G03X43224567Y-62500000I-6024567J0D01*
G01*
X68224567Y-62500000D02*
G75*
G03X68224567Y-62500000I-6024567J0D01*
G01*
X68224567Y-62500000D02*
G75*
G03X68224567Y-62500000I-6024567J0D01*
G01*
X93224567Y-62500000D02*
G75*
G03X93224567Y-62500000I-6024567J0D01*
G01*
X93224567Y-62500000D02*
G75*
G03X93224567Y-62500000I-6024567J0D01*
G01*
X18224567Y-87500000D02*
G75*
G03X18224567Y-87500000I-6024567J0D01*
G01*
X18224567Y-87500000D02*
G75*
G03X18224567Y-87500000I-6024567J0D01*
G01*
X43224567Y-87500000D02*
G75*
G03X43224567Y-87500000I-6024567J0D01*
G01*
X43224567Y-87500000D02*
G75*
G03X43224567Y-87500000I-6024567J0D01*
G01*
X68224567Y-87500000D02*
G75*
G03X68224567Y-87500000I-6024567J0D01*
G01*
X68224567Y-87500000D02*
G75*
G03X68224567Y-87500000I-6024567J0D01*
G01*
X93224567Y-87500000D02*
G75*
G03X93224567Y-87500000I-6024567J0D01*
G01*
X93224567Y-87500000D02*
G75*
G03X93224567Y-87500000I-6024567J0D01*
G01*
X18224567Y-112500000D02*
G75*
G03X18224567Y-112500000I-6024567J0D01*
G01*
X18224567Y-112500000D02*
G75*
G03X18224567Y-112500000I-6024567J0D01*
G01*
X43201567Y-112500000D02*
G75*
G03X43201567Y-112500000I-6024567J0D01*
G01*
X43201567Y-112500000D02*
G75*
G03X43201567Y-112500000I-6024567J0D01*
G01*
X68224567Y-112500000D02*
G75*
G03X68224567Y-112500000I-6024567J0D01*
G01*
X68224567Y-112500000D02*
G75*
G03X68224567Y-112500000I-6024567J0D01*
G01*
X93224567Y-112500000D02*
G75*
G03X93224567Y-112500000I-6024567J0D01*
G01*
X93224567Y-112500000D02*
G75*
G03X93224567Y-112500000I-6024567J0D01*
G01*
X18224567Y-137500000D02*
G75*
G03X18224567Y-137500000I-6024567J0D01*
G01*
X18224567Y-137500000D02*
G75*
G03X18224567Y-137500000I-6024567J0D01*
G01*
X43224567Y-137500000D02*
G75*
G03X43224567Y-137500000I-6024567J0D01*
G01*
X43224567Y-137500000D02*
G75*
G03X43224567Y-137500000I-6024567J0D01*
G01*
X68224567Y-137500000D02*
G75*
G03X68224567Y-137500000I-6024567J0D01*
G01*
X68224567Y-137500000D02*
G75*
G03X68224567Y-137500000I-6024567J0D01*
G01*
X93224567Y-137500000D02*
G75*
G03X93224567Y-137500000I-6024567J0D01*
G01*
X93224567Y-137500000D02*
G75*
G03X93224567Y-137500000I-6024567J0D01*
G01*
D12*
X7872500Y-36841000D03*
X7872500Y-41159000D03*
X16127500Y-41159000D03*
X16127500Y-36841000D03*
D13*
X35560000Y-24130000D03*
X33020000Y-24130000D03*
X30480000Y-24130000D03*
X27940000Y-24130000D03*
X25400000Y-24130000D03*
X22860000Y-24130000D03*
D14*
X12800000Y-58010000D03*
X14570000Y-55390000D03*
D15*
X9700000Y-60800000D03*
X9700000Y-64000000D03*
X14700000Y-64000000D03*
X14700000Y-60800000D03*
D14*
X35400000Y-66650000D03*
X33050000Y-68750000D03*
D15*
X34700000Y-60800000D03*
X34700000Y-64000000D03*
X39700000Y-64000000D03*
X39700000Y-60800000D03*
D16*
X8000000Y-2500000D03*
D13*
X10540000Y-2500000D03*
X13080000Y-2500000D03*
X15620000Y-2500000D03*
X18160000Y-2500000D03*
X20700000Y-2500000D03*
X23240000Y-2500000D03*
X25780000Y-2500000D03*
X28320000Y-2500000D03*
X30860000Y-2500000D03*
X33400000Y-2500000D03*
X35940000Y-2500000D03*
X38480000Y-2500000D03*
X41020000Y-2500000D03*
X43560000Y-2500000D03*
X46100000Y-2500000D03*
D17*
X89495000Y-15360000D03*
X86995000Y-15360000D03*
X84495000Y-15360000D03*
D18*
X92545000Y-22860000D03*
X81445000Y-22860000D03*
D19*
X84495000Y-29860000D03*
X89495000Y-29860000D03*
D20*
X52413000Y-90000000D03*
X47587000Y-90000000D03*
D21*
X91000000Y-11877800D03*
X91025400Y-4557000D03*
X94761600Y-8700000D03*
D22*
X18723000Y-37400000D03*
X23877000Y-37400000D03*
X23877000Y-40600000D03*
X18723000Y-40600000D03*
X44723000Y-37300000D03*
X49877000Y-37300000D03*
X49877000Y-40500000D03*
X44723000Y-40500000D03*
X68723000Y-37400000D03*
X73877000Y-37400000D03*
X73877000Y-40600000D03*
X68723000Y-40600000D03*
X93723000Y-37400000D03*
X98877000Y-37400000D03*
X98877000Y-40600000D03*
X93723000Y-40600000D03*
X18723000Y-44400000D03*
X23877000Y-44400000D03*
X23877000Y-47600000D03*
X18723000Y-47600000D03*
X44723000Y-44400000D03*
X49877000Y-44400000D03*
X49877000Y-47600000D03*
X44723000Y-47600000D03*
X68723000Y-44400000D03*
X73877000Y-44400000D03*
X73877000Y-47600000D03*
X68723000Y-47600000D03*
X93723000Y-44400000D03*
X98877000Y-44400000D03*
X98877000Y-47600000D03*
X93723000Y-47600000D03*
X18723000Y-154400000D03*
X23877000Y-154400000D03*
X23877000Y-157600000D03*
X18723000Y-157600000D03*
X43723000Y-154400000D03*
X48877000Y-154400000D03*
X48877000Y-157600000D03*
X43723000Y-157600000D03*
X68723000Y-154400000D03*
X73877000Y-154400000D03*
X73877000Y-157600000D03*
X68723000Y-157600000D03*
X93723000Y-154400000D03*
X98877000Y-154400000D03*
X98877000Y-157600000D03*
X93723000Y-157600000D03*
D14*
X60400000Y-66650000D03*
X58050000Y-68750000D03*
D15*
X59700000Y-60800000D03*
X59700000Y-64000000D03*
X64700000Y-64000000D03*
X64700000Y-60800000D03*
D14*
X85400000Y-66650000D03*
X83050000Y-68750000D03*
D15*
X84700000Y-60800000D03*
X84700000Y-64000000D03*
X89700000Y-64000000D03*
X89700000Y-60800000D03*
D14*
X10400000Y-91650000D03*
X8050000Y-93750000D03*
D15*
X9700000Y-85800000D03*
X9700000Y-89000000D03*
X14700000Y-89000000D03*
X14700000Y-85800000D03*
D14*
X35400000Y-91650000D03*
X33050000Y-93750000D03*
D15*
X34700000Y-85800000D03*
X34700000Y-89000000D03*
X39700000Y-89000000D03*
X39700000Y-85800000D03*
D14*
X60400000Y-91650000D03*
X58050000Y-93750000D03*
D15*
X59700000Y-85800000D03*
X59700000Y-89000000D03*
X64700000Y-89000000D03*
X64700000Y-85800000D03*
D14*
X85400000Y-91650000D03*
X83050000Y-93750000D03*
D15*
X84700000Y-85800000D03*
X84700000Y-89000000D03*
X89700000Y-89000000D03*
X89700000Y-85800000D03*
D14*
X10400000Y-116650000D03*
X8050000Y-118750000D03*
D15*
X9700000Y-110800000D03*
X9700000Y-114000000D03*
X14700000Y-114000000D03*
X14700000Y-110800000D03*
D14*
X35377000Y-116650000D03*
X33027000Y-118750000D03*
D15*
X34677000Y-110800000D03*
X34677000Y-114000000D03*
X39677000Y-114000000D03*
X39677000Y-110800000D03*
D14*
X60400000Y-116650000D03*
X58050000Y-118750000D03*
D15*
X59700000Y-110800000D03*
X59700000Y-114000000D03*
X64700000Y-114000000D03*
X64700000Y-110800000D03*
D14*
X85400000Y-116650000D03*
X83050000Y-118750000D03*
D15*
X84700000Y-110800000D03*
X84700000Y-114000000D03*
X89700000Y-114000000D03*
X89700000Y-110800000D03*
D14*
X10400000Y-141650000D03*
X8050000Y-143750000D03*
D15*
X9700000Y-135800000D03*
X9700000Y-139000000D03*
X14700000Y-139000000D03*
X14700000Y-135800000D03*
D14*
X35400000Y-141650000D03*
X33050000Y-143750000D03*
D15*
X34700000Y-135800000D03*
X34700000Y-139000000D03*
X39700000Y-139000000D03*
X39700000Y-135800000D03*
D14*
X60400000Y-141650000D03*
X58050000Y-143750000D03*
D15*
X59700000Y-135800000D03*
X59700000Y-139000000D03*
X64700000Y-139000000D03*
X64700000Y-135800000D03*
D14*
X85400000Y-141650000D03*
X83050000Y-143750000D03*
D15*
X84700000Y-135800000D03*
X84700000Y-139000000D03*
X89700000Y-139000000D03*
X89700000Y-135800000D03*
D23*
X5000000Y-36860380D03*
X5000000Y-40939620D03*
X30000000Y-36960380D03*
X30000000Y-41039620D03*
X55000000Y-36749980D03*
X55000000Y-40829220D03*
X80000000Y-36960380D03*
X80000000Y-41039620D03*
D24*
X80460380Y-32700000D03*
X84539620Y-32700000D03*
D23*
X5000000Y-43960380D03*
X5000000Y-48039620D03*
X30000000Y-43960380D03*
X30000000Y-48039620D03*
X55000000Y-43960380D03*
X55000000Y-48039620D03*
X80000000Y-43960380D03*
X80000000Y-48039620D03*
X4000000Y-158039620D03*
X4000000Y-153960380D03*
X29000000Y-158039620D03*
X29000000Y-153960380D03*
X54000000Y-158039620D03*
X54000000Y-153960380D03*
X79000000Y-158039620D03*
X79000000Y-153960380D03*
D24*
X89460380Y-33000000D03*
X93539620Y-33000000D03*
D25*
X3500000Y-30000640D03*
X3500000Y-34999360D03*
X96500000Y-34999360D03*
X96500000Y-30000640D03*
D26*
X17000000Y-30499980D03*
X22080000Y-30499980D03*
D27*
X19540000Y-32996800D03*
D28*
X2000000Y-43762000D03*
X2000000Y-42238000D03*
D12*
X32872500Y-36841000D03*
X32872500Y-41159000D03*
X41127500Y-41159000D03*
X41127500Y-36841000D03*
X57872500Y-36841000D03*
X57872500Y-41159000D03*
X66127500Y-41159000D03*
X66127500Y-36841000D03*
X82872500Y-36841000D03*
X82872500Y-41159000D03*
X91127500Y-41159000D03*
X91127500Y-36841000D03*
X7872500Y-43841000D03*
X7872500Y-48159000D03*
X16127500Y-48159000D03*
X16127500Y-43841000D03*
X32872500Y-43841000D03*
X32872500Y-48159000D03*
X41127500Y-48159000D03*
X41127500Y-43841000D03*
X57872500Y-43841000D03*
X57872500Y-48159000D03*
X66127500Y-48159000D03*
X66127500Y-43841000D03*
X82872500Y-43841000D03*
X82872500Y-48159000D03*
X91127500Y-48159000D03*
X91127500Y-43841000D03*
X7872500Y-153841000D03*
X7872500Y-158159000D03*
X16127500Y-158159000D03*
X16127500Y-153841000D03*
X32872500Y-153841000D03*
X32872500Y-158159000D03*
X41127500Y-158159000D03*
X41127500Y-153841000D03*
X57872500Y-153841000D03*
X57872500Y-158159000D03*
X66127500Y-158159000D03*
X66127500Y-153841000D03*
X82872500Y-153841000D03*
X82872500Y-158159000D03*
X91127500Y-158159000D03*
X91127500Y-153841000D03*
D29*
X75000000Y-137500000D03*
X12500000Y-75000000D03*
X87500000Y-75000000D03*
X25000000Y-62500000D03*
X62500000Y-75000000D03*
X25000000Y-87500000D03*
X25000000Y-137500000D03*
X37500000Y-125000000D03*
X75000000Y-62500000D03*
X25000000Y-112500000D03*
X12500000Y-125000000D03*
X75000000Y-87500000D03*
D30*
X47500000Y-52500000D03*
X97500000Y-52500000D03*
X52500000Y-97500000D03*
X47500000Y-102500000D03*
X97500000Y-2500000D03*
X97500000Y-102500000D03*
X2500000Y-97500000D03*
X2500000Y-147500000D03*
X97500000Y-147500000D03*
D29*
X97500000Y-161500000D03*
X87500000Y-125000000D03*
X2500000Y-161500000D03*
X75000000Y-112500000D03*
X62500000Y-125000000D03*
M02*
