<?xml version="1.0" encoding="utf-8"?>
<!-- Generator: Adobe Illustrator 14.0.0, SVG Export Plug-In . SVG Version: 6.00 Build 43363)  -->
<!DOCTYPE svg PUBLIC "-//W3C//DTD SVG 1.1//EN" "http://www.w3.org/Graphics/SVG/1.1/DTD/svg11.dtd">
<svg version="1.1" id="Layer_1" xmlns="http://www.w3.org/2000/svg" xmlns:xlink="http://www.w3.org/1999/xlink" x="0px" y="0px"
	 width="1701.787px" height="1134.858px" viewBox="10.47 12.455 1701.787 1134.858"
	 enable-background="new 10.47 12.455 1701.787 1134.858" xml:space="preserve">
<symbol  id="New_Symbol" viewBox="-8.546 -8.546 17.093 17.093">
	<path fill="none" stroke="#000000" stroke-width="0.085" d="M4.252,0c0-2.348-1.904-4.252-4.252-4.252S-4.252-2.348-4.252,0
		S-2.348,4.252,0,4.252S4.252,2.348,4.252,0z"/>
	<path fill="none" stroke="#000000" stroke-width="0.085" d="M8.504,0c0-4.697-3.807-8.504-8.504-8.504S-8.504-4.697-8.504,0
		S-4.697,8.504,0,8.504S8.504,4.697,8.504,0z"/>
</symbol>
<use xlink:href="#New_Symbol"  width="17.093" height="17.093" id="XMLID_1_" x="-8.546" y="-8.546" transform="matrix(1 0 0 -1 34.1484 39.749)" overflow="visible"/>
<use xlink:href="#New_Symbol"  width="17.093" height="17.093" x="-8.546" y="-8.546" transform="matrix(1 0 0 -1 51.2412 39.749)" overflow="visible" enable-background="new    "/>
<use xlink:href="#New_Symbol"  width="17.093" height="17.093" x="-8.546" y="-8.546" transform="matrix(1 0 0 -1 68.334 39.749)" overflow="visible" enable-background="new    "/>
<use xlink:href="#New_Symbol"  width="17.093" height="17.093" x="-8.546" y="-8.546" transform="matrix(1 0 0 -1 85.4268 39.749)" overflow="visible" enable-background="new    "/>
<use xlink:href="#New_Symbol"  width="17.093" height="17.093" x="-8.546" y="-8.546" transform="matrix(1 0 0 -1 102.5195 39.749)" overflow="visible" enable-background="new    "/>
<use xlink:href="#New_Symbol"  width="17.093" height="17.093" x="-8.546" y="-8.546" transform="matrix(1 0 0 -1 119.6123 39.749)" overflow="visible" enable-background="new    "/>
<use xlink:href="#New_Symbol"  width="17.093" height="17.093" x="-8.546" y="-8.546" transform="matrix(1 0 0 -1 136.7061 39.749)" overflow="visible" enable-background="new    "/>
<use xlink:href="#New_Symbol"  width="17.093" height="17.093" x="-8.546" y="-8.546" transform="matrix(1 0 0 -1 153.7979 39.749)" overflow="visible" enable-background="new    "/>
<use xlink:href="#New_Symbol"  width="17.093" height="17.093" x="-8.546" y="-8.546" transform="matrix(1 0 0 -1 42.6953 54.8794)" overflow="visible" enable-background="new    "/>
<use xlink:href="#New_Symbol"  width="17.093" height="17.093" x="-8.546" y="-8.546" transform="matrix(1 0 0 -1 59.7881 54.8794)" overflow="visible" enable-background="new    "/>
<use xlink:href="#New_Symbol"  width="17.093" height="17.093" x="-8.546" y="-8.546" transform="matrix(1 0 0 -1 76.8809 54.8794)" overflow="visible" enable-background="new    "/>
<use xlink:href="#New_Symbol"  width="17.093" height="17.093" x="-8.546" y="-8.546" transform="matrix(1 0 0 -1 93.9736 54.8794)" overflow="visible" enable-background="new    "/>
<use xlink:href="#New_Symbol"  width="17.093" height="17.093" x="-8.546" y="-8.546" transform="matrix(1 0 0 -1 111.0664 54.8794)" overflow="visible" enable-background="new    "/>
<use xlink:href="#New_Symbol"  width="17.093" height="17.093" x="-8.546" y="-8.546" transform="matrix(1 0 0 -1 128.1592 54.8794)" overflow="visible" enable-background="new    "/>
<use xlink:href="#New_Symbol"  width="17.093" height="17.093" x="-8.546" y="-8.546" transform="matrix(1 0 0 -1 145.2529 54.8794)" overflow="visible" enable-background="new    "/>
<use xlink:href="#New_Symbol"  width="17.093" height="17.093" x="-8.546" y="-8.546" transform="matrix(1 0 0 -1 162.3447 54.8794)" overflow="visible" enable-background="new    "/>
<use xlink:href="#New_Symbol"  width="17.093" height="17.093" x="-8.546" y="-8.546" transform="matrix(1 0 0 -1 34.1484 70.3892)" overflow="visible" enable-background="new    "/>
<use xlink:href="#New_Symbol"  width="17.093" height="17.093" x="-8.546" y="-8.546" transform="matrix(1 0 0 -1 51.2412 70.3892)" overflow="visible" enable-background="new    "/>
<use xlink:href="#New_Symbol"  width="17.093" height="17.093" x="-8.546" y="-8.546" transform="matrix(1 0 0 -1 68.334 70.3892)" overflow="visible" enable-background="new    "/>
<use xlink:href="#New_Symbol"  width="17.093" height="17.093" x="-8.546" y="-8.546" transform="matrix(1 0 0 -1 85.4268 70.3892)" overflow="visible" enable-background="new    "/>
<use xlink:href="#New_Symbol"  width="17.093" height="17.093" x="-8.546" y="-8.546" transform="matrix(1 0 0 -1 102.5195 70.3892)" overflow="visible" enable-background="new    "/>
<use xlink:href="#New_Symbol"  width="17.093" height="17.093" x="-8.546" y="-8.546" transform="matrix(1 0 0 -1 119.6123 70.3892)" overflow="visible" enable-background="new    "/>
<use xlink:href="#New_Symbol"  width="17.093" height="17.093" x="-8.546" y="-8.546" transform="matrix(1 0 0 -1 136.7061 70.3892)" overflow="visible" enable-background="new    "/>
<use xlink:href="#New_Symbol"  width="17.093" height="17.093" x="-8.546" y="-8.546" transform="matrix(1 0 0 -1 153.7979 70.3892)" overflow="visible" enable-background="new    "/>
<use xlink:href="#New_Symbol"  width="17.093" height="17.093" x="-8.546" y="-8.546" transform="matrix(1 0 0 -1 42.6953 85.5195)" overflow="visible" enable-background="new    "/>
<use xlink:href="#New_Symbol"  width="17.093" height="17.093" x="-8.546" y="-8.546" transform="matrix(1 0 0 -1 59.7881 85.5195)" overflow="visible" enable-background="new    "/>
<use xlink:href="#New_Symbol"  width="17.093" height="17.093" x="-8.546" y="-8.546" transform="matrix(1 0 0 -1 76.8809 85.5195)" overflow="visible" enable-background="new    "/>
<use xlink:href="#New_Symbol"  width="17.093" height="17.093" x="-8.546" y="-8.546" transform="matrix(1 0 0 -1 93.9736 85.5195)" overflow="visible" enable-background="new    "/>
<use xlink:href="#New_Symbol"  width="17.093" height="17.093" x="-8.546" y="-8.546" transform="matrix(1 0 0 -1 111.0664 85.5195)" overflow="visible" enable-background="new    "/>
<use xlink:href="#New_Symbol"  width="17.093" height="17.093" x="-8.546" y="-8.546" transform="matrix(1 0 0 -1 128.1592 85.5195)" overflow="visible" enable-background="new    "/>
<use xlink:href="#New_Symbol"  width="17.093" height="17.093" x="-8.546" y="-8.546" transform="matrix(1 0 0 -1 145.2529 85.5195)" overflow="visible" enable-background="new    "/>
<use xlink:href="#New_Symbol"  width="17.093" height="17.093" x="-8.546" y="-8.546" transform="matrix(1 0 0 -1 162.3447 85.5195)" overflow="visible" enable-background="new    "/>
<use xlink:href="#New_Symbol"  width="17.093" height="17.093" x="-8.546" y="-8.546" transform="matrix(1 0 0 -1 34.1484 100.7227)" overflow="visible" enable-background="new    "/>
<use xlink:href="#New_Symbol"  width="17.093" height="17.093" x="-8.546" y="-8.546" transform="matrix(1 0 0 -1 51.2412 100.7227)" overflow="visible" enable-background="new    "/>
<use xlink:href="#New_Symbol"  width="17.093" height="17.093" x="-8.546" y="-8.546" transform="matrix(1 0 0 -1 68.334 100.7227)" overflow="visible" enable-background="new    "/>
<use xlink:href="#New_Symbol"  width="17.093" height="17.093" x="-8.546" y="-8.546" transform="matrix(1 0 0 -1 85.4268 100.7227)" overflow="visible" enable-background="new    "/>
<use xlink:href="#New_Symbol"  width="17.093" height="17.093" x="-8.546" y="-8.546" transform="matrix(1 0 0 -1 102.5195 100.7227)" overflow="visible" enable-background="new    "/>
<use xlink:href="#New_Symbol"  width="17.093" height="17.093" x="-8.546" y="-8.546" transform="matrix(1 0 0 -1 119.6123 100.7227)" overflow="visible" enable-background="new    "/>
<use xlink:href="#New_Symbol"  width="17.093" height="17.093" x="-8.546" y="-8.546" transform="matrix(1 0 0 -1 136.7061 100.7227)" overflow="visible" enable-background="new    "/>
<use xlink:href="#New_Symbol"  width="17.093" height="17.093" x="-8.546" y="-8.546" transform="matrix(1 0 0 -1 153.7979 100.7227)" overflow="visible" enable-background="new    "/>
<use xlink:href="#New_Symbol"  width="17.093" height="17.093" x="-8.546" y="-8.546" transform="matrix(1 0 0 -1 42.6953 115.8535)" overflow="visible" enable-background="new    "/>
<use xlink:href="#New_Symbol"  width="17.093" height="17.093" x="-8.546" y="-8.546" transform="matrix(1 0 0 -1 59.7881 115.8535)" overflow="visible" enable-background="new    "/>
<use xlink:href="#New_Symbol"  width="17.093" height="17.093" x="-8.546" y="-8.546" transform="matrix(1 0 0 -1 76.8809 115.8535)" overflow="visible" enable-background="new    "/>
<use xlink:href="#New_Symbol"  width="17.093" height="17.093" x="-8.546" y="-8.546" transform="matrix(1 0 0 -1 93.9736 115.8535)" overflow="visible" enable-background="new    "/>
<use xlink:href="#New_Symbol"  width="17.093" height="17.093" x="-8.546" y="-8.546" transform="matrix(1 0 0 -1 111.0664 115.8535)" overflow="visible" enable-background="new    "/>
<use xlink:href="#New_Symbol"  width="17.093" height="17.093" x="-8.546" y="-8.546" transform="matrix(1 0 0 -1 128.1592 115.8535)" overflow="visible" enable-background="new    "/>
<use xlink:href="#New_Symbol"  width="17.093" height="17.093" x="-8.546" y="-8.546" transform="matrix(1 0 0 -1 145.2529 115.8535)" overflow="visible" enable-background="new    "/>
<use xlink:href="#New_Symbol"  width="17.093" height="17.093" x="-8.546" y="-8.546" transform="matrix(1 0 0 -1 162.3447 115.8535)" overflow="visible" enable-background="new    "/>
<rect x="10.97" y="12.955" fill="none" stroke="#000000" width="1700.787" height="1133.858"/>
</svg>
